G75*
%MOIN*%
%OFA0B0*%
%FSLAX24Y24*%
%IPPOS*%
%LPD*%
%AMOC8*
5,1,8,0,0,1.08239X$1,22.5*
%
%ADD10C,0.0030*%
%ADD11C,0.0060*%
%ADD12C,0.0000*%
D10*
X001678Y001626D02*
X002048Y001626D01*
X002048Y001811D01*
X001987Y001873D01*
X001863Y001873D01*
X001801Y001811D01*
X001801Y001626D01*
X001801Y001749D02*
X001678Y001873D01*
X001678Y001994D02*
X002048Y002241D01*
X001863Y002362D02*
X001863Y002609D01*
X001678Y002241D02*
X002048Y001994D01*
X001987Y003051D02*
X001740Y003051D01*
X001678Y003112D01*
X001678Y003236D01*
X001740Y003298D01*
X001863Y003298D01*
X001863Y003174D01*
X001987Y003051D02*
X002048Y003112D01*
X002048Y003236D01*
X001987Y003298D01*
X002048Y003419D02*
X001678Y003666D01*
X002048Y003666D01*
X002048Y003787D02*
X002048Y003973D01*
X001987Y004034D01*
X001740Y004034D01*
X001678Y003973D01*
X001678Y003787D01*
X002048Y003787D01*
X002048Y003419D02*
X001678Y003419D01*
X001678Y004251D02*
X002048Y004251D01*
X002048Y004436D01*
X001987Y004498D01*
X001863Y004498D01*
X001801Y004436D01*
X001801Y004251D01*
X001801Y004374D02*
X001678Y004498D01*
X001678Y004619D02*
X002048Y004866D01*
X001863Y004987D02*
X001863Y005234D01*
X001740Y005111D02*
X001987Y005111D01*
X001678Y004866D02*
X002048Y004619D01*
X004078Y004539D02*
X004448Y004786D01*
X004263Y004907D02*
X004263Y005154D01*
X004140Y005031D02*
X004387Y005031D01*
X004078Y004786D02*
X004448Y004539D01*
X004448Y004418D02*
X004448Y004171D01*
X004448Y004294D02*
X004078Y004294D01*
X004183Y002609D02*
X004183Y002362D01*
X003998Y002241D02*
X004368Y001994D01*
X004368Y001873D02*
X004368Y001626D01*
X004368Y001749D02*
X003998Y001749D01*
X003998Y001994D02*
X004368Y002241D01*
X001968Y007354D02*
X001783Y007354D01*
X001845Y007478D01*
X001845Y007539D01*
X001783Y007601D01*
X001660Y007601D01*
X001598Y007539D01*
X001598Y007416D01*
X001660Y007354D01*
X001968Y007354D02*
X001968Y007601D01*
X001968Y007722D02*
X001721Y007722D01*
X001598Y007846D01*
X001721Y007969D01*
X001968Y007969D01*
X001987Y009146D02*
X001740Y009146D01*
X001678Y009208D01*
X001678Y009331D01*
X001740Y009393D01*
X001863Y009393D01*
X001863Y009269D01*
X001987Y009146D02*
X002048Y009208D01*
X002048Y009331D01*
X001987Y009393D01*
X002048Y009514D02*
X001678Y009761D01*
X002048Y009761D01*
X002048Y009882D02*
X002048Y010068D01*
X001987Y010129D01*
X001740Y010129D01*
X001678Y010068D01*
X001678Y009882D01*
X002048Y009882D01*
X002048Y009514D02*
X001678Y009514D01*
X001678Y011066D02*
X001678Y011313D01*
X001678Y011434D02*
X001925Y011681D01*
X001987Y011681D01*
X002048Y011619D01*
X002048Y011496D01*
X001987Y011434D01*
X002048Y011189D02*
X001678Y011189D01*
X001678Y011434D02*
X001678Y011681D01*
X001801Y011802D02*
X001678Y011926D01*
X001801Y012049D01*
X002048Y012049D01*
X002048Y011802D02*
X001801Y011802D01*
X002048Y011189D02*
X001925Y011066D01*
X010313Y010996D02*
X010313Y010811D01*
X010436Y010811D02*
X010436Y010996D01*
X010375Y011058D01*
X010313Y010996D01*
X010436Y010996D02*
X010498Y011058D01*
X010560Y011058D01*
X010560Y010811D01*
X010681Y010934D02*
X010681Y011181D01*
X010681Y010934D02*
X010805Y010811D01*
X010928Y010934D01*
X010928Y011181D01*
X012638Y010084D02*
X012638Y009961D01*
X012700Y009899D01*
X012947Y010146D01*
X012700Y010146D01*
X012638Y010084D01*
X012700Y009899D02*
X012947Y009899D01*
X013008Y009961D01*
X013008Y010084D01*
X012947Y010146D01*
X013008Y009778D02*
X013008Y009531D01*
X013008Y009654D02*
X012638Y009654D01*
X013598Y009654D02*
X013968Y009654D01*
X013968Y009531D02*
X013968Y009778D01*
X013845Y009899D02*
X013968Y010023D01*
X013598Y010023D01*
X013598Y010146D02*
X013598Y009899D01*
X014638Y009899D02*
X014885Y010146D01*
X014947Y010146D01*
X015008Y010084D01*
X015008Y009961D01*
X014947Y009899D01*
X015008Y009778D02*
X015008Y009531D01*
X015008Y009654D02*
X014638Y009654D01*
X014638Y009899D02*
X014638Y010146D01*
X015598Y010084D02*
X015598Y009961D01*
X015660Y009899D01*
X015783Y010023D02*
X015783Y010084D01*
X015721Y010146D01*
X015660Y010146D01*
X015598Y010084D01*
X015783Y010084D02*
X015845Y010146D01*
X015907Y010146D01*
X015968Y010084D01*
X015968Y009961D01*
X015907Y009899D01*
X015968Y009778D02*
X015968Y009531D01*
X015968Y009654D02*
X015598Y009654D01*
X022233Y010811D02*
X022233Y010996D01*
X022295Y011058D01*
X022356Y010996D01*
X022356Y010811D01*
X022480Y010811D02*
X022480Y011058D01*
X022418Y011058D01*
X022356Y010996D01*
X022601Y010934D02*
X022725Y010811D01*
X022848Y010934D01*
X022848Y011181D01*
X022601Y011181D02*
X022601Y010934D01*
X032158Y010423D02*
X032158Y010299D01*
X032158Y010361D02*
X032528Y010361D01*
X032528Y010299D02*
X032528Y010423D01*
X032528Y010178D02*
X032158Y010178D01*
X032405Y010054D02*
X032528Y010178D01*
X032405Y010054D02*
X032528Y009931D01*
X032158Y009931D01*
X033118Y009931D02*
X033488Y009931D01*
X033365Y010054D01*
X033488Y010178D01*
X033118Y010178D01*
X033180Y010299D02*
X033118Y010361D01*
X033118Y010484D01*
X033180Y010546D01*
X033427Y010546D01*
X033488Y010484D01*
X033488Y010361D01*
X033427Y010299D01*
X033180Y010299D01*
X034233Y010811D02*
X034233Y010996D01*
X034295Y011058D01*
X034356Y010996D01*
X034356Y010811D01*
X034480Y010811D02*
X034480Y011058D01*
X034418Y011058D01*
X034356Y010996D01*
X034601Y010934D02*
X034601Y011181D01*
X034601Y010934D02*
X034725Y010811D01*
X034848Y010934D01*
X034848Y011181D01*
X042935Y007661D02*
X043120Y007476D01*
X042873Y007476D01*
X042935Y007291D02*
X042935Y007661D01*
X043241Y007661D02*
X043488Y007661D01*
X043365Y007661D02*
X043365Y007291D01*
X043365Y006701D02*
X043365Y006331D01*
X043120Y006392D02*
X043058Y006331D01*
X042935Y006331D01*
X042873Y006392D01*
X042873Y006516D01*
X042935Y006578D01*
X042996Y006578D01*
X043120Y006516D01*
X043120Y006701D01*
X042873Y006701D01*
X043241Y006701D02*
X043488Y006701D01*
X043488Y005741D02*
X043241Y005741D01*
X043365Y005741D02*
X043365Y005371D01*
X043120Y005432D02*
X043058Y005371D01*
X042935Y005371D01*
X042873Y005432D01*
X042873Y005494D01*
X042935Y005556D01*
X043120Y005556D01*
X043120Y005432D01*
X043120Y005556D02*
X042996Y005679D01*
X042873Y005741D01*
X045623Y005701D02*
X045746Y005639D01*
X045869Y005516D01*
X045684Y005516D01*
X045623Y005454D01*
X045623Y005392D01*
X045684Y005331D01*
X045808Y005331D01*
X045869Y005392D01*
X045869Y005516D01*
X045991Y005701D02*
X046115Y005701D01*
X046053Y005701D02*
X046053Y005331D01*
X046115Y005331D02*
X045991Y005331D01*
X047223Y005331D02*
X047469Y005331D01*
X047591Y005331D02*
X047715Y005331D01*
X047653Y005331D02*
X047653Y005701D01*
X047715Y005701D02*
X047591Y005701D01*
X047469Y005578D02*
X047346Y005701D01*
X047346Y005331D01*
X047408Y004741D02*
X047284Y004741D01*
X047223Y004679D01*
X047469Y004432D01*
X047408Y004371D01*
X047284Y004371D01*
X047223Y004432D01*
X047223Y004679D01*
X047408Y004741D02*
X047469Y004679D01*
X047469Y004432D01*
X047591Y004371D02*
X047715Y004371D01*
X047653Y004371D02*
X047653Y004741D01*
X047715Y004741D02*
X047591Y004741D01*
X046115Y004741D02*
X045991Y004741D01*
X046053Y004741D02*
X046053Y004371D01*
X046115Y004371D02*
X045991Y004371D01*
X045869Y004371D02*
X045869Y004432D01*
X045623Y004679D01*
X045623Y004741D01*
X045869Y004741D01*
X045802Y003701D02*
X045802Y003331D01*
X045679Y003331D02*
X045679Y003701D01*
X045679Y003578D02*
X045617Y003578D01*
X045679Y003578D02*
X045864Y003578D01*
X045864Y003454D02*
X045617Y003454D01*
X045985Y003516D02*
X046232Y003516D01*
X046354Y003639D02*
X046354Y003392D01*
X046415Y003331D01*
X046539Y003331D01*
X046600Y003392D01*
X046600Y003639D01*
X046539Y003701D01*
X046415Y003701D01*
X046354Y003639D01*
X046232Y003701D02*
X046232Y003331D01*
X046354Y003331D02*
X046477Y003454D01*
X046737Y003516D02*
X046799Y003454D01*
X046984Y003454D01*
X046984Y003331D02*
X046984Y003701D01*
X046799Y003701D01*
X046737Y003639D01*
X046737Y003516D01*
X046860Y003454D02*
X046737Y003331D01*
X047105Y003331D02*
X047352Y003331D01*
X047352Y003701D01*
X047105Y003701D01*
X047229Y003516D02*
X047352Y003516D01*
X047474Y003454D02*
X047474Y003392D01*
X047535Y003331D01*
X047659Y003331D01*
X047720Y003392D01*
X047659Y003516D02*
X047535Y003516D01*
X047474Y003454D01*
X047474Y003639D02*
X047535Y003701D01*
X047659Y003701D01*
X047720Y003639D01*
X047720Y003578D01*
X047659Y003516D01*
X047635Y002741D02*
X047511Y002741D01*
X047449Y002679D01*
X047449Y002432D01*
X047511Y002371D01*
X047635Y002371D01*
X047696Y002432D01*
X047696Y002679D01*
X047635Y002741D01*
X047573Y002494D02*
X047449Y002371D01*
X047328Y002371D02*
X047328Y002741D01*
X047328Y002556D02*
X047081Y002556D01*
X047081Y002741D02*
X047081Y002371D01*
X046600Y002432D02*
X046539Y002371D01*
X046415Y002371D01*
X046354Y002432D01*
X046354Y002556D01*
X046477Y002556D01*
X046354Y002679D02*
X046415Y002741D01*
X046539Y002741D01*
X046600Y002679D01*
X046600Y002432D01*
X046232Y002371D02*
X046232Y002741D01*
X045985Y002371D01*
X045985Y002741D01*
X045864Y002741D02*
X045679Y002741D01*
X045617Y002679D01*
X045617Y002432D01*
X045679Y002371D01*
X045864Y002371D01*
X045864Y002741D01*
X045985Y003331D02*
X045985Y003701D01*
X050959Y005536D02*
X051206Y005536D01*
X051328Y005412D02*
X051328Y005659D01*
X051389Y005721D01*
X051575Y005721D01*
X051575Y005351D01*
X051389Y005351D01*
X051328Y005412D01*
X051696Y005351D02*
X051696Y005721D01*
X051943Y005721D02*
X051696Y005351D01*
X051863Y005234D02*
X051863Y004987D01*
X051740Y005111D02*
X051987Y005111D01*
X051943Y005351D02*
X051943Y005721D01*
X052064Y005721D02*
X052311Y005721D01*
X052311Y005351D01*
X052064Y005351D01*
X052188Y005536D02*
X052311Y005536D01*
X052048Y004866D02*
X051678Y004619D01*
X051678Y004498D02*
X051801Y004374D01*
X051801Y004436D02*
X051801Y004251D01*
X051678Y004251D02*
X052048Y004251D01*
X052048Y004436D01*
X051987Y004498D01*
X051863Y004498D01*
X051801Y004436D01*
X052048Y004619D02*
X051678Y004866D01*
X051740Y004034D02*
X051987Y004034D01*
X052048Y003973D01*
X052048Y003787D01*
X051678Y003787D01*
X051678Y003973D01*
X051740Y004034D01*
X051678Y003666D02*
X052048Y003666D01*
X052048Y003419D02*
X051678Y003419D01*
X051740Y003298D02*
X051863Y003298D01*
X051863Y003174D01*
X051740Y003051D02*
X051678Y003112D01*
X051678Y003236D01*
X051740Y003298D01*
X051987Y003298D02*
X052048Y003236D01*
X052048Y003112D01*
X051987Y003051D01*
X051740Y003051D01*
X051863Y002689D02*
X051863Y002442D01*
X051678Y002321D02*
X052048Y002074D01*
X051987Y001953D02*
X052048Y001891D01*
X052048Y001706D01*
X051678Y001706D01*
X051801Y001706D02*
X051801Y001891D01*
X051863Y001953D01*
X051987Y001953D01*
X051801Y001829D02*
X051678Y001953D01*
X051678Y002074D02*
X052048Y002321D01*
X052074Y001561D02*
X052321Y001561D01*
X052321Y001191D01*
X052074Y001191D01*
X051953Y001191D02*
X051953Y001561D01*
X051706Y001191D01*
X051706Y001561D01*
X051585Y001561D02*
X051399Y001561D01*
X051338Y001499D01*
X051338Y001252D01*
X051399Y001191D01*
X051585Y001191D01*
X051585Y001561D01*
X051216Y001376D02*
X050969Y001376D01*
X051093Y001499D02*
X051093Y001252D01*
X052198Y001376D02*
X052321Y001376D01*
X053998Y001829D02*
X054368Y001829D01*
X054368Y001706D02*
X054368Y001953D01*
X054368Y002074D02*
X053998Y002321D01*
X054183Y002442D02*
X054183Y002689D01*
X054368Y002321D02*
X053998Y002074D01*
X052048Y003419D02*
X051678Y003666D01*
X054078Y004134D02*
X054448Y004134D01*
X054448Y004011D02*
X054448Y004258D01*
X054448Y004379D02*
X054078Y004626D01*
X054263Y004747D02*
X054263Y004994D01*
X054140Y004871D02*
X054387Y004871D01*
X054448Y004626D02*
X054078Y004379D01*
X054078Y007211D02*
X054078Y007458D01*
X054078Y007579D02*
X054325Y007826D01*
X054387Y007826D01*
X054448Y007764D01*
X054448Y007641D01*
X054387Y007579D01*
X054448Y007334D02*
X054078Y007334D01*
X054078Y007579D02*
X054078Y007826D01*
X054201Y007947D02*
X054078Y008071D01*
X054201Y008194D01*
X054448Y008194D01*
X054448Y007947D02*
X054201Y007947D01*
X054448Y007334D02*
X054325Y007211D01*
X054387Y009211D02*
X054140Y009211D01*
X054078Y009272D01*
X054078Y009396D01*
X054140Y009458D01*
X054263Y009458D01*
X054263Y009334D01*
X054387Y009211D02*
X054448Y009272D01*
X054448Y009396D01*
X054387Y009458D01*
X054448Y009579D02*
X054078Y009826D01*
X054448Y009826D01*
X054448Y009947D02*
X054078Y009947D01*
X054078Y010133D01*
X054140Y010194D01*
X054387Y010194D01*
X054448Y010133D01*
X054448Y009947D01*
X054448Y009579D02*
X054078Y009579D01*
X054220Y011291D02*
X054158Y011352D01*
X054158Y011476D01*
X054220Y011538D01*
X054343Y011538D01*
X054405Y011476D01*
X054405Y011414D01*
X054343Y011291D01*
X054528Y011291D01*
X054528Y011538D01*
X054528Y011659D02*
X054281Y011659D01*
X054158Y011783D01*
X054281Y011906D01*
X054528Y011906D01*
X047776Y009461D02*
X047776Y009276D01*
X047653Y009338D01*
X047591Y009338D01*
X047529Y009276D01*
X047529Y009152D01*
X047591Y009091D01*
X047715Y009091D01*
X047776Y009152D01*
X047408Y009214D02*
X047285Y009091D01*
X047161Y009214D01*
X047161Y009461D01*
X047408Y009461D02*
X047408Y009214D01*
X047529Y009461D02*
X047776Y009461D01*
X047739Y008741D02*
X047800Y008679D01*
X047800Y008432D01*
X047739Y008371D01*
X047615Y008371D01*
X047554Y008432D01*
X047554Y008556D01*
X047677Y008556D01*
X047554Y008679D02*
X047615Y008741D01*
X047739Y008741D01*
X047432Y008741D02*
X047185Y008371D01*
X047185Y008741D01*
X047064Y008741D02*
X046879Y008741D01*
X046817Y008679D01*
X046817Y008432D01*
X046879Y008371D01*
X047064Y008371D01*
X047064Y008741D01*
X047432Y008741D02*
X047432Y008371D01*
X046600Y008432D02*
X046600Y008679D01*
X046539Y008741D01*
X046415Y008741D01*
X046354Y008679D01*
X046232Y008741D02*
X046232Y008371D01*
X045985Y008371D01*
X045864Y008371D02*
X045864Y008741D01*
X045802Y008556D02*
X045617Y008371D01*
X045864Y008494D02*
X045617Y008741D01*
X045703Y009331D02*
X045641Y009392D01*
X045641Y009639D01*
X045703Y009701D01*
X045888Y009701D01*
X045888Y009331D01*
X045703Y009331D01*
X046009Y009331D02*
X046256Y009331D01*
X046256Y009701D01*
X046276Y010731D02*
X046276Y010916D01*
X046215Y010978D01*
X046153Y010916D01*
X046153Y010731D01*
X046276Y010916D02*
X046338Y010978D01*
X046400Y010978D01*
X046400Y010731D01*
X046521Y010854D02*
X046521Y011101D01*
X046521Y010854D02*
X046645Y010731D01*
X046768Y010854D01*
X046768Y011101D01*
X046600Y008432D02*
X046539Y008371D01*
X046415Y008371D01*
X046354Y008432D01*
X046115Y007701D02*
X045991Y007701D01*
X046053Y007701D02*
X046053Y007331D01*
X046115Y007331D02*
X045991Y007331D01*
X045869Y007516D02*
X045623Y007516D01*
X045684Y007701D02*
X045869Y007516D01*
X045684Y007331D02*
X045684Y007701D01*
X047223Y007639D02*
X047223Y007578D01*
X047284Y007516D01*
X047223Y007454D01*
X047223Y007392D01*
X047284Y007331D01*
X047408Y007331D01*
X047469Y007392D01*
X047591Y007331D02*
X047715Y007331D01*
X047653Y007331D02*
X047653Y007701D01*
X047715Y007701D02*
X047591Y007701D01*
X047469Y007639D02*
X047408Y007701D01*
X047284Y007701D01*
X047223Y007639D01*
X047284Y007516D02*
X047346Y007516D01*
X047408Y006741D02*
X047469Y006679D01*
X047408Y006741D02*
X047284Y006741D01*
X047223Y006679D01*
X047223Y006618D01*
X047469Y006371D01*
X047223Y006371D01*
X047591Y006371D02*
X047715Y006371D01*
X047653Y006371D02*
X047653Y006741D01*
X047715Y006741D02*
X047591Y006741D01*
X046115Y006741D02*
X045991Y006741D01*
X046053Y006741D02*
X046053Y006371D01*
X046115Y006371D02*
X045991Y006371D01*
X045869Y006432D02*
X045808Y006371D01*
X045684Y006371D01*
X045623Y006432D01*
X045623Y006556D01*
X045684Y006618D01*
X045746Y006618D01*
X045869Y006556D01*
X045869Y006741D01*
X045623Y006741D01*
X051236Y017771D02*
X051113Y017894D01*
X051113Y018141D01*
X051360Y018141D02*
X051360Y017894D01*
X051236Y017771D01*
X051481Y017832D02*
X051481Y017956D01*
X051543Y018018D01*
X051605Y018018D01*
X051728Y017956D01*
X051728Y018141D01*
X051481Y018141D01*
X051481Y017832D02*
X051543Y017771D01*
X051666Y017771D01*
X051728Y017832D01*
X050448Y019691D02*
X050448Y020061D01*
X050325Y019938D01*
X050201Y020061D01*
X050201Y019691D01*
X050080Y019752D02*
X050080Y019814D01*
X050018Y019876D01*
X049895Y019876D01*
X049833Y019814D01*
X049833Y019752D01*
X049895Y019691D01*
X050018Y019691D01*
X050080Y019752D01*
X050018Y019876D02*
X050080Y019938D01*
X050080Y019999D01*
X050018Y020061D01*
X049895Y020061D01*
X049833Y019999D01*
X049833Y019938D01*
X049895Y019876D01*
X049711Y019999D02*
X049650Y020061D01*
X049526Y020061D01*
X049464Y019999D01*
X049464Y019938D01*
X049711Y019691D01*
X049464Y019691D01*
X049205Y019691D02*
X049205Y020061D01*
X049328Y020061D02*
X049081Y020061D01*
X048960Y020061D02*
X048713Y020061D01*
X048713Y019999D01*
X048960Y019752D01*
X048960Y019691D01*
X048528Y019752D02*
X048528Y019999D01*
X048466Y020061D01*
X048343Y020061D01*
X048281Y019999D01*
X048281Y019876D02*
X048405Y019876D01*
X048281Y019876D02*
X048281Y019752D01*
X048343Y019691D01*
X048466Y019691D01*
X048528Y019752D01*
X048160Y019691D02*
X048160Y020061D01*
X047913Y019691D01*
X047913Y020061D01*
X047791Y020061D02*
X047606Y020061D01*
X047544Y019999D01*
X047544Y019752D01*
X047606Y019691D01*
X047791Y019691D01*
X047791Y020061D01*
X047088Y020054D02*
X047088Y020301D01*
X046965Y020484D02*
X046965Y020607D01*
X046903Y020669D01*
X046718Y020669D01*
X046718Y020484D01*
X046780Y020422D01*
X046841Y020484D01*
X046841Y020669D01*
X046780Y020791D02*
X046903Y020791D01*
X046965Y020852D01*
X046965Y021037D01*
X047088Y021037D02*
X046718Y021037D01*
X046718Y020852D01*
X046780Y020791D01*
X046780Y021159D02*
X046903Y021159D01*
X046965Y021221D01*
X046965Y021344D01*
X046903Y021406D01*
X046841Y021406D01*
X046841Y021159D01*
X046780Y021159D02*
X046718Y021221D01*
X046718Y021344D01*
X046718Y021527D02*
X046965Y021527D01*
X046841Y021527D02*
X046965Y021651D01*
X046965Y021712D01*
X046965Y022202D02*
X046903Y022264D01*
X046903Y022388D01*
X046841Y022449D01*
X046780Y022449D01*
X046718Y022388D01*
X046718Y022264D01*
X046780Y022202D01*
X046841Y022202D01*
X046903Y022264D01*
X046965Y022202D02*
X047027Y022202D01*
X047088Y022264D01*
X047088Y022388D01*
X047027Y022449D01*
X046965Y022449D01*
X046903Y022388D01*
X047753Y022374D02*
X047876Y022251D01*
X048000Y022374D01*
X048000Y022621D01*
X048121Y022621D02*
X048368Y022621D01*
X048368Y022436D01*
X048245Y022498D01*
X048183Y022498D01*
X048121Y022436D01*
X048121Y022312D01*
X048183Y022251D01*
X048306Y022251D01*
X048368Y022312D01*
X048921Y022251D02*
X048921Y022621D01*
X049168Y022621D02*
X049168Y022251D01*
X049045Y022374D01*
X048921Y022251D01*
X049384Y022251D02*
X049631Y022251D01*
X049508Y022251D02*
X049508Y022621D01*
X049631Y022498D01*
X049753Y022498D02*
X049815Y022436D01*
X049938Y022436D01*
X050000Y022498D01*
X050000Y022559D01*
X049938Y022621D01*
X049815Y022621D01*
X049753Y022559D01*
X049753Y022498D01*
X049815Y022436D02*
X049753Y022374D01*
X049753Y022312D01*
X049815Y022251D01*
X049938Y022251D01*
X050000Y022312D01*
X050000Y022374D01*
X049938Y022436D01*
X050121Y022621D02*
X050245Y022498D01*
X050368Y022621D01*
X050368Y022251D01*
X050121Y022251D02*
X050121Y022621D01*
X047753Y022621D02*
X047753Y022374D01*
X044368Y022251D02*
X044368Y022621D01*
X044245Y022498D01*
X044121Y022621D01*
X044121Y022251D01*
X044000Y022251D02*
X044000Y022312D01*
X043753Y022559D01*
X043753Y022621D01*
X044000Y022621D01*
X043631Y022498D02*
X043508Y022621D01*
X043508Y022251D01*
X043631Y022251D02*
X043384Y022251D01*
X043168Y022251D02*
X043045Y022374D01*
X042921Y022251D01*
X042921Y022621D01*
X043168Y022621D02*
X043168Y022251D01*
X042368Y022312D02*
X042306Y022251D01*
X042183Y022251D01*
X042121Y022312D01*
X042121Y022436D01*
X042183Y022498D01*
X042245Y022498D01*
X042368Y022436D01*
X042368Y022621D01*
X042121Y022621D01*
X042000Y022621D02*
X042000Y022374D01*
X041876Y022251D01*
X041753Y022374D01*
X041753Y022621D01*
X041088Y022449D02*
X041027Y022449D01*
X040780Y022202D01*
X040718Y022202D01*
X041088Y022202D02*
X041088Y022449D01*
X040965Y021712D02*
X040965Y021651D01*
X040841Y021527D01*
X040841Y021406D02*
X040841Y021159D01*
X040780Y021159D02*
X040903Y021159D01*
X040965Y021221D01*
X040965Y021344D01*
X040903Y021406D01*
X040841Y021406D01*
X040718Y021344D02*
X040718Y021221D01*
X040780Y021159D01*
X040718Y021037D02*
X040718Y020852D01*
X040780Y020791D01*
X040903Y020791D01*
X040965Y020852D01*
X040965Y021037D01*
X041088Y021037D02*
X040718Y021037D01*
X040718Y020669D02*
X040718Y020484D01*
X040780Y020422D01*
X040841Y020484D01*
X040841Y020669D01*
X040903Y020669D02*
X040718Y020669D01*
X040903Y020669D02*
X040965Y020607D01*
X040965Y020484D01*
X041088Y020301D02*
X041088Y020054D01*
X040718Y020054D01*
X040903Y020054D02*
X040903Y020177D01*
X041544Y019999D02*
X041606Y020061D01*
X041791Y020061D01*
X041791Y019691D01*
X041606Y019691D01*
X041544Y019752D01*
X041544Y019999D01*
X041913Y020061D02*
X041913Y019691D01*
X042160Y020061D01*
X042160Y019691D01*
X042281Y019752D02*
X042281Y019876D01*
X042405Y019876D01*
X042528Y019999D02*
X042466Y020061D01*
X042343Y020061D01*
X042281Y019999D01*
X042281Y019752D02*
X042343Y019691D01*
X042466Y019691D01*
X042528Y019752D01*
X042528Y019999D01*
X042713Y020061D02*
X042836Y019999D01*
X042960Y019876D01*
X042775Y019876D01*
X042713Y019814D01*
X042713Y019752D01*
X042775Y019691D01*
X042898Y019691D01*
X042960Y019752D01*
X042960Y019876D01*
X043081Y020061D02*
X043328Y020061D01*
X043205Y020061D02*
X043205Y019691D01*
X043464Y019691D02*
X043711Y019691D01*
X043464Y019938D01*
X043464Y019999D01*
X043526Y020061D01*
X043650Y020061D01*
X043711Y019999D01*
X043833Y019999D02*
X044080Y019752D01*
X044080Y019691D01*
X044201Y019691D02*
X044201Y020061D01*
X044325Y019938D01*
X044448Y020061D01*
X044448Y019691D01*
X044080Y020061D02*
X043833Y020061D01*
X043833Y019999D01*
X046718Y020054D02*
X047088Y020054D01*
X046903Y020054D02*
X046903Y020177D01*
X040965Y021527D02*
X040718Y021527D01*
X038368Y022251D02*
X038368Y022621D01*
X038245Y022498D01*
X038121Y022621D01*
X038121Y022251D01*
X038000Y022312D02*
X037938Y022251D01*
X037815Y022251D01*
X037753Y022312D01*
X037753Y022374D01*
X037815Y022436D01*
X038000Y022436D01*
X038000Y022312D01*
X038000Y022436D02*
X037876Y022559D01*
X037753Y022621D01*
X037631Y022498D02*
X037508Y022621D01*
X037508Y022251D01*
X037631Y022251D02*
X037384Y022251D01*
X037168Y022251D02*
X037045Y022374D01*
X036921Y022251D01*
X036921Y022621D01*
X037168Y022621D02*
X037168Y022251D01*
X036368Y022312D02*
X036306Y022251D01*
X036183Y022251D01*
X036121Y022312D01*
X036121Y022436D01*
X036183Y022498D01*
X036245Y022498D01*
X036368Y022436D01*
X036368Y022621D01*
X036121Y022621D01*
X036000Y022621D02*
X036000Y022374D01*
X035876Y022251D01*
X035753Y022374D01*
X035753Y022621D01*
X035088Y022449D02*
X035027Y022326D01*
X034903Y022202D01*
X034903Y022388D01*
X034841Y022449D01*
X034780Y022449D01*
X034718Y022388D01*
X034718Y022264D01*
X034780Y022202D01*
X034903Y022202D01*
X034965Y021712D02*
X034965Y021651D01*
X034841Y021527D01*
X034841Y021406D02*
X034841Y021159D01*
X034780Y021159D02*
X034903Y021159D01*
X034965Y021221D01*
X034965Y021344D01*
X034903Y021406D01*
X034841Y021406D01*
X034718Y021344D02*
X034718Y021221D01*
X034780Y021159D01*
X034718Y021037D02*
X034718Y020852D01*
X034780Y020791D01*
X034903Y020791D01*
X034965Y020852D01*
X034965Y021037D01*
X035088Y021037D02*
X034718Y021037D01*
X034718Y020669D02*
X034718Y020484D01*
X034780Y020422D01*
X034841Y020484D01*
X034841Y020669D01*
X034903Y020669D02*
X034718Y020669D01*
X034903Y020669D02*
X034965Y020607D01*
X034965Y020484D01*
X035088Y020301D02*
X035088Y020054D01*
X034718Y020054D01*
X034903Y020054D02*
X034903Y020177D01*
X035544Y019999D02*
X035606Y020061D01*
X035791Y020061D01*
X035791Y019691D01*
X035606Y019691D01*
X035544Y019752D01*
X035544Y019999D01*
X035913Y020061D02*
X035913Y019691D01*
X036160Y020061D01*
X036160Y019691D01*
X036281Y019752D02*
X036281Y019876D01*
X036405Y019876D01*
X036528Y019999D02*
X036528Y019752D01*
X036466Y019691D01*
X036343Y019691D01*
X036281Y019752D01*
X036281Y019999D02*
X036343Y020061D01*
X036466Y020061D01*
X036528Y019999D01*
X036713Y020061D02*
X036960Y020061D01*
X036960Y019876D01*
X036836Y019938D01*
X036775Y019938D01*
X036713Y019876D01*
X036713Y019752D01*
X036775Y019691D01*
X036898Y019691D01*
X036960Y019752D01*
X037205Y019691D02*
X037205Y020061D01*
X037328Y020061D02*
X037081Y020061D01*
X037544Y019999D02*
X037606Y020061D01*
X037730Y020061D01*
X037791Y019999D01*
X037913Y020061D02*
X038036Y019999D01*
X038160Y019876D01*
X037975Y019876D01*
X037913Y019814D01*
X037913Y019752D01*
X037975Y019691D01*
X038098Y019691D01*
X038160Y019752D01*
X038160Y019876D01*
X038281Y020061D02*
X038281Y019691D01*
X038528Y019691D02*
X038528Y020061D01*
X038405Y019938D01*
X038281Y020061D01*
X037791Y019691D02*
X037544Y019938D01*
X037544Y019999D01*
X037544Y019691D02*
X037791Y019691D01*
X039193Y018141D02*
X039193Y017894D01*
X039316Y017771D01*
X039440Y017894D01*
X039440Y018141D01*
X039561Y018141D02*
X039808Y018141D01*
X039808Y017956D01*
X039685Y018018D01*
X039623Y018018D01*
X039561Y017956D01*
X039561Y017832D01*
X039623Y017771D01*
X039746Y017771D01*
X039808Y017832D01*
X032528Y019691D02*
X032528Y020061D01*
X032405Y019938D01*
X032281Y020061D01*
X032281Y019691D01*
X032160Y019752D02*
X032098Y019691D01*
X031975Y019691D01*
X031913Y019752D01*
X031913Y019876D01*
X031975Y019938D01*
X032036Y019938D01*
X032160Y019876D01*
X032160Y020061D01*
X031913Y020061D01*
X031791Y019999D02*
X031730Y020061D01*
X031606Y020061D01*
X031544Y019999D01*
X031544Y019938D01*
X031791Y019691D01*
X031544Y019691D01*
X031205Y019691D02*
X031205Y020061D01*
X031328Y020061D02*
X031081Y020061D01*
X030960Y019876D02*
X030713Y019876D01*
X030775Y019691D02*
X030775Y020061D01*
X030960Y019876D01*
X030448Y019999D02*
X030448Y019752D01*
X030386Y019691D01*
X030263Y019691D01*
X030201Y019752D01*
X030201Y019876D01*
X030325Y019876D01*
X030448Y019999D02*
X030386Y020061D01*
X030263Y020061D01*
X030201Y019999D01*
X030080Y020061D02*
X029833Y019691D01*
X029833Y020061D01*
X029711Y020061D02*
X029526Y020061D01*
X029464Y019999D01*
X029464Y019752D01*
X029526Y019691D01*
X029711Y019691D01*
X029711Y020061D01*
X030080Y020061D02*
X030080Y019691D01*
X029088Y020054D02*
X029088Y020301D01*
X028965Y020484D02*
X028965Y020607D01*
X028903Y020669D01*
X028718Y020669D01*
X028718Y020484D01*
X028780Y020422D01*
X028841Y020484D01*
X028841Y020669D01*
X028780Y020791D02*
X028903Y020791D01*
X028965Y020852D01*
X028965Y021037D01*
X029088Y021037D02*
X028718Y021037D01*
X028718Y020852D01*
X028780Y020791D01*
X028780Y021159D02*
X028903Y021159D01*
X028965Y021221D01*
X028965Y021344D01*
X028903Y021406D01*
X028841Y021406D01*
X028841Y021159D01*
X028780Y021159D02*
X028718Y021221D01*
X028718Y021344D01*
X028718Y021527D02*
X028965Y021527D01*
X028841Y021527D02*
X028965Y021651D01*
X028965Y021712D01*
X028903Y022202D02*
X028965Y022326D01*
X028965Y022388D01*
X028903Y022449D01*
X028780Y022449D01*
X028718Y022388D01*
X028718Y022264D01*
X028780Y022202D01*
X028903Y022202D02*
X029088Y022202D01*
X029088Y022449D01*
X029753Y022374D02*
X029876Y022251D01*
X030000Y022374D01*
X030000Y022621D01*
X030121Y022621D02*
X030368Y022621D01*
X030368Y022436D01*
X030245Y022498D01*
X030183Y022498D01*
X030121Y022436D01*
X030121Y022312D01*
X030183Y022251D01*
X030306Y022251D01*
X030368Y022312D01*
X030921Y022251D02*
X030921Y022621D01*
X031168Y022621D02*
X031168Y022251D01*
X031045Y022374D01*
X030921Y022251D01*
X031384Y022251D02*
X031631Y022251D01*
X031508Y022251D02*
X031508Y022621D01*
X031631Y022498D01*
X031753Y022436D02*
X031753Y022312D01*
X031815Y022251D01*
X031938Y022251D01*
X032000Y022312D01*
X032000Y022436D02*
X031876Y022498D01*
X031815Y022498D01*
X031753Y022436D01*
X031753Y022621D02*
X032000Y022621D01*
X032000Y022436D01*
X032121Y022621D02*
X032245Y022498D01*
X032368Y022621D01*
X032368Y022251D01*
X032121Y022251D02*
X032121Y022621D01*
X029753Y022621D02*
X029753Y022374D01*
X026368Y022331D02*
X026368Y022701D01*
X026245Y022578D01*
X026121Y022701D01*
X026121Y022331D01*
X026000Y022516D02*
X025753Y022516D01*
X025631Y022578D02*
X025508Y022701D01*
X025508Y022331D01*
X025631Y022331D02*
X025384Y022331D01*
X025168Y022331D02*
X025045Y022454D01*
X024921Y022331D01*
X024921Y022701D01*
X025168Y022701D02*
X025168Y022331D01*
X025815Y022331D02*
X025815Y022701D01*
X026000Y022516D01*
X024368Y022516D02*
X024245Y022578D01*
X024183Y022578D01*
X024121Y022516D01*
X024121Y022392D01*
X024183Y022331D01*
X024306Y022331D01*
X024368Y022392D01*
X024368Y022516D02*
X024368Y022701D01*
X024121Y022701D01*
X024000Y022701D02*
X024000Y022454D01*
X023876Y022331D01*
X023753Y022454D01*
X023753Y022701D01*
X023088Y022388D02*
X022903Y022202D01*
X022903Y022449D01*
X022718Y022388D02*
X023088Y022388D01*
X022965Y021712D02*
X022965Y021651D01*
X022841Y021527D01*
X022841Y021406D02*
X022841Y021159D01*
X022780Y021159D02*
X022903Y021159D01*
X022965Y021221D01*
X022965Y021344D01*
X022903Y021406D01*
X022841Y021406D01*
X022718Y021344D02*
X022718Y021221D01*
X022780Y021159D01*
X022718Y021037D02*
X022718Y020852D01*
X022780Y020791D01*
X022903Y020791D01*
X022965Y020852D01*
X022965Y021037D01*
X023088Y021037D02*
X022718Y021037D01*
X022718Y020669D02*
X022718Y020484D01*
X022780Y020422D01*
X022841Y020484D01*
X022841Y020669D01*
X022903Y020669D02*
X022718Y020669D01*
X022903Y020669D02*
X022965Y020607D01*
X022965Y020484D01*
X023088Y020301D02*
X023088Y020054D01*
X022718Y020054D01*
X022903Y020054D02*
X022903Y020177D01*
X023464Y020079D02*
X023526Y020141D01*
X023711Y020141D01*
X023711Y019771D01*
X023526Y019771D01*
X023464Y019832D01*
X023464Y020079D01*
X023833Y020141D02*
X023833Y019771D01*
X024080Y020141D01*
X024080Y019771D01*
X024201Y019832D02*
X024201Y019956D01*
X024325Y019956D01*
X024448Y020079D02*
X024448Y019832D01*
X024386Y019771D01*
X024263Y019771D01*
X024201Y019832D01*
X024201Y020079D02*
X024263Y020141D01*
X024386Y020141D01*
X024448Y020079D01*
X024713Y020079D02*
X024775Y020141D01*
X024898Y020141D01*
X024960Y020079D01*
X025081Y020141D02*
X025328Y020141D01*
X025205Y020141D02*
X025205Y019771D01*
X024960Y019832D02*
X024898Y019771D01*
X024775Y019771D01*
X024713Y019832D01*
X024713Y019894D01*
X024775Y019956D01*
X024836Y019956D01*
X024775Y019956D02*
X024713Y020018D01*
X024713Y020079D01*
X025544Y020079D02*
X025606Y020141D01*
X025730Y020141D01*
X025791Y020079D01*
X025913Y019956D02*
X026160Y019956D01*
X025975Y020141D01*
X025975Y019771D01*
X025791Y019771D02*
X025544Y020018D01*
X025544Y020079D01*
X025544Y019771D02*
X025791Y019771D01*
X026281Y019771D02*
X026281Y020141D01*
X026405Y020018D01*
X026528Y020141D01*
X026528Y019771D01*
X028718Y020054D02*
X029088Y020054D01*
X028903Y020054D02*
X028903Y020177D01*
X027808Y018141D02*
X027808Y017956D01*
X027685Y018018D01*
X027623Y018018D01*
X027561Y017956D01*
X027561Y017832D01*
X027623Y017771D01*
X027746Y017771D01*
X027808Y017832D01*
X027808Y018141D02*
X027561Y018141D01*
X027440Y018141D02*
X027440Y017894D01*
X027316Y017771D01*
X027193Y017894D01*
X027193Y018141D01*
X020528Y019771D02*
X020528Y020141D01*
X020405Y020018D01*
X020281Y020141D01*
X020281Y019771D01*
X020160Y019832D02*
X020098Y019771D01*
X019975Y019771D01*
X019913Y019832D01*
X019913Y019894D01*
X019975Y019956D01*
X020036Y019956D01*
X019975Y019956D02*
X019913Y020018D01*
X019913Y020079D01*
X019975Y020141D01*
X020098Y020141D01*
X020160Y020079D01*
X019791Y020079D02*
X019730Y020141D01*
X019606Y020141D01*
X019544Y020079D01*
X019544Y020018D01*
X019791Y019771D01*
X019544Y019771D01*
X019205Y019771D02*
X019205Y020141D01*
X019328Y020141D02*
X019081Y020141D01*
X018960Y020079D02*
X018898Y020141D01*
X018775Y020141D01*
X018713Y020079D01*
X018713Y020018D01*
X018960Y019771D01*
X018713Y019771D01*
X018448Y019832D02*
X018448Y020079D01*
X018386Y020141D01*
X018263Y020141D01*
X018201Y020079D01*
X018201Y019956D02*
X018325Y019956D01*
X018201Y019956D02*
X018201Y019832D01*
X018263Y019771D01*
X018386Y019771D01*
X018448Y019832D01*
X018080Y019771D02*
X018080Y020141D01*
X017833Y019771D01*
X017833Y020141D01*
X017711Y020141D02*
X017526Y020141D01*
X017464Y020079D01*
X017464Y019832D01*
X017526Y019771D01*
X017711Y019771D01*
X017711Y020141D01*
X017088Y020054D02*
X017088Y020301D01*
X016965Y020484D02*
X016965Y020607D01*
X016903Y020669D01*
X016718Y020669D01*
X016718Y020484D01*
X016780Y020422D01*
X016841Y020484D01*
X016841Y020669D01*
X016780Y020791D02*
X016903Y020791D01*
X016965Y020852D01*
X016965Y021037D01*
X017088Y021037D02*
X016718Y021037D01*
X016718Y020852D01*
X016780Y020791D01*
X016780Y021159D02*
X016718Y021221D01*
X016718Y021344D01*
X016841Y021406D02*
X016841Y021159D01*
X016780Y021159D02*
X016903Y021159D01*
X016965Y021221D01*
X016965Y021344D01*
X016903Y021406D01*
X016841Y021406D01*
X016841Y021527D02*
X016965Y021651D01*
X016965Y021712D01*
X016965Y021527D02*
X016718Y021527D01*
X016780Y022202D02*
X016718Y022264D01*
X016718Y022388D01*
X016780Y022449D01*
X016841Y022449D01*
X016903Y022388D01*
X016903Y022326D01*
X016903Y022388D02*
X016965Y022449D01*
X017027Y022449D01*
X017088Y022388D01*
X017088Y022264D01*
X017027Y022202D01*
X017673Y022454D02*
X017673Y022701D01*
X017920Y022701D02*
X017920Y022454D01*
X017796Y022331D01*
X017673Y022454D01*
X018041Y022392D02*
X018103Y022331D01*
X018226Y022331D01*
X018288Y022392D01*
X018288Y022516D02*
X018165Y022578D01*
X018103Y022578D01*
X018041Y022516D01*
X018041Y022392D01*
X018288Y022516D02*
X018288Y022701D01*
X018041Y022701D01*
X018841Y022701D02*
X018841Y022331D01*
X018965Y022454D01*
X019088Y022331D01*
X019088Y022701D01*
X019428Y022701D02*
X019428Y022331D01*
X019551Y022331D02*
X019304Y022331D01*
X019551Y022578D02*
X019428Y022701D01*
X019673Y022639D02*
X019673Y022578D01*
X019735Y022516D01*
X019673Y022454D01*
X019673Y022392D01*
X019735Y022331D01*
X019858Y022331D01*
X019920Y022392D01*
X020041Y022331D02*
X020041Y022701D01*
X020165Y022578D01*
X020288Y022701D01*
X020288Y022331D01*
X019920Y022639D02*
X019858Y022701D01*
X019735Y022701D01*
X019673Y022639D01*
X019735Y022516D02*
X019796Y022516D01*
X022718Y021527D02*
X022965Y021527D01*
X017088Y020054D02*
X016718Y020054D01*
X016903Y020054D02*
X016903Y020177D01*
X014608Y020141D02*
X014608Y019771D01*
X014361Y019771D02*
X014361Y020141D01*
X014485Y020018D01*
X014608Y020141D01*
X014240Y020079D02*
X014178Y020141D01*
X014055Y020141D01*
X013993Y020079D01*
X013993Y020018D01*
X014240Y019771D01*
X013993Y019771D01*
X013871Y019771D02*
X013624Y020018D01*
X013624Y020079D01*
X013686Y020141D01*
X013810Y020141D01*
X013871Y020079D01*
X013871Y019771D02*
X013624Y019771D01*
X013205Y019771D02*
X013205Y020141D01*
X013328Y020141D02*
X013081Y020141D01*
X012960Y020018D02*
X012836Y020141D01*
X012836Y019771D01*
X012713Y019771D02*
X012960Y019771D01*
X012448Y019832D02*
X012448Y020079D01*
X012386Y020141D01*
X012263Y020141D01*
X012201Y020079D01*
X012201Y019956D02*
X012325Y019956D01*
X012201Y019956D02*
X012201Y019832D01*
X012263Y019771D01*
X012386Y019771D01*
X012448Y019832D01*
X012080Y019771D02*
X012080Y020141D01*
X011833Y019771D01*
X011833Y020141D01*
X011711Y020141D02*
X011526Y020141D01*
X011464Y020079D01*
X011464Y019832D01*
X011526Y019771D01*
X011711Y019771D01*
X011711Y020141D01*
X011088Y020221D02*
X011088Y019974D01*
X010718Y019974D01*
X010903Y019974D02*
X010903Y020097D01*
X010780Y020342D02*
X010841Y020404D01*
X010841Y020589D01*
X010903Y020589D02*
X010718Y020589D01*
X010718Y020404D01*
X010780Y020342D01*
X010965Y020404D02*
X010965Y020527D01*
X010903Y020589D01*
X010903Y020711D02*
X010965Y020772D01*
X010965Y020957D01*
X011088Y020957D02*
X010718Y020957D01*
X010718Y020772D01*
X010780Y020711D01*
X010903Y020711D01*
X010903Y021079D02*
X010965Y021141D01*
X010965Y021264D01*
X010903Y021326D01*
X010841Y021326D01*
X010841Y021079D01*
X010780Y021079D02*
X010903Y021079D01*
X010780Y021079D02*
X010718Y021141D01*
X010718Y021264D01*
X010718Y021447D02*
X010965Y021447D01*
X010841Y021447D02*
X010965Y021571D01*
X010965Y021632D01*
X011027Y022122D02*
X011088Y022184D01*
X011088Y022308D01*
X011027Y022369D01*
X010965Y022369D01*
X010718Y022122D01*
X010718Y022369D01*
X011753Y022454D02*
X011753Y022701D01*
X012000Y022701D02*
X012000Y022454D01*
X011876Y022331D01*
X011753Y022454D01*
X012121Y022392D02*
X012183Y022331D01*
X012306Y022331D01*
X012368Y022392D01*
X012368Y022516D02*
X012245Y022578D01*
X012183Y022578D01*
X012121Y022516D01*
X012121Y022392D01*
X012368Y022516D02*
X012368Y022701D01*
X012121Y022701D01*
X012921Y022701D02*
X012921Y022331D01*
X013045Y022454D01*
X013168Y022331D01*
X013168Y022701D01*
X013508Y022701D02*
X013508Y022331D01*
X013631Y022331D02*
X013384Y022331D01*
X013631Y022578D02*
X013508Y022701D01*
X013753Y022639D02*
X013815Y022701D01*
X013938Y022701D01*
X014000Y022639D01*
X014121Y022701D02*
X014121Y022331D01*
X014000Y022331D02*
X013753Y022578D01*
X013753Y022639D01*
X013753Y022331D02*
X014000Y022331D01*
X014245Y022578D02*
X014121Y022701D01*
X014245Y022578D02*
X014368Y022701D01*
X014368Y022331D01*
X008528Y020141D02*
X008405Y020018D01*
X008281Y020141D01*
X008281Y019771D01*
X008160Y019771D02*
X007913Y019771D01*
X007791Y019771D02*
X007544Y020018D01*
X007544Y020079D01*
X007606Y020141D01*
X007730Y020141D01*
X007791Y020079D01*
X008036Y020141D02*
X008036Y019771D01*
X007791Y019771D02*
X007544Y019771D01*
X007205Y019771D02*
X007205Y020141D01*
X007328Y020141D02*
X007081Y020141D01*
X006960Y020079D02*
X006898Y020141D01*
X006775Y020141D01*
X006713Y020079D01*
X006960Y019832D01*
X006898Y019771D01*
X006775Y019771D01*
X006713Y019832D01*
X006713Y020079D01*
X006960Y020079D02*
X006960Y019832D01*
X006448Y019832D02*
X006448Y020079D01*
X006386Y020141D01*
X006263Y020141D01*
X006201Y020079D01*
X006201Y019956D02*
X006325Y019956D01*
X006201Y019956D02*
X006201Y019832D01*
X006263Y019771D01*
X006386Y019771D01*
X006448Y019832D01*
X006080Y019771D02*
X006080Y020141D01*
X005833Y019771D01*
X005833Y020141D01*
X005711Y020141D02*
X005526Y020141D01*
X005464Y020079D01*
X005464Y019832D01*
X005526Y019771D01*
X005711Y019771D01*
X005711Y020141D01*
X005088Y020054D02*
X005088Y020301D01*
X004965Y020484D02*
X004965Y020607D01*
X004903Y020669D01*
X004718Y020669D01*
X004718Y020484D01*
X004780Y020422D01*
X004841Y020484D01*
X004841Y020669D01*
X004780Y020791D02*
X004903Y020791D01*
X004965Y020852D01*
X004965Y021037D01*
X005088Y021037D02*
X004718Y021037D01*
X004718Y020852D01*
X004780Y020791D01*
X004780Y021159D02*
X004903Y021159D01*
X004965Y021221D01*
X004965Y021344D01*
X004903Y021406D01*
X004841Y021406D01*
X004841Y021159D01*
X004780Y021159D02*
X004718Y021221D01*
X004718Y021344D01*
X004718Y021527D02*
X004965Y021527D01*
X004841Y021527D02*
X004965Y021651D01*
X004965Y021712D01*
X004965Y022202D02*
X005088Y022326D01*
X004718Y022326D01*
X004718Y022449D02*
X004718Y022202D01*
X005753Y022454D02*
X005753Y022701D01*
X006000Y022701D02*
X006000Y022454D01*
X005876Y022331D01*
X005753Y022454D01*
X006121Y022392D02*
X006183Y022331D01*
X006306Y022331D01*
X006368Y022392D01*
X006368Y022516D02*
X006245Y022578D01*
X006183Y022578D01*
X006121Y022516D01*
X006121Y022392D01*
X006368Y022516D02*
X006368Y022701D01*
X006121Y022701D01*
X006921Y022701D02*
X006921Y022331D01*
X007045Y022454D01*
X007168Y022331D01*
X007168Y022701D01*
X007508Y022701D02*
X007508Y022331D01*
X007631Y022331D02*
X007384Y022331D01*
X007631Y022578D02*
X007508Y022701D01*
X007876Y022701D02*
X007876Y022331D01*
X007753Y022331D02*
X008000Y022331D01*
X008121Y022331D02*
X008121Y022701D01*
X008245Y022578D01*
X008368Y022701D01*
X008368Y022331D01*
X008000Y022578D02*
X007876Y022701D01*
X008036Y020141D02*
X008160Y020018D01*
X008528Y020141D02*
X008528Y019771D01*
X005088Y020054D02*
X004718Y020054D01*
X004903Y020054D02*
X004903Y020177D01*
X015193Y018141D02*
X015193Y017894D01*
X015316Y017771D01*
X015440Y017894D01*
X015440Y018141D01*
X015561Y018141D02*
X015808Y018141D01*
X015808Y017956D01*
X015685Y018018D01*
X015623Y018018D01*
X015561Y017956D01*
X015561Y017832D01*
X015623Y017771D01*
X015746Y017771D01*
X015808Y017832D01*
X034718Y021527D02*
X034965Y021527D01*
D11*
X052473Y005896D02*
X052473Y005296D01*
X052475Y005279D01*
X052479Y005262D01*
X052486Y005246D01*
X052496Y005232D01*
X052509Y005219D01*
X052523Y005209D01*
X052539Y005202D01*
X052556Y005198D01*
X052573Y005196D01*
X053673Y005196D01*
X053690Y005198D01*
X053707Y005202D01*
X053723Y005209D01*
X053737Y005219D01*
X053750Y005232D01*
X053760Y005246D01*
X053767Y005262D01*
X053771Y005279D01*
X053773Y005296D01*
X053773Y005896D01*
X053771Y005913D01*
X053767Y005930D01*
X053760Y005946D01*
X053750Y005960D01*
X053737Y005973D01*
X053723Y005983D01*
X053707Y005990D01*
X053690Y005994D01*
X053673Y005996D01*
X052573Y005996D01*
X052556Y005994D01*
X052539Y005990D01*
X052523Y005983D01*
X052509Y005973D01*
X052496Y005960D01*
X052486Y005946D01*
X052479Y005930D01*
X052475Y005913D01*
X052473Y005896D01*
X052563Y001756D02*
X053663Y001756D01*
X053680Y001754D01*
X053697Y001750D01*
X053713Y001743D01*
X053727Y001733D01*
X053740Y001720D01*
X053750Y001706D01*
X053757Y001690D01*
X053761Y001673D01*
X053763Y001656D01*
X053763Y001056D01*
X053761Y001039D01*
X053757Y001022D01*
X053750Y001006D01*
X053740Y000992D01*
X053727Y000979D01*
X053713Y000969D01*
X053697Y000962D01*
X053680Y000958D01*
X053663Y000956D01*
X052563Y000956D01*
X052546Y000958D01*
X052529Y000962D01*
X052513Y000969D01*
X052499Y000979D01*
X052486Y000992D01*
X052476Y001006D01*
X052469Y001022D01*
X052465Y001039D01*
X052463Y001056D01*
X052463Y001656D01*
X052465Y001673D01*
X052469Y001690D01*
X052476Y001706D01*
X052486Y001720D01*
X052499Y001733D01*
X052513Y001743D01*
X052529Y001750D01*
X052546Y001754D01*
X052563Y001756D01*
D12*
X052953Y001364D02*
X052953Y001356D01*
X052955Y001356D02*
X052950Y001356D01*
X052955Y001361D02*
X052953Y001364D01*
X053283Y005588D02*
X053288Y005588D01*
X053285Y005588D02*
X053285Y005596D01*
X053288Y005593D01*
M02*
