G75*
%MOIN*%
%OFA0B0*%
%FSLAX24Y24*%
%IPPOS*%
%LPD*%
%AMOC8*
5,1,8,0,0,1.08239X$1,22.5*
%
%ADD10R,0.0760X0.0760*%
%ADD11C,0.0760*%
%ADD12OC8,0.0870*%
%ADD13OC8,0.0760*%
%ADD14OC8,0.0800*%
%ADD15C,0.1240*%
%ADD16OC8,0.1240*%
%ADD17OC8,0.0860*%
%ADD18C,0.0860*%
%ADD19C,0.0900*%
%ADD20C,0.0840*%
%ADD21C,0.3390*%
%ADD22C,0.0522*%
%ADD23C,0.0636*%
D10*
X016763Y008956D03*
X043943Y003536D03*
D11*
X045183Y003536D03*
X045183Y004536D03*
X043943Y004536D03*
X043943Y005536D03*
X045183Y005536D03*
X045183Y006536D03*
X043943Y006536D03*
X043943Y007536D03*
X045183Y007536D03*
X045183Y008536D03*
X043943Y008536D03*
X045183Y009536D03*
X047563Y010944D03*
X047563Y011944D03*
X047563Y012944D03*
X047563Y013944D03*
X047563Y014944D03*
X047563Y015944D03*
X047563Y016944D03*
X047563Y017944D03*
X050563Y017944D03*
X050563Y016944D03*
X050563Y015944D03*
X050563Y014944D03*
X050563Y013944D03*
X050563Y012944D03*
X050563Y011944D03*
X050563Y010944D03*
X048183Y009536D03*
X048183Y008536D03*
X048183Y007536D03*
X048183Y006536D03*
X048183Y005536D03*
X048183Y004536D03*
X048183Y003536D03*
X048183Y002536D03*
X045183Y002536D03*
X037243Y002996D03*
X036243Y002996D03*
X035243Y002996D03*
X034243Y002996D03*
X033243Y002996D03*
X032243Y002996D03*
X031243Y002996D03*
X030243Y002996D03*
X029243Y002996D03*
X028243Y002996D03*
X027243Y002996D03*
X026243Y002996D03*
X025243Y002996D03*
X024243Y002996D03*
X023243Y002996D03*
X022243Y002996D03*
X021243Y002996D03*
X020243Y002996D03*
X019243Y002996D03*
X018243Y002996D03*
X010923Y001996D03*
X009923Y001996D03*
X008923Y001996D03*
X007923Y001996D03*
X008043Y000996D03*
X011043Y000996D03*
X010923Y004996D03*
X009923Y004996D03*
X008923Y004996D03*
X007923Y004996D03*
X011763Y008956D03*
X012763Y008956D03*
X013763Y008956D03*
X014763Y008956D03*
X015763Y008956D03*
X018243Y008996D03*
X019243Y008996D03*
X020243Y008996D03*
X021243Y008996D03*
X022243Y008996D03*
X023243Y008996D03*
X024243Y008996D03*
X025243Y008996D03*
X026243Y008996D03*
X027243Y008996D03*
X028243Y008996D03*
X029243Y008996D03*
X030243Y008996D03*
X031243Y008996D03*
X032243Y008996D03*
X033243Y008996D03*
X034243Y008996D03*
X035243Y008996D03*
X036243Y008996D03*
X037243Y008996D03*
X038563Y010944D03*
X038563Y011944D03*
X038563Y012944D03*
X038563Y013944D03*
X038563Y014944D03*
X038563Y015944D03*
X038563Y016944D03*
X038563Y017944D03*
X035563Y017944D03*
X035563Y016944D03*
X035563Y015944D03*
X035563Y014944D03*
X035563Y013944D03*
X035563Y012944D03*
X035563Y011944D03*
X035563Y010944D03*
X026563Y010944D03*
X026563Y011944D03*
X026563Y012944D03*
X026563Y013944D03*
X026563Y014944D03*
X026563Y015944D03*
X026563Y016944D03*
X026563Y017944D03*
X023563Y017944D03*
X023563Y016944D03*
X023563Y015944D03*
X023563Y014944D03*
X023563Y013944D03*
X023563Y012944D03*
X023563Y011944D03*
X023563Y010944D03*
X014563Y010944D03*
X014563Y011944D03*
X014563Y012944D03*
X014563Y013944D03*
X014563Y014944D03*
X014563Y015944D03*
X014563Y016944D03*
X014563Y017944D03*
X011563Y017944D03*
X011563Y016944D03*
X011563Y015944D03*
X011563Y014944D03*
X011563Y013944D03*
X011563Y012944D03*
X011563Y011944D03*
X011563Y010944D03*
X029813Y001396D03*
X031713Y001396D03*
D12*
X025963Y001116D03*
X023963Y001116D03*
X006123Y005636D03*
X006123Y007636D03*
X008983Y011276D03*
X008983Y013276D03*
X005003Y018376D03*
X003003Y018376D03*
X048403Y001306D03*
X050403Y001306D03*
D13*
X050263Y002836D03*
X043383Y001016D03*
X040383Y001016D03*
X034463Y001176D03*
X033463Y001176D03*
X028103Y001136D03*
X027103Y001136D03*
X016543Y001136D03*
X015183Y001136D03*
X015183Y004136D03*
X016543Y004136D03*
X011943Y006956D03*
X010263Y006096D03*
X008943Y006956D03*
X007263Y006096D03*
X007943Y008056D03*
X010943Y008056D03*
X006823Y004036D03*
X006823Y001036D03*
X030243Y011136D03*
X031463Y012436D03*
X031463Y013436D03*
X030243Y014136D03*
X049243Y009536D03*
X049243Y006536D03*
X050263Y005836D03*
X052323Y014936D03*
X052323Y017936D03*
X005243Y015376D03*
X005243Y012376D03*
D14*
X002543Y002506D03*
X003543Y002506D03*
X003543Y003506D03*
X002543Y003506D03*
X002543Y004506D03*
X003543Y004506D03*
X006063Y020696D03*
X007063Y020696D03*
X008063Y020696D03*
X008063Y021696D03*
X007063Y021696D03*
X006063Y021696D03*
X012063Y021696D03*
X013063Y021696D03*
X014063Y021696D03*
X014063Y020696D03*
X013063Y020696D03*
X012063Y020696D03*
X018063Y020696D03*
X019063Y020696D03*
X020063Y020696D03*
X020063Y021696D03*
X019063Y021696D03*
X018063Y021696D03*
X024063Y021696D03*
X025063Y021696D03*
X026063Y021696D03*
X026063Y020696D03*
X025063Y020696D03*
X024063Y020696D03*
X030063Y020696D03*
X031063Y020696D03*
X032063Y020696D03*
X032063Y021696D03*
X031063Y021696D03*
X030063Y021696D03*
X036063Y021696D03*
X037063Y021696D03*
X038063Y021696D03*
X038063Y020696D03*
X037063Y020696D03*
X036063Y020696D03*
X042063Y020696D03*
X043063Y020696D03*
X044063Y020696D03*
X044063Y021696D03*
X043063Y021696D03*
X042063Y021696D03*
X048063Y021696D03*
X049063Y021696D03*
X050063Y021696D03*
X050063Y020696D03*
X049063Y020696D03*
X048063Y020696D03*
X052563Y004506D03*
X053563Y004506D03*
X053563Y003506D03*
X052563Y003506D03*
X052563Y002506D03*
X053563Y002506D03*
D15*
X053207Y007637D03*
X053207Y009606D03*
X053207Y011574D03*
X007178Y016551D03*
X002883Y011574D03*
X002883Y009606D03*
X002883Y007637D03*
D16*
X009178Y016551D03*
D17*
X006823Y012276D03*
D18*
X006823Y013276D03*
D19*
X004303Y013316D03*
X004303Y017316D03*
D20*
X003283Y016616D02*
X002683Y016616D01*
X002683Y015616D02*
X003283Y015616D01*
X003283Y014616D02*
X002683Y014616D01*
X006763Y011076D02*
X007363Y011076D01*
X005063Y010376D02*
X005063Y009776D01*
X006763Y009076D02*
X007363Y009076D01*
D21*
X002469Y021755D03*
X041839Y004038D03*
X053650Y021755D03*
D22*
X043503Y019356D03*
X040703Y017436D03*
X041423Y014956D03*
X041983Y014956D03*
X042543Y014956D03*
X046383Y011436D03*
X042223Y009776D03*
X042583Y008956D03*
X041863Y008316D03*
X039763Y008596D03*
X038103Y008956D03*
X038923Y009776D03*
X036943Y010876D03*
X036903Y011396D03*
X037423Y011436D03*
X037983Y011516D03*
X047103Y009676D03*
X038143Y004716D03*
X038143Y004156D03*
X027743Y008476D03*
X025663Y005436D03*
X019743Y005836D03*
X013743Y005036D03*
X012623Y004636D03*
X011183Y010236D03*
X012783Y010956D03*
X013583Y010956D03*
X015423Y010876D03*
X016063Y010876D03*
X016703Y010876D03*
X017343Y010876D03*
X016703Y017436D03*
X020543Y019356D03*
X020063Y019756D03*
X028703Y017436D03*
D23*
X024703Y004136D03*
M02*
