%
M48
M72
T01C0.0130
T02C0.0236
T03C0.0320
T04C0.0360
T05C0.0400
T06C0.0433
T07C0.0440
T08C0.1220
%
T01
X12623Y4636
X13743Y5036
X19743Y5836
X25663Y5436
X27743Y8476
X36943Y10876
X36903Y11396
X37423Y11436
X37983Y11516
X38923Y9776
X38103Y8956
X39763Y8596
X41863Y8316
X42583Y8956
X42223Y9776
X46383Y11436
X47103Y9676
X38143Y4716
X38143Y4156
X17343Y10876
X16703Y10876
X16063Y10876
X15423Y10876
X13583Y10956
X12783Y10956
X11183Y10236
X16703Y17436
X20543Y19356
X20063Y19756
X28703Y17436
X40703Y17436
X43503Y19356
X42543Y14956
X41983Y14956
X41423Y14956
T02
X24703Y4136
T03
X24243Y2996
X25243Y2996
X26243Y2996
X27243Y2996
X28243Y2996
X29243Y2996
X30243Y2996
X31243Y2996
X32243Y2996
X33243Y2996
X34243Y2996
X35243Y2996
X36243Y2996
X37243Y2996
X34463Y1176
X33463Y1176
X31713Y1396
X29813Y1396
X28103Y1136
X27103Y1136
X25963Y1116
X23963Y1116
X23243Y2996
X22243Y2996
X21243Y2996
X20243Y2996
X19243Y2996
X18243Y2996
X16543Y4136
X15183Y4136
X10923Y4996
X9923Y4996
X8923Y4996
X7923Y4996
X6823Y4036
X6123Y5636
X7263Y6096
X8943Y6956
X10263Y6096
X11943Y6956
X10943Y8056
X11763Y8956
X12763Y8956
X13763Y8956
X14763Y8956
X15763Y8956
X16763Y8956
X18243Y8996
X19243Y8996
X20243Y8996
X21243Y8996
X22243Y8996
X23243Y8996
X24243Y8996
X25243Y8996
X26243Y8996
X27243Y8996
X28243Y8996
X29243Y8996
X30243Y8996
X31243Y8996
X32243Y8996
X33243Y8996
X34243Y8996
X35243Y8996
X36243Y8996
X37243Y8996
X38563Y10944
X38563Y11944
X38563Y12944
X38563Y13944
X38563Y14944
X38563Y15944
X38563Y16944
X38563Y17944
X35563Y17944
X35563Y16944
X35563Y15944
X35563Y14944
X35563Y13944
X35563Y12944
X35563Y11944
X35563Y10944
X31463Y12436
X31463Y13436
X30243Y14136
X26563Y13944
X26563Y14944
X26563Y15944
X26563Y16944
X26563Y17944
X23563Y17944
X23563Y16944
X23563Y15944
X23563Y14944
X23563Y13944
X23563Y12944
X23563Y11944
X23563Y10944
X26563Y10944
X26563Y11944
X26563Y12944
X30243Y11136
X43943Y8536
X45183Y8536
X45183Y9536
X47563Y10944
X47563Y11944
X47563Y12944
X47563Y13944
X47563Y14944
X47563Y15944
X47563Y16944
X47563Y17944
X50563Y17944
X52323Y17936
X50563Y16944
X50563Y15944
X50563Y14944
X52323Y14936
X50563Y13944
X50563Y12944
X50563Y11944
X50563Y10944
X49243Y9536
X48183Y9536
X48183Y8536
X48183Y7536
X48183Y6536
X49243Y6536
X50263Y5836
X48183Y5536
X48183Y4536
X48183Y3536
X50263Y2836
X48183Y2536
X48403Y1306
X50403Y1306
X45183Y2536
X45183Y3536
X43943Y3536
X43943Y4536
X45183Y4536
X45183Y5536
X43943Y5536
X43943Y6536
X45183Y6536
X45183Y7536
X43943Y7536
X43383Y1016
X40383Y1016
X16543Y1136
X15183Y1136
X11043Y996
X10923Y1996
X9923Y1996
X8923Y1996
X7923Y1996
X8043Y996
X6823Y1036
X6123Y7636
X7943Y8056
X11563Y10944
X11563Y11944
X11563Y12944
X11563Y13944
X11563Y14944
X11563Y15944
X11563Y16944
X11563Y17944
X14563Y17944
X14563Y16944
X14563Y15944
X14563Y14944
X14563Y13944
X14563Y12944
X14563Y11944
X14563Y10944
X8983Y11276
X6823Y12276
X5243Y12376
X6823Y13276
X8983Y13276
X5243Y15376
X5003Y18376
X3003Y18376
T04
X2543Y2506
X3543Y2506
X3543Y3506
X2543Y3506
X2543Y4506
X3543Y4506
X6063Y20696
X7063Y20696
X8063Y20696
X8063Y21696
X7063Y21696
X6063Y21696
X12063Y21696
X13063Y21696
X14063Y21696
X14063Y20696
X13063Y20696
X12063Y20696
X18063Y20696
X19063Y20696
X20063Y20696
X20063Y21696
X19063Y21696
X18063Y21696
X24063Y21696
X25063Y21696
X26063Y21696
X26063Y20696
X25063Y20696
X24063Y20696
X30063Y20696
X31063Y20696
X32063Y20696
X32063Y21696
X31063Y21696
X30063Y21696
X36063Y21696
X37063Y21696
X38063Y21696
X38063Y20696
X37063Y20696
X36063Y20696
X42063Y20696
X43063Y20696
X44063Y20696
X44063Y21696
X43063Y21696
X42063Y21696
X48063Y21696
X49063Y21696
X50063Y21696
X50063Y20696
X49063Y20696
X48063Y20696
X52563Y4506
X53563Y4506
X53563Y3506
X52563Y3506
X52563Y2506
X53563Y2506
T05
X9178Y16551
X7178Y16551
X2983Y16616
X2983Y15616
X2983Y14616
X7063Y11076
X5063Y10076
X7063Y9076
T06
X2883Y9606
X2883Y11574
X2883Y7637
X53207Y7637
X53207Y9606
X53207Y11574
T07
X4303Y13316
X4303Y17316
T08
X2469Y21755
X41839Y4038
X53650Y21755
M30
