G75*
%MOIN*%
%OFA0B0*%
%FSLAX24Y24*%
%IPPOS*%
%LPD*%
%AMOC8*
5,1,8,0,0,1.08239X$1,22.5*
%
%ADD10R,0.0630X0.0460*%
%ADD11R,0.0460X0.0630*%
%ADD12C,0.0197*%
%ADD13C,0.0217*%
%ADD14C,0.0089*%
%ADD15C,0.0177*%
%ADD16C,0.0098*%
D10*
X039068Y044001D03*
X039068Y044601D03*
X040068Y044601D03*
X040068Y044001D03*
D11*
X038468Y041821D03*
X039068Y041821D03*
D12*
X045506Y048044D02*
X045704Y048044D01*
X045506Y048044D02*
X045506Y048320D01*
X045704Y048320D01*
X045704Y048044D01*
X045704Y048240D02*
X045506Y048240D01*
X045506Y050406D02*
X045704Y050406D01*
X045506Y050406D02*
X045506Y050682D01*
X045704Y050682D01*
X045704Y050406D01*
X045704Y050602D02*
X045506Y050602D01*
D13*
X051284Y052252D02*
X051284Y052468D01*
X051284Y052252D02*
X050910Y052252D01*
X050910Y052468D01*
X051284Y052468D01*
X050910Y052468D01*
X051284Y046809D02*
X051284Y046593D01*
X050910Y046593D01*
X050910Y046809D01*
X051284Y046809D01*
X050910Y046809D01*
D14*
X050659Y046809D02*
X050659Y046543D01*
X050571Y046543D01*
X050571Y046809D01*
X050659Y046809D01*
X050659Y046631D02*
X050571Y046631D01*
X050571Y046719D02*
X050659Y046719D01*
X050659Y046807D02*
X050571Y046807D01*
X050383Y046809D02*
X050383Y046543D01*
X050295Y046543D01*
X050295Y046809D01*
X050383Y046809D01*
X050383Y046631D02*
X050295Y046631D01*
X050295Y046719D02*
X050383Y046719D01*
X050383Y046807D02*
X050295Y046807D01*
X050107Y046809D02*
X050107Y046543D01*
X050019Y046543D01*
X050019Y046809D01*
X050107Y046809D01*
X050107Y046631D02*
X050019Y046631D01*
X050019Y046719D02*
X050107Y046719D01*
X050107Y046807D02*
X050019Y046807D01*
X049832Y046809D02*
X049832Y046543D01*
X049744Y046543D01*
X049744Y046809D01*
X049832Y046809D01*
X049832Y046631D02*
X049744Y046631D01*
X049744Y046719D02*
X049832Y046719D01*
X049832Y046807D02*
X049744Y046807D01*
X049832Y052252D02*
X049832Y052518D01*
X049832Y052252D02*
X049744Y052252D01*
X049744Y052518D01*
X049832Y052518D01*
X049832Y052340D02*
X049744Y052340D01*
X049744Y052428D02*
X049832Y052428D01*
X049832Y052516D02*
X049744Y052516D01*
X050107Y052518D02*
X050107Y052252D01*
X050019Y052252D01*
X050019Y052518D01*
X050107Y052518D01*
X050107Y052340D02*
X050019Y052340D01*
X050019Y052428D02*
X050107Y052428D01*
X050107Y052516D02*
X050019Y052516D01*
X050383Y052518D02*
X050383Y052252D01*
X050295Y052252D01*
X050295Y052518D01*
X050383Y052518D01*
X050383Y052340D02*
X050295Y052340D01*
X050295Y052428D02*
X050383Y052428D01*
X050383Y052516D02*
X050295Y052516D01*
X050659Y052518D02*
X050659Y052252D01*
X050571Y052252D01*
X050571Y052518D01*
X050659Y052518D01*
X050659Y052340D02*
X050571Y052340D01*
X050571Y052428D02*
X050659Y052428D01*
X050659Y052516D02*
X050571Y052516D01*
D15*
X047563Y052474D02*
X047563Y052296D01*
X046953Y052296D01*
X046953Y052474D01*
X047563Y052474D01*
X047563Y052472D02*
X046953Y052472D01*
X047051Y046765D02*
X047051Y046587D01*
X046441Y046587D01*
X046441Y046765D01*
X047051Y046765D01*
X047051Y046763D02*
X046441Y046763D01*
D16*
X045871Y047129D02*
X045693Y047129D01*
X045693Y047227D01*
X045871Y047227D01*
X045871Y047129D01*
X045871Y047226D02*
X045693Y047226D01*
X045693Y050967D02*
X045871Y050967D01*
X045693Y050967D02*
X045693Y051065D01*
X045871Y051065D01*
X045871Y050967D01*
X045871Y051064D02*
X045693Y051064D01*
M02*
