G75*
%MOIN*%
%OFA0B0*%
%FSLAX24Y24*%
%IPPOS*%
%LPD*%
%AMOC8*
5,1,8,0,0,1.08239X$1,22.5*
%
%ADD10C,0.0030*%
%ADD11C,0.0060*%
%ADD12C,0.0050*%
%ADD13C,0.0040*%
D10*
X009576Y016470D02*
X009514Y016532D01*
X009514Y016656D01*
X009576Y016717D01*
X009699Y016717D01*
X009699Y016594D01*
X009576Y016470D02*
X009823Y016470D01*
X009885Y016532D01*
X009885Y016656D01*
X009823Y016717D01*
X009885Y016839D02*
X009514Y017086D01*
X009885Y017086D01*
X009885Y017207D02*
X009885Y017392D01*
X009823Y017454D01*
X009576Y017454D01*
X009514Y017392D01*
X009514Y017207D01*
X009885Y017207D01*
X009885Y016839D02*
X009514Y016839D01*
X010234Y016900D02*
X010296Y016839D01*
X010234Y016900D02*
X010234Y017024D01*
X010296Y017086D01*
X010419Y017086D01*
X010481Y017024D01*
X010481Y016962D01*
X010419Y016839D01*
X010605Y016839D01*
X010605Y017086D01*
X010605Y017207D02*
X010358Y017207D01*
X010234Y017331D01*
X010358Y017454D01*
X010605Y017454D01*
X011817Y017224D02*
X011817Y017101D01*
X011879Y017039D01*
X012064Y017039D01*
X011941Y017039D02*
X011817Y016916D01*
X012064Y016916D02*
X012064Y017286D01*
X011879Y017286D01*
X011817Y017224D01*
X012186Y017286D02*
X012433Y017286D01*
X012433Y016916D01*
X012186Y016916D01*
X012309Y017101D02*
X012433Y017101D01*
X012554Y016916D02*
X012554Y017286D01*
X012801Y017286D02*
X012801Y016916D01*
X012677Y017039D01*
X012554Y016916D01*
X012922Y016977D02*
X012922Y017224D01*
X012984Y017286D01*
X013107Y017286D01*
X013169Y017224D01*
X013169Y016977D01*
X013107Y016916D01*
X012984Y016916D01*
X012922Y016977D01*
X013291Y017101D02*
X013352Y017039D01*
X013537Y017039D01*
X013537Y016916D02*
X013537Y017286D01*
X013352Y017286D01*
X013291Y017224D01*
X013291Y017101D01*
X013659Y017101D02*
X013906Y017101D01*
X014027Y017162D02*
X014089Y017101D01*
X014274Y017101D01*
X014396Y017039D02*
X014396Y016977D01*
X014457Y016916D01*
X014581Y016916D01*
X014642Y016977D01*
X014764Y016977D02*
X014764Y017286D01*
X014642Y017224D02*
X014642Y017162D01*
X014581Y017101D01*
X014457Y017101D01*
X014396Y017039D01*
X014274Y016916D02*
X014089Y016916D01*
X014027Y016977D01*
X014027Y017039D01*
X014089Y017101D01*
X014027Y017162D02*
X014027Y017224D01*
X014089Y017286D01*
X014274Y017286D01*
X014274Y016916D01*
X014396Y017224D02*
X014457Y017286D01*
X014581Y017286D01*
X014642Y017224D01*
X014764Y016977D02*
X014826Y016916D01*
X014949Y016916D01*
X015011Y016977D01*
X015011Y017286D01*
X015333Y018796D02*
X015271Y018857D01*
X015271Y019104D01*
X015333Y019166D01*
X015518Y019166D01*
X015518Y018796D01*
X015333Y018796D01*
X015150Y018981D02*
X014903Y018981D01*
X014782Y019104D02*
X014658Y018981D01*
X014658Y018796D01*
X014658Y018981D02*
X014535Y019104D01*
X014535Y019166D01*
X014782Y019166D02*
X014782Y019104D01*
X015640Y019166D02*
X015887Y019166D01*
X015887Y018796D01*
X015640Y018796D01*
X015763Y018981D02*
X015887Y018981D01*
X016008Y018796D02*
X016255Y018796D01*
X016255Y019166D01*
X016255Y019836D02*
X016008Y019836D01*
X015887Y019836D02*
X015640Y019836D01*
X015518Y019836D02*
X015333Y019836D01*
X015271Y019897D01*
X015271Y020144D01*
X015333Y020206D01*
X015518Y020206D01*
X015518Y019836D01*
X015763Y020021D02*
X015887Y020021D01*
X015887Y020206D02*
X015887Y019836D01*
X016255Y019836D02*
X016255Y020206D01*
X015887Y020206D02*
X015640Y020206D01*
X015150Y020021D02*
X014903Y020021D01*
X014782Y020144D02*
X014782Y019897D01*
X014720Y019836D01*
X014596Y019836D01*
X014535Y019897D01*
X014535Y020021D01*
X014658Y020021D01*
X014535Y020144D02*
X014596Y020206D01*
X014720Y020206D01*
X014782Y020144D01*
X015310Y023396D02*
X015310Y023766D01*
X015557Y023766D02*
X015310Y023396D01*
X015557Y023396D02*
X015557Y023766D01*
X015678Y023642D02*
X015678Y023396D01*
X015678Y023581D02*
X015925Y023581D01*
X015925Y023642D02*
X015802Y023766D01*
X015678Y023642D01*
X015925Y023642D02*
X015925Y023396D01*
X016046Y023457D02*
X016108Y023396D01*
X016232Y023396D01*
X016293Y023457D01*
X016293Y023704D01*
X016232Y023766D01*
X016108Y023766D01*
X016046Y023704D01*
X015926Y027276D02*
X015926Y027646D01*
X015805Y027646D02*
X015682Y027522D01*
X015558Y027646D01*
X015558Y027276D01*
X015437Y027276D02*
X015313Y027276D01*
X015375Y027276D02*
X015375Y027646D01*
X015437Y027646D02*
X015313Y027646D01*
X015805Y027646D02*
X015805Y027276D01*
X015926Y027276D02*
X016173Y027646D01*
X016173Y027276D01*
X014992Y031596D02*
X015054Y031657D01*
X015054Y031781D01*
X014992Y031842D01*
X014930Y031842D01*
X014868Y031781D01*
X014807Y031842D01*
X014745Y031842D01*
X014683Y031781D01*
X014683Y031657D01*
X014745Y031596D01*
X014868Y031719D02*
X014868Y031781D01*
X014807Y031964D02*
X014683Y032087D01*
X014807Y032211D01*
X015054Y032211D01*
X014992Y032332D02*
X015054Y032394D01*
X015054Y032517D01*
X014992Y032579D01*
X014930Y032579D01*
X014868Y032517D01*
X014807Y032579D01*
X014745Y032579D01*
X014683Y032517D01*
X014683Y032394D01*
X014745Y032332D01*
X014868Y032456D02*
X014868Y032517D01*
X014683Y032796D02*
X014683Y032981D01*
X014745Y033042D01*
X014992Y033042D01*
X015054Y032981D01*
X015054Y032796D01*
X014683Y032796D01*
X014683Y033164D02*
X014683Y033411D01*
X014683Y033287D02*
X015054Y033287D01*
X014930Y033164D01*
X015054Y033836D02*
X015054Y034021D01*
X014992Y034082D01*
X014745Y034082D01*
X014683Y034021D01*
X014683Y033836D01*
X015054Y033836D01*
X014992Y034204D02*
X015054Y034266D01*
X015054Y034389D01*
X014992Y034451D01*
X014930Y034451D01*
X014868Y034389D01*
X014807Y034451D01*
X014745Y034451D01*
X014683Y034389D01*
X014683Y034266D01*
X014745Y034204D01*
X014868Y034327D02*
X014868Y034389D01*
X014683Y034796D02*
X014683Y034981D01*
X014745Y035042D01*
X014992Y035042D01*
X015054Y034981D01*
X015054Y034796D01*
X014683Y034796D01*
X014745Y035164D02*
X014683Y035226D01*
X014683Y035349D01*
X014745Y035411D01*
X014868Y035411D01*
X014930Y035349D01*
X014930Y035287D01*
X014868Y035164D01*
X015054Y035164D01*
X015054Y035411D01*
X015054Y035836D02*
X015054Y036021D01*
X014992Y036082D01*
X014745Y036082D01*
X014683Y036021D01*
X014683Y035836D01*
X015054Y035836D01*
X015054Y036204D02*
X015054Y036451D01*
X014992Y036451D01*
X014745Y036204D01*
X014683Y036204D01*
X017003Y036266D02*
X017003Y036389D01*
X017065Y036451D01*
X017127Y036451D01*
X017188Y036389D01*
X017188Y036204D01*
X017065Y036204D01*
X017003Y036266D01*
X017065Y036082D02*
X017312Y036082D01*
X017374Y036021D01*
X017374Y035836D01*
X017003Y035836D01*
X017003Y036021D01*
X017065Y036082D01*
X017188Y036204D02*
X017312Y036327D01*
X017374Y036451D01*
X018135Y036697D02*
X018196Y036636D01*
X018320Y036636D01*
X018382Y036697D01*
X018135Y036944D01*
X018135Y036697D01*
X018382Y036697D02*
X018382Y036944D01*
X018320Y037006D01*
X018196Y037006D01*
X018135Y036944D01*
X018135Y037356D02*
X018382Y037356D01*
X018503Y037356D02*
X018750Y037356D01*
X018872Y037356D02*
X018934Y037356D01*
X018934Y037417D01*
X018872Y037417D01*
X018872Y037356D01*
X019056Y037356D02*
X019302Y037356D01*
X019056Y037602D01*
X019056Y037664D01*
X019117Y037726D01*
X019241Y037726D01*
X019302Y037664D01*
X019424Y037664D02*
X019424Y037541D01*
X019486Y037479D01*
X019671Y037479D01*
X019671Y037356D02*
X019671Y037726D01*
X019486Y037726D01*
X019424Y037664D01*
X019486Y037006D02*
X019424Y036944D01*
X019424Y036821D01*
X019486Y036759D01*
X019671Y036759D01*
X019671Y036636D02*
X019671Y037006D01*
X019486Y037006D01*
X019302Y036944D02*
X019241Y037006D01*
X019117Y037006D01*
X019056Y036944D01*
X019056Y036882D01*
X019302Y036636D01*
X019056Y036636D01*
X018934Y036636D02*
X018872Y036636D01*
X018872Y036697D01*
X018934Y036697D01*
X018934Y036636D01*
X018750Y036636D02*
X018503Y036636D01*
X018627Y036636D02*
X018627Y037006D01*
X018750Y036882D01*
X018627Y037356D02*
X018627Y037726D01*
X018750Y037602D01*
X018382Y037602D02*
X018258Y037726D01*
X018258Y037356D01*
X018135Y038396D02*
X018382Y038396D01*
X018135Y038642D01*
X018135Y038704D01*
X018196Y038766D01*
X018320Y038766D01*
X018382Y038704D01*
X018627Y038766D02*
X018627Y038396D01*
X018750Y038396D02*
X018503Y038396D01*
X018750Y038642D02*
X018627Y038766D01*
X018872Y038457D02*
X018872Y038396D01*
X018934Y038396D01*
X018934Y038457D01*
X018872Y038457D01*
X019056Y038396D02*
X019302Y038396D01*
X019056Y038642D01*
X019056Y038704D01*
X019117Y038766D01*
X019241Y038766D01*
X019302Y038704D01*
X019424Y038704D02*
X019424Y038581D01*
X019486Y038519D01*
X019671Y038519D01*
X019671Y038396D02*
X019671Y038766D01*
X019486Y038766D01*
X019424Y038704D01*
X019493Y039356D02*
X019431Y039417D01*
X019431Y039541D01*
X019555Y039541D01*
X019678Y039664D02*
X019678Y039417D01*
X019617Y039356D01*
X019493Y039356D01*
X019310Y039356D02*
X019310Y039726D01*
X019063Y039356D01*
X019063Y039726D01*
X018942Y039726D02*
X018756Y039726D01*
X018695Y039664D01*
X018695Y039417D01*
X018756Y039356D01*
X018942Y039356D01*
X018942Y039726D01*
X019431Y039664D02*
X019493Y039726D01*
X019617Y039726D01*
X019678Y039664D01*
X017998Y040137D02*
X017937Y040076D01*
X017813Y040076D01*
X017751Y040137D01*
X017751Y040261D01*
X017875Y040261D01*
X017998Y040384D02*
X017998Y040137D01*
X017998Y040384D02*
X017937Y040446D01*
X017813Y040446D01*
X017751Y040384D01*
X017630Y040446D02*
X017383Y040076D01*
X017383Y040446D01*
X017262Y040446D02*
X017262Y040076D01*
X017076Y040076D01*
X017015Y040137D01*
X017015Y040384D01*
X017076Y040446D01*
X017262Y040446D01*
X017630Y040446D02*
X017630Y040076D01*
X017630Y041036D02*
X017630Y041406D01*
X017383Y041036D01*
X017383Y041406D01*
X017262Y041406D02*
X017262Y041036D01*
X017076Y041036D01*
X017015Y041097D01*
X017015Y041344D01*
X017076Y041406D01*
X017262Y041406D01*
X017751Y041344D02*
X017813Y041406D01*
X017937Y041406D01*
X017998Y041344D01*
X017998Y041097D01*
X017937Y041036D01*
X017813Y041036D01*
X017751Y041097D01*
X017751Y041221D01*
X017875Y041221D01*
X017876Y042076D02*
X017876Y042446D01*
X017752Y042322D01*
X017629Y042446D01*
X017629Y042076D01*
X017507Y042076D02*
X017384Y042076D01*
X017445Y042076D02*
X017445Y042446D01*
X017384Y042446D02*
X017507Y042446D01*
X017262Y042384D02*
X017200Y042446D01*
X017076Y042446D01*
X017015Y042384D01*
X017015Y042322D01*
X017262Y042076D01*
X017015Y042076D01*
X017015Y043036D02*
X017262Y043036D01*
X017015Y043282D01*
X017015Y043344D01*
X017076Y043406D01*
X017200Y043406D01*
X017262Y043344D01*
X017383Y043344D02*
X017383Y043097D01*
X017445Y043036D01*
X017568Y043036D01*
X017630Y043097D01*
X017630Y043344D01*
X017568Y043406D01*
X017445Y043406D01*
X017383Y043344D01*
X017751Y043406D02*
X017751Y043036D01*
X017998Y043036D02*
X017998Y043406D01*
X017875Y043282D01*
X017751Y043406D01*
X015053Y043406D02*
X015053Y043036D01*
X014806Y043036D02*
X014806Y043406D01*
X014930Y043282D01*
X015053Y043406D01*
X014685Y043344D02*
X014685Y043097D01*
X014623Y043036D01*
X014500Y043036D01*
X014438Y043097D01*
X014438Y043344D01*
X014500Y043406D01*
X014623Y043406D01*
X014685Y043344D01*
X014317Y043282D02*
X014193Y043406D01*
X014193Y043036D01*
X014070Y043036D02*
X014317Y043036D01*
X014316Y042366D02*
X014316Y041996D01*
X014439Y041996D02*
X014193Y041996D01*
X014439Y042242D02*
X014316Y042366D01*
X014562Y042366D02*
X014685Y042366D01*
X014623Y042366D02*
X014623Y041996D01*
X014562Y041996D02*
X014685Y041996D01*
X014806Y041996D02*
X014806Y042366D01*
X014930Y042242D01*
X015053Y042366D01*
X015053Y041996D01*
X014992Y041406D02*
X015053Y041344D01*
X015053Y041097D01*
X014992Y041036D01*
X014868Y041036D01*
X014806Y041097D01*
X014806Y041221D01*
X014930Y041221D01*
X014806Y041344D02*
X014868Y041406D01*
X014992Y041406D01*
X014685Y041406D02*
X014438Y041036D01*
X014438Y041406D01*
X014317Y041406D02*
X014132Y041406D01*
X014070Y041344D01*
X014070Y041097D01*
X014132Y041036D01*
X014317Y041036D01*
X014317Y041406D01*
X014685Y041406D02*
X014685Y041036D01*
X014685Y040366D02*
X014438Y039996D01*
X014438Y040366D01*
X014317Y040366D02*
X014132Y040366D01*
X014070Y040304D01*
X014070Y040057D01*
X014132Y039996D01*
X014317Y039996D01*
X014317Y040366D01*
X014685Y040366D02*
X014685Y039996D01*
X014806Y040057D02*
X014806Y040181D01*
X014930Y040181D01*
X015053Y040304D02*
X015053Y040057D01*
X014992Y039996D01*
X014868Y039996D01*
X014806Y040057D01*
X014806Y040304D02*
X014868Y040366D01*
X014992Y040366D01*
X015053Y040304D01*
X014992Y043996D02*
X015053Y044057D01*
X014992Y043996D02*
X014868Y043996D01*
X014806Y044057D01*
X014806Y044181D01*
X014868Y044242D01*
X014930Y044242D01*
X015053Y044181D01*
X015053Y044366D01*
X014806Y044366D01*
X014685Y044366D02*
X014685Y044119D01*
X014562Y043996D01*
X014438Y044119D01*
X014438Y044366D01*
X016845Y049272D02*
X016783Y049334D01*
X016783Y049457D01*
X016845Y049519D01*
X016783Y049640D02*
X017154Y049640D01*
X017154Y049825D01*
X017092Y049887D01*
X016968Y049887D01*
X016907Y049825D01*
X016907Y049640D01*
X016907Y049764D02*
X016783Y049887D01*
X016722Y050009D02*
X016722Y050255D01*
X016783Y050377D02*
X016783Y050500D01*
X016783Y050439D02*
X017154Y050439D01*
X017154Y050500D02*
X017154Y050377D01*
X017092Y050622D02*
X016845Y050622D01*
X016783Y050684D01*
X016783Y050808D01*
X016845Y050869D01*
X016968Y050991D02*
X016968Y051238D01*
X016783Y051176D02*
X017154Y051176D01*
X016968Y050991D01*
X017092Y050869D02*
X017154Y050808D01*
X017154Y050684D01*
X017092Y050622D01*
X016554Y050439D02*
X016183Y050439D01*
X016183Y050316D02*
X016183Y050562D01*
X016430Y050316D02*
X016554Y050439D01*
X016554Y050194D02*
X016183Y050194D01*
X016183Y049947D02*
X016554Y049947D01*
X016430Y050071D01*
X016554Y050194D01*
X017092Y049519D02*
X017154Y049457D01*
X017154Y049334D01*
X017092Y049272D01*
X016845Y049272D01*
X015102Y054142D02*
X014855Y054142D01*
X014793Y054204D01*
X014793Y054327D01*
X014855Y054389D01*
X014793Y054510D02*
X015164Y054510D01*
X015164Y054696D01*
X015102Y054757D01*
X014978Y054757D01*
X014917Y054696D01*
X014917Y054510D01*
X014917Y054634D02*
X014793Y054757D01*
X014732Y054879D02*
X014732Y055126D01*
X014793Y055247D02*
X015164Y055247D01*
X015040Y055370D01*
X015164Y055494D01*
X014793Y055494D01*
X014793Y055615D02*
X014793Y055739D01*
X014793Y055677D02*
X015164Y055677D01*
X015164Y055615D02*
X015164Y055739D01*
X015164Y055861D02*
X015164Y056046D01*
X015102Y056108D01*
X014855Y056108D01*
X014793Y056046D01*
X014793Y055861D01*
X015164Y055861D01*
X015164Y056229D02*
X015164Y056353D01*
X015164Y056291D02*
X014793Y056291D01*
X014793Y056229D02*
X014793Y056353D01*
X014793Y056475D02*
X014793Y056722D01*
X014793Y056598D02*
X015164Y056598D01*
X015040Y056475D01*
X016523Y056482D02*
X016523Y056359D01*
X016585Y056297D01*
X016523Y056176D02*
X016523Y055929D01*
X016523Y056052D02*
X016894Y056052D01*
X016770Y055929D01*
X016894Y055807D02*
X016894Y055684D01*
X016894Y055746D02*
X016585Y055746D01*
X016523Y055684D01*
X016523Y055622D01*
X016585Y055560D01*
X016462Y055439D02*
X016462Y055192D01*
X016523Y055071D02*
X016647Y054947D01*
X016647Y055009D02*
X016647Y054824D01*
X016523Y054824D02*
X016894Y054824D01*
X016894Y055009D01*
X016832Y055071D01*
X016708Y055071D01*
X016647Y055009D01*
X016585Y054702D02*
X016523Y054641D01*
X016523Y054517D01*
X016585Y054456D01*
X016832Y054456D01*
X016894Y054517D01*
X016894Y054641D01*
X016832Y054702D01*
X016832Y056297D02*
X016894Y056359D01*
X016894Y056482D01*
X016832Y056544D01*
X016770Y056544D01*
X016708Y056482D01*
X016647Y056544D01*
X016585Y056544D01*
X016523Y056482D01*
X016708Y056482D02*
X016708Y056421D01*
X015102Y054389D02*
X015164Y054327D01*
X015164Y054204D01*
X015102Y054142D01*
X010820Y054557D02*
X010759Y054496D01*
X010512Y054496D01*
X010450Y054557D01*
X010450Y054681D01*
X010512Y054743D01*
X010574Y054864D02*
X010574Y055049D01*
X010635Y055111D01*
X010759Y055111D01*
X010820Y055049D01*
X010820Y054864D01*
X010450Y054864D01*
X010574Y054987D02*
X010450Y055111D01*
X010388Y055232D02*
X010388Y055479D01*
X010512Y055601D02*
X010450Y055662D01*
X010450Y055724D01*
X010512Y055786D01*
X010820Y055786D01*
X010820Y055847D02*
X010820Y055724D01*
X010697Y055969D02*
X010820Y056092D01*
X010450Y056092D01*
X010450Y055969D02*
X010450Y056216D01*
X010450Y056337D02*
X010697Y056584D01*
X010759Y056584D01*
X010820Y056522D01*
X010820Y056399D01*
X010759Y056337D01*
X010450Y056337D02*
X010450Y056584D01*
X010759Y054743D02*
X010820Y054681D01*
X010820Y054557D01*
X020782Y054902D02*
X020782Y055149D01*
X020843Y055270D02*
X021214Y055270D01*
X021090Y055394D01*
X021214Y055517D01*
X020843Y055517D01*
X020843Y055639D02*
X020843Y055762D01*
X020843Y055701D02*
X021214Y055701D01*
X021214Y055762D02*
X021214Y055639D01*
X021214Y055884D02*
X021214Y056070D01*
X021152Y056131D01*
X020905Y056131D01*
X020843Y056070D01*
X020843Y055884D01*
X021214Y055884D01*
X021214Y056253D02*
X021214Y056376D01*
X021214Y056314D02*
X020843Y056314D01*
X020843Y056253D02*
X020843Y056376D01*
X020843Y056498D02*
X021090Y056745D01*
X021152Y056745D01*
X021214Y056683D01*
X021214Y056560D01*
X021152Y056498D01*
X020843Y056498D02*
X020843Y056745D01*
X022603Y056482D02*
X022603Y056359D01*
X022665Y056297D01*
X022912Y056544D01*
X022665Y056544D01*
X022603Y056482D01*
X022665Y056297D02*
X022912Y056297D01*
X022974Y056359D01*
X022974Y056482D01*
X022912Y056544D01*
X022912Y056176D02*
X022974Y056114D01*
X022974Y055991D01*
X022912Y055929D01*
X022974Y055807D02*
X022974Y055684D01*
X022974Y055746D02*
X022665Y055746D01*
X022603Y055684D01*
X022603Y055622D01*
X022665Y055560D01*
X022542Y055439D02*
X022542Y055192D01*
X022603Y055071D02*
X022727Y054947D01*
X022727Y055009D02*
X022727Y054824D01*
X022603Y054824D02*
X022974Y054824D01*
X022974Y055009D01*
X022912Y055071D01*
X022788Y055071D01*
X022727Y055009D01*
X022665Y054702D02*
X022603Y054641D01*
X022603Y054517D01*
X022665Y054456D01*
X022912Y054456D01*
X022974Y054517D01*
X022974Y054641D01*
X022912Y054702D01*
X022603Y055929D02*
X022850Y056176D01*
X022912Y056176D01*
X022603Y056176D02*
X022603Y055929D01*
X021214Y054719D02*
X021152Y054781D01*
X021028Y054781D01*
X020967Y054719D01*
X020967Y054534D01*
X020967Y054657D02*
X020843Y054781D01*
X020843Y054534D02*
X021214Y054534D01*
X021214Y054719D01*
X021152Y054412D02*
X021214Y054351D01*
X021214Y054227D01*
X021152Y054166D01*
X020905Y054166D01*
X020843Y054227D01*
X020843Y054351D01*
X020905Y054412D01*
X024383Y051176D02*
X024383Y051053D01*
X024445Y050991D01*
X024445Y050869D02*
X024383Y050808D01*
X024383Y050684D01*
X024445Y050622D01*
X024692Y050622D01*
X024754Y050684D01*
X024754Y050808D01*
X024692Y050869D01*
X024754Y050991D02*
X024568Y050991D01*
X024630Y051114D01*
X024630Y051176D01*
X024568Y051238D01*
X024445Y051238D01*
X024383Y051176D01*
X024754Y051238D02*
X024754Y050991D01*
X024754Y050500D02*
X024754Y050377D01*
X024754Y050439D02*
X024383Y050439D01*
X024383Y050500D02*
X024383Y050377D01*
X024322Y050255D02*
X024322Y050009D01*
X024383Y049887D02*
X024507Y049764D01*
X024507Y049825D02*
X024507Y049640D01*
X024383Y049640D02*
X024754Y049640D01*
X024754Y049825D01*
X024692Y049887D01*
X024568Y049887D01*
X024507Y049825D01*
X024445Y049519D02*
X024383Y049457D01*
X024383Y049334D01*
X024445Y049272D01*
X024692Y049272D01*
X024754Y049334D01*
X024754Y049457D01*
X024692Y049519D01*
X024154Y049947D02*
X024030Y050071D01*
X024154Y050194D01*
X023783Y050194D01*
X023783Y050316D02*
X024030Y050562D01*
X024092Y050562D01*
X024154Y050501D01*
X024154Y050377D01*
X024092Y050316D01*
X023783Y050316D02*
X023783Y050562D01*
X023783Y049947D02*
X024154Y049947D01*
X026985Y054166D02*
X026923Y054227D01*
X026923Y054351D01*
X026985Y054412D01*
X026923Y054534D02*
X027294Y054534D01*
X027294Y054719D01*
X027232Y054781D01*
X027108Y054781D01*
X027047Y054719D01*
X027047Y054534D01*
X027047Y054657D02*
X026923Y054781D01*
X026862Y054902D02*
X026862Y055149D01*
X026923Y055270D02*
X027294Y055270D01*
X027170Y055394D01*
X027294Y055517D01*
X026923Y055517D01*
X026923Y055639D02*
X026923Y055762D01*
X026923Y055701D02*
X027294Y055701D01*
X027294Y055762D02*
X027294Y055639D01*
X027294Y055884D02*
X027294Y056070D01*
X027232Y056131D01*
X026985Y056131D01*
X026923Y056070D01*
X026923Y055884D01*
X027294Y055884D01*
X027294Y056253D02*
X027294Y056376D01*
X027294Y056314D02*
X026923Y056314D01*
X026923Y056253D02*
X026923Y056376D01*
X026985Y056498D02*
X026923Y056560D01*
X026923Y056683D01*
X026985Y056745D01*
X027047Y056745D01*
X027108Y056683D01*
X027108Y056622D01*
X027108Y056683D02*
X027170Y056745D01*
X027232Y056745D01*
X027294Y056683D01*
X027294Y056560D01*
X027232Y056498D01*
X028683Y056544D02*
X028683Y056297D01*
X028683Y056176D02*
X028683Y055929D01*
X028930Y056176D01*
X028992Y056176D01*
X029054Y056114D01*
X029054Y055991D01*
X028992Y055929D01*
X029054Y055807D02*
X029054Y055684D01*
X029054Y055746D02*
X028745Y055746D01*
X028683Y055684D01*
X028683Y055622D01*
X028745Y055560D01*
X028622Y055439D02*
X028622Y055192D01*
X028683Y055071D02*
X028807Y054947D01*
X028807Y055009D02*
X028807Y054824D01*
X028683Y054824D02*
X029054Y054824D01*
X029054Y055009D01*
X028992Y055071D01*
X028868Y055071D01*
X028807Y055009D01*
X028745Y054702D02*
X028683Y054641D01*
X028683Y054517D01*
X028745Y054456D01*
X028992Y054456D01*
X029054Y054517D01*
X029054Y054641D01*
X028992Y054702D01*
X028930Y056297D02*
X029054Y056421D01*
X028683Y056421D01*
X027232Y054412D02*
X027294Y054351D01*
X027294Y054227D01*
X027232Y054166D01*
X026985Y054166D01*
X031383Y050501D02*
X031383Y050377D01*
X031445Y050316D01*
X031383Y050194D02*
X031754Y050194D01*
X031630Y050071D01*
X031754Y049947D01*
X031383Y049947D01*
X031692Y050316D02*
X031754Y050377D01*
X031754Y050501D01*
X031692Y050562D01*
X031630Y050562D01*
X031568Y050501D01*
X031507Y050562D01*
X031445Y050562D01*
X031383Y050501D01*
X031568Y050501D02*
X031568Y050439D01*
X031922Y050255D02*
X031922Y050009D01*
X031983Y049887D02*
X032107Y049764D01*
X032107Y049825D02*
X032107Y049640D01*
X031983Y049640D02*
X032354Y049640D01*
X032354Y049825D01*
X032292Y049887D01*
X032168Y049887D01*
X032107Y049825D01*
X032045Y049519D02*
X031983Y049457D01*
X031983Y049334D01*
X032045Y049272D01*
X032292Y049272D01*
X032354Y049334D01*
X032354Y049457D01*
X032292Y049519D01*
X032354Y050377D02*
X032354Y050500D01*
X032354Y050439D02*
X031983Y050439D01*
X031983Y050500D02*
X031983Y050377D01*
X032045Y050622D02*
X031983Y050684D01*
X031983Y050808D01*
X032045Y050869D01*
X032045Y050991D02*
X032107Y050991D01*
X032168Y051053D01*
X032168Y051176D01*
X032107Y051238D01*
X032045Y051238D01*
X031983Y051176D01*
X031983Y051053D01*
X032045Y050991D01*
X032168Y051053D02*
X032230Y050991D01*
X032292Y050991D01*
X032354Y051053D01*
X032354Y051176D01*
X032292Y051238D01*
X032230Y051238D01*
X032168Y051176D01*
X032292Y050869D02*
X032354Y050808D01*
X032354Y050684D01*
X032292Y050622D01*
X032045Y050622D01*
X032985Y054166D02*
X032923Y054227D01*
X032923Y054351D01*
X032985Y054412D01*
X032923Y054534D02*
X033294Y054534D01*
X033294Y054719D01*
X033232Y054781D01*
X033108Y054781D01*
X033047Y054719D01*
X033047Y054534D01*
X033047Y054657D02*
X032923Y054781D01*
X032862Y054902D02*
X032862Y055149D01*
X032923Y055270D02*
X033294Y055270D01*
X033170Y055394D01*
X033294Y055517D01*
X032923Y055517D01*
X032923Y055639D02*
X032923Y055762D01*
X032923Y055701D02*
X033294Y055701D01*
X033294Y055762D02*
X033294Y055639D01*
X033294Y055884D02*
X033294Y056070D01*
X033232Y056131D01*
X032985Y056131D01*
X032923Y056070D01*
X032923Y055884D01*
X033294Y055884D01*
X033294Y056253D02*
X033294Y056376D01*
X033294Y056314D02*
X032923Y056314D01*
X032923Y056253D02*
X032923Y056376D01*
X033108Y056498D02*
X033108Y056745D01*
X032923Y056683D02*
X033294Y056683D01*
X033108Y056498D01*
X033232Y054412D02*
X033294Y054351D01*
X033294Y054227D01*
X033232Y054166D01*
X032985Y054166D01*
X037599Y054402D02*
X037599Y054595D01*
X037599Y054402D02*
X037696Y054305D01*
X037793Y054402D01*
X037793Y054595D01*
X037894Y054595D02*
X038087Y054595D01*
X038087Y054450D01*
X037990Y054499D01*
X037942Y054499D01*
X037894Y054450D01*
X037894Y054353D01*
X037942Y054305D01*
X038039Y054305D01*
X038087Y054353D01*
X039503Y054333D02*
X039503Y054527D01*
X039552Y054575D01*
X039697Y054575D01*
X039697Y054285D01*
X039552Y054285D01*
X039503Y054333D01*
X039798Y054285D02*
X039798Y054575D01*
X039991Y054575D02*
X039798Y054285D01*
X039991Y054285D02*
X039991Y054575D01*
X040092Y054527D02*
X040141Y054575D01*
X040238Y054575D01*
X040286Y054527D01*
X040286Y054333D01*
X040238Y054285D01*
X040141Y054285D01*
X040092Y054333D01*
X040092Y054430D01*
X040189Y054430D01*
X041499Y054403D02*
X041499Y054596D01*
X041499Y054403D02*
X041596Y054306D01*
X041693Y054403D01*
X041693Y054596D01*
X041794Y054548D02*
X041842Y054596D01*
X041939Y054596D01*
X041988Y054548D01*
X041794Y054548D02*
X041794Y054500D01*
X041988Y054306D01*
X041794Y054306D01*
X042089Y054306D02*
X042282Y054306D01*
X042185Y054306D02*
X042185Y054596D01*
X042282Y054500D01*
X043833Y054633D02*
X043833Y054827D01*
X044027Y054827D02*
X044027Y054633D01*
X043930Y054536D01*
X043833Y054633D01*
X044128Y054585D02*
X044176Y054536D01*
X044273Y054536D01*
X044321Y054585D01*
X044321Y054681D02*
X044225Y054730D01*
X044176Y054730D01*
X044128Y054681D01*
X044128Y054585D01*
X044321Y054681D02*
X044321Y054827D01*
X044128Y054827D01*
X045769Y054768D02*
X045769Y054574D01*
X045817Y054526D01*
X045962Y054526D01*
X045962Y054816D01*
X045817Y054816D01*
X045769Y054768D01*
X046063Y054816D02*
X046063Y054526D01*
X046257Y054816D01*
X046257Y054526D01*
X046358Y054574D02*
X046358Y054671D01*
X046455Y054671D01*
X046551Y054768D02*
X046551Y054574D01*
X046503Y054526D01*
X046406Y054526D01*
X046358Y054574D01*
X046358Y054768D02*
X046406Y054816D01*
X046503Y054816D01*
X046551Y054768D01*
X047611Y054815D02*
X047611Y054621D01*
X047707Y054524D01*
X047804Y054621D01*
X047804Y054815D01*
X047905Y054766D02*
X047954Y054815D01*
X048050Y054815D01*
X048099Y054766D01*
X047905Y054766D02*
X047905Y054718D01*
X048099Y054524D01*
X047905Y054524D01*
X048200Y054524D02*
X048393Y054524D01*
X048297Y054524D02*
X048297Y054815D01*
X048393Y054718D01*
X046001Y051707D02*
X045808Y051707D01*
X045707Y051707D02*
X045707Y051513D01*
X045610Y051416D01*
X045513Y051513D01*
X045513Y051707D01*
X045808Y051561D02*
X045808Y051465D01*
X045856Y051416D01*
X045953Y051416D01*
X046001Y051465D01*
X046001Y051561D02*
X045905Y051610D01*
X045856Y051610D01*
X045808Y051561D01*
X046001Y051561D02*
X046001Y051707D01*
X045947Y050747D02*
X045753Y050456D01*
X045753Y050747D01*
X045652Y050747D02*
X045507Y050747D01*
X045459Y050698D01*
X045459Y050505D01*
X045507Y050456D01*
X045652Y050456D01*
X045652Y050747D01*
X045947Y050747D02*
X045947Y050456D01*
X046048Y050505D02*
X046048Y050601D01*
X046145Y050601D01*
X046241Y050505D02*
X046193Y050456D01*
X046096Y050456D01*
X046048Y050505D01*
X046048Y050698D02*
X046096Y050747D01*
X046193Y050747D01*
X046241Y050698D01*
X046241Y050505D01*
X046193Y049707D02*
X046096Y049707D01*
X046048Y049658D01*
X046048Y049610D01*
X046096Y049561D01*
X046048Y049513D01*
X046048Y049465D01*
X046096Y049416D01*
X046193Y049416D01*
X046241Y049465D01*
X046145Y049561D02*
X046096Y049561D01*
X045947Y049513D02*
X045850Y049416D01*
X045753Y049513D01*
X045753Y049707D01*
X045652Y049658D02*
X045604Y049707D01*
X045507Y049707D01*
X045459Y049658D01*
X045459Y049610D01*
X045507Y049561D01*
X045459Y049513D01*
X045459Y049465D01*
X045507Y049416D01*
X045604Y049416D01*
X045652Y049465D01*
X045555Y049561D02*
X045507Y049561D01*
X045947Y049513D02*
X045947Y049707D01*
X046193Y049707D02*
X046241Y049658D01*
X049083Y044434D02*
X049083Y044187D01*
X049083Y044311D02*
X049454Y044311D01*
X049330Y044187D01*
X049392Y044066D02*
X049454Y044004D01*
X049454Y043881D01*
X049392Y043819D01*
X049145Y043819D01*
X049083Y043881D01*
X049083Y044004D01*
X049145Y044066D01*
X049083Y043697D02*
X049207Y043574D01*
X049207Y043636D02*
X049207Y043451D01*
X049083Y043451D02*
X049454Y043451D01*
X049454Y043636D01*
X049392Y043697D01*
X049268Y043697D01*
X049207Y043636D01*
X049145Y043234D02*
X049083Y043172D01*
X049083Y043049D01*
X049145Y042987D01*
X049392Y042987D01*
X049454Y043049D01*
X049454Y043172D01*
X049392Y043234D01*
X049392Y042866D02*
X049454Y042804D01*
X049454Y042681D01*
X049392Y042619D01*
X049330Y042619D01*
X049268Y042681D01*
X049268Y042804D01*
X049207Y042866D01*
X049145Y042866D01*
X049083Y042804D01*
X049083Y042681D01*
X049145Y042619D01*
X049145Y042274D02*
X049083Y042212D01*
X049083Y042089D01*
X049145Y042027D01*
X049392Y042027D01*
X049454Y042089D01*
X049454Y042212D01*
X049392Y042274D01*
X049145Y042274D01*
X049145Y041906D02*
X049083Y041844D01*
X049083Y041721D01*
X049145Y041659D01*
X049268Y041721D02*
X049268Y041844D01*
X049207Y041906D01*
X049145Y041906D01*
X049268Y041721D02*
X049330Y041659D01*
X049392Y041659D01*
X049454Y041721D01*
X049454Y041844D01*
X049392Y041906D01*
X049392Y041474D02*
X049330Y041474D01*
X049268Y041412D01*
X049207Y041474D01*
X049145Y041474D01*
X049083Y041412D01*
X049083Y041289D01*
X049145Y041227D01*
X049207Y041106D02*
X049454Y041106D01*
X049392Y041227D02*
X049454Y041289D01*
X049454Y041412D01*
X049392Y041474D01*
X049268Y041412D02*
X049268Y041351D01*
X049207Y041106D02*
X049083Y040982D01*
X049207Y040859D01*
X049454Y040859D01*
X049392Y040737D02*
X049330Y040737D01*
X049268Y040676D01*
X049207Y040737D01*
X049145Y040737D01*
X049083Y040676D01*
X049083Y040552D01*
X049145Y040491D01*
X049145Y040354D02*
X049392Y040354D01*
X049454Y040292D01*
X049454Y040107D01*
X049083Y040107D01*
X049083Y040292D01*
X049145Y040354D01*
X049392Y040491D02*
X049454Y040552D01*
X049454Y040676D01*
X049392Y040737D01*
X049268Y040676D02*
X049268Y040614D01*
X049083Y039986D02*
X049454Y039986D01*
X049454Y039739D02*
X049083Y039986D01*
X049083Y039739D02*
X049454Y039739D01*
X049392Y039617D02*
X049454Y039556D01*
X049454Y039432D01*
X049392Y039371D01*
X049145Y039371D01*
X049083Y039432D01*
X049083Y039556D01*
X049145Y039617D01*
X049268Y039617D01*
X049268Y039494D01*
X051403Y039541D02*
X051465Y039602D01*
X051588Y039602D01*
X051588Y039479D01*
X051465Y039356D02*
X051403Y039417D01*
X051403Y039541D01*
X051403Y039724D02*
X051774Y039724D01*
X051403Y039971D01*
X051774Y039971D01*
X051774Y040092D02*
X051774Y040277D01*
X051712Y040339D01*
X051465Y040339D01*
X051403Y040277D01*
X051403Y040092D01*
X051774Y040092D01*
X051712Y040476D02*
X051774Y040537D01*
X051774Y040661D01*
X051712Y040722D01*
X051650Y040722D01*
X051588Y040661D01*
X051527Y040722D01*
X051465Y040722D01*
X051403Y040661D01*
X051403Y040537D01*
X051465Y040476D01*
X051588Y040599D02*
X051588Y040661D01*
X051527Y040844D02*
X051403Y040967D01*
X051527Y041091D01*
X051774Y041091D01*
X051712Y041212D02*
X051774Y041274D01*
X051774Y041397D01*
X051712Y041459D01*
X051650Y041459D01*
X051588Y041397D01*
X051527Y041459D01*
X051465Y041459D01*
X051403Y041397D01*
X051403Y041274D01*
X051465Y041212D01*
X051588Y041336D02*
X051588Y041397D01*
X051650Y041596D02*
X051588Y041657D01*
X051588Y041781D01*
X051527Y041842D01*
X051465Y041842D01*
X051403Y041781D01*
X051403Y041657D01*
X051465Y041596D01*
X051650Y041596D02*
X051712Y041596D01*
X051774Y041657D01*
X051774Y041781D01*
X051712Y041842D01*
X051774Y041964D02*
X051774Y042087D01*
X051774Y042026D02*
X051403Y042026D01*
X051403Y042087D02*
X051403Y041964D01*
X051465Y042636D02*
X051403Y042697D01*
X051403Y042821D01*
X051465Y042882D01*
X051527Y042882D01*
X051588Y042821D01*
X051588Y042697D01*
X051650Y042636D01*
X051712Y042636D01*
X051774Y042697D01*
X051774Y042821D01*
X051712Y042882D01*
X051712Y043004D02*
X051465Y043004D01*
X051403Y043066D01*
X051403Y043189D01*
X051465Y043251D01*
X051712Y043251D02*
X051774Y043189D01*
X051774Y043066D01*
X051712Y043004D01*
X051774Y043516D02*
X051774Y043701D01*
X051712Y043762D01*
X051588Y043762D01*
X051527Y043701D01*
X051527Y043516D01*
X051527Y043639D02*
X051403Y043762D01*
X051465Y043884D02*
X051403Y043946D01*
X051403Y044069D01*
X051465Y044131D01*
X051403Y044252D02*
X051650Y044499D01*
X051712Y044499D01*
X051774Y044437D01*
X051774Y044314D01*
X051712Y044252D01*
X051712Y044131D02*
X051774Y044069D01*
X051774Y043946D01*
X051712Y043884D01*
X051465Y043884D01*
X051403Y044252D02*
X051403Y044499D01*
X051403Y043516D02*
X051774Y043516D01*
X051774Y040844D02*
X051527Y040844D01*
X051712Y039602D02*
X051774Y039541D01*
X051774Y039417D01*
X051712Y039356D01*
X051465Y039356D01*
X051403Y036787D02*
X051588Y036602D01*
X051527Y036540D02*
X051774Y036787D01*
X051774Y036540D02*
X051403Y036540D01*
X051403Y036419D02*
X051403Y036172D01*
X051774Y036172D01*
X051712Y036051D02*
X051774Y035989D01*
X051774Y035866D01*
X051712Y035804D01*
X051465Y035804D01*
X051403Y035866D01*
X051403Y035989D01*
X051465Y036051D01*
X051403Y035682D02*
X051774Y035682D01*
X051650Y035559D01*
X051774Y035436D01*
X051403Y035436D01*
X051465Y035091D02*
X051403Y035029D01*
X051403Y034906D01*
X051465Y034844D01*
X051712Y034844D01*
X051774Y034906D01*
X051774Y035029D01*
X051712Y035091D01*
X051712Y034722D02*
X051774Y034661D01*
X051774Y034537D01*
X051712Y034476D01*
X051650Y034476D01*
X051588Y034537D01*
X051588Y034661D01*
X051527Y034722D01*
X051465Y034722D01*
X051403Y034661D01*
X051403Y034537D01*
X051465Y034476D01*
X051465Y033299D02*
X051403Y033237D01*
X051403Y033114D01*
X051465Y033052D01*
X051527Y032931D02*
X051774Y032931D01*
X051712Y033052D02*
X051774Y033114D01*
X051774Y033237D01*
X051712Y033299D01*
X051650Y033299D01*
X051588Y033237D01*
X051527Y033299D01*
X051465Y033299D01*
X051588Y033237D02*
X051588Y033176D01*
X051527Y032931D02*
X051403Y032807D01*
X051527Y032684D01*
X051774Y032684D01*
X051712Y032562D02*
X051650Y032562D01*
X051588Y032501D01*
X051527Y032562D01*
X051465Y032562D01*
X051403Y032501D01*
X051403Y032377D01*
X051465Y032316D01*
X051465Y032179D02*
X051712Y032179D01*
X051774Y032117D01*
X051774Y031932D01*
X051403Y031932D01*
X051403Y032117D01*
X051465Y032179D01*
X051712Y032316D02*
X051774Y032377D01*
X051774Y032501D01*
X051712Y032562D01*
X051588Y032501D02*
X051588Y032439D01*
X051403Y031811D02*
X051774Y031811D01*
X051774Y031564D02*
X051403Y031811D01*
X051403Y031564D02*
X051774Y031564D01*
X051712Y031442D02*
X051774Y031381D01*
X051774Y031257D01*
X051712Y031196D01*
X051465Y031196D01*
X051403Y031257D01*
X051403Y031381D01*
X051465Y031442D01*
X051588Y031442D01*
X051588Y031319D01*
X049374Y031272D02*
X049312Y031211D01*
X049065Y031211D01*
X049003Y031272D01*
X049003Y031396D01*
X049065Y031457D01*
X049188Y031457D01*
X049188Y031334D01*
X049312Y031457D02*
X049374Y031396D01*
X049374Y031272D01*
X049374Y031579D02*
X049003Y031826D01*
X049374Y031826D01*
X049374Y031947D02*
X049374Y032132D01*
X049312Y032194D01*
X049065Y032194D01*
X049003Y032132D01*
X049003Y031947D01*
X049374Y031947D01*
X049374Y031579D02*
X049003Y031579D01*
X049065Y032331D02*
X049003Y032392D01*
X049003Y032516D01*
X049065Y032577D01*
X049127Y032577D01*
X049188Y032516D01*
X049188Y032454D01*
X049188Y032516D02*
X049250Y032577D01*
X049312Y032577D01*
X049374Y032516D01*
X049374Y032392D01*
X049312Y032331D01*
X049374Y032699D02*
X049127Y032699D01*
X049003Y032822D01*
X049127Y032946D01*
X049374Y032946D01*
X049312Y033067D02*
X049374Y033129D01*
X049374Y033252D01*
X049312Y033314D01*
X049250Y033314D01*
X049188Y033252D01*
X049127Y033314D01*
X049065Y033314D01*
X049003Y033252D01*
X049003Y033129D01*
X049065Y033067D01*
X049188Y033191D02*
X049188Y033252D01*
X049250Y033371D02*
X049188Y033432D01*
X049188Y033556D01*
X049127Y033617D01*
X049065Y033617D01*
X049003Y033556D01*
X049003Y033432D01*
X049065Y033371D01*
X049250Y033371D02*
X049312Y033371D01*
X049374Y033432D01*
X049374Y033556D01*
X049312Y033617D01*
X049374Y033739D02*
X049374Y033924D01*
X049312Y033986D01*
X049065Y033986D01*
X049003Y033924D01*
X049003Y033739D01*
X049374Y033739D01*
X049250Y034107D02*
X049003Y034107D01*
X049188Y034107D02*
X049188Y034354D01*
X049250Y034354D02*
X049003Y034354D01*
X049065Y034539D02*
X049003Y034601D01*
X049003Y034724D01*
X049065Y034786D01*
X049127Y034786D01*
X049188Y034724D01*
X049188Y034601D01*
X049250Y034539D01*
X049312Y034539D01*
X049374Y034601D01*
X049374Y034724D01*
X049312Y034786D01*
X049312Y034907D02*
X049065Y034907D01*
X049003Y034969D01*
X049003Y035092D01*
X049065Y035154D01*
X049312Y035154D02*
X049374Y035092D01*
X049374Y034969D01*
X049312Y034907D01*
X049250Y034354D02*
X049374Y034231D01*
X049250Y034107D01*
X049374Y035579D02*
X049003Y035579D01*
X049127Y035702D01*
X049003Y035826D01*
X049374Y035826D01*
X049312Y035947D02*
X049250Y035947D01*
X049188Y036009D01*
X049188Y036132D01*
X049127Y036194D01*
X049065Y036194D01*
X049003Y036132D01*
X049003Y036009D01*
X049065Y035947D01*
X049312Y035947D02*
X049374Y036009D01*
X049374Y036132D01*
X049312Y036194D01*
X042750Y032766D02*
X042750Y032581D01*
X042627Y032642D01*
X042565Y032642D01*
X042503Y032581D01*
X042503Y032457D01*
X042565Y032396D01*
X042688Y032396D01*
X042750Y032457D01*
X042750Y032766D02*
X042503Y032766D01*
X042382Y032766D02*
X042382Y032519D01*
X042258Y032396D01*
X042135Y032519D01*
X042135Y032766D01*
X041214Y036396D02*
X041028Y036396D01*
X041090Y036519D01*
X041090Y036581D01*
X041028Y036642D01*
X040905Y036642D01*
X040843Y036581D01*
X040843Y036457D01*
X040905Y036396D01*
X041214Y036396D02*
X041214Y036642D01*
X041214Y036764D02*
X040967Y036764D01*
X040843Y036887D01*
X040967Y037011D01*
X041214Y037011D01*
X040254Y037072D02*
X040254Y036948D01*
X040192Y036887D01*
X039945Y036887D01*
X039883Y036948D01*
X039883Y037072D01*
X039945Y037134D01*
X039883Y037255D02*
X039883Y037502D01*
X039883Y037378D02*
X040254Y037378D01*
X040130Y037255D01*
X040192Y037134D02*
X040254Y037072D01*
X040254Y036765D02*
X040254Y036641D01*
X040254Y036703D02*
X039883Y036703D01*
X039883Y036641D02*
X039883Y036765D01*
X039883Y036519D02*
X039883Y036396D01*
X039883Y036457D02*
X040254Y036457D01*
X040254Y036396D02*
X040254Y036519D01*
X039214Y036519D02*
X039214Y036396D01*
X039214Y036457D02*
X038843Y036457D01*
X038843Y036396D02*
X038843Y036519D01*
X038843Y036641D02*
X038843Y036765D01*
X038843Y036703D02*
X039214Y036703D01*
X039214Y036641D02*
X039214Y036765D01*
X039152Y036887D02*
X038905Y036887D01*
X038843Y036948D01*
X038843Y037072D01*
X038905Y037134D01*
X038843Y037255D02*
X038843Y037502D01*
X038843Y037378D02*
X039214Y037378D01*
X039090Y037255D01*
X039152Y037134D02*
X039214Y037072D01*
X039214Y036948D01*
X039152Y036887D01*
X038782Y037623D02*
X038782Y037870D01*
X038905Y037992D02*
X038843Y038053D01*
X038843Y038177D01*
X038905Y038238D01*
X038967Y038238D01*
X039028Y038177D01*
X039028Y038053D01*
X039090Y037992D01*
X039152Y037992D01*
X039214Y038053D01*
X039214Y038177D01*
X039152Y038238D01*
X039152Y038360D02*
X038905Y038360D01*
X038843Y038422D01*
X038843Y038545D01*
X038905Y038607D01*
X039152Y038607D02*
X039214Y038545D01*
X039214Y038422D01*
X039152Y038360D01*
X039883Y038360D02*
X039883Y038545D01*
X039945Y038607D01*
X040192Y038607D01*
X040254Y038545D01*
X040254Y038360D01*
X039883Y038360D01*
X039945Y038238D02*
X039883Y038177D01*
X039883Y038053D01*
X039945Y037992D01*
X040068Y038053D02*
X040068Y038177D01*
X040007Y038238D01*
X039945Y038238D01*
X040068Y038053D02*
X040130Y037992D01*
X040192Y037992D01*
X040254Y038053D01*
X040254Y038177D01*
X040192Y038238D01*
X039822Y037870D02*
X039822Y037623D01*
X038174Y037317D02*
X038174Y037132D01*
X037803Y037132D01*
X037803Y037317D01*
X037865Y037379D01*
X038112Y037379D01*
X038174Y037317D01*
X038174Y037011D02*
X037803Y037011D01*
X038174Y036764D01*
X037803Y036764D01*
X037865Y036642D02*
X037988Y036642D01*
X037988Y036519D01*
X037865Y036642D02*
X037803Y036581D01*
X037803Y036457D01*
X037865Y036396D01*
X038112Y036396D01*
X038174Y036457D01*
X038174Y036581D01*
X038112Y036642D01*
X037453Y035966D02*
X037330Y035966D01*
X037392Y035966D02*
X037392Y035596D01*
X037453Y035596D02*
X037330Y035596D01*
X037208Y035596D02*
X037084Y035596D01*
X037146Y035596D02*
X037146Y035966D01*
X037208Y035966D02*
X037084Y035966D01*
X036962Y035904D02*
X036962Y035657D01*
X036901Y035596D01*
X036777Y035596D01*
X036715Y035657D01*
X036594Y035596D02*
X036347Y035596D01*
X036470Y035596D02*
X036470Y035966D01*
X036594Y035842D01*
X036715Y035904D02*
X036777Y035966D01*
X036901Y035966D01*
X036962Y035904D01*
X037396Y032686D02*
X037335Y032624D01*
X037335Y032562D01*
X037396Y032501D01*
X037335Y032439D01*
X037335Y032377D01*
X037396Y032316D01*
X037520Y032316D01*
X037582Y032377D01*
X037703Y032439D02*
X037703Y032686D01*
X037582Y032624D02*
X037520Y032686D01*
X037396Y032686D01*
X037396Y032501D02*
X037458Y032501D01*
X037703Y032439D02*
X037827Y032316D01*
X037950Y032439D01*
X037950Y032686D01*
X038071Y032624D02*
X038071Y032562D01*
X038133Y032501D01*
X038071Y032439D01*
X038071Y032377D01*
X038133Y032316D01*
X038257Y032316D01*
X038318Y032377D01*
X038195Y032501D02*
X038133Y032501D01*
X038071Y032624D02*
X038133Y032686D01*
X038257Y032686D01*
X038318Y032624D01*
X035214Y032597D02*
X035214Y032412D01*
X034843Y032412D01*
X034843Y032597D01*
X034905Y032659D01*
X035152Y032659D01*
X035214Y032597D01*
X035214Y032291D02*
X034843Y032291D01*
X035214Y032044D01*
X034843Y032044D01*
X034905Y031922D02*
X035028Y031922D01*
X035028Y031799D01*
X034905Y031922D02*
X034843Y031861D01*
X034843Y031737D01*
X034905Y031676D01*
X035152Y031676D01*
X035214Y031737D01*
X035214Y031861D01*
X035152Y031922D01*
X032494Y031812D02*
X032308Y031627D01*
X032308Y031874D01*
X032123Y031812D02*
X032494Y031812D01*
X032370Y031506D02*
X032494Y031382D01*
X032370Y031259D01*
X032123Y031259D01*
X032308Y031259D02*
X032308Y031506D01*
X032370Y031506D02*
X032123Y031506D01*
X032123Y032299D02*
X032370Y032299D01*
X032494Y032422D01*
X032370Y032546D01*
X032123Y032546D01*
X032185Y032667D02*
X032123Y032729D01*
X032123Y032852D01*
X032185Y032914D01*
X032308Y032914D01*
X032370Y032852D01*
X032370Y032791D01*
X032308Y032667D01*
X032494Y032667D01*
X032494Y032914D01*
X032308Y032546D02*
X032308Y032299D01*
X031613Y035436D02*
X031613Y035806D01*
X031428Y035806D01*
X031366Y035744D01*
X031366Y035621D01*
X031428Y035559D01*
X031613Y035559D01*
X031245Y035497D02*
X030998Y035744D01*
X030998Y035497D01*
X031060Y035436D01*
X031183Y035436D01*
X031245Y035497D01*
X031245Y035744D01*
X031183Y035806D01*
X031060Y035806D01*
X030998Y035744D01*
X030877Y035497D02*
X030815Y035497D01*
X030815Y035436D01*
X030877Y035436D01*
X030877Y035497D01*
X030693Y035436D02*
X030446Y035682D01*
X030446Y035744D01*
X030507Y035806D01*
X030631Y035806D01*
X030693Y035744D01*
X030693Y035436D02*
X030446Y035436D01*
X030324Y035436D02*
X030077Y035436D01*
X030201Y035436D02*
X030201Y035806D01*
X030324Y035682D01*
X030324Y036396D02*
X030077Y036642D01*
X030077Y036704D01*
X030139Y036766D01*
X030263Y036766D01*
X030324Y036704D01*
X030446Y036704D02*
X030507Y036766D01*
X030631Y036766D01*
X030693Y036704D01*
X030446Y036704D02*
X030446Y036642D01*
X030693Y036396D01*
X030446Y036396D01*
X030324Y036396D02*
X030077Y036396D01*
X030815Y036396D02*
X030877Y036396D01*
X030877Y036457D01*
X030815Y036457D01*
X030815Y036396D01*
X030998Y036457D02*
X031060Y036396D01*
X031183Y036396D01*
X031245Y036457D01*
X030998Y036704D01*
X030998Y036457D01*
X031245Y036457D02*
X031245Y036704D01*
X031183Y036766D01*
X031060Y036766D01*
X030998Y036704D01*
X031366Y036704D02*
X031366Y036581D01*
X031428Y036519D01*
X031613Y036519D01*
X031613Y036396D02*
X031613Y036766D01*
X031428Y036766D01*
X031366Y036704D01*
X031533Y037356D02*
X031533Y037726D01*
X031348Y037726D01*
X031286Y037664D01*
X031286Y037541D01*
X031348Y037479D01*
X031533Y037479D01*
X031165Y037417D02*
X030918Y037664D01*
X030918Y037417D01*
X030980Y037356D01*
X031103Y037356D01*
X031165Y037417D01*
X031165Y037664D01*
X031103Y037726D01*
X030980Y037726D01*
X030918Y037664D01*
X030797Y037417D02*
X030735Y037417D01*
X030735Y037356D01*
X030797Y037356D01*
X030797Y037417D01*
X030613Y037356D02*
X030366Y037602D01*
X030366Y037664D01*
X030427Y037726D01*
X030551Y037726D01*
X030613Y037664D01*
X030613Y037356D02*
X030366Y037356D01*
X030244Y037356D02*
X030244Y037417D01*
X029997Y037664D01*
X029997Y037726D01*
X030244Y037726D01*
X030183Y038396D02*
X030244Y038457D01*
X030244Y038519D01*
X030183Y038581D01*
X030059Y038581D01*
X029997Y038519D01*
X029997Y038457D01*
X030059Y038396D01*
X030183Y038396D01*
X030366Y038396D02*
X030613Y038396D01*
X030366Y038642D01*
X030366Y038704D01*
X030427Y038766D01*
X030551Y038766D01*
X030613Y038704D01*
X030735Y038457D02*
X030735Y038396D01*
X030797Y038396D01*
X030797Y038457D01*
X030735Y038457D01*
X030918Y038457D02*
X030980Y038396D01*
X031103Y038396D01*
X031165Y038457D01*
X030918Y038704D01*
X030918Y038457D01*
X031165Y038457D02*
X031165Y038704D01*
X031103Y038766D01*
X030980Y038766D01*
X030918Y038704D01*
X031286Y038704D02*
X031286Y038581D01*
X031348Y038519D01*
X031533Y038519D01*
X031533Y038396D02*
X031533Y038766D01*
X031348Y038766D01*
X031286Y038704D01*
X031165Y039356D02*
X030918Y039602D01*
X030918Y039664D01*
X030980Y039726D01*
X031103Y039726D01*
X031165Y039664D01*
X031286Y039664D02*
X031286Y039541D01*
X031348Y039479D01*
X031533Y039479D01*
X031533Y039356D02*
X031533Y039726D01*
X031348Y039726D01*
X031286Y039664D01*
X031165Y039356D02*
X030918Y039356D01*
X030797Y039356D02*
X030735Y039356D01*
X030735Y039417D01*
X030797Y039417D01*
X030797Y039356D01*
X030613Y039356D02*
X030366Y039356D01*
X030489Y039356D02*
X030489Y039726D01*
X030613Y039602D01*
X030244Y039664D02*
X030183Y039726D01*
X030059Y039726D01*
X029997Y039664D01*
X029997Y039602D01*
X030059Y039541D01*
X029997Y039479D01*
X029997Y039417D01*
X030059Y039356D01*
X030183Y039356D01*
X030244Y039417D01*
X030121Y039541D02*
X030059Y039541D01*
X030059Y038766D02*
X029997Y038704D01*
X029997Y038642D01*
X030059Y038581D01*
X030183Y038581D02*
X030244Y038642D01*
X030244Y038704D01*
X030183Y038766D01*
X030059Y038766D01*
X027694Y040316D02*
X027694Y040501D01*
X027632Y040562D01*
X027508Y040562D01*
X027447Y040501D01*
X027447Y040316D01*
X027323Y040316D02*
X027694Y040316D01*
X027508Y040684D02*
X027508Y040931D01*
X027385Y041052D02*
X027385Y041114D01*
X027323Y041114D01*
X027323Y041052D01*
X027385Y041052D01*
X027323Y040869D02*
X027694Y040869D01*
X027508Y040684D01*
X027632Y041236D02*
X027694Y041298D01*
X027694Y041421D01*
X027632Y041483D01*
X027570Y041483D01*
X027323Y041236D01*
X027323Y041483D01*
X027385Y041605D02*
X027323Y041666D01*
X027323Y041790D01*
X027385Y041852D01*
X027632Y041852D01*
X027694Y041790D01*
X027694Y041666D01*
X027632Y041605D01*
X027570Y041605D01*
X027508Y041666D01*
X027508Y041852D01*
X026654Y041852D02*
X026654Y041605D01*
X026468Y041605D01*
X026530Y041728D01*
X026530Y041790D01*
X026468Y041852D01*
X026345Y041852D01*
X026283Y041790D01*
X026283Y041666D01*
X026345Y041605D01*
X026283Y041483D02*
X026283Y041236D01*
X026530Y041483D01*
X026592Y041483D01*
X026654Y041421D01*
X026654Y041298D01*
X026592Y041236D01*
X026345Y041114D02*
X026283Y041114D01*
X026283Y041052D01*
X026345Y041052D01*
X026345Y041114D01*
X026345Y040931D02*
X026283Y040869D01*
X026283Y040746D01*
X026345Y040684D01*
X026468Y040562D02*
X026407Y040501D01*
X026407Y040316D01*
X026283Y040316D02*
X026654Y040316D01*
X026654Y040501D01*
X026592Y040562D01*
X026468Y040562D01*
X026592Y040684D02*
X026654Y040746D01*
X026654Y040869D01*
X026592Y040931D01*
X026530Y040931D01*
X026468Y040869D01*
X026407Y040931D01*
X026345Y040931D01*
X026468Y040869D02*
X026468Y040807D01*
X025694Y040807D02*
X025570Y040684D01*
X025508Y040562D02*
X025447Y040501D01*
X025447Y040316D01*
X025323Y040316D02*
X025694Y040316D01*
X025694Y040501D01*
X025632Y040562D01*
X025508Y040562D01*
X025323Y040684D02*
X025323Y040931D01*
X025323Y041052D02*
X025323Y041114D01*
X025385Y041114D01*
X025385Y041052D01*
X025323Y041052D01*
X025323Y041236D02*
X025570Y041483D01*
X025632Y041483D01*
X025694Y041421D01*
X025694Y041298D01*
X025632Y041236D01*
X025323Y041236D02*
X025323Y041483D01*
X025323Y041605D02*
X025385Y041605D01*
X025632Y041852D01*
X025694Y041852D01*
X025694Y041605D01*
X025694Y040807D02*
X025323Y040807D01*
X024734Y040807D02*
X024610Y040684D01*
X024548Y040562D02*
X024487Y040501D01*
X024487Y040316D01*
X024363Y040316D02*
X024734Y040316D01*
X024734Y040501D01*
X024672Y040562D01*
X024548Y040562D01*
X024363Y040684D02*
X024363Y040931D01*
X024363Y041052D02*
X024363Y041114D01*
X024425Y041114D01*
X024425Y041052D01*
X024363Y041052D01*
X024363Y041236D02*
X024610Y041483D01*
X024672Y041483D01*
X024734Y041421D01*
X024734Y041298D01*
X024672Y041236D01*
X024363Y041236D02*
X024363Y041483D01*
X024548Y041605D02*
X024548Y041852D01*
X024363Y041790D02*
X024734Y041790D01*
X024548Y041605D01*
X024734Y040807D02*
X024363Y040807D01*
X023694Y040807D02*
X023570Y040684D01*
X023508Y040562D02*
X023447Y040501D01*
X023447Y040316D01*
X023323Y040316D02*
X023694Y040316D01*
X023694Y040501D01*
X023632Y040562D01*
X023508Y040562D01*
X023323Y040684D02*
X023323Y040931D01*
X023323Y041052D02*
X023323Y041114D01*
X023385Y041114D01*
X023385Y041052D01*
X023323Y041052D01*
X023323Y041236D02*
X023570Y041483D01*
X023632Y041483D01*
X023694Y041421D01*
X023694Y041298D01*
X023632Y041236D01*
X023323Y041236D02*
X023323Y041483D01*
X023323Y041605D02*
X023323Y041852D01*
X023323Y041728D02*
X023694Y041728D01*
X023570Y041605D01*
X023694Y040807D02*
X023323Y040807D01*
X022734Y040807D02*
X022363Y040807D01*
X022363Y040684D02*
X022363Y040931D01*
X022363Y041052D02*
X022363Y041114D01*
X022425Y041114D01*
X022425Y041052D01*
X022363Y041052D01*
X022363Y041236D02*
X022363Y041483D01*
X022363Y041360D02*
X022734Y041360D01*
X022610Y041236D01*
X022610Y041605D02*
X022672Y041605D01*
X022734Y041666D01*
X022734Y041790D01*
X022672Y041852D01*
X022610Y041852D01*
X022548Y041790D01*
X022548Y041666D01*
X022610Y041605D01*
X022548Y041666D02*
X022487Y041605D01*
X022425Y041605D01*
X022363Y041666D01*
X022363Y041790D01*
X022425Y041852D01*
X022487Y041852D01*
X022548Y041790D01*
X022734Y040807D02*
X022610Y040684D01*
X022548Y040562D02*
X022487Y040501D01*
X022487Y040316D01*
X022363Y040316D02*
X022734Y040316D01*
X022734Y040501D01*
X022672Y040562D01*
X022548Y040562D01*
X022592Y036834D02*
X022345Y036587D01*
X022283Y036649D01*
X022283Y036772D01*
X022345Y036834D01*
X022592Y036834D01*
X022654Y036772D01*
X022654Y036649D01*
X022592Y036587D01*
X022345Y036587D01*
X022283Y036466D02*
X022283Y036219D01*
X022530Y036466D01*
X022592Y036466D01*
X022654Y036404D01*
X022654Y036281D01*
X022592Y036219D01*
X022843Y036219D02*
X023090Y036466D01*
X023152Y036466D01*
X023214Y036404D01*
X023214Y036281D01*
X023152Y036219D01*
X022905Y036096D02*
X022843Y036096D01*
X022843Y036035D01*
X022905Y036035D01*
X022905Y036096D01*
X022843Y036219D02*
X022843Y036466D01*
X022905Y036587D02*
X022843Y036649D01*
X022843Y036772D01*
X022905Y036834D01*
X022967Y036834D01*
X023028Y036772D01*
X023028Y036711D01*
X023028Y036772D02*
X023090Y036834D01*
X023152Y036834D01*
X023214Y036772D01*
X023214Y036649D01*
X023152Y036587D01*
X022843Y035913D02*
X022843Y035666D01*
X022843Y035790D02*
X023214Y035790D01*
X023090Y035666D01*
X023028Y035545D02*
X022967Y035483D01*
X022967Y035298D01*
X022843Y035298D02*
X023214Y035298D01*
X023214Y035483D01*
X023152Y035545D01*
X023028Y035545D01*
X022654Y035483D02*
X022592Y035545D01*
X022468Y035545D01*
X022407Y035483D01*
X022407Y035298D01*
X022283Y035298D02*
X022654Y035298D01*
X022654Y035483D01*
X022530Y035666D02*
X022654Y035790D01*
X022283Y035790D01*
X022283Y035913D02*
X022283Y035666D01*
X022182Y035646D02*
X021997Y035646D01*
X021936Y035584D01*
X021936Y035461D01*
X021997Y035399D01*
X022182Y035399D01*
X022182Y035276D02*
X022182Y035646D01*
X021814Y035584D02*
X021752Y035646D01*
X021629Y035646D01*
X021567Y035584D01*
X021567Y035522D01*
X021814Y035276D01*
X021567Y035276D01*
X021446Y035276D02*
X021384Y035276D01*
X021384Y035337D01*
X021446Y035337D01*
X021446Y035276D01*
X021262Y035337D02*
X021262Y035399D01*
X021200Y035461D01*
X021076Y035461D01*
X021015Y035399D01*
X021015Y035337D01*
X021076Y035276D01*
X021200Y035276D01*
X021262Y035337D01*
X021200Y035461D02*
X021262Y035522D01*
X021262Y035584D01*
X021200Y035646D01*
X021076Y035646D01*
X021015Y035584D01*
X021015Y035522D01*
X021076Y035461D01*
X021015Y034686D02*
X021015Y034624D01*
X021262Y034377D01*
X021262Y034316D01*
X021384Y034316D02*
X021446Y034316D01*
X021446Y034377D01*
X021384Y034377D01*
X021384Y034316D01*
X021567Y034316D02*
X021814Y034316D01*
X021567Y034562D01*
X021567Y034624D01*
X021629Y034686D01*
X021752Y034686D01*
X021814Y034624D01*
X021936Y034624D02*
X021936Y034501D01*
X021997Y034439D01*
X022182Y034439D01*
X022182Y034316D02*
X022182Y034686D01*
X021997Y034686D01*
X021936Y034624D01*
X021262Y034686D02*
X021015Y034686D01*
X021015Y033726D02*
X021138Y033664D01*
X021262Y033541D01*
X021076Y033541D01*
X021015Y033479D01*
X021015Y033417D01*
X021076Y033356D01*
X021200Y033356D01*
X021262Y033417D01*
X021262Y033541D01*
X021384Y033417D02*
X021384Y033356D01*
X021446Y033356D01*
X021446Y033417D01*
X021384Y033417D01*
X021567Y033356D02*
X021814Y033356D01*
X021567Y033602D01*
X021567Y033664D01*
X021629Y033726D01*
X021752Y033726D01*
X021814Y033664D01*
X021936Y033664D02*
X021936Y033541D01*
X021997Y033479D01*
X022182Y033479D01*
X022182Y033356D02*
X022182Y033726D01*
X021997Y033726D01*
X021936Y033664D01*
X021997Y032686D02*
X021936Y032624D01*
X021936Y032501D01*
X021997Y032439D01*
X022182Y032439D01*
X022182Y032316D02*
X022182Y032686D01*
X021997Y032686D01*
X021814Y032624D02*
X021752Y032686D01*
X021629Y032686D01*
X021567Y032624D01*
X021567Y032562D01*
X021814Y032316D01*
X021567Y032316D01*
X021446Y032316D02*
X021384Y032316D01*
X021384Y032377D01*
X021446Y032377D01*
X021446Y032316D01*
X021262Y032377D02*
X021200Y032316D01*
X021076Y032316D01*
X021015Y032377D01*
X021015Y032501D01*
X021076Y032562D01*
X021138Y032562D01*
X021262Y032501D01*
X021262Y032686D01*
X021015Y032686D01*
X021076Y031646D02*
X021262Y031461D01*
X021015Y031461D01*
X021076Y031276D02*
X021076Y031646D01*
X021384Y031337D02*
X021384Y031276D01*
X021446Y031276D01*
X021446Y031337D01*
X021384Y031337D01*
X021567Y031276D02*
X021814Y031276D01*
X021567Y031522D01*
X021567Y031584D01*
X021629Y031646D01*
X021752Y031646D01*
X021814Y031584D01*
X021936Y031584D02*
X021936Y031461D01*
X021997Y031399D01*
X022182Y031399D01*
X022182Y031276D02*
X022182Y031646D01*
X021997Y031646D01*
X021936Y031584D01*
X021997Y030686D02*
X021936Y030624D01*
X021936Y030501D01*
X021997Y030439D01*
X022182Y030439D01*
X022182Y030316D02*
X022182Y030686D01*
X021997Y030686D01*
X021814Y030624D02*
X021752Y030686D01*
X021629Y030686D01*
X021567Y030624D01*
X021567Y030562D01*
X021814Y030316D01*
X021567Y030316D01*
X021446Y030316D02*
X021384Y030316D01*
X021384Y030377D01*
X021446Y030377D01*
X021446Y030316D01*
X021262Y030377D02*
X021200Y030316D01*
X021076Y030316D01*
X021015Y030377D01*
X021015Y030439D01*
X021076Y030501D01*
X021138Y030501D01*
X021076Y030501D02*
X021015Y030562D01*
X021015Y030624D01*
X021076Y030686D01*
X021200Y030686D01*
X021262Y030624D01*
X021200Y029726D02*
X021262Y029664D01*
X021200Y029726D02*
X021076Y029726D01*
X021015Y029664D01*
X021015Y029602D01*
X021262Y029356D01*
X021015Y029356D01*
X021384Y029356D02*
X021446Y029356D01*
X021446Y029417D01*
X021384Y029417D01*
X021384Y029356D01*
X021567Y029356D02*
X021814Y029356D01*
X021567Y029602D01*
X021567Y029664D01*
X021629Y029726D01*
X021752Y029726D01*
X021814Y029664D01*
X021936Y029664D02*
X021936Y029541D01*
X021997Y029479D01*
X022182Y029479D01*
X022182Y029356D02*
X022182Y029726D01*
X021997Y029726D01*
X021936Y029664D01*
X021997Y028686D02*
X021936Y028624D01*
X021936Y028501D01*
X021997Y028439D01*
X022182Y028439D01*
X022182Y028316D02*
X022182Y028686D01*
X021997Y028686D01*
X021814Y028624D02*
X021752Y028686D01*
X021629Y028686D01*
X021567Y028624D01*
X021567Y028562D01*
X021814Y028316D01*
X021567Y028316D01*
X021446Y028316D02*
X021384Y028316D01*
X021384Y028377D01*
X021446Y028377D01*
X021446Y028316D01*
X021262Y028316D02*
X021015Y028316D01*
X021138Y028316D02*
X021138Y028686D01*
X021262Y028562D01*
X021200Y027726D02*
X021076Y027726D01*
X021015Y027664D01*
X021262Y027417D01*
X021200Y027356D01*
X021076Y027356D01*
X021015Y027417D01*
X021015Y027664D01*
X021200Y027726D02*
X021262Y027664D01*
X021262Y027417D01*
X021384Y027417D02*
X021384Y027356D01*
X021446Y027356D01*
X021446Y027417D01*
X021384Y027417D01*
X021567Y027356D02*
X021814Y027356D01*
X021567Y027602D01*
X021567Y027664D01*
X021629Y027726D01*
X021752Y027726D01*
X021814Y027664D01*
X021936Y027664D02*
X021936Y027541D01*
X021997Y027479D01*
X022182Y027479D01*
X022182Y027356D02*
X022182Y027726D01*
X021997Y027726D01*
X021936Y027664D01*
X021997Y026686D02*
X021936Y026624D01*
X022182Y026377D01*
X022121Y026316D01*
X021997Y026316D01*
X021936Y026377D01*
X021936Y026624D01*
X021997Y026686D02*
X022121Y026686D01*
X022182Y026624D01*
X022182Y026377D01*
X022304Y026501D02*
X022366Y026439D01*
X022551Y026439D01*
X022551Y026316D02*
X022551Y026686D01*
X022366Y026686D01*
X022304Y026624D01*
X022304Y026501D01*
X021814Y026377D02*
X021752Y026377D01*
X021752Y026316D01*
X021814Y026316D01*
X021814Y026377D01*
X021630Y026316D02*
X021383Y026316D01*
X021262Y026316D02*
X021015Y026316D01*
X021138Y026316D02*
X021138Y026686D01*
X021262Y026562D01*
X021507Y026686D02*
X021507Y026316D01*
X021630Y026562D02*
X021507Y026686D01*
X021507Y025726D02*
X021507Y025356D01*
X021630Y025356D02*
X021383Y025356D01*
X021262Y025417D02*
X021015Y025664D01*
X021015Y025417D01*
X021076Y025356D01*
X021200Y025356D01*
X021262Y025417D01*
X021262Y025664D01*
X021200Y025726D01*
X021076Y025726D01*
X021015Y025664D01*
X021507Y025726D02*
X021630Y025602D01*
X021752Y025417D02*
X021752Y025356D01*
X021814Y025356D01*
X021814Y025417D01*
X021752Y025417D01*
X021936Y025417D02*
X021997Y025356D01*
X022121Y025356D01*
X022182Y025417D01*
X021936Y025664D01*
X021936Y025417D01*
X022182Y025417D02*
X022182Y025664D01*
X022121Y025726D01*
X021997Y025726D01*
X021936Y025664D01*
X022304Y025664D02*
X022304Y025541D01*
X022366Y025479D01*
X022551Y025479D01*
X022551Y025356D02*
X022551Y025726D01*
X022366Y025726D01*
X022304Y025664D01*
X022182Y024686D02*
X021997Y024686D01*
X021936Y024624D01*
X021936Y024501D01*
X021997Y024439D01*
X022182Y024439D01*
X022182Y024316D02*
X022182Y024686D01*
X021814Y024624D02*
X021814Y024377D01*
X021567Y024624D01*
X021567Y024377D01*
X021629Y024316D01*
X021752Y024316D01*
X021814Y024377D01*
X021814Y024624D02*
X021752Y024686D01*
X021629Y024686D01*
X021567Y024624D01*
X021446Y024377D02*
X021384Y024377D01*
X021384Y024316D01*
X021446Y024316D01*
X021446Y024377D01*
X021262Y024377D02*
X021200Y024316D01*
X021076Y024316D01*
X021015Y024377D01*
X021015Y024501D01*
X021076Y024562D01*
X021138Y024562D01*
X021262Y024501D01*
X021262Y024686D01*
X021015Y024686D01*
X021076Y023726D02*
X021262Y023541D01*
X021015Y023541D01*
X021076Y023356D02*
X021076Y023726D01*
X021384Y023417D02*
X021384Y023356D01*
X021446Y023356D01*
X021446Y023417D01*
X021384Y023417D01*
X021567Y023417D02*
X021629Y023356D01*
X021752Y023356D01*
X021814Y023417D01*
X021567Y023664D01*
X021567Y023417D01*
X021814Y023417D02*
X021814Y023664D01*
X021752Y023726D01*
X021629Y023726D01*
X021567Y023664D01*
X021936Y023664D02*
X021936Y023541D01*
X021997Y023479D01*
X022182Y023479D01*
X022182Y023356D02*
X022182Y023726D01*
X021997Y023726D01*
X021936Y023664D01*
X021630Y022766D02*
X021445Y022766D01*
X021383Y022704D01*
X021383Y022457D01*
X021445Y022396D01*
X021630Y022396D01*
X021630Y022766D01*
X021262Y022581D02*
X021015Y022581D01*
X021138Y022704D02*
X021138Y022457D01*
X021445Y021726D02*
X021630Y021726D01*
X021630Y021356D01*
X021445Y021356D01*
X021383Y021417D01*
X021383Y021664D01*
X021445Y021726D01*
X021262Y021541D02*
X021015Y021541D01*
X021138Y020624D02*
X021138Y020377D01*
X021015Y020501D02*
X021262Y020501D01*
X021383Y020624D02*
X021445Y020686D01*
X021630Y020686D01*
X021630Y020316D01*
X021445Y020316D01*
X021383Y020377D01*
X021383Y020624D01*
X021751Y020686D02*
X021998Y020686D01*
X021875Y020686D02*
X021875Y020316D01*
X021875Y019726D02*
X021875Y019356D01*
X021630Y019356D02*
X021445Y019356D01*
X021383Y019417D01*
X021383Y019664D01*
X021445Y019726D01*
X021630Y019726D01*
X021630Y019356D01*
X021751Y019726D02*
X021998Y019726D01*
X021262Y019541D02*
X021015Y019541D01*
X021138Y018704D02*
X021138Y018457D01*
X021015Y018581D02*
X021262Y018581D01*
X021383Y018704D02*
X021383Y018457D01*
X021445Y018396D01*
X021630Y018396D01*
X021630Y018766D01*
X021445Y018766D01*
X021383Y018704D01*
X021751Y018704D02*
X021751Y018581D01*
X021813Y018519D01*
X021998Y018519D01*
X021875Y018519D02*
X021751Y018396D01*
X021998Y018396D02*
X021998Y018766D01*
X021813Y018766D01*
X021751Y018704D01*
X021813Y017726D02*
X021751Y017664D01*
X021751Y017541D01*
X021813Y017479D01*
X021998Y017479D01*
X021875Y017479D02*
X021751Y017356D01*
X021630Y017356D02*
X021445Y017356D01*
X021383Y017417D01*
X021383Y017664D01*
X021445Y017726D01*
X021630Y017726D01*
X021630Y017356D01*
X021998Y017356D02*
X021998Y017726D01*
X021813Y017726D01*
X021262Y017541D02*
X021015Y017541D01*
X021076Y016766D02*
X021015Y016704D01*
X021076Y016766D02*
X021200Y016766D01*
X021262Y016704D01*
X021262Y016457D01*
X021200Y016396D01*
X021076Y016396D01*
X021015Y016457D01*
X021383Y016396D02*
X021383Y016766D01*
X021630Y016766D02*
X021383Y016396D01*
X021630Y016396D02*
X021630Y016766D01*
X021630Y015726D02*
X021383Y015356D01*
X021383Y015726D01*
X021262Y015664D02*
X021200Y015726D01*
X021076Y015726D01*
X021015Y015664D01*
X021262Y015664D02*
X021262Y015417D01*
X021200Y015356D01*
X021076Y015356D01*
X021015Y015417D01*
X021076Y014766D02*
X021015Y014704D01*
X021076Y014766D02*
X021200Y014766D01*
X021262Y014704D01*
X021262Y014457D01*
X021200Y014396D01*
X021076Y014396D01*
X021015Y014457D01*
X021383Y014396D02*
X021383Y014766D01*
X021630Y014766D02*
X021383Y014396D01*
X021630Y014396D02*
X021630Y014766D01*
X021630Y015356D02*
X021630Y015726D01*
X021630Y013726D02*
X021630Y013479D01*
X021507Y013356D01*
X021383Y013479D01*
X021383Y013726D01*
X021262Y013664D02*
X021200Y013726D01*
X021076Y013726D01*
X021015Y013664D01*
X021015Y013602D01*
X021076Y013541D01*
X021015Y013479D01*
X021015Y013417D01*
X021076Y013356D01*
X021200Y013356D01*
X021262Y013417D01*
X021138Y013541D02*
X021076Y013541D01*
X021751Y013602D02*
X021813Y013541D01*
X021751Y013479D01*
X021751Y013417D01*
X021813Y013356D01*
X021937Y013356D01*
X021998Y013417D01*
X021875Y013541D02*
X021813Y013541D01*
X021751Y013602D02*
X021751Y013664D01*
X021813Y013726D01*
X021937Y013726D01*
X021998Y013664D01*
X025828Y014316D02*
X026075Y014686D01*
X026197Y014686D02*
X026197Y014316D01*
X026320Y014439D01*
X026443Y014316D01*
X026443Y014686D01*
X026565Y014624D02*
X026565Y014377D01*
X026627Y014316D01*
X026750Y014316D01*
X026812Y014377D01*
X026812Y014624D01*
X026750Y014686D01*
X026627Y014686D01*
X026565Y014624D01*
X026933Y014624D02*
X026933Y014501D01*
X026995Y014439D01*
X027180Y014439D01*
X027180Y014316D02*
X027180Y014686D01*
X026995Y014686D01*
X026933Y014624D01*
X027302Y014254D02*
X027548Y014254D01*
X027793Y014316D02*
X027793Y014686D01*
X027670Y014686D02*
X027917Y014686D01*
X028038Y014686D02*
X028285Y014316D01*
X028406Y014316D02*
X028653Y014316D01*
X028653Y014686D01*
X028406Y014686D01*
X028285Y014686D02*
X028038Y014316D01*
X028530Y014501D02*
X028653Y014501D01*
X028530Y015276D02*
X028406Y015399D01*
X028406Y015646D01*
X028285Y015646D02*
X028100Y015646D01*
X028038Y015584D01*
X028038Y015522D01*
X028100Y015461D01*
X028285Y015461D01*
X028285Y015276D02*
X028285Y015646D01*
X028100Y015461D02*
X028038Y015399D01*
X028038Y015337D01*
X028100Y015276D01*
X028285Y015276D01*
X028530Y015276D02*
X028653Y015399D01*
X028653Y015646D01*
X028653Y016316D02*
X028653Y016686D01*
X028468Y016686D01*
X028406Y016624D01*
X028406Y016501D01*
X028468Y016439D01*
X028653Y016439D01*
X028530Y016439D02*
X028406Y016316D01*
X028285Y016316D02*
X028038Y016316D01*
X027917Y016377D02*
X027855Y016316D01*
X027732Y016316D01*
X027670Y016377D01*
X027670Y016439D01*
X027732Y016501D01*
X027855Y016501D01*
X027917Y016562D01*
X027917Y016624D01*
X027855Y016686D01*
X027732Y016686D01*
X027670Y016624D01*
X027548Y016686D02*
X027548Y016316D01*
X027302Y016316D01*
X027425Y016501D02*
X027548Y016501D01*
X027548Y016686D02*
X027302Y016686D01*
X027180Y016686D02*
X026933Y016686D01*
X027057Y016686D02*
X027057Y016316D01*
X026812Y016254D02*
X026565Y016254D01*
X026443Y016316D02*
X026443Y016686D01*
X026197Y016316D01*
X026197Y016686D01*
X027486Y017497D02*
X027486Y017744D01*
X027547Y017806D01*
X027671Y017806D01*
X027733Y017744D01*
X027733Y017682D01*
X027671Y017621D01*
X027486Y017621D01*
X027486Y017497D02*
X027547Y017436D01*
X027671Y017436D01*
X027733Y017497D01*
X027855Y017497D02*
X027855Y017436D01*
X027917Y017436D01*
X027917Y017497D01*
X027855Y017497D01*
X028038Y017497D02*
X028100Y017436D01*
X028223Y017436D01*
X028285Y017497D01*
X028038Y017744D01*
X028038Y017497D01*
X028285Y017497D02*
X028285Y017744D01*
X028223Y017806D01*
X028100Y017806D01*
X028038Y017744D01*
X028406Y017744D02*
X028406Y017621D01*
X028468Y017559D01*
X028653Y017559D01*
X028653Y017436D02*
X028653Y017806D01*
X028468Y017806D01*
X028406Y017744D01*
X028223Y018396D02*
X028285Y018457D01*
X028038Y018704D01*
X028038Y018457D01*
X028100Y018396D01*
X028223Y018396D01*
X028285Y018457D02*
X028285Y018704D01*
X028223Y018766D01*
X028100Y018766D01*
X028038Y018704D01*
X027917Y018457D02*
X027855Y018457D01*
X027855Y018396D01*
X027917Y018396D01*
X027917Y018457D01*
X027733Y018457D02*
X027733Y018519D01*
X027671Y018581D01*
X027547Y018581D01*
X027486Y018519D01*
X027486Y018457D01*
X027547Y018396D01*
X027671Y018396D01*
X027733Y018457D01*
X027671Y018581D02*
X027733Y018642D01*
X027733Y018704D01*
X027671Y018766D01*
X027547Y018766D01*
X027486Y018704D01*
X027486Y018642D01*
X027547Y018581D01*
X028406Y018581D02*
X028406Y018704D01*
X028468Y018766D01*
X028653Y018766D01*
X028653Y018396D01*
X028653Y018519D02*
X028468Y018519D01*
X028406Y018581D01*
X028223Y019356D02*
X028285Y019417D01*
X028038Y019664D01*
X028038Y019417D01*
X028100Y019356D01*
X028223Y019356D01*
X028285Y019417D02*
X028285Y019664D01*
X028223Y019726D01*
X028100Y019726D01*
X028038Y019664D01*
X027917Y019417D02*
X027855Y019417D01*
X027855Y019356D01*
X027917Y019356D01*
X027917Y019417D01*
X027733Y019417D02*
X027733Y019356D01*
X027733Y019417D02*
X027486Y019664D01*
X027486Y019726D01*
X027733Y019726D01*
X028406Y019664D02*
X028406Y019541D01*
X028468Y019479D01*
X028653Y019479D01*
X028653Y019356D02*
X028653Y019726D01*
X028468Y019726D01*
X028406Y019664D01*
X028223Y020396D02*
X028285Y020457D01*
X028038Y020704D01*
X028038Y020457D01*
X028100Y020396D01*
X028223Y020396D01*
X028285Y020457D02*
X028285Y020704D01*
X028223Y020766D01*
X028100Y020766D01*
X028038Y020704D01*
X027917Y020457D02*
X027855Y020457D01*
X027855Y020396D01*
X027917Y020396D01*
X027917Y020457D01*
X027733Y020457D02*
X027671Y020396D01*
X027547Y020396D01*
X027486Y020457D01*
X027486Y020519D01*
X027547Y020581D01*
X027733Y020581D01*
X027733Y020457D01*
X027733Y020581D02*
X027609Y020704D01*
X027486Y020766D01*
X027547Y021436D02*
X027486Y021497D01*
X027486Y021744D01*
X027733Y021497D01*
X027671Y021436D01*
X027547Y021436D01*
X027733Y021497D02*
X027733Y021744D01*
X027671Y021806D01*
X027547Y021806D01*
X027486Y021744D01*
X027855Y021497D02*
X027855Y021436D01*
X027917Y021436D01*
X027917Y021497D01*
X027855Y021497D01*
X028038Y021497D02*
X028100Y021436D01*
X028223Y021436D01*
X028285Y021497D01*
X028038Y021744D01*
X028038Y021497D01*
X028285Y021497D02*
X028285Y021744D01*
X028223Y021806D01*
X028100Y021806D01*
X028038Y021744D01*
X028406Y021744D02*
X028406Y021621D01*
X028468Y021559D01*
X028653Y021559D01*
X028653Y021436D02*
X028653Y021806D01*
X028468Y021806D01*
X028406Y021744D01*
X028223Y022396D02*
X028285Y022457D01*
X028038Y022704D01*
X028038Y022457D01*
X028100Y022396D01*
X028223Y022396D01*
X028285Y022457D02*
X028285Y022704D01*
X028223Y022766D01*
X028100Y022766D01*
X028038Y022704D01*
X027917Y022457D02*
X027855Y022457D01*
X027855Y022396D01*
X027917Y022396D01*
X027917Y022457D01*
X027733Y022396D02*
X027486Y022396D01*
X027609Y022396D02*
X027609Y022766D01*
X027733Y022642D01*
X028406Y022581D02*
X028468Y022519D01*
X028653Y022519D01*
X028653Y022396D02*
X028653Y022766D01*
X028468Y022766D01*
X028406Y022704D01*
X028406Y022581D01*
X028223Y023356D02*
X028285Y023417D01*
X028038Y023664D01*
X028038Y023417D01*
X028100Y023356D01*
X028223Y023356D01*
X028285Y023417D02*
X028285Y023664D01*
X028223Y023726D01*
X028100Y023726D01*
X028038Y023664D01*
X027917Y023417D02*
X027855Y023417D01*
X027855Y023356D01*
X027917Y023356D01*
X027917Y023417D01*
X027733Y023356D02*
X027486Y023356D01*
X027609Y023356D02*
X027609Y023726D01*
X027733Y023602D01*
X027364Y023602D02*
X027364Y023664D01*
X027303Y023726D01*
X027179Y023726D01*
X027117Y023664D01*
X027117Y023602D01*
X027179Y023541D01*
X027303Y023541D01*
X027364Y023602D01*
X027303Y023541D02*
X027364Y023479D01*
X027364Y023417D01*
X027303Y023356D01*
X027179Y023356D01*
X027117Y023417D01*
X027117Y023479D01*
X027179Y023541D01*
X027364Y024396D02*
X027364Y024457D01*
X027117Y024704D01*
X027117Y024766D01*
X027364Y024766D01*
X027609Y024766D02*
X027609Y024396D01*
X027486Y024396D02*
X027733Y024396D01*
X027855Y024396D02*
X027917Y024396D01*
X027917Y024457D01*
X027855Y024457D01*
X027855Y024396D01*
X028038Y024457D02*
X028100Y024396D01*
X028223Y024396D01*
X028285Y024457D01*
X028038Y024704D01*
X028038Y024457D01*
X028285Y024457D02*
X028285Y024704D01*
X028223Y024766D01*
X028100Y024766D01*
X028038Y024704D01*
X027733Y024642D02*
X027609Y024766D01*
X027609Y025356D02*
X027609Y025726D01*
X027733Y025602D01*
X027855Y025417D02*
X027855Y025356D01*
X027917Y025356D01*
X027917Y025417D01*
X027855Y025417D01*
X027733Y025356D02*
X027486Y025356D01*
X027364Y025417D02*
X027303Y025356D01*
X027179Y025356D01*
X027117Y025417D01*
X027117Y025541D01*
X027179Y025602D01*
X027241Y025602D01*
X027364Y025541D01*
X027364Y025726D01*
X027117Y025726D01*
X027179Y026396D02*
X027117Y026457D01*
X027117Y026519D01*
X027179Y026581D01*
X027364Y026581D01*
X027364Y026457D01*
X027303Y026396D01*
X027179Y026396D01*
X027364Y026581D02*
X027241Y026704D01*
X027117Y026766D01*
X027609Y026766D02*
X027609Y026396D01*
X027486Y026396D02*
X027733Y026396D01*
X027855Y026396D02*
X027917Y026396D01*
X027917Y026457D01*
X027855Y026457D01*
X027855Y026396D01*
X028038Y026457D02*
X028100Y026396D01*
X028223Y026396D01*
X028285Y026457D01*
X028038Y026704D01*
X028038Y026457D01*
X028285Y026457D02*
X028285Y026704D01*
X028223Y026766D01*
X028100Y026766D01*
X028038Y026704D01*
X027733Y026642D02*
X027609Y026766D01*
X027486Y027356D02*
X027733Y027356D01*
X027486Y027602D01*
X027486Y027664D01*
X027547Y027726D01*
X027671Y027726D01*
X027733Y027664D01*
X027855Y027417D02*
X027855Y027356D01*
X027917Y027356D01*
X027917Y027417D01*
X027855Y027417D01*
X028038Y027417D02*
X028100Y027356D01*
X028223Y027356D01*
X028285Y027417D01*
X028038Y027664D01*
X028038Y027417D01*
X028285Y027417D02*
X028285Y027664D01*
X028223Y027726D01*
X028100Y027726D01*
X028038Y027664D01*
X028406Y027664D02*
X028406Y027541D01*
X028468Y027479D01*
X028653Y027479D01*
X028653Y027356D02*
X028653Y027726D01*
X028468Y027726D01*
X028406Y027664D01*
X028223Y028396D02*
X028285Y028457D01*
X028038Y028704D01*
X028038Y028457D01*
X028100Y028396D01*
X028223Y028396D01*
X028285Y028457D02*
X028285Y028704D01*
X028223Y028766D01*
X028100Y028766D01*
X028038Y028704D01*
X027917Y028457D02*
X027855Y028457D01*
X027855Y028396D01*
X027917Y028396D01*
X027917Y028457D01*
X027733Y028396D02*
X027486Y028642D01*
X027486Y028704D01*
X027547Y028766D01*
X027671Y028766D01*
X027733Y028704D01*
X027733Y028396D02*
X027486Y028396D01*
X027364Y028581D02*
X027117Y028581D01*
X027179Y028766D02*
X027364Y028581D01*
X027179Y028396D02*
X027179Y028766D01*
X027179Y029356D02*
X027303Y029356D01*
X027364Y029417D01*
X027364Y029541D02*
X027241Y029602D01*
X027179Y029602D01*
X027117Y029541D01*
X027117Y029417D01*
X027179Y029356D01*
X027364Y029541D02*
X027364Y029726D01*
X027117Y029726D01*
X027486Y029664D02*
X027547Y029726D01*
X027671Y029726D01*
X027733Y029664D01*
X027486Y029664D02*
X027486Y029602D01*
X027733Y029356D01*
X027486Y029356D01*
X027855Y029356D02*
X027917Y029356D01*
X027917Y029417D01*
X027855Y029417D01*
X027855Y029356D01*
X028038Y029417D02*
X028100Y029356D01*
X028223Y029356D01*
X028285Y029417D01*
X028038Y029664D01*
X028038Y029417D01*
X028285Y029417D02*
X028285Y029664D01*
X028223Y029726D01*
X028100Y029726D01*
X028038Y029664D01*
X028406Y029664D02*
X028468Y029726D01*
X028653Y029726D01*
X028653Y029356D01*
X028653Y029479D02*
X028468Y029479D01*
X028406Y029541D01*
X028406Y029664D01*
X028468Y028766D02*
X028406Y028704D01*
X028406Y028581D01*
X028468Y028519D01*
X028653Y028519D01*
X028653Y028396D02*
X028653Y028766D01*
X028468Y028766D01*
X027364Y027664D02*
X027303Y027726D01*
X027179Y027726D01*
X027117Y027664D01*
X027117Y027602D01*
X027179Y027541D01*
X027117Y027479D01*
X027117Y027417D01*
X027179Y027356D01*
X027303Y027356D01*
X027364Y027417D01*
X027241Y027541D02*
X027179Y027541D01*
X028406Y026704D02*
X028406Y026581D01*
X028468Y026519D01*
X028653Y026519D01*
X028653Y026396D02*
X028653Y026766D01*
X028468Y026766D01*
X028406Y026704D01*
X028468Y025726D02*
X028406Y025664D01*
X028406Y025541D01*
X028468Y025479D01*
X028653Y025479D01*
X028653Y025356D02*
X028653Y025726D01*
X028468Y025726D01*
X028285Y025664D02*
X028223Y025726D01*
X028100Y025726D01*
X028038Y025664D01*
X028285Y025417D01*
X028223Y025356D01*
X028100Y025356D01*
X028038Y025417D01*
X028038Y025664D01*
X028285Y025664D02*
X028285Y025417D01*
X028468Y024766D02*
X028406Y024704D01*
X028406Y024581D01*
X028468Y024519D01*
X028653Y024519D01*
X028653Y024396D02*
X028653Y024766D01*
X028468Y024766D01*
X028468Y023726D02*
X028406Y023664D01*
X028406Y023541D01*
X028468Y023479D01*
X028653Y023479D01*
X028653Y023356D02*
X028653Y023726D01*
X028468Y023726D01*
X028468Y020766D02*
X028406Y020704D01*
X028406Y020581D01*
X028468Y020519D01*
X028653Y020519D01*
X028653Y020396D02*
X028653Y020766D01*
X028468Y020766D01*
X028285Y016686D02*
X028038Y016686D01*
X028162Y016501D02*
X028285Y016501D01*
X028285Y016686D02*
X028285Y016316D01*
X025828Y014686D02*
X026075Y014316D01*
X029862Y013726D02*
X030108Y013356D01*
X030230Y013417D02*
X030230Y013664D01*
X030292Y013726D01*
X030477Y013726D01*
X030477Y013356D01*
X030292Y013356D01*
X030230Y013417D01*
X030108Y013726D02*
X029862Y013356D01*
X030598Y013356D02*
X030598Y013726D01*
X030845Y013726D02*
X030598Y013356D01*
X030845Y013356D02*
X030845Y013726D01*
X030966Y013664D02*
X031028Y013726D01*
X031152Y013726D01*
X031213Y013664D01*
X031213Y013417D01*
X031152Y013356D01*
X031028Y013356D01*
X030966Y013417D01*
X030966Y013541D01*
X031090Y013541D01*
X031332Y010562D02*
X031270Y010501D01*
X031270Y010316D01*
X031393Y010316D02*
X031393Y010501D01*
X031332Y010562D01*
X031393Y010501D02*
X031455Y010562D01*
X031517Y010562D01*
X031517Y010316D01*
X031638Y010316D02*
X031638Y010562D01*
X031638Y010316D02*
X031823Y010316D01*
X031885Y010377D01*
X031885Y010562D01*
X032006Y010316D02*
X032253Y010316D01*
X032253Y010686D01*
X032695Y010686D02*
X032695Y010624D01*
X032942Y010377D01*
X032942Y010316D01*
X033063Y010377D02*
X033063Y010624D01*
X033125Y010686D01*
X033310Y010686D01*
X033310Y010316D01*
X033125Y010316D01*
X033063Y010377D01*
X032942Y010686D02*
X032695Y010686D01*
X033655Y010686D02*
X033902Y010686D01*
X033902Y010501D01*
X033778Y010562D01*
X033716Y010562D01*
X033655Y010501D01*
X033655Y010377D01*
X033716Y010316D01*
X033840Y010316D01*
X033902Y010377D01*
X034023Y010377D02*
X034023Y010624D01*
X034085Y010686D01*
X034270Y010686D01*
X034270Y010316D01*
X034085Y010316D01*
X034023Y010377D01*
X034695Y010377D02*
X034756Y010316D01*
X034880Y010316D01*
X034942Y010377D01*
X035063Y010377D02*
X035063Y010624D01*
X035125Y010686D01*
X035310Y010686D01*
X035310Y010316D01*
X035125Y010316D01*
X035063Y010377D01*
X034818Y010501D02*
X034756Y010501D01*
X034695Y010439D01*
X034695Y010377D01*
X034756Y010501D02*
X034695Y010562D01*
X034695Y010624D01*
X034756Y010686D01*
X034880Y010686D01*
X034942Y010624D01*
X035655Y010316D02*
X035902Y010316D01*
X035778Y010316D02*
X035778Y010686D01*
X035902Y010562D01*
X036023Y010624D02*
X036085Y010686D01*
X036270Y010686D01*
X036270Y010316D01*
X036085Y010316D01*
X036023Y010377D01*
X036023Y010624D01*
X036855Y010686D02*
X037102Y010686D01*
X037102Y010316D01*
X036855Y010316D01*
X036978Y010501D02*
X037102Y010501D01*
X037655Y010439D02*
X037655Y010377D01*
X037716Y010316D01*
X037840Y010316D01*
X037902Y010377D01*
X038023Y010316D02*
X038147Y010439D01*
X038085Y010439D02*
X038270Y010439D01*
X038270Y010316D02*
X038270Y010686D01*
X038085Y010686D01*
X038023Y010624D01*
X038023Y010501D01*
X038085Y010439D01*
X037902Y010562D02*
X037840Y010501D01*
X037716Y010501D01*
X037655Y010439D01*
X037655Y010624D02*
X037716Y010686D01*
X037840Y010686D01*
X037902Y010624D01*
X037902Y010562D01*
X038725Y010544D02*
X038725Y010297D01*
X038787Y010236D01*
X038972Y010236D01*
X038972Y010606D01*
X038787Y010606D01*
X038725Y010544D01*
X039093Y010606D02*
X039093Y010359D01*
X039217Y010236D01*
X039340Y010359D01*
X039340Y010606D01*
X039462Y010421D02*
X039708Y010421D01*
X039830Y010297D02*
X039830Y010544D01*
X039892Y010606D01*
X040077Y010606D01*
X040077Y010236D01*
X039892Y010236D01*
X039830Y010297D01*
X040198Y010297D02*
X040260Y010236D01*
X040383Y010236D01*
X040445Y010297D01*
X040445Y010544D01*
X040383Y010606D01*
X040260Y010606D01*
X040198Y010544D01*
X040566Y010236D02*
X040813Y010236D01*
X040813Y010606D01*
X039457Y008366D02*
X039333Y008366D01*
X039271Y008304D01*
X039271Y008181D02*
X039395Y008181D01*
X039271Y008181D02*
X039271Y008057D01*
X039333Y007996D01*
X039457Y007996D01*
X039518Y008057D01*
X039518Y008304D01*
X039457Y008366D01*
X039150Y008366D02*
X038903Y007996D01*
X038903Y008366D01*
X038782Y008366D02*
X038782Y007996D01*
X038596Y007996D01*
X038535Y008057D01*
X038535Y008304D01*
X038596Y008366D01*
X038782Y008366D01*
X039150Y008366D02*
X039150Y007996D01*
X038270Y008119D02*
X038147Y007996D01*
X038023Y008119D01*
X038023Y008366D01*
X037902Y008304D02*
X037840Y008366D01*
X037716Y008366D01*
X037655Y008304D01*
X037902Y008057D01*
X037840Y007996D01*
X037716Y007996D01*
X037655Y008057D01*
X037655Y008304D01*
X037902Y008304D02*
X037902Y008057D01*
X038270Y008119D02*
X038270Y008366D01*
X037230Y008366D02*
X037230Y007996D01*
X037230Y008119D02*
X037045Y008119D01*
X036983Y008181D01*
X036983Y008304D01*
X037045Y008366D01*
X037230Y008366D01*
X037107Y008119D02*
X036983Y007996D01*
X036862Y007996D02*
X036738Y008119D01*
X036615Y007996D01*
X036615Y008366D01*
X036862Y008366D02*
X036862Y007996D01*
X036270Y007996D02*
X036270Y008366D01*
X036085Y008366D01*
X036023Y008304D01*
X036023Y008057D01*
X036085Y007996D01*
X036270Y007996D01*
X035902Y008057D02*
X035655Y008304D01*
X035655Y008057D01*
X035716Y007996D01*
X035840Y007996D01*
X035902Y008057D01*
X035902Y008304D01*
X035840Y008366D01*
X035716Y008366D01*
X035655Y008304D01*
X035230Y008366D02*
X035230Y007996D01*
X035045Y007996D01*
X034983Y008057D01*
X034983Y008304D01*
X035045Y008366D01*
X035230Y008366D01*
X034862Y008304D02*
X034800Y008366D01*
X034676Y008366D01*
X034615Y008304D01*
X034615Y008242D01*
X034862Y007996D01*
X034615Y007996D01*
X034270Y007996D02*
X034270Y008366D01*
X034085Y008366D01*
X034023Y008304D01*
X034023Y008057D01*
X034085Y007996D01*
X034270Y007996D01*
X033902Y008181D02*
X033655Y008181D01*
X033716Y008366D02*
X033902Y008181D01*
X033716Y007996D02*
X033716Y008366D01*
X033310Y008366D02*
X033310Y007996D01*
X033125Y007996D01*
X033063Y008057D01*
X033063Y008304D01*
X033125Y008366D01*
X033310Y008366D01*
X032942Y008181D02*
X032756Y008181D01*
X032695Y008119D01*
X032695Y008057D01*
X032756Y007996D01*
X032880Y007996D01*
X032942Y008057D01*
X032942Y008181D01*
X032818Y008304D01*
X032695Y008366D01*
X032253Y008366D02*
X032253Y008181D01*
X032130Y008242D01*
X032068Y008242D01*
X032006Y008181D01*
X032006Y008057D01*
X032068Y007996D01*
X032192Y007996D01*
X032253Y008057D01*
X032253Y008366D02*
X032006Y008366D01*
X031885Y008366D02*
X031885Y008119D01*
X031762Y007996D01*
X031638Y008119D01*
X031638Y008366D01*
X032253Y006846D02*
X032253Y006476D01*
X032006Y006476D01*
X031885Y006537D02*
X031823Y006476D01*
X031638Y006476D01*
X031638Y006722D01*
X031517Y006722D02*
X031455Y006722D01*
X031393Y006661D01*
X031332Y006722D01*
X031270Y006661D01*
X031270Y006476D01*
X031393Y006476D02*
X031393Y006661D01*
X031517Y006722D02*
X031517Y006476D01*
X031885Y006537D02*
X031885Y006722D01*
X032695Y006784D02*
X032942Y006537D01*
X032942Y006476D01*
X033063Y006537D02*
X033063Y006784D01*
X033125Y006846D01*
X033310Y006846D01*
X033310Y006476D01*
X033125Y006476D01*
X033063Y006537D01*
X032942Y006846D02*
X032695Y006846D01*
X032695Y006784D01*
X033655Y006846D02*
X033902Y006846D01*
X033902Y006661D01*
X033778Y006722D01*
X033716Y006722D01*
X033655Y006661D01*
X033655Y006537D01*
X033716Y006476D01*
X033840Y006476D01*
X033902Y006537D01*
X034023Y006537D02*
X034023Y006784D01*
X034085Y006846D01*
X034270Y006846D01*
X034270Y006476D01*
X034085Y006476D01*
X034023Y006537D01*
X034695Y006537D02*
X034756Y006476D01*
X034880Y006476D01*
X034942Y006537D01*
X035063Y006537D02*
X035063Y006784D01*
X035125Y006846D01*
X035310Y006846D01*
X035310Y006476D01*
X035125Y006476D01*
X035063Y006537D01*
X034818Y006661D02*
X034756Y006661D01*
X034695Y006599D01*
X034695Y006537D01*
X034756Y006661D02*
X034695Y006722D01*
X034695Y006784D01*
X034756Y006846D01*
X034880Y006846D01*
X034942Y006784D01*
X035655Y006476D02*
X035902Y006476D01*
X035778Y006476D02*
X035778Y006846D01*
X035902Y006722D01*
X036023Y006784D02*
X036085Y006846D01*
X036270Y006846D01*
X036270Y006476D01*
X036085Y006476D01*
X036023Y006537D01*
X036023Y006784D01*
X036855Y006846D02*
X037102Y006846D01*
X037102Y006476D01*
X036855Y006476D01*
X036978Y006661D02*
X037102Y006661D01*
X037655Y006599D02*
X037655Y006537D01*
X037716Y006476D01*
X037840Y006476D01*
X037902Y006537D01*
X038023Y006476D02*
X038147Y006599D01*
X038085Y006599D02*
X038270Y006599D01*
X038270Y006476D02*
X038270Y006846D01*
X038085Y006846D01*
X038023Y006784D01*
X038023Y006661D01*
X038085Y006599D01*
X037902Y006722D02*
X037840Y006661D01*
X037716Y006661D01*
X037655Y006599D01*
X037655Y006784D02*
X037716Y006846D01*
X037840Y006846D01*
X037902Y006784D01*
X037902Y006722D01*
X038725Y006704D02*
X038787Y006766D01*
X038972Y006766D01*
X038972Y006396D01*
X038787Y006396D01*
X038725Y006457D01*
X038725Y006704D01*
X039093Y006766D02*
X039093Y006519D01*
X039217Y006396D01*
X039340Y006519D01*
X039340Y006766D01*
X039462Y006581D02*
X039708Y006581D01*
X039830Y006704D02*
X039892Y006766D01*
X040077Y006766D01*
X040077Y006396D01*
X039892Y006396D01*
X039830Y006457D01*
X039830Y006704D01*
X040198Y006704D02*
X040260Y006766D01*
X040383Y006766D01*
X040445Y006704D01*
X040445Y006457D01*
X040383Y006396D01*
X040260Y006396D01*
X040198Y006457D01*
X040566Y006396D02*
X040813Y006396D01*
X040813Y006766D01*
X042310Y006784D02*
X042372Y006846D01*
X042557Y006846D01*
X042557Y006476D01*
X042372Y006476D01*
X042310Y006537D01*
X042310Y006784D01*
X042678Y006846D02*
X042678Y006476D01*
X042925Y006846D01*
X042925Y006476D01*
X043046Y006537D02*
X043046Y006661D01*
X043170Y006661D01*
X043293Y006784D02*
X043293Y006537D01*
X043232Y006476D01*
X043108Y006476D01*
X043046Y006537D01*
X043046Y006784D02*
X043108Y006846D01*
X043232Y006846D01*
X043293Y006784D01*
X043638Y006846D02*
X043638Y006599D01*
X043762Y006476D01*
X043885Y006599D01*
X043885Y006846D01*
X044006Y006846D02*
X044253Y006846D01*
X044253Y006661D01*
X044130Y006722D01*
X044068Y006722D01*
X044006Y006661D01*
X044006Y006537D01*
X044068Y006476D01*
X044192Y006476D01*
X044253Y006537D01*
X044758Y006537D02*
X044758Y006784D01*
X044820Y006846D01*
X044943Y006846D01*
X045005Y006784D01*
X045005Y006537D01*
X044943Y006476D01*
X044820Y006476D01*
X044758Y006537D01*
X045126Y006537D02*
X045188Y006476D01*
X045312Y006476D01*
X045373Y006537D01*
X045312Y006661D02*
X045373Y006722D01*
X045373Y006784D01*
X045312Y006846D01*
X045188Y006846D01*
X045126Y006784D01*
X045188Y006661D02*
X045126Y006599D01*
X045126Y006537D01*
X045188Y006661D02*
X045312Y006661D01*
X045718Y006784D02*
X045780Y006846D01*
X045903Y006846D01*
X045965Y006784D01*
X045965Y006537D01*
X045903Y006476D01*
X045780Y006476D01*
X045718Y006537D01*
X046086Y006537D02*
X046148Y006476D01*
X046272Y006476D01*
X046333Y006537D01*
X046272Y006661D02*
X046148Y006661D01*
X046086Y006599D01*
X046086Y006537D01*
X046272Y006661D02*
X046333Y006722D01*
X046333Y006784D01*
X046272Y006846D01*
X046148Y006846D01*
X046086Y006784D01*
X046630Y006476D02*
X046877Y006476D01*
X046753Y006476D02*
X046753Y006846D01*
X046877Y006722D01*
X046998Y006784D02*
X047060Y006846D01*
X047183Y006846D01*
X047245Y006784D01*
X047245Y006537D01*
X047183Y006476D01*
X047060Y006476D01*
X046998Y006537D01*
X047366Y006476D02*
X047490Y006599D01*
X047428Y006599D02*
X047613Y006599D01*
X047613Y006476D02*
X047613Y006846D01*
X047428Y006846D01*
X047366Y006784D01*
X047366Y006661D01*
X047428Y006599D01*
X047413Y004446D02*
X047351Y004384D01*
X047351Y004261D01*
X047413Y004199D01*
X047598Y004199D01*
X047475Y004199D02*
X047351Y004076D01*
X047230Y004137D02*
X047168Y004076D01*
X047045Y004076D01*
X046983Y004137D01*
X046862Y004076D02*
X046615Y004322D01*
X046615Y004384D01*
X046676Y004446D01*
X046800Y004446D01*
X046862Y004384D01*
X046983Y004384D02*
X047045Y004446D01*
X047168Y004446D01*
X047230Y004384D01*
X047230Y004137D01*
X047413Y004446D02*
X047598Y004446D01*
X047598Y004076D01*
X046862Y004076D02*
X046615Y004076D01*
X046350Y004137D02*
X046288Y004076D01*
X046165Y004076D01*
X046103Y004137D01*
X046103Y004199D01*
X046165Y004261D01*
X046288Y004261D01*
X046350Y004322D01*
X046350Y004384D01*
X046288Y004446D01*
X046165Y004446D01*
X046103Y004384D01*
X045982Y004384D02*
X045982Y004137D01*
X045920Y004076D01*
X045796Y004076D01*
X045735Y004137D01*
X045735Y004384D02*
X045796Y004446D01*
X045920Y004446D01*
X045982Y004384D01*
X045267Y004384D02*
X045267Y004322D01*
X045205Y004261D01*
X045082Y004261D01*
X045020Y004199D01*
X045020Y004137D01*
X045082Y004076D01*
X045205Y004076D01*
X045267Y004137D01*
X045267Y004384D02*
X045205Y004446D01*
X045082Y004446D01*
X045020Y004384D01*
X044899Y004446D02*
X044775Y004446D01*
X044837Y004446D02*
X044837Y004076D01*
X044899Y004076D02*
X044775Y004076D01*
X044350Y004137D02*
X044288Y004076D01*
X044165Y004076D01*
X044103Y004137D01*
X044103Y004261D01*
X044165Y004322D01*
X044227Y004322D01*
X044350Y004261D01*
X044350Y004446D01*
X044103Y004446D01*
X043982Y004446D02*
X043982Y004199D01*
X043858Y004076D01*
X043735Y004199D01*
X043735Y004446D01*
X043358Y004384D02*
X043358Y004137D01*
X043297Y004076D01*
X043173Y004076D01*
X043111Y004137D01*
X043111Y004261D01*
X043235Y004261D01*
X043358Y004384D02*
X043297Y004446D01*
X043173Y004446D01*
X043111Y004384D01*
X042990Y004446D02*
X042743Y004076D01*
X042743Y004446D01*
X042622Y004446D02*
X042622Y004076D01*
X042436Y004076D01*
X042375Y004137D01*
X042375Y004384D01*
X042436Y004446D01*
X042622Y004446D01*
X042990Y004446D02*
X042990Y004076D01*
X039518Y004217D02*
X039457Y004156D01*
X039333Y004156D01*
X039271Y004217D01*
X039271Y004341D01*
X039395Y004341D01*
X039518Y004464D02*
X039518Y004217D01*
X039518Y004464D02*
X039457Y004526D01*
X039333Y004526D01*
X039271Y004464D01*
X039150Y004526D02*
X038903Y004156D01*
X038903Y004526D01*
X038782Y004526D02*
X038596Y004526D01*
X038535Y004464D01*
X038535Y004217D01*
X038596Y004156D01*
X038782Y004156D01*
X038782Y004526D01*
X039150Y004526D02*
X039150Y004156D01*
X038270Y004279D02*
X038147Y004156D01*
X038023Y004279D01*
X038023Y004526D01*
X037902Y004464D02*
X037840Y004526D01*
X037716Y004526D01*
X037655Y004464D01*
X037902Y004217D01*
X037840Y004156D01*
X037716Y004156D01*
X037655Y004217D01*
X037655Y004464D01*
X037902Y004464D02*
X037902Y004217D01*
X038270Y004279D02*
X038270Y004526D01*
X037230Y004526D02*
X037045Y004526D01*
X036983Y004464D01*
X036983Y004341D01*
X037045Y004279D01*
X037230Y004279D01*
X037230Y004156D02*
X037230Y004526D01*
X037107Y004279D02*
X036983Y004156D01*
X036862Y004156D02*
X036738Y004279D01*
X036615Y004156D01*
X036615Y004526D01*
X036862Y004526D02*
X036862Y004156D01*
X036270Y004156D02*
X036085Y004156D01*
X036023Y004217D01*
X036023Y004464D01*
X036085Y004526D01*
X036270Y004526D01*
X036270Y004156D01*
X035902Y004217D02*
X035655Y004464D01*
X035655Y004217D01*
X035716Y004156D01*
X035840Y004156D01*
X035902Y004217D01*
X035902Y004464D01*
X035840Y004526D01*
X035716Y004526D01*
X035655Y004464D01*
X035230Y004526D02*
X035045Y004526D01*
X034983Y004464D01*
X034983Y004217D01*
X035045Y004156D01*
X035230Y004156D01*
X035230Y004526D01*
X034862Y004464D02*
X034800Y004526D01*
X034676Y004526D01*
X034615Y004464D01*
X034615Y004402D01*
X034862Y004156D01*
X034615Y004156D01*
X034270Y004156D02*
X034085Y004156D01*
X034023Y004217D01*
X034023Y004464D01*
X034085Y004526D01*
X034270Y004526D01*
X034270Y004156D01*
X033902Y004341D02*
X033655Y004341D01*
X033716Y004526D02*
X033902Y004341D01*
X033716Y004156D02*
X033716Y004526D01*
X033310Y004526D02*
X033125Y004526D01*
X033063Y004464D01*
X033063Y004217D01*
X033125Y004156D01*
X033310Y004156D01*
X033310Y004526D01*
X032942Y004341D02*
X032756Y004341D01*
X032695Y004279D01*
X032695Y004217D01*
X032756Y004156D01*
X032880Y004156D01*
X032942Y004217D01*
X032942Y004341D01*
X032818Y004464D01*
X032695Y004526D01*
X032253Y004526D02*
X032253Y004341D01*
X032130Y004402D01*
X032068Y004402D01*
X032006Y004341D01*
X032006Y004217D01*
X032068Y004156D01*
X032192Y004156D01*
X032253Y004217D01*
X032253Y004526D02*
X032006Y004526D01*
X031885Y004526D02*
X031885Y004279D01*
X031762Y004156D01*
X031638Y004279D01*
X031638Y004526D01*
X026574Y004487D02*
X026203Y004487D01*
X026203Y004364D02*
X026203Y004611D01*
X026450Y004364D02*
X026574Y004487D01*
X026512Y004242D02*
X026574Y004181D01*
X026574Y003996D01*
X026203Y003996D01*
X026203Y004181D01*
X026265Y004242D01*
X026512Y004242D01*
X025614Y004181D02*
X025614Y003996D01*
X025243Y003996D01*
X025243Y004181D01*
X025305Y004242D01*
X025552Y004242D01*
X025614Y004181D01*
X025552Y004364D02*
X025614Y004426D01*
X025614Y004549D01*
X025552Y004611D01*
X025305Y004364D01*
X025243Y004426D01*
X025243Y004549D01*
X025305Y004611D01*
X025552Y004611D01*
X025552Y004364D02*
X025305Y004364D01*
X024574Y004426D02*
X024512Y004364D01*
X024265Y004364D01*
X024203Y004426D01*
X024203Y004549D01*
X024265Y004611D01*
X024512Y004611D02*
X024574Y004549D01*
X024574Y004426D01*
X024512Y004242D02*
X024574Y004181D01*
X024574Y003996D01*
X024203Y003996D01*
X024203Y004181D01*
X024265Y004242D01*
X024512Y004242D01*
X024512Y006556D02*
X024450Y006556D01*
X024388Y006617D01*
X024388Y006741D01*
X024327Y006802D01*
X024265Y006802D01*
X024203Y006741D01*
X024203Y006617D01*
X024265Y006556D01*
X024512Y006556D02*
X024574Y006617D01*
X024574Y006741D01*
X024512Y006802D01*
X024574Y006924D02*
X024574Y007109D01*
X024512Y007171D01*
X024265Y007171D01*
X024203Y007109D01*
X024203Y006924D01*
X024574Y006924D01*
X024450Y007292D02*
X024203Y007292D01*
X024388Y007292D02*
X024388Y007539D01*
X024450Y007539D02*
X024203Y007539D01*
X024450Y007539D02*
X024574Y007416D01*
X024450Y007292D01*
X025243Y007109D02*
X025243Y006986D01*
X025305Y006924D01*
X025552Y006924D01*
X025614Y006986D01*
X025614Y007109D01*
X025552Y007171D01*
X025305Y007171D02*
X025243Y007109D01*
X025305Y006802D02*
X025243Y006741D01*
X025243Y006617D01*
X025305Y006556D01*
X025428Y006617D02*
X025428Y006741D01*
X025367Y006802D01*
X025305Y006802D01*
X025428Y006617D02*
X025490Y006556D01*
X025552Y006556D01*
X025614Y006617D01*
X025614Y006741D01*
X025552Y006802D01*
X026203Y006802D02*
X026327Y006679D01*
X026327Y006741D02*
X026327Y006556D01*
X026203Y006556D02*
X026574Y006556D01*
X026574Y006741D01*
X026512Y006802D01*
X026388Y006802D01*
X026327Y006741D01*
X026265Y006924D02*
X026203Y006986D01*
X026203Y007109D01*
X026265Y007171D01*
X026512Y007171D02*
X026574Y007109D01*
X026574Y006986D01*
X026512Y006924D01*
X026265Y006924D01*
X023614Y006986D02*
X023552Y006924D01*
X023305Y006924D01*
X023243Y006986D01*
X023243Y007109D01*
X023305Y007171D01*
X023243Y007292D02*
X023243Y007477D01*
X023305Y007539D01*
X023552Y007539D01*
X023614Y007477D01*
X023614Y007292D01*
X023243Y007292D01*
X023552Y007171D02*
X023614Y007109D01*
X023614Y006986D01*
X023243Y006802D02*
X023243Y006556D01*
X023614Y006556D01*
X022574Y006617D02*
X022512Y006556D01*
X022265Y006556D01*
X022203Y006617D01*
X022203Y006741D01*
X022265Y006802D01*
X022388Y006802D01*
X022388Y006679D01*
X022512Y006802D02*
X022574Y006741D01*
X022574Y006617D01*
X022574Y006924D02*
X022203Y007171D01*
X022574Y007171D01*
X022574Y007292D02*
X022574Y007477D01*
X022512Y007539D01*
X022265Y007539D01*
X022203Y007477D01*
X022203Y007292D01*
X022574Y007292D01*
X022574Y006924D02*
X022203Y006924D01*
X023428Y007660D02*
X023428Y007907D01*
X023367Y008029D02*
X023243Y008152D01*
X023367Y008276D01*
X023614Y008276D01*
X023614Y008397D02*
X023614Y008582D01*
X023552Y008644D01*
X023305Y008644D01*
X023243Y008582D01*
X023243Y008397D01*
X023614Y008397D01*
X023614Y008029D02*
X023367Y008029D01*
X010581Y019522D02*
X010581Y019708D01*
X010519Y019769D01*
X010272Y019769D01*
X010210Y019708D01*
X010210Y019522D01*
X010581Y019522D01*
X010395Y019891D02*
X010395Y020138D01*
X009799Y020014D02*
X009552Y020014D01*
X009675Y019891D02*
X009675Y020138D01*
X009552Y019769D02*
X009799Y019769D01*
X009861Y019708D01*
X009861Y019522D01*
X009490Y019522D01*
X009490Y019708D01*
X009552Y019769D01*
X014807Y031964D02*
X015054Y031964D01*
X017003Y032044D02*
X017374Y032044D01*
X017003Y032291D01*
X017374Y032291D01*
X017374Y032412D02*
X017374Y032597D01*
X017312Y032659D01*
X017065Y032659D01*
X017003Y032597D01*
X017003Y032412D01*
X017374Y032412D01*
X017374Y032876D02*
X017003Y032876D01*
X017003Y033061D01*
X017065Y033122D01*
X017312Y033122D01*
X017374Y033061D01*
X017374Y032876D01*
X017312Y033244D02*
X017065Y033244D01*
X017312Y033491D01*
X017065Y033491D01*
X017003Y033429D01*
X017003Y033306D01*
X017065Y033244D01*
X017312Y033244D02*
X017374Y033306D01*
X017374Y033429D01*
X017312Y033491D01*
X017374Y033836D02*
X017003Y033836D01*
X017003Y034021D01*
X017065Y034082D01*
X017312Y034082D01*
X017374Y034021D01*
X017374Y033836D01*
X017312Y034204D02*
X017374Y034266D01*
X017374Y034389D01*
X017312Y034451D01*
X017250Y034451D01*
X017003Y034204D01*
X017003Y034451D01*
X017003Y034796D02*
X017003Y034981D01*
X017065Y035042D01*
X017312Y035042D01*
X017374Y034981D01*
X017374Y034796D01*
X017003Y034796D01*
X017188Y035164D02*
X017188Y035411D01*
X017003Y035349D02*
X017374Y035349D01*
X017188Y035164D01*
X017188Y031922D02*
X017188Y031799D01*
X017188Y031922D02*
X017065Y031922D01*
X017003Y031861D01*
X017003Y031737D01*
X017065Y031676D01*
X017312Y031676D01*
X017374Y031737D01*
X017374Y031861D01*
X017312Y031922D01*
X022283Y036035D02*
X022283Y036096D01*
X022345Y036096D01*
X022345Y036035D01*
X022283Y036035D01*
X024203Y036096D02*
X024203Y036035D01*
X024265Y036035D01*
X024265Y036096D01*
X024203Y036096D01*
X024203Y036219D02*
X024450Y036466D01*
X024512Y036466D01*
X024574Y036404D01*
X024574Y036281D01*
X024512Y036219D01*
X024203Y036219D02*
X024203Y036466D01*
X024265Y036587D02*
X024203Y036649D01*
X024203Y036772D01*
X024265Y036834D01*
X024327Y036834D01*
X024388Y036772D01*
X024388Y036587D01*
X024265Y036587D01*
X024388Y036587D02*
X024512Y036711D01*
X024574Y036834D01*
X025243Y036772D02*
X025243Y036649D01*
X025305Y036587D01*
X025243Y036466D02*
X025243Y036219D01*
X025490Y036466D01*
X025552Y036466D01*
X025614Y036404D01*
X025614Y036281D01*
X025552Y036219D01*
X025305Y036096D02*
X025243Y036096D01*
X025243Y036035D01*
X025305Y036035D01*
X025305Y036096D01*
X025243Y035913D02*
X025243Y035666D01*
X025243Y035790D02*
X025614Y035790D01*
X025490Y035666D01*
X025428Y035545D02*
X025367Y035483D01*
X025367Y035298D01*
X025243Y035298D02*
X025614Y035298D01*
X025614Y035483D01*
X025552Y035545D01*
X025428Y035545D01*
X026203Y035298D02*
X026574Y035298D01*
X026574Y035483D01*
X026512Y035545D01*
X026388Y035545D01*
X026327Y035483D01*
X026327Y035298D01*
X026388Y035666D02*
X026388Y035913D01*
X026265Y036035D02*
X026265Y036096D01*
X026203Y036096D01*
X026203Y036035D01*
X026265Y036035D01*
X026203Y035852D02*
X026574Y035852D01*
X026388Y035666D01*
X026843Y035689D02*
X026843Y035812D01*
X026905Y035874D01*
X027152Y035874D01*
X027214Y035812D01*
X027214Y035689D01*
X027152Y035627D01*
X027090Y035627D01*
X027028Y035689D01*
X027028Y035874D01*
X026843Y035689D02*
X026905Y035627D01*
X026905Y035505D02*
X026843Y035505D01*
X026843Y035443D01*
X026905Y035443D01*
X026905Y035505D01*
X026843Y035322D02*
X026843Y035075D01*
X027090Y035322D01*
X027152Y035322D01*
X027214Y035260D01*
X027214Y035136D01*
X027152Y035075D01*
X027152Y034953D02*
X027028Y034953D01*
X026967Y034892D01*
X026967Y034706D01*
X026843Y034706D02*
X027214Y034706D01*
X027214Y034892D01*
X027152Y034953D01*
X027486Y034624D02*
X027486Y034562D01*
X027547Y034501D01*
X027486Y034439D01*
X027486Y034377D01*
X027547Y034316D01*
X027671Y034316D01*
X027733Y034377D01*
X027855Y034377D02*
X027855Y034316D01*
X027917Y034316D01*
X027917Y034377D01*
X027855Y034377D01*
X028038Y034377D02*
X028100Y034316D01*
X028223Y034316D01*
X028285Y034377D01*
X028038Y034624D01*
X028038Y034377D01*
X028285Y034377D02*
X028285Y034624D01*
X028223Y034686D01*
X028100Y034686D01*
X028038Y034624D01*
X027733Y034624D02*
X027671Y034686D01*
X027547Y034686D01*
X027486Y034624D01*
X027547Y034501D02*
X027609Y034501D01*
X028406Y034501D02*
X028468Y034439D01*
X028653Y034439D01*
X028653Y034316D02*
X028653Y034686D01*
X028468Y034686D01*
X028406Y034624D01*
X028406Y034501D01*
X028468Y033726D02*
X028406Y033664D01*
X028406Y033541D01*
X028468Y033479D01*
X028653Y033479D01*
X028653Y033356D02*
X028653Y033726D01*
X028468Y033726D01*
X028285Y033664D02*
X028223Y033726D01*
X028100Y033726D01*
X028038Y033664D01*
X028285Y033417D01*
X028223Y033356D01*
X028100Y033356D01*
X028038Y033417D01*
X028038Y033664D01*
X028285Y033664D02*
X028285Y033417D01*
X027917Y033417D02*
X027855Y033417D01*
X027855Y033356D01*
X027917Y033356D01*
X027917Y033417D01*
X027733Y033356D02*
X027486Y033602D01*
X027486Y033664D01*
X027547Y033726D01*
X027671Y033726D01*
X027733Y033664D01*
X027733Y033356D02*
X027486Y033356D01*
X027547Y032766D02*
X027486Y032704D01*
X027486Y032642D01*
X027547Y032581D01*
X027486Y032519D01*
X027486Y032457D01*
X027547Y032396D01*
X027671Y032396D01*
X027733Y032457D01*
X027855Y032457D02*
X027855Y032396D01*
X027917Y032396D01*
X027917Y032457D01*
X027855Y032457D01*
X028038Y032396D02*
X028285Y032396D01*
X028162Y032396D02*
X028162Y032766D01*
X028285Y032642D01*
X028406Y032704D02*
X028406Y032581D01*
X028468Y032519D01*
X028653Y032519D01*
X028653Y032396D02*
X028653Y032766D01*
X028468Y032766D01*
X028406Y032704D01*
X027733Y032704D02*
X027671Y032766D01*
X027547Y032766D01*
X027547Y032581D02*
X027609Y032581D01*
X027364Y032642D02*
X027241Y032766D01*
X027241Y032396D01*
X027364Y032396D02*
X027117Y032396D01*
X027179Y031726D02*
X027117Y031664D01*
X027364Y031417D01*
X027303Y031356D01*
X027179Y031356D01*
X027117Y031417D01*
X027117Y031664D01*
X027179Y031726D02*
X027303Y031726D01*
X027364Y031664D01*
X027364Y031417D01*
X027486Y031417D02*
X027547Y031356D01*
X027671Y031356D01*
X027733Y031417D01*
X027855Y031417D02*
X027855Y031356D01*
X027917Y031356D01*
X027917Y031417D01*
X027855Y031417D01*
X028038Y031356D02*
X028285Y031356D01*
X028162Y031356D02*
X028162Y031726D01*
X028285Y031602D01*
X028406Y031541D02*
X028468Y031479D01*
X028653Y031479D01*
X028653Y031356D02*
X028653Y031726D01*
X028468Y031726D01*
X028406Y031664D01*
X028406Y031541D01*
X027733Y031664D02*
X027671Y031726D01*
X027547Y031726D01*
X027486Y031664D01*
X027486Y031602D01*
X027547Y031541D01*
X027486Y031479D01*
X027486Y031417D01*
X027547Y031541D02*
X027609Y031541D01*
X027547Y030686D02*
X027486Y030624D01*
X027486Y030562D01*
X027733Y030316D01*
X027486Y030316D01*
X027364Y030377D02*
X027303Y030316D01*
X027179Y030316D01*
X027117Y030377D01*
X027117Y030439D01*
X027179Y030501D01*
X027364Y030501D01*
X027364Y030377D01*
X027364Y030501D02*
X027241Y030624D01*
X027117Y030686D01*
X027547Y030686D02*
X027671Y030686D01*
X027733Y030624D01*
X027855Y030377D02*
X027855Y030316D01*
X027917Y030316D01*
X027917Y030377D01*
X027855Y030377D01*
X028038Y030377D02*
X028100Y030316D01*
X028223Y030316D01*
X028285Y030377D01*
X028038Y030624D01*
X028038Y030377D01*
X028285Y030377D02*
X028285Y030624D01*
X028223Y030686D01*
X028100Y030686D01*
X028038Y030624D01*
X028406Y030624D02*
X028406Y030501D01*
X028468Y030439D01*
X028653Y030439D01*
X028653Y030316D02*
X028653Y030686D01*
X028468Y030686D01*
X028406Y030624D01*
X024574Y035298D02*
X024203Y035298D01*
X024327Y035298D02*
X024327Y035483D01*
X024388Y035545D01*
X024512Y035545D01*
X024574Y035483D01*
X024574Y035298D01*
X024450Y035666D02*
X024574Y035790D01*
X024203Y035790D01*
X024203Y035913D02*
X024203Y035666D01*
X025243Y036772D02*
X025305Y036834D01*
X025552Y036834D01*
X025614Y036772D01*
X025614Y036649D01*
X025552Y036587D01*
X025490Y036587D01*
X025428Y036649D01*
X025428Y036834D01*
X026203Y036772D02*
X026203Y036649D01*
X026265Y036587D01*
X026327Y036587D01*
X026388Y036649D01*
X026388Y036772D01*
X026327Y036834D01*
X026265Y036834D01*
X026203Y036772D01*
X026388Y036772D02*
X026450Y036834D01*
X026512Y036834D01*
X026574Y036772D01*
X026574Y036649D01*
X026512Y036587D01*
X026450Y036587D01*
X026388Y036649D01*
X026450Y036466D02*
X026203Y036219D01*
X026203Y036466D01*
X026450Y036466D02*
X026512Y036466D01*
X026574Y036404D01*
X026574Y036281D01*
X026512Y036219D01*
X036267Y040236D02*
X036514Y040236D01*
X036267Y040482D01*
X036267Y040544D01*
X036329Y040606D01*
X036452Y040606D01*
X036514Y040544D01*
X036635Y040544D02*
X036697Y040606D01*
X036821Y040606D01*
X036882Y040544D01*
X036882Y040297D01*
X036821Y040236D01*
X036697Y040236D01*
X036635Y040297D01*
X037004Y040236D02*
X037128Y040236D01*
X037066Y040236D02*
X037066Y040606D01*
X037128Y040606D02*
X037004Y040606D01*
X037250Y040606D02*
X037373Y040606D01*
X037312Y040606D02*
X037312Y040236D01*
X037373Y040236D02*
X037250Y040236D01*
X037945Y041036D02*
X037883Y041097D01*
X037883Y041221D01*
X037945Y041282D01*
X038068Y041282D01*
X038068Y041159D01*
X037945Y041036D02*
X038192Y041036D01*
X038254Y041097D01*
X038254Y041221D01*
X038192Y041282D01*
X038254Y041404D02*
X037883Y041651D01*
X038254Y041651D01*
X038254Y041772D02*
X038254Y041957D01*
X038192Y042019D01*
X037945Y042019D01*
X037883Y041957D01*
X037883Y041772D01*
X038254Y041772D01*
X038603Y041835D02*
X038974Y041835D01*
X038788Y041649D01*
X038788Y041896D01*
X039083Y041895D02*
X039330Y042142D01*
X039392Y042142D01*
X039454Y042080D01*
X039454Y041957D01*
X039392Y041895D01*
X039392Y041774D02*
X039454Y041712D01*
X039454Y041588D01*
X039392Y041527D01*
X039145Y041527D01*
X039083Y041588D01*
X039083Y041712D01*
X039145Y041774D01*
X039083Y041895D02*
X039083Y042142D01*
X039022Y042263D02*
X039022Y042510D01*
X039145Y042632D02*
X039083Y042693D01*
X039083Y042817D01*
X039145Y042878D01*
X039207Y042878D01*
X039268Y042817D01*
X039268Y042693D01*
X039330Y042632D01*
X039392Y042632D01*
X039454Y042693D01*
X039454Y042817D01*
X039392Y042878D01*
X039392Y043000D02*
X039145Y043000D01*
X039083Y043062D01*
X039083Y043185D01*
X039145Y043247D01*
X039392Y043247D02*
X039454Y043185D01*
X039454Y043062D01*
X039392Y043000D01*
X039643Y041957D02*
X040014Y041957D01*
X039828Y041772D01*
X039828Y042019D01*
X040123Y042142D02*
X040123Y041895D01*
X040370Y042142D01*
X040432Y042142D01*
X040494Y042080D01*
X040494Y041957D01*
X040432Y041895D01*
X040432Y041774D02*
X040494Y041712D01*
X040494Y041588D01*
X040432Y041527D01*
X040185Y041527D01*
X040123Y041588D01*
X040123Y041712D01*
X040185Y041774D01*
X040014Y041589D02*
X039952Y041651D01*
X039705Y041651D01*
X039643Y041589D01*
X039643Y041466D01*
X039705Y041404D01*
X039952Y041404D01*
X040014Y041466D01*
X040014Y041589D01*
X040123Y041405D02*
X040123Y041281D01*
X040123Y041343D02*
X040494Y041343D01*
X040494Y041281D02*
X040494Y041405D01*
X040494Y041159D02*
X040494Y041036D01*
X040494Y041097D02*
X040123Y041097D01*
X040123Y041036D02*
X040123Y041159D01*
X040014Y041282D02*
X039643Y041282D01*
X039454Y041281D02*
X039454Y041405D01*
X039454Y041343D02*
X039083Y041343D01*
X039083Y041281D02*
X039083Y041405D01*
X038974Y041404D02*
X038974Y041527D01*
X038974Y041466D02*
X038603Y041466D01*
X038603Y041527D02*
X038603Y041404D01*
X038603Y041282D02*
X038974Y041282D01*
X038850Y041159D01*
X038974Y041036D01*
X038603Y041036D01*
X039083Y041036D02*
X039083Y041159D01*
X039083Y041097D02*
X039454Y041097D01*
X039454Y041036D02*
X039454Y041159D01*
X039643Y041036D02*
X040014Y041036D01*
X039890Y041159D01*
X040014Y041282D01*
X040923Y041221D02*
X040923Y041097D01*
X040985Y041036D01*
X041108Y041036D02*
X041170Y041159D01*
X041170Y041221D01*
X041108Y041282D01*
X040985Y041282D01*
X040923Y041221D01*
X041047Y041404D02*
X040923Y041527D01*
X041047Y041651D01*
X041294Y041651D01*
X041294Y041404D02*
X041047Y041404D01*
X041294Y041282D02*
X041294Y041036D01*
X041108Y041036D01*
X040062Y042263D02*
X040062Y042510D01*
X040185Y042632D02*
X040123Y042693D01*
X040123Y042817D01*
X040185Y042878D01*
X040247Y042878D01*
X040308Y042817D01*
X040308Y042693D01*
X040370Y042632D01*
X040432Y042632D01*
X040494Y042693D01*
X040494Y042817D01*
X040432Y042878D01*
X040494Y043000D02*
X040123Y043000D01*
X040123Y043185D01*
X040185Y043247D01*
X040432Y043247D01*
X040494Y043185D01*
X040494Y043000D01*
X038254Y041404D02*
X037883Y041404D01*
X039405Y049272D02*
X039343Y049334D01*
X039343Y049457D01*
X039405Y049519D01*
X039343Y049640D02*
X039714Y049640D01*
X039714Y049825D01*
X039652Y049887D01*
X039528Y049887D01*
X039467Y049825D01*
X039467Y049640D01*
X039467Y049764D02*
X039343Y049887D01*
X039282Y050009D02*
X039282Y050255D01*
X039343Y050377D02*
X039343Y050500D01*
X039343Y050439D02*
X039714Y050439D01*
X039714Y050500D02*
X039714Y050377D01*
X039652Y050622D02*
X039405Y050622D01*
X039343Y050684D01*
X039343Y050808D01*
X039405Y050869D01*
X039405Y050991D02*
X039343Y051053D01*
X039343Y051176D01*
X039405Y051238D01*
X039652Y051238D01*
X039714Y051176D01*
X039714Y051053D01*
X039652Y050991D01*
X039590Y050991D01*
X039528Y051053D01*
X039528Y051238D01*
X039652Y050869D02*
X039714Y050808D01*
X039714Y050684D01*
X039652Y050622D01*
X039114Y050501D02*
X038928Y050316D01*
X038928Y050562D01*
X038743Y050501D02*
X039114Y050501D01*
X039114Y050194D02*
X038743Y050194D01*
X038743Y049947D02*
X039114Y049947D01*
X038990Y050071D01*
X039114Y050194D01*
X039652Y049519D02*
X039714Y049457D01*
X039714Y049334D01*
X039652Y049272D01*
X039405Y049272D01*
X045632Y028034D02*
X045385Y027787D01*
X045323Y027787D01*
X045323Y027666D02*
X045570Y027666D01*
X045694Y027542D01*
X045570Y027419D01*
X045323Y027419D01*
X045508Y027419D02*
X045508Y027666D01*
X045694Y027787D02*
X045694Y028034D01*
X045632Y028034D01*
X045694Y027074D02*
X045632Y026951D01*
X045508Y026827D01*
X045508Y027012D01*
X045447Y027074D01*
X045385Y027074D01*
X045323Y027012D01*
X045323Y026889D01*
X045385Y026827D01*
X045508Y026827D01*
X045508Y026706D02*
X045508Y026459D01*
X045570Y026459D02*
X045694Y026582D01*
X045570Y026706D01*
X045323Y026706D01*
X045323Y026459D02*
X045570Y026459D01*
X045508Y026034D02*
X045385Y026034D01*
X045323Y025972D01*
X045323Y025849D01*
X045385Y025787D01*
X045508Y025787D02*
X045570Y025911D01*
X045570Y025972D01*
X045508Y026034D01*
X045694Y026034D02*
X045694Y025787D01*
X045508Y025787D01*
X045508Y025666D02*
X045508Y025419D01*
X045570Y025419D02*
X045694Y025542D01*
X045570Y025666D01*
X045323Y025666D01*
X045323Y025419D02*
X045570Y025419D01*
X045508Y024994D02*
X045508Y024747D01*
X045694Y024932D01*
X045323Y024932D01*
X045323Y024626D02*
X045570Y024626D01*
X045694Y024502D01*
X045570Y024379D01*
X045323Y024379D01*
X045508Y024379D02*
X045508Y024626D01*
X045447Y024114D02*
X045385Y024114D01*
X045323Y024052D01*
X045323Y023929D01*
X045385Y023867D01*
X045447Y023746D02*
X045694Y023746D01*
X045632Y023867D02*
X045694Y023929D01*
X045694Y024052D01*
X045632Y024114D01*
X045570Y024114D01*
X045508Y024052D01*
X045447Y024114D01*
X045508Y024052D02*
X045508Y023991D01*
X045447Y023746D02*
X045323Y023622D01*
X045447Y023499D01*
X045694Y023499D01*
X045632Y023377D02*
X045570Y023377D01*
X045508Y023316D01*
X045447Y023377D01*
X045385Y023377D01*
X045323Y023316D01*
X045323Y023192D01*
X045385Y023131D01*
X045508Y023254D02*
X045508Y023316D01*
X045632Y023377D02*
X045694Y023316D01*
X045694Y023192D01*
X045632Y023131D01*
X047673Y025207D02*
X047673Y025331D01*
X047735Y025392D01*
X047858Y025392D01*
X047858Y025269D01*
X047735Y025146D02*
X047673Y025207D01*
X047735Y025146D02*
X047982Y025146D01*
X048044Y025207D01*
X048044Y025331D01*
X047982Y025392D01*
X048044Y025514D02*
X047673Y025514D01*
X047673Y025761D02*
X048044Y025761D01*
X048044Y025882D02*
X048044Y026067D01*
X047982Y026129D01*
X047735Y026129D01*
X047673Y026067D01*
X047673Y025882D01*
X048044Y025882D01*
X048044Y025514D02*
X047673Y025761D01*
X049083Y025787D02*
X049330Y026034D01*
X049392Y026034D01*
X049454Y025972D01*
X049454Y025849D01*
X049392Y025787D01*
X049330Y025666D02*
X049083Y025666D01*
X049083Y025787D02*
X049083Y026034D01*
X049268Y025666D02*
X049268Y025419D01*
X049330Y025419D02*
X049454Y025542D01*
X049330Y025666D01*
X049330Y025419D02*
X049083Y025419D01*
X049145Y024994D02*
X049083Y024932D01*
X049083Y024809D01*
X049145Y024747D01*
X049083Y024626D02*
X049330Y024626D01*
X049454Y024502D01*
X049330Y024379D01*
X049083Y024379D01*
X049268Y024379D02*
X049268Y024626D01*
X049392Y024747D02*
X049454Y024809D01*
X049454Y024932D01*
X049392Y024994D01*
X049330Y024994D01*
X049268Y024932D01*
X049207Y024994D01*
X049145Y024994D01*
X049268Y024932D02*
X049268Y024871D01*
X049207Y024114D02*
X049145Y024114D01*
X049083Y024052D01*
X049083Y023929D01*
X049145Y023867D01*
X049083Y023929D01*
X049083Y024052D01*
X049145Y024114D01*
X049207Y024114D01*
X049268Y024052D01*
X049268Y023991D01*
X049268Y024052D01*
X049330Y024114D01*
X049392Y024114D01*
X049454Y024052D01*
X049454Y023929D01*
X049392Y023867D01*
X049454Y023929D01*
X049454Y024052D01*
X049392Y024114D01*
X049330Y024114D01*
X049268Y024052D01*
X049207Y024114D01*
X049207Y023746D02*
X049083Y023622D01*
X049207Y023499D01*
X049454Y023499D01*
X049207Y023499D01*
X049083Y023622D01*
X049207Y023746D01*
X049454Y023746D01*
X049207Y023746D01*
X049207Y023377D02*
X049145Y023377D01*
X049083Y023316D01*
X049083Y023192D01*
X049145Y023131D01*
X049083Y023192D01*
X049083Y023316D01*
X049145Y023377D01*
X049207Y023377D01*
X049268Y023316D01*
X049268Y023254D01*
X049268Y023316D01*
X049330Y023377D01*
X049392Y023377D01*
X049454Y023316D01*
X049454Y023192D01*
X049392Y023131D01*
X049454Y023192D01*
X049454Y023316D01*
X049392Y023377D01*
X049330Y023377D01*
X049268Y023316D01*
X049207Y023377D01*
X051373Y025257D02*
X051373Y025381D01*
X051435Y025442D01*
X051558Y025442D01*
X051558Y025319D01*
X051435Y025196D02*
X051373Y025257D01*
X051435Y025196D02*
X051682Y025196D01*
X051744Y025257D01*
X051744Y025381D01*
X051682Y025442D01*
X051744Y025564D02*
X051373Y025811D01*
X051744Y025811D01*
X051744Y025932D02*
X051744Y026117D01*
X051682Y026179D01*
X051435Y026179D01*
X051373Y026117D01*
X051373Y025932D01*
X051744Y025932D01*
X051744Y025564D02*
X051373Y025564D01*
X049454Y026582D02*
X049330Y026706D01*
X049083Y026706D01*
X049083Y026827D02*
X049083Y027074D01*
X049083Y026951D02*
X049454Y026951D01*
X049330Y026827D01*
X049268Y026706D02*
X049268Y026459D01*
X049330Y026459D02*
X049454Y026582D01*
X049330Y026459D02*
X049083Y026459D01*
X049083Y027419D02*
X049330Y027419D01*
X049454Y027542D01*
X049330Y027666D01*
X049083Y027666D01*
X049145Y027787D02*
X049083Y027849D01*
X049083Y027972D01*
X049145Y028034D01*
X049392Y028034D01*
X049145Y027787D01*
X049392Y027787D01*
X049454Y027849D01*
X049454Y027972D01*
X049392Y028034D01*
X049268Y027666D02*
X049268Y027419D01*
X049003Y020114D02*
X049003Y019867D01*
X049003Y019991D02*
X049374Y019991D01*
X049250Y019867D01*
X049312Y019746D02*
X049374Y019684D01*
X049374Y019561D01*
X049312Y019499D01*
X049065Y019499D01*
X049003Y019561D01*
X049003Y019684D01*
X049065Y019746D01*
X049003Y019377D02*
X049127Y019254D01*
X049127Y019316D02*
X049127Y019131D01*
X049003Y019131D02*
X049374Y019131D01*
X049374Y019316D01*
X049312Y019377D01*
X049188Y019377D01*
X049127Y019316D01*
X049065Y018834D02*
X049003Y018772D01*
X049003Y018649D01*
X049065Y018587D01*
X049312Y018587D01*
X049374Y018649D01*
X049374Y018772D01*
X049312Y018834D01*
X049312Y018466D02*
X049374Y018404D01*
X049374Y018281D01*
X049312Y018219D01*
X049250Y018219D01*
X049188Y018281D01*
X049188Y018404D01*
X049127Y018466D01*
X049065Y018466D01*
X049003Y018404D01*
X049003Y018281D01*
X049065Y018219D01*
X049065Y017874D02*
X049312Y017874D01*
X049374Y017812D01*
X049374Y017689D01*
X049312Y017627D01*
X049065Y017627D01*
X049003Y017689D01*
X049003Y017812D01*
X049065Y017874D01*
X049065Y017506D02*
X049003Y017444D01*
X049003Y017321D01*
X049065Y017259D01*
X049188Y017321D02*
X049188Y017444D01*
X049127Y017506D01*
X049065Y017506D01*
X049188Y017321D02*
X049250Y017259D01*
X049312Y017259D01*
X049374Y017321D01*
X049374Y017444D01*
X049312Y017506D01*
X049374Y016754D02*
X049127Y016754D01*
X049003Y016631D01*
X049127Y016507D01*
X049374Y016507D01*
X049374Y016386D02*
X049374Y016139D01*
X049188Y016139D01*
X049250Y016262D01*
X049250Y016324D01*
X049188Y016386D01*
X049065Y016386D01*
X049003Y016324D01*
X049003Y016201D01*
X049065Y016139D01*
X049065Y015794D02*
X049312Y015794D01*
X049374Y015732D01*
X049374Y015547D01*
X049003Y015547D01*
X049003Y015732D01*
X049065Y015794D01*
X049003Y015426D02*
X049374Y015426D01*
X049374Y015179D02*
X049003Y015426D01*
X049003Y015179D02*
X049374Y015179D01*
X049312Y015057D02*
X049374Y014996D01*
X049374Y014872D01*
X049312Y014811D01*
X049065Y014811D01*
X049003Y014872D01*
X049003Y014996D01*
X049065Y015057D01*
X049188Y015057D01*
X049188Y014934D01*
X051403Y014937D02*
X051403Y015061D01*
X051465Y015122D01*
X051588Y015122D01*
X051588Y014999D01*
X051465Y014876D02*
X051403Y014937D01*
X051465Y014876D02*
X051712Y014876D01*
X051774Y014937D01*
X051774Y015061D01*
X051712Y015122D01*
X051774Y015244D02*
X051403Y015491D01*
X051774Y015491D01*
X051774Y015612D02*
X051774Y015797D01*
X051712Y015859D01*
X051465Y015859D01*
X051403Y015797D01*
X051403Y015612D01*
X051774Y015612D01*
X051774Y015244D02*
X051403Y015244D01*
X051465Y016236D02*
X051403Y016297D01*
X051403Y016421D01*
X051465Y016482D01*
X051588Y016482D01*
X051650Y016421D01*
X051650Y016359D01*
X051588Y016236D01*
X051774Y016236D01*
X051774Y016482D01*
X051774Y016604D02*
X051527Y016604D01*
X051403Y016727D01*
X051527Y016851D01*
X051774Y016851D01*
X051712Y017276D02*
X051650Y017276D01*
X051588Y017337D01*
X051588Y017461D01*
X051527Y017522D01*
X051465Y017522D01*
X051403Y017461D01*
X051403Y017337D01*
X051465Y017276D01*
X051712Y017276D02*
X051774Y017337D01*
X051774Y017461D01*
X051712Y017522D01*
X051774Y017644D02*
X051774Y017767D01*
X051774Y017706D02*
X051403Y017706D01*
X051403Y017767D02*
X051403Y017644D01*
X051465Y018236D02*
X051403Y018297D01*
X051403Y018421D01*
X051465Y018482D01*
X051527Y018482D01*
X051588Y018421D01*
X051588Y018297D01*
X051650Y018236D01*
X051712Y018236D01*
X051774Y018297D01*
X051774Y018421D01*
X051712Y018482D01*
X051712Y018604D02*
X051465Y018604D01*
X051403Y018666D01*
X051403Y018789D01*
X051465Y018851D01*
X051712Y018851D02*
X051774Y018789D01*
X051774Y018666D01*
X051712Y018604D01*
X051774Y019116D02*
X051774Y019301D01*
X051712Y019362D01*
X051588Y019362D01*
X051527Y019301D01*
X051527Y019116D01*
X051527Y019239D02*
X051403Y019362D01*
X051465Y019484D02*
X051403Y019546D01*
X051403Y019669D01*
X051465Y019731D01*
X051403Y019852D02*
X051650Y020099D01*
X051712Y020099D01*
X051774Y020037D01*
X051774Y019914D01*
X051712Y019852D01*
X051712Y019731D02*
X051774Y019669D01*
X051774Y019546D01*
X051712Y019484D01*
X051465Y019484D01*
X051403Y019852D02*
X051403Y020099D01*
X051403Y019116D02*
X051774Y019116D01*
X040337Y014744D02*
X040337Y014497D01*
X040275Y014436D01*
X040152Y014436D01*
X040090Y014497D01*
X039969Y014436D02*
X039969Y014806D01*
X039783Y014806D01*
X039722Y014744D01*
X039722Y014621D01*
X039783Y014559D01*
X039969Y014559D01*
X039845Y014559D02*
X039722Y014436D01*
X039600Y014374D02*
X039353Y014374D01*
X039232Y014436D02*
X039109Y014436D01*
X039170Y014436D02*
X039170Y014806D01*
X039109Y014806D02*
X039232Y014806D01*
X038986Y014744D02*
X038986Y014497D01*
X038925Y014436D01*
X038801Y014436D01*
X038740Y014497D01*
X038618Y014436D02*
X038371Y014682D01*
X038371Y014744D01*
X038433Y014806D01*
X038556Y014806D01*
X038618Y014744D01*
X038740Y014744D02*
X038801Y014806D01*
X038925Y014806D01*
X038986Y014744D01*
X038618Y014436D02*
X038371Y014436D01*
X040090Y014744D02*
X040152Y014806D01*
X040275Y014806D01*
X040337Y014744D01*
X039672Y021752D02*
X039425Y021752D01*
X039363Y021814D01*
X039363Y021937D01*
X039425Y021999D01*
X039363Y022120D02*
X039734Y022120D01*
X039734Y022305D01*
X039672Y022367D01*
X039548Y022367D01*
X039487Y022305D01*
X039487Y022120D01*
X039487Y022244D02*
X039363Y022367D01*
X039302Y022489D02*
X039302Y022735D01*
X039363Y022857D02*
X039363Y022980D01*
X039363Y022919D02*
X039734Y022919D01*
X039734Y022980D02*
X039734Y022857D01*
X039672Y023102D02*
X039425Y023102D01*
X039363Y023164D01*
X039363Y023288D01*
X039425Y023349D01*
X039363Y023471D02*
X039363Y023718D01*
X039363Y023594D02*
X039734Y023594D01*
X039610Y023471D01*
X039672Y023349D02*
X039734Y023288D01*
X039734Y023164D01*
X039672Y023102D01*
X039672Y021999D02*
X039734Y021937D01*
X039734Y021814D01*
X039672Y021752D01*
D11*
X007145Y009067D02*
X007038Y009174D01*
X007038Y009388D01*
X007145Y009494D01*
X007038Y009712D02*
X007679Y009712D01*
X007679Y010032D01*
X007572Y010139D01*
X007359Y010139D01*
X007252Y010032D01*
X007252Y009712D01*
X007252Y009925D02*
X007038Y010139D01*
X006932Y010356D02*
X006932Y010783D01*
X007038Y011001D02*
X007038Y011428D01*
X007038Y011645D02*
X007465Y011645D01*
X007679Y011859D01*
X007465Y012073D01*
X007038Y012073D01*
X007038Y012290D02*
X007679Y012290D01*
X007038Y012717D01*
X007679Y012717D01*
X007359Y012073D02*
X007359Y011645D01*
X007679Y011001D02*
X007038Y011001D01*
X007572Y009494D02*
X007679Y009388D01*
X007679Y009174D01*
X007572Y009067D01*
X007145Y009067D01*
X007145Y016643D02*
X007038Y016750D01*
X007038Y016964D01*
X007145Y017070D01*
X007038Y017288D02*
X007679Y017288D01*
X007679Y017608D01*
X007572Y017715D01*
X007359Y017715D01*
X007252Y017608D01*
X007252Y017288D01*
X007252Y017501D02*
X007038Y017715D01*
X006932Y017932D02*
X006932Y018359D01*
X007145Y018577D02*
X007038Y018684D01*
X007038Y018897D01*
X007145Y019004D01*
X007679Y019004D01*
X007572Y019221D02*
X007465Y019221D01*
X007359Y019328D01*
X007359Y019542D01*
X007252Y019648D01*
X007145Y019648D01*
X007038Y019542D01*
X007038Y019328D01*
X007145Y019221D01*
X007572Y019221D02*
X007679Y019328D01*
X007679Y019542D01*
X007572Y019648D01*
X007679Y019866D02*
X007038Y019866D01*
X007038Y020186D01*
X007145Y020293D01*
X007252Y020293D01*
X007359Y020186D01*
X007359Y019866D01*
X007679Y019866D02*
X007679Y020186D01*
X007572Y020293D01*
X007465Y020293D01*
X007359Y020186D01*
X007145Y018577D02*
X007679Y018577D01*
X007572Y017070D02*
X007679Y016964D01*
X007679Y016750D01*
X007572Y016643D01*
X007145Y016643D01*
X007038Y023519D02*
X007679Y023519D01*
X007465Y023733D01*
X007679Y023946D01*
X007038Y023946D01*
X007038Y024164D02*
X007038Y024377D01*
X007038Y024271D02*
X007679Y024271D01*
X007679Y024377D02*
X007679Y024164D01*
X007679Y024594D02*
X007038Y024594D01*
X007038Y024914D01*
X007145Y025021D01*
X007572Y025021D01*
X007679Y024914D01*
X007679Y024594D01*
X007679Y025238D02*
X007679Y025452D01*
X007679Y025345D02*
X007038Y025345D01*
X007038Y025238D02*
X007038Y025452D01*
X006932Y025668D02*
X006932Y026095D01*
X007145Y026312D02*
X007038Y026419D01*
X007038Y026633D01*
X007145Y026739D01*
X007572Y026739D01*
X007679Y026633D01*
X007679Y026419D01*
X007572Y026312D01*
X007145Y026312D01*
X007145Y026957D02*
X007038Y027064D01*
X007038Y027277D01*
X007145Y027384D01*
X007679Y027384D01*
X007679Y027601D02*
X007679Y028028D01*
X007679Y027815D02*
X007038Y027815D01*
X007038Y028246D02*
X007465Y028673D01*
X007572Y028673D01*
X007679Y028566D01*
X007679Y028353D01*
X007572Y028246D01*
X007038Y028246D02*
X007038Y028673D01*
X007145Y026957D02*
X007679Y026957D01*
X011179Y027066D02*
X011179Y027493D01*
X011179Y025273D02*
X011179Y024846D01*
X011392Y025060D02*
X010965Y025060D01*
X007679Y031819D02*
X007465Y032032D01*
X007679Y032246D01*
X007038Y032246D01*
X007038Y032463D02*
X007038Y032677D01*
X007038Y032570D02*
X007679Y032570D01*
X007679Y032463D02*
X007679Y032677D01*
X007679Y032893D02*
X007679Y033213D01*
X007572Y033320D01*
X007145Y033320D01*
X007038Y033213D01*
X007038Y032893D01*
X007679Y032893D01*
X007679Y033537D02*
X007679Y033751D01*
X007679Y033644D02*
X007038Y033644D01*
X007038Y033537D02*
X007038Y033751D01*
X006932Y033967D02*
X006932Y034394D01*
X007038Y034612D02*
X007038Y034825D01*
X007038Y034719D02*
X007679Y034719D01*
X007679Y034825D02*
X007679Y034612D01*
X007679Y035041D02*
X007038Y035468D01*
X007679Y035468D01*
X007572Y035686D02*
X007679Y035793D01*
X007679Y036006D01*
X007572Y036113D01*
X007465Y036113D01*
X007038Y035686D01*
X007038Y036113D01*
X007038Y035041D02*
X007679Y035041D01*
X007679Y031819D02*
X007038Y031819D01*
X010965Y032920D02*
X011392Y032920D01*
X011179Y032706D02*
X011179Y033133D01*
X011179Y034846D02*
X011179Y035273D01*
X007679Y039179D02*
X007465Y039393D01*
X007679Y039606D01*
X007038Y039606D01*
X007038Y039824D02*
X007038Y040037D01*
X007038Y039931D02*
X007679Y039931D01*
X007679Y040037D02*
X007679Y039824D01*
X007679Y040254D02*
X007038Y040254D01*
X007038Y040574D01*
X007145Y040681D01*
X007572Y040681D01*
X007679Y040574D01*
X007679Y040254D01*
X007679Y040898D02*
X007679Y041112D01*
X007679Y041005D02*
X007038Y041005D01*
X007038Y040898D02*
X007038Y041112D01*
X006932Y041328D02*
X006932Y041755D01*
X007145Y041972D02*
X007038Y042079D01*
X007038Y042293D01*
X007145Y042399D01*
X007572Y042399D01*
X007679Y042293D01*
X007679Y042079D01*
X007572Y041972D01*
X007145Y041972D01*
X007145Y042617D02*
X007038Y042724D01*
X007038Y042937D01*
X007145Y043044D01*
X007679Y043044D01*
X007679Y043261D02*
X007679Y043688D01*
X007679Y043475D02*
X007038Y043475D01*
X007038Y043906D02*
X007038Y044333D01*
X007038Y044120D02*
X007679Y044120D01*
X007465Y043906D01*
X007679Y042617D02*
X007145Y042617D01*
X007038Y039179D02*
X007679Y039179D01*
X010945Y040640D02*
X011372Y040640D01*
X011159Y040426D02*
X011159Y040853D01*
X011159Y042486D02*
X011159Y042913D01*
X007679Y047359D02*
X007465Y047572D01*
X007679Y047786D01*
X007038Y047786D01*
X007038Y048003D02*
X007038Y048217D01*
X007038Y048110D02*
X007679Y048110D01*
X007679Y048003D02*
X007679Y048217D01*
X007679Y048433D02*
X007038Y048433D01*
X007038Y048753D01*
X007145Y048860D01*
X007572Y048860D01*
X007679Y048753D01*
X007679Y048433D01*
X007679Y049077D02*
X007679Y049291D01*
X007679Y049184D02*
X007038Y049184D01*
X007038Y049077D02*
X007038Y049291D01*
X006932Y049507D02*
X006932Y049934D01*
X007038Y050152D02*
X007038Y050365D01*
X007038Y050259D02*
X007679Y050259D01*
X007679Y050365D02*
X007679Y050152D01*
X007679Y050581D02*
X007038Y051008D01*
X007679Y051008D01*
X007465Y051226D02*
X007679Y051440D01*
X007038Y051440D01*
X007038Y051653D02*
X007038Y051226D01*
X007038Y050581D02*
X007679Y050581D01*
X007679Y047359D02*
X007038Y047359D01*
X010965Y048440D02*
X011392Y048440D01*
X011179Y048226D02*
X011179Y048653D01*
X011179Y050326D02*
X011179Y050753D01*
X011679Y054006D02*
X011679Y054433D01*
X011892Y054220D02*
X011465Y054220D01*
X013659Y054011D02*
X013659Y054438D01*
X013659Y056651D02*
X013659Y057078D01*
X011892Y056780D02*
X011465Y056780D01*
X011679Y056993D02*
X011679Y056566D01*
X017545Y056780D02*
X017972Y056780D01*
X017759Y056566D02*
X017759Y056993D01*
X019739Y057078D02*
X019739Y056651D01*
X019739Y054438D02*
X019739Y054011D01*
X017972Y054220D02*
X017545Y054220D01*
X017759Y054433D02*
X017759Y054006D01*
X023625Y054220D02*
X024052Y054220D01*
X023839Y054006D02*
X023839Y054433D01*
X025819Y054438D02*
X025819Y054011D01*
X025819Y056651D02*
X025819Y057078D01*
X024052Y056780D02*
X023625Y056780D01*
X023839Y056993D02*
X023839Y056566D01*
X029705Y056700D02*
X030132Y056700D01*
X029919Y056486D02*
X029919Y056913D01*
X031899Y056998D02*
X031899Y056571D01*
X031899Y054358D02*
X031899Y053931D01*
X030132Y054140D02*
X029705Y054140D01*
X029919Y054353D02*
X029919Y053926D01*
X034033Y054971D02*
X034460Y054651D01*
X034678Y054971D02*
X035105Y054971D01*
X035322Y055291D02*
X035749Y055291D01*
X035536Y055291D02*
X035536Y054651D01*
X035967Y054757D02*
X035967Y055291D01*
X036025Y055691D02*
X036238Y055691D01*
X036132Y055691D02*
X036132Y056331D01*
X036238Y056331D02*
X036025Y056331D01*
X035809Y056331D02*
X035382Y055691D01*
X035382Y056331D01*
X035164Y056011D02*
X034737Y056011D01*
X034520Y056331D02*
X034093Y056011D01*
X034520Y055691D01*
X034460Y055291D02*
X034033Y054971D01*
X035809Y055691D02*
X035809Y056331D01*
X036394Y055291D02*
X036394Y054757D01*
X036287Y054651D01*
X036074Y054651D01*
X035967Y054757D01*
X036611Y054757D02*
X036611Y055184D01*
X036718Y055291D01*
X036932Y055291D01*
X037038Y055184D01*
X037038Y054757D01*
X036932Y054651D01*
X036718Y054651D01*
X036611Y054757D01*
X043525Y045233D02*
X043418Y045126D01*
X043418Y044913D01*
X043525Y044806D01*
X043632Y044588D02*
X044059Y044588D01*
X043952Y044806D02*
X044059Y044913D01*
X044059Y045126D01*
X043952Y045233D01*
X043845Y045233D01*
X043739Y045126D01*
X043632Y045233D01*
X043525Y045233D01*
X043739Y045126D02*
X043739Y045020D01*
X043632Y044588D02*
X043418Y044375D01*
X043632Y044161D01*
X044059Y044161D01*
X043952Y043944D02*
X043845Y043944D01*
X043739Y043837D01*
X043632Y043944D01*
X043525Y043944D01*
X043418Y043837D01*
X043418Y043624D01*
X043525Y043517D01*
X043739Y043730D02*
X043739Y043837D01*
X043952Y043944D02*
X044059Y043837D01*
X044059Y043624D01*
X043952Y043517D01*
D12*
X047558Y027991D02*
X047558Y023341D01*
X051308Y023341D02*
X051308Y028041D01*
D13*
X016862Y013392D02*
X016862Y012931D01*
X016555Y012931D01*
X016402Y012931D02*
X016095Y012931D01*
X015941Y012931D02*
X015711Y012931D01*
X015634Y013008D01*
X015634Y013315D01*
X015711Y013392D01*
X015941Y013392D01*
X015941Y012931D01*
X016248Y013162D02*
X016402Y013162D01*
X016402Y013392D02*
X016402Y012931D01*
X016402Y013392D02*
X016095Y013392D01*
X015481Y013162D02*
X015174Y013162D01*
X015021Y013315D02*
X015021Y013008D01*
X014944Y012931D01*
X014790Y012931D01*
X014714Y013008D01*
X014714Y013162D01*
X014867Y013162D01*
X014714Y013315D02*
X014790Y013392D01*
X014944Y013392D01*
X015021Y013315D01*
X013861Y012512D02*
X013861Y012051D01*
X013861Y012205D02*
X013631Y012205D01*
X013554Y012282D01*
X013554Y012435D01*
X013631Y012512D01*
X013861Y012512D01*
X013708Y012205D02*
X013554Y012051D01*
X013401Y012051D02*
X013401Y012512D01*
X013171Y012512D01*
X013094Y012435D01*
X013094Y012128D01*
X013171Y012051D01*
X013401Y012051D01*
X012941Y012282D02*
X012634Y012282D01*
X010880Y012551D02*
X010880Y013012D01*
X010650Y013012D01*
X010573Y012935D01*
X010573Y012782D01*
X010650Y012705D01*
X010880Y012705D01*
X010727Y012705D02*
X010573Y012551D01*
X010420Y012551D02*
X010190Y012551D01*
X010113Y012628D01*
X010113Y012935D01*
X010190Y013012D01*
X010420Y013012D01*
X010420Y012551D01*
X009959Y012782D02*
X009652Y012782D01*
X009806Y012935D02*
X009806Y012628D01*
X010190Y009972D02*
X010420Y009972D01*
X010420Y009511D01*
X010190Y009511D01*
X010113Y009588D01*
X010113Y009895D01*
X010190Y009972D01*
X009959Y009742D02*
X009652Y009742D01*
X009806Y009895D02*
X009806Y009588D01*
X010573Y009972D02*
X010880Y009972D01*
X010727Y009972D02*
X010727Y009511D01*
X012634Y009242D02*
X012941Y009242D01*
X013094Y009395D02*
X013171Y009472D01*
X013401Y009472D01*
X013401Y009011D01*
X013171Y009011D01*
X013094Y009088D01*
X013094Y009395D01*
X013554Y009472D02*
X013861Y009472D01*
X013708Y009472D02*
X013708Y009011D01*
X014714Y008995D02*
X014714Y009072D01*
X014714Y008995D02*
X014867Y008842D01*
X014867Y008611D01*
X014867Y008842D02*
X015021Y008995D01*
X015021Y009072D01*
X015174Y008842D02*
X015481Y008842D01*
X015634Y008995D02*
X015711Y009072D01*
X015941Y009072D01*
X015941Y008611D01*
X015711Y008611D01*
X015634Y008688D01*
X015634Y008995D01*
X016095Y009072D02*
X016402Y009072D01*
X016402Y008611D01*
X016095Y008611D01*
X016248Y008842D02*
X016402Y008842D01*
X016555Y008611D02*
X016862Y008611D01*
X016862Y009072D01*
M02*
