%
M48
M72
T01C0.0130
T02C0.0236
T03C0.0320
T04C0.0354
T05C0.0360
T06C0.0374
T07C0.0394
T08C0.0400
T09C0.0433
T10C0.0551
T11C0.0630
T12C0.1220
T13C0.1299
%
T01
X22408Y17241
X22968Y19241
X22348Y21581
X22508Y22541
X23458Y24191
X23458Y27341
X28158Y30911
X30928Y33081
X32028Y33181
X32578Y32571
X35228Y37021
X34448Y37381
X33948Y37821
X33308Y37421
X27548Y35101
X23468Y36461
X21948Y40941
X20348Y43421
X17628Y45181
X33788Y27181
X34428Y26701
X33228Y26541
X39008Y25781
X27308Y13981
X26988Y13261
X25608Y12281
X27528Y11021
X30188Y10381
X41868Y43181
T02
X35788Y11021
X24408Y7841
T03
X35808Y13121
X36808Y13121
X37808Y13121
X38808Y13121
X39808Y13121
X40808Y13121
X41808Y13121
X42808Y13121
X42830Y11719
X41808Y11741
X40808Y11741
X39808Y11741
X38808Y11741
X37808Y11741
X36808Y11741
X36808Y16121
X35808Y16121
X37808Y16121
X38808Y16121
X39808Y16121
X40808Y16121
X41808Y16121
X42808Y16121
X44628Y16561
X44668Y15121
X44668Y14121
X45418Y14621
X46208Y14621
X47628Y16561
X50363Y13123
X49371Y12633
X51347Y11347
X50363Y10123
X49371Y9633
X51347Y8347
X46208Y11621
X44830Y11719
X41109Y18297
X41109Y19297
X41109Y20297
X41109Y21297
X41109Y22297
X41109Y23297
X41109Y24297
X41109Y25297
X41109Y26297
X41109Y27297
X41078Y29024
X39078Y29024
X38109Y27297
X38109Y26297
X38109Y25297
X38109Y24297
X38109Y23297
X38109Y22297
X38109Y21297
X38109Y20297
X38109Y19297
X38109Y18297
X38079Y33646
X38062Y34536
X41062Y34536
X41079Y33646
X41068Y38301
X41068Y39181
X38068Y39181
X38068Y38301
X36028Y45381
X34088Y47101
X33368Y48801
X33368Y49801
X33368Y50801
X33368Y51801
X34088Y52941
X34668Y52041
X35548Y52041
X36428Y52041
X37728Y51801
X37728Y50801
X37728Y49801
X37728Y48801
X36428Y49041
X36028Y48381
X35548Y49041
X34668Y49041
X31088Y47101
X30368Y48801
X30368Y49801
X30368Y50801
X30368Y51801
X31088Y52941
X28908Y52041
X28028Y52041
X27128Y52041
X26568Y52861
X25768Y51801
X25768Y50801
X25768Y49801
X25768Y48801
X27128Y49041
X28028Y49041
X28508Y48381
X28908Y49041
X26488Y47101
X28508Y45381
X23488Y47101
X22768Y48801
X22768Y49801
X22768Y50801
X22768Y51801
X23568Y52861
X21348Y52041
X20548Y52041
X19708Y52041
X18168Y51801
X18168Y50801
X18168Y49801
X18168Y48801
X19708Y49041
X20548Y49041
X21348Y49041
X20988Y48361
X18888Y47101
X20988Y45361
X15888Y47101
X15168Y48801
X15168Y49801
X15168Y50801
X15168Y51801
X15248Y52861
X13868Y52041
X13868Y49041
X13708Y48121
X13708Y45121
X18248Y52861
X38608Y52781
X40728Y51801
X40728Y50801
X40728Y49801
X40728Y48801
X42108Y49041
X42988Y49041
X41528Y47101
X38528Y47101
X42108Y52041
X42988Y52041
X41608Y52781
X44828Y40901
X44828Y38901
X18899Y26548
X18899Y23548
X16944Y22533
X13944Y22533
T04
X16935Y23566
X16935Y24566
X16908Y27481
X16908Y28481
X20321Y28565
X20321Y29565
X20321Y30565
X20321Y31565
X20321Y32565
X20321Y33565
X20321Y34565
X20321Y35565
X20321Y36565
X20321Y37565
X20321Y38565
X20321Y39565
X22455Y39565
X22451Y38565
X23449Y38565
X23455Y39565
X24449Y39565
X24449Y38565
X25449Y38565
X25449Y39565
X26449Y39565
X27449Y39565
X27449Y38565
X26449Y38565
X26449Y37565
X27449Y37565
X27449Y36565
X25449Y37565
X24449Y37565
X23449Y37565
X22455Y37565
X29321Y37565
X29321Y38565
X29321Y39565
X29321Y36565
X29321Y35565
X29321Y34565
X29321Y33565
X29321Y32565
X29321Y31565
X29321Y30565
X29321Y29565
X29321Y28565
X29321Y27565
X29321Y26565
X29321Y25565
X29321Y24565
X29321Y23565
X29321Y22565
X29321Y21565
X29321Y20565
X29321Y19565
X29321Y18565
X29321Y17565
X29321Y16565
X29321Y15565
X29321Y14565
X29321Y13565
X23628Y10941
X22628Y10941
X20321Y13565
X20321Y14565
X20321Y15565
X20321Y16565
X20321Y17565
X20321Y18565
X20321Y19565
X20321Y20565
X20321Y21565
X20321Y22565
X20321Y23565
X20321Y24565
X20321Y25565
X20321Y26565
X20321Y27565
X16877Y20021
X16877Y19021
X13061Y17988
X12061Y17988
X11220Y12761
X11220Y11761
X11220Y10761
X11220Y9761
X12220Y9261
X12220Y10261
X12220Y11261
X12220Y12261
X42988Y33641
X42988Y34641
T05
X46168Y27661
X47168Y27661
X47168Y26661
X47168Y25661
X46168Y25661
X46168Y26661
X46168Y24661
X47168Y24661
X47168Y23661
X46168Y23661
X49908Y23681
X49908Y24681
X49908Y25681
X49908Y26681
X49908Y27681
X50908Y27681
X50908Y26681
X50908Y25681
X50908Y24681
X50908Y23681
X50868Y19561
X49868Y19561
X49868Y18561
X49868Y17561
X50868Y17561
X50868Y18561
X50868Y16561
X49868Y16561
X49868Y15561
X50868Y15561
X47048Y5981
X46048Y5981
X45048Y5981
X44048Y5981
X43048Y5981
X43048Y4981
X44048Y4981
X45048Y4981
X46048Y4981
X47048Y4981
X38968Y4981
X38968Y5981
X37968Y5981
X36968Y5981
X35968Y5981
X34968Y5981
X33968Y5981
X32968Y5981
X31968Y5981
X31968Y4981
X32968Y4981
X33968Y4981
X34968Y4981
X35968Y4981
X36968Y4981
X37968Y4981
X37968Y8841
X37968Y9841
X36968Y9841
X36968Y8841
X35968Y8841
X35968Y9841
X34968Y9841
X34968Y8841
X33968Y8841
X33968Y9841
X32968Y9841
X32968Y8841
X31968Y8841
X31968Y9841
X26408Y5989
X25408Y5989
X25408Y4989
X26408Y4989
X24408Y4989
X24408Y5989
X23408Y5989
X23408Y4989
X22408Y4989
X22408Y5989
X38968Y8841
X38968Y9841
X49908Y31821
X49908Y32821
X49908Y33821
X49908Y34821
X49908Y35821
X50908Y35821
X50908Y34821
X50908Y33821
X50908Y32821
X50908Y31821
X50908Y39921
X50908Y40921
X50908Y41921
X50908Y42921
X50908Y43921
X49908Y43921
X49908Y42921
X49908Y41921
X49908Y40921
X49908Y39921
X31928Y55001
X31928Y56001
X30928Y56001
X29928Y56001
X29928Y55001
X30928Y55001
X25848Y55001
X24848Y55001
X24848Y56001
X25848Y56001
X23848Y56001
X23848Y55001
X19768Y55001
X19768Y56001
X18768Y56001
X17768Y56001
X17768Y55001
X18768Y55001
X13688Y55001
X13688Y56001
X12688Y56001
X11688Y56001
X11688Y55001
X12688Y55001
X15528Y44221
X15528Y43221
X16528Y43221
X16528Y44221
X16528Y42221
X15528Y42221
X15528Y41221
X15528Y40221
X16528Y40221
X16528Y41221
X16528Y36141
X15528Y36141
X15528Y35141
X16528Y35141
X16528Y34141
X15528Y34141
X15528Y33141
X15528Y32141
X16528Y32141
X16528Y33141
T06
X10429Y18976
X9641Y18976
X9641Y17992
X10429Y17992
T07
X14122Y13163
X14122Y12163
X14122Y9860
X14122Y8860
T08
X39068Y32541
X40068Y32541
X41068Y32541
X41047Y35823
X40047Y35823
X39047Y35823
X38047Y35823
X38068Y40441
X39068Y40441
X40068Y40441
X41068Y40441
X44708Y44461
X46708Y44461
X44724Y49548
X44724Y50548
X44724Y51548
X44148Y10501
X42148Y9501
X44148Y8501
X45908Y9501
X47908Y10501
X47908Y8501
T09
X47977Y55681
X46008Y55681
X44040Y55681
X42017Y55681
X40048Y55681
X38080Y55681
T10
X11220Y51484
X10236Y52468
X10236Y49515
X11220Y47547
X10236Y46563
X10236Y44712
X11220Y43728
X10236Y41759
X11220Y39791
X10236Y38807
X10236Y36917
X11220Y35933
X10236Y33964
X11220Y31996
X10236Y31011
X10236Y29122
X11220Y28137
X10236Y26169
X11220Y24200
X10236Y23216
X6299Y24200
X6299Y28137
X6299Y31996
X6299Y35933
X6299Y39791
X6299Y43728
X6299Y47547
X6299Y51484
T11
X8574Y20972
X8574Y15854
X9921Y14230
X9921Y7793
T12
X7677Y4909
X33267Y16720
X50984Y4909
X25393Y44279
X7677Y56090
X50984Y56090
T13
X8720Y13261
X8720Y8761
M30
