G75*
%MOIN*%
%OFA0B0*%
%FSLAX24Y24*%
%IPPOS*%
%LPD*%
%AMOC8*
5,1,8,0,0,1.08239X$1,22.5*
%
%ADD10R,0.0594X0.0594*%
%ADD11C,0.0594*%
%ADD12OC8,0.0630*%
%ADD13C,0.0630*%
%ADD14OC8,0.0520*%
%ADD15OC8,0.0560*%
%ADD16R,0.2300X0.2300*%
%ADD17C,0.0520*%
%ADD18C,0.0320*%
%ADD19C,0.0240*%
%ADD20C,0.0660*%
%ADD21C,0.0560*%
%ADD22C,0.0396*%
%ADD23C,0.0400*%
%ADD24C,0.0120*%
%ADD25C,0.0531*%
%ADD26C,0.0100*%
%ADD27C,0.0290*%
D10*
X017635Y014217D03*
X028462Y014217D03*
X039288Y014217D03*
X050115Y014217D03*
X060942Y014217D03*
X071769Y014217D03*
X082596Y014217D03*
X093422Y014217D03*
D11*
X092422Y014217D03*
X091422Y014217D03*
X090422Y014217D03*
X089422Y014217D03*
X088422Y014217D03*
X087422Y014217D03*
X086422Y014217D03*
X086422Y013217D03*
X087422Y013217D03*
X088422Y013217D03*
X089422Y013217D03*
X090422Y013217D03*
X091422Y013217D03*
X092422Y013217D03*
X093422Y013217D03*
X082596Y013217D03*
X081596Y013217D03*
X080596Y013217D03*
X079596Y013217D03*
X078596Y013217D03*
X077596Y013217D03*
X076596Y013217D03*
X075596Y013217D03*
X071769Y013217D03*
X070769Y013217D03*
X069769Y013217D03*
X068769Y013217D03*
X067769Y013217D03*
X066769Y013217D03*
X065769Y013217D03*
X064769Y013217D03*
X060942Y013217D03*
X059942Y013217D03*
X058942Y013217D03*
X057942Y013217D03*
X056942Y013217D03*
X055942Y013217D03*
X054942Y013217D03*
X053942Y013217D03*
X050115Y013217D03*
X049115Y013217D03*
X048115Y013217D03*
X047115Y013217D03*
X046115Y013217D03*
X045115Y013217D03*
X044115Y013217D03*
X043115Y013217D03*
X039288Y013217D03*
X038288Y013217D03*
X037288Y013217D03*
X036288Y013217D03*
X035288Y013217D03*
X034288Y013217D03*
X033288Y013217D03*
X032288Y013217D03*
X028462Y013217D03*
X027462Y013217D03*
X026462Y013217D03*
X025462Y013217D03*
X024462Y013217D03*
X023462Y013217D03*
X022462Y013217D03*
X021462Y013217D03*
X017635Y013217D03*
X016635Y013217D03*
X015635Y013217D03*
X014635Y013217D03*
X013635Y013217D03*
X012635Y013217D03*
X011635Y013217D03*
X010635Y013217D03*
X010635Y014217D03*
X011635Y014217D03*
X012635Y014217D03*
X013635Y014217D03*
X014635Y014217D03*
X015635Y014217D03*
X016635Y014217D03*
X021462Y014217D03*
X022462Y014217D03*
X023462Y014217D03*
X024462Y014217D03*
X025462Y014217D03*
X026462Y014217D03*
X027462Y014217D03*
X032288Y014217D03*
X033288Y014217D03*
X034288Y014217D03*
X035288Y014217D03*
X036288Y014217D03*
X037288Y014217D03*
X038288Y014217D03*
X043115Y014217D03*
X044115Y014217D03*
X045115Y014217D03*
X046115Y014217D03*
X047115Y014217D03*
X048115Y014217D03*
X049115Y014217D03*
X053942Y014217D03*
X054942Y014217D03*
X055942Y014217D03*
X056942Y014217D03*
X057942Y014217D03*
X058942Y014217D03*
X059942Y014217D03*
X064769Y014217D03*
X065769Y014217D03*
X066769Y014217D03*
X067769Y014217D03*
X068769Y014217D03*
X069769Y014217D03*
X070769Y014217D03*
X075596Y014217D03*
X076596Y014217D03*
X077596Y014217D03*
X078596Y014217D03*
X079596Y014217D03*
X080596Y014217D03*
X081596Y014217D03*
D12*
X090461Y010220D03*
X074681Y004180D03*
X072681Y004180D03*
X063901Y004160D03*
X061901Y004160D03*
D13*
X090461Y011220D03*
D14*
X085441Y011220D03*
X085441Y008220D03*
D15*
X092961Y008220D03*
X093961Y008220D03*
X093961Y007220D03*
X092961Y007220D03*
X092961Y006220D03*
X093961Y006220D03*
X093961Y009220D03*
X092961Y009220D03*
X092961Y010220D03*
X093961Y010220D03*
X033861Y006020D03*
X032861Y006020D03*
X031861Y006020D03*
X030861Y006020D03*
X029861Y006020D03*
X028861Y006020D03*
X027861Y006020D03*
X026861Y006020D03*
X026861Y005020D03*
X027861Y005020D03*
X028861Y005020D03*
X029861Y005020D03*
X030861Y005020D03*
X031861Y005020D03*
X032861Y005020D03*
X033861Y005020D03*
X011021Y006200D03*
X010021Y006200D03*
X010021Y007200D03*
X011021Y007200D03*
X011021Y008200D03*
X010021Y008200D03*
X010021Y009200D03*
X011021Y009200D03*
X011021Y010200D03*
X010021Y010200D03*
D16*
X019548Y016292D03*
X041202Y016292D03*
X062855Y016292D03*
X084509Y016292D03*
X084509Y001725D03*
X062855Y001725D03*
X041202Y001725D03*
X019548Y001725D03*
D17*
X043101Y005680D03*
X044101Y005680D03*
X045101Y005680D03*
X046101Y005680D03*
X047101Y005680D03*
X048101Y005680D03*
X049101Y005680D03*
X050101Y005680D03*
X053885Y005680D03*
X054885Y005680D03*
X055885Y005680D03*
X056885Y005680D03*
X057885Y005680D03*
X058885Y005680D03*
X059885Y005680D03*
X060885Y005680D03*
X060885Y008680D03*
X059885Y008680D03*
X058885Y008680D03*
X057885Y008680D03*
X056885Y008680D03*
X055885Y008680D03*
X054885Y008680D03*
X053885Y008680D03*
X050101Y008680D03*
X049101Y008680D03*
X048101Y008680D03*
X047101Y008680D03*
X046101Y008680D03*
X045101Y008680D03*
X044101Y008680D03*
X043101Y008680D03*
D18*
X093422Y014217D02*
X093441Y014180D01*
D19*
X093761Y014180D01*
X093460Y014180D02*
X093441Y014180D01*
X093901Y013720D02*
X093941Y013720D01*
X094081Y013860D01*
X093901Y013720D02*
X082621Y013720D01*
X082596Y013746D01*
X082596Y014217D01*
X082621Y013720D02*
X071781Y013720D01*
X071769Y013732D01*
X071769Y014217D01*
X071781Y013720D02*
X060941Y013720D01*
X060942Y013720D01*
X060942Y014217D01*
X060941Y013720D02*
X052561Y013720D01*
X050161Y013720D01*
X050115Y013766D01*
X050115Y014217D01*
X050161Y013720D02*
X039341Y013720D01*
X039288Y013773D01*
X039288Y014217D01*
X039341Y013720D02*
X028481Y013720D01*
X028462Y013739D01*
X028462Y014217D01*
X028481Y013720D02*
X018701Y013720D01*
X018701Y006840D02*
X017281Y006980D01*
D20*
X035281Y006980D01*
X035281Y005540D01*
X034761Y005020D01*
X033861Y005020D01*
X039281Y006980D02*
X042481Y003940D01*
X052721Y003940D01*
X053921Y003940D01*
X054001Y003940D01*
X059921Y003940D01*
X061681Y003940D01*
X065921Y008180D01*
X074801Y008180D01*
X089201Y008180D01*
X090161Y007220D01*
X092961Y007220D01*
X093961Y007220D01*
X094401Y007220D01*
X094721Y007540D01*
X094721Y013220D01*
X094161Y013780D01*
X094081Y013860D01*
X093761Y014180D01*
X054001Y003940D02*
X053921Y003940D01*
X039281Y006980D02*
X035281Y006980D01*
X017281Y006980D02*
X012081Y006900D01*
X011541Y007200D01*
X011021Y007200D01*
X010021Y007200D01*
D21*
X074681Y008060D02*
X074681Y004180D01*
X074681Y008060D02*
X074801Y008180D01*
D22*
X018701Y009340D03*
X018701Y013720D03*
D23*
X018132Y013720D01*
X017635Y014217D01*
X018701Y009340D02*
X018701Y006840D01*
D24*
X009761Y005540D02*
X028341Y005540D01*
X031341Y005540D01*
X031861Y005020D01*
X032361Y004760D02*
X032361Y005520D01*
X031861Y006020D01*
X032361Y004760D02*
X032101Y004500D01*
X028301Y004500D01*
X010401Y004500D01*
X009121Y005700D01*
X009121Y009300D01*
X010021Y010200D01*
X010001Y012820D02*
X012881Y009940D01*
X042161Y009940D01*
X043101Y009000D01*
X043101Y008680D01*
X039521Y008180D02*
X042961Y004740D01*
X043041Y004660D01*
X057861Y004660D01*
X057941Y004736D01*
X058885Y005680D01*
X054561Y007940D02*
X051681Y005060D01*
X050561Y005060D01*
X043681Y005060D01*
X043101Y005640D01*
X043101Y005680D01*
X044101Y005680D02*
X046201Y007780D01*
X050401Y007780D01*
X052721Y010100D01*
X057521Y010100D01*
X058885Y008736D01*
X058885Y008680D01*
X059201Y007940D02*
X059885Y008623D01*
X059885Y008680D01*
X057885Y008680D02*
X057885Y008776D01*
X056801Y009860D01*
X052881Y009860D01*
X050561Y007540D01*
X046961Y007540D01*
X045101Y005680D01*
X046101Y005680D02*
X047721Y007300D01*
X050721Y007300D01*
X053041Y009620D01*
X055921Y009620D01*
X056861Y008680D01*
X056885Y008680D01*
X055885Y008696D02*
X055885Y008680D01*
X055885Y008696D02*
X055201Y009380D01*
X053201Y009380D01*
X050881Y007060D01*
X048481Y007060D01*
X047101Y005680D01*
X048101Y005680D02*
X049241Y006820D01*
X051041Y006820D01*
X053361Y009140D01*
X054481Y009140D01*
X054885Y008736D01*
X054885Y008680D01*
X053885Y008680D02*
X053861Y008680D01*
X051761Y006580D01*
X050001Y006580D01*
X049101Y005680D01*
X054561Y007940D02*
X059201Y007940D01*
X054441Y010580D02*
X065281Y010580D01*
X076101Y010580D01*
X086921Y010580D01*
X087361Y010580D01*
X088941Y010580D01*
X091301Y008220D01*
X092961Y008220D01*
X092961Y009220D02*
X093481Y009740D01*
X093481Y010660D01*
X091641Y012500D01*
X089425Y012500D01*
X089422Y013217D01*
X087422Y013217D02*
X087421Y013216D01*
X089425Y012500D02*
X078721Y012500D01*
X078641Y012500D01*
X078596Y012546D01*
X078596Y013217D01*
X078641Y012500D02*
X067841Y012500D01*
X067761Y012500D01*
X067769Y012507D01*
X067769Y013217D01*
X067761Y012500D02*
X056961Y012500D01*
X056942Y012519D01*
X056942Y013217D01*
X056961Y012500D02*
X046161Y012500D01*
X046115Y012546D01*
X046115Y013217D01*
X046161Y012500D02*
X035281Y012500D01*
X035288Y012507D01*
X035288Y013217D01*
X035281Y012500D02*
X024481Y012500D01*
X024462Y012519D01*
X024462Y013217D01*
X024481Y012500D02*
X014081Y012500D01*
X013635Y012946D01*
X013635Y013217D01*
X013121Y012820D02*
X014081Y011860D01*
X023961Y011860D01*
X024081Y011860D01*
X034801Y011860D01*
X045621Y011860D01*
X056441Y011860D01*
X067281Y011860D01*
X078101Y011860D01*
X088921Y011860D01*
X088961Y011860D01*
X091321Y011860D01*
X092961Y010220D01*
X090461Y011220D02*
X087421Y011220D01*
X087441Y011220D01*
X087421Y011220D02*
X085441Y011220D01*
X076681Y011220D01*
X085441Y011220D01*
X076681Y011220D02*
X076581Y011220D01*
X076596Y011234D01*
X076581Y011220D02*
X065761Y011220D01*
X054941Y011220D01*
X044101Y011220D01*
X033281Y011220D01*
X022461Y011220D01*
X022401Y011220D01*
X022461Y011220D01*
X022401Y011220D02*
X013601Y011220D01*
X013361Y011460D01*
X011635Y013186D01*
X011635Y013217D01*
X011121Y012820D02*
X013281Y010660D01*
X013361Y010580D01*
X021961Y010580D01*
X032801Y010580D01*
X043621Y010580D01*
X054441Y010580D01*
X052721Y013700D02*
X052581Y013700D01*
X052561Y013720D01*
X024081Y011860D02*
X023961Y011860D01*
X013635Y014213D02*
X013121Y013700D01*
X013121Y012820D01*
X011121Y012820D02*
X011121Y013700D01*
X011635Y014213D01*
X011635Y014217D01*
X010635Y014217D02*
X010598Y014180D01*
X010001Y013540D01*
X010001Y013460D01*
X010001Y012820D01*
X013635Y014213D02*
X013635Y014217D01*
X010021Y009200D02*
X009981Y009200D01*
X009441Y008660D01*
X009441Y005860D01*
X009761Y005540D01*
X074801Y008180D02*
X079561Y008180D01*
X085441Y008220D01*
D25*
X059921Y003940D03*
X053921Y003940D03*
X052721Y003940D03*
X052721Y013700D03*
D26*
X018103Y003353D02*
X018103Y000400D01*
X018108Y000369D01*
X018139Y000315D01*
X018192Y000284D01*
X018192Y000284D01*
X018223Y000280D01*
X020873Y000280D01*
X020904Y000284D01*
X020958Y000315D01*
X020989Y000369D01*
X020993Y000400D01*
X020993Y003353D01*
X021069Y003430D01*
X039681Y003430D01*
X039757Y003353D01*
X039757Y000400D01*
X039761Y000369D01*
X039792Y000315D01*
X039846Y000284D01*
X039877Y000280D01*
X042527Y000280D01*
X042558Y000284D01*
X042611Y000315D01*
X042643Y000369D01*
X042647Y000400D01*
X042647Y003353D01*
X042723Y003430D01*
X061334Y003430D01*
X061411Y003353D01*
X061411Y000400D01*
X061415Y000369D01*
X061446Y000315D01*
X061499Y000284D01*
X061531Y000280D01*
X064180Y000280D01*
X064211Y000284D01*
X064265Y000315D01*
X064296Y000369D01*
X064300Y000400D01*
X064300Y003353D01*
X064376Y003430D01*
X082988Y003430D01*
X083064Y003353D01*
X083064Y000400D01*
X083068Y000369D01*
X083099Y000315D01*
X083153Y000284D01*
X083184Y000280D01*
X085834Y000280D01*
X085865Y000284D01*
X085919Y000315D01*
X085950Y000369D01*
X085954Y000400D01*
X085954Y003353D01*
X086030Y003430D01*
X095206Y003430D01*
X095206Y014587D01*
X093980Y014587D01*
X094022Y014570D01*
X094471Y014120D01*
X094551Y014040D01*
X095111Y013480D01*
X095181Y013311D01*
X095181Y007448D01*
X095111Y007279D01*
X094982Y007150D01*
X094662Y006830D01*
X094493Y006760D01*
X090070Y006760D01*
X089901Y006830D01*
X089772Y006959D01*
X089011Y007720D01*
X075091Y007720D01*
X075091Y004399D01*
X075126Y004364D01*
X075126Y003995D01*
X074866Y003735D01*
X074497Y003735D01*
X074236Y003995D01*
X074236Y004364D01*
X074271Y004399D01*
X074271Y007720D01*
X066112Y007720D01*
X062071Y003679D01*
X062071Y003679D01*
X061942Y003550D01*
X061773Y003480D01*
X042487Y003480D01*
X042402Y003477D01*
X042396Y003480D01*
X042390Y003480D01*
X042311Y003512D01*
X042231Y003543D01*
X042227Y003547D01*
X042221Y003550D01*
X042160Y003610D01*
X039098Y006520D01*
X035741Y006520D01*
X035741Y005448D01*
X035671Y005279D01*
X035542Y005150D01*
X035022Y004630D01*
X034853Y004560D01*
X033770Y004560D01*
X033601Y004630D01*
X033472Y004759D01*
X033401Y004928D01*
X033401Y005111D01*
X033472Y005280D01*
X033601Y005410D01*
X033770Y005480D01*
X034571Y005480D01*
X034821Y005730D01*
X034821Y006520D01*
X018791Y006520D01*
X018767Y006510D01*
X018636Y006510D01*
X018612Y006520D01*
X017285Y006520D01*
X012149Y006441D01*
X012120Y006432D01*
X012059Y006439D01*
X011997Y006438D01*
X011969Y006450D01*
X011938Y006453D01*
X011884Y006483D01*
X011827Y006506D01*
X011805Y006527D01*
X011422Y006740D01*
X009930Y006740D01*
X009761Y006810D01*
X009632Y006939D01*
X009631Y006939D01*
X009631Y005938D01*
X009840Y005730D01*
X026572Y005730D01*
X026451Y005850D01*
X026451Y006189D01*
X026692Y006430D01*
X027031Y006430D01*
X027271Y006189D01*
X027271Y005850D01*
X027151Y005730D01*
X027572Y005730D01*
X027451Y005850D01*
X027451Y006189D01*
X027692Y006430D01*
X028031Y006430D01*
X028271Y006189D01*
X028271Y005850D01*
X028151Y005730D01*
X028572Y005730D01*
X028451Y005850D01*
X028451Y006189D01*
X028692Y006430D01*
X029031Y006430D01*
X029271Y006189D01*
X029271Y005850D01*
X029151Y005730D01*
X029572Y005730D01*
X029451Y005850D01*
X029451Y006189D01*
X029692Y006430D01*
X030031Y006430D01*
X030271Y006189D01*
X030271Y005850D01*
X030151Y005730D01*
X030572Y005730D01*
X030451Y005850D01*
X030451Y006189D01*
X030692Y006430D01*
X031031Y006430D01*
X031271Y006189D01*
X031271Y005850D01*
X031151Y005730D01*
X031420Y005730D01*
X031720Y005430D01*
X032031Y005430D01*
X032171Y005289D01*
X032171Y005441D01*
X032003Y005610D01*
X031692Y005610D01*
X031451Y005850D01*
X031451Y006189D01*
X031692Y006430D01*
X032031Y006430D01*
X032271Y006189D01*
X032271Y005878D01*
X032551Y005598D01*
X032551Y005289D01*
X032692Y005430D01*
X033031Y005430D01*
X033271Y005189D01*
X033271Y004850D01*
X033031Y004610D01*
X032692Y004610D01*
X032551Y004750D01*
X032551Y004681D01*
X032440Y004570D01*
X032180Y004310D01*
X010405Y004310D01*
X010329Y004307D01*
X010326Y004310D01*
X010323Y004310D01*
X010269Y004363D01*
X009046Y005510D01*
X009043Y005510D01*
X008989Y005563D01*
X008934Y005615D01*
X008934Y005618D01*
X008931Y005621D01*
X008931Y005697D01*
X008929Y005772D01*
X008931Y005775D01*
X008931Y009378D01*
X009611Y010058D01*
X009611Y010369D01*
X009852Y010610D01*
X010191Y010610D01*
X010431Y010369D01*
X010431Y010030D01*
X010191Y009790D01*
X009880Y009790D01*
X009311Y009221D01*
X009311Y008798D01*
X009363Y008850D01*
X009611Y009098D01*
X009611Y009369D01*
X009852Y009610D01*
X010191Y009610D01*
X010431Y009369D01*
X010431Y009030D01*
X010191Y008790D01*
X009852Y008790D01*
X009846Y008795D01*
X009631Y008581D01*
X009631Y008389D01*
X009852Y008610D01*
X010191Y008610D01*
X010431Y008369D01*
X010431Y008030D01*
X010191Y007790D01*
X009852Y007790D01*
X009631Y008010D01*
X009631Y007460D01*
X009632Y007460D01*
X009761Y007590D01*
X009930Y007660D01*
X011477Y007660D01*
X011503Y007667D01*
X011568Y007660D01*
X011633Y007660D01*
X011658Y007649D01*
X011685Y007646D01*
X011742Y007615D01*
X011802Y007590D01*
X011821Y007570D01*
X012197Y007361D01*
X017187Y007438D01*
X017190Y007440D01*
X017278Y007440D01*
X017366Y007441D01*
X017369Y007440D01*
X018371Y007440D01*
X018371Y009405D01*
X018422Y009527D01*
X018515Y009619D01*
X018636Y009670D01*
X018767Y009670D01*
X018888Y009619D01*
X018981Y009527D01*
X019031Y009405D01*
X019031Y007440D01*
X039276Y007440D01*
X039361Y007442D01*
X039367Y007440D01*
X039373Y007440D01*
X039452Y007407D01*
X039532Y007376D01*
X039536Y007372D01*
X039542Y007370D01*
X039603Y007309D01*
X042665Y004400D01*
X061491Y004400D01*
X065532Y008440D01*
X065532Y008440D01*
X065661Y008570D01*
X065830Y008640D01*
X089293Y008640D01*
X089462Y008570D01*
X090352Y007680D01*
X094211Y007680D01*
X094261Y007730D01*
X094261Y007940D01*
X094131Y007810D01*
X093792Y007810D01*
X093551Y008050D01*
X093551Y008389D01*
X093792Y008630D01*
X094131Y008630D01*
X094261Y008499D01*
X094261Y008940D01*
X094131Y008810D01*
X093792Y008810D01*
X093551Y009050D01*
X093551Y009389D01*
X093792Y009630D01*
X094131Y009630D01*
X094261Y009499D01*
X094261Y009940D01*
X094131Y009810D01*
X093792Y009810D01*
X093671Y009930D01*
X093671Y009661D01*
X093371Y009361D01*
X093371Y009050D01*
X093131Y008810D01*
X092792Y008810D01*
X092551Y009050D01*
X092551Y009389D01*
X092792Y009630D01*
X093103Y009630D01*
X093291Y009818D01*
X093291Y009970D01*
X093131Y009810D01*
X092792Y009810D01*
X092551Y010050D01*
X092551Y010361D01*
X091243Y011670D01*
X089120Y011670D01*
X089077Y011626D01*
X088976Y011585D01*
X088867Y011585D01*
X088766Y011626D01*
X088723Y011670D01*
X078300Y011670D01*
X078257Y011626D01*
X078156Y011585D01*
X078047Y011585D01*
X077946Y011626D01*
X077903Y011670D01*
X067480Y011670D01*
X067437Y011626D01*
X067336Y011585D01*
X067227Y011585D01*
X067126Y011626D01*
X067083Y011670D01*
X056640Y011670D01*
X056597Y011626D01*
X056496Y011585D01*
X056387Y011585D01*
X056286Y011626D01*
X056243Y011670D01*
X045820Y011670D01*
X045777Y011626D01*
X045676Y011585D01*
X045567Y011585D01*
X045466Y011626D01*
X045423Y011670D01*
X035000Y011670D01*
X034957Y011626D01*
X034856Y011585D01*
X034747Y011585D01*
X034646Y011626D01*
X034603Y011670D01*
X024160Y011670D01*
X024117Y011626D01*
X024016Y011585D01*
X023907Y011585D01*
X023806Y011626D01*
X023763Y011670D01*
X014003Y011670D01*
X013891Y011781D01*
X012931Y012741D01*
X012931Y012910D01*
X012877Y012855D01*
X012720Y012790D01*
X012550Y012790D01*
X012393Y012855D01*
X012273Y012975D01*
X012208Y013132D01*
X012208Y013302D01*
X012273Y013459D01*
X012393Y013579D01*
X012550Y013644D01*
X012720Y013644D01*
X012877Y013579D01*
X012931Y013524D01*
X012931Y013778D01*
X013043Y013890D01*
X013231Y014077D01*
X013208Y014132D01*
X013208Y014302D01*
X013273Y014459D01*
X013393Y014579D01*
X013413Y014587D01*
X012857Y014587D01*
X012877Y014579D01*
X012997Y014459D01*
X013062Y014302D01*
X013062Y014132D01*
X012997Y013975D01*
X012877Y013855D01*
X012720Y013790D01*
X012550Y013790D01*
X012393Y013855D01*
X012273Y013975D01*
X012208Y014132D01*
X012208Y014302D01*
X012273Y014459D01*
X012393Y014579D01*
X012413Y014587D01*
X011857Y014587D01*
X011877Y014579D01*
X011997Y014459D01*
X012062Y014302D01*
X012062Y014132D01*
X011997Y013975D01*
X011877Y013855D01*
X011720Y013790D01*
X011550Y013790D01*
X011501Y013810D01*
X011311Y013621D01*
X011311Y013497D01*
X011393Y013579D01*
X011550Y013644D01*
X011720Y013644D01*
X011877Y013579D01*
X011997Y013459D01*
X012062Y013302D01*
X012062Y013132D01*
X012031Y013059D01*
X013440Y011650D01*
X013680Y011410D01*
X022263Y011410D01*
X022306Y011453D01*
X022407Y011495D01*
X022516Y011495D01*
X022617Y011453D01*
X022660Y011410D01*
X033083Y011410D01*
X033126Y011453D01*
X033227Y011495D01*
X033336Y011495D01*
X033437Y011453D01*
X033480Y011410D01*
X043903Y011410D01*
X043946Y011453D01*
X044047Y011495D01*
X044156Y011495D01*
X044257Y011453D01*
X044300Y011410D01*
X054743Y011410D01*
X054786Y011453D01*
X054887Y011495D01*
X054996Y011495D01*
X055097Y011453D01*
X055140Y011410D01*
X065563Y011410D01*
X065606Y011453D01*
X065707Y011495D01*
X065816Y011495D01*
X065917Y011453D01*
X065960Y011410D01*
X076383Y011410D01*
X076440Y011467D01*
X076541Y011509D01*
X076650Y011509D01*
X076751Y011467D01*
X076808Y011410D01*
X085080Y011410D01*
X085280Y011610D01*
X085603Y011610D01*
X085803Y011410D01*
X087223Y011410D01*
X087266Y011453D01*
X087367Y011495D01*
X087476Y011495D01*
X087577Y011453D01*
X087620Y011410D01*
X090059Y011410D01*
X090084Y011472D01*
X090209Y011597D01*
X090373Y011665D01*
X090550Y011665D01*
X090714Y011597D01*
X090839Y011472D01*
X090906Y011308D01*
X090906Y011131D01*
X090839Y010968D01*
X090714Y010842D01*
X090550Y010775D01*
X090373Y010775D01*
X090209Y010842D01*
X090084Y010968D01*
X090059Y011030D01*
X087620Y011030D01*
X087577Y010986D01*
X087476Y010945D01*
X087367Y010945D01*
X087266Y010986D01*
X087223Y011030D01*
X085803Y011030D01*
X085603Y010830D01*
X085280Y010830D01*
X085080Y011030D01*
X076780Y011030D01*
X076751Y011000D01*
X076650Y010959D01*
X076541Y010959D01*
X076440Y011000D01*
X076411Y011030D01*
X065960Y011030D01*
X065917Y010986D01*
X065816Y010945D01*
X065707Y010945D01*
X065606Y010986D01*
X065563Y011030D01*
X055140Y011030D01*
X055097Y010986D01*
X054996Y010945D01*
X054887Y010945D01*
X054786Y010986D01*
X054743Y011030D01*
X044300Y011030D01*
X044257Y010986D01*
X044156Y010945D01*
X044047Y010945D01*
X043946Y010986D01*
X043903Y011030D01*
X033480Y011030D01*
X033437Y010986D01*
X033336Y010945D01*
X033227Y010945D01*
X033126Y010986D01*
X033083Y011030D01*
X022660Y011030D01*
X022617Y010986D01*
X022516Y010945D01*
X022407Y010945D01*
X022306Y010986D01*
X022263Y011030D01*
X013523Y011030D01*
X013411Y011141D01*
X013171Y011381D01*
X011750Y012803D01*
X011720Y012790D01*
X011550Y012790D01*
X011393Y012855D01*
X011311Y012937D01*
X011311Y012898D01*
X013360Y010850D01*
X013440Y010770D01*
X021763Y010770D01*
X021806Y010813D01*
X021907Y010855D01*
X022016Y010855D01*
X022117Y010813D01*
X022160Y010770D01*
X032603Y010770D01*
X032646Y010813D01*
X032747Y010855D01*
X032856Y010855D01*
X032957Y010813D01*
X033000Y010770D01*
X043423Y010770D01*
X043466Y010813D01*
X043567Y010855D01*
X043676Y010855D01*
X043777Y010813D01*
X043820Y010770D01*
X054243Y010770D01*
X054286Y010813D01*
X054387Y010855D01*
X054496Y010855D01*
X054597Y010813D01*
X054640Y010770D01*
X065083Y010770D01*
X065126Y010813D01*
X065227Y010855D01*
X065336Y010855D01*
X065437Y010813D01*
X065480Y010770D01*
X075903Y010770D01*
X075946Y010813D01*
X076047Y010855D01*
X076156Y010855D01*
X076257Y010813D01*
X076300Y010770D01*
X086723Y010770D01*
X086766Y010813D01*
X086867Y010855D01*
X086976Y010855D01*
X087077Y010813D01*
X087120Y010770D01*
X089020Y010770D01*
X091380Y008410D01*
X092572Y008410D01*
X092792Y008630D01*
X093131Y008630D01*
X093371Y008389D01*
X093371Y008050D01*
X093131Y007810D01*
X092792Y007810D01*
X092572Y008030D01*
X091223Y008030D01*
X091111Y008141D01*
X088863Y010390D01*
X087120Y010390D01*
X087077Y010346D01*
X086976Y010305D01*
X086867Y010305D01*
X086766Y010346D01*
X086723Y010390D01*
X076300Y010390D01*
X076257Y010346D01*
X076156Y010305D01*
X076047Y010305D01*
X075946Y010346D01*
X075903Y010390D01*
X065480Y010390D01*
X065437Y010346D01*
X065336Y010305D01*
X065227Y010305D01*
X065126Y010346D01*
X065083Y010390D01*
X054640Y010390D01*
X054597Y010346D01*
X054496Y010305D01*
X054387Y010305D01*
X054286Y010346D01*
X054243Y010390D01*
X043820Y010390D01*
X043777Y010346D01*
X043676Y010305D01*
X043567Y010305D01*
X043466Y010346D01*
X043423Y010390D01*
X033000Y010390D01*
X032957Y010346D01*
X032856Y010305D01*
X032747Y010305D01*
X032646Y010346D01*
X032603Y010390D01*
X022160Y010390D01*
X022117Y010346D01*
X022016Y010305D01*
X021907Y010305D01*
X021806Y010346D01*
X021763Y010390D01*
X013283Y010390D01*
X013171Y010501D01*
X013091Y010581D01*
X010931Y012741D01*
X010931Y012910D01*
X010877Y012855D01*
X010720Y012790D01*
X010550Y012790D01*
X010393Y012855D01*
X010273Y012975D01*
X010208Y013132D01*
X010208Y013302D01*
X010273Y013459D01*
X010393Y013579D01*
X010550Y013644D01*
X010720Y013644D01*
X010877Y013579D01*
X010931Y013524D01*
X010931Y013778D01*
X011043Y013890D01*
X011043Y013890D01*
X011231Y014077D01*
X011208Y014132D01*
X011208Y014302D01*
X011273Y014459D01*
X011393Y014579D01*
X011413Y014587D01*
X010857Y014587D01*
X010877Y014579D01*
X010997Y014459D01*
X011062Y014302D01*
X011062Y014132D01*
X010997Y013975D01*
X010877Y013855D01*
X010720Y013790D01*
X010550Y013790D01*
X010510Y013807D01*
X010191Y013465D01*
X010191Y012898D01*
X012960Y010130D01*
X042240Y010130D01*
X042351Y010018D01*
X043291Y009078D01*
X043291Y009023D01*
X043322Y009010D01*
X043432Y008901D01*
X043491Y008757D01*
X043491Y008602D01*
X043432Y008459D01*
X043322Y008349D01*
X043179Y008290D01*
X043024Y008290D01*
X042881Y008349D01*
X042771Y008459D01*
X042711Y008602D01*
X042711Y008757D01*
X042771Y008901D01*
X042851Y008981D01*
X042083Y009750D01*
X012803Y009750D01*
X009923Y012630D01*
X009811Y012741D01*
X009811Y013536D01*
X009809Y013612D01*
X009811Y013614D01*
X009811Y013618D01*
X009865Y013672D01*
X010234Y014068D01*
X010208Y014132D01*
X010208Y014302D01*
X010273Y014459D01*
X010393Y014579D01*
X010413Y014587D01*
X008851Y014587D01*
X008851Y003430D01*
X018027Y003430D01*
X018103Y003353D01*
X018103Y003300D02*
X020993Y003300D01*
X020993Y003201D02*
X018103Y003201D01*
X018103Y003103D02*
X020993Y003103D01*
X020993Y003004D02*
X018103Y003004D01*
X018103Y002906D02*
X018358Y002906D01*
X018356Y002903D02*
X018348Y002885D01*
X018348Y001775D01*
X019498Y001775D01*
X019498Y001675D01*
X018348Y001675D01*
X018348Y000565D01*
X018356Y000546D01*
X018370Y000532D01*
X018388Y000525D01*
X019498Y000525D01*
X019498Y001675D01*
X019598Y001675D01*
X019598Y000525D01*
X020708Y000525D01*
X020727Y000532D01*
X020741Y000546D01*
X020748Y000565D01*
X020748Y001675D01*
X019598Y001675D01*
X019598Y001775D01*
X019498Y001775D01*
X019498Y002925D01*
X018388Y002925D01*
X018370Y002917D01*
X018356Y002903D01*
X018348Y002807D02*
X018103Y002807D01*
X018103Y002709D02*
X018348Y002709D01*
X018348Y002610D02*
X018103Y002610D01*
X018103Y002512D02*
X018348Y002512D01*
X018348Y002413D02*
X018103Y002413D01*
X018103Y002315D02*
X018348Y002315D01*
X018348Y002216D02*
X018103Y002216D01*
X018103Y002118D02*
X018348Y002118D01*
X018348Y002019D02*
X018103Y002019D01*
X018103Y001921D02*
X018348Y001921D01*
X018348Y001822D02*
X018103Y001822D01*
X018103Y001724D02*
X019498Y001724D01*
X019498Y001822D02*
X019598Y001822D01*
X019598Y001775D02*
X019598Y002925D01*
X020708Y002925D01*
X020727Y002917D01*
X020741Y002903D01*
X020748Y002885D01*
X020748Y001775D01*
X019598Y001775D01*
X019598Y001724D02*
X020993Y001724D01*
X020993Y001822D02*
X020748Y001822D01*
X020748Y001921D02*
X020993Y001921D01*
X020993Y002019D02*
X020748Y002019D01*
X020748Y002118D02*
X020993Y002118D01*
X020993Y002216D02*
X020748Y002216D01*
X020748Y002315D02*
X020993Y002315D01*
X020993Y002413D02*
X020748Y002413D01*
X020748Y002512D02*
X020993Y002512D01*
X020993Y002610D02*
X020748Y002610D01*
X020748Y002709D02*
X020993Y002709D01*
X020993Y002807D02*
X020748Y002807D01*
X020738Y002906D02*
X020993Y002906D01*
X019598Y002906D02*
X019498Y002906D01*
X019498Y002807D02*
X019598Y002807D01*
X019598Y002709D02*
X019498Y002709D01*
X019498Y002610D02*
X019598Y002610D01*
X019598Y002512D02*
X019498Y002512D01*
X019498Y002413D02*
X019598Y002413D01*
X019598Y002315D02*
X019498Y002315D01*
X019498Y002216D02*
X019598Y002216D01*
X019598Y002118D02*
X019498Y002118D01*
X019498Y002019D02*
X019598Y002019D01*
X019598Y001921D02*
X019498Y001921D01*
X019498Y001625D02*
X019598Y001625D01*
X019598Y001527D02*
X019498Y001527D01*
X019498Y001428D02*
X019598Y001428D01*
X019598Y001330D02*
X019498Y001330D01*
X019498Y001231D02*
X019598Y001231D01*
X019598Y001133D02*
X019498Y001133D01*
X019498Y001034D02*
X019598Y001034D01*
X019598Y000936D02*
X019498Y000936D01*
X019498Y000837D02*
X019598Y000837D01*
X019598Y000739D02*
X019498Y000739D01*
X019498Y000640D02*
X019598Y000640D01*
X019598Y000542D02*
X019498Y000542D01*
X018361Y000542D02*
X018103Y000542D01*
X018103Y000640D02*
X018348Y000640D01*
X018348Y000739D02*
X018103Y000739D01*
X018103Y000837D02*
X018348Y000837D01*
X018348Y000936D02*
X018103Y000936D01*
X018103Y001034D02*
X018348Y001034D01*
X018348Y001133D02*
X018103Y001133D01*
X018103Y001231D02*
X018348Y001231D01*
X018348Y001330D02*
X018103Y001330D01*
X018103Y001428D02*
X018348Y001428D01*
X018348Y001527D02*
X018103Y001527D01*
X018103Y001625D02*
X018348Y001625D01*
X020748Y001625D02*
X020993Y001625D01*
X020993Y001527D02*
X020748Y001527D01*
X020748Y001428D02*
X020993Y001428D01*
X020993Y001330D02*
X020748Y001330D01*
X020748Y001231D02*
X020993Y001231D01*
X020993Y001133D02*
X020748Y001133D01*
X020748Y001034D02*
X020993Y001034D01*
X020993Y000936D02*
X020748Y000936D01*
X020748Y000837D02*
X020993Y000837D01*
X020993Y000739D02*
X020748Y000739D01*
X020748Y000640D02*
X020993Y000640D01*
X020993Y000542D02*
X020736Y000542D01*
X020993Y000443D02*
X018103Y000443D01*
X018122Y000345D02*
X020975Y000345D01*
X021038Y003398D02*
X018059Y003398D01*
X010248Y004383D02*
X008851Y004383D01*
X008851Y004285D02*
X041450Y004285D01*
X041347Y004383D02*
X032254Y004383D01*
X032352Y004482D02*
X041243Y004482D01*
X041139Y004580D02*
X034902Y004580D01*
X035071Y004679D02*
X041036Y004679D01*
X040932Y004777D02*
X035170Y004777D01*
X035268Y004876D02*
X040828Y004876D01*
X040725Y004974D02*
X035367Y004974D01*
X035465Y005073D02*
X040621Y005073D01*
X040517Y005171D02*
X035564Y005171D01*
X035662Y005270D02*
X040414Y005270D01*
X040310Y005368D02*
X035708Y005368D01*
X035741Y005467D02*
X040206Y005467D01*
X040103Y005565D02*
X035741Y005565D01*
X035741Y005664D02*
X039999Y005664D01*
X039895Y005762D02*
X035741Y005762D01*
X035741Y005861D02*
X039791Y005861D01*
X039688Y005959D02*
X035741Y005959D01*
X035741Y006058D02*
X039584Y006058D01*
X039480Y006156D02*
X035741Y006156D01*
X035741Y006255D02*
X039377Y006255D01*
X039273Y006353D02*
X035741Y006353D01*
X035741Y006452D02*
X039169Y006452D01*
X040298Y006649D02*
X040784Y006649D01*
X040685Y006747D02*
X040194Y006747D01*
X040090Y006846D02*
X040587Y006846D01*
X040488Y006944D02*
X039987Y006944D01*
X039883Y007043D02*
X040390Y007043D01*
X040291Y007141D02*
X039779Y007141D01*
X039676Y007240D02*
X040193Y007240D01*
X040094Y007338D02*
X039574Y007338D01*
X039380Y007437D02*
X039996Y007437D01*
X039897Y007535D02*
X019031Y007535D01*
X019031Y007634D02*
X039799Y007634D01*
X039700Y007732D02*
X019031Y007732D01*
X019031Y007831D02*
X039602Y007831D01*
X039528Y007905D02*
X042771Y004661D01*
X042851Y004581D01*
X042963Y004470D01*
X057859Y004470D01*
X057936Y004468D01*
X057938Y004470D01*
X057940Y004470D01*
X057994Y004524D01*
X058018Y004546D01*
X058020Y004546D01*
X058074Y004601D01*
X058130Y004654D01*
X058130Y004656D01*
X058776Y005302D01*
X058807Y005290D01*
X058962Y005290D01*
X059106Y005349D01*
X059215Y005459D01*
X059275Y005602D01*
X059275Y005757D01*
X059215Y005901D01*
X059106Y006010D01*
X058962Y006070D01*
X058807Y006070D01*
X058664Y006010D01*
X058554Y005901D01*
X058495Y005757D01*
X058495Y005602D01*
X058508Y005571D01*
X057809Y004872D01*
X057785Y004850D01*
X043120Y004850D01*
X043040Y004930D01*
X039796Y008173D01*
X039796Y008234D01*
X039755Y008335D01*
X039677Y008413D01*
X039576Y008455D01*
X039467Y008455D01*
X039366Y008413D01*
X039288Y008335D01*
X039246Y008234D01*
X039246Y008125D01*
X039288Y008024D01*
X039366Y007946D01*
X039467Y007905D01*
X039528Y007905D01*
X039408Y007929D02*
X019031Y007929D01*
X019031Y008028D02*
X039287Y008028D01*
X039246Y008126D02*
X019031Y008126D01*
X019031Y008225D02*
X039246Y008225D01*
X039283Y008323D02*
X019031Y008323D01*
X019031Y008422D02*
X039387Y008422D01*
X039656Y008422D02*
X042808Y008422D01*
X042745Y008520D02*
X019031Y008520D01*
X019031Y008619D02*
X042711Y008619D01*
X042711Y008717D02*
X019031Y008717D01*
X019031Y008816D02*
X042736Y008816D01*
X042784Y008914D02*
X019031Y008914D01*
X019031Y009013D02*
X042820Y009013D01*
X042721Y009111D02*
X019031Y009111D01*
X019031Y009210D02*
X042623Y009210D01*
X042524Y009308D02*
X019031Y009308D01*
X019031Y009407D02*
X042426Y009407D01*
X042327Y009505D02*
X018990Y009505D01*
X018904Y009604D02*
X042229Y009604D01*
X042130Y009702D02*
X009793Y009702D01*
X009846Y009604D02*
X009694Y009604D01*
X009747Y009505D02*
X009596Y009505D01*
X009649Y009407D02*
X009497Y009407D01*
X009399Y009308D02*
X009611Y009308D01*
X009611Y009210D02*
X009311Y009210D01*
X009311Y009111D02*
X009611Y009111D01*
X009526Y009013D02*
X009311Y009013D01*
X009311Y008914D02*
X009427Y008914D01*
X009329Y008816D02*
X009311Y008816D01*
X008931Y008816D02*
X008851Y008816D01*
X008851Y008914D02*
X008931Y008914D01*
X008931Y009013D02*
X008851Y009013D01*
X008851Y009111D02*
X008931Y009111D01*
X008931Y009210D02*
X008851Y009210D01*
X008851Y009308D02*
X008931Y009308D01*
X008960Y009407D02*
X008851Y009407D01*
X008851Y009505D02*
X009058Y009505D01*
X009157Y009604D02*
X008851Y009604D01*
X008851Y009702D02*
X009255Y009702D01*
X009354Y009801D02*
X008851Y009801D01*
X008851Y009899D02*
X009452Y009899D01*
X009551Y009998D02*
X008851Y009998D01*
X008851Y010096D02*
X009611Y010096D01*
X009611Y010195D02*
X008851Y010195D01*
X008851Y010293D02*
X009611Y010293D01*
X009634Y010392D02*
X008851Y010392D01*
X008851Y010490D02*
X009732Y010490D01*
X009831Y010589D02*
X008851Y010589D01*
X008851Y010687D02*
X011865Y010687D01*
X011767Y010786D02*
X008851Y010786D01*
X008851Y010884D02*
X011668Y010884D01*
X011570Y010983D02*
X008851Y010983D01*
X008851Y011081D02*
X011471Y011081D01*
X011373Y011180D02*
X008851Y011180D01*
X008851Y011278D02*
X011274Y011278D01*
X011176Y011377D02*
X008851Y011377D01*
X008851Y011475D02*
X011077Y011475D01*
X010979Y011574D02*
X008851Y011574D01*
X008851Y011672D02*
X010880Y011672D01*
X010782Y011771D02*
X008851Y011771D01*
X008851Y011869D02*
X010683Y011869D01*
X010585Y011968D02*
X008851Y011968D01*
X008851Y012066D02*
X010486Y012066D01*
X010388Y012165D02*
X008851Y012165D01*
X008851Y012263D02*
X010289Y012263D01*
X010191Y012362D02*
X008851Y012362D01*
X008851Y012460D02*
X010092Y012460D01*
X009994Y012559D02*
X008851Y012559D01*
X008851Y012657D02*
X009895Y012657D01*
X009811Y012756D02*
X008851Y012756D01*
X008851Y012854D02*
X009811Y012854D01*
X009811Y012953D02*
X008851Y012953D01*
X008851Y013051D02*
X009811Y013051D01*
X009811Y013150D02*
X008851Y013150D01*
X008851Y013248D02*
X009811Y013248D01*
X009811Y013347D02*
X008851Y013347D01*
X008851Y013445D02*
X009811Y013445D01*
X009811Y013544D02*
X008851Y013544D01*
X008851Y013642D02*
X009835Y013642D01*
X009929Y013741D02*
X008851Y013741D01*
X008851Y013839D02*
X010021Y013839D01*
X010113Y013938D02*
X008851Y013938D01*
X008851Y014036D02*
X010204Y014036D01*
X010208Y014135D02*
X008851Y014135D01*
X008851Y014233D02*
X010208Y014233D01*
X010220Y014332D02*
X008851Y014332D01*
X008851Y014430D02*
X010261Y014430D01*
X010343Y014529D02*
X008851Y014529D01*
X010927Y014529D02*
X011343Y014529D01*
X011261Y014430D02*
X011009Y014430D01*
X011049Y014332D02*
X011220Y014332D01*
X011208Y014233D02*
X011062Y014233D01*
X011062Y014135D02*
X011208Y014135D01*
X011189Y014036D02*
X011022Y014036D01*
X010959Y013938D02*
X011091Y013938D01*
X010992Y013839D02*
X010838Y013839D01*
X010931Y013741D02*
X010448Y013741D01*
X010357Y013642D02*
X010546Y013642D01*
X010724Y013642D02*
X010931Y013642D01*
X010931Y013544D02*
X010912Y013544D01*
X011311Y013544D02*
X011358Y013544D01*
X011333Y013642D02*
X011546Y013642D01*
X011431Y013741D02*
X012931Y013741D01*
X012931Y013642D02*
X012724Y013642D01*
X012546Y013642D02*
X011724Y013642D01*
X011912Y013544D02*
X012358Y013544D01*
X012267Y013445D02*
X012002Y013445D01*
X012043Y013347D02*
X012227Y013347D01*
X012208Y013248D02*
X012062Y013248D01*
X012062Y013150D02*
X012208Y013150D01*
X012242Y013051D02*
X012039Y013051D01*
X012137Y012953D02*
X012296Y012953D01*
X012236Y012854D02*
X012395Y012854D01*
X012334Y012756D02*
X012931Y012756D01*
X012931Y012854D02*
X012874Y012854D01*
X013015Y012657D02*
X012433Y012657D01*
X012531Y012559D02*
X013114Y012559D01*
X013212Y012460D02*
X012630Y012460D01*
X012728Y012362D02*
X013311Y012362D01*
X013409Y012263D02*
X012827Y012263D01*
X012925Y012165D02*
X013508Y012165D01*
X013606Y012066D02*
X013024Y012066D01*
X013122Y011968D02*
X013705Y011968D01*
X013803Y011869D02*
X013221Y011869D01*
X013319Y011771D02*
X013902Y011771D01*
X014000Y011672D02*
X013418Y011672D01*
X013516Y011574D02*
X085244Y011574D01*
X085145Y011475D02*
X076731Y011475D01*
X076460Y011475D02*
X065863Y011475D01*
X065660Y011475D02*
X055043Y011475D01*
X054840Y011475D02*
X044203Y011475D01*
X044000Y011475D02*
X033383Y011475D01*
X033180Y011475D02*
X022563Y011475D01*
X022360Y011475D02*
X013615Y011475D01*
X013274Y011278D02*
X012932Y011278D01*
X013030Y011180D02*
X013373Y011180D01*
X013471Y011081D02*
X013129Y011081D01*
X013227Y010983D02*
X022315Y010983D01*
X022144Y010786D02*
X032619Y010786D01*
X032984Y010786D02*
X043439Y010786D01*
X043804Y010786D02*
X054259Y010786D01*
X054624Y010786D02*
X065099Y010786D01*
X065464Y010786D02*
X075919Y010786D01*
X076284Y010786D02*
X086739Y010786D01*
X087104Y010786D02*
X090346Y010786D01*
X090168Y010884D02*
X085658Y010884D01*
X085756Y010983D02*
X087275Y010983D01*
X087568Y010983D02*
X090078Y010983D01*
X090577Y010786D02*
X092127Y010786D01*
X092028Y010884D02*
X090755Y010884D01*
X090845Y010983D02*
X091930Y010983D01*
X091831Y011081D02*
X090886Y011081D01*
X090906Y011180D02*
X091733Y011180D01*
X091634Y011278D02*
X090906Y011278D01*
X090878Y011377D02*
X091536Y011377D01*
X091437Y011475D02*
X090835Y011475D01*
X090737Y011574D02*
X091339Y011574D01*
X090186Y011574D02*
X085639Y011574D01*
X085738Y011475D02*
X087320Y011475D01*
X087523Y011475D02*
X090088Y011475D01*
X092541Y011869D02*
X094261Y011869D01*
X094261Y011771D02*
X092639Y011771D01*
X092738Y011672D02*
X094261Y011672D01*
X094261Y011574D02*
X092836Y011574D01*
X092935Y011475D02*
X094261Y011475D01*
X094261Y011377D02*
X093033Y011377D01*
X093132Y011278D02*
X094261Y011278D01*
X094261Y011180D02*
X093230Y011180D01*
X093329Y011081D02*
X094261Y011081D01*
X094261Y010983D02*
X093427Y010983D01*
X093526Y010884D02*
X094261Y010884D01*
X094261Y010786D02*
X093624Y010786D01*
X093671Y010738D02*
X093560Y010850D01*
X091720Y012690D01*
X089614Y012690D01*
X089614Y012834D01*
X089664Y012855D01*
X089784Y012975D01*
X089849Y013132D01*
X089849Y013302D01*
X089784Y013459D01*
X089773Y013470D01*
X090071Y013470D01*
X090060Y013459D01*
X089995Y013302D01*
X089995Y013132D01*
X090060Y012975D01*
X090180Y012855D01*
X090337Y012790D01*
X090507Y012790D01*
X090664Y012855D01*
X090784Y012975D01*
X090849Y013132D01*
X090849Y013302D01*
X090784Y013459D01*
X090773Y013470D01*
X091071Y013470D01*
X091060Y013459D01*
X090995Y013302D01*
X090995Y013132D01*
X091060Y012975D01*
X091180Y012855D01*
X091337Y012790D01*
X091507Y012790D01*
X091664Y012855D01*
X091784Y012975D01*
X091849Y013132D01*
X091849Y013302D01*
X091784Y013459D01*
X091773Y013470D01*
X092071Y013470D01*
X092060Y013459D01*
X091995Y013302D01*
X091995Y013132D01*
X092060Y012975D01*
X092180Y012855D01*
X092337Y012790D01*
X092507Y012790D01*
X092664Y012855D01*
X092784Y012975D01*
X092849Y013132D01*
X092849Y013302D01*
X092784Y013459D01*
X092773Y013470D01*
X093184Y013470D01*
X093153Y013438D01*
X093115Y013381D01*
X093089Y013318D01*
X093078Y013265D01*
X093374Y013265D01*
X093374Y013169D01*
X093078Y013169D01*
X093089Y013116D01*
X093115Y013053D01*
X093153Y012996D01*
X093201Y012948D01*
X093258Y012910D01*
X093321Y012883D01*
X093374Y012873D01*
X093374Y013168D01*
X093471Y013168D01*
X093471Y012873D01*
X093523Y012883D01*
X093587Y012910D01*
X093643Y012948D01*
X093692Y012996D01*
X093730Y013053D01*
X093756Y013116D01*
X093766Y013169D01*
X093471Y013169D01*
X093471Y013265D01*
X093766Y013265D01*
X093756Y013318D01*
X093730Y013381D01*
X093692Y013438D01*
X093660Y013470D01*
X093821Y013470D01*
X093901Y013390D01*
X094261Y013029D01*
X094261Y010499D01*
X094131Y010630D01*
X093792Y010630D01*
X093671Y010509D01*
X093671Y010738D01*
X093671Y010687D02*
X094261Y010687D01*
X094261Y010589D02*
X094172Y010589D01*
X093751Y010589D02*
X093671Y010589D01*
X095181Y010589D02*
X095206Y010589D01*
X095206Y010687D02*
X095181Y010687D01*
X095181Y010786D02*
X095206Y010786D01*
X095206Y010884D02*
X095181Y010884D01*
X095181Y010983D02*
X095206Y010983D01*
X095206Y011081D02*
X095181Y011081D01*
X095181Y011180D02*
X095206Y011180D01*
X095206Y011278D02*
X095181Y011278D01*
X095181Y011377D02*
X095206Y011377D01*
X095206Y011475D02*
X095181Y011475D01*
X095181Y011574D02*
X095206Y011574D01*
X095206Y011672D02*
X095181Y011672D01*
X095181Y011771D02*
X095206Y011771D01*
X095206Y011869D02*
X095181Y011869D01*
X095181Y011968D02*
X095206Y011968D01*
X095206Y012066D02*
X095181Y012066D01*
X095181Y012165D02*
X095206Y012165D01*
X095206Y012263D02*
X095181Y012263D01*
X095181Y012362D02*
X095206Y012362D01*
X095206Y012460D02*
X095181Y012460D01*
X095181Y012559D02*
X095206Y012559D01*
X095206Y012657D02*
X095181Y012657D01*
X095181Y012756D02*
X095206Y012756D01*
X095206Y012854D02*
X095181Y012854D01*
X095181Y012953D02*
X095206Y012953D01*
X095206Y013051D02*
X095181Y013051D01*
X095181Y013150D02*
X095206Y013150D01*
X095206Y013248D02*
X095181Y013248D01*
X095167Y013347D02*
X095206Y013347D01*
X095206Y013445D02*
X095126Y013445D01*
X095048Y013544D02*
X095206Y013544D01*
X095206Y013642D02*
X094949Y013642D01*
X094851Y013741D02*
X095206Y013741D01*
X095206Y013839D02*
X094752Y013839D01*
X094654Y013938D02*
X095206Y013938D01*
X095206Y014036D02*
X094555Y014036D01*
X094457Y014135D02*
X095206Y014135D01*
X095206Y014233D02*
X094358Y014233D01*
X094260Y014332D02*
X095206Y014332D01*
X095206Y014430D02*
X094161Y014430D01*
X094063Y014529D02*
X095206Y014529D01*
X093845Y013445D02*
X093685Y013445D01*
X093744Y013347D02*
X093944Y013347D01*
X094042Y013248D02*
X093471Y013248D01*
X093374Y013248D02*
X092849Y013248D01*
X092849Y013150D02*
X093082Y013150D01*
X093116Y013051D02*
X092816Y013051D01*
X092762Y012953D02*
X093196Y012953D01*
X093374Y012953D02*
X093471Y012953D01*
X093471Y013051D02*
X093374Y013051D01*
X093374Y013150D02*
X093471Y013150D01*
X093648Y012953D02*
X094261Y012953D01*
X094261Y012854D02*
X092662Y012854D01*
X092183Y012854D02*
X091662Y012854D01*
X091762Y012953D02*
X092083Y012953D01*
X092029Y013051D02*
X091816Y013051D01*
X091849Y013150D02*
X091995Y013150D01*
X091995Y013248D02*
X091849Y013248D01*
X091831Y013347D02*
X092014Y013347D01*
X092055Y013445D02*
X091790Y013445D01*
X091055Y013445D02*
X090790Y013445D01*
X090831Y013347D02*
X091014Y013347D01*
X090995Y013248D02*
X090849Y013248D01*
X090849Y013150D02*
X090995Y013150D01*
X091029Y013051D02*
X090816Y013051D01*
X090762Y012953D02*
X091083Y012953D01*
X091183Y012854D02*
X090662Y012854D01*
X090183Y012854D02*
X089662Y012854D01*
X089614Y012756D02*
X094261Y012756D01*
X094261Y012657D02*
X091753Y012657D01*
X091851Y012559D02*
X094261Y012559D01*
X094261Y012460D02*
X091950Y012460D01*
X092048Y012362D02*
X094261Y012362D01*
X094261Y012263D02*
X092147Y012263D01*
X092245Y012165D02*
X094261Y012165D01*
X094261Y012066D02*
X092344Y012066D01*
X092442Y011968D02*
X094261Y011968D01*
X090083Y012953D02*
X089762Y012953D01*
X089816Y013051D02*
X090029Y013051D01*
X089995Y013150D02*
X089849Y013150D01*
X089849Y013248D02*
X089995Y013248D01*
X090014Y013347D02*
X089831Y013347D01*
X089790Y013445D02*
X090055Y013445D01*
X089071Y013470D02*
X089060Y013459D01*
X088995Y013302D01*
X088995Y013132D01*
X089060Y012975D01*
X089180Y012855D01*
X089234Y012833D01*
X089234Y012690D01*
X078786Y012690D01*
X078786Y012834D01*
X078837Y012855D01*
X078957Y012975D01*
X079022Y013132D01*
X079022Y013302D01*
X078957Y013459D01*
X078946Y013470D01*
X079245Y013470D01*
X079234Y013459D01*
X079169Y013302D01*
X079169Y013132D01*
X079234Y012975D01*
X079354Y012855D01*
X079511Y012790D01*
X079680Y012790D01*
X079837Y012855D01*
X079957Y012975D01*
X080022Y013132D01*
X080022Y013302D01*
X079957Y013459D01*
X079946Y013470D01*
X080245Y013470D01*
X080234Y013459D01*
X080169Y013302D01*
X080169Y013132D01*
X080234Y012975D01*
X080354Y012855D01*
X080511Y012790D01*
X080680Y012790D01*
X080837Y012855D01*
X080957Y012975D01*
X081022Y013132D01*
X081022Y013302D01*
X080957Y013459D01*
X080946Y013470D01*
X081245Y013470D01*
X081234Y013459D01*
X081169Y013302D01*
X081169Y013132D01*
X081234Y012975D01*
X081354Y012855D01*
X081511Y012790D01*
X081680Y012790D01*
X081837Y012855D01*
X081957Y012975D01*
X082022Y013132D01*
X082022Y013302D01*
X081957Y013459D01*
X081946Y013470D01*
X082358Y013470D01*
X082326Y013438D01*
X082288Y013381D01*
X082262Y013318D01*
X082251Y013265D01*
X082547Y013265D01*
X082547Y013169D01*
X082251Y013169D01*
X082262Y013116D01*
X082288Y013053D01*
X082326Y012996D01*
X082374Y012948D01*
X082431Y012910D01*
X082494Y012883D01*
X082547Y012873D01*
X082547Y013168D01*
X082644Y013168D01*
X082644Y012873D01*
X082697Y012883D01*
X082760Y012910D01*
X082817Y012948D01*
X082865Y012996D01*
X082903Y013053D01*
X082929Y013116D01*
X082940Y013169D01*
X082644Y013169D01*
X082644Y013265D01*
X082940Y013265D01*
X082929Y013318D01*
X082903Y013381D01*
X082865Y013438D01*
X082833Y013470D01*
X086071Y013470D01*
X086060Y013459D01*
X085995Y013302D01*
X085995Y013132D01*
X086060Y012975D01*
X086180Y012855D01*
X086337Y012790D01*
X086507Y012790D01*
X086664Y012855D01*
X086784Y012975D01*
X086849Y013132D01*
X086849Y013302D01*
X086784Y013459D01*
X086773Y013470D01*
X087071Y013470D01*
X087060Y013459D01*
X086995Y013302D01*
X086995Y013132D01*
X087060Y012975D01*
X087180Y012855D01*
X087337Y012790D01*
X087507Y012790D01*
X087664Y012855D01*
X087784Y012975D01*
X087849Y013132D01*
X087849Y013302D01*
X087784Y013459D01*
X087773Y013470D01*
X088071Y013470D01*
X088060Y013459D01*
X087995Y013302D01*
X087995Y013132D01*
X088060Y012975D01*
X088180Y012855D01*
X088337Y012790D01*
X088507Y012790D01*
X088664Y012855D01*
X088784Y012975D01*
X088849Y013132D01*
X088849Y013302D01*
X088784Y013459D01*
X088773Y013470D01*
X089071Y013470D01*
X089055Y013445D02*
X088790Y013445D01*
X088831Y013347D02*
X089014Y013347D01*
X088995Y013248D02*
X088849Y013248D01*
X088849Y013150D02*
X088995Y013150D01*
X089029Y013051D02*
X088816Y013051D01*
X088762Y012953D02*
X089083Y012953D01*
X089183Y012854D02*
X088662Y012854D01*
X088183Y012854D02*
X087662Y012854D01*
X087762Y012953D02*
X088083Y012953D01*
X088029Y013051D02*
X087816Y013051D01*
X087849Y013150D02*
X087995Y013150D01*
X087995Y013248D02*
X087849Y013248D01*
X087831Y013347D02*
X088014Y013347D01*
X088055Y013445D02*
X087790Y013445D01*
X087055Y013445D02*
X086790Y013445D01*
X086831Y013347D02*
X087014Y013347D01*
X086995Y013248D02*
X086849Y013248D01*
X086849Y013150D02*
X086995Y013150D01*
X087029Y013051D02*
X086816Y013051D01*
X086762Y012953D02*
X087083Y012953D01*
X087183Y012854D02*
X086662Y012854D01*
X086183Y012854D02*
X081835Y012854D01*
X081935Y012953D02*
X082369Y012953D01*
X082289Y013051D02*
X081989Y013051D01*
X082022Y013150D02*
X082255Y013150D01*
X082274Y013347D02*
X082004Y013347D01*
X082022Y013248D02*
X082547Y013248D01*
X082644Y013248D02*
X085995Y013248D01*
X085995Y013150D02*
X082936Y013150D01*
X082902Y013051D02*
X086029Y013051D01*
X086083Y012953D02*
X082822Y012953D01*
X082644Y012953D02*
X082547Y012953D01*
X082547Y013051D02*
X082644Y013051D01*
X082644Y013150D02*
X082547Y013150D01*
X082917Y013347D02*
X086014Y013347D01*
X086055Y013445D02*
X082858Y013445D01*
X082333Y013445D02*
X081963Y013445D01*
X081228Y013445D02*
X080963Y013445D01*
X081004Y013347D02*
X081187Y013347D01*
X081169Y013248D02*
X081022Y013248D01*
X081022Y013150D02*
X081169Y013150D01*
X081202Y013051D02*
X080989Y013051D01*
X080935Y012953D02*
X081256Y012953D01*
X081356Y012854D02*
X080835Y012854D01*
X080356Y012854D02*
X079835Y012854D01*
X079935Y012953D02*
X080256Y012953D01*
X080202Y013051D02*
X079989Y013051D01*
X080022Y013150D02*
X080169Y013150D01*
X080169Y013248D02*
X080022Y013248D01*
X080004Y013347D02*
X080187Y013347D01*
X080228Y013445D02*
X079963Y013445D01*
X079228Y013445D02*
X078963Y013445D01*
X079004Y013347D02*
X079187Y013347D01*
X079169Y013248D02*
X079022Y013248D01*
X079022Y013150D02*
X079169Y013150D01*
X079202Y013051D02*
X078989Y013051D01*
X078935Y012953D02*
X079256Y012953D01*
X079356Y012854D02*
X078835Y012854D01*
X078786Y012756D02*
X089234Y012756D01*
X092790Y013445D02*
X093160Y013445D01*
X093101Y013347D02*
X092831Y013347D01*
X093729Y013051D02*
X094239Y013051D01*
X094141Y013150D02*
X093763Y013150D01*
X086200Y014587D02*
X086180Y014579D01*
X086060Y014459D01*
X085995Y014302D01*
X085995Y014132D01*
X086060Y013975D01*
X086066Y013970D01*
X083022Y013970D01*
X083022Y014568D01*
X082995Y014594D01*
X083064Y014663D01*
X083064Y017617D01*
X083068Y017648D01*
X083099Y017701D01*
X083153Y017732D01*
X083184Y017737D01*
X085834Y017737D01*
X085865Y017732D01*
X085919Y017701D01*
X085950Y017648D01*
X085954Y017617D01*
X085954Y014663D01*
X086030Y014587D01*
X086200Y014587D01*
X086130Y014529D02*
X083022Y014529D01*
X083028Y014627D02*
X085990Y014627D01*
X085954Y014726D02*
X083064Y014726D01*
X083064Y014824D02*
X085954Y014824D01*
X085954Y014923D02*
X083064Y014923D01*
X083064Y015021D02*
X085954Y015021D01*
X085954Y015120D02*
X085704Y015120D01*
X085701Y015113D02*
X085709Y015132D01*
X085709Y016242D01*
X084559Y016242D01*
X084559Y016342D01*
X084459Y016342D01*
X084459Y017492D01*
X083349Y017492D01*
X083331Y017484D01*
X083316Y017470D01*
X083309Y017452D01*
X083309Y016342D01*
X084459Y016342D01*
X084459Y016242D01*
X083309Y016242D01*
X083309Y015132D01*
X083316Y015113D01*
X083331Y015099D01*
X083349Y015092D01*
X084459Y015092D01*
X084459Y016242D01*
X084559Y016242D01*
X084559Y015092D01*
X085669Y015092D01*
X085687Y015099D01*
X085701Y015113D01*
X085709Y015218D02*
X085954Y015218D01*
X085954Y015317D02*
X085709Y015317D01*
X085709Y015415D02*
X085954Y015415D01*
X085954Y015514D02*
X085709Y015514D01*
X085709Y015612D02*
X085954Y015612D01*
X085954Y015711D02*
X085709Y015711D01*
X085709Y015809D02*
X085954Y015809D01*
X085954Y015908D02*
X085709Y015908D01*
X085709Y016006D02*
X085954Y016006D01*
X085954Y016105D02*
X085709Y016105D01*
X085709Y016203D02*
X085954Y016203D01*
X085954Y016302D02*
X084559Y016302D01*
X084559Y016342D02*
X085709Y016342D01*
X085709Y017452D01*
X085701Y017470D01*
X085687Y017484D01*
X085669Y017492D01*
X084559Y017492D01*
X084559Y016342D01*
X084559Y016400D02*
X084459Y016400D01*
X084459Y016302D02*
X083064Y016302D01*
X083064Y016400D02*
X083309Y016400D01*
X083309Y016499D02*
X083064Y016499D01*
X083064Y016597D02*
X083309Y016597D01*
X083309Y016696D02*
X083064Y016696D01*
X083064Y016794D02*
X083309Y016794D01*
X083309Y016893D02*
X083064Y016893D01*
X083064Y016991D02*
X083309Y016991D01*
X083309Y017090D02*
X083064Y017090D01*
X083064Y017188D02*
X083309Y017188D01*
X083309Y017287D02*
X083064Y017287D01*
X083064Y017385D02*
X083309Y017385D01*
X083330Y017484D02*
X083064Y017484D01*
X083064Y017582D02*
X085954Y017582D01*
X085954Y017484D02*
X085688Y017484D01*
X085709Y017385D02*
X085954Y017385D01*
X085954Y017287D02*
X085709Y017287D01*
X085709Y017188D02*
X085954Y017188D01*
X085954Y017090D02*
X085709Y017090D01*
X085709Y016991D02*
X085954Y016991D01*
X085954Y016893D02*
X085709Y016893D01*
X085709Y016794D02*
X085954Y016794D01*
X085954Y016696D02*
X085709Y016696D01*
X085709Y016597D02*
X085954Y016597D01*
X085954Y016499D02*
X085709Y016499D01*
X085709Y016400D02*
X085954Y016400D01*
X084559Y016499D02*
X084459Y016499D01*
X084459Y016597D02*
X084559Y016597D01*
X084559Y016696D02*
X084459Y016696D01*
X084459Y016794D02*
X084559Y016794D01*
X084559Y016893D02*
X084459Y016893D01*
X084459Y016991D02*
X084559Y016991D01*
X084559Y017090D02*
X084459Y017090D01*
X084459Y017188D02*
X084559Y017188D01*
X084559Y017287D02*
X084459Y017287D01*
X084459Y017385D02*
X084559Y017385D01*
X084559Y017484D02*
X084459Y017484D01*
X083087Y017681D02*
X085931Y017681D01*
X084559Y016203D02*
X084459Y016203D01*
X084459Y016105D02*
X084559Y016105D01*
X084559Y016006D02*
X084459Y016006D01*
X084459Y015908D02*
X084559Y015908D01*
X084559Y015809D02*
X084459Y015809D01*
X084459Y015711D02*
X084559Y015711D01*
X084559Y015612D02*
X084459Y015612D01*
X084459Y015514D02*
X084559Y015514D01*
X084559Y015415D02*
X084459Y015415D01*
X084459Y015317D02*
X084559Y015317D01*
X084559Y015218D02*
X084459Y015218D01*
X084459Y015120D02*
X084559Y015120D01*
X083314Y015120D02*
X083064Y015120D01*
X083064Y015218D02*
X083309Y015218D01*
X083309Y015317D02*
X083064Y015317D01*
X083064Y015415D02*
X083309Y015415D01*
X083309Y015514D02*
X083064Y015514D01*
X083064Y015612D02*
X083309Y015612D01*
X083309Y015711D02*
X083064Y015711D01*
X083064Y015809D02*
X083309Y015809D01*
X083309Y015908D02*
X083064Y015908D01*
X083064Y016006D02*
X083309Y016006D01*
X083309Y016105D02*
X083064Y016105D01*
X083064Y016203D02*
X083309Y016203D01*
X083022Y014430D02*
X086049Y014430D01*
X086008Y014332D02*
X083022Y014332D01*
X083022Y014233D02*
X085995Y014233D01*
X085995Y014135D02*
X083022Y014135D01*
X083022Y014036D02*
X086035Y014036D01*
X078406Y012834D02*
X078406Y012690D01*
X067959Y012690D01*
X067959Y012834D01*
X068011Y012855D01*
X068131Y012975D01*
X068196Y013132D01*
X068196Y013302D01*
X068131Y013459D01*
X068120Y013470D01*
X068418Y013470D01*
X068407Y013459D01*
X068342Y013302D01*
X068342Y013132D01*
X068407Y012975D01*
X068527Y012855D01*
X068684Y012790D01*
X068854Y012790D01*
X069011Y012855D01*
X069131Y012975D01*
X069196Y013132D01*
X069196Y013302D01*
X069131Y013459D01*
X069120Y013470D01*
X069418Y013470D01*
X069407Y013459D01*
X069342Y013302D01*
X069342Y013132D01*
X069407Y012975D01*
X069527Y012855D01*
X069684Y012790D01*
X069854Y012790D01*
X070011Y012855D01*
X070131Y012975D01*
X070196Y013132D01*
X070196Y013302D01*
X070131Y013459D01*
X070120Y013470D01*
X070418Y013470D01*
X070407Y013459D01*
X070342Y013302D01*
X070342Y013132D01*
X070407Y012975D01*
X070527Y012855D01*
X070684Y012790D01*
X070854Y012790D01*
X071011Y012855D01*
X071131Y012975D01*
X071196Y013132D01*
X071196Y013302D01*
X071131Y013459D01*
X071120Y013470D01*
X071531Y013470D01*
X071499Y013438D01*
X071461Y013381D01*
X071435Y013318D01*
X071425Y013265D01*
X071720Y013265D01*
X071720Y013169D01*
X071425Y013169D01*
X071435Y013116D01*
X071461Y013053D01*
X071499Y012996D01*
X071548Y012948D01*
X071604Y012910D01*
X071668Y012883D01*
X071720Y012873D01*
X071720Y013168D01*
X071817Y013168D01*
X071817Y012873D01*
X071870Y012883D01*
X071933Y012910D01*
X071990Y012948D01*
X072038Y012996D01*
X072076Y013053D01*
X072102Y013116D01*
X072113Y013169D01*
X071817Y013169D01*
X071817Y013265D01*
X072113Y013265D01*
X072102Y013318D01*
X072076Y013381D01*
X072038Y013438D01*
X072007Y013470D01*
X075245Y013470D01*
X075234Y013459D01*
X075169Y013302D01*
X075169Y013132D01*
X075234Y012975D01*
X075354Y012855D01*
X075511Y012790D01*
X075680Y012790D01*
X075837Y012855D01*
X075957Y012975D01*
X076022Y013132D01*
X076022Y013302D01*
X075957Y013459D01*
X075946Y013470D01*
X076245Y013470D01*
X076234Y013459D01*
X076169Y013302D01*
X076169Y013132D01*
X076234Y012975D01*
X076354Y012855D01*
X076511Y012790D01*
X076680Y012790D01*
X076837Y012855D01*
X076957Y012975D01*
X077022Y013132D01*
X077022Y013302D01*
X076957Y013459D01*
X076946Y013470D01*
X077245Y013470D01*
X077234Y013459D01*
X077169Y013302D01*
X077169Y013132D01*
X077234Y012975D01*
X077354Y012855D01*
X077511Y012790D01*
X077680Y012790D01*
X077837Y012855D01*
X077957Y012975D01*
X078022Y013132D01*
X078022Y013302D01*
X077957Y013459D01*
X077946Y013470D01*
X078245Y013470D01*
X078234Y013459D01*
X078169Y013302D01*
X078169Y013132D01*
X078234Y012975D01*
X078354Y012855D01*
X078406Y012834D01*
X078356Y012854D02*
X077835Y012854D01*
X077935Y012953D02*
X078256Y012953D01*
X078202Y013051D02*
X077989Y013051D01*
X078022Y013150D02*
X078169Y013150D01*
X078169Y013248D02*
X078022Y013248D01*
X078004Y013347D02*
X078187Y013347D01*
X078228Y013445D02*
X077963Y013445D01*
X077228Y013445D02*
X076963Y013445D01*
X077004Y013347D02*
X077187Y013347D01*
X077169Y013248D02*
X077022Y013248D01*
X077022Y013150D02*
X077169Y013150D01*
X077202Y013051D02*
X076989Y013051D01*
X076935Y012953D02*
X077256Y012953D01*
X077356Y012854D02*
X076835Y012854D01*
X076356Y012854D02*
X075835Y012854D01*
X075935Y012953D02*
X076256Y012953D01*
X076202Y013051D02*
X075989Y013051D01*
X076022Y013150D02*
X076169Y013150D01*
X076169Y013248D02*
X076022Y013248D01*
X076004Y013347D02*
X076187Y013347D01*
X076228Y013445D02*
X075963Y013445D01*
X075228Y013445D02*
X072031Y013445D01*
X072090Y013347D02*
X075187Y013347D01*
X075169Y013248D02*
X071817Y013248D01*
X071720Y013248D02*
X071196Y013248D01*
X071196Y013150D02*
X071428Y013150D01*
X071462Y013051D02*
X071162Y013051D01*
X071108Y012953D02*
X071543Y012953D01*
X071720Y012953D02*
X071817Y012953D01*
X071817Y013051D02*
X071720Y013051D01*
X071720Y013150D02*
X071817Y013150D01*
X071995Y012953D02*
X075256Y012953D01*
X075202Y013051D02*
X072075Y013051D01*
X072109Y013150D02*
X075169Y013150D01*
X075356Y012854D02*
X071008Y012854D01*
X070529Y012854D02*
X070008Y012854D01*
X070108Y012953D02*
X070429Y012953D01*
X070375Y013051D02*
X070162Y013051D01*
X070196Y013150D02*
X070342Y013150D01*
X070342Y013248D02*
X070196Y013248D01*
X070177Y013347D02*
X070360Y013347D01*
X070401Y013445D02*
X070136Y013445D01*
X069401Y013445D02*
X069136Y013445D01*
X069177Y013347D02*
X069360Y013347D01*
X069342Y013248D02*
X069196Y013248D01*
X069196Y013150D02*
X069342Y013150D01*
X069375Y013051D02*
X069162Y013051D01*
X069108Y012953D02*
X069429Y012953D01*
X069529Y012854D02*
X069008Y012854D01*
X068529Y012854D02*
X068008Y012854D01*
X067959Y012756D02*
X078406Y012756D01*
X071506Y013445D02*
X071136Y013445D01*
X071177Y013347D02*
X071447Y013347D01*
X068429Y012953D02*
X068108Y012953D01*
X068162Y013051D02*
X068375Y013051D01*
X068342Y013150D02*
X068196Y013150D01*
X068196Y013248D02*
X068342Y013248D01*
X068360Y013347D02*
X068177Y013347D01*
X068136Y013445D02*
X068401Y013445D01*
X067418Y013470D02*
X067407Y013459D01*
X067342Y013302D01*
X067342Y013132D01*
X067407Y012975D01*
X067527Y012855D01*
X067579Y012834D01*
X067579Y012690D01*
X057132Y012690D01*
X057132Y012834D01*
X057184Y012855D01*
X057304Y012975D01*
X057369Y013132D01*
X057369Y013302D01*
X057304Y013459D01*
X057293Y013470D01*
X057591Y013470D01*
X057580Y013459D01*
X057515Y013302D01*
X057515Y013132D01*
X057580Y012975D01*
X057700Y012855D01*
X057857Y012790D01*
X058027Y012790D01*
X058184Y012855D01*
X058304Y012975D01*
X058369Y013132D01*
X058369Y013302D01*
X058304Y013459D01*
X058293Y013470D01*
X058591Y013470D01*
X058580Y013459D01*
X058515Y013302D01*
X058515Y013132D01*
X058580Y012975D01*
X058700Y012855D01*
X058857Y012790D01*
X059027Y012790D01*
X059184Y012855D01*
X059304Y012975D01*
X059369Y013132D01*
X059369Y013302D01*
X059304Y013459D01*
X059293Y013470D01*
X059591Y013470D01*
X059580Y013459D01*
X059515Y013302D01*
X059515Y013132D01*
X059580Y012975D01*
X059700Y012855D01*
X059857Y012790D01*
X060027Y012790D01*
X060184Y012855D01*
X060304Y012975D01*
X060369Y013132D01*
X060369Y013302D01*
X060304Y013459D01*
X060293Y013470D01*
X060704Y013470D01*
X060673Y013438D01*
X060635Y013381D01*
X060608Y013318D01*
X060598Y013265D01*
X060894Y013265D01*
X060894Y013169D01*
X060894Y013168D02*
X060990Y013168D01*
X060990Y012873D01*
X061043Y012883D01*
X061106Y012910D01*
X061163Y012948D01*
X061211Y012996D01*
X061249Y013053D01*
X061275Y013116D01*
X061286Y013169D01*
X060990Y013169D01*
X060990Y013265D01*
X061286Y013265D01*
X061275Y013318D01*
X061249Y013381D01*
X061211Y013438D01*
X061180Y013470D01*
X064418Y013470D01*
X064407Y013459D01*
X064342Y013302D01*
X064342Y013132D01*
X064407Y012975D01*
X064527Y012855D01*
X064684Y012790D01*
X064854Y012790D01*
X065011Y012855D01*
X065131Y012975D01*
X065196Y013132D01*
X065196Y013302D01*
X065131Y013459D01*
X065120Y013470D01*
X065418Y013470D01*
X065407Y013459D01*
X065342Y013302D01*
X065342Y013132D01*
X065407Y012975D01*
X065527Y012855D01*
X065684Y012790D01*
X065854Y012790D01*
X066011Y012855D01*
X066131Y012975D01*
X066196Y013132D01*
X066196Y013302D01*
X066131Y013459D01*
X066120Y013470D01*
X066418Y013470D01*
X066407Y013459D01*
X066342Y013302D01*
X066342Y013132D01*
X066407Y012975D01*
X066527Y012855D01*
X066684Y012790D01*
X066854Y012790D01*
X067011Y012855D01*
X067131Y012975D01*
X067196Y013132D01*
X067196Y013302D01*
X067131Y013459D01*
X067120Y013470D01*
X067418Y013470D01*
X067401Y013445D02*
X067136Y013445D01*
X067177Y013347D02*
X067360Y013347D01*
X067342Y013248D02*
X067196Y013248D01*
X067196Y013150D02*
X067342Y013150D01*
X067375Y013051D02*
X067162Y013051D01*
X067108Y012953D02*
X067429Y012953D01*
X067529Y012854D02*
X067008Y012854D01*
X066529Y012854D02*
X066008Y012854D01*
X066108Y012953D02*
X066429Y012953D01*
X066375Y013051D02*
X066162Y013051D01*
X066196Y013150D02*
X066342Y013150D01*
X066342Y013248D02*
X066196Y013248D01*
X066177Y013347D02*
X066360Y013347D01*
X066401Y013445D02*
X066136Y013445D01*
X065401Y013445D02*
X065136Y013445D01*
X065177Y013347D02*
X065360Y013347D01*
X065342Y013248D02*
X065196Y013248D01*
X065196Y013150D02*
X065342Y013150D01*
X065375Y013051D02*
X065162Y013051D01*
X065108Y012953D02*
X065429Y012953D01*
X065529Y012854D02*
X065008Y012854D01*
X064529Y012854D02*
X060181Y012854D01*
X060281Y012953D02*
X060716Y012953D01*
X060721Y012948D02*
X060778Y012910D01*
X060841Y012883D01*
X060894Y012873D01*
X060894Y013168D01*
X060894Y013169D02*
X060598Y013169D01*
X060608Y013116D01*
X060635Y013053D01*
X060673Y012996D01*
X060721Y012948D01*
X060636Y013051D02*
X060335Y013051D01*
X060369Y013150D02*
X060602Y013150D01*
X060620Y013347D02*
X060350Y013347D01*
X060369Y013248D02*
X060894Y013248D01*
X060990Y013248D02*
X064342Y013248D01*
X064342Y013150D02*
X061282Y013150D01*
X061248Y013051D02*
X064375Y013051D01*
X064429Y012953D02*
X061168Y012953D01*
X060990Y012953D02*
X060894Y012953D01*
X060894Y013051D02*
X060990Y013051D01*
X060990Y013150D02*
X060894Y013150D01*
X061264Y013347D02*
X064360Y013347D01*
X064401Y013445D02*
X061204Y013445D01*
X060680Y013445D02*
X060309Y013445D01*
X059574Y013445D02*
X059309Y013445D01*
X059350Y013347D02*
X059534Y013347D01*
X059515Y013248D02*
X059369Y013248D01*
X059369Y013150D02*
X059515Y013150D01*
X059549Y013051D02*
X059335Y013051D01*
X059281Y012953D02*
X059603Y012953D01*
X059702Y012854D02*
X059181Y012854D01*
X058702Y012854D02*
X058181Y012854D01*
X058281Y012953D02*
X058603Y012953D01*
X058549Y013051D02*
X058335Y013051D01*
X058369Y013150D02*
X058515Y013150D01*
X058515Y013248D02*
X058369Y013248D01*
X058350Y013347D02*
X058534Y013347D01*
X058574Y013445D02*
X058309Y013445D01*
X057574Y013445D02*
X057309Y013445D01*
X057350Y013347D02*
X057534Y013347D01*
X057515Y013248D02*
X057369Y013248D01*
X057369Y013150D02*
X057515Y013150D01*
X057549Y013051D02*
X057335Y013051D01*
X057281Y012953D02*
X057603Y012953D01*
X057702Y012854D02*
X057181Y012854D01*
X057132Y012756D02*
X067579Y012756D01*
X064412Y013970D02*
X061369Y013970D01*
X061369Y014568D01*
X061342Y014594D01*
X061411Y014663D01*
X061411Y017617D01*
X061415Y017648D01*
X061446Y017701D01*
X061499Y017732D01*
X061531Y017737D01*
X064180Y017737D01*
X064211Y017732D01*
X064265Y017701D01*
X064296Y017648D01*
X064300Y017617D01*
X064300Y014663D01*
X064376Y014587D01*
X064547Y014587D01*
X064527Y014579D01*
X064407Y014459D01*
X064342Y014302D01*
X064342Y014132D01*
X064407Y013975D01*
X064412Y013970D01*
X064382Y014036D02*
X061369Y014036D01*
X061369Y014135D02*
X064342Y014135D01*
X064342Y014233D02*
X061369Y014233D01*
X061369Y014332D02*
X064354Y014332D01*
X064395Y014430D02*
X061369Y014430D01*
X061369Y014529D02*
X064477Y014529D01*
X064336Y014627D02*
X061375Y014627D01*
X061411Y014726D02*
X064300Y014726D01*
X064300Y014824D02*
X061411Y014824D01*
X061411Y014923D02*
X064300Y014923D01*
X064300Y015021D02*
X061411Y015021D01*
X061411Y015120D02*
X061660Y015120D01*
X061663Y015113D02*
X061677Y015099D01*
X061695Y015092D01*
X062805Y015092D01*
X062805Y016242D01*
X061655Y016242D01*
X061655Y015132D01*
X061663Y015113D01*
X061655Y015218D02*
X061411Y015218D01*
X061411Y015317D02*
X061655Y015317D01*
X061655Y015415D02*
X061411Y015415D01*
X061411Y015514D02*
X061655Y015514D01*
X061655Y015612D02*
X061411Y015612D01*
X061411Y015711D02*
X061655Y015711D01*
X061655Y015809D02*
X061411Y015809D01*
X061411Y015908D02*
X061655Y015908D01*
X061655Y016006D02*
X061411Y016006D01*
X061411Y016105D02*
X061655Y016105D01*
X061655Y016203D02*
X061411Y016203D01*
X061411Y016302D02*
X062805Y016302D01*
X062805Y016342D02*
X062805Y016242D01*
X062905Y016242D01*
X062905Y015092D01*
X064015Y015092D01*
X064034Y015099D01*
X064048Y015113D01*
X064055Y015132D01*
X064055Y016242D01*
X062905Y016242D01*
X062905Y016342D01*
X062805Y016342D01*
X061655Y016342D01*
X061655Y017452D01*
X061663Y017470D01*
X061677Y017484D01*
X061695Y017492D01*
X062805Y017492D01*
X062805Y016342D01*
X062805Y016400D02*
X062905Y016400D01*
X062905Y016342D02*
X062905Y017492D01*
X064015Y017492D01*
X064034Y017484D01*
X064048Y017470D01*
X064055Y017452D01*
X064055Y016342D01*
X062905Y016342D01*
X062905Y016302D02*
X064300Y016302D01*
X064300Y016400D02*
X064055Y016400D01*
X064055Y016499D02*
X064300Y016499D01*
X064300Y016597D02*
X064055Y016597D01*
X064055Y016696D02*
X064300Y016696D01*
X064300Y016794D02*
X064055Y016794D01*
X064055Y016893D02*
X064300Y016893D01*
X064300Y016991D02*
X064055Y016991D01*
X064055Y017090D02*
X064300Y017090D01*
X064300Y017188D02*
X064055Y017188D01*
X064055Y017287D02*
X064300Y017287D01*
X064300Y017385D02*
X064055Y017385D01*
X064034Y017484D02*
X064300Y017484D01*
X064300Y017582D02*
X061411Y017582D01*
X061411Y017484D02*
X061677Y017484D01*
X061655Y017385D02*
X061411Y017385D01*
X061411Y017287D02*
X061655Y017287D01*
X061655Y017188D02*
X061411Y017188D01*
X061411Y017090D02*
X061655Y017090D01*
X061655Y016991D02*
X061411Y016991D01*
X061411Y016893D02*
X061655Y016893D01*
X061655Y016794D02*
X061411Y016794D01*
X061411Y016696D02*
X061655Y016696D01*
X061655Y016597D02*
X061411Y016597D01*
X061411Y016499D02*
X061655Y016499D01*
X061655Y016400D02*
X061411Y016400D01*
X062805Y016499D02*
X062905Y016499D01*
X062905Y016597D02*
X062805Y016597D01*
X062805Y016696D02*
X062905Y016696D01*
X062905Y016794D02*
X062805Y016794D01*
X062805Y016893D02*
X062905Y016893D01*
X062905Y016991D02*
X062805Y016991D01*
X062805Y017090D02*
X062905Y017090D01*
X062905Y017188D02*
X062805Y017188D01*
X062805Y017287D02*
X062905Y017287D01*
X062905Y017385D02*
X062805Y017385D01*
X062805Y017484D02*
X062905Y017484D01*
X064277Y017681D02*
X061434Y017681D01*
X062805Y016203D02*
X062905Y016203D01*
X062905Y016105D02*
X062805Y016105D01*
X062805Y016006D02*
X062905Y016006D01*
X062905Y015908D02*
X062805Y015908D01*
X062805Y015809D02*
X062905Y015809D01*
X062905Y015711D02*
X062805Y015711D01*
X062805Y015612D02*
X062905Y015612D01*
X062905Y015514D02*
X062805Y015514D01*
X062805Y015415D02*
X062905Y015415D01*
X062905Y015317D02*
X062805Y015317D01*
X062805Y015218D02*
X062905Y015218D01*
X062905Y015120D02*
X062805Y015120D01*
X064050Y015120D02*
X064300Y015120D01*
X064300Y015218D02*
X064055Y015218D01*
X064055Y015317D02*
X064300Y015317D01*
X064300Y015415D02*
X064055Y015415D01*
X064055Y015514D02*
X064300Y015514D01*
X064300Y015612D02*
X064055Y015612D01*
X064055Y015711D02*
X064300Y015711D01*
X064300Y015809D02*
X064055Y015809D01*
X064055Y015908D02*
X064300Y015908D01*
X064300Y016006D02*
X064055Y016006D01*
X064055Y016105D02*
X064300Y016105D01*
X064300Y016203D02*
X064055Y016203D01*
X056591Y013470D02*
X056293Y013470D01*
X056304Y013459D01*
X056369Y013302D01*
X056369Y013132D01*
X056304Y012975D01*
X056184Y012855D01*
X056027Y012790D01*
X055857Y012790D01*
X055700Y012855D01*
X055580Y012975D01*
X055515Y013132D01*
X055515Y013302D01*
X055580Y013459D01*
X055591Y013470D01*
X055293Y013470D01*
X055304Y013459D01*
X055369Y013302D01*
X055369Y013132D01*
X055304Y012975D01*
X055184Y012855D01*
X055027Y012790D01*
X054857Y012790D01*
X054700Y012855D01*
X054580Y012975D01*
X054515Y013132D01*
X054515Y013302D01*
X054580Y013459D01*
X054591Y013470D01*
X054293Y013470D01*
X054304Y013459D01*
X054369Y013302D01*
X054369Y013132D01*
X054304Y012975D01*
X054184Y012855D01*
X054027Y012790D01*
X053857Y012790D01*
X053700Y012855D01*
X053580Y012975D01*
X053515Y013132D01*
X053515Y013302D01*
X053580Y013459D01*
X053591Y013470D01*
X053051Y013470D01*
X052946Y013364D01*
X052800Y013304D01*
X052643Y013304D01*
X052497Y013364D01*
X052392Y013470D01*
X050353Y013470D01*
X050385Y013438D01*
X050423Y013381D01*
X050449Y013318D01*
X050459Y013265D01*
X050164Y013265D01*
X050164Y013169D01*
X050459Y013169D01*
X050449Y013116D01*
X050423Y013053D01*
X050385Y012996D01*
X050336Y012948D01*
X050279Y012910D01*
X050216Y012883D01*
X050164Y012873D01*
X050164Y013168D01*
X050067Y013168D01*
X050067Y012873D01*
X050014Y012883D01*
X049951Y012910D01*
X049894Y012948D01*
X049846Y012996D01*
X049808Y013053D01*
X049782Y013116D01*
X049771Y013169D01*
X050067Y013169D01*
X050067Y013265D01*
X049771Y013265D01*
X049782Y013318D01*
X049808Y013381D01*
X049846Y013438D01*
X049877Y013470D01*
X049466Y013470D01*
X049477Y013459D01*
X049542Y013302D01*
X049542Y013132D01*
X049477Y012975D01*
X049357Y012855D01*
X049200Y012790D01*
X049030Y012790D01*
X048873Y012855D01*
X048753Y012975D01*
X048688Y013132D01*
X048688Y013302D01*
X048753Y013459D01*
X048764Y013470D01*
X048466Y013470D01*
X048477Y013459D01*
X048542Y013302D01*
X048542Y013132D01*
X048477Y012975D01*
X048357Y012855D01*
X048200Y012790D01*
X048030Y012790D01*
X047873Y012855D01*
X047753Y012975D01*
X047688Y013132D01*
X047688Y013302D01*
X047753Y013459D01*
X047764Y013470D01*
X047466Y013470D01*
X047477Y013459D01*
X047542Y013302D01*
X047542Y013132D01*
X047477Y012975D01*
X047357Y012855D01*
X047200Y012790D01*
X047030Y012790D01*
X046873Y012855D01*
X046753Y012975D01*
X046688Y013132D01*
X046688Y013302D01*
X046753Y013459D01*
X046764Y013470D01*
X046466Y013470D01*
X046477Y013459D01*
X046542Y013302D01*
X046542Y013132D01*
X046477Y012975D01*
X046357Y012855D01*
X046305Y012834D01*
X046305Y012690D01*
X056752Y012690D01*
X056752Y012834D01*
X056700Y012855D01*
X056580Y012975D01*
X056515Y013132D01*
X056515Y013302D01*
X056580Y013459D01*
X056591Y013470D01*
X056574Y013445D02*
X056309Y013445D01*
X056350Y013347D02*
X056534Y013347D01*
X056515Y013248D02*
X056369Y013248D01*
X056369Y013150D02*
X056515Y013150D01*
X056549Y013051D02*
X056335Y013051D01*
X056281Y012953D02*
X056603Y012953D01*
X056702Y012854D02*
X056181Y012854D01*
X055702Y012854D02*
X055181Y012854D01*
X055281Y012953D02*
X055603Y012953D01*
X055549Y013051D02*
X055335Y013051D01*
X055369Y013150D02*
X055515Y013150D01*
X055515Y013248D02*
X055369Y013248D01*
X055350Y013347D02*
X055534Y013347D01*
X055574Y013445D02*
X055309Y013445D01*
X054574Y013445D02*
X054309Y013445D01*
X054350Y013347D02*
X054534Y013347D01*
X054515Y013248D02*
X054369Y013248D01*
X054369Y013150D02*
X054515Y013150D01*
X054549Y013051D02*
X054335Y013051D01*
X054281Y012953D02*
X054603Y012953D01*
X054702Y012854D02*
X054181Y012854D01*
X053702Y012854D02*
X049355Y012854D01*
X049455Y012953D02*
X049889Y012953D01*
X049809Y013051D02*
X049509Y013051D01*
X049542Y013150D02*
X049775Y013150D01*
X049793Y013347D02*
X049523Y013347D01*
X049542Y013248D02*
X050067Y013248D01*
X050164Y013248D02*
X053515Y013248D01*
X053515Y013150D02*
X050455Y013150D01*
X050422Y013051D02*
X053549Y013051D01*
X053603Y012953D02*
X050341Y012953D01*
X050164Y012953D02*
X050067Y012953D01*
X050067Y013051D02*
X050164Y013051D01*
X050164Y013150D02*
X050067Y013150D01*
X050437Y013347D02*
X052540Y013347D01*
X052416Y013445D02*
X050378Y013445D01*
X049853Y013445D02*
X049483Y013445D01*
X048748Y013445D02*
X048483Y013445D01*
X048523Y013347D02*
X048707Y013347D01*
X048688Y013248D02*
X048542Y013248D01*
X048542Y013150D02*
X048688Y013150D01*
X048722Y013051D02*
X048509Y013051D01*
X048455Y012953D02*
X048776Y012953D01*
X048876Y012854D02*
X048355Y012854D01*
X047876Y012854D02*
X047355Y012854D01*
X047455Y012953D02*
X047776Y012953D01*
X047722Y013051D02*
X047509Y013051D01*
X047542Y013150D02*
X047688Y013150D01*
X047688Y013248D02*
X047542Y013248D01*
X047523Y013347D02*
X047707Y013347D01*
X047748Y013445D02*
X047483Y013445D01*
X046748Y013445D02*
X046483Y013445D01*
X046523Y013347D02*
X046707Y013347D01*
X046688Y013248D02*
X046542Y013248D01*
X046542Y013150D02*
X046688Y013150D01*
X046722Y013051D02*
X046509Y013051D01*
X046455Y012953D02*
X046776Y012953D01*
X046876Y012854D02*
X046355Y012854D01*
X046305Y012756D02*
X056752Y012756D01*
X053534Y013347D02*
X052903Y013347D01*
X053027Y013445D02*
X053574Y013445D01*
X045925Y012834D02*
X045925Y012690D01*
X035478Y012690D01*
X035478Y012834D01*
X035530Y012855D01*
X035650Y012975D01*
X035715Y013132D01*
X035715Y013302D01*
X035650Y013459D01*
X035639Y013470D01*
X035937Y013470D01*
X035927Y013459D01*
X035862Y013302D01*
X035862Y013132D01*
X035927Y012975D01*
X036047Y012855D01*
X036204Y012790D01*
X036373Y012790D01*
X036530Y012855D01*
X036650Y012975D01*
X036715Y013132D01*
X036715Y013302D01*
X036650Y013459D01*
X036639Y013470D01*
X036937Y013470D01*
X036927Y013459D01*
X036862Y013302D01*
X036862Y013132D01*
X036927Y012975D01*
X037047Y012855D01*
X037204Y012790D01*
X037373Y012790D01*
X037530Y012855D01*
X037650Y012975D01*
X037715Y013132D01*
X037715Y013302D01*
X037650Y013459D01*
X037639Y013470D01*
X037937Y013470D01*
X037927Y013459D01*
X037862Y013302D01*
X037862Y013132D01*
X037927Y012975D01*
X038047Y012855D01*
X038204Y012790D01*
X038373Y012790D01*
X038530Y012855D01*
X038650Y012975D01*
X038715Y013132D01*
X038715Y013302D01*
X038650Y013459D01*
X038639Y013470D01*
X039051Y013470D01*
X039019Y013438D01*
X038981Y013381D01*
X038955Y013318D01*
X038944Y013265D01*
X039240Y013265D01*
X039240Y013169D01*
X038944Y013169D01*
X038955Y013116D01*
X038981Y013053D01*
X039019Y012996D01*
X039067Y012948D01*
X039124Y012910D01*
X039187Y012883D01*
X039240Y012873D01*
X039240Y013168D01*
X039337Y013168D01*
X039337Y012873D01*
X039390Y012883D01*
X039453Y012910D01*
X039510Y012948D01*
X039558Y012996D01*
X039596Y013053D01*
X039622Y013116D01*
X039632Y013169D01*
X039337Y013169D01*
X039337Y013265D01*
X039632Y013265D01*
X039622Y013318D01*
X039596Y013381D01*
X039558Y013438D01*
X039526Y013470D01*
X042764Y013470D01*
X042753Y013459D01*
X042688Y013302D01*
X042688Y013132D01*
X042753Y012975D01*
X042873Y012855D01*
X043030Y012790D01*
X043200Y012790D01*
X043357Y012855D01*
X043477Y012975D01*
X043542Y013132D01*
X043542Y013302D01*
X043477Y013459D01*
X043466Y013470D01*
X043764Y013470D01*
X043753Y013459D01*
X043688Y013302D01*
X043688Y013132D01*
X043753Y012975D01*
X043873Y012855D01*
X044030Y012790D01*
X044200Y012790D01*
X044357Y012855D01*
X044477Y012975D01*
X044542Y013132D01*
X044542Y013302D01*
X044477Y013459D01*
X044466Y013470D01*
X044764Y013470D01*
X044753Y013459D01*
X044688Y013302D01*
X044688Y013132D01*
X044753Y012975D01*
X044873Y012855D01*
X045030Y012790D01*
X045200Y012790D01*
X045357Y012855D01*
X045477Y012975D01*
X045542Y013132D01*
X045542Y013302D01*
X045477Y013459D01*
X045466Y013470D01*
X045764Y013470D01*
X045753Y013459D01*
X045688Y013302D01*
X045688Y013132D01*
X045753Y012975D01*
X045873Y012855D01*
X045925Y012834D01*
X045876Y012854D02*
X045355Y012854D01*
X045455Y012953D02*
X045776Y012953D01*
X045722Y013051D02*
X045509Y013051D01*
X045542Y013150D02*
X045688Y013150D01*
X045688Y013248D02*
X045542Y013248D01*
X045523Y013347D02*
X045707Y013347D01*
X045748Y013445D02*
X045483Y013445D01*
X044748Y013445D02*
X044483Y013445D01*
X044523Y013347D02*
X044707Y013347D01*
X044688Y013248D02*
X044542Y013248D01*
X044542Y013150D02*
X044688Y013150D01*
X044722Y013051D02*
X044509Y013051D01*
X044455Y012953D02*
X044776Y012953D01*
X044876Y012854D02*
X044355Y012854D01*
X043876Y012854D02*
X043355Y012854D01*
X043455Y012953D02*
X043776Y012953D01*
X043722Y013051D02*
X043509Y013051D01*
X043542Y013150D02*
X043688Y013150D01*
X043688Y013248D02*
X043542Y013248D01*
X043523Y013347D02*
X043707Y013347D01*
X043748Y013445D02*
X043483Y013445D01*
X042748Y013445D02*
X039551Y013445D01*
X039610Y013347D02*
X042707Y013347D01*
X042688Y013248D02*
X039337Y013248D01*
X039240Y013248D02*
X038715Y013248D01*
X038715Y013150D02*
X038948Y013150D01*
X038982Y013051D02*
X038682Y013051D01*
X038628Y012953D02*
X039062Y012953D01*
X039240Y012953D02*
X039337Y012953D01*
X039337Y013051D02*
X039240Y013051D01*
X039240Y013150D02*
X039337Y013150D01*
X039515Y012953D02*
X042776Y012953D01*
X042722Y013051D02*
X039595Y013051D01*
X039629Y013150D02*
X042688Y013150D01*
X042876Y012854D02*
X038528Y012854D01*
X038049Y012854D02*
X037528Y012854D01*
X037628Y012953D02*
X037949Y012953D01*
X037895Y013051D02*
X037682Y013051D01*
X037715Y013150D02*
X037862Y013150D01*
X037862Y013248D02*
X037715Y013248D01*
X037697Y013347D02*
X037880Y013347D01*
X037921Y013445D02*
X037656Y013445D01*
X036921Y013445D02*
X036656Y013445D01*
X036697Y013347D02*
X036880Y013347D01*
X036862Y013248D02*
X036715Y013248D01*
X036715Y013150D02*
X036862Y013150D01*
X036895Y013051D02*
X036682Y013051D01*
X036628Y012953D02*
X036949Y012953D01*
X037049Y012854D02*
X036528Y012854D01*
X036049Y012854D02*
X035528Y012854D01*
X035478Y012756D02*
X045925Y012756D01*
X042759Y013970D02*
X039715Y013970D01*
X039715Y014568D01*
X039688Y014594D01*
X039757Y014663D01*
X039757Y017617D01*
X039761Y017648D01*
X039792Y017701D01*
X039846Y017732D01*
X039877Y017737D01*
X042527Y017737D01*
X042558Y017732D01*
X042611Y017701D01*
X042643Y017648D01*
X042647Y017617D01*
X042647Y014663D01*
X042723Y014587D01*
X042893Y014587D01*
X042873Y014579D01*
X042753Y014459D01*
X042688Y014302D01*
X042688Y014132D01*
X042753Y013975D01*
X042759Y013970D01*
X042728Y014036D02*
X039715Y014036D01*
X039715Y014135D02*
X042688Y014135D01*
X042688Y014233D02*
X039715Y014233D01*
X039715Y014332D02*
X042701Y014332D01*
X042741Y014430D02*
X039715Y014430D01*
X039715Y014529D02*
X042823Y014529D01*
X042683Y014627D02*
X039721Y014627D01*
X039757Y014726D02*
X042647Y014726D01*
X042647Y014824D02*
X039757Y014824D01*
X039757Y014923D02*
X042647Y014923D01*
X042647Y015021D02*
X039757Y015021D01*
X039757Y015120D02*
X040007Y015120D01*
X040009Y015113D02*
X040023Y015099D01*
X040042Y015092D01*
X041152Y015092D01*
X041152Y016242D01*
X040002Y016242D01*
X040002Y015132D01*
X040009Y015113D01*
X040002Y015218D02*
X039757Y015218D01*
X039757Y015317D02*
X040002Y015317D01*
X040002Y015415D02*
X039757Y015415D01*
X039757Y015514D02*
X040002Y015514D01*
X040002Y015612D02*
X039757Y015612D01*
X039757Y015711D02*
X040002Y015711D01*
X040002Y015809D02*
X039757Y015809D01*
X039757Y015908D02*
X040002Y015908D01*
X040002Y016006D02*
X039757Y016006D01*
X039757Y016105D02*
X040002Y016105D01*
X040002Y016203D02*
X039757Y016203D01*
X039757Y016302D02*
X041152Y016302D01*
X041152Y016342D02*
X041152Y016242D01*
X041252Y016242D01*
X041252Y016342D01*
X041152Y016342D01*
X041152Y017492D01*
X040042Y017492D01*
X040023Y017484D01*
X039757Y017484D01*
X039757Y017582D02*
X042647Y017582D01*
X042647Y017484D02*
X042381Y017484D01*
X042380Y017484D02*
X042362Y017492D01*
X041252Y017492D01*
X041252Y016342D01*
X042402Y016342D01*
X042402Y017452D01*
X042394Y017470D01*
X042380Y017484D01*
X042402Y017385D02*
X042647Y017385D01*
X042647Y017287D02*
X042402Y017287D01*
X042402Y017188D02*
X042647Y017188D01*
X042647Y017090D02*
X042402Y017090D01*
X042402Y016991D02*
X042647Y016991D01*
X042647Y016893D02*
X042402Y016893D01*
X042402Y016794D02*
X042647Y016794D01*
X042647Y016696D02*
X042402Y016696D01*
X042402Y016597D02*
X042647Y016597D01*
X042647Y016499D02*
X042402Y016499D01*
X042402Y016400D02*
X042647Y016400D01*
X042647Y016302D02*
X041252Y016302D01*
X041252Y016242D02*
X042402Y016242D01*
X042402Y015132D01*
X042394Y015113D01*
X042380Y015099D01*
X042362Y015092D01*
X041252Y015092D01*
X041252Y016242D01*
X041252Y016203D02*
X041152Y016203D01*
X041152Y016105D02*
X041252Y016105D01*
X041252Y016006D02*
X041152Y016006D01*
X041152Y015908D02*
X041252Y015908D01*
X041252Y015809D02*
X041152Y015809D01*
X041152Y015711D02*
X041252Y015711D01*
X041252Y015612D02*
X041152Y015612D01*
X041152Y015514D02*
X041252Y015514D01*
X041252Y015415D02*
X041152Y015415D01*
X041152Y015317D02*
X041252Y015317D01*
X041252Y015218D02*
X041152Y015218D01*
X041152Y015120D02*
X041252Y015120D01*
X042397Y015120D02*
X042647Y015120D01*
X042647Y015218D02*
X042402Y015218D01*
X042402Y015317D02*
X042647Y015317D01*
X042647Y015415D02*
X042402Y015415D01*
X042402Y015514D02*
X042647Y015514D01*
X042647Y015612D02*
X042402Y015612D01*
X042402Y015711D02*
X042647Y015711D01*
X042647Y015809D02*
X042402Y015809D01*
X042402Y015908D02*
X042647Y015908D01*
X042647Y016006D02*
X042402Y016006D01*
X042402Y016105D02*
X042647Y016105D01*
X042647Y016203D02*
X042402Y016203D01*
X041252Y016400D02*
X041152Y016400D01*
X041152Y016342D02*
X040002Y016342D01*
X040002Y017452D01*
X040009Y017470D01*
X040023Y017484D01*
X040002Y017385D02*
X039757Y017385D01*
X039757Y017287D02*
X040002Y017287D01*
X040002Y017188D02*
X039757Y017188D01*
X039757Y017090D02*
X040002Y017090D01*
X040002Y016991D02*
X039757Y016991D01*
X039757Y016893D02*
X040002Y016893D01*
X040002Y016794D02*
X039757Y016794D01*
X039757Y016696D02*
X040002Y016696D01*
X040002Y016597D02*
X039757Y016597D01*
X039757Y016499D02*
X040002Y016499D01*
X040002Y016400D02*
X039757Y016400D01*
X041152Y016499D02*
X041252Y016499D01*
X041252Y016597D02*
X041152Y016597D01*
X041152Y016696D02*
X041252Y016696D01*
X041252Y016794D02*
X041152Y016794D01*
X041152Y016893D02*
X041252Y016893D01*
X041252Y016991D02*
X041152Y016991D01*
X041152Y017090D02*
X041252Y017090D01*
X041252Y017188D02*
X041152Y017188D01*
X041152Y017287D02*
X041252Y017287D01*
X041252Y017385D02*
X041152Y017385D01*
X041152Y017484D02*
X041252Y017484D01*
X042623Y017681D02*
X039780Y017681D01*
X021239Y014587D02*
X021220Y014579D01*
X021100Y014459D01*
X021035Y014302D01*
X021035Y014132D01*
X021100Y013975D01*
X021105Y013970D01*
X018918Y013970D01*
X018888Y013999D01*
X018767Y014050D01*
X018269Y014050D01*
X018062Y014257D01*
X018062Y014568D01*
X018035Y014594D01*
X018103Y014663D01*
X018103Y017617D01*
X018108Y017648D01*
X018139Y017701D01*
X018192Y017732D01*
X018223Y017737D01*
X020873Y017737D01*
X020904Y017732D01*
X020958Y017701D01*
X020989Y017648D01*
X020993Y017617D01*
X020993Y014663D01*
X021069Y014587D01*
X021239Y014587D01*
X021170Y014529D02*
X018062Y014529D01*
X018068Y014627D02*
X021029Y014627D01*
X020993Y014726D02*
X018103Y014726D01*
X018103Y014824D02*
X020993Y014824D01*
X020993Y014923D02*
X018103Y014923D01*
X018103Y015021D02*
X020993Y015021D01*
X020993Y015120D02*
X020743Y015120D01*
X020741Y015113D02*
X020748Y015132D01*
X020748Y016242D01*
X019598Y016242D01*
X019598Y015092D01*
X020708Y015092D01*
X020727Y015099D01*
X020741Y015113D01*
X020748Y015218D02*
X020993Y015218D01*
X020993Y015317D02*
X020748Y015317D01*
X020748Y015415D02*
X020993Y015415D01*
X020993Y015514D02*
X020748Y015514D01*
X020748Y015612D02*
X020993Y015612D01*
X020993Y015711D02*
X020748Y015711D01*
X020748Y015809D02*
X020993Y015809D01*
X020993Y015908D02*
X020748Y015908D01*
X020748Y016006D02*
X020993Y016006D01*
X020993Y016105D02*
X020748Y016105D01*
X020748Y016203D02*
X020993Y016203D01*
X020993Y016302D02*
X019598Y016302D01*
X019598Y016342D02*
X020748Y016342D01*
X020748Y017452D01*
X020741Y017470D01*
X020727Y017484D01*
X020993Y017484D01*
X020993Y017582D02*
X018103Y017582D01*
X018103Y017484D02*
X018369Y017484D01*
X018370Y017484D02*
X018356Y017470D01*
X018348Y017452D01*
X018348Y016342D01*
X019498Y016342D01*
X019498Y017492D01*
X018388Y017492D01*
X018370Y017484D01*
X018348Y017385D02*
X018103Y017385D01*
X018103Y017287D02*
X018348Y017287D01*
X018348Y017188D02*
X018103Y017188D01*
X018103Y017090D02*
X018348Y017090D01*
X018348Y016991D02*
X018103Y016991D01*
X018103Y016893D02*
X018348Y016893D01*
X018348Y016794D02*
X018103Y016794D01*
X018103Y016696D02*
X018348Y016696D01*
X018348Y016597D02*
X018103Y016597D01*
X018103Y016499D02*
X018348Y016499D01*
X018348Y016400D02*
X018103Y016400D01*
X018103Y016302D02*
X019498Y016302D01*
X019498Y016342D02*
X019498Y016242D01*
X018348Y016242D01*
X018348Y015132D01*
X018356Y015113D01*
X018370Y015099D01*
X018388Y015092D01*
X019498Y015092D01*
X019498Y016242D01*
X019598Y016242D01*
X019598Y016342D01*
X019498Y016342D01*
X019498Y016400D02*
X019598Y016400D01*
X019598Y016342D02*
X019598Y017492D01*
X020708Y017492D01*
X020727Y017484D01*
X020748Y017385D02*
X020993Y017385D01*
X020993Y017287D02*
X020748Y017287D01*
X020748Y017188D02*
X020993Y017188D01*
X020993Y017090D02*
X020748Y017090D01*
X020748Y016991D02*
X020993Y016991D01*
X020993Y016893D02*
X020748Y016893D01*
X020748Y016794D02*
X020993Y016794D01*
X020993Y016696D02*
X020748Y016696D01*
X020748Y016597D02*
X020993Y016597D01*
X020993Y016499D02*
X020748Y016499D01*
X020748Y016400D02*
X020993Y016400D01*
X019598Y016499D02*
X019498Y016499D01*
X019498Y016597D02*
X019598Y016597D01*
X019598Y016696D02*
X019498Y016696D01*
X019498Y016794D02*
X019598Y016794D01*
X019598Y016893D02*
X019498Y016893D01*
X019498Y016991D02*
X019598Y016991D01*
X019598Y017090D02*
X019498Y017090D01*
X019498Y017188D02*
X019598Y017188D01*
X019598Y017287D02*
X019498Y017287D01*
X019498Y017385D02*
X019598Y017385D01*
X019598Y017484D02*
X019498Y017484D01*
X018127Y017681D02*
X020970Y017681D01*
X019598Y016203D02*
X019498Y016203D01*
X019498Y016105D02*
X019598Y016105D01*
X019598Y016006D02*
X019498Y016006D01*
X019498Y015908D02*
X019598Y015908D01*
X019598Y015809D02*
X019498Y015809D01*
X019498Y015711D02*
X019598Y015711D01*
X019598Y015612D02*
X019498Y015612D01*
X019498Y015514D02*
X019598Y015514D01*
X019598Y015415D02*
X019498Y015415D01*
X019498Y015317D02*
X019598Y015317D01*
X019598Y015218D02*
X019498Y015218D01*
X019498Y015120D02*
X019598Y015120D01*
X018353Y015120D02*
X018103Y015120D01*
X018103Y015218D02*
X018348Y015218D01*
X018348Y015317D02*
X018103Y015317D01*
X018103Y015415D02*
X018348Y015415D01*
X018348Y015514D02*
X018103Y015514D01*
X018103Y015612D02*
X018348Y015612D01*
X018348Y015711D02*
X018103Y015711D01*
X018103Y015809D02*
X018348Y015809D01*
X018348Y015908D02*
X018103Y015908D01*
X018103Y016006D02*
X018348Y016006D01*
X018348Y016105D02*
X018103Y016105D01*
X018103Y016203D02*
X018348Y016203D01*
X017227Y014587D02*
X016857Y014587D01*
X016877Y014579D01*
X016997Y014459D01*
X017062Y014302D01*
X017062Y014132D01*
X016997Y013975D01*
X016877Y013855D01*
X016720Y013790D01*
X016550Y013790D01*
X016393Y013855D01*
X016273Y013975D01*
X016208Y014132D01*
X016208Y014302D01*
X016273Y014459D01*
X016393Y014579D01*
X016413Y014587D01*
X015857Y014587D01*
X015877Y014579D01*
X015997Y014459D01*
X016062Y014302D01*
X016062Y014132D01*
X015997Y013975D01*
X015877Y013855D01*
X015720Y013790D01*
X015550Y013790D01*
X015393Y013855D01*
X015273Y013975D01*
X015208Y014132D01*
X015208Y014302D01*
X015273Y014459D01*
X015393Y014579D01*
X015413Y014587D01*
X014857Y014587D01*
X014877Y014579D01*
X014997Y014459D01*
X015062Y014302D01*
X015062Y014132D01*
X014997Y013975D01*
X014877Y013855D01*
X014720Y013790D01*
X014550Y013790D01*
X014393Y013855D01*
X014273Y013975D01*
X014208Y014132D01*
X014208Y014302D01*
X014273Y014459D01*
X014393Y014579D01*
X014413Y014587D01*
X013857Y014587D01*
X013877Y014579D01*
X013997Y014459D01*
X014062Y014302D01*
X014062Y014132D01*
X013997Y013975D01*
X013877Y013855D01*
X013720Y013790D01*
X013550Y013790D01*
X013501Y013810D01*
X013311Y013621D01*
X013311Y013497D01*
X013393Y013579D01*
X013550Y013644D01*
X013720Y013644D01*
X013877Y013579D01*
X013997Y013459D01*
X014062Y013302D01*
X014062Y013132D01*
X013997Y012975D01*
X013936Y012914D01*
X014160Y012690D01*
X024272Y012690D01*
X024272Y012834D01*
X024220Y012855D01*
X024100Y012975D01*
X024035Y013132D01*
X024035Y013302D01*
X024100Y013459D01*
X024111Y013470D01*
X023813Y013470D01*
X023824Y013459D01*
X023888Y013302D01*
X023888Y013132D01*
X023824Y012975D01*
X023703Y012855D01*
X023547Y012790D01*
X023377Y012790D01*
X023220Y012855D01*
X023100Y012975D01*
X023035Y013132D01*
X023035Y013302D01*
X023100Y013459D01*
X023111Y013470D01*
X022813Y013470D01*
X022824Y013459D01*
X022888Y013302D01*
X022888Y013132D01*
X022824Y012975D01*
X022703Y012855D01*
X022547Y012790D01*
X022377Y012790D01*
X022220Y012855D01*
X022100Y012975D01*
X022035Y013132D01*
X022035Y013302D01*
X022100Y013459D01*
X022111Y013470D01*
X021813Y013470D01*
X021824Y013459D01*
X021888Y013302D01*
X021888Y013132D01*
X021824Y012975D01*
X021703Y012855D01*
X021547Y012790D01*
X021377Y012790D01*
X021220Y012855D01*
X021100Y012975D01*
X021035Y013132D01*
X021035Y013302D01*
X021100Y013459D01*
X021111Y013470D01*
X018918Y013470D01*
X018888Y013440D01*
X018767Y013390D01*
X018067Y013390D01*
X017945Y013440D01*
X017595Y013790D01*
X017284Y013790D01*
X017208Y013866D01*
X017208Y014568D01*
X017227Y014587D01*
X017208Y014529D02*
X016927Y014529D01*
X017009Y014430D02*
X017208Y014430D01*
X017208Y014332D02*
X017049Y014332D01*
X017062Y014233D02*
X017208Y014233D01*
X017208Y014135D02*
X017062Y014135D01*
X017022Y014036D02*
X017208Y014036D01*
X017208Y013938D02*
X016959Y013938D01*
X016838Y013839D02*
X017235Y013839D01*
X017471Y013524D02*
X017534Y013550D01*
X017586Y013561D01*
X017586Y013265D01*
X017586Y013169D01*
X017291Y013169D01*
X017301Y013116D01*
X017327Y013053D01*
X017365Y012996D01*
X017414Y012948D01*
X017471Y012910D01*
X017534Y012883D01*
X017586Y012873D01*
X017586Y013168D01*
X017683Y013168D01*
X017683Y012873D01*
X017736Y012883D01*
X017799Y012910D01*
X017856Y012948D01*
X017904Y012996D01*
X017942Y013053D01*
X017968Y013116D01*
X017979Y013169D01*
X017683Y013169D01*
X017683Y013265D01*
X017979Y013265D01*
X017968Y013318D01*
X017942Y013381D01*
X017904Y013438D01*
X017856Y013486D01*
X017799Y013524D01*
X017736Y013550D01*
X017683Y013561D01*
X017683Y013265D01*
X017586Y013265D01*
X017291Y013265D01*
X017301Y013318D01*
X017327Y013381D01*
X017365Y013438D01*
X017414Y013486D01*
X017471Y013524D01*
X017517Y013544D02*
X016912Y013544D01*
X016877Y013579D02*
X016720Y013644D01*
X016550Y013644D01*
X016393Y013579D01*
X016273Y013459D01*
X016208Y013302D01*
X016208Y013132D01*
X016273Y012975D01*
X016393Y012855D01*
X016550Y012790D01*
X016720Y012790D01*
X016877Y012855D01*
X016997Y012975D01*
X017062Y013132D01*
X017062Y013302D01*
X016997Y013459D01*
X016877Y013579D01*
X016724Y013642D02*
X017743Y013642D01*
X017753Y013544D02*
X017841Y013544D01*
X017897Y013445D02*
X017940Y013445D01*
X017957Y013347D02*
X021053Y013347D01*
X021035Y013248D02*
X017683Y013248D01*
X017586Y013248D02*
X017062Y013248D01*
X017062Y013150D02*
X017295Y013150D01*
X017329Y013051D02*
X017028Y013051D01*
X016974Y012953D02*
X017409Y012953D01*
X017586Y012953D02*
X017683Y012953D01*
X017683Y013051D02*
X017586Y013051D01*
X017586Y013150D02*
X017683Y013150D01*
X017683Y013347D02*
X017586Y013347D01*
X017586Y013445D02*
X017683Y013445D01*
X017683Y013544D02*
X017586Y013544D01*
X017644Y013741D02*
X013431Y013741D01*
X013333Y013642D02*
X013546Y013642D01*
X013724Y013642D02*
X014546Y013642D01*
X014550Y013644D02*
X014393Y013579D01*
X014273Y013459D01*
X014208Y013302D01*
X014208Y013132D01*
X014273Y012975D01*
X014393Y012855D01*
X014550Y012790D01*
X014720Y012790D01*
X014877Y012855D01*
X014997Y012975D01*
X015062Y013132D01*
X015062Y013302D01*
X014997Y013459D01*
X014877Y013579D01*
X014720Y013644D01*
X014550Y013644D01*
X014724Y013642D02*
X015546Y013642D01*
X015550Y013644D02*
X015393Y013579D01*
X015273Y013459D01*
X015208Y013302D01*
X015208Y013132D01*
X015273Y012975D01*
X015393Y012855D01*
X015550Y012790D01*
X015720Y012790D01*
X015877Y012855D01*
X015997Y012975D01*
X016062Y013132D01*
X016062Y013302D01*
X015997Y013459D01*
X015877Y013579D01*
X015720Y013644D01*
X015550Y013644D01*
X015724Y013642D02*
X016546Y013642D01*
X016358Y013544D02*
X015912Y013544D01*
X016002Y013445D02*
X016267Y013445D01*
X016227Y013347D02*
X016043Y013347D01*
X016062Y013248D02*
X016208Y013248D01*
X016208Y013150D02*
X016062Y013150D01*
X016028Y013051D02*
X016242Y013051D01*
X016296Y012953D02*
X015974Y012953D01*
X015874Y012854D02*
X016395Y012854D01*
X016874Y012854D02*
X021222Y012854D01*
X021122Y012953D02*
X017861Y012953D01*
X017941Y013051D02*
X021068Y013051D01*
X021035Y013150D02*
X017975Y013150D01*
X017313Y013347D02*
X017043Y013347D01*
X017002Y013445D02*
X017373Y013445D01*
X018894Y013445D02*
X021094Y013445D01*
X021829Y013445D02*
X022094Y013445D01*
X022053Y013347D02*
X021870Y013347D01*
X021888Y013248D02*
X022035Y013248D01*
X022035Y013150D02*
X021888Y013150D01*
X021855Y013051D02*
X022068Y013051D01*
X022122Y012953D02*
X021801Y012953D01*
X021701Y012854D02*
X022222Y012854D01*
X022701Y012854D02*
X023222Y012854D01*
X023122Y012953D02*
X022801Y012953D01*
X022855Y013051D02*
X023068Y013051D01*
X023035Y013150D02*
X022888Y013150D01*
X022888Y013248D02*
X023035Y013248D01*
X023053Y013347D02*
X022870Y013347D01*
X022829Y013445D02*
X023094Y013445D01*
X023829Y013445D02*
X024094Y013445D01*
X024053Y013347D02*
X023870Y013347D01*
X023888Y013248D02*
X024035Y013248D01*
X024035Y013150D02*
X023888Y013150D01*
X023855Y013051D02*
X024068Y013051D01*
X024122Y012953D02*
X023801Y012953D01*
X023701Y012854D02*
X024222Y012854D01*
X024272Y012756D02*
X014094Y012756D01*
X013996Y012854D02*
X014395Y012854D01*
X014296Y012953D02*
X013974Y012953D01*
X014028Y013051D02*
X014242Y013051D01*
X014208Y013150D02*
X014062Y013150D01*
X014062Y013248D02*
X014208Y013248D01*
X014227Y013347D02*
X014043Y013347D01*
X014002Y013445D02*
X014267Y013445D01*
X014358Y013544D02*
X013912Y013544D01*
X013838Y013839D02*
X014432Y013839D01*
X014311Y013938D02*
X013959Y013938D01*
X014022Y014036D02*
X014248Y014036D01*
X014208Y014135D02*
X014062Y014135D01*
X014062Y014233D02*
X014208Y014233D01*
X014220Y014332D02*
X014049Y014332D01*
X014009Y014430D02*
X014261Y014430D01*
X014343Y014529D02*
X013927Y014529D01*
X013343Y014529D02*
X012927Y014529D01*
X013009Y014430D02*
X013261Y014430D01*
X013220Y014332D02*
X013049Y014332D01*
X013062Y014233D02*
X013208Y014233D01*
X013208Y014135D02*
X013062Y014135D01*
X013022Y014036D02*
X013189Y014036D01*
X013091Y013938D02*
X012959Y013938D01*
X012992Y013839D02*
X012838Y013839D01*
X012912Y013544D02*
X012931Y013544D01*
X013311Y013544D02*
X013358Y013544D01*
X012432Y013839D02*
X011838Y013839D01*
X011959Y013938D02*
X012311Y013938D01*
X012248Y014036D02*
X012022Y014036D01*
X012062Y014135D02*
X012208Y014135D01*
X012208Y014233D02*
X012062Y014233D01*
X012049Y014332D02*
X012220Y014332D01*
X012261Y014430D02*
X012009Y014430D01*
X011927Y014529D02*
X012343Y014529D01*
X014927Y014529D02*
X015343Y014529D01*
X015261Y014430D02*
X015009Y014430D01*
X015049Y014332D02*
X015220Y014332D01*
X015208Y014233D02*
X015062Y014233D01*
X015062Y014135D02*
X015208Y014135D01*
X015248Y014036D02*
X015022Y014036D01*
X014959Y013938D02*
X015311Y013938D01*
X015432Y013839D02*
X014838Y013839D01*
X014912Y013544D02*
X015358Y013544D01*
X015267Y013445D02*
X015002Y013445D01*
X015043Y013347D02*
X015227Y013347D01*
X015208Y013248D02*
X015062Y013248D01*
X015062Y013150D02*
X015208Y013150D01*
X015242Y013051D02*
X015028Y013051D01*
X014974Y012953D02*
X015296Y012953D01*
X015395Y012854D02*
X014874Y012854D01*
X012191Y012362D02*
X011848Y012362D01*
X011750Y012460D02*
X012092Y012460D01*
X011994Y012559D02*
X011651Y012559D01*
X011553Y012657D02*
X011895Y012657D01*
X011797Y012756D02*
X011454Y012756D01*
X011395Y012854D02*
X011356Y012854D01*
X011015Y012657D02*
X010433Y012657D01*
X010531Y012559D02*
X011114Y012559D01*
X011212Y012460D02*
X010630Y012460D01*
X010728Y012362D02*
X011311Y012362D01*
X011409Y012263D02*
X010827Y012263D01*
X010925Y012165D02*
X011508Y012165D01*
X011606Y012066D02*
X011024Y012066D01*
X011122Y011968D02*
X011705Y011968D01*
X011803Y011869D02*
X011221Y011869D01*
X011319Y011771D02*
X011902Y011771D01*
X012000Y011672D02*
X011418Y011672D01*
X011516Y011574D02*
X012099Y011574D01*
X012197Y011475D02*
X011615Y011475D01*
X011713Y011377D02*
X012296Y011377D01*
X012394Y011278D02*
X011812Y011278D01*
X011910Y011180D02*
X012493Y011180D01*
X012591Y011081D02*
X012009Y011081D01*
X012107Y010983D02*
X012690Y010983D01*
X012788Y010884D02*
X012206Y010884D01*
X012304Y010786D02*
X012887Y010786D01*
X012985Y010687D02*
X012403Y010687D01*
X012501Y010589D02*
X013084Y010589D01*
X013182Y010490D02*
X012600Y010490D01*
X012698Y010392D02*
X013281Y010392D01*
X012895Y010195D02*
X052548Y010195D01*
X052531Y010178D02*
X050323Y007970D01*
X046123Y007970D01*
X046011Y007858D01*
X044210Y006057D01*
X044179Y006070D01*
X044024Y006070D01*
X043881Y006010D01*
X043771Y005901D01*
X043711Y005757D01*
X043711Y005602D01*
X043771Y005459D01*
X043881Y005349D01*
X044024Y005290D01*
X044179Y005290D01*
X044322Y005349D01*
X044432Y005459D01*
X044491Y005602D01*
X044491Y005757D01*
X044479Y005788D01*
X046280Y007590D01*
X046743Y007590D01*
X045210Y006057D01*
X045179Y006070D01*
X045024Y006070D01*
X044881Y006010D01*
X044771Y005901D01*
X044711Y005757D01*
X044711Y005602D01*
X044771Y005459D01*
X044881Y005349D01*
X045024Y005290D01*
X045179Y005290D01*
X045322Y005349D01*
X045432Y005459D01*
X045491Y005602D01*
X045491Y005757D01*
X045479Y005788D01*
X047040Y007350D01*
X047503Y007350D01*
X046210Y006057D01*
X046179Y006070D01*
X046024Y006070D01*
X045881Y006010D01*
X045771Y005901D01*
X045711Y005757D01*
X045711Y005602D01*
X045771Y005459D01*
X045881Y005349D01*
X046024Y005290D01*
X046179Y005290D01*
X046322Y005349D01*
X046432Y005459D01*
X046491Y005602D01*
X046491Y005757D01*
X046479Y005788D01*
X047800Y007110D01*
X048263Y007110D01*
X047210Y006057D01*
X047179Y006070D01*
X047024Y006070D01*
X046881Y006010D01*
X046771Y005901D01*
X046711Y005757D01*
X046711Y005602D01*
X046771Y005459D01*
X046881Y005349D01*
X047024Y005290D01*
X047179Y005290D01*
X047322Y005349D01*
X047432Y005459D01*
X047491Y005602D01*
X047491Y005757D01*
X047479Y005788D01*
X048560Y006870D01*
X049023Y006870D01*
X048210Y006057D01*
X048179Y006070D01*
X048024Y006070D01*
X047881Y006010D01*
X047771Y005901D01*
X047711Y005757D01*
X047711Y005602D01*
X047771Y005459D01*
X047881Y005349D01*
X048024Y005290D01*
X048179Y005290D01*
X048322Y005349D01*
X048432Y005459D01*
X048491Y005602D01*
X048491Y005757D01*
X048479Y005788D01*
X049320Y006630D01*
X049783Y006630D01*
X049210Y006057D01*
X049179Y006070D01*
X049024Y006070D01*
X048881Y006010D01*
X048771Y005901D01*
X048711Y005757D01*
X048711Y005602D01*
X048771Y005459D01*
X048881Y005349D01*
X049024Y005290D01*
X049179Y005290D01*
X049322Y005349D01*
X049432Y005459D01*
X049491Y005602D01*
X049491Y005757D01*
X049479Y005788D01*
X050080Y006390D01*
X051840Y006390D01*
X053760Y008309D01*
X053807Y008290D01*
X053962Y008290D01*
X054106Y008349D01*
X054215Y008459D01*
X054275Y008602D01*
X054275Y008757D01*
X054215Y008901D01*
X054166Y008950D01*
X054403Y008950D01*
X054524Y008828D01*
X054495Y008757D01*
X054495Y008602D01*
X054554Y008459D01*
X054664Y008349D01*
X054807Y008290D01*
X054962Y008290D01*
X055106Y008349D01*
X055215Y008459D01*
X055275Y008602D01*
X055275Y008757D01*
X055215Y008901D01*
X055106Y009010D01*
X054962Y009070D01*
X054820Y009070D01*
X054700Y009190D01*
X055123Y009190D01*
X055512Y008800D01*
X055495Y008757D01*
X055495Y008602D01*
X055554Y008459D01*
X055664Y008349D01*
X055807Y008290D01*
X055962Y008290D01*
X056106Y008349D01*
X056215Y008459D01*
X056275Y008602D01*
X056275Y008757D01*
X056215Y008901D01*
X056106Y009010D01*
X055962Y009070D01*
X055807Y009070D01*
X055788Y009062D01*
X055420Y009430D01*
X055843Y009430D01*
X056501Y008772D01*
X056495Y008757D01*
X056495Y008602D01*
X056554Y008459D01*
X056664Y008349D01*
X056807Y008290D01*
X056962Y008290D01*
X057106Y008349D01*
X057215Y008459D01*
X057275Y008602D01*
X057275Y008757D01*
X057215Y008901D01*
X057106Y009010D01*
X056962Y009070D01*
X056807Y009070D01*
X056760Y009050D01*
X056140Y009670D01*
X056723Y009670D01*
X057536Y008856D01*
X057495Y008757D01*
X057495Y008602D01*
X057554Y008459D01*
X057664Y008349D01*
X057807Y008290D01*
X057962Y008290D01*
X058106Y008349D01*
X058215Y008459D01*
X058275Y008602D01*
X058275Y008757D01*
X058215Y008901D01*
X058106Y009010D01*
X057962Y009070D01*
X057860Y009070D01*
X057020Y009910D01*
X057443Y009910D01*
X058524Y008828D01*
X058495Y008757D01*
X058495Y008602D01*
X058554Y008459D01*
X058664Y008349D01*
X058807Y008290D01*
X058962Y008290D01*
X059106Y008349D01*
X059215Y008459D01*
X059275Y008602D01*
X059275Y008757D01*
X059215Y008901D01*
X059106Y009010D01*
X058962Y009070D01*
X058820Y009070D01*
X057600Y010290D01*
X052643Y010290D01*
X052531Y010178D01*
X052449Y010096D02*
X042274Y010096D01*
X042372Y009998D02*
X052351Y009998D01*
X052252Y009899D02*
X042471Y009899D01*
X042569Y009801D02*
X052154Y009801D01*
X052055Y009702D02*
X042668Y009702D01*
X042766Y009604D02*
X051957Y009604D01*
X051858Y009505D02*
X042865Y009505D01*
X042963Y009407D02*
X051760Y009407D01*
X051661Y009308D02*
X043062Y009308D01*
X043160Y009210D02*
X051563Y009210D01*
X051464Y009111D02*
X043259Y009111D01*
X043317Y009013D02*
X043886Y009013D01*
X043881Y009010D02*
X043771Y008901D01*
X043711Y008757D01*
X043711Y008602D01*
X043771Y008459D01*
X043881Y008349D01*
X044024Y008290D01*
X044179Y008290D01*
X044322Y008349D01*
X044432Y008459D01*
X044491Y008602D01*
X044491Y008757D01*
X044432Y008901D01*
X044322Y009010D01*
X044179Y009070D01*
X044024Y009070D01*
X043881Y009010D01*
X043784Y008914D02*
X043419Y008914D01*
X043467Y008816D02*
X043736Y008816D01*
X043711Y008717D02*
X043491Y008717D01*
X043491Y008619D02*
X043711Y008619D01*
X043745Y008520D02*
X043458Y008520D01*
X043395Y008422D02*
X043808Y008422D01*
X043943Y008323D02*
X043260Y008323D01*
X042943Y008323D02*
X039760Y008323D01*
X039796Y008225D02*
X050578Y008225D01*
X050676Y008323D02*
X050260Y008323D01*
X050322Y008349D02*
X050432Y008459D01*
X050491Y008602D01*
X050491Y008757D01*
X050432Y008901D01*
X050322Y009010D01*
X050179Y009070D01*
X050024Y009070D01*
X049881Y009010D01*
X049771Y008901D01*
X049711Y008757D01*
X049711Y008602D01*
X049771Y008459D01*
X049881Y008349D01*
X050024Y008290D01*
X050179Y008290D01*
X050322Y008349D01*
X050395Y008422D02*
X050775Y008422D01*
X050873Y008520D02*
X050458Y008520D01*
X050491Y008619D02*
X050972Y008619D01*
X051070Y008717D02*
X050491Y008717D01*
X050467Y008816D02*
X051169Y008816D01*
X051267Y008914D02*
X050419Y008914D01*
X050317Y009013D02*
X051366Y009013D01*
X049886Y009013D02*
X049317Y009013D01*
X049322Y009010D02*
X049179Y009070D01*
X049024Y009070D01*
X048881Y009010D01*
X048771Y008901D01*
X048711Y008757D01*
X048711Y008602D01*
X048771Y008459D01*
X048881Y008349D01*
X049024Y008290D01*
X049179Y008290D01*
X049322Y008349D01*
X049432Y008459D01*
X049491Y008602D01*
X049491Y008757D01*
X049432Y008901D01*
X049322Y009010D01*
X049419Y008914D02*
X049784Y008914D01*
X049736Y008816D02*
X049467Y008816D01*
X049491Y008717D02*
X049711Y008717D01*
X049711Y008619D02*
X049491Y008619D01*
X049458Y008520D02*
X049745Y008520D01*
X049808Y008422D02*
X049395Y008422D01*
X049260Y008323D02*
X049943Y008323D01*
X050479Y008126D02*
X039844Y008126D01*
X039942Y008028D02*
X050381Y008028D01*
X048943Y008323D02*
X048260Y008323D01*
X048322Y008349D02*
X048432Y008459D01*
X048491Y008602D01*
X048491Y008757D01*
X048432Y008901D01*
X048322Y009010D01*
X048179Y009070D01*
X048024Y009070D01*
X047881Y009010D01*
X047771Y008901D01*
X047711Y008757D01*
X047711Y008602D01*
X047771Y008459D01*
X047881Y008349D01*
X048024Y008290D01*
X048179Y008290D01*
X048322Y008349D01*
X048395Y008422D02*
X048808Y008422D01*
X048745Y008520D02*
X048458Y008520D01*
X048491Y008619D02*
X048711Y008619D01*
X048711Y008717D02*
X048491Y008717D01*
X048467Y008816D02*
X048736Y008816D01*
X048784Y008914D02*
X048419Y008914D01*
X048317Y009013D02*
X048886Y009013D01*
X047886Y009013D02*
X047317Y009013D01*
X047322Y009010D02*
X047179Y009070D01*
X047024Y009070D01*
X046881Y009010D01*
X046771Y008901D01*
X046711Y008757D01*
X046711Y008602D01*
X046771Y008459D01*
X046881Y008349D01*
X047024Y008290D01*
X047179Y008290D01*
X047322Y008349D01*
X047432Y008459D01*
X047491Y008602D01*
X047491Y008757D01*
X047432Y008901D01*
X047322Y009010D01*
X047419Y008914D02*
X047784Y008914D01*
X047736Y008816D02*
X047467Y008816D01*
X047491Y008717D02*
X047711Y008717D01*
X047711Y008619D02*
X047491Y008619D01*
X047458Y008520D02*
X047745Y008520D01*
X047808Y008422D02*
X047395Y008422D01*
X047260Y008323D02*
X047943Y008323D01*
X046943Y008323D02*
X046260Y008323D01*
X046322Y008349D02*
X046432Y008459D01*
X046491Y008602D01*
X046491Y008757D01*
X046432Y008901D01*
X046322Y009010D01*
X046179Y009070D01*
X046024Y009070D01*
X045881Y009010D01*
X045771Y008901D01*
X045711Y008757D01*
X045711Y008602D01*
X045771Y008459D01*
X045881Y008349D01*
X046024Y008290D01*
X046179Y008290D01*
X046322Y008349D01*
X046395Y008422D02*
X046808Y008422D01*
X046745Y008520D02*
X046458Y008520D01*
X046491Y008619D02*
X046711Y008619D01*
X046711Y008717D02*
X046491Y008717D01*
X046467Y008816D02*
X046736Y008816D01*
X046784Y008914D02*
X046419Y008914D01*
X046317Y009013D02*
X046886Y009013D01*
X045886Y009013D02*
X045317Y009013D01*
X045322Y009010D02*
X045179Y009070D01*
X045024Y009070D01*
X044881Y009010D01*
X044771Y008901D01*
X044711Y008757D01*
X044711Y008602D01*
X044771Y008459D01*
X044881Y008349D01*
X045024Y008290D01*
X045179Y008290D01*
X045322Y008349D01*
X045432Y008459D01*
X045491Y008602D01*
X045491Y008757D01*
X045432Y008901D01*
X045322Y009010D01*
X045419Y008914D02*
X045784Y008914D01*
X045736Y008816D02*
X045467Y008816D01*
X045491Y008717D02*
X045711Y008717D01*
X045711Y008619D02*
X045491Y008619D01*
X045458Y008520D02*
X045745Y008520D01*
X045808Y008422D02*
X045395Y008422D01*
X045260Y008323D02*
X045943Y008323D01*
X044943Y008323D02*
X044260Y008323D01*
X044395Y008422D02*
X044808Y008422D01*
X044745Y008520D02*
X044458Y008520D01*
X044491Y008619D02*
X044711Y008619D01*
X044711Y008717D02*
X044491Y008717D01*
X044467Y008816D02*
X044736Y008816D01*
X044784Y008914D02*
X044419Y008914D01*
X044317Y009013D02*
X044886Y009013D01*
X045984Y007831D02*
X040139Y007831D01*
X040041Y007929D02*
X046082Y007929D01*
X045885Y007732D02*
X040238Y007732D01*
X040336Y007634D02*
X045787Y007634D01*
X045688Y007535D02*
X040435Y007535D01*
X040533Y007437D02*
X045590Y007437D01*
X045491Y007338D02*
X040632Y007338D01*
X040730Y007240D02*
X045393Y007240D01*
X045294Y007141D02*
X040829Y007141D01*
X040927Y007043D02*
X045196Y007043D01*
X045097Y006944D02*
X041026Y006944D01*
X041124Y006846D02*
X044999Y006846D01*
X044900Y006747D02*
X041223Y006747D01*
X041321Y006649D02*
X044802Y006649D01*
X044703Y006550D02*
X041420Y006550D01*
X041518Y006452D02*
X044605Y006452D01*
X044506Y006353D02*
X041617Y006353D01*
X041715Y006255D02*
X044408Y006255D01*
X044309Y006156D02*
X041814Y006156D01*
X041912Y006058D02*
X042995Y006058D01*
X043024Y006070D02*
X042881Y006010D01*
X042771Y005901D01*
X042711Y005757D01*
X042711Y005602D01*
X042771Y005459D01*
X042881Y005349D01*
X043024Y005290D01*
X043179Y005290D01*
X043182Y005291D01*
X043491Y004981D01*
X043603Y004870D01*
X051760Y004870D01*
X054640Y007750D01*
X059280Y007750D01*
X059820Y008290D01*
X059962Y008290D01*
X060106Y008349D01*
X060215Y008459D01*
X060275Y008602D01*
X060275Y008757D01*
X060215Y008901D01*
X060106Y009010D01*
X059962Y009070D01*
X059807Y009070D01*
X059664Y009010D01*
X059554Y008901D01*
X059495Y008757D01*
X059495Y008602D01*
X059524Y008531D01*
X059123Y008130D01*
X054483Y008130D01*
X054371Y008018D01*
X051603Y005250D01*
X043760Y005250D01*
X043467Y005543D01*
X043491Y005602D01*
X043491Y005757D01*
X043432Y005901D01*
X043322Y006010D01*
X043179Y006070D01*
X043024Y006070D01*
X043208Y006058D02*
X043995Y006058D01*
X043829Y005959D02*
X043374Y005959D01*
X043449Y005861D02*
X043754Y005861D01*
X043714Y005762D02*
X043489Y005762D01*
X043491Y005664D02*
X043711Y005664D01*
X043727Y005565D02*
X043476Y005565D01*
X043543Y005467D02*
X043768Y005467D01*
X043861Y005368D02*
X043642Y005368D01*
X043740Y005270D02*
X051623Y005270D01*
X051721Y005368D02*
X050342Y005368D01*
X050322Y005349D02*
X050432Y005459D01*
X050491Y005602D01*
X050491Y005757D01*
X050432Y005901D01*
X050322Y006010D01*
X050179Y006070D01*
X050024Y006070D01*
X049881Y006010D01*
X049771Y005901D01*
X049711Y005757D01*
X049711Y005602D01*
X049771Y005459D01*
X049881Y005349D01*
X050024Y005290D01*
X050179Y005290D01*
X050322Y005349D01*
X050435Y005467D02*
X051820Y005467D01*
X051918Y005565D02*
X050476Y005565D01*
X050491Y005664D02*
X052017Y005664D01*
X052115Y005762D02*
X050489Y005762D01*
X050449Y005861D02*
X052214Y005861D01*
X052312Y005959D02*
X050374Y005959D01*
X050208Y006058D02*
X052411Y006058D01*
X052509Y006156D02*
X049847Y006156D01*
X049945Y006255D02*
X052608Y006255D01*
X052706Y006353D02*
X050044Y006353D01*
X049703Y006550D02*
X049241Y006550D01*
X049142Y006452D02*
X049605Y006452D01*
X049506Y006353D02*
X049044Y006353D01*
X048945Y006255D02*
X049408Y006255D01*
X049309Y006156D02*
X048847Y006156D01*
X048748Y006058D02*
X048995Y006058D01*
X048829Y005959D02*
X048650Y005959D01*
X048551Y005861D02*
X048754Y005861D01*
X048714Y005762D02*
X048489Y005762D01*
X048491Y005664D02*
X048711Y005664D01*
X048727Y005565D02*
X048476Y005565D01*
X048435Y005467D02*
X048768Y005467D01*
X048861Y005368D02*
X048342Y005368D01*
X047861Y005368D02*
X047342Y005368D01*
X047435Y005467D02*
X047768Y005467D01*
X047727Y005565D02*
X047476Y005565D01*
X047491Y005664D02*
X047711Y005664D01*
X047714Y005762D02*
X047489Y005762D01*
X047551Y005861D02*
X047754Y005861D01*
X047829Y005959D02*
X047650Y005959D01*
X047748Y006058D02*
X047995Y006058D01*
X047847Y006156D02*
X048309Y006156D01*
X048211Y006058D02*
X048208Y006058D01*
X048408Y006255D02*
X047945Y006255D01*
X048044Y006353D02*
X048506Y006353D01*
X048605Y006452D02*
X048142Y006452D01*
X048241Y006550D02*
X048703Y006550D01*
X048802Y006649D02*
X048339Y006649D01*
X048438Y006747D02*
X048900Y006747D01*
X048999Y006846D02*
X048536Y006846D01*
X048097Y006944D02*
X047635Y006944D01*
X047733Y007043D02*
X048196Y007043D01*
X047491Y007338D02*
X047029Y007338D01*
X046930Y007240D02*
X047393Y007240D01*
X047294Y007141D02*
X046832Y007141D01*
X046733Y007043D02*
X047196Y007043D01*
X047097Y006944D02*
X046635Y006944D01*
X046536Y006846D02*
X046999Y006846D01*
X046900Y006747D02*
X046438Y006747D01*
X046339Y006649D02*
X046802Y006649D01*
X046703Y006550D02*
X046241Y006550D01*
X046142Y006452D02*
X046605Y006452D01*
X046506Y006353D02*
X046044Y006353D01*
X045945Y006255D02*
X046408Y006255D01*
X046309Y006156D02*
X045847Y006156D01*
X045748Y006058D02*
X045995Y006058D01*
X045829Y005959D02*
X045650Y005959D01*
X045551Y005861D02*
X045754Y005861D01*
X045714Y005762D02*
X045489Y005762D01*
X045491Y005664D02*
X045711Y005664D01*
X045727Y005565D02*
X045476Y005565D01*
X045435Y005467D02*
X045768Y005467D01*
X045861Y005368D02*
X045342Y005368D01*
X044861Y005368D02*
X044342Y005368D01*
X044435Y005467D02*
X044768Y005467D01*
X044727Y005565D02*
X044476Y005565D01*
X044491Y005664D02*
X044711Y005664D01*
X044714Y005762D02*
X044489Y005762D01*
X044551Y005861D02*
X044754Y005861D01*
X044829Y005959D02*
X044650Y005959D01*
X044748Y006058D02*
X044995Y006058D01*
X044847Y006156D02*
X045309Y006156D01*
X045211Y006058D02*
X045208Y006058D01*
X045408Y006255D02*
X044945Y006255D01*
X045044Y006353D02*
X045506Y006353D01*
X045605Y006452D02*
X045142Y006452D01*
X045241Y006550D02*
X045703Y006550D01*
X045802Y006649D02*
X045339Y006649D01*
X045438Y006747D02*
X045900Y006747D01*
X045999Y006846D02*
X045536Y006846D01*
X045635Y006944D02*
X046097Y006944D01*
X046196Y007043D02*
X045733Y007043D01*
X045832Y007141D02*
X046294Y007141D01*
X046393Y007240D02*
X045930Y007240D01*
X046029Y007338D02*
X046491Y007338D01*
X046590Y007437D02*
X046127Y007437D01*
X046226Y007535D02*
X046688Y007535D01*
X047438Y006747D02*
X047900Y006747D01*
X047802Y006649D02*
X047339Y006649D01*
X047241Y006550D02*
X047703Y006550D01*
X047605Y006452D02*
X047142Y006452D01*
X047044Y006353D02*
X047506Y006353D01*
X047408Y006255D02*
X046945Y006255D01*
X046847Y006156D02*
X047309Y006156D01*
X047211Y006058D02*
X047208Y006058D01*
X046995Y006058D02*
X046748Y006058D01*
X046829Y005959D02*
X046650Y005959D01*
X046551Y005861D02*
X046754Y005861D01*
X046714Y005762D02*
X046489Y005762D01*
X046491Y005664D02*
X046711Y005664D01*
X046727Y005565D02*
X046476Y005565D01*
X046435Y005467D02*
X046768Y005467D01*
X046861Y005368D02*
X046342Y005368D01*
X043597Y004876D02*
X043094Y004876D01*
X042996Y004974D02*
X043498Y004974D01*
X043400Y005073D02*
X042897Y005073D01*
X042799Y005171D02*
X043301Y005171D01*
X043203Y005270D02*
X042700Y005270D01*
X042602Y005368D02*
X042861Y005368D01*
X042768Y005467D02*
X042503Y005467D01*
X042405Y005565D02*
X042727Y005565D01*
X042711Y005664D02*
X042306Y005664D01*
X042208Y005762D02*
X042714Y005762D01*
X042754Y005861D02*
X042109Y005861D01*
X042011Y005959D02*
X042829Y005959D01*
X041572Y005861D02*
X041127Y005861D01*
X041024Y005959D02*
X041473Y005959D01*
X041375Y006058D02*
X040920Y006058D01*
X040816Y006156D02*
X041276Y006156D01*
X041178Y006255D02*
X040713Y006255D01*
X040609Y006353D02*
X041079Y006353D01*
X040981Y006452D02*
X040505Y006452D01*
X040401Y006550D02*
X040882Y006550D01*
X044208Y006058D02*
X044211Y006058D01*
X046208Y006058D02*
X046211Y006058D01*
X049208Y006058D02*
X049211Y006058D01*
X049551Y005861D02*
X049754Y005861D01*
X049714Y005762D02*
X049489Y005762D01*
X049491Y005664D02*
X049711Y005664D01*
X049727Y005565D02*
X049476Y005565D01*
X049435Y005467D02*
X049768Y005467D01*
X049861Y005368D02*
X049342Y005368D01*
X051766Y004876D02*
X057812Y004876D01*
X057911Y004974D02*
X051865Y004974D01*
X051963Y005073D02*
X058009Y005073D01*
X058108Y005171D02*
X052062Y005171D01*
X052160Y005270D02*
X058206Y005270D01*
X058125Y005368D02*
X058305Y005368D01*
X058215Y005459D02*
X058275Y005602D01*
X058275Y005757D01*
X058215Y005901D01*
X058106Y006010D01*
X057962Y006070D01*
X057807Y006070D01*
X057664Y006010D01*
X057554Y005901D01*
X057495Y005757D01*
X057495Y005602D01*
X057554Y005459D01*
X057664Y005349D01*
X057807Y005290D01*
X057962Y005290D01*
X058106Y005349D01*
X058215Y005459D01*
X058219Y005467D02*
X058403Y005467D01*
X058502Y005565D02*
X058259Y005565D01*
X058275Y005664D02*
X058495Y005664D01*
X058497Y005762D02*
X058273Y005762D01*
X058232Y005861D02*
X058538Y005861D01*
X058613Y005959D02*
X058157Y005959D01*
X057991Y006058D02*
X058778Y006058D01*
X058991Y006058D02*
X059778Y006058D01*
X059807Y006070D02*
X059664Y006010D01*
X059554Y005901D01*
X059495Y005757D01*
X059495Y005602D01*
X059554Y005459D01*
X059664Y005349D01*
X059807Y005290D01*
X059962Y005290D01*
X060106Y005349D01*
X060215Y005459D01*
X060275Y005602D01*
X060275Y005757D01*
X060215Y005901D01*
X060106Y006010D01*
X059962Y006070D01*
X059807Y006070D01*
X059991Y006058D02*
X060778Y006058D01*
X060807Y006070D02*
X060664Y006010D01*
X060554Y005901D01*
X060495Y005757D01*
X060495Y005602D01*
X060554Y005459D01*
X060664Y005349D01*
X060807Y005290D01*
X060962Y005290D01*
X061106Y005349D01*
X061215Y005459D01*
X061275Y005602D01*
X061275Y005757D01*
X061215Y005901D01*
X061106Y006010D01*
X060962Y006070D01*
X060807Y006070D01*
X060991Y006058D02*
X063149Y006058D01*
X063247Y006156D02*
X053047Y006156D01*
X053145Y006255D02*
X063346Y006255D01*
X063444Y006353D02*
X053244Y006353D01*
X053342Y006452D02*
X063543Y006452D01*
X063641Y006550D02*
X053441Y006550D01*
X053539Y006649D02*
X063740Y006649D01*
X063838Y006747D02*
X053638Y006747D01*
X053736Y006846D02*
X063937Y006846D01*
X064035Y006944D02*
X053835Y006944D01*
X053933Y007043D02*
X064134Y007043D01*
X064232Y007141D02*
X054032Y007141D01*
X054130Y007240D02*
X064331Y007240D01*
X064429Y007338D02*
X054229Y007338D01*
X054327Y007437D02*
X064528Y007437D01*
X064626Y007535D02*
X054426Y007535D01*
X054524Y007634D02*
X064725Y007634D01*
X064823Y007732D02*
X054623Y007732D01*
X054282Y007929D02*
X053380Y007929D01*
X053478Y008028D02*
X054381Y008028D01*
X054479Y008126D02*
X053577Y008126D01*
X053675Y008225D02*
X059218Y008225D01*
X059316Y008323D02*
X059043Y008323D01*
X059178Y008422D02*
X059415Y008422D01*
X059513Y008520D02*
X059241Y008520D01*
X059275Y008619D02*
X059495Y008619D01*
X059495Y008717D02*
X059275Y008717D01*
X059251Y008816D02*
X059519Y008816D01*
X059568Y008914D02*
X059202Y008914D01*
X059100Y009013D02*
X059670Y009013D01*
X060100Y009013D02*
X090240Y009013D01*
X090141Y009111D02*
X058779Y009111D01*
X058680Y009210D02*
X090043Y009210D01*
X089944Y009308D02*
X058582Y009308D01*
X058483Y009407D02*
X089846Y009407D01*
X089747Y009505D02*
X058385Y009505D01*
X058286Y009604D02*
X089649Y009604D01*
X089550Y009702D02*
X058188Y009702D01*
X058089Y009801D02*
X089452Y009801D01*
X089353Y009899D02*
X057991Y009899D01*
X057892Y009998D02*
X089255Y009998D01*
X089156Y010096D02*
X057794Y010096D01*
X057695Y010195D02*
X089058Y010195D01*
X088959Y010293D02*
X012797Y010293D01*
X012358Y010195D02*
X011431Y010195D01*
X011431Y010293D02*
X012259Y010293D01*
X012161Y010392D02*
X011409Y010392D01*
X011431Y010369D02*
X011191Y010610D01*
X010852Y010610D01*
X010611Y010369D01*
X010611Y010030D01*
X010852Y009790D01*
X011191Y009790D01*
X011431Y010030D01*
X011431Y010369D01*
X011311Y010490D02*
X012062Y010490D01*
X011964Y010589D02*
X011212Y010589D01*
X010831Y010589D02*
X010212Y010589D01*
X010311Y010490D02*
X010732Y010490D01*
X010634Y010392D02*
X010409Y010392D01*
X010431Y010293D02*
X010611Y010293D01*
X010611Y010195D02*
X010431Y010195D01*
X010431Y010096D02*
X010611Y010096D01*
X010644Y009998D02*
X010399Y009998D01*
X010301Y009899D02*
X010742Y009899D01*
X010841Y009801D02*
X010202Y009801D01*
X010197Y009604D02*
X010846Y009604D01*
X010852Y009610D02*
X010611Y009369D01*
X010611Y009030D01*
X010852Y008790D01*
X011191Y008790D01*
X011431Y009030D01*
X011431Y009369D01*
X011191Y009610D01*
X010852Y009610D01*
X010747Y009505D02*
X010296Y009505D01*
X010394Y009407D02*
X010649Y009407D01*
X010611Y009308D02*
X010431Y009308D01*
X010431Y009210D02*
X010611Y009210D01*
X010611Y009111D02*
X010431Y009111D01*
X010414Y009013D02*
X010629Y009013D01*
X010727Y008914D02*
X010316Y008914D01*
X010217Y008816D02*
X010826Y008816D01*
X010852Y008610D02*
X010611Y008369D01*
X010611Y008030D01*
X010852Y007790D01*
X011191Y007790D01*
X011431Y008030D01*
X011431Y008369D01*
X011191Y008610D01*
X010852Y008610D01*
X010762Y008520D02*
X010281Y008520D01*
X010379Y008422D02*
X010664Y008422D01*
X010611Y008323D02*
X010431Y008323D01*
X010431Y008225D02*
X010611Y008225D01*
X010611Y008126D02*
X010431Y008126D01*
X010429Y008028D02*
X010614Y008028D01*
X010712Y007929D02*
X010331Y007929D01*
X010232Y007831D02*
X010811Y007831D01*
X011232Y007831D02*
X018371Y007831D01*
X018371Y007929D02*
X011331Y007929D01*
X011429Y008028D02*
X018371Y008028D01*
X018371Y008126D02*
X011431Y008126D01*
X011431Y008225D02*
X018371Y008225D01*
X018371Y008323D02*
X011431Y008323D01*
X011379Y008422D02*
X018371Y008422D01*
X018371Y008520D02*
X011281Y008520D01*
X011217Y008816D02*
X018371Y008816D01*
X018371Y008914D02*
X011316Y008914D01*
X011414Y009013D02*
X018371Y009013D01*
X018371Y009111D02*
X011431Y009111D01*
X011431Y009210D02*
X018371Y009210D01*
X018371Y009308D02*
X011431Y009308D01*
X011394Y009407D02*
X018372Y009407D01*
X018413Y009505D02*
X011296Y009505D01*
X011197Y009604D02*
X018499Y009604D01*
X018371Y008717D02*
X009768Y008717D01*
X009669Y008619D02*
X018371Y008619D01*
X018371Y007732D02*
X009631Y007732D01*
X009631Y007634D02*
X009867Y007634D01*
X009706Y007535D02*
X009631Y007535D01*
X008931Y007535D02*
X008851Y007535D01*
X008851Y007437D02*
X008931Y007437D01*
X008931Y007338D02*
X008851Y007338D01*
X008851Y007240D02*
X008931Y007240D01*
X008931Y007141D02*
X008851Y007141D01*
X008851Y007043D02*
X008931Y007043D01*
X008931Y006944D02*
X008851Y006944D01*
X008851Y006846D02*
X008931Y006846D01*
X008931Y006747D02*
X008851Y006747D01*
X008851Y006649D02*
X008931Y006649D01*
X008931Y006550D02*
X008851Y006550D01*
X008851Y006452D02*
X008931Y006452D01*
X008931Y006353D02*
X008851Y006353D01*
X008851Y006255D02*
X008931Y006255D01*
X008931Y006156D02*
X008851Y006156D01*
X008851Y006058D02*
X008931Y006058D01*
X008931Y005959D02*
X008851Y005959D01*
X008851Y005861D02*
X008931Y005861D01*
X008929Y005762D02*
X008851Y005762D01*
X008851Y005664D02*
X008931Y005664D01*
X008987Y005565D02*
X008851Y005565D01*
X008851Y005467D02*
X009092Y005467D01*
X009197Y005368D02*
X008851Y005368D01*
X008851Y005270D02*
X009302Y005270D01*
X009407Y005171D02*
X008851Y005171D01*
X008851Y005073D02*
X009512Y005073D01*
X009618Y004974D02*
X008851Y004974D01*
X008851Y004876D02*
X009723Y004876D01*
X009828Y004777D02*
X008851Y004777D01*
X008851Y004679D02*
X009933Y004679D01*
X010038Y004580D02*
X008851Y004580D01*
X008851Y004482D02*
X010143Y004482D01*
X008851Y004186D02*
X041554Y004186D01*
X041658Y004088D02*
X008851Y004088D01*
X008851Y003989D02*
X041762Y003989D01*
X041865Y003891D02*
X008851Y003891D01*
X008851Y003792D02*
X041969Y003792D01*
X042073Y003694D02*
X008851Y003694D01*
X008851Y003595D02*
X042175Y003595D01*
X042349Y003497D02*
X008851Y003497D01*
X009808Y005762D02*
X026539Y005762D01*
X026451Y005861D02*
X009709Y005861D01*
X009631Y005959D02*
X009795Y005959D01*
X009885Y005870D02*
X009691Y006063D01*
X009691Y006160D01*
X009981Y006160D01*
X009981Y006240D01*
X009691Y006240D01*
X009691Y006336D01*
X009885Y006530D01*
X009981Y006530D01*
X009981Y006240D01*
X010061Y006240D01*
X010061Y006530D01*
X010158Y006530D01*
X010351Y006336D01*
X010351Y006240D01*
X010061Y006240D01*
X010061Y006160D01*
X010061Y005870D01*
X010158Y005870D01*
X010351Y006063D01*
X010351Y006160D01*
X010061Y006160D01*
X009981Y006160D01*
X009981Y005870D01*
X009885Y005870D01*
X009981Y005959D02*
X010061Y005959D01*
X010061Y006058D02*
X009981Y006058D01*
X009981Y006156D02*
X010061Y006156D01*
X010061Y006255D02*
X009981Y006255D01*
X009981Y006353D02*
X010061Y006353D01*
X010061Y006452D02*
X009981Y006452D01*
X009807Y006452D02*
X009631Y006452D01*
X009631Y006550D02*
X011763Y006550D01*
X011586Y006649D02*
X009631Y006649D01*
X009631Y006747D02*
X009912Y006747D01*
X009725Y006846D02*
X009631Y006846D01*
X010691Y006336D02*
X010885Y006530D01*
X010981Y006530D01*
X010981Y006240D01*
X010981Y006160D01*
X010691Y006160D01*
X010691Y006063D01*
X010885Y005870D01*
X010981Y005870D01*
X010981Y006160D01*
X011061Y006160D01*
X011061Y005870D01*
X011158Y005870D01*
X011351Y006063D01*
X011351Y006160D01*
X011061Y006160D01*
X011061Y006240D01*
X010981Y006240D01*
X010691Y006240D01*
X010691Y006336D01*
X010708Y006353D02*
X010335Y006353D01*
X010351Y006255D02*
X010691Y006255D01*
X010691Y006156D02*
X010351Y006156D01*
X010346Y006058D02*
X010697Y006058D01*
X010795Y005959D02*
X010248Y005959D01*
X009697Y006058D02*
X009631Y006058D01*
X009631Y006156D02*
X009691Y006156D01*
X009691Y006255D02*
X009631Y006255D01*
X009631Y006353D02*
X009708Y006353D01*
X010236Y006452D02*
X010807Y006452D01*
X010981Y006452D02*
X011061Y006452D01*
X011061Y006530D02*
X011061Y006240D01*
X011351Y006240D01*
X011351Y006336D01*
X011158Y006530D01*
X011061Y006530D01*
X011061Y006353D02*
X010981Y006353D01*
X010981Y006255D02*
X011061Y006255D01*
X011061Y006156D02*
X010981Y006156D01*
X010981Y006058D02*
X011061Y006058D01*
X011061Y005959D02*
X010981Y005959D01*
X011248Y005959D02*
X026451Y005959D01*
X026451Y006058D02*
X011346Y006058D01*
X011351Y006156D02*
X026451Y006156D01*
X026517Y006255D02*
X011351Y006255D01*
X011335Y006353D02*
X026615Y006353D01*
X027108Y006353D02*
X027615Y006353D01*
X027517Y006255D02*
X027206Y006255D01*
X027271Y006156D02*
X027451Y006156D01*
X027451Y006058D02*
X027271Y006058D01*
X027271Y005959D02*
X027451Y005959D01*
X027451Y005861D02*
X027271Y005861D01*
X027184Y005762D02*
X027539Y005762D01*
X028184Y005762D02*
X028539Y005762D01*
X028451Y005861D02*
X028271Y005861D01*
X028271Y005959D02*
X028451Y005959D01*
X028451Y006058D02*
X028271Y006058D01*
X028271Y006156D02*
X028451Y006156D01*
X028517Y006255D02*
X028206Y006255D01*
X028108Y006353D02*
X028615Y006353D01*
X029108Y006353D02*
X029615Y006353D01*
X029517Y006255D02*
X029206Y006255D01*
X029271Y006156D02*
X029451Y006156D01*
X029451Y006058D02*
X029271Y006058D01*
X029271Y005959D02*
X029451Y005959D01*
X029451Y005861D02*
X029271Y005861D01*
X029184Y005762D02*
X029539Y005762D01*
X030184Y005762D02*
X030539Y005762D01*
X030451Y005861D02*
X030271Y005861D01*
X030271Y005959D02*
X030451Y005959D01*
X030451Y006058D02*
X030271Y006058D01*
X030271Y006156D02*
X030451Y006156D01*
X030517Y006255D02*
X030206Y006255D01*
X030108Y006353D02*
X030615Y006353D01*
X031108Y006353D02*
X031615Y006353D01*
X031517Y006255D02*
X031206Y006255D01*
X031271Y006156D02*
X031451Y006156D01*
X031451Y006058D02*
X031271Y006058D01*
X031271Y005959D02*
X031451Y005959D01*
X031451Y005861D02*
X031271Y005861D01*
X031184Y005762D02*
X031539Y005762D01*
X031486Y005664D02*
X031638Y005664D01*
X031585Y005565D02*
X032047Y005565D01*
X032146Y005467D02*
X031683Y005467D01*
X032093Y005368D02*
X032171Y005368D01*
X032551Y005368D02*
X032630Y005368D01*
X032551Y005467D02*
X033739Y005467D01*
X033559Y005368D02*
X033093Y005368D01*
X033191Y005270D02*
X033467Y005270D01*
X033426Y005171D02*
X033271Y005171D01*
X033271Y005073D02*
X033401Y005073D01*
X033401Y004974D02*
X033271Y004974D01*
X033271Y004876D02*
X033423Y004876D01*
X033464Y004777D02*
X033199Y004777D01*
X033100Y004679D02*
X033552Y004679D01*
X033720Y004580D02*
X032451Y004580D01*
X032549Y004679D02*
X032623Y004679D01*
X032551Y005565D02*
X034656Y005565D01*
X034755Y005664D02*
X033085Y005664D01*
X033031Y005610D02*
X033271Y005850D01*
X033271Y006189D01*
X033031Y006430D01*
X032692Y006430D01*
X032451Y006189D01*
X032451Y005850D01*
X032692Y005610D01*
X033031Y005610D01*
X033184Y005762D02*
X033652Y005762D01*
X033725Y005690D02*
X033821Y005690D01*
X033821Y005980D01*
X033531Y005980D01*
X033531Y005883D01*
X033725Y005690D01*
X033821Y005762D02*
X033901Y005762D01*
X033901Y005690D02*
X033998Y005690D01*
X034191Y005883D01*
X034191Y005980D01*
X033901Y005980D01*
X033901Y005690D01*
X033901Y005861D02*
X033821Y005861D01*
X033821Y005959D02*
X033901Y005959D01*
X033901Y005980D02*
X033821Y005980D01*
X033821Y006060D01*
X033531Y006060D01*
X033531Y006156D01*
X033271Y006156D01*
X033271Y006058D02*
X033821Y006058D01*
X033821Y006060D02*
X033821Y006350D01*
X033725Y006350D01*
X033531Y006156D01*
X033630Y006255D02*
X033206Y006255D01*
X033108Y006353D02*
X034821Y006353D01*
X034821Y006255D02*
X034093Y006255D01*
X033998Y006350D02*
X034191Y006156D01*
X034821Y006156D01*
X034821Y006058D02*
X033901Y006058D01*
X033901Y006060D02*
X034191Y006060D01*
X034191Y006156D01*
X034191Y005959D02*
X034821Y005959D01*
X034821Y005861D02*
X034169Y005861D01*
X034071Y005762D02*
X034821Y005762D01*
X033554Y005861D02*
X033271Y005861D01*
X033271Y005959D02*
X033531Y005959D01*
X033821Y006060D02*
X033901Y006060D01*
X033901Y006350D01*
X033998Y006350D01*
X033901Y006255D02*
X033821Y006255D01*
X033821Y006156D02*
X033901Y006156D01*
X033901Y006060D02*
X033901Y005980D01*
X032517Y006255D02*
X032206Y006255D01*
X032271Y006156D02*
X032451Y006156D01*
X032451Y006058D02*
X032271Y006058D01*
X032271Y005959D02*
X032451Y005959D01*
X032451Y005861D02*
X032289Y005861D01*
X032388Y005762D02*
X032539Y005762D01*
X032486Y005664D02*
X032638Y005664D01*
X032615Y006353D02*
X032108Y006353D01*
X034821Y006452D02*
X012866Y006452D01*
X011951Y006452D02*
X011236Y006452D01*
X011885Y007535D02*
X018371Y007535D01*
X018371Y007634D02*
X011707Y007634D01*
X012062Y007437D02*
X017084Y007437D01*
X009811Y007831D02*
X009631Y007831D01*
X009631Y007929D02*
X009712Y007929D01*
X008931Y007929D02*
X008851Y007929D01*
X008851Y007831D02*
X008931Y007831D01*
X008931Y007732D02*
X008851Y007732D01*
X008851Y007634D02*
X008931Y007634D01*
X008931Y008028D02*
X008851Y008028D01*
X008851Y008126D02*
X008931Y008126D01*
X008931Y008225D02*
X008851Y008225D01*
X008851Y008323D02*
X008931Y008323D01*
X008931Y008422D02*
X008851Y008422D01*
X008851Y008520D02*
X008931Y008520D01*
X008931Y008619D02*
X008851Y008619D01*
X008851Y008717D02*
X008931Y008717D01*
X009631Y008520D02*
X009762Y008520D01*
X009664Y008422D02*
X009631Y008422D01*
X011202Y009801D02*
X012752Y009801D01*
X012653Y009899D02*
X011301Y009899D01*
X011399Y009998D02*
X012555Y009998D01*
X012456Y010096D02*
X011431Y010096D01*
X013424Y010786D02*
X021779Y010786D01*
X022608Y010983D02*
X033135Y010983D01*
X033428Y010983D02*
X043955Y010983D01*
X044248Y010983D02*
X054795Y010983D01*
X055088Y010983D02*
X065615Y010983D01*
X065908Y010983D02*
X076483Y010983D01*
X076708Y010983D02*
X085127Y010983D01*
X085225Y010884D02*
X013326Y010884D01*
X013176Y011377D02*
X012833Y011377D01*
X012735Y011475D02*
X013077Y011475D01*
X012979Y011574D02*
X012636Y011574D01*
X012538Y011672D02*
X012880Y011672D01*
X012782Y011771D02*
X012439Y011771D01*
X012341Y011869D02*
X012683Y011869D01*
X012585Y011968D02*
X012242Y011968D01*
X012144Y012066D02*
X012486Y012066D01*
X012388Y012165D02*
X012045Y012165D01*
X011947Y012263D02*
X012289Y012263D01*
X010931Y012756D02*
X010334Y012756D01*
X010395Y012854D02*
X010236Y012854D01*
X010191Y012953D02*
X010296Y012953D01*
X010242Y013051D02*
X010191Y013051D01*
X010191Y013150D02*
X010208Y013150D01*
X010208Y013248D02*
X010191Y013248D01*
X010191Y013347D02*
X010227Y013347D01*
X010191Y013445D02*
X010267Y013445D01*
X010265Y013544D02*
X010358Y013544D01*
X010874Y012854D02*
X010931Y012854D01*
X015838Y013839D02*
X016432Y013839D01*
X016311Y013938D02*
X015959Y013938D01*
X016022Y014036D02*
X016248Y014036D01*
X016208Y014135D02*
X016062Y014135D01*
X016062Y014233D02*
X016208Y014233D01*
X016220Y014332D02*
X016049Y014332D01*
X016009Y014430D02*
X016261Y014430D01*
X016343Y014529D02*
X015927Y014529D01*
X018062Y014430D02*
X021088Y014430D01*
X021047Y014332D02*
X018062Y014332D01*
X018085Y014233D02*
X021035Y014233D01*
X021035Y014135D02*
X018184Y014135D01*
X018800Y014036D02*
X021075Y014036D01*
X024813Y013470D02*
X025111Y013470D01*
X025100Y013459D01*
X025035Y013302D01*
X025035Y013132D01*
X025100Y012975D01*
X025220Y012855D01*
X025377Y012790D01*
X025547Y012790D01*
X025703Y012855D01*
X025824Y012975D01*
X025888Y013132D01*
X025888Y013302D01*
X025824Y013459D01*
X025813Y013470D01*
X026111Y013470D01*
X026100Y013459D01*
X026035Y013302D01*
X026035Y013132D01*
X026100Y012975D01*
X026220Y012855D01*
X026377Y012790D01*
X026547Y012790D01*
X026703Y012855D01*
X026824Y012975D01*
X026888Y013132D01*
X026888Y013302D01*
X026824Y013459D01*
X026813Y013470D01*
X027111Y013470D01*
X027100Y013459D01*
X027035Y013302D01*
X027035Y013132D01*
X027100Y012975D01*
X027220Y012855D01*
X027377Y012790D01*
X027547Y012790D01*
X027703Y012855D01*
X027824Y012975D01*
X027888Y013132D01*
X027888Y013302D01*
X027824Y013459D01*
X027813Y013470D01*
X028224Y013470D01*
X028192Y013438D01*
X028154Y013381D01*
X028128Y013318D01*
X028118Y013265D01*
X028413Y013265D01*
X028413Y013169D01*
X028118Y013169D01*
X028128Y013116D01*
X028154Y013053D01*
X028192Y012996D01*
X028241Y012948D01*
X028297Y012910D01*
X028360Y012883D01*
X028413Y012873D01*
X028413Y013168D01*
X028510Y013168D01*
X028510Y012873D01*
X028563Y012883D01*
X028626Y012910D01*
X028683Y012948D01*
X028731Y012996D01*
X028769Y013053D01*
X028795Y013116D01*
X028806Y013169D01*
X028510Y013169D01*
X028510Y013265D01*
X028806Y013265D01*
X028795Y013318D01*
X028769Y013381D01*
X028731Y013438D01*
X028699Y013470D01*
X031937Y013470D01*
X031927Y013459D01*
X031862Y013302D01*
X031862Y013132D01*
X031927Y012975D01*
X032047Y012855D01*
X032204Y012790D01*
X032373Y012790D01*
X032530Y012855D01*
X032650Y012975D01*
X032715Y013132D01*
X032715Y013302D01*
X032650Y013459D01*
X032639Y013470D01*
X032937Y013470D01*
X032927Y013459D01*
X032862Y013302D01*
X032862Y013132D01*
X032927Y012975D01*
X033047Y012855D01*
X033204Y012790D01*
X033373Y012790D01*
X033530Y012855D01*
X033650Y012975D01*
X033715Y013132D01*
X033715Y013302D01*
X033650Y013459D01*
X033639Y013470D01*
X033937Y013470D01*
X033927Y013459D01*
X033862Y013302D01*
X033862Y013132D01*
X033927Y012975D01*
X034047Y012855D01*
X034204Y012790D01*
X034373Y012790D01*
X034530Y012855D01*
X034650Y012975D01*
X034715Y013132D01*
X034715Y013302D01*
X034650Y013459D01*
X034639Y013470D01*
X034937Y013470D01*
X034927Y013459D01*
X034862Y013302D01*
X034862Y013132D01*
X034927Y012975D01*
X035047Y012855D01*
X035098Y012834D01*
X035098Y012690D01*
X024652Y012690D01*
X024652Y012834D01*
X024703Y012855D01*
X024824Y012975D01*
X024888Y013132D01*
X024888Y013302D01*
X024824Y013459D01*
X024813Y013470D01*
X024829Y013445D02*
X025094Y013445D01*
X025053Y013347D02*
X024870Y013347D01*
X024888Y013248D02*
X025035Y013248D01*
X025035Y013150D02*
X024888Y013150D01*
X024855Y013051D02*
X025068Y013051D01*
X025122Y012953D02*
X024801Y012953D01*
X024701Y012854D02*
X025222Y012854D01*
X025701Y012854D02*
X026222Y012854D01*
X026122Y012953D02*
X025801Y012953D01*
X025855Y013051D02*
X026068Y013051D01*
X026035Y013150D02*
X025888Y013150D01*
X025888Y013248D02*
X026035Y013248D01*
X026053Y013347D02*
X025870Y013347D01*
X025829Y013445D02*
X026094Y013445D01*
X026829Y013445D02*
X027094Y013445D01*
X027053Y013347D02*
X026870Y013347D01*
X026888Y013248D02*
X027035Y013248D01*
X027035Y013150D02*
X026888Y013150D01*
X026855Y013051D02*
X027068Y013051D01*
X027122Y012953D02*
X026801Y012953D01*
X026701Y012854D02*
X027222Y012854D01*
X027701Y012854D02*
X032049Y012854D01*
X031949Y012953D02*
X028688Y012953D01*
X028768Y013051D02*
X031895Y013051D01*
X031862Y013150D02*
X028802Y013150D01*
X028783Y013347D02*
X031880Y013347D01*
X031862Y013248D02*
X028510Y013248D01*
X028413Y013248D02*
X027888Y013248D01*
X027888Y013150D02*
X028121Y013150D01*
X028155Y013051D02*
X027855Y013051D01*
X027801Y012953D02*
X028235Y012953D01*
X028413Y012953D02*
X028510Y012953D01*
X028510Y013051D02*
X028413Y013051D01*
X028413Y013150D02*
X028510Y013150D01*
X028140Y013347D02*
X027870Y013347D01*
X027829Y013445D02*
X028199Y013445D01*
X028724Y013445D02*
X031921Y013445D01*
X032656Y013445D02*
X032921Y013445D01*
X032880Y013347D02*
X032697Y013347D01*
X032715Y013248D02*
X032862Y013248D01*
X032862Y013150D02*
X032715Y013150D01*
X032682Y013051D02*
X032895Y013051D01*
X032949Y012953D02*
X032628Y012953D01*
X032528Y012854D02*
X033049Y012854D01*
X033528Y012854D02*
X034049Y012854D01*
X033949Y012953D02*
X033628Y012953D01*
X033682Y013051D02*
X033895Y013051D01*
X033862Y013150D02*
X033715Y013150D01*
X033715Y013248D02*
X033862Y013248D01*
X033880Y013347D02*
X033697Y013347D01*
X033656Y013445D02*
X033921Y013445D01*
X034656Y013445D02*
X034921Y013445D01*
X034880Y013347D02*
X034697Y013347D01*
X034715Y013248D02*
X034862Y013248D01*
X034862Y013150D02*
X034715Y013150D01*
X034682Y013051D02*
X034895Y013051D01*
X034949Y012953D02*
X034628Y012953D01*
X034528Y012854D02*
X035049Y012854D01*
X035098Y012756D02*
X024652Y012756D01*
X035628Y012953D02*
X035949Y012953D01*
X035895Y013051D02*
X035682Y013051D01*
X035715Y013150D02*
X035862Y013150D01*
X035862Y013248D02*
X035715Y013248D01*
X035697Y013347D02*
X035880Y013347D01*
X035921Y013445D02*
X035656Y013445D01*
X038656Y013445D02*
X039026Y013445D01*
X038967Y013347D02*
X038697Y013347D01*
X057031Y009899D02*
X057453Y009899D01*
X057552Y009801D02*
X057129Y009801D01*
X057228Y009702D02*
X057650Y009702D01*
X057749Y009604D02*
X057326Y009604D01*
X057425Y009505D02*
X057847Y009505D01*
X057946Y009407D02*
X057523Y009407D01*
X057622Y009308D02*
X058044Y009308D01*
X058143Y009210D02*
X057720Y009210D01*
X057819Y009111D02*
X058241Y009111D01*
X058340Y009013D02*
X058100Y009013D01*
X058202Y008914D02*
X058438Y008914D01*
X058519Y008816D02*
X058251Y008816D01*
X058275Y008717D02*
X058495Y008717D01*
X058495Y008619D02*
X058275Y008619D01*
X058241Y008520D02*
X058529Y008520D01*
X058591Y008422D02*
X058178Y008422D01*
X058043Y008323D02*
X058726Y008323D01*
X059657Y008126D02*
X065217Y008126D01*
X065119Y008028D02*
X059558Y008028D01*
X059460Y007929D02*
X065020Y007929D01*
X064922Y007831D02*
X059361Y007831D01*
X059755Y008225D02*
X065316Y008225D01*
X065414Y008323D02*
X060043Y008323D01*
X060178Y008422D02*
X060713Y008422D01*
X060738Y008405D02*
X060794Y008382D01*
X060854Y008370D01*
X060855Y008370D01*
X060855Y008650D01*
X060575Y008650D01*
X060575Y008649D01*
X060587Y008589D01*
X060610Y008533D01*
X060644Y008482D01*
X060687Y008439D01*
X060738Y008405D01*
X060855Y008422D02*
X060915Y008422D01*
X060915Y008370D02*
X060975Y008382D01*
X061032Y008405D01*
X061082Y008439D01*
X061126Y008482D01*
X061160Y008533D01*
X061183Y008589D01*
X061195Y008649D01*
X061195Y008650D01*
X060915Y008650D01*
X060915Y008710D01*
X060855Y008710D01*
X060855Y008990D01*
X060854Y008990D01*
X060794Y008978D01*
X060738Y008954D01*
X060687Y008920D01*
X060644Y008877D01*
X060610Y008826D01*
X060587Y008770D01*
X060575Y008710D01*
X060575Y008710D01*
X060855Y008710D01*
X060855Y008650D01*
X060915Y008650D01*
X060915Y008370D01*
X060915Y008370D01*
X060915Y008520D02*
X060855Y008520D01*
X060855Y008619D02*
X060915Y008619D01*
X060915Y008710D02*
X061195Y008710D01*
X061183Y008770D01*
X061160Y008826D01*
X061126Y008877D01*
X061082Y008920D01*
X061032Y008954D01*
X060975Y008978D01*
X060915Y008990D01*
X060915Y008710D01*
X060915Y008717D02*
X060855Y008717D01*
X060855Y008816D02*
X060915Y008816D01*
X060915Y008914D02*
X060855Y008914D01*
X060915Y008990D02*
X060915Y008990D01*
X061089Y008914D02*
X090338Y008914D01*
X090437Y008816D02*
X061164Y008816D01*
X061193Y008717D02*
X090535Y008717D01*
X090634Y008619D02*
X089344Y008619D01*
X089512Y008520D02*
X090732Y008520D01*
X090831Y008422D02*
X089610Y008422D01*
X089709Y008323D02*
X090929Y008323D01*
X091028Y008225D02*
X089807Y008225D01*
X089906Y008126D02*
X091126Y008126D01*
X091368Y008422D02*
X092584Y008422D01*
X092682Y008520D02*
X091270Y008520D01*
X091171Y008619D02*
X092781Y008619D01*
X092786Y008816D02*
X090974Y008816D01*
X090876Y008914D02*
X092687Y008914D01*
X092589Y009013D02*
X090777Y009013D01*
X090679Y009111D02*
X092551Y009111D01*
X092551Y009210D02*
X090580Y009210D01*
X090482Y009308D02*
X092551Y009308D01*
X092569Y009407D02*
X090383Y009407D01*
X090285Y009505D02*
X092667Y009505D01*
X092766Y009604D02*
X090186Y009604D01*
X090088Y009702D02*
X093175Y009702D01*
X093274Y009801D02*
X089989Y009801D01*
X089891Y009899D02*
X090266Y009899D01*
X090310Y009855D02*
X090096Y010068D01*
X090096Y010190D01*
X090431Y010190D01*
X090431Y010250D01*
X090096Y010250D01*
X090096Y010371D01*
X090310Y010585D01*
X090431Y010585D01*
X090431Y010250D01*
X090491Y010250D01*
X090491Y010585D01*
X090613Y010585D01*
X090826Y010371D01*
X090826Y010250D01*
X090491Y010250D01*
X090491Y010190D01*
X090491Y009855D01*
X090613Y009855D01*
X090826Y010068D01*
X090826Y010190D01*
X090491Y010190D01*
X090431Y010190D01*
X090431Y009855D01*
X090310Y009855D01*
X090431Y009899D02*
X090491Y009899D01*
X090491Y009998D02*
X090431Y009998D01*
X090431Y010096D02*
X090491Y010096D01*
X090491Y010195D02*
X092551Y010195D01*
X092551Y010293D02*
X090826Y010293D01*
X090806Y010392D02*
X092521Y010392D01*
X092422Y010490D02*
X090707Y010490D01*
X090491Y010490D02*
X090431Y010490D01*
X090431Y010392D02*
X090491Y010392D01*
X090491Y010293D02*
X090431Y010293D01*
X090431Y010195D02*
X089595Y010195D01*
X089497Y010293D02*
X090096Y010293D01*
X090117Y010392D02*
X089398Y010392D01*
X089300Y010490D02*
X090216Y010490D01*
X089201Y010589D02*
X092324Y010589D01*
X092225Y010687D02*
X089103Y010687D01*
X089694Y010096D02*
X090096Y010096D01*
X090167Y009998D02*
X089792Y009998D01*
X090657Y009899D02*
X092702Y009899D01*
X092604Y009998D02*
X090756Y009998D01*
X090826Y010096D02*
X092551Y010096D01*
X093221Y009899D02*
X093291Y009899D01*
X093671Y009899D02*
X093702Y009899D01*
X093671Y009801D02*
X094261Y009801D01*
X094261Y009899D02*
X094221Y009899D01*
X094261Y009702D02*
X093671Y009702D01*
X093614Y009604D02*
X093766Y009604D01*
X093667Y009505D02*
X093516Y009505D01*
X093569Y009407D02*
X093417Y009407D01*
X093371Y009308D02*
X093551Y009308D01*
X093551Y009210D02*
X093371Y009210D01*
X093371Y009111D02*
X093551Y009111D01*
X093589Y009013D02*
X093334Y009013D01*
X093236Y008914D02*
X093687Y008914D01*
X093786Y008816D02*
X093137Y008816D01*
X093142Y008619D02*
X093781Y008619D01*
X093682Y008520D02*
X093241Y008520D01*
X093339Y008422D02*
X093584Y008422D01*
X093551Y008323D02*
X093371Y008323D01*
X093371Y008225D02*
X093551Y008225D01*
X093551Y008126D02*
X093371Y008126D01*
X093349Y008028D02*
X093574Y008028D01*
X093672Y007929D02*
X093251Y007929D01*
X093152Y007831D02*
X093771Y007831D01*
X094152Y007831D02*
X094261Y007831D01*
X094251Y007929D02*
X094261Y007929D01*
X094261Y007732D02*
X090300Y007732D01*
X090201Y007831D02*
X092771Y007831D01*
X092672Y007929D02*
X090103Y007929D01*
X090004Y008028D02*
X092574Y008028D01*
X094142Y008619D02*
X094261Y008619D01*
X094261Y008717D02*
X091073Y008717D01*
X094137Y008816D02*
X094261Y008816D01*
X094261Y008914D02*
X094236Y008914D01*
X095181Y008914D02*
X095206Y008914D01*
X095206Y008816D02*
X095181Y008816D01*
X095181Y008717D02*
X095206Y008717D01*
X095206Y008619D02*
X095181Y008619D01*
X095181Y008520D02*
X095206Y008520D01*
X095206Y008422D02*
X095181Y008422D01*
X095181Y008323D02*
X095206Y008323D01*
X095206Y008225D02*
X095181Y008225D01*
X095181Y008126D02*
X095206Y008126D01*
X095206Y008028D02*
X095181Y008028D01*
X095181Y007929D02*
X095206Y007929D01*
X095206Y007831D02*
X095181Y007831D01*
X095181Y007732D02*
X095206Y007732D01*
X095206Y007634D02*
X095181Y007634D01*
X095181Y007535D02*
X095206Y007535D01*
X095206Y007437D02*
X095177Y007437D01*
X095206Y007338D02*
X095136Y007338D01*
X095072Y007240D02*
X095206Y007240D01*
X095206Y007141D02*
X094974Y007141D01*
X094875Y007043D02*
X095206Y007043D01*
X095206Y006944D02*
X094777Y006944D01*
X094678Y006846D02*
X095206Y006846D01*
X095206Y006747D02*
X075091Y006747D01*
X075091Y006649D02*
X095206Y006649D01*
X095206Y006550D02*
X075091Y006550D01*
X075091Y006452D02*
X092727Y006452D01*
X092631Y006356D02*
X092631Y006260D01*
X092921Y006260D01*
X092921Y006180D01*
X092631Y006180D01*
X092631Y006083D01*
X092825Y005890D01*
X092921Y005890D01*
X092921Y006180D01*
X093001Y006180D01*
X093001Y005890D01*
X093098Y005890D01*
X093291Y006083D01*
X093291Y006180D01*
X093001Y006180D01*
X093001Y006260D01*
X092921Y006260D01*
X092921Y006550D01*
X092825Y006550D01*
X092631Y006356D01*
X092631Y006353D02*
X075091Y006353D01*
X075091Y006255D02*
X092921Y006255D01*
X093001Y006255D02*
X093921Y006255D01*
X093921Y006260D02*
X093921Y006180D01*
X093631Y006180D01*
X093631Y006083D01*
X093825Y005890D01*
X093921Y005890D01*
X093921Y006180D01*
X094001Y006180D01*
X094001Y005890D01*
X094098Y005890D01*
X094291Y006083D01*
X094291Y006180D01*
X094001Y006180D01*
X094001Y006260D01*
X093921Y006260D01*
X093631Y006260D01*
X093631Y006356D01*
X093825Y006550D01*
X093921Y006550D01*
X093921Y006260D01*
X094001Y006260D02*
X094001Y006550D01*
X094098Y006550D01*
X094291Y006356D01*
X094291Y006260D01*
X094001Y006260D01*
X094001Y006255D02*
X095206Y006255D01*
X095206Y006353D02*
X094291Y006353D01*
X094196Y006452D02*
X095206Y006452D01*
X095206Y006156D02*
X094291Y006156D01*
X094266Y006058D02*
X095206Y006058D01*
X095206Y005959D02*
X094168Y005959D01*
X094001Y005959D02*
X093921Y005959D01*
X093921Y006058D02*
X094001Y006058D01*
X094001Y006156D02*
X093921Y006156D01*
X093921Y006353D02*
X094001Y006353D01*
X094001Y006452D02*
X093921Y006452D01*
X093727Y006452D02*
X093196Y006452D01*
X093291Y006356D02*
X093098Y006550D01*
X093001Y006550D01*
X093001Y006260D01*
X093291Y006260D01*
X093291Y006356D01*
X093291Y006353D02*
X093631Y006353D01*
X093631Y006156D02*
X093291Y006156D01*
X093266Y006058D02*
X093657Y006058D01*
X093755Y005959D02*
X093168Y005959D01*
X093001Y005959D02*
X092921Y005959D01*
X092921Y006058D02*
X093001Y006058D01*
X093001Y006156D02*
X092921Y006156D01*
X092921Y006353D02*
X093001Y006353D01*
X093001Y006452D02*
X092921Y006452D01*
X092631Y006156D02*
X075091Y006156D01*
X075091Y006058D02*
X092657Y006058D01*
X092755Y005959D02*
X075091Y005959D01*
X075091Y005861D02*
X095206Y005861D01*
X095206Y005762D02*
X075091Y005762D01*
X075091Y005664D02*
X095206Y005664D01*
X095206Y005565D02*
X075091Y005565D01*
X075091Y005467D02*
X095206Y005467D01*
X095206Y005368D02*
X075091Y005368D01*
X075091Y005270D02*
X095206Y005270D01*
X095206Y005171D02*
X075091Y005171D01*
X075091Y005073D02*
X095206Y005073D01*
X095206Y004974D02*
X075091Y004974D01*
X075091Y004876D02*
X095206Y004876D01*
X095206Y004777D02*
X075091Y004777D01*
X075091Y004679D02*
X095206Y004679D01*
X095206Y004580D02*
X075091Y004580D01*
X075091Y004482D02*
X095206Y004482D01*
X095206Y004383D02*
X075107Y004383D01*
X075126Y004285D02*
X095206Y004285D01*
X095206Y004186D02*
X075126Y004186D01*
X075126Y004088D02*
X095206Y004088D01*
X095206Y003989D02*
X075120Y003989D01*
X075022Y003891D02*
X095206Y003891D01*
X095206Y003792D02*
X074923Y003792D01*
X074440Y003792D02*
X062185Y003792D01*
X062283Y003891D02*
X063654Y003891D01*
X063750Y003795D02*
X063871Y003795D01*
X063871Y004130D01*
X063536Y004130D01*
X063536Y004008D01*
X063750Y003795D01*
X063871Y003891D02*
X063931Y003891D01*
X063931Y003795D02*
X064053Y003795D01*
X064266Y004008D01*
X064266Y004130D01*
X063931Y004130D01*
X063931Y003795D01*
X063931Y003989D02*
X063871Y003989D01*
X063871Y004088D02*
X063931Y004088D01*
X063931Y004130D02*
X063871Y004130D01*
X063871Y004190D01*
X063536Y004190D01*
X063536Y004311D01*
X063750Y004525D01*
X063871Y004525D01*
X063871Y004190D01*
X063931Y004190D01*
X063931Y004525D01*
X064053Y004525D01*
X064266Y004311D01*
X064266Y004190D01*
X063931Y004190D01*
X063931Y004130D01*
X063931Y004186D02*
X072651Y004186D01*
X072651Y004210D02*
X072651Y004150D01*
X072316Y004150D01*
X072316Y004028D01*
X072530Y003815D01*
X072651Y003815D01*
X072651Y004150D01*
X072711Y004150D01*
X072711Y003815D01*
X072833Y003815D01*
X073046Y004028D01*
X073046Y004150D01*
X072711Y004150D01*
X072711Y004210D01*
X072651Y004210D01*
X072316Y004210D01*
X072316Y004331D01*
X072530Y004545D01*
X072651Y004545D01*
X072651Y004210D01*
X072711Y004210D02*
X072711Y004545D01*
X072833Y004545D01*
X073046Y004331D01*
X073046Y004210D01*
X072711Y004210D01*
X072711Y004186D02*
X074236Y004186D01*
X074236Y004088D02*
X073046Y004088D01*
X073007Y003989D02*
X074243Y003989D01*
X074341Y003891D02*
X072909Y003891D01*
X072711Y003891D02*
X072651Y003891D01*
X072651Y003989D02*
X072711Y003989D01*
X072711Y004088D02*
X072651Y004088D01*
X072651Y004285D02*
X072711Y004285D01*
X072711Y004383D02*
X072651Y004383D01*
X072651Y004482D02*
X072711Y004482D01*
X072896Y004482D02*
X074271Y004482D01*
X074271Y004580D02*
X062973Y004580D01*
X063071Y004679D02*
X074271Y004679D01*
X074271Y004777D02*
X063170Y004777D01*
X063268Y004876D02*
X074271Y004876D01*
X074271Y004974D02*
X063367Y004974D01*
X063465Y005073D02*
X074271Y005073D01*
X074271Y005171D02*
X063564Y005171D01*
X063662Y005270D02*
X074271Y005270D01*
X074271Y005368D02*
X063761Y005368D01*
X063859Y005467D02*
X074271Y005467D01*
X074271Y005565D02*
X063958Y005565D01*
X064056Y005664D02*
X074271Y005664D01*
X074271Y005762D02*
X064155Y005762D01*
X064253Y005861D02*
X074271Y005861D01*
X074271Y005959D02*
X064352Y005959D01*
X064450Y006058D02*
X074271Y006058D01*
X074271Y006156D02*
X064549Y006156D01*
X064647Y006255D02*
X074271Y006255D01*
X074271Y006353D02*
X064746Y006353D01*
X064844Y006452D02*
X074271Y006452D01*
X074271Y006550D02*
X064943Y006550D01*
X065041Y006649D02*
X074271Y006649D01*
X074271Y006747D02*
X065140Y006747D01*
X065238Y006846D02*
X074271Y006846D01*
X074271Y006944D02*
X065337Y006944D01*
X065435Y007043D02*
X074271Y007043D01*
X074271Y007141D02*
X065534Y007141D01*
X065632Y007240D02*
X074271Y007240D01*
X074271Y007338D02*
X065731Y007338D01*
X065829Y007437D02*
X074271Y007437D01*
X074271Y007535D02*
X065928Y007535D01*
X066026Y007634D02*
X074271Y007634D01*
X075091Y007634D02*
X089097Y007634D01*
X089195Y007535D02*
X075091Y007535D01*
X075091Y007437D02*
X089294Y007437D01*
X089392Y007338D02*
X075091Y007338D01*
X075091Y007240D02*
X089491Y007240D01*
X089589Y007141D02*
X075091Y007141D01*
X075091Y007043D02*
X089688Y007043D01*
X089786Y006944D02*
X075091Y006944D01*
X075091Y006846D02*
X089885Y006846D01*
X094241Y008520D02*
X094261Y008520D01*
X095181Y009013D02*
X095206Y009013D01*
X095206Y009111D02*
X095181Y009111D01*
X095181Y009210D02*
X095206Y009210D01*
X095206Y009308D02*
X095181Y009308D01*
X095181Y009407D02*
X095206Y009407D01*
X095206Y009505D02*
X095181Y009505D01*
X095181Y009604D02*
X095206Y009604D01*
X095206Y009702D02*
X095181Y009702D01*
X095181Y009801D02*
X095206Y009801D01*
X095206Y009899D02*
X095181Y009899D01*
X095181Y009998D02*
X095206Y009998D01*
X095206Y010096D02*
X095181Y010096D01*
X095181Y010195D02*
X095206Y010195D01*
X095206Y010293D02*
X095181Y010293D01*
X095181Y010392D02*
X095206Y010392D01*
X095206Y010490D02*
X095181Y010490D01*
X094261Y009604D02*
X094157Y009604D01*
X094256Y009505D02*
X094261Y009505D01*
X074256Y004383D02*
X072994Y004383D01*
X073046Y004285D02*
X074236Y004285D01*
X072467Y004482D02*
X064096Y004482D01*
X064194Y004383D02*
X072369Y004383D01*
X072316Y004285D02*
X064266Y004285D01*
X064266Y004088D02*
X072316Y004088D01*
X072356Y003989D02*
X064247Y003989D01*
X064149Y003891D02*
X072454Y003891D01*
X064345Y003398D02*
X061366Y003398D01*
X061411Y003300D02*
X064300Y003300D01*
X064300Y003201D02*
X061411Y003201D01*
X061411Y003103D02*
X064300Y003103D01*
X064300Y003004D02*
X061411Y003004D01*
X061411Y002906D02*
X061665Y002906D01*
X061663Y002903D02*
X061655Y002885D01*
X061655Y001775D01*
X062805Y001775D01*
X062805Y001675D01*
X061655Y001675D01*
X061655Y000565D01*
X061663Y000546D01*
X061677Y000532D01*
X061695Y000525D01*
X062805Y000525D01*
X062805Y001675D01*
X062905Y001675D01*
X062905Y000525D01*
X064015Y000525D01*
X064034Y000532D01*
X064048Y000546D01*
X064055Y000565D01*
X064055Y001675D01*
X062905Y001675D01*
X062905Y001775D01*
X062805Y001775D01*
X062805Y002925D01*
X061695Y002925D01*
X061677Y002917D01*
X061663Y002903D01*
X061655Y002807D02*
X061411Y002807D01*
X061411Y002709D02*
X061655Y002709D01*
X061655Y002610D02*
X061411Y002610D01*
X061411Y002512D02*
X061655Y002512D01*
X061655Y002413D02*
X061411Y002413D01*
X061411Y002315D02*
X061655Y002315D01*
X061655Y002216D02*
X061411Y002216D01*
X061411Y002118D02*
X061655Y002118D01*
X061655Y002019D02*
X061411Y002019D01*
X061411Y001921D02*
X061655Y001921D01*
X061655Y001822D02*
X061411Y001822D01*
X061411Y001724D02*
X062805Y001724D01*
X062805Y001822D02*
X062905Y001822D01*
X062905Y001775D02*
X062905Y002925D01*
X064015Y002925D01*
X064034Y002917D01*
X064048Y002903D01*
X064055Y002885D01*
X064055Y001775D01*
X062905Y001775D01*
X062905Y001724D02*
X064300Y001724D01*
X064300Y001822D02*
X064055Y001822D01*
X064055Y001921D02*
X064300Y001921D01*
X064300Y002019D02*
X064055Y002019D01*
X064055Y002118D02*
X064300Y002118D01*
X064300Y002216D02*
X064055Y002216D01*
X064055Y002315D02*
X064300Y002315D01*
X064300Y002413D02*
X064055Y002413D01*
X064055Y002512D02*
X064300Y002512D01*
X064300Y002610D02*
X064055Y002610D01*
X064055Y002709D02*
X064300Y002709D01*
X064300Y002807D02*
X064055Y002807D01*
X064045Y002906D02*
X064300Y002906D01*
X062905Y002906D02*
X062805Y002906D01*
X062805Y002807D02*
X062905Y002807D01*
X062905Y002709D02*
X062805Y002709D01*
X062805Y002610D02*
X062905Y002610D01*
X062905Y002512D02*
X062805Y002512D01*
X062805Y002413D02*
X062905Y002413D01*
X062905Y002315D02*
X062805Y002315D01*
X062805Y002216D02*
X062905Y002216D01*
X062905Y002118D02*
X062805Y002118D01*
X062805Y002019D02*
X062905Y002019D01*
X062905Y001921D02*
X062805Y001921D01*
X062805Y001625D02*
X062905Y001625D01*
X062905Y001527D02*
X062805Y001527D01*
X062805Y001428D02*
X062905Y001428D01*
X062905Y001330D02*
X062805Y001330D01*
X062805Y001231D02*
X062905Y001231D01*
X062905Y001133D02*
X062805Y001133D01*
X062805Y001034D02*
X062905Y001034D01*
X062905Y000936D02*
X062805Y000936D01*
X062805Y000837D02*
X062905Y000837D01*
X062905Y000739D02*
X062805Y000739D01*
X062805Y000640D02*
X062905Y000640D01*
X062905Y000542D02*
X062805Y000542D01*
X061668Y000542D02*
X061411Y000542D01*
X061411Y000640D02*
X061655Y000640D01*
X061655Y000739D02*
X061411Y000739D01*
X061411Y000837D02*
X061655Y000837D01*
X061655Y000936D02*
X061411Y000936D01*
X061411Y001034D02*
X061655Y001034D01*
X061655Y001133D02*
X061411Y001133D01*
X061411Y001231D02*
X061655Y001231D01*
X061655Y001330D02*
X061411Y001330D01*
X061411Y001428D02*
X061655Y001428D01*
X061655Y001527D02*
X061411Y001527D01*
X061411Y001625D02*
X061655Y001625D01*
X064055Y001625D02*
X064300Y001625D01*
X064300Y001527D02*
X064055Y001527D01*
X064055Y001428D02*
X064300Y001428D01*
X064300Y001330D02*
X064055Y001330D01*
X064055Y001231D02*
X064300Y001231D01*
X064300Y001133D02*
X064055Y001133D01*
X064055Y001034D02*
X064300Y001034D01*
X064300Y000936D02*
X064055Y000936D01*
X064055Y000837D02*
X064300Y000837D01*
X064300Y000739D02*
X064055Y000739D01*
X064055Y000640D02*
X064300Y000640D01*
X064300Y000542D02*
X064043Y000542D01*
X064300Y000443D02*
X061411Y000443D01*
X061429Y000345D02*
X064282Y000345D01*
X061988Y003595D02*
X095206Y003595D01*
X095206Y003497D02*
X061814Y003497D01*
X062086Y003694D02*
X095206Y003694D01*
X085998Y003398D02*
X083019Y003398D01*
X083064Y003300D02*
X085954Y003300D01*
X085954Y003201D02*
X083064Y003201D01*
X083064Y003103D02*
X085954Y003103D01*
X085954Y003004D02*
X083064Y003004D01*
X083064Y002906D02*
X083319Y002906D01*
X083316Y002903D02*
X083309Y002885D01*
X083309Y001775D01*
X084459Y001775D01*
X084459Y002925D01*
X083349Y002925D01*
X083331Y002917D01*
X083316Y002903D01*
X083309Y002807D02*
X083064Y002807D01*
X083064Y002709D02*
X083309Y002709D01*
X083309Y002610D02*
X083064Y002610D01*
X083064Y002512D02*
X083309Y002512D01*
X083309Y002413D02*
X083064Y002413D01*
X083064Y002315D02*
X083309Y002315D01*
X083309Y002216D02*
X083064Y002216D01*
X083064Y002118D02*
X083309Y002118D01*
X083309Y002019D02*
X083064Y002019D01*
X083064Y001921D02*
X083309Y001921D01*
X083309Y001822D02*
X083064Y001822D01*
X083064Y001724D02*
X084459Y001724D01*
X084459Y001675D02*
X083309Y001675D01*
X083309Y000565D01*
X083316Y000546D01*
X083331Y000532D01*
X083349Y000525D01*
X084459Y000525D01*
X084459Y001675D01*
X084459Y001775D01*
X084559Y001775D01*
X084559Y002925D01*
X085669Y002925D01*
X085687Y002917D01*
X085701Y002903D01*
X085709Y002885D01*
X085709Y001775D01*
X084559Y001775D01*
X084559Y001675D01*
X085709Y001675D01*
X085709Y000565D01*
X085701Y000546D01*
X085687Y000532D01*
X085669Y000525D01*
X084559Y000525D01*
X084559Y001675D01*
X084459Y001675D01*
X084459Y001625D02*
X084559Y001625D01*
X084559Y001527D02*
X084459Y001527D01*
X084459Y001428D02*
X084559Y001428D01*
X084559Y001330D02*
X084459Y001330D01*
X084459Y001231D02*
X084559Y001231D01*
X084559Y001133D02*
X084459Y001133D01*
X084459Y001034D02*
X084559Y001034D01*
X084559Y000936D02*
X084459Y000936D01*
X084459Y000837D02*
X084559Y000837D01*
X084559Y000739D02*
X084459Y000739D01*
X084459Y000640D02*
X084559Y000640D01*
X084559Y000542D02*
X084459Y000542D01*
X083321Y000542D02*
X083064Y000542D01*
X083064Y000640D02*
X083309Y000640D01*
X083309Y000739D02*
X083064Y000739D01*
X083064Y000837D02*
X083309Y000837D01*
X083309Y000936D02*
X083064Y000936D01*
X083064Y001034D02*
X083309Y001034D01*
X083309Y001133D02*
X083064Y001133D01*
X083064Y001231D02*
X083309Y001231D01*
X083309Y001330D02*
X083064Y001330D01*
X083064Y001428D02*
X083309Y001428D01*
X083309Y001527D02*
X083064Y001527D01*
X083064Y001625D02*
X083309Y001625D01*
X084459Y001822D02*
X084559Y001822D01*
X084559Y001724D02*
X085954Y001724D01*
X085954Y001822D02*
X085709Y001822D01*
X085709Y001921D02*
X085954Y001921D01*
X085954Y002019D02*
X085709Y002019D01*
X085709Y002118D02*
X085954Y002118D01*
X085954Y002216D02*
X085709Y002216D01*
X085709Y002315D02*
X085954Y002315D01*
X085954Y002413D02*
X085709Y002413D01*
X085709Y002512D02*
X085954Y002512D01*
X085954Y002610D02*
X085709Y002610D01*
X085709Y002709D02*
X085954Y002709D01*
X085954Y002807D02*
X085709Y002807D01*
X085699Y002906D02*
X085954Y002906D01*
X084559Y002906D02*
X084459Y002906D01*
X084459Y002807D02*
X084559Y002807D01*
X084559Y002709D02*
X084459Y002709D01*
X084459Y002610D02*
X084559Y002610D01*
X084559Y002512D02*
X084459Y002512D01*
X084459Y002413D02*
X084559Y002413D01*
X084559Y002315D02*
X084459Y002315D01*
X084459Y002216D02*
X084559Y002216D01*
X084559Y002118D02*
X084459Y002118D01*
X084459Y002019D02*
X084559Y002019D01*
X084559Y001921D02*
X084459Y001921D01*
X085709Y001625D02*
X085954Y001625D01*
X085954Y001527D02*
X085709Y001527D01*
X085709Y001428D02*
X085954Y001428D01*
X085954Y001330D02*
X085709Y001330D01*
X085709Y001231D02*
X085954Y001231D01*
X085954Y001133D02*
X085709Y001133D01*
X085709Y001034D02*
X085954Y001034D01*
X085954Y000936D02*
X085709Y000936D01*
X085709Y000837D02*
X085954Y000837D01*
X085954Y000739D02*
X085709Y000739D01*
X085709Y000640D02*
X085954Y000640D01*
X085954Y000542D02*
X085696Y000542D01*
X085954Y000443D02*
X083064Y000443D01*
X083082Y000345D02*
X085936Y000345D01*
X063931Y004285D02*
X063871Y004285D01*
X063871Y004383D02*
X063931Y004383D01*
X063931Y004482D02*
X063871Y004482D01*
X063707Y004482D02*
X062874Y004482D01*
X062776Y004383D02*
X063609Y004383D01*
X063536Y004285D02*
X062677Y004285D01*
X062579Y004186D02*
X063871Y004186D01*
X063536Y004088D02*
X062480Y004088D01*
X062382Y003989D02*
X063556Y003989D01*
X061573Y004482D02*
X057952Y004482D01*
X058054Y004580D02*
X061671Y004580D01*
X061770Y004679D02*
X058152Y004679D01*
X058251Y004777D02*
X061868Y004777D01*
X061967Y004876D02*
X058349Y004876D01*
X058448Y004974D02*
X062065Y004974D01*
X062164Y005073D02*
X058546Y005073D01*
X058645Y005171D02*
X062262Y005171D01*
X062361Y005270D02*
X058743Y005270D01*
X059125Y005368D02*
X059645Y005368D01*
X059551Y005467D02*
X059219Y005467D01*
X059259Y005565D02*
X059510Y005565D01*
X059495Y005664D02*
X059275Y005664D01*
X059273Y005762D02*
X059497Y005762D01*
X059538Y005861D02*
X059232Y005861D01*
X059157Y005959D02*
X059613Y005959D01*
X060157Y005959D02*
X060613Y005959D01*
X060538Y005861D02*
X060232Y005861D01*
X060273Y005762D02*
X060497Y005762D01*
X060495Y005664D02*
X060275Y005664D01*
X060259Y005565D02*
X060510Y005565D01*
X060551Y005467D02*
X060219Y005467D01*
X060125Y005368D02*
X060645Y005368D01*
X061125Y005368D02*
X062459Y005368D01*
X062558Y005467D02*
X061219Y005467D01*
X061259Y005565D02*
X062656Y005565D01*
X062755Y005664D02*
X061275Y005664D01*
X061273Y005762D02*
X062853Y005762D01*
X062952Y005861D02*
X061232Y005861D01*
X061157Y005959D02*
X063050Y005959D01*
X057778Y006058D02*
X055991Y006058D01*
X055962Y006070D02*
X055807Y006070D01*
X055664Y006010D01*
X055554Y005901D01*
X055495Y005757D01*
X055495Y005602D01*
X055554Y005459D01*
X055664Y005349D01*
X055807Y005290D01*
X055962Y005290D01*
X056106Y005349D01*
X056215Y005459D01*
X056275Y005602D01*
X056275Y005757D01*
X056215Y005901D01*
X056106Y006010D01*
X055962Y006070D01*
X055778Y006058D02*
X054991Y006058D01*
X054962Y006070D02*
X054807Y006070D01*
X054664Y006010D01*
X054554Y005901D01*
X054495Y005757D01*
X054495Y005602D01*
X054554Y005459D01*
X054664Y005349D01*
X054807Y005290D01*
X054962Y005290D01*
X055106Y005349D01*
X055215Y005459D01*
X055275Y005602D01*
X055275Y005757D01*
X055215Y005901D01*
X055106Y006010D01*
X054962Y006070D01*
X054778Y006058D02*
X053991Y006058D01*
X053962Y006070D02*
X053807Y006070D01*
X053664Y006010D01*
X053554Y005901D01*
X053495Y005757D01*
X053495Y005602D01*
X053554Y005459D01*
X053664Y005349D01*
X053807Y005290D01*
X053962Y005290D01*
X054106Y005349D01*
X054215Y005459D01*
X054275Y005602D01*
X054275Y005757D01*
X054215Y005901D01*
X054106Y006010D01*
X053962Y006070D01*
X053778Y006058D02*
X052948Y006058D01*
X052850Y005959D02*
X053613Y005959D01*
X053538Y005861D02*
X052751Y005861D01*
X052653Y005762D02*
X053497Y005762D01*
X053495Y005664D02*
X052554Y005664D01*
X052456Y005565D02*
X053510Y005565D01*
X053551Y005467D02*
X052357Y005467D01*
X052259Y005368D02*
X053645Y005368D01*
X054125Y005368D02*
X054645Y005368D01*
X054551Y005467D02*
X054219Y005467D01*
X054259Y005565D02*
X054510Y005565D01*
X054495Y005664D02*
X054275Y005664D01*
X054273Y005762D02*
X054497Y005762D01*
X054538Y005861D02*
X054232Y005861D01*
X054157Y005959D02*
X054613Y005959D01*
X055157Y005959D02*
X055613Y005959D01*
X055538Y005861D02*
X055232Y005861D01*
X055273Y005762D02*
X055497Y005762D01*
X055495Y005664D02*
X055275Y005664D01*
X055259Y005565D02*
X055510Y005565D01*
X055551Y005467D02*
X055219Y005467D01*
X055125Y005368D02*
X055645Y005368D01*
X056125Y005368D02*
X057645Y005368D01*
X057551Y005467D02*
X057110Y005467D01*
X057126Y005482D02*
X057160Y005533D01*
X057183Y005589D01*
X057195Y005649D01*
X057195Y005650D01*
X056915Y005650D01*
X056915Y005710D01*
X056855Y005710D01*
X056855Y005990D01*
X056854Y005990D01*
X056794Y005978D01*
X056738Y005954D01*
X056687Y005920D01*
X056644Y005877D01*
X056610Y005826D01*
X056587Y005770D01*
X056575Y005710D01*
X056575Y005710D01*
X056855Y005710D01*
X056855Y005650D01*
X056575Y005650D01*
X056575Y005649D01*
X056587Y005589D01*
X056610Y005533D01*
X056644Y005482D01*
X056687Y005439D01*
X056738Y005405D01*
X056794Y005382D01*
X056854Y005370D01*
X056855Y005370D01*
X056855Y005650D01*
X056915Y005650D01*
X056915Y005370D01*
X056915Y005370D01*
X056975Y005382D01*
X057032Y005405D01*
X057082Y005439D01*
X057126Y005482D01*
X057173Y005565D02*
X057510Y005565D01*
X057495Y005664D02*
X056915Y005664D01*
X056915Y005710D02*
X057195Y005710D01*
X057183Y005770D01*
X057160Y005826D01*
X057126Y005877D01*
X057082Y005920D01*
X057032Y005954D01*
X056975Y005978D01*
X056915Y005990D01*
X056915Y005710D01*
X056915Y005762D02*
X056855Y005762D01*
X056855Y005664D02*
X056275Y005664D01*
X056273Y005762D02*
X056585Y005762D01*
X056633Y005861D02*
X056232Y005861D01*
X056157Y005959D02*
X056750Y005959D01*
X056855Y005959D02*
X056915Y005959D01*
X056915Y005990D02*
X056915Y005990D01*
X057020Y005959D02*
X057613Y005959D01*
X057538Y005861D02*
X057137Y005861D01*
X057184Y005762D02*
X057497Y005762D01*
X057195Y005710D02*
X057195Y005710D01*
X056915Y005565D02*
X056855Y005565D01*
X056855Y005467D02*
X056915Y005467D01*
X056659Y005467D02*
X056219Y005467D01*
X056259Y005565D02*
X056597Y005565D01*
X056855Y005861D02*
X056915Y005861D01*
X053002Y006649D02*
X052099Y006649D01*
X052198Y006747D02*
X053100Y006747D01*
X053199Y006846D02*
X052296Y006846D01*
X052395Y006944D02*
X053297Y006944D01*
X053396Y007043D02*
X052493Y007043D01*
X052592Y007141D02*
X053494Y007141D01*
X053593Y007240D02*
X052690Y007240D01*
X052789Y007338D02*
X053691Y007338D01*
X053790Y007437D02*
X052887Y007437D01*
X052986Y007535D02*
X053888Y007535D01*
X053987Y007634D02*
X053084Y007634D01*
X053183Y007732D02*
X054085Y007732D01*
X054184Y007831D02*
X053281Y007831D01*
X054043Y008323D02*
X054726Y008323D01*
X054591Y008422D02*
X054178Y008422D01*
X054241Y008520D02*
X054529Y008520D01*
X054495Y008619D02*
X054275Y008619D01*
X054275Y008717D02*
X054495Y008717D01*
X054519Y008816D02*
X054251Y008816D01*
X054202Y008914D02*
X054438Y008914D01*
X054779Y009111D02*
X055201Y009111D01*
X055300Y009013D02*
X055100Y009013D01*
X055202Y008914D02*
X055398Y008914D01*
X055497Y008816D02*
X055251Y008816D01*
X055275Y008717D02*
X055495Y008717D01*
X055495Y008619D02*
X055275Y008619D01*
X055241Y008520D02*
X055529Y008520D01*
X055591Y008422D02*
X055178Y008422D01*
X055043Y008323D02*
X055726Y008323D01*
X056043Y008323D02*
X056726Y008323D01*
X056591Y008422D02*
X056178Y008422D01*
X056241Y008520D02*
X056529Y008520D01*
X056495Y008619D02*
X056275Y008619D01*
X056275Y008717D02*
X056495Y008717D01*
X056457Y008816D02*
X056251Y008816D01*
X056202Y008914D02*
X056358Y008914D01*
X056260Y009013D02*
X056100Y009013D01*
X056161Y009111D02*
X055739Y009111D01*
X055640Y009210D02*
X056063Y009210D01*
X055964Y009308D02*
X055542Y009308D01*
X055443Y009407D02*
X055866Y009407D01*
X056206Y009604D02*
X056789Y009604D01*
X056887Y009505D02*
X056305Y009505D01*
X056403Y009407D02*
X056986Y009407D01*
X057084Y009308D02*
X056502Y009308D01*
X056600Y009210D02*
X057183Y009210D01*
X057281Y009111D02*
X056699Y009111D01*
X057100Y009013D02*
X057380Y009013D01*
X057478Y008914D02*
X057202Y008914D01*
X057251Y008816D02*
X057519Y008816D01*
X057495Y008717D02*
X057275Y008717D01*
X057275Y008619D02*
X057495Y008619D01*
X057529Y008520D02*
X057241Y008520D01*
X057178Y008422D02*
X057591Y008422D01*
X057726Y008323D02*
X057043Y008323D01*
X060241Y008520D02*
X060619Y008520D01*
X060581Y008619D02*
X060275Y008619D01*
X060275Y008717D02*
X060576Y008717D01*
X060606Y008816D02*
X060251Y008816D01*
X060202Y008914D02*
X060681Y008914D01*
X061195Y008710D02*
X061195Y008710D01*
X061189Y008619D02*
X065779Y008619D01*
X065611Y008520D02*
X061151Y008520D01*
X061057Y008422D02*
X065513Y008422D01*
X052903Y006550D02*
X052001Y006550D01*
X051902Y006452D02*
X052805Y006452D01*
X049995Y006058D02*
X049748Y006058D01*
X049829Y005959D02*
X049650Y005959D01*
X047999Y006846D02*
X047536Y006846D01*
X041769Y005664D02*
X041335Y005664D01*
X041438Y005565D02*
X041867Y005565D01*
X041966Y005467D02*
X041542Y005467D01*
X041646Y005368D02*
X042064Y005368D01*
X042163Y005270D02*
X041749Y005270D01*
X041853Y005171D02*
X042261Y005171D01*
X042360Y005073D02*
X041957Y005073D01*
X042060Y004974D02*
X042458Y004974D01*
X042557Y004876D02*
X042164Y004876D01*
X042268Y004777D02*
X042655Y004777D01*
X042754Y004679D02*
X042371Y004679D01*
X042475Y004580D02*
X042852Y004580D01*
X042951Y004482D02*
X042579Y004482D01*
X042691Y003398D02*
X039712Y003398D01*
X039757Y003300D02*
X042647Y003300D01*
X042647Y003201D02*
X039757Y003201D01*
X039757Y003103D02*
X042647Y003103D01*
X042647Y003004D02*
X039757Y003004D01*
X039757Y002906D02*
X040012Y002906D01*
X040009Y002903D02*
X040002Y002885D01*
X040002Y001775D01*
X041152Y001775D01*
X041152Y002925D01*
X040042Y002925D01*
X040023Y002917D01*
X040009Y002903D01*
X040002Y002807D02*
X039757Y002807D01*
X039757Y002709D02*
X040002Y002709D01*
X040002Y002610D02*
X039757Y002610D01*
X039757Y002512D02*
X040002Y002512D01*
X040002Y002413D02*
X039757Y002413D01*
X039757Y002315D02*
X040002Y002315D01*
X040002Y002216D02*
X039757Y002216D01*
X039757Y002118D02*
X040002Y002118D01*
X040002Y002019D02*
X039757Y002019D01*
X039757Y001921D02*
X040002Y001921D01*
X040002Y001822D02*
X039757Y001822D01*
X039757Y001724D02*
X041152Y001724D01*
X041152Y001675D02*
X040002Y001675D01*
X040002Y000565D01*
X040009Y000546D01*
X040023Y000532D01*
X040042Y000525D01*
X041152Y000525D01*
X041152Y001675D01*
X041252Y001675D01*
X041252Y001775D01*
X042402Y001775D01*
X042402Y002885D01*
X042394Y002903D01*
X042380Y002917D01*
X042362Y002925D01*
X041252Y002925D01*
X041252Y001775D01*
X041152Y001775D01*
X041152Y001675D01*
X041152Y001625D02*
X041252Y001625D01*
X041252Y001675D02*
X041252Y000525D01*
X042362Y000525D01*
X042380Y000532D01*
X042394Y000546D01*
X042402Y000565D01*
X042402Y001675D01*
X041252Y001675D01*
X041252Y001724D02*
X042647Y001724D01*
X042647Y001822D02*
X042402Y001822D01*
X042402Y001921D02*
X042647Y001921D01*
X042647Y002019D02*
X042402Y002019D01*
X042402Y002118D02*
X042647Y002118D01*
X042647Y002216D02*
X042402Y002216D01*
X042402Y002315D02*
X042647Y002315D01*
X042647Y002413D02*
X042402Y002413D01*
X042402Y002512D02*
X042647Y002512D01*
X042647Y002610D02*
X042402Y002610D01*
X042402Y002709D02*
X042647Y002709D01*
X042647Y002807D02*
X042402Y002807D01*
X042392Y002906D02*
X042647Y002906D01*
X041252Y002906D02*
X041152Y002906D01*
X041152Y002807D02*
X041252Y002807D01*
X041252Y002709D02*
X041152Y002709D01*
X041152Y002610D02*
X041252Y002610D01*
X041252Y002512D02*
X041152Y002512D01*
X041152Y002413D02*
X041252Y002413D01*
X041252Y002315D02*
X041152Y002315D01*
X041152Y002216D02*
X041252Y002216D01*
X041252Y002118D02*
X041152Y002118D01*
X041152Y002019D02*
X041252Y002019D01*
X041252Y001921D02*
X041152Y001921D01*
X041152Y001822D02*
X041252Y001822D01*
X042402Y001625D02*
X042647Y001625D01*
X042647Y001527D02*
X042402Y001527D01*
X042402Y001428D02*
X042647Y001428D01*
X042647Y001330D02*
X042402Y001330D01*
X042402Y001231D02*
X042647Y001231D01*
X042647Y001133D02*
X042402Y001133D01*
X042402Y001034D02*
X042647Y001034D01*
X042647Y000936D02*
X042402Y000936D01*
X042402Y000837D02*
X042647Y000837D01*
X042647Y000739D02*
X042402Y000739D01*
X042402Y000640D02*
X042647Y000640D01*
X042647Y000542D02*
X042389Y000542D01*
X042647Y000443D02*
X039757Y000443D01*
X039757Y000542D02*
X040014Y000542D01*
X040002Y000640D02*
X039757Y000640D01*
X039757Y000739D02*
X040002Y000739D01*
X040002Y000837D02*
X039757Y000837D01*
X039757Y000936D02*
X040002Y000936D01*
X040002Y001034D02*
X039757Y001034D01*
X039757Y001133D02*
X040002Y001133D01*
X040002Y001231D02*
X039757Y001231D01*
X039757Y001330D02*
X040002Y001330D01*
X040002Y001428D02*
X039757Y001428D01*
X039757Y001527D02*
X040002Y001527D01*
X040002Y001625D02*
X039757Y001625D01*
X041152Y001527D02*
X041252Y001527D01*
X041252Y001428D02*
X041152Y001428D01*
X041152Y001330D02*
X041252Y001330D01*
X041252Y001231D02*
X041152Y001231D01*
X041152Y001133D02*
X041252Y001133D01*
X041252Y001034D02*
X041152Y001034D01*
X041152Y000936D02*
X041252Y000936D01*
X041252Y000837D02*
X041152Y000837D01*
X041152Y000739D02*
X041252Y000739D01*
X041252Y000640D02*
X041152Y000640D01*
X041152Y000542D02*
X041252Y000542D01*
X042628Y000345D02*
X039775Y000345D01*
X041231Y005762D02*
X041670Y005762D01*
D27*
X039521Y008180D03*
X043621Y010580D03*
X044101Y011220D03*
X045621Y011860D03*
X054441Y010580D03*
X054941Y011220D03*
X056441Y011860D03*
X065281Y010580D03*
X065761Y011220D03*
X067281Y011860D03*
X076101Y010580D03*
X076596Y011234D03*
X078101Y011860D03*
X086921Y010580D03*
X087421Y011220D03*
X088921Y011860D03*
X034801Y011860D03*
X033281Y011220D03*
X032801Y010580D03*
X023961Y011860D03*
X022461Y011220D03*
X021961Y010580D03*
M02*
