G75*
%MOIN*%
%OFA0B0*%
%FSLAX24Y24*%
%IPPOS*%
%LPD*%
%AMOC8*
5,1,8,0,0,1.08239X$1,22.5*
%
%ADD10C,0.0020*%
%ADD11C,0.0080*%
%ADD12C,0.0040*%
%ADD13C,0.0100*%
%ADD14C,0.0030*%
%ADD15C,0.0050*%
%ADD16C,0.0060*%
D10*
X011691Y006146D02*
X011728Y006110D01*
X011802Y006110D01*
X011838Y006146D01*
X011838Y006220D01*
X011765Y006220D01*
X011838Y006293D02*
X011802Y006330D01*
X011728Y006330D01*
X011691Y006293D01*
X011691Y006146D01*
X011912Y006110D02*
X011912Y006330D01*
X012059Y006110D01*
X012059Y006330D01*
X012133Y006330D02*
X012244Y006330D01*
X012280Y006293D01*
X012280Y006146D01*
X012244Y006110D01*
X012133Y006110D01*
X012133Y006330D01*
X012170Y007070D02*
X012133Y007106D01*
X012170Y007070D02*
X012244Y007070D01*
X012280Y007106D01*
X012280Y007143D01*
X012244Y007180D01*
X012207Y007180D01*
X012244Y007180D02*
X012280Y007216D01*
X012280Y007253D01*
X012244Y007290D01*
X012170Y007290D01*
X012133Y007253D01*
X012059Y007290D02*
X012059Y007143D01*
X011986Y007070D01*
X011912Y007143D01*
X011912Y007290D01*
X011838Y007253D02*
X011838Y007216D01*
X011802Y007180D01*
X011838Y007143D01*
X011838Y007106D01*
X011802Y007070D01*
X011728Y007070D01*
X011691Y007106D01*
X011765Y007180D02*
X011802Y007180D01*
X011838Y007253D02*
X011802Y007290D01*
X011728Y007290D01*
X011691Y007253D01*
X009499Y008146D02*
X009463Y008110D01*
X009389Y008110D01*
X009352Y008146D01*
X009352Y008293D01*
X009389Y008330D01*
X009463Y008330D01*
X009499Y008293D01*
X009278Y008293D02*
X009242Y008330D01*
X009131Y008330D01*
X009131Y008110D01*
X009242Y008110D01*
X009278Y008146D01*
X009278Y008293D01*
X011691Y008336D02*
X011728Y008300D01*
X011802Y008300D01*
X011838Y008263D01*
X011838Y008226D01*
X011802Y008190D01*
X011728Y008190D01*
X011691Y008226D01*
X011691Y008336D02*
X011691Y008373D01*
X011728Y008410D01*
X011802Y008410D01*
X011838Y008373D01*
X011912Y008410D02*
X012023Y008410D01*
X012059Y008373D01*
X012059Y008226D01*
X012023Y008190D01*
X011912Y008190D01*
X011912Y008410D01*
X012133Y008336D02*
X012207Y008410D01*
X012280Y008336D01*
X012280Y008190D01*
X012280Y008300D02*
X012133Y008300D01*
X012133Y008336D02*
X012133Y008190D01*
X012023Y009150D02*
X012059Y009186D01*
X012023Y009150D02*
X011949Y009150D01*
X011912Y009186D01*
X011912Y009333D01*
X011949Y009370D01*
X012023Y009370D01*
X012059Y009333D01*
X011838Y009333D02*
X011802Y009370D01*
X011728Y009370D01*
X011691Y009333D01*
X011691Y009296D01*
X011728Y009260D01*
X011802Y009260D01*
X011838Y009223D01*
X011838Y009186D01*
X011802Y009150D01*
X011728Y009150D01*
X011691Y009186D01*
X009499Y009186D02*
X009463Y009150D01*
X009389Y009150D01*
X009352Y009186D01*
X009499Y009333D01*
X009499Y009186D01*
X009352Y009186D02*
X009352Y009333D01*
X009389Y009370D01*
X009463Y009370D01*
X009499Y009333D01*
X009278Y009333D02*
X009242Y009370D01*
X009131Y009370D01*
X009131Y009150D01*
X009242Y009150D01*
X009278Y009186D01*
X009278Y009333D01*
X009242Y010110D02*
X009278Y010146D01*
X009278Y010293D01*
X009242Y010330D01*
X009131Y010330D01*
X009131Y010110D01*
X009242Y010110D01*
X009352Y010110D02*
X009499Y010110D01*
X009426Y010110D02*
X009426Y010330D01*
X009352Y010256D01*
X011691Y010183D02*
X011802Y010183D01*
X011838Y010220D01*
X011838Y010293D01*
X011802Y010330D01*
X011691Y010330D01*
X011691Y010110D01*
X011765Y010183D02*
X011838Y010110D01*
X011912Y010146D02*
X011949Y010110D01*
X012023Y010110D01*
X012059Y010146D01*
X011912Y010146D02*
X011912Y010293D01*
X011949Y010330D01*
X012023Y010330D01*
X012059Y010293D01*
X018251Y013150D02*
X018398Y013296D01*
X018398Y013333D01*
X018362Y013370D01*
X018288Y013370D01*
X018251Y013333D01*
X018251Y013150D02*
X018398Y013150D01*
X018398Y014110D02*
X018251Y014110D01*
X018325Y014110D02*
X018325Y014330D01*
X018251Y014256D01*
X020571Y014293D02*
X020571Y014146D01*
X020608Y014110D01*
X020682Y014110D01*
X020718Y014146D01*
X020718Y014293D01*
X020682Y014330D01*
X020608Y014330D01*
X020571Y014293D01*
X020645Y014183D02*
X020718Y014110D01*
X020792Y014110D02*
X020903Y014110D01*
X020939Y014146D01*
X020939Y014183D01*
X020903Y014220D01*
X020792Y014220D01*
X020792Y014110D02*
X020792Y014330D01*
X020903Y014330D01*
X020939Y014293D01*
X020939Y014256D01*
X020903Y014220D01*
X029051Y014176D02*
X029125Y014250D01*
X029125Y014030D01*
X029198Y014030D02*
X029051Y014030D01*
X031371Y014146D02*
X031371Y014293D01*
X031408Y014330D01*
X031482Y014330D01*
X031518Y014293D01*
X031518Y014146D01*
X031482Y014110D01*
X031408Y014110D01*
X031371Y014146D01*
X031445Y014183D02*
X031518Y014110D01*
X031592Y014146D02*
X031629Y014110D01*
X031703Y014110D01*
X031739Y014146D01*
X031592Y014146D02*
X031592Y014293D01*
X031629Y014330D01*
X031703Y014330D01*
X031739Y014293D01*
X029198Y013333D02*
X029162Y013370D01*
X029088Y013370D01*
X029051Y013333D01*
X029198Y013333D02*
X029198Y013296D01*
X029051Y013150D01*
X029198Y013150D01*
X039851Y013150D02*
X039998Y013296D01*
X039998Y013333D01*
X039962Y013370D01*
X039888Y013370D01*
X039851Y013333D01*
X039851Y013150D02*
X039998Y013150D01*
X039998Y014110D02*
X039851Y014110D01*
X039925Y014110D02*
X039925Y014330D01*
X039851Y014256D01*
X042171Y014293D02*
X042171Y014146D01*
X042208Y014110D01*
X042282Y014110D01*
X042318Y014146D01*
X042318Y014293D01*
X042282Y014330D01*
X042208Y014330D01*
X042171Y014293D01*
X042245Y014183D02*
X042318Y014110D01*
X042392Y014110D02*
X042503Y014110D01*
X042539Y014146D01*
X042539Y014293D01*
X042503Y014330D01*
X042392Y014330D01*
X042392Y014110D01*
X050651Y014110D02*
X050798Y014110D01*
X050725Y014110D02*
X050725Y014330D01*
X050651Y014256D01*
X053051Y014293D02*
X053051Y014146D01*
X053088Y014110D01*
X053162Y014110D01*
X053198Y014146D01*
X053198Y014293D01*
X053162Y014330D01*
X053088Y014330D01*
X053051Y014293D01*
X053125Y014183D02*
X053198Y014110D01*
X053272Y014110D02*
X053419Y014110D01*
X053346Y014220D02*
X053272Y014220D01*
X053272Y014330D02*
X053272Y014110D01*
X053272Y014330D02*
X053419Y014330D01*
X050798Y013333D02*
X050762Y013370D01*
X050688Y013370D01*
X050651Y013333D01*
X050798Y013333D02*
X050798Y013296D01*
X050651Y013150D01*
X050798Y013150D01*
X061451Y013150D02*
X061598Y013296D01*
X061598Y013333D01*
X061562Y013370D01*
X061488Y013370D01*
X061451Y013333D01*
X061451Y013150D02*
X061598Y013150D01*
X063931Y014066D02*
X063968Y014030D01*
X064042Y014030D01*
X064078Y014066D01*
X064078Y014213D01*
X064042Y014250D01*
X063968Y014250D01*
X063931Y014213D01*
X063931Y014066D01*
X064005Y014103D02*
X064078Y014030D01*
X064152Y014030D02*
X064152Y014250D01*
X064299Y014250D01*
X064226Y014140D02*
X064152Y014140D01*
X061598Y014110D02*
X061451Y014110D01*
X061525Y014110D02*
X061525Y014330D01*
X061451Y014256D01*
X072331Y014256D02*
X072405Y014330D01*
X072405Y014110D01*
X072478Y014110D02*
X072331Y014110D01*
X074731Y014146D02*
X074768Y014110D01*
X074842Y014110D01*
X074878Y014146D01*
X074878Y014293D01*
X074842Y014330D01*
X074768Y014330D01*
X074731Y014293D01*
X074731Y014146D01*
X074805Y014183D02*
X074878Y014110D01*
X074952Y014146D02*
X074989Y014110D01*
X075063Y014110D01*
X075099Y014146D01*
X075099Y014220D01*
X075026Y014220D01*
X075099Y014293D02*
X075063Y014330D01*
X074989Y014330D01*
X074952Y014293D01*
X074952Y014146D01*
X072478Y013253D02*
X072442Y013290D01*
X072368Y013290D01*
X072331Y013253D01*
X072478Y013253D02*
X072478Y013216D01*
X072331Y013070D01*
X072478Y013070D01*
X083131Y013150D02*
X083278Y013296D01*
X083278Y013333D01*
X083242Y013370D01*
X083168Y013370D01*
X083131Y013333D01*
X083131Y013150D02*
X083278Y013150D01*
X083278Y014110D02*
X083131Y014110D01*
X083205Y014110D02*
X083205Y014330D01*
X083131Y014256D01*
X085531Y014293D02*
X085531Y014146D01*
X085568Y014110D01*
X085642Y014110D01*
X085678Y014146D01*
X085678Y014293D01*
X085642Y014330D01*
X085568Y014330D01*
X085531Y014293D01*
X085605Y014183D02*
X085678Y014110D01*
X085752Y014110D02*
X085752Y014330D01*
X085752Y014220D02*
X085899Y014220D01*
X085899Y014330D02*
X085899Y014110D01*
X094011Y014110D02*
X094158Y014110D01*
X094085Y014110D02*
X094085Y014330D01*
X094011Y014256D01*
X094048Y013290D02*
X094011Y013253D01*
X094048Y013290D02*
X094122Y013290D01*
X094158Y013253D01*
X094158Y013216D01*
X094011Y013070D01*
X094158Y013070D01*
X094491Y010330D02*
X094602Y010330D01*
X094638Y010293D01*
X094638Y010220D01*
X094602Y010183D01*
X094491Y010183D01*
X094491Y010110D02*
X094491Y010330D01*
X094565Y010183D02*
X094638Y010110D01*
X094712Y010146D02*
X094749Y010110D01*
X094823Y010110D01*
X094859Y010146D01*
X094712Y010146D02*
X094712Y010293D01*
X094749Y010330D01*
X094823Y010330D01*
X094859Y010293D01*
X092379Y010030D02*
X092232Y010030D01*
X092306Y010030D02*
X092306Y010250D01*
X092232Y010176D01*
X092158Y010213D02*
X092122Y010250D01*
X092011Y010250D01*
X092011Y010030D01*
X092122Y010030D01*
X092158Y010066D01*
X092158Y010213D01*
X092122Y009290D02*
X092011Y009290D01*
X092011Y009070D01*
X092122Y009070D01*
X092158Y009106D01*
X092158Y009253D01*
X092122Y009290D01*
X092232Y009253D02*
X092269Y009290D01*
X092343Y009290D01*
X092379Y009253D01*
X092232Y009106D01*
X092269Y009070D01*
X092343Y009070D01*
X092379Y009106D01*
X092379Y009253D01*
X092232Y009253D02*
X092232Y009106D01*
X094491Y009186D02*
X094528Y009150D01*
X094602Y009150D01*
X094638Y009186D01*
X094638Y009223D01*
X094602Y009260D01*
X094528Y009260D01*
X094491Y009296D01*
X094491Y009333D01*
X094528Y009370D01*
X094602Y009370D01*
X094638Y009333D01*
X094712Y009333D02*
X094712Y009186D01*
X094749Y009150D01*
X094823Y009150D01*
X094859Y009186D01*
X094859Y009333D02*
X094823Y009370D01*
X094749Y009370D01*
X094712Y009333D01*
X094712Y008330D02*
X094712Y008110D01*
X094859Y008110D01*
X094933Y008110D02*
X094933Y008330D01*
X095044Y008330D01*
X095080Y008293D01*
X095080Y008220D01*
X095044Y008183D01*
X094933Y008183D01*
X095007Y008183D02*
X095080Y008110D01*
X094786Y008220D02*
X094712Y008220D01*
X094638Y008183D02*
X094638Y008146D01*
X094602Y008110D01*
X094528Y008110D01*
X094491Y008146D01*
X094528Y008220D02*
X094602Y008220D01*
X094638Y008183D01*
X094638Y008293D02*
X094602Y008330D01*
X094528Y008330D01*
X094491Y008293D01*
X094491Y008256D01*
X094528Y008220D01*
X094712Y008330D02*
X094859Y008330D01*
X092379Y008293D02*
X092343Y008330D01*
X092269Y008330D01*
X092232Y008293D01*
X092232Y008146D01*
X092269Y008110D01*
X092343Y008110D01*
X092379Y008146D01*
X092158Y008146D02*
X092158Y008293D01*
X092122Y008330D01*
X092011Y008330D01*
X092011Y008110D01*
X092122Y008110D01*
X092158Y008146D01*
X094491Y007333D02*
X094528Y007370D01*
X094602Y007370D01*
X094638Y007333D01*
X094638Y007296D01*
X094602Y007260D01*
X094638Y007223D01*
X094638Y007186D01*
X094602Y007150D01*
X094528Y007150D01*
X094491Y007186D01*
X094565Y007260D02*
X094602Y007260D01*
X094712Y007223D02*
X094786Y007150D01*
X094859Y007223D01*
X094859Y007370D01*
X094933Y007333D02*
X094970Y007370D01*
X095044Y007370D01*
X095080Y007333D01*
X095080Y007296D01*
X095044Y007260D01*
X095080Y007223D01*
X095080Y007186D01*
X095044Y007150D01*
X094970Y007150D01*
X094933Y007186D01*
X095007Y007260D02*
X095044Y007260D01*
X094712Y007223D02*
X094712Y007370D01*
X094712Y006410D02*
X094859Y006190D01*
X094859Y006410D01*
X094933Y006410D02*
X095044Y006410D01*
X095080Y006373D01*
X095080Y006226D01*
X095044Y006190D01*
X094933Y006190D01*
X094933Y006410D01*
X094712Y006410D02*
X094712Y006190D01*
X094638Y006226D02*
X094638Y006300D01*
X094565Y006300D01*
X094638Y006373D02*
X094602Y006410D01*
X094528Y006410D01*
X094491Y006373D01*
X094491Y006226D01*
X094528Y006190D01*
X094602Y006190D01*
X094638Y006226D01*
X062044Y006410D02*
X061897Y006410D01*
X061823Y006410D02*
X061823Y006226D01*
X061787Y006190D01*
X061713Y006190D01*
X061676Y006226D01*
X061676Y006410D01*
X061602Y006373D02*
X061566Y006410D01*
X061492Y006410D01*
X061455Y006373D01*
X061455Y006226D01*
X061492Y006190D01*
X061566Y006190D01*
X061602Y006226D01*
X061602Y006373D01*
X061381Y006300D02*
X061234Y006300D01*
X061160Y006300D02*
X061124Y006263D01*
X061013Y006263D01*
X061013Y006190D02*
X061013Y006410D01*
X061124Y006410D01*
X061160Y006373D01*
X061160Y006300D01*
X061087Y006263D02*
X061160Y006190D01*
X060939Y006190D02*
X060792Y006190D01*
X060792Y006410D01*
X060939Y006410D01*
X060866Y006300D02*
X060792Y006300D01*
X060718Y006263D02*
X060718Y006226D01*
X060682Y006190D01*
X060608Y006190D01*
X060571Y006226D01*
X060608Y006300D02*
X060682Y006300D01*
X060718Y006263D01*
X060718Y006373D02*
X060682Y006410D01*
X060608Y006410D01*
X060571Y006373D01*
X060571Y006336D01*
X060608Y006300D01*
X060200Y006336D02*
X060164Y006300D01*
X060200Y006263D01*
X060200Y006226D01*
X060164Y006190D01*
X060090Y006190D01*
X060053Y006226D01*
X059979Y006263D02*
X059979Y006410D01*
X060053Y006373D02*
X060090Y006410D01*
X060164Y006410D01*
X060200Y006373D01*
X060200Y006336D01*
X060164Y006300D02*
X060127Y006300D01*
X059979Y006263D02*
X059906Y006190D01*
X059832Y006263D01*
X059832Y006410D01*
X059758Y006373D02*
X059758Y006336D01*
X059722Y006300D01*
X059758Y006263D01*
X059758Y006226D01*
X059722Y006190D01*
X059648Y006190D01*
X059611Y006226D01*
X059685Y006300D02*
X059722Y006300D01*
X059758Y006373D02*
X059722Y006410D01*
X059648Y006410D01*
X059611Y006373D01*
X059099Y006373D02*
X059063Y006410D01*
X058989Y006410D01*
X058952Y006373D01*
X058952Y006226D01*
X058989Y006190D01*
X059063Y006190D01*
X059099Y006226D01*
X058878Y006226D02*
X058842Y006190D01*
X058768Y006190D01*
X058731Y006226D01*
X058768Y006300D02*
X058842Y006300D01*
X058878Y006263D01*
X058878Y006226D01*
X058768Y006300D02*
X058731Y006336D01*
X058731Y006373D01*
X058768Y006410D01*
X058842Y006410D01*
X058878Y006373D01*
X058139Y006373D02*
X058103Y006410D01*
X058029Y006410D01*
X057992Y006373D01*
X057992Y006226D01*
X058029Y006190D01*
X058103Y006190D01*
X058139Y006226D01*
X057918Y006190D02*
X057845Y006263D01*
X057882Y006263D02*
X057771Y006263D01*
X057771Y006190D02*
X057771Y006410D01*
X057882Y006410D01*
X057918Y006373D01*
X057918Y006300D01*
X057882Y006263D01*
X057240Y006226D02*
X057240Y006373D01*
X057204Y006410D01*
X057093Y006410D01*
X057093Y006190D01*
X057204Y006190D01*
X057240Y006226D01*
X057019Y006190D02*
X057019Y006410D01*
X056872Y006410D02*
X057019Y006190D01*
X056872Y006190D02*
X056872Y006410D01*
X056798Y006373D02*
X056762Y006410D01*
X056688Y006410D01*
X056651Y006373D01*
X056651Y006226D01*
X056688Y006190D01*
X056762Y006190D01*
X056798Y006226D01*
X056798Y006300D01*
X056725Y006300D01*
X056200Y006300D02*
X056200Y006373D01*
X056164Y006410D01*
X056053Y006410D01*
X056053Y006190D01*
X056053Y006263D02*
X056164Y006263D01*
X056200Y006300D01*
X056127Y006263D02*
X056200Y006190D01*
X055979Y006190D02*
X055832Y006190D01*
X055832Y006410D01*
X055979Y006410D01*
X055906Y006300D02*
X055832Y006300D01*
X055758Y006263D02*
X055758Y006226D01*
X055722Y006190D01*
X055648Y006190D01*
X055611Y006226D01*
X055648Y006300D02*
X055722Y006300D01*
X055758Y006263D01*
X055758Y006373D02*
X055722Y006410D01*
X055648Y006410D01*
X055611Y006373D01*
X055611Y006336D01*
X055648Y006300D01*
X055099Y006300D02*
X054952Y006300D01*
X054952Y006336D02*
X054952Y006190D01*
X054878Y006190D02*
X054805Y006263D01*
X054878Y006226D02*
X054842Y006190D01*
X054768Y006190D01*
X054731Y006226D01*
X054731Y006373D01*
X054768Y006410D01*
X054842Y006410D01*
X054878Y006373D01*
X054878Y006226D01*
X054952Y006336D02*
X055026Y006410D01*
X055099Y006336D01*
X055099Y006190D01*
X054200Y006226D02*
X054164Y006190D01*
X054090Y006190D01*
X054053Y006226D01*
X053979Y006263D02*
X053979Y006410D01*
X054053Y006373D02*
X054090Y006410D01*
X054164Y006410D01*
X054200Y006373D01*
X054200Y006336D01*
X054164Y006300D01*
X054200Y006263D01*
X054200Y006226D01*
X054164Y006300D02*
X054127Y006300D01*
X053979Y006263D02*
X053906Y006190D01*
X053832Y006263D01*
X053832Y006410D01*
X053758Y006373D02*
X053758Y006336D01*
X053722Y006300D01*
X053758Y006263D01*
X053758Y006226D01*
X053722Y006190D01*
X053648Y006190D01*
X053611Y006226D01*
X053685Y006300D02*
X053722Y006300D01*
X053758Y006373D02*
X053722Y006410D01*
X053648Y006410D01*
X053611Y006373D01*
X050299Y006336D02*
X050299Y006190D01*
X050299Y006300D02*
X050152Y006300D01*
X050152Y006336D02*
X050152Y006190D01*
X050078Y006190D02*
X050005Y006263D01*
X050078Y006226D02*
X050042Y006190D01*
X049968Y006190D01*
X049931Y006226D01*
X049931Y006373D01*
X049968Y006410D01*
X050042Y006410D01*
X050078Y006373D01*
X050078Y006226D01*
X050152Y006336D02*
X050226Y006410D01*
X050299Y006336D01*
X049339Y006336D02*
X049303Y006300D01*
X049192Y006300D01*
X049118Y006373D02*
X049118Y006226D01*
X049082Y006190D01*
X049008Y006190D01*
X048971Y006226D01*
X048971Y006373D01*
X049008Y006410D01*
X049082Y006410D01*
X049118Y006373D01*
X049192Y006410D02*
X049303Y006410D01*
X049339Y006373D01*
X049339Y006336D01*
X049303Y006300D02*
X049339Y006263D01*
X049339Y006226D01*
X049303Y006190D01*
X049192Y006190D01*
X049192Y006410D01*
X049045Y006263D02*
X049118Y006190D01*
X048299Y006226D02*
X048263Y006190D01*
X048189Y006190D01*
X048152Y006226D01*
X048152Y006373D01*
X048189Y006410D01*
X048263Y006410D01*
X048299Y006373D01*
X048078Y006373D02*
X048078Y006226D01*
X048042Y006190D01*
X047968Y006190D01*
X047931Y006226D01*
X047931Y006373D01*
X047968Y006410D01*
X048042Y006410D01*
X048078Y006373D01*
X048005Y006263D02*
X048078Y006190D01*
X047339Y006226D02*
X047339Y006373D01*
X047303Y006410D01*
X047192Y006410D01*
X047192Y006190D01*
X047303Y006190D01*
X047339Y006226D01*
X047118Y006226D02*
X047082Y006190D01*
X047008Y006190D01*
X046971Y006226D01*
X046971Y006373D01*
X047008Y006410D01*
X047082Y006410D01*
X047118Y006373D01*
X047118Y006226D01*
X047118Y006190D02*
X047045Y006263D01*
X046299Y006190D02*
X046152Y006190D01*
X046152Y006410D01*
X046299Y006410D01*
X046226Y006300D02*
X046152Y006300D01*
X046078Y006373D02*
X046078Y006226D01*
X046042Y006190D01*
X045968Y006190D01*
X045931Y006226D01*
X045931Y006373D01*
X045968Y006410D01*
X046042Y006410D01*
X046078Y006373D01*
X046005Y006263D02*
X046078Y006190D01*
X045339Y006410D02*
X045192Y006410D01*
X045192Y006190D01*
X045118Y006190D02*
X045045Y006263D01*
X045118Y006226D02*
X045082Y006190D01*
X045008Y006190D01*
X044971Y006226D01*
X044971Y006373D01*
X045008Y006410D01*
X045082Y006410D01*
X045118Y006373D01*
X045118Y006226D01*
X045192Y006300D02*
X045266Y006300D01*
X044299Y006300D02*
X044226Y006300D01*
X044299Y006300D02*
X044299Y006226D01*
X044263Y006190D01*
X044189Y006190D01*
X044152Y006226D01*
X044152Y006373D01*
X044189Y006410D01*
X044263Y006410D01*
X044299Y006373D01*
X044078Y006373D02*
X044078Y006226D01*
X044042Y006190D01*
X043968Y006190D01*
X043931Y006226D01*
X043931Y006373D01*
X043968Y006410D01*
X044042Y006410D01*
X044078Y006373D01*
X044005Y006263D02*
X044078Y006190D01*
X043339Y006190D02*
X043339Y006410D01*
X043339Y006300D02*
X043192Y006300D01*
X043118Y006373D02*
X043118Y006226D01*
X043082Y006190D01*
X043008Y006190D01*
X042971Y006226D01*
X042971Y006373D01*
X043008Y006410D01*
X043082Y006410D01*
X043118Y006373D01*
X043192Y006410D02*
X043192Y006190D01*
X043118Y006190D02*
X043045Y006263D01*
X053691Y008066D02*
X053691Y008213D01*
X053728Y008250D01*
X053802Y008250D01*
X053838Y008213D01*
X053838Y008066D01*
X053802Y008030D01*
X053728Y008030D01*
X053691Y008066D01*
X053765Y008103D02*
X053838Y008030D01*
X053912Y008030D02*
X054023Y008030D01*
X054059Y008066D01*
X054059Y008103D01*
X054023Y008140D01*
X053912Y008140D01*
X053912Y008250D02*
X054023Y008250D01*
X054059Y008213D01*
X054059Y008176D01*
X054023Y008140D01*
X053912Y008030D02*
X053912Y008250D01*
X054731Y008213D02*
X054731Y008066D01*
X054768Y008030D01*
X054842Y008030D01*
X054878Y008066D01*
X054878Y008213D01*
X054842Y008250D01*
X054768Y008250D01*
X054731Y008213D01*
X054805Y008103D02*
X054878Y008030D01*
X054952Y008066D02*
X054989Y008030D01*
X055063Y008030D01*
X055099Y008066D01*
X054952Y008066D02*
X054952Y008213D01*
X054989Y008250D01*
X055063Y008250D01*
X055099Y008213D01*
X055691Y008213D02*
X055691Y008066D01*
X055728Y008030D01*
X055802Y008030D01*
X055838Y008066D01*
X055838Y008213D01*
X055802Y008250D01*
X055728Y008250D01*
X055691Y008213D01*
X055765Y008103D02*
X055838Y008030D01*
X055912Y008030D02*
X056023Y008030D01*
X056059Y008066D01*
X056059Y008213D01*
X056023Y008250D01*
X055912Y008250D01*
X055912Y008030D01*
X056731Y008066D02*
X056731Y008213D01*
X056768Y008250D01*
X056842Y008250D01*
X056878Y008213D01*
X056878Y008066D01*
X056842Y008030D01*
X056768Y008030D01*
X056731Y008066D01*
X056805Y008103D02*
X056878Y008030D01*
X056952Y008030D02*
X057099Y008030D01*
X057026Y008140D02*
X056952Y008140D01*
X056952Y008250D02*
X056952Y008030D01*
X056952Y008250D02*
X057099Y008250D01*
X057771Y008213D02*
X057771Y008066D01*
X057808Y008030D01*
X057882Y008030D01*
X057918Y008066D01*
X057918Y008213D01*
X057882Y008250D01*
X057808Y008250D01*
X057771Y008213D01*
X057845Y008103D02*
X057918Y008030D01*
X057992Y008030D02*
X057992Y008250D01*
X058139Y008250D01*
X058066Y008140D02*
X057992Y008140D01*
X058731Y008066D02*
X058731Y008213D01*
X058768Y008250D01*
X058842Y008250D01*
X058878Y008213D01*
X058878Y008066D01*
X058842Y008030D01*
X058768Y008030D01*
X058731Y008066D01*
X058805Y008103D02*
X058878Y008030D01*
X058952Y008066D02*
X058989Y008030D01*
X059063Y008030D01*
X059099Y008066D01*
X059099Y008140D01*
X059026Y008140D01*
X059099Y008213D02*
X059063Y008250D01*
X058989Y008250D01*
X058952Y008213D01*
X058952Y008066D01*
X059691Y008066D02*
X059691Y008213D01*
X059728Y008250D01*
X059802Y008250D01*
X059838Y008213D01*
X059838Y008066D01*
X059802Y008030D01*
X059728Y008030D01*
X059691Y008066D01*
X059765Y008103D02*
X059838Y008030D01*
X059912Y008030D02*
X059912Y008250D01*
X059912Y008140D02*
X060059Y008140D01*
X060059Y008250D02*
X060059Y008030D01*
X060651Y008066D02*
X060651Y008213D01*
X060688Y008250D01*
X060762Y008250D01*
X060798Y008213D01*
X060798Y008140D02*
X060725Y008140D01*
X060798Y008140D02*
X060798Y008066D01*
X060762Y008030D01*
X060688Y008030D01*
X060651Y008066D01*
X060872Y008030D02*
X060872Y008250D01*
X061019Y008030D01*
X061019Y008250D01*
X061093Y008250D02*
X061204Y008250D01*
X061240Y008213D01*
X061240Y008066D01*
X061204Y008030D01*
X061093Y008030D01*
X061093Y008250D01*
X061971Y006410D02*
X061971Y006190D01*
X010139Y014110D02*
X010139Y014256D01*
X010066Y014330D01*
X009992Y014256D01*
X009992Y014110D01*
X009918Y014110D02*
X009845Y014183D01*
X009918Y014146D02*
X009882Y014110D01*
X009808Y014110D01*
X009771Y014146D01*
X009771Y014293D01*
X009808Y014330D01*
X009882Y014330D01*
X009918Y014293D01*
X009918Y014146D01*
X009992Y014220D02*
X010139Y014220D01*
D11*
X018918Y016292D02*
X018920Y016342D01*
X018926Y016392D01*
X018936Y016441D01*
X018950Y016489D01*
X018967Y016536D01*
X018988Y016581D01*
X019013Y016625D01*
X019041Y016666D01*
X019073Y016705D01*
X019107Y016742D01*
X019144Y016776D01*
X019184Y016806D01*
X019226Y016833D01*
X019270Y016857D01*
X019316Y016878D01*
X019363Y016894D01*
X019411Y016907D01*
X019461Y016916D01*
X019510Y016921D01*
X019561Y016922D01*
X019611Y016919D01*
X019660Y016912D01*
X019709Y016901D01*
X019757Y016886D01*
X019803Y016868D01*
X019848Y016846D01*
X019891Y016820D01*
X019932Y016791D01*
X019971Y016759D01*
X020007Y016724D01*
X020039Y016686D01*
X020069Y016646D01*
X020096Y016603D01*
X020119Y016559D01*
X020138Y016513D01*
X020154Y016465D01*
X020166Y016416D01*
X020174Y016367D01*
X020178Y016317D01*
X020178Y016267D01*
X020174Y016217D01*
X020166Y016168D01*
X020154Y016119D01*
X020138Y016071D01*
X020119Y016025D01*
X020096Y015981D01*
X020069Y015938D01*
X020039Y015898D01*
X020007Y015860D01*
X019971Y015825D01*
X019932Y015793D01*
X019891Y015764D01*
X019848Y015738D01*
X019803Y015716D01*
X019757Y015698D01*
X019709Y015683D01*
X019660Y015672D01*
X019611Y015665D01*
X019561Y015662D01*
X019510Y015663D01*
X019461Y015668D01*
X019411Y015677D01*
X019363Y015690D01*
X019316Y015706D01*
X019270Y015727D01*
X019226Y015751D01*
X019184Y015778D01*
X019144Y015808D01*
X019107Y015842D01*
X019073Y015879D01*
X019041Y015918D01*
X019013Y015959D01*
X018988Y016003D01*
X018967Y016048D01*
X018950Y016095D01*
X018936Y016143D01*
X018926Y016192D01*
X018920Y016242D01*
X018918Y016292D01*
X040572Y016292D02*
X040574Y016342D01*
X040580Y016392D01*
X040590Y016441D01*
X040604Y016489D01*
X040621Y016536D01*
X040642Y016581D01*
X040667Y016625D01*
X040695Y016666D01*
X040727Y016705D01*
X040761Y016742D01*
X040798Y016776D01*
X040838Y016806D01*
X040880Y016833D01*
X040924Y016857D01*
X040970Y016878D01*
X041017Y016894D01*
X041065Y016907D01*
X041115Y016916D01*
X041164Y016921D01*
X041215Y016922D01*
X041265Y016919D01*
X041314Y016912D01*
X041363Y016901D01*
X041411Y016886D01*
X041457Y016868D01*
X041502Y016846D01*
X041545Y016820D01*
X041586Y016791D01*
X041625Y016759D01*
X041661Y016724D01*
X041693Y016686D01*
X041723Y016646D01*
X041750Y016603D01*
X041773Y016559D01*
X041792Y016513D01*
X041808Y016465D01*
X041820Y016416D01*
X041828Y016367D01*
X041832Y016317D01*
X041832Y016267D01*
X041828Y016217D01*
X041820Y016168D01*
X041808Y016119D01*
X041792Y016071D01*
X041773Y016025D01*
X041750Y015981D01*
X041723Y015938D01*
X041693Y015898D01*
X041661Y015860D01*
X041625Y015825D01*
X041586Y015793D01*
X041545Y015764D01*
X041502Y015738D01*
X041457Y015716D01*
X041411Y015698D01*
X041363Y015683D01*
X041314Y015672D01*
X041265Y015665D01*
X041215Y015662D01*
X041164Y015663D01*
X041115Y015668D01*
X041065Y015677D01*
X041017Y015690D01*
X040970Y015706D01*
X040924Y015727D01*
X040880Y015751D01*
X040838Y015778D01*
X040798Y015808D01*
X040761Y015842D01*
X040727Y015879D01*
X040695Y015918D01*
X040667Y015959D01*
X040642Y016003D01*
X040621Y016048D01*
X040604Y016095D01*
X040590Y016143D01*
X040580Y016192D01*
X040574Y016242D01*
X040572Y016292D01*
X062225Y016292D02*
X062227Y016342D01*
X062233Y016392D01*
X062243Y016441D01*
X062257Y016489D01*
X062274Y016536D01*
X062295Y016581D01*
X062320Y016625D01*
X062348Y016666D01*
X062380Y016705D01*
X062414Y016742D01*
X062451Y016776D01*
X062491Y016806D01*
X062533Y016833D01*
X062577Y016857D01*
X062623Y016878D01*
X062670Y016894D01*
X062718Y016907D01*
X062768Y016916D01*
X062817Y016921D01*
X062868Y016922D01*
X062918Y016919D01*
X062967Y016912D01*
X063016Y016901D01*
X063064Y016886D01*
X063110Y016868D01*
X063155Y016846D01*
X063198Y016820D01*
X063239Y016791D01*
X063278Y016759D01*
X063314Y016724D01*
X063346Y016686D01*
X063376Y016646D01*
X063403Y016603D01*
X063426Y016559D01*
X063445Y016513D01*
X063461Y016465D01*
X063473Y016416D01*
X063481Y016367D01*
X063485Y016317D01*
X063485Y016267D01*
X063481Y016217D01*
X063473Y016168D01*
X063461Y016119D01*
X063445Y016071D01*
X063426Y016025D01*
X063403Y015981D01*
X063376Y015938D01*
X063346Y015898D01*
X063314Y015860D01*
X063278Y015825D01*
X063239Y015793D01*
X063198Y015764D01*
X063155Y015738D01*
X063110Y015716D01*
X063064Y015698D01*
X063016Y015683D01*
X062967Y015672D01*
X062918Y015665D01*
X062868Y015662D01*
X062817Y015663D01*
X062768Y015668D01*
X062718Y015677D01*
X062670Y015690D01*
X062623Y015706D01*
X062577Y015727D01*
X062533Y015751D01*
X062491Y015778D01*
X062451Y015808D01*
X062414Y015842D01*
X062380Y015879D01*
X062348Y015918D01*
X062320Y015959D01*
X062295Y016003D01*
X062274Y016048D01*
X062257Y016095D01*
X062243Y016143D01*
X062233Y016192D01*
X062227Y016242D01*
X062225Y016292D01*
X083879Y016292D02*
X083881Y016342D01*
X083887Y016392D01*
X083897Y016441D01*
X083911Y016489D01*
X083928Y016536D01*
X083949Y016581D01*
X083974Y016625D01*
X084002Y016666D01*
X084034Y016705D01*
X084068Y016742D01*
X084105Y016776D01*
X084145Y016806D01*
X084187Y016833D01*
X084231Y016857D01*
X084277Y016878D01*
X084324Y016894D01*
X084372Y016907D01*
X084422Y016916D01*
X084471Y016921D01*
X084522Y016922D01*
X084572Y016919D01*
X084621Y016912D01*
X084670Y016901D01*
X084718Y016886D01*
X084764Y016868D01*
X084809Y016846D01*
X084852Y016820D01*
X084893Y016791D01*
X084932Y016759D01*
X084968Y016724D01*
X085000Y016686D01*
X085030Y016646D01*
X085057Y016603D01*
X085080Y016559D01*
X085099Y016513D01*
X085115Y016465D01*
X085127Y016416D01*
X085135Y016367D01*
X085139Y016317D01*
X085139Y016267D01*
X085135Y016217D01*
X085127Y016168D01*
X085115Y016119D01*
X085099Y016071D01*
X085080Y016025D01*
X085057Y015981D01*
X085030Y015938D01*
X085000Y015898D01*
X084968Y015860D01*
X084932Y015825D01*
X084893Y015793D01*
X084852Y015764D01*
X084809Y015738D01*
X084764Y015716D01*
X084718Y015698D01*
X084670Y015683D01*
X084621Y015672D01*
X084572Y015665D01*
X084522Y015662D01*
X084471Y015663D01*
X084422Y015668D01*
X084372Y015677D01*
X084324Y015690D01*
X084277Y015706D01*
X084231Y015727D01*
X084187Y015751D01*
X084145Y015778D01*
X084105Y015808D01*
X084068Y015842D01*
X084034Y015879D01*
X084002Y015918D01*
X083974Y015959D01*
X083949Y016003D01*
X083928Y016048D01*
X083911Y016095D01*
X083897Y016143D01*
X083887Y016192D01*
X083881Y016242D01*
X083879Y016292D01*
X050081Y008020D02*
X050081Y006580D01*
X049121Y006580D02*
X049121Y008020D01*
X048081Y008020D02*
X048081Y006580D01*
X047121Y006580D02*
X047121Y008020D01*
X046081Y008020D02*
X046081Y006580D01*
X045121Y006580D02*
X045121Y008020D01*
X044081Y008020D02*
X044081Y006580D01*
X043121Y006580D02*
X043121Y008020D01*
X040572Y001725D02*
X040574Y001775D01*
X040580Y001825D01*
X040590Y001874D01*
X040604Y001922D01*
X040621Y001969D01*
X040642Y002014D01*
X040667Y002058D01*
X040695Y002099D01*
X040727Y002138D01*
X040761Y002175D01*
X040798Y002209D01*
X040838Y002239D01*
X040880Y002266D01*
X040924Y002290D01*
X040970Y002311D01*
X041017Y002327D01*
X041065Y002340D01*
X041115Y002349D01*
X041164Y002354D01*
X041215Y002355D01*
X041265Y002352D01*
X041314Y002345D01*
X041363Y002334D01*
X041411Y002319D01*
X041457Y002301D01*
X041502Y002279D01*
X041545Y002253D01*
X041586Y002224D01*
X041625Y002192D01*
X041661Y002157D01*
X041693Y002119D01*
X041723Y002079D01*
X041750Y002036D01*
X041773Y001992D01*
X041792Y001946D01*
X041808Y001898D01*
X041820Y001849D01*
X041828Y001800D01*
X041832Y001750D01*
X041832Y001700D01*
X041828Y001650D01*
X041820Y001601D01*
X041808Y001552D01*
X041792Y001504D01*
X041773Y001458D01*
X041750Y001414D01*
X041723Y001371D01*
X041693Y001331D01*
X041661Y001293D01*
X041625Y001258D01*
X041586Y001226D01*
X041545Y001197D01*
X041502Y001171D01*
X041457Y001149D01*
X041411Y001131D01*
X041363Y001116D01*
X041314Y001105D01*
X041265Y001098D01*
X041215Y001095D01*
X041164Y001096D01*
X041115Y001101D01*
X041065Y001110D01*
X041017Y001123D01*
X040970Y001139D01*
X040924Y001160D01*
X040880Y001184D01*
X040838Y001211D01*
X040798Y001241D01*
X040761Y001275D01*
X040727Y001312D01*
X040695Y001351D01*
X040667Y001392D01*
X040642Y001436D01*
X040621Y001481D01*
X040604Y001528D01*
X040590Y001576D01*
X040580Y001625D01*
X040574Y001675D01*
X040572Y001725D01*
X018918Y001725D02*
X018920Y001775D01*
X018926Y001825D01*
X018936Y001874D01*
X018950Y001922D01*
X018967Y001969D01*
X018988Y002014D01*
X019013Y002058D01*
X019041Y002099D01*
X019073Y002138D01*
X019107Y002175D01*
X019144Y002209D01*
X019184Y002239D01*
X019226Y002266D01*
X019270Y002290D01*
X019316Y002311D01*
X019363Y002327D01*
X019411Y002340D01*
X019461Y002349D01*
X019510Y002354D01*
X019561Y002355D01*
X019611Y002352D01*
X019660Y002345D01*
X019709Y002334D01*
X019757Y002319D01*
X019803Y002301D01*
X019848Y002279D01*
X019891Y002253D01*
X019932Y002224D01*
X019971Y002192D01*
X020007Y002157D01*
X020039Y002119D01*
X020069Y002079D01*
X020096Y002036D01*
X020119Y001992D01*
X020138Y001946D01*
X020154Y001898D01*
X020166Y001849D01*
X020174Y001800D01*
X020178Y001750D01*
X020178Y001700D01*
X020174Y001650D01*
X020166Y001601D01*
X020154Y001552D01*
X020138Y001504D01*
X020119Y001458D01*
X020096Y001414D01*
X020069Y001371D01*
X020039Y001331D01*
X020007Y001293D01*
X019971Y001258D01*
X019932Y001226D01*
X019891Y001197D01*
X019848Y001171D01*
X019803Y001149D01*
X019757Y001131D01*
X019709Y001116D01*
X019660Y001105D01*
X019611Y001098D01*
X019561Y001095D01*
X019510Y001096D01*
X019461Y001101D01*
X019411Y001110D01*
X019363Y001123D01*
X019316Y001139D01*
X019270Y001160D01*
X019226Y001184D01*
X019184Y001211D01*
X019144Y001241D01*
X019107Y001275D01*
X019073Y001312D01*
X019041Y001351D01*
X019013Y001392D01*
X018988Y001436D01*
X018967Y001481D01*
X018950Y001528D01*
X018936Y001576D01*
X018926Y001625D01*
X018920Y001675D01*
X018918Y001725D01*
X062225Y001725D02*
X062227Y001775D01*
X062233Y001825D01*
X062243Y001874D01*
X062257Y001922D01*
X062274Y001969D01*
X062295Y002014D01*
X062320Y002058D01*
X062348Y002099D01*
X062380Y002138D01*
X062414Y002175D01*
X062451Y002209D01*
X062491Y002239D01*
X062533Y002266D01*
X062577Y002290D01*
X062623Y002311D01*
X062670Y002327D01*
X062718Y002340D01*
X062768Y002349D01*
X062817Y002354D01*
X062868Y002355D01*
X062918Y002352D01*
X062967Y002345D01*
X063016Y002334D01*
X063064Y002319D01*
X063110Y002301D01*
X063155Y002279D01*
X063198Y002253D01*
X063239Y002224D01*
X063278Y002192D01*
X063314Y002157D01*
X063346Y002119D01*
X063376Y002079D01*
X063403Y002036D01*
X063426Y001992D01*
X063445Y001946D01*
X063461Y001898D01*
X063473Y001849D01*
X063481Y001800D01*
X063485Y001750D01*
X063485Y001700D01*
X063481Y001650D01*
X063473Y001601D01*
X063461Y001552D01*
X063445Y001504D01*
X063426Y001458D01*
X063403Y001414D01*
X063376Y001371D01*
X063346Y001331D01*
X063314Y001293D01*
X063278Y001258D01*
X063239Y001226D01*
X063198Y001197D01*
X063155Y001171D01*
X063110Y001149D01*
X063064Y001131D01*
X063016Y001116D01*
X062967Y001105D01*
X062918Y001098D01*
X062868Y001095D01*
X062817Y001096D01*
X062768Y001101D01*
X062718Y001110D01*
X062670Y001123D01*
X062623Y001139D01*
X062577Y001160D01*
X062533Y001184D01*
X062491Y001211D01*
X062451Y001241D01*
X062414Y001275D01*
X062380Y001312D01*
X062348Y001351D01*
X062320Y001392D01*
X062295Y001436D01*
X062274Y001481D01*
X062257Y001528D01*
X062243Y001576D01*
X062233Y001625D01*
X062227Y001675D01*
X062225Y001725D01*
X083879Y001725D02*
X083881Y001775D01*
X083887Y001825D01*
X083897Y001874D01*
X083911Y001922D01*
X083928Y001969D01*
X083949Y002014D01*
X083974Y002058D01*
X084002Y002099D01*
X084034Y002138D01*
X084068Y002175D01*
X084105Y002209D01*
X084145Y002239D01*
X084187Y002266D01*
X084231Y002290D01*
X084277Y002311D01*
X084324Y002327D01*
X084372Y002340D01*
X084422Y002349D01*
X084471Y002354D01*
X084522Y002355D01*
X084572Y002352D01*
X084621Y002345D01*
X084670Y002334D01*
X084718Y002319D01*
X084764Y002301D01*
X084809Y002279D01*
X084852Y002253D01*
X084893Y002224D01*
X084932Y002192D01*
X084968Y002157D01*
X085000Y002119D01*
X085030Y002079D01*
X085057Y002036D01*
X085080Y001992D01*
X085099Y001946D01*
X085115Y001898D01*
X085127Y001849D01*
X085135Y001800D01*
X085139Y001750D01*
X085139Y001700D01*
X085135Y001650D01*
X085127Y001601D01*
X085115Y001552D01*
X085099Y001504D01*
X085080Y001458D01*
X085057Y001414D01*
X085030Y001371D01*
X085000Y001331D01*
X084968Y001293D01*
X084932Y001258D01*
X084893Y001226D01*
X084852Y001197D01*
X084809Y001171D01*
X084764Y001149D01*
X084718Y001131D01*
X084670Y001116D01*
X084621Y001105D01*
X084572Y001098D01*
X084522Y001095D01*
X084471Y001096D01*
X084422Y001101D01*
X084372Y001110D01*
X084324Y001123D01*
X084277Y001139D01*
X084231Y001160D01*
X084187Y001184D01*
X084145Y001211D01*
X084105Y001241D01*
X084068Y001275D01*
X084034Y001312D01*
X084002Y001351D01*
X083974Y001392D01*
X083949Y001436D01*
X083928Y001481D01*
X083911Y001528D01*
X083897Y001576D01*
X083887Y001625D01*
X083881Y001675D01*
X083879Y001725D01*
D12*
X080088Y003839D02*
X079781Y003532D01*
X079781Y003456D01*
X079628Y003532D02*
X079628Y003839D01*
X079551Y003916D01*
X079321Y003916D01*
X079321Y003456D01*
X079551Y003456D01*
X079628Y003532D01*
X079167Y003456D02*
X078860Y003456D01*
X078860Y003916D01*
X079167Y003916D01*
X079099Y004028D02*
X079099Y004489D01*
X079253Y004335D01*
X079406Y004489D01*
X079406Y004028D01*
X079559Y004105D02*
X079636Y004028D01*
X079790Y004028D01*
X079866Y004105D01*
X080020Y004105D02*
X080097Y004028D01*
X080250Y004028D01*
X080327Y004105D01*
X080327Y004489D01*
X080020Y004489D02*
X080020Y004105D01*
X080088Y003916D02*
X080088Y003839D01*
X080088Y003916D02*
X079781Y003916D01*
X079559Y004105D02*
X079559Y004412D01*
X079636Y004489D01*
X079790Y004489D01*
X079866Y004412D01*
X078946Y004258D02*
X078639Y004258D01*
X078485Y004412D02*
X078332Y004258D01*
X078332Y004028D01*
X078400Y003916D02*
X078400Y003456D01*
X078707Y003456D01*
X078860Y003686D02*
X079014Y003686D01*
X078246Y003532D02*
X078246Y003839D01*
X078170Y003916D01*
X078016Y003916D01*
X077940Y003839D01*
X077940Y003532D01*
X078016Y003456D01*
X078170Y003456D01*
X078246Y003532D01*
X077871Y004028D02*
X077948Y004105D01*
X077948Y004489D01*
X077871Y004489D02*
X078025Y004489D01*
X078178Y004489D02*
X078178Y004412D01*
X078332Y004258D01*
X078485Y004412D02*
X078485Y004489D01*
X077871Y004028D02*
X077795Y004028D01*
X077718Y004105D01*
X069500Y004105D02*
X069500Y004489D01*
X069193Y004489D02*
X069193Y004105D01*
X069270Y004028D01*
X069423Y004028D01*
X069500Y004105D01*
X069268Y003929D02*
X069115Y003853D01*
X068961Y003699D01*
X069191Y003699D01*
X069268Y003622D01*
X069268Y003546D01*
X069191Y003469D01*
X069038Y003469D01*
X068961Y003546D01*
X068961Y003699D01*
X068808Y003546D02*
X068731Y003469D01*
X068501Y003469D01*
X068501Y003929D01*
X068731Y003929D01*
X068808Y003853D01*
X068808Y003546D01*
X068347Y003469D02*
X068040Y003469D01*
X068040Y003929D01*
X068347Y003929D01*
X068272Y004028D02*
X068272Y004489D01*
X068426Y004335D01*
X068579Y004489D01*
X068579Y004028D01*
X068733Y004105D02*
X068809Y004028D01*
X068963Y004028D01*
X069040Y004105D01*
X068733Y004105D02*
X068733Y004412D01*
X068809Y004489D01*
X068963Y004489D01*
X069040Y004412D01*
X068119Y004258D02*
X067812Y004258D01*
X067658Y004412D02*
X067658Y004489D01*
X067658Y004412D02*
X067505Y004258D01*
X067505Y004028D01*
X067580Y003929D02*
X067580Y003469D01*
X067887Y003469D01*
X068040Y003699D02*
X068194Y003699D01*
X067426Y003546D02*
X067426Y003853D01*
X067350Y003929D01*
X067196Y003929D01*
X067120Y003853D01*
X067120Y003546D01*
X067196Y003469D01*
X067350Y003469D01*
X067426Y003546D01*
X067045Y004028D02*
X067121Y004105D01*
X067121Y004489D01*
X067045Y004489D02*
X067198Y004489D01*
X067351Y004489D02*
X067351Y004412D01*
X067505Y004258D01*
X067045Y004028D02*
X066968Y004028D01*
X066891Y004105D01*
X058673Y004105D02*
X058673Y004489D01*
X058366Y004489D02*
X058366Y004105D01*
X058443Y004028D01*
X058596Y004028D01*
X058673Y004105D01*
X058448Y003943D02*
X058141Y003943D01*
X058141Y003712D01*
X058295Y003789D01*
X058371Y003789D01*
X058448Y003712D01*
X058448Y003559D01*
X058371Y003482D01*
X058218Y003482D01*
X058141Y003559D01*
X057988Y003559D02*
X057988Y003866D01*
X057911Y003943D01*
X057681Y003943D01*
X057681Y003482D01*
X057911Y003482D01*
X057988Y003559D01*
X057527Y003482D02*
X057220Y003482D01*
X057220Y003943D01*
X057527Y003943D01*
X057445Y004028D02*
X057445Y004489D01*
X057599Y004335D01*
X057752Y004489D01*
X057752Y004028D01*
X057906Y004105D02*
X057983Y004028D01*
X058136Y004028D01*
X058213Y004105D01*
X057906Y004105D02*
X057906Y004412D01*
X057983Y004489D01*
X058136Y004489D01*
X058213Y004412D01*
X057292Y004258D02*
X056985Y004258D01*
X056832Y004412D02*
X056678Y004258D01*
X056678Y004028D01*
X056760Y003943D02*
X056760Y003482D01*
X057067Y003482D01*
X057220Y003712D02*
X057374Y003712D01*
X056606Y003559D02*
X056606Y003866D01*
X056530Y003943D01*
X056376Y003943D01*
X056300Y003866D01*
X056300Y003559D01*
X056376Y003482D01*
X056530Y003482D01*
X056606Y003559D01*
X056218Y004028D02*
X056295Y004105D01*
X056295Y004489D01*
X056371Y004489D02*
X056218Y004489D01*
X056525Y004489D02*
X056525Y004412D01*
X056678Y004258D01*
X056832Y004412D02*
X056832Y004489D01*
X056218Y004028D02*
X056141Y004028D01*
X056064Y004105D01*
X047846Y004105D02*
X047846Y004489D01*
X047540Y004489D02*
X047540Y004105D01*
X047616Y004028D01*
X047770Y004028D01*
X047846Y004105D01*
X047551Y003936D02*
X047321Y003706D01*
X047628Y003706D01*
X047551Y003936D02*
X047551Y003475D01*
X047168Y003552D02*
X047168Y003859D01*
X047091Y003936D01*
X046861Y003936D01*
X046861Y003475D01*
X047091Y003475D01*
X047168Y003552D01*
X046707Y003475D02*
X046400Y003475D01*
X046400Y003936D01*
X046707Y003936D01*
X046619Y004028D02*
X046619Y004489D01*
X046772Y004335D01*
X046926Y004489D01*
X046926Y004028D01*
X047079Y004105D02*
X047156Y004028D01*
X047309Y004028D01*
X047386Y004105D01*
X047079Y004105D02*
X047079Y004412D01*
X047156Y004489D01*
X047309Y004489D01*
X047386Y004412D01*
X046465Y004258D02*
X046158Y004258D01*
X046005Y004412D02*
X045851Y004258D01*
X045851Y004028D01*
X045940Y003936D02*
X045940Y003475D01*
X046247Y003475D01*
X046400Y003706D02*
X046554Y003706D01*
X045786Y003552D02*
X045786Y003859D01*
X045710Y003936D01*
X045556Y003936D01*
X045480Y003859D01*
X045480Y003552D01*
X045556Y003475D01*
X045710Y003475D01*
X045786Y003552D01*
X045391Y004028D02*
X045468Y004105D01*
X045468Y004489D01*
X045544Y004489D02*
X045391Y004489D01*
X045698Y004489D02*
X045698Y004412D01*
X045851Y004258D01*
X046005Y004412D02*
X046005Y004489D01*
X045391Y004028D02*
X045314Y004028D01*
X045238Y004105D01*
X037020Y004105D02*
X037020Y004489D01*
X036713Y004489D02*
X036713Y004105D01*
X036789Y004028D01*
X036943Y004028D01*
X037020Y004105D01*
X036711Y003849D02*
X036788Y003772D01*
X036788Y003696D01*
X036711Y003619D01*
X036788Y003542D01*
X036788Y003465D01*
X036711Y003389D01*
X036558Y003389D01*
X036481Y003465D01*
X036328Y003465D02*
X036328Y003772D01*
X036251Y003849D01*
X036021Y003849D01*
X036021Y003389D01*
X036251Y003389D01*
X036328Y003465D01*
X036635Y003619D02*
X036711Y003619D01*
X036711Y003849D02*
X036558Y003849D01*
X036481Y003772D01*
X035867Y003849D02*
X035560Y003849D01*
X035560Y003389D01*
X035867Y003389D01*
X035407Y003389D02*
X035100Y003389D01*
X035100Y003849D01*
X034946Y003772D02*
X034870Y003849D01*
X034716Y003849D01*
X034640Y003772D01*
X034640Y003465D01*
X034716Y003389D01*
X034870Y003389D01*
X034946Y003465D01*
X034946Y003772D01*
X035560Y003619D02*
X035714Y003619D01*
X035792Y004028D02*
X035792Y004489D01*
X035945Y004335D01*
X036099Y004489D01*
X036099Y004028D01*
X036252Y004105D02*
X036329Y004028D01*
X036483Y004028D01*
X036559Y004105D01*
X036252Y004105D02*
X036252Y004412D01*
X036329Y004489D01*
X036483Y004489D01*
X036559Y004412D01*
X035638Y004258D02*
X035332Y004258D01*
X035178Y004412D02*
X035178Y004489D01*
X035178Y004412D02*
X035025Y004258D01*
X035025Y004028D01*
X035025Y004258D02*
X034871Y004412D01*
X034871Y004489D01*
X034718Y004489D02*
X034564Y004489D01*
X034641Y004489D02*
X034641Y004105D01*
X034564Y004028D01*
X034488Y004028D01*
X034411Y004105D01*
X026193Y004105D02*
X026193Y004489D01*
X025886Y004489D02*
X025886Y004105D01*
X025963Y004028D01*
X026116Y004028D01*
X026193Y004105D01*
X025968Y003865D02*
X025891Y003942D01*
X025738Y003942D01*
X025661Y003865D01*
X025508Y003865D02*
X025431Y003942D01*
X025201Y003942D01*
X025201Y003482D01*
X025431Y003482D01*
X025508Y003559D01*
X025508Y003865D01*
X025502Y004028D02*
X025656Y004028D01*
X025733Y004105D01*
X025502Y004028D02*
X025426Y004105D01*
X025426Y004412D01*
X025502Y004489D01*
X025656Y004489D01*
X025733Y004412D01*
X025272Y004489D02*
X025272Y004028D01*
X025047Y003942D02*
X024740Y003942D01*
X024740Y003482D01*
X025047Y003482D01*
X024894Y003712D02*
X024740Y003712D01*
X024587Y003482D02*
X024280Y003482D01*
X024280Y003942D01*
X024198Y004028D02*
X024198Y004258D01*
X024351Y004412D01*
X024351Y004489D01*
X024198Y004258D02*
X024044Y004412D01*
X024044Y004489D01*
X023891Y004489D02*
X023737Y004489D01*
X023814Y004489D02*
X023814Y004105D01*
X023737Y004028D01*
X023661Y004028D01*
X023584Y004105D01*
X023820Y003865D02*
X023820Y003559D01*
X023896Y003482D01*
X024050Y003482D01*
X024126Y003559D01*
X024126Y003865D01*
X024050Y003942D01*
X023896Y003942D01*
X023820Y003865D01*
X024505Y004258D02*
X024812Y004258D01*
X024965Y004028D02*
X024965Y004489D01*
X025119Y004335D01*
X025272Y004489D01*
X025968Y003865D02*
X025968Y003789D01*
X025661Y003482D01*
X025968Y003482D01*
X015366Y004105D02*
X015366Y004489D01*
X015059Y004489D02*
X015059Y004105D01*
X015136Y004028D01*
X015289Y004028D01*
X015366Y004105D01*
X014975Y003935D02*
X014975Y003475D01*
X015128Y003475D02*
X014821Y003475D01*
X014668Y003552D02*
X014668Y003859D01*
X014591Y003935D01*
X014361Y003935D01*
X014361Y003475D01*
X014591Y003475D01*
X014668Y003552D01*
X014821Y003782D02*
X014975Y003935D01*
X014829Y004028D02*
X014906Y004105D01*
X014829Y004028D02*
X014676Y004028D01*
X014599Y004105D01*
X014599Y004412D01*
X014676Y004489D01*
X014829Y004489D01*
X014906Y004412D01*
X014445Y004489D02*
X014445Y004028D01*
X014207Y003935D02*
X013900Y003935D01*
X013900Y003475D01*
X014207Y003475D01*
X014054Y003705D02*
X013900Y003705D01*
X013747Y003475D02*
X013440Y003475D01*
X013440Y003935D01*
X013371Y004028D02*
X013371Y004258D01*
X013525Y004412D01*
X013525Y004489D01*
X013678Y004258D02*
X013985Y004258D01*
X014138Y004028D02*
X014138Y004489D01*
X014292Y004335D01*
X014445Y004489D01*
X013371Y004258D02*
X013218Y004412D01*
X013218Y004489D01*
X013064Y004489D02*
X012911Y004489D01*
X012987Y004489D02*
X012987Y004105D01*
X012911Y004028D01*
X012834Y004028D01*
X012757Y004105D01*
X012980Y003859D02*
X012980Y003552D01*
X013056Y003475D01*
X013210Y003475D01*
X013286Y003552D01*
X013286Y003859D01*
X013210Y003935D01*
X013056Y003935D01*
X012980Y003859D01*
X045141Y009320D02*
X045372Y009320D01*
X045448Y009396D01*
X045448Y009703D01*
X045372Y009780D01*
X045141Y009780D01*
X045141Y009320D01*
X045602Y009320D02*
X045755Y009320D01*
X045679Y009320D02*
X045679Y009780D01*
X045755Y009780D02*
X045602Y009780D01*
X045909Y009703D02*
X045909Y009627D01*
X045986Y009550D01*
X046139Y009550D01*
X046216Y009473D01*
X046216Y009396D01*
X046139Y009320D01*
X045986Y009320D01*
X045909Y009396D01*
X045909Y009703D02*
X045986Y009780D01*
X046139Y009780D01*
X046216Y009703D01*
X046369Y009780D02*
X046599Y009780D01*
X046676Y009703D01*
X046676Y009550D01*
X046599Y009473D01*
X046369Y009473D01*
X046369Y009320D02*
X046369Y009780D01*
X047290Y009780D02*
X047520Y009780D01*
X047597Y009703D01*
X047597Y009550D01*
X047520Y009473D01*
X047290Y009473D01*
X047290Y009320D02*
X047290Y009780D01*
X047750Y009627D02*
X047904Y009780D01*
X047904Y009320D01*
X048057Y009320D02*
X047750Y009320D01*
X047597Y009320D02*
X047443Y009473D01*
X047137Y009243D02*
X046830Y009243D01*
X056021Y009240D02*
X056252Y009240D01*
X056328Y009316D01*
X056328Y009623D01*
X056252Y009700D01*
X056021Y009700D01*
X056021Y009240D01*
X056482Y009240D02*
X056635Y009240D01*
X056559Y009240D02*
X056559Y009700D01*
X056635Y009700D02*
X056482Y009700D01*
X056789Y009623D02*
X056789Y009547D01*
X056866Y009470D01*
X057019Y009470D01*
X057096Y009393D01*
X057096Y009316D01*
X057019Y009240D01*
X056866Y009240D01*
X056789Y009316D01*
X057249Y009240D02*
X057249Y009700D01*
X057479Y009700D01*
X057556Y009623D01*
X057556Y009470D01*
X057479Y009393D01*
X057249Y009393D01*
X057096Y009623D02*
X057019Y009700D01*
X056866Y009700D01*
X056789Y009623D01*
X058170Y009700D02*
X058323Y009700D01*
X058247Y009700D02*
X058247Y009240D01*
X058323Y009240D02*
X058170Y009240D01*
X058017Y009163D02*
X057710Y009163D01*
X058477Y009316D02*
X058554Y009240D01*
X058707Y009240D01*
X058784Y009316D01*
X058937Y009240D02*
X059244Y009240D01*
X059091Y009240D02*
X059091Y009700D01*
X058937Y009547D01*
X058784Y009623D02*
X058707Y009700D01*
X058554Y009700D01*
X058477Y009623D01*
X058477Y009316D01*
X088545Y004105D02*
X088621Y004028D01*
X088698Y004028D01*
X088775Y004105D01*
X088775Y004489D01*
X088698Y004489D02*
X088852Y004489D01*
X089005Y004489D02*
X089005Y004412D01*
X089158Y004258D01*
X089158Y004028D01*
X089260Y003923D02*
X089260Y003462D01*
X089567Y003462D01*
X089720Y003462D02*
X090027Y003462D01*
X090181Y003462D02*
X090411Y003462D01*
X090488Y003539D01*
X090488Y003846D01*
X090411Y003923D01*
X090181Y003923D01*
X090181Y003462D01*
X089874Y003693D02*
X089720Y003693D01*
X089720Y003923D02*
X089720Y003462D01*
X089106Y003539D02*
X089106Y003846D01*
X089030Y003923D01*
X088876Y003923D01*
X088800Y003846D01*
X088800Y003539D01*
X088876Y003462D01*
X089030Y003462D01*
X089106Y003539D01*
X090641Y003539D02*
X090641Y003616D01*
X090718Y003693D01*
X090871Y003693D01*
X090948Y003616D01*
X090948Y003539D01*
X090871Y003462D01*
X090718Y003462D01*
X090641Y003539D01*
X090718Y003693D02*
X090641Y003769D01*
X090641Y003846D01*
X090718Y003923D01*
X090871Y003923D01*
X090948Y003846D01*
X090948Y003769D01*
X090871Y003693D01*
X090027Y003923D02*
X089720Y003923D01*
X089926Y004028D02*
X089926Y004489D01*
X090079Y004335D01*
X090233Y004489D01*
X090233Y004028D01*
X090386Y004105D02*
X090463Y004028D01*
X090616Y004028D01*
X090693Y004105D01*
X090847Y004105D02*
X090923Y004028D01*
X091077Y004028D01*
X091154Y004105D01*
X091154Y004489D01*
X090847Y004489D02*
X090847Y004105D01*
X090386Y004105D02*
X090386Y004412D01*
X090463Y004489D01*
X090616Y004489D01*
X090693Y004412D01*
X089772Y004258D02*
X089465Y004258D01*
X089312Y004412D02*
X089158Y004258D01*
X089312Y004412D02*
X089312Y004489D01*
D13*
X052721Y004420D02*
X052721Y013220D01*
D14*
X034520Y006823D02*
X034458Y006885D01*
X034273Y006885D01*
X034273Y006515D01*
X034458Y006515D01*
X034520Y006576D01*
X034520Y006823D01*
X034152Y006885D02*
X034152Y006515D01*
X033905Y006885D01*
X033905Y006515D01*
X033783Y006576D02*
X033783Y006700D01*
X033660Y006700D01*
X033783Y006823D02*
X033722Y006885D01*
X033598Y006885D01*
X033536Y006823D01*
X033536Y006576D01*
X033598Y006515D01*
X033722Y006515D01*
X033783Y006576D01*
X033192Y006576D02*
X033192Y006823D01*
X032945Y006576D01*
X033007Y006515D01*
X033130Y006515D01*
X033192Y006576D01*
X032945Y006576D02*
X032945Y006823D01*
X033007Y006885D01*
X033130Y006885D01*
X033192Y006823D01*
X032823Y006885D02*
X032823Y006638D01*
X032700Y006515D01*
X032576Y006638D01*
X032576Y006885D01*
X032232Y006885D02*
X032232Y006515D01*
X032108Y006638D01*
X031985Y006515D01*
X031985Y006885D01*
X031863Y006823D02*
X031802Y006885D01*
X031616Y006885D01*
X031616Y006515D01*
X031616Y006638D02*
X031802Y006638D01*
X031863Y006700D01*
X031863Y006823D01*
X031740Y006638D02*
X031863Y006515D01*
X031192Y006576D02*
X031192Y006823D01*
X030945Y006576D01*
X031007Y006515D01*
X031130Y006515D01*
X031192Y006576D01*
X030945Y006576D02*
X030945Y006823D01*
X031007Y006885D01*
X031130Y006885D01*
X031192Y006823D01*
X030823Y006823D02*
X030762Y006885D01*
X030576Y006885D01*
X030576Y006515D01*
X030762Y006515D01*
X030823Y006576D01*
X030823Y006823D01*
X030232Y006823D02*
X030170Y006885D01*
X030047Y006885D01*
X029985Y006823D01*
X029863Y006823D02*
X029802Y006885D01*
X029616Y006885D01*
X029616Y006515D01*
X029802Y006515D01*
X029863Y006576D01*
X029863Y006823D01*
X029985Y006515D02*
X030232Y006761D01*
X030232Y006823D01*
X030232Y006515D02*
X029985Y006515D01*
X029112Y006700D02*
X028865Y006700D01*
X029050Y006885D01*
X029050Y006515D01*
X028743Y006576D02*
X028743Y006823D01*
X028682Y006885D01*
X028496Y006885D01*
X028496Y006515D01*
X028682Y006515D01*
X028743Y006576D01*
X028152Y006576D02*
X028152Y006638D01*
X028090Y006700D01*
X027905Y006700D01*
X027905Y006576D01*
X027967Y006515D01*
X028090Y006515D01*
X028152Y006576D01*
X028028Y006823D02*
X027905Y006700D01*
X027783Y006823D02*
X027722Y006885D01*
X027536Y006885D01*
X027536Y006515D01*
X027722Y006515D01*
X027783Y006576D01*
X027783Y006823D01*
X028028Y006823D02*
X028152Y006885D01*
X027160Y006700D02*
X027160Y006515D01*
X027037Y006515D02*
X027037Y006700D01*
X027098Y006761D01*
X027160Y006700D01*
X027037Y006700D02*
X026975Y006761D01*
X026913Y006761D01*
X026913Y006515D01*
X026792Y006515D02*
X026792Y006761D01*
X026792Y006515D02*
X026607Y006515D01*
X026545Y006576D01*
X026545Y006761D01*
X026423Y006515D02*
X026176Y006515D01*
X026176Y006885D01*
X034367Y005205D02*
X034367Y004835D01*
X034613Y004835D01*
X034735Y004896D02*
X034797Y004835D01*
X034920Y004835D01*
X034982Y004896D01*
X035103Y004835D02*
X035288Y004835D01*
X035350Y004896D01*
X035350Y005143D01*
X035288Y005205D01*
X035103Y005205D01*
X035103Y004835D01*
X034735Y004896D02*
X034735Y005143D01*
X034797Y005205D01*
X034920Y005205D01*
X034982Y005143D01*
X035472Y005020D02*
X035718Y005020D01*
X035840Y004958D02*
X035963Y004835D01*
X036087Y004958D01*
X036087Y005205D01*
X036208Y005205D02*
X036393Y005205D01*
X036455Y005143D01*
X036455Y004896D01*
X036393Y004835D01*
X036208Y004835D01*
X036208Y005205D01*
X035840Y005205D02*
X035840Y004958D01*
X033192Y004503D02*
X033130Y004565D01*
X033007Y004565D01*
X032945Y004503D01*
X032945Y004441D01*
X033007Y004380D01*
X033130Y004380D01*
X033192Y004318D01*
X033192Y004256D01*
X033130Y004195D01*
X033007Y004195D01*
X032945Y004256D01*
X032823Y004195D02*
X032700Y004318D01*
X032762Y004318D02*
X032576Y004318D01*
X032576Y004195D02*
X032576Y004565D01*
X032762Y004565D01*
X032823Y004503D01*
X032823Y004380D01*
X032762Y004318D01*
X032023Y004195D02*
X031776Y004195D01*
X031776Y004565D01*
X032023Y004565D01*
X031900Y004380D02*
X031776Y004380D01*
X031192Y004195D02*
X030945Y004195D01*
X031068Y004195D02*
X031068Y004565D01*
X030945Y004441D01*
X030823Y004503D02*
X030762Y004565D01*
X030576Y004565D01*
X030576Y004195D01*
X030762Y004195D01*
X030823Y004256D01*
X030823Y004503D01*
X030232Y004503D02*
X030170Y004565D01*
X030047Y004565D01*
X029985Y004503D01*
X029863Y004503D02*
X029802Y004565D01*
X029616Y004565D01*
X029616Y004195D01*
X029802Y004195D01*
X029863Y004256D01*
X029863Y004503D01*
X030108Y004380D02*
X030170Y004380D01*
X030232Y004318D01*
X030232Y004256D01*
X030170Y004195D01*
X030047Y004195D01*
X029985Y004256D01*
X030170Y004380D02*
X030232Y004441D01*
X030232Y004503D01*
X029192Y004565D02*
X028945Y004565D01*
X028945Y004380D01*
X029068Y004441D01*
X029130Y004441D01*
X029192Y004380D01*
X029192Y004256D01*
X029130Y004195D01*
X029007Y004195D01*
X028945Y004256D01*
X028823Y004256D02*
X028823Y004503D01*
X028762Y004565D01*
X028576Y004565D01*
X028576Y004195D01*
X028762Y004195D01*
X028823Y004256D01*
X028152Y004503D02*
X027905Y004256D01*
X027905Y004195D01*
X027783Y004256D02*
X027783Y004503D01*
X027722Y004565D01*
X027536Y004565D01*
X027536Y004195D01*
X027722Y004195D01*
X027783Y004256D01*
X028152Y004503D02*
X028152Y004565D01*
X027905Y004565D01*
X027192Y004565D02*
X027192Y004318D01*
X027068Y004195D01*
X026945Y004318D01*
X026945Y004565D01*
X026823Y004565D02*
X026576Y004565D01*
X026576Y004380D01*
X026700Y004441D01*
X026762Y004441D01*
X026823Y004380D01*
X026823Y004256D01*
X026762Y004195D01*
X026638Y004195D01*
X026576Y004256D01*
D15*
X008721Y003300D02*
X008721Y005268D01*
X011477Y004638D01*
X011477Y005268D01*
X011473Y005268D02*
X008721Y005268D01*
X008718Y005268D01*
X008721Y005268D02*
X008721Y007217D01*
X008721Y012217D01*
X008721Y014717D01*
X019548Y014717D01*
X030375Y014717D01*
X041202Y014717D01*
X052029Y014717D01*
X062855Y014717D01*
X073682Y014717D01*
X084509Y014717D01*
X095336Y014717D01*
X095336Y012217D01*
X095336Y005268D01*
X092580Y005268D01*
X092580Y004638D01*
X095336Y005229D01*
X095336Y003300D01*
X092580Y003300D02*
X087265Y003300D01*
X087265Y004638D01*
X084509Y005268D01*
X084505Y005268D01*
X084509Y005268D02*
X087261Y005268D01*
X087265Y005268D02*
X087265Y004638D01*
X084509Y005229D02*
X081753Y004638D01*
X081753Y003300D01*
X076438Y003300D01*
X076438Y004638D01*
X073682Y005268D01*
X073678Y005268D01*
X073682Y005268D02*
X076434Y005268D01*
X076438Y005268D02*
X076438Y004638D01*
X073682Y005229D02*
X070926Y004638D01*
X070926Y003300D01*
X065611Y003300D01*
X065611Y004638D01*
X062855Y005268D01*
X062851Y005268D01*
X062855Y005268D02*
X065607Y005268D01*
X065611Y005268D02*
X065611Y004638D01*
X062855Y005229D02*
X060099Y004638D01*
X060099Y003300D01*
X054784Y003300D01*
X054784Y004638D01*
X052029Y005268D01*
X052025Y005268D01*
X052029Y005268D02*
X054781Y005268D01*
X054784Y005268D02*
X054784Y004638D01*
X052029Y005229D02*
X049273Y004638D01*
X049273Y003300D01*
X043958Y003300D01*
X043958Y004638D01*
X041202Y005268D01*
X041198Y005268D01*
X041202Y005268D02*
X043954Y005268D01*
X043958Y005268D02*
X043958Y004638D01*
X041202Y005229D02*
X038446Y004638D01*
X038446Y003300D01*
X033131Y003300D01*
X033131Y004638D01*
X030375Y005268D01*
X030371Y005268D01*
X030375Y005268D02*
X033127Y005268D01*
X033131Y005268D02*
X033131Y004638D01*
X030375Y005229D02*
X027619Y004638D01*
X027619Y003300D01*
X022304Y003300D01*
X022304Y004638D01*
X019548Y005268D01*
X019544Y005268D01*
X019548Y005268D02*
X022300Y005268D01*
X022304Y005268D02*
X022304Y004638D01*
X019548Y005229D02*
X016792Y004638D01*
X016792Y003300D01*
X011477Y003300D01*
X011477Y004638D01*
X016792Y004638D02*
X016792Y005268D01*
X019548Y005268D01*
X019548Y007217D01*
X019548Y012217D01*
X019548Y014717D01*
X019548Y012217D01*
X019548Y005268D01*
X019548Y003300D01*
X019548Y005229D01*
X019548Y005268D01*
X027619Y005268D02*
X027619Y004638D01*
X030375Y005229D02*
X030375Y003300D01*
X030375Y005268D01*
X030375Y007217D01*
X030375Y012217D01*
X030375Y014717D01*
X030375Y012217D01*
X030375Y005268D01*
X027619Y005268D01*
X030375Y005268D02*
X030375Y005229D01*
X038446Y005268D02*
X038446Y004638D01*
X041202Y005229D02*
X041202Y003300D01*
X041202Y005268D01*
X041202Y007217D01*
X041202Y012217D01*
X041202Y014717D01*
X041202Y012217D01*
X041202Y005268D01*
X038446Y005268D01*
X041202Y005268D02*
X041202Y005229D01*
X049273Y005268D02*
X049273Y004638D01*
X052029Y005229D02*
X052029Y003300D01*
X052029Y005268D01*
X052029Y007217D01*
X052029Y012217D01*
X052029Y014717D01*
X052029Y012217D01*
X052029Y005268D01*
X049273Y005268D01*
X052029Y005268D02*
X052029Y005229D01*
X060099Y005268D02*
X060099Y004638D01*
X062855Y005229D02*
X062855Y003300D01*
X062855Y005268D01*
X062855Y007217D01*
X062855Y012217D01*
X062855Y014717D01*
X062855Y012217D01*
X062855Y005268D01*
X060099Y005268D01*
X062855Y005268D02*
X062855Y005229D01*
X070926Y005268D02*
X070926Y004638D01*
X073682Y005229D02*
X073682Y003300D01*
X073682Y005268D01*
X073682Y007217D01*
X073682Y012217D01*
X073682Y014717D01*
X073682Y012217D01*
X073682Y005268D01*
X070926Y005268D01*
X073682Y005268D02*
X073682Y005229D01*
X081753Y005268D02*
X081753Y004638D01*
X084509Y005229D02*
X084509Y003300D01*
X084509Y005268D01*
X084509Y007217D01*
X084509Y012217D01*
X084509Y014717D01*
X084509Y012217D01*
X084509Y005268D01*
X081753Y005268D01*
X084509Y005268D02*
X084509Y005229D01*
X092580Y004638D02*
X092580Y003300D01*
X095336Y005229D02*
X095336Y005268D01*
D16*
X085909Y003125D02*
X083109Y003125D01*
X083109Y000325D01*
X085909Y000325D01*
X085909Y003125D01*
X064255Y003125D02*
X064255Y000325D01*
X061455Y000325D01*
X061455Y003125D01*
X064255Y003125D01*
X042602Y003125D02*
X042602Y000325D01*
X039802Y000325D01*
X039802Y003125D01*
X042602Y003125D01*
X020948Y003125D02*
X020948Y000325D01*
X018148Y000325D01*
X018148Y003125D01*
X020948Y003125D01*
X020948Y014892D02*
X018148Y014892D01*
X018148Y017692D01*
X020948Y017692D01*
X020948Y014892D01*
X039802Y014892D02*
X039802Y017692D01*
X042602Y017692D01*
X042602Y014892D01*
X039802Y014892D01*
X061455Y014892D02*
X061455Y017692D01*
X064255Y017692D01*
X064255Y014892D01*
X061455Y014892D01*
X083109Y014892D02*
X083109Y017692D01*
X085909Y017692D01*
X085909Y014892D01*
X083109Y014892D01*
M02*
