%
M48
M72
T01C0.0130
T02C0.0236
T03C0.0320
T04C0.0354
T05C0.0360
T06C0.0394
T07C0.1181
%
T01
X39521Y8180
X43621Y10580
X44101Y11220
X45621Y11860
X54441Y10580
X54941Y11220
X56441Y11860
X65281Y10580
X65761Y11220
X67281Y11860
X76101Y10580
X76596Y11234
X78101Y11860
X86921Y10580
X87421Y11220
X88921Y11860
X34801Y11860
X33281Y11220
X32801Y10580
X23961Y11860
X22461Y11220
X21961Y10580
T02
X18701Y9340
X18701Y13720
T03
X43101Y8680
X44101Y8680
X45101Y8680
X46101Y8680
X47101Y8680
X48101Y8680
X49101Y8680
X50101Y8680
X53885Y8680
X54885Y8680
X55885Y8680
X56885Y8680
X57885Y8680
X58885Y8680
X59885Y8680
X60885Y8680
X60885Y5680
X59885Y5680
X58885Y5680
X57885Y5680
X56885Y5680
X55885Y5680
X54885Y5680
X53885Y5680
X50101Y5680
X49101Y5680
X48101Y5680
X47101Y5680
X46101Y5680
X45101Y5680
X44101Y5680
X43101Y5680
X61901Y4160
X63901Y4160
X72681Y4180
X74681Y4180
X85441Y8220
X90461Y10220
X90461Y11220
X85441Y11220
T04
X52721Y13700
X52721Y3940
X53921Y3940
X59921Y3940
T05
X33861Y5020
X32861Y5020
X31861Y5020
X30861Y5020
X29861Y5020
X28861Y5020
X27861Y5020
X26861Y5020
X26861Y6020
X27861Y6020
X28861Y6020
X29861Y6020
X30861Y6020
X31861Y6020
X32861Y6020
X33861Y6020
X11021Y6200
X10021Y6200
X10021Y7200
X11021Y7200
X11021Y8200
X10021Y8200
X10021Y9200
X11021Y9200
X11021Y10200
X10021Y10200
X92961Y10220
X93961Y10220
X93961Y9220
X92961Y9220
X92961Y8220
X93961Y8220
X93961Y7220
X92961Y7220
X92961Y6220
X93961Y6220
T06
X93422Y13217
X92422Y13217
X91422Y13217
X90422Y13217
X89422Y13217
X88422Y13217
X87422Y13217
X86422Y13217
X82596Y13217
X81596Y13217
X80596Y13217
X79596Y13217
X78596Y13217
X77596Y13217
X76596Y13217
X75596Y13217
X71769Y13217
X70769Y13217
X69769Y13217
X68769Y13217
X67769Y13217
X66769Y13217
X65769Y13217
X64769Y13217
X60942Y13217
X59942Y13217
X58942Y13217
X57942Y13217
X56942Y13217
X55942Y13217
X54942Y13217
X53942Y13217
X50115Y13217
X49115Y13217
X48115Y13217
X47115Y13217
X46115Y13217
X45115Y13217
X44115Y13217
X43115Y13217
X39288Y13217
X38288Y13217
X37288Y13217
X36288Y13217
X35288Y13217
X34288Y13217
X33288Y13217
X32288Y13217
X28462Y13217
X27462Y13217
X26462Y13217
X25462Y13217
X24462Y13217
X23462Y13217
X22462Y13217
X21462Y13217
X17635Y13217
X16635Y13217
X15635Y13217
X14635Y13217
X13635Y13217
X12635Y13217
X11635Y13217
X10635Y13217
X10635Y14217
X11635Y14217
X12635Y14217
X13635Y14217
X14635Y14217
X15635Y14217
X16635Y14217
X17635Y14217
X21462Y14217
X22462Y14217
X23462Y14217
X24462Y14217
X25462Y14217
X26462Y14217
X27462Y14217
X28462Y14217
X32288Y14217
X33288Y14217
X34288Y14217
X35288Y14217
X36288Y14217
X37288Y14217
X38288Y14217
X39288Y14217
X43115Y14217
X44115Y14217
X45115Y14217
X46115Y14217
X47115Y14217
X48115Y14217
X49115Y14217
X50115Y14217
X53942Y14217
X54942Y14217
X55942Y14217
X56942Y14217
X57942Y14217
X58942Y14217
X59942Y14217
X60942Y14217
X64769Y14217
X65769Y14217
X66769Y14217
X67769Y14217
X68769Y14217
X69769Y14217
X70769Y14217
X71769Y14217
X75596Y14217
X76596Y14217
X77596Y14217
X78596Y14217
X79596Y14217
X80596Y14217
X81596Y14217
X82596Y14217
X86422Y14217
X87422Y14217
X88422Y14217
X89422Y14217
X90422Y14217
X91422Y14217
X92422Y14217
X93422Y14217
T07
X19548Y1725
X41202Y1725
X62855Y1725
X84509Y1725
X84509Y16292
X62855Y16292
X41202Y16292
X19548Y16292
M30
