%
M48
M72
T01C0.0130
T02C0.0360
T03C0.0400
T04C0.1063
%
T01
X6415Y9775
X8255Y10415
X10575Y10735
X12895Y11295
X14175Y11615
X14735Y12255
X9215Y13135
X7615Y12255
X5375Y12895
X1695Y10255
T02
X2910Y9988
X3910Y9988
X3910Y8988
X2910Y8988
X2910Y7988
X3910Y7988
X3910Y6988
X2910Y6988
X2910Y5988
X3910Y5988
X3910Y4988
X2910Y4988
X2910Y3988
X3910Y3988
X3910Y10988
X2910Y10988
T03
X3559Y13797
X4559Y13797
X5559Y13797
X6559Y13797
X7559Y13797
X8559Y13797
X9559Y13797
X10559Y13797
X11559Y13797
X12559Y13797
X13559Y13797
X14559Y13797
X15559Y13797
X16559Y13797
X17559Y13797
X18559Y13797
T04
X1399Y1399
X1399Y13604
X30927Y13604
M30
