G75*
G70*
%OFA0B0*%
%FSLAX24Y24*%
%IPPOS*%
%LPD*%
%AMOC8*
5,1,8,0,0,1.08239X$1,22.5*
%
%ADD10C,0.0780*%
%ADD11OC8,0.0640*%
%ADD12C,0.1655*%
%ADD13C,0.0080*%
%ADD14C,0.0040*%
%ADD15C,0.0370*%
D10*
X003559Y013797D03*
X004559Y013797D03*
X005559Y013797D03*
X006559Y013797D03*
X007559Y013797D03*
X008559Y013797D03*
X009559Y013797D03*
X010559Y013797D03*
X011559Y013797D03*
X012559Y013797D03*
X013559Y013797D03*
X014559Y013797D03*
X015559Y013797D03*
X016559Y013797D03*
X017559Y013797D03*
X018559Y013797D03*
D11*
X003910Y010988D03*
X002910Y010988D03*
X002910Y009988D03*
X003910Y009988D03*
X003910Y008988D03*
X002910Y008988D03*
X002910Y007988D03*
X003910Y007988D03*
X003910Y006988D03*
X002910Y006988D03*
X002910Y005988D03*
X003910Y005988D03*
X003910Y004988D03*
X002910Y004988D03*
X002910Y003988D03*
X003910Y003988D03*
D12*
X001399Y001399D03*
X001399Y013604D03*
X030927Y013604D03*
D13*
X028284Y011105D02*
X028284Y011035D01*
X028284Y010895D02*
X028284Y010615D01*
X028354Y010615D02*
X028214Y010615D01*
X028047Y010685D02*
X027977Y010615D01*
X027767Y010615D01*
X027767Y010545D02*
X027767Y010895D01*
X027977Y010895D01*
X028047Y010825D01*
X028047Y010685D01*
X027837Y010475D02*
X027767Y010545D01*
X027837Y010475D02*
X027907Y010475D01*
X027586Y010615D02*
X027586Y010895D01*
X027376Y010895D01*
X027306Y010825D01*
X027306Y010615D01*
X027126Y010685D02*
X027126Y010825D01*
X027056Y010895D01*
X026916Y010895D01*
X026846Y010825D01*
X026846Y010755D01*
X027126Y010755D01*
X027126Y010685D02*
X027056Y010615D01*
X026916Y010615D01*
X026666Y010685D02*
X026666Y010825D01*
X026596Y010895D01*
X026385Y010895D01*
X026385Y011035D02*
X026385Y010615D01*
X026596Y010615D01*
X026666Y010685D01*
X025745Y010615D02*
X025535Y010615D01*
X025465Y010685D01*
X025465Y010825D01*
X025535Y010895D01*
X025745Y010895D01*
X025745Y011035D02*
X025745Y010615D01*
X025285Y010685D02*
X025214Y010615D01*
X025004Y010615D01*
X025004Y010545D02*
X025074Y010475D01*
X025144Y010475D01*
X025004Y010545D02*
X025004Y010895D01*
X025285Y010895D02*
X025285Y010685D01*
X024364Y010755D02*
X024224Y010615D01*
X024083Y010755D01*
X024083Y011035D01*
X023903Y011035D02*
X023903Y010615D01*
X023623Y010615D01*
X023443Y010615D02*
X023443Y011035D01*
X023233Y011035D01*
X023163Y010965D01*
X023163Y010825D01*
X023233Y010755D01*
X023443Y010755D01*
X023303Y010755D02*
X023163Y010615D01*
X022983Y010615D02*
X022842Y010615D01*
X022912Y010615D02*
X022912Y011035D01*
X022983Y011035D01*
X022606Y010895D02*
X022465Y010895D01*
X022395Y010825D01*
X022395Y010615D01*
X022606Y010615D01*
X022676Y010685D01*
X022606Y010755D01*
X022395Y010755D01*
X022215Y010615D02*
X022005Y010615D01*
X021935Y010685D01*
X021935Y010825D01*
X022005Y010895D01*
X022215Y010895D01*
X022215Y011035D02*
X022215Y010615D01*
X021755Y010615D02*
X021755Y010685D01*
X021685Y010685D01*
X021685Y010615D01*
X021755Y010615D01*
X021525Y010685D02*
X021455Y010615D01*
X021244Y010615D01*
X021064Y010685D02*
X020994Y010615D01*
X020854Y010615D01*
X020784Y010685D01*
X020784Y010825D01*
X020854Y010895D01*
X020994Y010895D01*
X021064Y010825D01*
X021064Y010685D01*
X021244Y010895D02*
X021455Y010895D01*
X021525Y010825D01*
X021525Y010685D01*
X020604Y010615D02*
X020604Y010895D01*
X020534Y010895D01*
X020464Y010825D01*
X020394Y010895D01*
X020324Y010825D01*
X020324Y010615D01*
X020464Y010615D02*
X020464Y010825D01*
X024364Y010755D02*
X024364Y011035D01*
X028284Y010895D02*
X028354Y010895D01*
X028534Y010895D02*
X028744Y010895D01*
X028814Y010825D01*
X028744Y010755D01*
X028604Y010755D01*
X028534Y010685D01*
X028604Y010615D01*
X028814Y010615D01*
X028994Y010755D02*
X029275Y010755D01*
X029275Y010685D02*
X029275Y010825D01*
X029205Y010895D01*
X029064Y010895D01*
X028994Y010825D01*
X028994Y010755D01*
X029064Y010615D02*
X029205Y010615D01*
X029275Y010685D01*
X029455Y010615D02*
X029665Y010615D01*
X029735Y010685D01*
X029735Y010825D01*
X029665Y010895D01*
X029455Y010895D01*
X029455Y011035D02*
X029455Y010615D01*
D14*
X029411Y011475D02*
X029258Y011475D01*
X029181Y011552D01*
X029028Y011475D02*
X028874Y011628D01*
X028874Y011782D01*
X029028Y011935D01*
X029181Y011859D02*
X029258Y011935D01*
X029411Y011935D01*
X029488Y011859D01*
X029488Y011552D01*
X029411Y011475D01*
X029641Y011475D02*
X029795Y011628D01*
X029795Y011782D01*
X029641Y011935D01*
X029565Y012225D02*
X029488Y012302D01*
X029488Y012609D01*
X029565Y012685D01*
X029795Y012685D01*
X029795Y012225D01*
X029565Y012225D01*
X029335Y012225D02*
X029181Y012225D01*
X029258Y012225D02*
X029258Y012532D01*
X029335Y012532D01*
X029258Y012685D02*
X029258Y012762D01*
X029028Y012455D02*
X028951Y012532D01*
X028721Y012532D01*
X028567Y012532D02*
X028337Y012532D01*
X028260Y012455D01*
X028260Y012302D01*
X028337Y012225D01*
X028567Y012225D01*
X028567Y012071D02*
X028567Y012532D01*
X028721Y012302D02*
X028797Y012378D01*
X028951Y012378D01*
X029028Y012455D01*
X029028Y012225D02*
X028797Y012225D01*
X028721Y012302D01*
X028260Y011935D02*
X028260Y011628D01*
X028107Y011475D01*
X027953Y011628D01*
X027953Y011935D01*
X027800Y011935D02*
X027800Y011475D01*
X027493Y011475D01*
X027340Y011475D02*
X027340Y011935D01*
X027109Y011935D01*
X027033Y011859D01*
X027033Y011705D01*
X027109Y011628D01*
X027340Y011628D01*
X027186Y011628D02*
X027033Y011475D01*
X026879Y011475D02*
X026726Y011475D01*
X026802Y011475D02*
X026802Y011935D01*
X026879Y011935D01*
X027033Y012148D02*
X027109Y012071D01*
X027186Y012071D01*
X027033Y012148D02*
X027033Y012532D01*
X027340Y012532D02*
X027340Y012302D01*
X027263Y012225D01*
X027033Y012225D01*
X027493Y012225D02*
X027493Y012455D01*
X027570Y012532D01*
X027723Y012532D01*
X027723Y012378D02*
X027493Y012378D01*
X027493Y012225D02*
X027723Y012225D01*
X027800Y012302D01*
X027723Y012378D01*
X027953Y012225D02*
X028107Y012225D01*
X028030Y012225D02*
X028030Y012685D01*
X028107Y012685D01*
X026419Y012532D02*
X026419Y012225D01*
X026112Y012225D02*
X026112Y012532D01*
X026265Y012685D01*
X026419Y012532D01*
X026419Y012455D02*
X026112Y012455D01*
X025958Y012455D02*
X025882Y012532D01*
X025651Y012532D01*
X025651Y012685D02*
X025651Y012225D01*
X025882Y012225D01*
X025958Y012302D01*
X025958Y012455D01*
X025498Y012302D02*
X025421Y012378D01*
X025191Y012378D01*
X025191Y012455D02*
X025191Y012225D01*
X025421Y012225D01*
X025498Y012302D01*
X025038Y012225D02*
X024807Y012225D01*
X024731Y012302D01*
X024731Y012455D01*
X024807Y012532D01*
X025038Y012532D01*
X025038Y012071D01*
X025191Y011935D02*
X025191Y011475D01*
X024884Y011475D02*
X024884Y011935D01*
X024884Y011705D02*
X025191Y011705D01*
X024731Y011705D02*
X024731Y011552D01*
X024654Y011475D01*
X024500Y011475D01*
X024424Y011552D01*
X024424Y011705D01*
X024500Y011782D01*
X024654Y011782D01*
X024731Y011705D01*
X024270Y011705D02*
X024194Y011782D01*
X024040Y011782D01*
X023963Y011705D01*
X023963Y011628D01*
X024270Y011628D01*
X024270Y011552D02*
X024194Y011475D01*
X024040Y011475D01*
X023810Y011475D02*
X023810Y011782D01*
X023810Y011628D02*
X023656Y011782D01*
X023580Y011782D01*
X023426Y011935D02*
X023349Y011935D01*
X023349Y011475D01*
X023273Y011475D02*
X023426Y011475D01*
X023119Y011552D02*
X023119Y011705D01*
X023043Y011782D01*
X022889Y011782D01*
X022812Y011705D01*
X022812Y011628D01*
X023119Y011628D01*
X023119Y011552D02*
X023043Y011475D01*
X022889Y011475D01*
X022659Y011475D02*
X022659Y011782D01*
X022659Y011628D02*
X022505Y011782D01*
X022429Y011782D01*
X022429Y012225D02*
X022429Y012685D01*
X022505Y012685D02*
X022352Y012685D01*
X022198Y012685D02*
X022198Y012225D01*
X021892Y012225D01*
X021738Y012455D02*
X021431Y012455D01*
X021278Y012685D02*
X021278Y012225D01*
X021048Y012225D01*
X020971Y012302D01*
X020971Y012609D01*
X021048Y012685D01*
X021278Y012685D01*
X020817Y012685D02*
X020664Y012685D01*
X020741Y012685D02*
X020741Y012225D01*
X020817Y012225D02*
X020664Y012225D01*
X020510Y012225D02*
X020203Y012225D01*
X020510Y012225D02*
X020510Y012685D01*
X019129Y012532D02*
X018976Y012225D01*
X018822Y012532D01*
X018439Y012532D02*
X018285Y012685D01*
X018285Y012225D01*
X018132Y012225D02*
X018439Y012225D01*
X018592Y012225D02*
X018669Y012225D01*
X018669Y012302D01*
X018592Y012302D01*
X018592Y012225D01*
X022352Y012225D02*
X022505Y012225D01*
X022659Y012302D02*
X022659Y012378D01*
X022736Y012455D01*
X022889Y012455D01*
X022966Y012532D01*
X022966Y012609D01*
X022889Y012685D01*
X022736Y012685D01*
X022659Y012609D01*
X023580Y012532D02*
X023656Y012532D01*
X023810Y012378D01*
X023810Y012225D02*
X023810Y012532D01*
X023963Y012455D02*
X023963Y012378D01*
X024270Y012378D01*
X024270Y012302D02*
X024194Y012225D01*
X024040Y012225D01*
X024270Y012302D02*
X024270Y012455D01*
X024194Y012532D01*
X024040Y012532D01*
X023963Y012455D01*
X024424Y012532D02*
X024577Y012532D01*
X024500Y012609D02*
X024500Y012302D01*
X024424Y012225D01*
X025191Y012455D02*
X025268Y012532D01*
X025421Y012532D01*
X026112Y011935D02*
X026112Y011475D01*
X025882Y011475D01*
X025805Y011552D01*
X025805Y011705D01*
X025882Y011782D01*
X026112Y011782D01*
X026265Y011705D02*
X026265Y011475D01*
X026495Y011475D01*
X026572Y011552D01*
X026495Y011628D01*
X026265Y011628D01*
X026265Y011705D02*
X026342Y011782D01*
X026495Y011782D01*
X024270Y011705D02*
X024270Y011552D01*
X022966Y012302D02*
X022889Y012225D01*
X022736Y012225D01*
X022659Y012302D01*
D15*
X014735Y012255D03*
X014175Y011615D03*
X012895Y011295D03*
X010575Y010735D03*
X008255Y010415D03*
X006415Y009775D03*
X001695Y010255D03*
X005375Y012895D03*
X007615Y012255D03*
X009215Y013135D03*
M02*
