G75*
G70*
%OFA0B0*%
%FSLAX24Y24*%
%IPPOS*%
%LPD*%
%AMOC8*
5,1,8,0,0,1.08239X$1,22.5*
%
%ADD10C,0.0780*%
%ADD11OC8,0.0640*%
%ADD12C,0.1655*%
%ADD13C,0.0370*%
D10*
X003559Y013797D03*
X004559Y013797D03*
X005559Y013797D03*
X006559Y013797D03*
X007559Y013797D03*
X008559Y013797D03*
X009559Y013797D03*
X010559Y013797D03*
X011559Y013797D03*
X012559Y013797D03*
X013559Y013797D03*
X014559Y013797D03*
X015559Y013797D03*
X016559Y013797D03*
X017559Y013797D03*
X018559Y013797D03*
D11*
X003910Y010988D03*
X002910Y010988D03*
X002910Y009988D03*
X003910Y009988D03*
X003910Y008988D03*
X002910Y008988D03*
X002910Y007988D03*
X003910Y007988D03*
X003910Y006988D03*
X002910Y006988D03*
X002910Y005988D03*
X003910Y005988D03*
X003910Y004988D03*
X002910Y004988D03*
X002910Y003988D03*
X003910Y003988D03*
D12*
X001399Y001399D03*
X001399Y013604D03*
X030927Y013604D03*
D13*
X014735Y012255D03*
X014175Y011615D03*
X012895Y011295D03*
X010575Y010735D03*
X008255Y010415D03*
X006415Y009775D03*
X001695Y010255D03*
X005375Y012895D03*
X007615Y012255D03*
X009215Y013135D03*
M02*
