G75*
%MOIN*%
%OFA0B0*%
%FSLAX24Y24*%
%IPPOS*%
%LPD*%
%AMOC8*
5,1,8,0,0,1.08239X$1,22.5*
%
%ADD10C,0.0840*%
%ADD11OC8,0.0880*%
%ADD12OC8,0.0840*%
%ADD13C,0.3470*%
%ADD14C,0.0522*%
D10*
X016318Y010078D03*
X016318Y011078D03*
X016318Y012078D03*
X016318Y013078D03*
X016318Y014078D03*
X016318Y015078D03*
X016318Y016078D03*
X016318Y017078D03*
X016318Y018078D03*
X016318Y020826D03*
X016318Y021826D03*
X016318Y022826D03*
X016318Y023826D03*
X016318Y024826D03*
X016318Y025826D03*
X016318Y026826D03*
X016318Y027826D03*
X016318Y028826D03*
X016318Y031456D03*
X016318Y032456D03*
X016318Y033456D03*
X016318Y034456D03*
X016318Y035456D03*
X016318Y036456D03*
X016318Y037456D03*
X016318Y038456D03*
X016318Y039456D03*
X016318Y042164D03*
X016318Y043164D03*
X016318Y044164D03*
X016318Y045164D03*
X016318Y046164D03*
X016318Y047164D03*
X016318Y048164D03*
X016318Y049164D03*
X016318Y050164D03*
X019318Y050164D03*
X019318Y049164D03*
X019318Y048164D03*
X019318Y047164D03*
X019318Y046164D03*
X019318Y045164D03*
X019318Y044164D03*
X019318Y043164D03*
X019318Y042164D03*
X019318Y039456D03*
X019318Y038456D03*
X019318Y037456D03*
X019318Y036456D03*
X019318Y035456D03*
X019318Y034456D03*
X019318Y033456D03*
X019318Y032456D03*
X019318Y031456D03*
X019318Y028826D03*
X019318Y027826D03*
X019318Y026826D03*
X019318Y025826D03*
X019318Y024826D03*
X019318Y023826D03*
X019318Y022826D03*
X019318Y021826D03*
X019318Y020826D03*
X019318Y018078D03*
X019318Y017078D03*
X019318Y016078D03*
X019318Y015078D03*
X019318Y014078D03*
X019318Y013078D03*
X019318Y012078D03*
X019318Y011078D03*
X019318Y010078D03*
X021042Y010078D03*
X021042Y009078D03*
X021042Y011078D03*
X021042Y012078D03*
X021042Y013078D03*
X021042Y014078D03*
X021042Y015078D03*
X021042Y016078D03*
X021042Y019826D03*
X021042Y020826D03*
X021042Y021826D03*
X021042Y022826D03*
X021042Y023826D03*
X021042Y024826D03*
X021042Y025826D03*
X021042Y026826D03*
X021042Y030456D03*
X021042Y031456D03*
X021042Y032456D03*
X021042Y033456D03*
X021042Y034456D03*
X021042Y035456D03*
X021042Y036456D03*
X021042Y037456D03*
X021042Y041164D03*
X021042Y042164D03*
X021042Y043164D03*
X021042Y044164D03*
X021042Y045164D03*
X021042Y046164D03*
X021042Y047164D03*
X021042Y048164D03*
X024042Y048164D03*
X024042Y047164D03*
X024042Y046164D03*
X024042Y045164D03*
X024042Y044164D03*
X024042Y043164D03*
X024042Y042164D03*
X024042Y041164D03*
X024042Y037456D03*
X024042Y036456D03*
X024042Y035456D03*
X024042Y034456D03*
X024042Y033456D03*
X024042Y032456D03*
X024042Y031456D03*
X024042Y030456D03*
X024042Y026826D03*
X024042Y025826D03*
X024042Y024826D03*
X024042Y023826D03*
X024042Y022826D03*
X024042Y021826D03*
X024042Y020826D03*
X024042Y019826D03*
X024042Y016078D03*
X024042Y015078D03*
X024042Y014078D03*
X024042Y013078D03*
X024042Y012078D03*
X024042Y011078D03*
X024042Y010078D03*
X024042Y009078D03*
D11*
X019452Y007196D03*
X019452Y006196D03*
X018452Y006196D03*
X018452Y007196D03*
X017452Y007196D03*
X017452Y006196D03*
X016452Y006196D03*
X016452Y007196D03*
X015452Y007196D03*
X015452Y006196D03*
X012609Y012078D03*
X012609Y013078D03*
X012609Y014078D03*
X012609Y015078D03*
X012609Y016078D03*
X011609Y016078D03*
X011609Y015078D03*
X011609Y014078D03*
X011609Y013078D03*
X011609Y012078D03*
X011609Y022826D03*
X011609Y023826D03*
X011609Y024826D03*
X011609Y025826D03*
X011609Y026826D03*
X012609Y026826D03*
X012609Y025826D03*
X012609Y024826D03*
X012609Y023826D03*
X012609Y022826D03*
X012609Y033456D03*
X012609Y034456D03*
X012609Y035456D03*
X012609Y036456D03*
X012609Y037456D03*
X011609Y037456D03*
X011609Y036456D03*
X011609Y035456D03*
X011609Y034456D03*
X011609Y033456D03*
X011609Y044164D03*
X011609Y045164D03*
X011609Y046164D03*
X011609Y047164D03*
X011609Y048164D03*
X012609Y048164D03*
X012609Y047164D03*
X012609Y046164D03*
X012609Y045164D03*
X012609Y044164D03*
X015452Y052554D03*
X015452Y053554D03*
X016452Y053554D03*
X016452Y052554D03*
X017452Y052554D03*
X017452Y053554D03*
X018452Y053554D03*
X018452Y052554D03*
X019452Y052554D03*
X019452Y053554D03*
X019452Y056235D03*
X019452Y057235D03*
X018452Y057235D03*
X018452Y056235D03*
X017452Y056235D03*
X017452Y057235D03*
X016452Y057235D03*
X016452Y056235D03*
X015452Y056235D03*
X015452Y057235D03*
D12*
X025586Y042164D03*
X026586Y042164D03*
X026586Y031456D03*
X025586Y031456D03*
X025586Y020826D03*
X026586Y020826D03*
X026586Y010062D03*
X025586Y010062D03*
D13*
X011519Y006125D03*
X029235Y045495D03*
X011519Y057306D03*
D14*
X014750Y052353D03*
X021750Y044156D03*
X022550Y043156D03*
X021750Y033456D03*
X022550Y032456D03*
X021750Y022856D03*
X022550Y021856D03*
X021750Y012056D03*
X022550Y011056D03*
M02*
