G75*
%MOIN*%
%OFA0B0*%
%FSLAX24Y24*%
%IPPOS*%
%LPD*%
%AMOC8*
5,1,8,0,0,1.08239X$1,22.5*
%
%ADD10C,0.0030*%
%ADD11C,0.0100*%
%ADD12C,0.0060*%
%ADD13C,0.0050*%
%ADD14C,0.0020*%
%ADD15C,0.0040*%
D10*
X010865Y018163D02*
X010865Y018410D01*
X011112Y018163D01*
X011174Y018163D01*
X011235Y018225D01*
X011235Y018348D01*
X011174Y018410D01*
X011174Y018531D02*
X011112Y018531D01*
X011050Y018593D01*
X010989Y018531D01*
X010927Y018531D01*
X010865Y018593D01*
X010865Y018716D01*
X010927Y018778D01*
X011050Y018655D02*
X011050Y018593D01*
X011174Y018531D02*
X011235Y018593D01*
X011235Y018716D01*
X011174Y018778D01*
X011465Y018810D02*
X011465Y018625D01*
X011527Y018563D01*
X011774Y018563D01*
X011835Y018625D01*
X011835Y018810D01*
X011465Y018810D01*
X011527Y018441D02*
X011774Y018195D01*
X011527Y018195D01*
X011465Y018256D01*
X011465Y018380D01*
X011527Y018441D01*
X011774Y018441D01*
X011835Y018380D01*
X011835Y018256D01*
X011774Y018195D01*
X012465Y018195D02*
X012465Y018441D01*
X012465Y018318D02*
X012835Y018318D01*
X012712Y018441D01*
X012774Y018563D02*
X012835Y018625D01*
X012835Y018810D01*
X012465Y018810D01*
X012465Y018625D01*
X012527Y018563D01*
X012774Y018563D01*
X011174Y019330D02*
X010927Y019330D01*
X010865Y019268D01*
X010865Y019513D02*
X011112Y019513D01*
X011112Y019392D02*
X011112Y019268D01*
X010865Y019513D02*
X010865Y019698D01*
X010927Y019760D01*
X011112Y019760D01*
X011050Y019882D02*
X010927Y019882D01*
X010865Y019943D01*
X010865Y020128D01*
X010865Y020251D02*
X010927Y020312D01*
X011174Y020312D01*
X011112Y020251D02*
X011112Y020374D01*
X011112Y020495D02*
X010865Y020495D01*
X010865Y020681D01*
X010927Y020742D01*
X011112Y020742D01*
X011174Y020864D02*
X011235Y020926D01*
X011235Y021049D01*
X011174Y021111D01*
X010927Y021111D01*
X010865Y021049D01*
X010865Y020926D01*
X010927Y020864D01*
X011174Y020864D01*
X011112Y020128D02*
X010742Y020128D01*
X011112Y020128D02*
X011112Y019943D01*
X011050Y019882D01*
X015384Y020604D02*
X015384Y020789D01*
X015446Y020851D01*
X015569Y020851D01*
X015631Y020789D01*
X015631Y020604D01*
X015631Y020727D02*
X015754Y020851D01*
X015693Y020972D02*
X015754Y021034D01*
X015754Y021157D01*
X015693Y021219D01*
X015631Y021219D01*
X015569Y021157D01*
X015569Y021095D01*
X015569Y021157D02*
X015507Y021219D01*
X015446Y021219D01*
X015384Y021157D01*
X015384Y021034D01*
X015446Y020972D01*
X015384Y020604D02*
X015754Y020604D01*
X015673Y021671D02*
X015735Y021733D01*
X015735Y021857D01*
X015673Y021918D01*
X015550Y021918D01*
X015488Y021857D01*
X015488Y021733D01*
X015550Y021671D01*
X015673Y021671D01*
X015612Y022040D02*
X015488Y022163D01*
X015488Y022225D01*
X015488Y022040D02*
X015735Y022040D01*
X015691Y022591D02*
X015753Y022652D01*
X015753Y022776D01*
X015691Y022838D01*
X015382Y022838D01*
X015382Y022959D02*
X015753Y022959D01*
X015753Y023206D01*
X015753Y023327D02*
X015382Y023327D01*
X015753Y023574D01*
X015382Y023574D01*
X015444Y023696D02*
X015382Y023757D01*
X015382Y023881D01*
X015444Y023942D01*
X015506Y023942D01*
X015753Y023696D01*
X015753Y023942D01*
X015691Y024064D02*
X015629Y024064D01*
X015568Y024126D01*
X015568Y024249D01*
X015629Y024311D01*
X015691Y024311D01*
X015753Y024249D01*
X015753Y024126D01*
X015691Y024064D01*
X015568Y024126D02*
X015506Y024064D01*
X015444Y024064D01*
X015382Y024126D01*
X015382Y024249D01*
X015444Y024311D01*
X015506Y024311D01*
X015568Y024249D01*
X015691Y024432D02*
X015444Y024679D01*
X015691Y024679D01*
X015753Y024617D01*
X015753Y024494D01*
X015691Y024432D01*
X015444Y024432D01*
X015382Y024494D01*
X015382Y024617D01*
X015444Y024679D01*
X015444Y024801D02*
X015382Y024862D01*
X015382Y024986D01*
X015444Y025047D01*
X015506Y025047D01*
X015568Y024986D01*
X015629Y025047D01*
X015691Y025047D01*
X015753Y024986D01*
X015753Y024862D01*
X015691Y024801D01*
X015568Y024924D02*
X015568Y024986D01*
X015691Y022591D02*
X015382Y022591D01*
X012365Y028995D02*
X012365Y029241D01*
X012365Y029118D02*
X012735Y029118D01*
X012612Y029241D01*
X012674Y029363D02*
X012735Y029425D01*
X012735Y029610D01*
X012365Y029610D01*
X012365Y029425D01*
X012427Y029363D01*
X012674Y029363D01*
X011735Y029425D02*
X011735Y029610D01*
X011365Y029610D01*
X011365Y029425D01*
X011427Y029363D01*
X011674Y029363D01*
X011735Y029425D01*
X011674Y029241D02*
X011735Y029180D01*
X011735Y029056D01*
X011674Y028995D01*
X011427Y029241D01*
X011365Y029180D01*
X011365Y029056D01*
X011427Y028995D01*
X011674Y028995D01*
X011674Y029241D02*
X011427Y029241D01*
X011135Y029393D02*
X011135Y029516D01*
X011074Y029578D01*
X011135Y029393D02*
X011074Y029331D01*
X011012Y029331D01*
X010765Y029578D01*
X010765Y029331D01*
X010950Y029210D02*
X010950Y028963D01*
X010765Y029025D02*
X011135Y029025D01*
X010950Y029210D01*
X011012Y030068D02*
X011012Y030192D01*
X011074Y030130D02*
X010827Y030130D01*
X010765Y030068D01*
X010765Y030313D02*
X011012Y030313D01*
X010765Y030313D02*
X010765Y030498D01*
X010827Y030560D01*
X011012Y030560D01*
X010950Y030682D02*
X010827Y030682D01*
X010765Y030743D01*
X010765Y030928D01*
X010765Y031051D02*
X010827Y031112D01*
X011074Y031112D01*
X011012Y031051D02*
X011012Y031174D01*
X011012Y031295D02*
X010765Y031295D01*
X010765Y031481D01*
X010827Y031542D01*
X011012Y031542D01*
X011074Y031664D02*
X010827Y031664D01*
X010765Y031726D01*
X010765Y031849D01*
X010827Y031911D01*
X011074Y031911D01*
X011135Y031849D01*
X011135Y031726D01*
X011074Y031664D01*
X011012Y030928D02*
X010642Y030928D01*
X011012Y030928D02*
X011012Y030743D01*
X010950Y030682D01*
X015364Y031204D02*
X015364Y031389D01*
X015426Y031451D01*
X015549Y031451D01*
X015611Y031389D01*
X015611Y031204D01*
X015611Y031327D02*
X015734Y031451D01*
X015734Y031572D02*
X015487Y031819D01*
X015426Y031819D01*
X015364Y031757D01*
X015364Y031634D01*
X015426Y031572D01*
X015734Y031572D02*
X015734Y031819D01*
X015673Y032271D02*
X015735Y032333D01*
X015735Y032457D01*
X015673Y032518D01*
X015550Y032518D01*
X015488Y032457D01*
X015488Y032333D01*
X015550Y032271D01*
X015673Y032271D01*
X015612Y032640D02*
X015488Y032763D01*
X015488Y032825D01*
X015488Y032640D02*
X015735Y032640D01*
X015691Y033221D02*
X015753Y033282D01*
X015753Y033406D01*
X015691Y033467D01*
X015382Y033467D01*
X015382Y033589D02*
X015753Y033589D01*
X015753Y033836D01*
X015753Y033957D02*
X015382Y033957D01*
X015753Y034204D01*
X015382Y034204D01*
X015444Y034326D02*
X015382Y034387D01*
X015382Y034511D01*
X015444Y034572D01*
X015506Y034572D01*
X015753Y034326D01*
X015753Y034572D01*
X015691Y034694D02*
X015753Y034756D01*
X015753Y034879D01*
X015691Y034941D01*
X015629Y034941D01*
X015568Y034879D01*
X015568Y034756D01*
X015506Y034694D01*
X015444Y034694D01*
X015382Y034756D01*
X015382Y034879D01*
X015444Y034941D01*
X015506Y034941D01*
X015568Y034879D01*
X015568Y034756D02*
X015629Y034694D01*
X015691Y034694D01*
X015691Y035062D02*
X015444Y035309D01*
X015691Y035309D01*
X015753Y035247D01*
X015753Y035124D01*
X015691Y035062D01*
X015444Y035062D01*
X015382Y035124D01*
X015382Y035247D01*
X015444Y035309D01*
X015444Y035430D02*
X015382Y035492D01*
X015382Y035616D01*
X015444Y035677D01*
X015506Y035677D01*
X015568Y035616D01*
X015629Y035677D01*
X015691Y035677D01*
X015753Y035616D01*
X015753Y035492D01*
X015691Y035430D01*
X015568Y035554D02*
X015568Y035616D01*
X015691Y033221D02*
X015382Y033221D01*
X015364Y031204D02*
X015734Y031204D01*
X012735Y039718D02*
X012365Y039718D01*
X012365Y039841D02*
X012365Y039595D01*
X012612Y039841D02*
X012735Y039718D01*
X012674Y039963D02*
X012427Y039963D01*
X012365Y040025D01*
X012365Y040210D01*
X012735Y040210D01*
X012735Y040025D01*
X012674Y039963D01*
X011735Y040025D02*
X011735Y040210D01*
X011365Y040210D01*
X011365Y040025D01*
X011427Y039963D01*
X011674Y039963D01*
X011735Y040025D01*
X011674Y039841D02*
X011735Y039780D01*
X011735Y039656D01*
X011674Y039595D01*
X011427Y039841D01*
X011365Y039780D01*
X011365Y039656D01*
X011427Y039595D01*
X011674Y039595D01*
X011674Y039841D02*
X011427Y039841D01*
X011135Y040055D02*
X010765Y040055D01*
X010765Y040178D02*
X010765Y039931D01*
X010827Y039810D02*
X010765Y039748D01*
X010765Y039625D01*
X010827Y039563D01*
X010889Y039563D01*
X010950Y039625D01*
X010950Y039810D01*
X010827Y039810D01*
X010950Y039810D02*
X011074Y039686D01*
X011135Y039563D01*
X011135Y040055D02*
X011012Y040178D01*
X011012Y040668D02*
X011012Y040792D01*
X011074Y040730D02*
X010827Y040730D01*
X010765Y040668D01*
X010765Y040913D02*
X011012Y040913D01*
X010765Y040913D02*
X010765Y041098D01*
X010827Y041160D01*
X011012Y041160D01*
X010950Y041282D02*
X010827Y041282D01*
X010765Y041343D01*
X010765Y041528D01*
X010765Y041651D02*
X010827Y041712D01*
X011074Y041712D01*
X011012Y041651D02*
X011012Y041774D01*
X011012Y041895D02*
X010765Y041895D01*
X010765Y042081D01*
X010827Y042142D01*
X011012Y042142D01*
X011074Y042264D02*
X011135Y042326D01*
X011135Y042449D01*
X011074Y042511D01*
X010827Y042511D01*
X010765Y042449D01*
X010765Y042326D01*
X010827Y042264D01*
X011074Y042264D01*
X011012Y041528D02*
X010642Y041528D01*
X011012Y041528D02*
X011012Y041343D01*
X010950Y041282D01*
X015273Y041904D02*
X015273Y042089D01*
X015334Y042151D01*
X015458Y042151D01*
X015520Y042089D01*
X015520Y041904D01*
X015643Y041904D02*
X015273Y041904D01*
X015520Y042027D02*
X015643Y042151D01*
X015643Y042272D02*
X015643Y042519D01*
X015643Y042395D02*
X015273Y042395D01*
X015396Y042272D01*
X015450Y042871D02*
X015573Y042871D01*
X015635Y042933D01*
X015635Y043057D01*
X015573Y043118D01*
X015450Y043118D01*
X015388Y043057D01*
X015388Y042933D01*
X015450Y042871D01*
X015512Y043240D02*
X015388Y043363D01*
X015388Y043425D01*
X015388Y043240D02*
X015635Y043240D01*
X015591Y043929D02*
X015282Y043929D01*
X015282Y044176D02*
X015591Y044176D01*
X015653Y044114D01*
X015653Y043991D01*
X015591Y043929D01*
X015653Y044298D02*
X015282Y044298D01*
X015282Y044666D02*
X015653Y044913D01*
X015282Y044913D01*
X015344Y045034D02*
X015282Y045096D01*
X015282Y045219D01*
X015344Y045281D01*
X015406Y045281D01*
X015653Y045034D01*
X015653Y045281D01*
X015591Y045403D02*
X015529Y045403D01*
X015468Y045464D01*
X015468Y045588D01*
X015529Y045649D01*
X015591Y045649D01*
X015653Y045588D01*
X015653Y045464D01*
X015591Y045403D01*
X015468Y045464D02*
X015406Y045403D01*
X015344Y045403D01*
X015282Y045464D01*
X015282Y045588D01*
X015344Y045649D01*
X015406Y045649D01*
X015468Y045588D01*
X015591Y045771D02*
X015344Y046018D01*
X015591Y046018D01*
X015653Y045956D01*
X015653Y045833D01*
X015591Y045771D01*
X015344Y045771D01*
X015282Y045833D01*
X015282Y045956D01*
X015344Y046018D01*
X015344Y046139D02*
X015282Y046201D01*
X015282Y046324D01*
X015344Y046386D01*
X015406Y046386D01*
X015468Y046324D01*
X015529Y046386D01*
X015591Y046386D01*
X015653Y046324D01*
X015653Y046201D01*
X015591Y046139D01*
X015468Y046263D02*
X015468Y046324D01*
X015653Y044666D02*
X015282Y044666D01*
X015653Y044544D02*
X015653Y044298D01*
X014432Y049443D02*
X014494Y049504D01*
X014494Y049566D01*
X014432Y049628D01*
X014124Y049628D01*
X014124Y049566D02*
X014124Y049690D01*
X014186Y049811D02*
X014124Y049873D01*
X014124Y049996D01*
X014186Y050058D01*
X014247Y050058D01*
X014309Y049996D01*
X014371Y050058D01*
X014432Y050058D01*
X014494Y049996D01*
X014494Y049873D01*
X014432Y049811D01*
X014309Y049934D02*
X014309Y049996D01*
X012735Y050418D02*
X012365Y050418D01*
X012365Y050541D02*
X012365Y050295D01*
X012612Y050541D02*
X012735Y050418D01*
X012674Y050663D02*
X012427Y050663D01*
X012365Y050725D01*
X012365Y050910D01*
X012735Y050910D01*
X012735Y050725D01*
X012674Y050663D01*
X011735Y050725D02*
X011735Y050910D01*
X011365Y050910D01*
X011365Y050725D01*
X011427Y050663D01*
X011674Y050663D01*
X011735Y050725D01*
X011674Y050541D02*
X011735Y050480D01*
X011735Y050356D01*
X011674Y050295D01*
X011427Y050541D01*
X011365Y050480D01*
X011365Y050356D01*
X011427Y050295D01*
X011674Y050295D01*
X011674Y050541D02*
X011427Y050541D01*
X011135Y050448D02*
X011135Y050325D01*
X011074Y050263D01*
X011012Y050263D01*
X010950Y050325D01*
X010950Y050448D01*
X011012Y050510D01*
X011074Y050510D01*
X011135Y050448D01*
X010950Y050448D02*
X010889Y050510D01*
X010827Y050510D01*
X010765Y050448D01*
X010765Y050325D01*
X010827Y050263D01*
X010889Y050263D01*
X010950Y050325D01*
X011012Y051000D02*
X011012Y051124D01*
X011074Y051062D02*
X010827Y051062D01*
X010765Y051000D01*
X010765Y051245D02*
X011012Y051245D01*
X011012Y051492D02*
X010827Y051492D01*
X010765Y051430D01*
X010765Y051245D01*
X010827Y051613D02*
X010765Y051675D01*
X010765Y051860D01*
X010765Y051982D02*
X010827Y052044D01*
X011074Y052044D01*
X011012Y052106D02*
X011012Y051982D01*
X011012Y051860D02*
X010642Y051860D01*
X010827Y051613D02*
X010950Y051613D01*
X011012Y051675D01*
X011012Y051860D01*
X011012Y052227D02*
X010765Y052227D01*
X010765Y052412D01*
X010827Y052474D01*
X011012Y052474D01*
X011074Y052595D02*
X010827Y052595D01*
X010765Y052657D01*
X010765Y052781D01*
X010827Y052842D01*
X011074Y052842D01*
X011135Y052781D01*
X011135Y052657D01*
X011074Y052595D01*
X021647Y054371D02*
X021709Y054309D01*
X021771Y054309D01*
X021833Y054371D01*
X021833Y054679D01*
X021894Y054679D02*
X021771Y054679D01*
X022016Y054618D02*
X022077Y054679D01*
X022201Y054679D01*
X022263Y054618D01*
X022263Y054556D01*
X022016Y054309D01*
X022263Y054309D01*
X022302Y057815D02*
X022055Y057815D01*
X022178Y057815D02*
X022178Y058185D01*
X022055Y058062D01*
X021934Y058185D02*
X021810Y058185D01*
X021872Y058185D02*
X021872Y057876D01*
X021810Y057815D01*
X021748Y057815D01*
X021687Y057876D01*
X025262Y043150D02*
X025201Y043088D01*
X025201Y042841D01*
X025262Y042779D01*
X025386Y042779D01*
X025447Y042841D01*
X025569Y042779D02*
X025816Y043026D01*
X025816Y043088D01*
X025754Y043150D01*
X025631Y043150D01*
X025569Y043088D01*
X025447Y043088D02*
X025386Y043150D01*
X025262Y043150D01*
X025569Y042779D02*
X025816Y042779D01*
X025754Y041450D02*
X025816Y041388D01*
X025569Y041141D01*
X025631Y041079D01*
X025754Y041079D01*
X025816Y041141D01*
X025816Y041388D01*
X025754Y041450D02*
X025631Y041450D01*
X025569Y041388D01*
X025569Y041141D01*
X025447Y041079D02*
X025201Y041079D01*
X025324Y041079D02*
X025324Y041450D01*
X025201Y041326D01*
X025937Y041388D02*
X025999Y041450D01*
X026122Y041450D01*
X026184Y041388D01*
X025937Y041141D01*
X025999Y041079D01*
X026122Y041079D01*
X026184Y041141D01*
X026184Y041388D01*
X026305Y041326D02*
X026305Y041079D01*
X026305Y041326D02*
X026491Y041326D01*
X026552Y041264D01*
X026552Y041079D01*
X025937Y041141D02*
X025937Y041388D01*
X025692Y032441D02*
X025692Y032071D01*
X025569Y032071D02*
X025816Y032071D01*
X025569Y032317D02*
X025692Y032441D01*
X025447Y032379D02*
X025386Y032441D01*
X025262Y032441D01*
X025201Y032379D01*
X025201Y032132D01*
X025262Y032071D01*
X025386Y032071D01*
X025447Y032132D01*
X025324Y030741D02*
X025324Y030371D01*
X025201Y030371D02*
X025447Y030371D01*
X025569Y030432D02*
X025631Y030371D01*
X025754Y030371D01*
X025816Y030432D01*
X025816Y030679D01*
X025569Y030432D01*
X025569Y030679D01*
X025631Y030741D01*
X025754Y030741D01*
X025816Y030679D01*
X025937Y030679D02*
X025999Y030741D01*
X026122Y030741D01*
X026184Y030679D01*
X025937Y030432D01*
X025999Y030371D01*
X026122Y030371D01*
X026184Y030432D01*
X026184Y030679D01*
X026305Y030617D02*
X026305Y030371D01*
X026305Y030617D02*
X026491Y030617D01*
X026552Y030556D01*
X026552Y030371D01*
X025937Y030432D02*
X025937Y030679D01*
X025324Y030741D02*
X025201Y030617D01*
X025262Y021811D02*
X025201Y021749D01*
X025201Y021502D01*
X025262Y021441D01*
X025386Y021441D01*
X025447Y021502D01*
X025569Y021502D02*
X025631Y021441D01*
X025754Y021441D01*
X025816Y021502D01*
X025816Y021564D01*
X025754Y021626D01*
X025692Y021626D01*
X025754Y021626D02*
X025816Y021688D01*
X025816Y021749D01*
X025754Y021811D01*
X025631Y021811D01*
X025569Y021749D01*
X025447Y021749D02*
X025386Y021811D01*
X025262Y021811D01*
X025324Y020111D02*
X025324Y019741D01*
X025201Y019741D02*
X025447Y019741D01*
X025569Y019802D02*
X025816Y020049D01*
X025816Y019802D01*
X025754Y019741D01*
X025631Y019741D01*
X025569Y019802D01*
X025569Y020049D01*
X025631Y020111D01*
X025754Y020111D01*
X025816Y020049D01*
X025937Y020049D02*
X025999Y020111D01*
X026122Y020111D01*
X026184Y020049D01*
X025937Y019802D01*
X025999Y019741D01*
X026122Y019741D01*
X026184Y019802D01*
X026184Y020049D01*
X026305Y019988D02*
X026491Y019988D01*
X026552Y019926D01*
X026552Y019741D01*
X026305Y019741D02*
X026305Y019988D01*
X025937Y020049D02*
X025937Y019802D01*
X025324Y020111D02*
X025201Y019988D01*
X025262Y011047D02*
X025201Y010985D01*
X025201Y010739D01*
X025262Y010677D01*
X025386Y010677D01*
X025447Y010739D01*
X025569Y010862D02*
X025816Y010862D01*
X025754Y010677D02*
X025754Y011047D01*
X025569Y010862D01*
X025447Y010985D02*
X025386Y011047D01*
X025262Y011047D01*
X025324Y009347D02*
X025324Y008977D01*
X025201Y008977D02*
X025447Y008977D01*
X025569Y009039D02*
X025816Y009285D01*
X025816Y009039D01*
X025754Y008977D01*
X025631Y008977D01*
X025569Y009039D01*
X025569Y009285D01*
X025631Y009347D01*
X025754Y009347D01*
X025816Y009285D01*
X025937Y009285D02*
X025999Y009347D01*
X026122Y009347D01*
X026184Y009285D01*
X025937Y009039D01*
X025999Y008977D01*
X026122Y008977D01*
X026184Y009039D01*
X026184Y009285D01*
X026305Y009224D02*
X026491Y009224D01*
X026552Y009162D01*
X026552Y008977D01*
X026305Y008977D02*
X026305Y009224D01*
X025937Y009285D02*
X025937Y009039D01*
X025324Y009347D02*
X025201Y009224D01*
X015746Y009874D02*
X015376Y009874D01*
X015376Y010059D01*
X015438Y010121D01*
X015561Y010121D01*
X015623Y010059D01*
X015623Y009874D01*
X015623Y009997D02*
X015746Y010121D01*
X015561Y010242D02*
X015561Y010489D01*
X015376Y010427D02*
X015561Y010242D01*
X015746Y010427D02*
X015376Y010427D01*
X015550Y010871D02*
X015673Y010871D01*
X015735Y010933D01*
X015735Y011057D01*
X015673Y011118D01*
X015550Y011118D01*
X015488Y011057D01*
X015488Y010933D01*
X015550Y010871D01*
X015612Y011240D02*
X015488Y011363D01*
X015488Y011425D01*
X015488Y011240D02*
X015735Y011240D01*
X015691Y011943D02*
X015753Y012004D01*
X015753Y012128D01*
X015691Y012190D01*
X015382Y012190D01*
X015382Y012311D02*
X015753Y012311D01*
X015753Y012558D01*
X015753Y012679D02*
X015382Y012679D01*
X015753Y012926D01*
X015382Y012926D01*
X015444Y013048D02*
X015382Y013109D01*
X015382Y013233D01*
X015444Y013294D01*
X015506Y013294D01*
X015753Y013048D01*
X015753Y013294D01*
X015691Y013416D02*
X015753Y013478D01*
X015753Y013601D01*
X015691Y013663D01*
X015629Y013663D01*
X015568Y013601D01*
X015568Y013478D01*
X015506Y013416D01*
X015444Y013416D01*
X015382Y013478D01*
X015382Y013601D01*
X015444Y013663D01*
X015506Y013663D01*
X015568Y013601D01*
X015568Y013478D02*
X015629Y013416D01*
X015691Y013416D01*
X015691Y013784D02*
X015444Y014031D01*
X015691Y014031D01*
X015753Y013969D01*
X015753Y013846D01*
X015691Y013784D01*
X015444Y013784D01*
X015382Y013846D01*
X015382Y013969D01*
X015444Y014031D01*
X015444Y014153D02*
X015382Y014214D01*
X015382Y014338D01*
X015444Y014399D01*
X015506Y014399D01*
X015568Y014338D01*
X015629Y014399D01*
X015691Y014399D01*
X015753Y014338D01*
X015753Y014214D01*
X015691Y014153D01*
X015568Y014276D02*
X015568Y014338D01*
X015691Y011943D02*
X015382Y011943D01*
X014082Y009081D02*
X014082Y009019D01*
X013835Y008772D01*
X013835Y008711D01*
X013652Y008772D02*
X013652Y009081D01*
X013590Y009081D02*
X013714Y009081D01*
X013835Y009081D02*
X014082Y009081D01*
X013652Y008772D02*
X013590Y008711D01*
X013528Y008711D01*
X013467Y008772D01*
D11*
X014250Y012856D02*
X014050Y013056D01*
X014250Y013256D01*
X014050Y013056D02*
X014950Y013056D01*
X014250Y023556D02*
X014050Y023756D01*
X014250Y023956D01*
X014050Y023756D02*
X014950Y023756D01*
X014250Y034256D02*
X014050Y034456D01*
X014250Y034656D01*
X014050Y034456D02*
X014950Y034456D01*
X014250Y045056D02*
X014050Y045256D01*
X014250Y045456D01*
X014050Y045256D02*
X014950Y045256D01*
X025986Y042464D02*
X025986Y042164D01*
X025986Y041864D01*
X026186Y041864D02*
X026186Y042164D01*
X026186Y042464D01*
X026186Y031756D02*
X026186Y031456D01*
X026186Y031156D01*
X025986Y031156D02*
X025986Y031456D01*
X025986Y031756D01*
X025986Y021126D02*
X025986Y020826D01*
X025986Y020526D01*
X026186Y020526D02*
X026186Y020826D01*
X026186Y021126D01*
X026186Y010362D02*
X026186Y010062D01*
X026186Y009762D01*
X025986Y009762D02*
X025986Y010062D01*
X025986Y010362D01*
D12*
X025986Y010062D02*
X025936Y010062D01*
X026186Y010062D02*
X026236Y010062D01*
X026936Y010562D02*
X026953Y010560D01*
X026970Y010556D01*
X026986Y010549D01*
X027000Y010539D01*
X027013Y010526D01*
X027023Y010512D01*
X027030Y010496D01*
X027034Y010479D01*
X027036Y010462D01*
X027036Y009662D01*
X027034Y009645D01*
X027030Y009628D01*
X027023Y009612D01*
X027013Y009598D01*
X027000Y009585D01*
X026986Y009575D01*
X026970Y009568D01*
X026953Y009564D01*
X026936Y009562D01*
X025236Y009562D01*
X025219Y009564D01*
X025202Y009568D01*
X025186Y009575D01*
X025172Y009585D01*
X025159Y009598D01*
X025149Y009612D01*
X025142Y009628D01*
X025138Y009645D01*
X025136Y009662D01*
X025136Y010462D01*
X025138Y010479D01*
X025142Y010496D01*
X025149Y010512D01*
X025159Y010526D01*
X025172Y010539D01*
X025186Y010549D01*
X025202Y010556D01*
X025219Y010560D01*
X025236Y010562D01*
X026936Y010562D01*
X023692Y008578D02*
X021392Y008578D01*
X021392Y016578D01*
X022142Y016578D01*
X022144Y016539D01*
X022150Y016500D01*
X022159Y016462D01*
X022172Y016425D01*
X022189Y016389D01*
X022209Y016356D01*
X022233Y016324D01*
X022259Y016295D01*
X022288Y016269D01*
X022320Y016245D01*
X022353Y016225D01*
X022389Y016208D01*
X022426Y016195D01*
X022464Y016186D01*
X022503Y016180D01*
X022542Y016178D01*
X022581Y016180D01*
X022620Y016186D01*
X022658Y016195D01*
X022695Y016208D01*
X022731Y016225D01*
X022764Y016245D01*
X022796Y016269D01*
X022825Y016295D01*
X022851Y016324D01*
X022875Y016356D01*
X022895Y016389D01*
X022912Y016425D01*
X022925Y016462D01*
X022934Y016500D01*
X022940Y016539D01*
X022942Y016578D01*
X023692Y016578D01*
X023692Y008578D01*
X018968Y009578D02*
X018218Y009578D01*
X018216Y009617D01*
X018210Y009656D01*
X018201Y009694D01*
X018188Y009731D01*
X018171Y009767D01*
X018151Y009800D01*
X018127Y009832D01*
X018101Y009861D01*
X018072Y009887D01*
X018040Y009911D01*
X018007Y009931D01*
X017971Y009948D01*
X017934Y009961D01*
X017896Y009970D01*
X017857Y009976D01*
X017818Y009978D01*
X017779Y009976D01*
X017740Y009970D01*
X017702Y009961D01*
X017665Y009948D01*
X017629Y009931D01*
X017596Y009911D01*
X017564Y009887D01*
X017535Y009861D01*
X017509Y009832D01*
X017485Y009800D01*
X017465Y009767D01*
X017448Y009731D01*
X017435Y009694D01*
X017426Y009656D01*
X017420Y009617D01*
X017418Y009578D01*
X016668Y009578D01*
X016668Y018578D01*
X018968Y018578D01*
X018968Y009578D01*
X021392Y019326D02*
X023692Y019326D01*
X023692Y027326D01*
X022942Y027326D01*
X022940Y027287D01*
X022934Y027248D01*
X022925Y027210D01*
X022912Y027173D01*
X022895Y027137D01*
X022875Y027104D01*
X022851Y027072D01*
X022825Y027043D01*
X022796Y027017D01*
X022764Y026993D01*
X022731Y026973D01*
X022695Y026956D01*
X022658Y026943D01*
X022620Y026934D01*
X022581Y026928D01*
X022542Y026926D01*
X022503Y026928D01*
X022464Y026934D01*
X022426Y026943D01*
X022389Y026956D01*
X022353Y026973D01*
X022320Y026993D01*
X022288Y027017D01*
X022259Y027043D01*
X022233Y027072D01*
X022209Y027104D01*
X022189Y027137D01*
X022172Y027173D01*
X022159Y027210D01*
X022150Y027248D01*
X022144Y027287D01*
X022142Y027326D01*
X021392Y027326D01*
X021392Y019326D01*
X018968Y020326D02*
X018218Y020326D01*
X018216Y020365D01*
X018210Y020404D01*
X018201Y020442D01*
X018188Y020479D01*
X018171Y020515D01*
X018151Y020548D01*
X018127Y020580D01*
X018101Y020609D01*
X018072Y020635D01*
X018040Y020659D01*
X018007Y020679D01*
X017971Y020696D01*
X017934Y020709D01*
X017896Y020718D01*
X017857Y020724D01*
X017818Y020726D01*
X017779Y020724D01*
X017740Y020718D01*
X017702Y020709D01*
X017665Y020696D01*
X017629Y020679D01*
X017596Y020659D01*
X017564Y020635D01*
X017535Y020609D01*
X017509Y020580D01*
X017485Y020548D01*
X017465Y020515D01*
X017448Y020479D01*
X017435Y020442D01*
X017426Y020404D01*
X017420Y020365D01*
X017418Y020326D01*
X016668Y020326D01*
X016668Y029326D01*
X018968Y029326D01*
X018968Y020326D01*
X021392Y029956D02*
X023692Y029956D01*
X023692Y037956D01*
X022942Y037956D01*
X022940Y037917D01*
X022934Y037878D01*
X022925Y037840D01*
X022912Y037803D01*
X022895Y037767D01*
X022875Y037734D01*
X022851Y037702D01*
X022825Y037673D01*
X022796Y037647D01*
X022764Y037623D01*
X022731Y037603D01*
X022695Y037586D01*
X022658Y037573D01*
X022620Y037564D01*
X022581Y037558D01*
X022542Y037556D01*
X022503Y037558D01*
X022464Y037564D01*
X022426Y037573D01*
X022389Y037586D01*
X022353Y037603D01*
X022320Y037623D01*
X022288Y037647D01*
X022259Y037673D01*
X022233Y037702D01*
X022209Y037734D01*
X022189Y037767D01*
X022172Y037803D01*
X022159Y037840D01*
X022150Y037878D01*
X022144Y037917D01*
X022142Y037956D01*
X021392Y037956D01*
X021392Y029956D01*
X018968Y030956D02*
X018218Y030956D01*
X018216Y030995D01*
X018210Y031034D01*
X018201Y031072D01*
X018188Y031109D01*
X018171Y031145D01*
X018151Y031178D01*
X018127Y031210D01*
X018101Y031239D01*
X018072Y031265D01*
X018040Y031289D01*
X018007Y031309D01*
X017971Y031326D01*
X017934Y031339D01*
X017896Y031348D01*
X017857Y031354D01*
X017818Y031356D01*
X017779Y031354D01*
X017740Y031348D01*
X017702Y031339D01*
X017665Y031326D01*
X017629Y031309D01*
X017596Y031289D01*
X017564Y031265D01*
X017535Y031239D01*
X017509Y031210D01*
X017485Y031178D01*
X017465Y031145D01*
X017448Y031109D01*
X017435Y031072D01*
X017426Y031034D01*
X017420Y030995D01*
X017418Y030956D01*
X016668Y030956D01*
X016668Y039956D01*
X018968Y039956D01*
X018968Y030956D01*
X025136Y031056D02*
X025136Y031856D01*
X025138Y031873D01*
X025142Y031890D01*
X025149Y031906D01*
X025159Y031920D01*
X025172Y031933D01*
X025186Y031943D01*
X025202Y031950D01*
X025219Y031954D01*
X025236Y031956D01*
X026936Y031956D01*
X026953Y031954D01*
X026970Y031950D01*
X026986Y031943D01*
X027000Y031933D01*
X027013Y031920D01*
X027023Y031906D01*
X027030Y031890D01*
X027034Y031873D01*
X027036Y031856D01*
X027036Y031056D01*
X027034Y031039D01*
X027030Y031022D01*
X027023Y031006D01*
X027013Y030992D01*
X027000Y030979D01*
X026986Y030969D01*
X026970Y030962D01*
X026953Y030958D01*
X026936Y030956D01*
X025236Y030956D01*
X025219Y030958D01*
X025202Y030962D01*
X025186Y030969D01*
X025172Y030979D01*
X025159Y030992D01*
X025149Y031006D01*
X025142Y031022D01*
X025138Y031039D01*
X025136Y031056D01*
X025936Y031456D02*
X025986Y031456D01*
X026186Y031456D02*
X026236Y031456D01*
X023692Y040664D02*
X021392Y040664D01*
X021392Y048664D01*
X022142Y048664D01*
X022144Y048625D01*
X022150Y048586D01*
X022159Y048548D01*
X022172Y048511D01*
X022189Y048475D01*
X022209Y048442D01*
X022233Y048410D01*
X022259Y048381D01*
X022288Y048355D01*
X022320Y048331D01*
X022353Y048311D01*
X022389Y048294D01*
X022426Y048281D01*
X022464Y048272D01*
X022503Y048266D01*
X022542Y048264D01*
X022581Y048266D01*
X022620Y048272D01*
X022658Y048281D01*
X022695Y048294D01*
X022731Y048311D01*
X022764Y048331D01*
X022796Y048355D01*
X022825Y048381D01*
X022851Y048410D01*
X022875Y048442D01*
X022895Y048475D01*
X022912Y048511D01*
X022925Y048548D01*
X022934Y048586D01*
X022940Y048625D01*
X022942Y048664D01*
X023692Y048664D01*
X023692Y040664D01*
X025136Y041764D02*
X025136Y042564D01*
X025138Y042581D01*
X025142Y042598D01*
X025149Y042614D01*
X025159Y042628D01*
X025172Y042641D01*
X025186Y042651D01*
X025202Y042658D01*
X025219Y042662D01*
X025236Y042664D01*
X026936Y042664D01*
X026953Y042662D01*
X026970Y042658D01*
X026986Y042651D01*
X027000Y042641D01*
X027013Y042628D01*
X027023Y042614D01*
X027030Y042598D01*
X027034Y042581D01*
X027036Y042564D01*
X027036Y041764D01*
X027034Y041747D01*
X027030Y041730D01*
X027023Y041714D01*
X027013Y041700D01*
X027000Y041687D01*
X026986Y041677D01*
X026970Y041670D01*
X026953Y041666D01*
X026936Y041664D01*
X025236Y041664D01*
X025219Y041666D01*
X025202Y041670D01*
X025186Y041677D01*
X025172Y041687D01*
X025159Y041700D01*
X025149Y041714D01*
X025142Y041730D01*
X025138Y041747D01*
X025136Y041764D01*
X025936Y042164D02*
X025986Y042164D01*
X026186Y042164D02*
X026236Y042164D01*
X018968Y041664D02*
X018218Y041664D01*
X018216Y041703D01*
X018210Y041742D01*
X018201Y041780D01*
X018188Y041817D01*
X018171Y041853D01*
X018151Y041886D01*
X018127Y041918D01*
X018101Y041947D01*
X018072Y041973D01*
X018040Y041997D01*
X018007Y042017D01*
X017971Y042034D01*
X017934Y042047D01*
X017896Y042056D01*
X017857Y042062D01*
X017818Y042064D01*
X017779Y042062D01*
X017740Y042056D01*
X017702Y042047D01*
X017665Y042034D01*
X017629Y042017D01*
X017596Y041997D01*
X017564Y041973D01*
X017535Y041947D01*
X017509Y041918D01*
X017485Y041886D01*
X017465Y041853D01*
X017448Y041817D01*
X017435Y041780D01*
X017426Y041742D01*
X017420Y041703D01*
X017418Y041664D01*
X016668Y041664D01*
X016668Y050664D01*
X018968Y050664D01*
X018968Y041664D01*
X025236Y021326D02*
X026936Y021326D01*
X026953Y021324D01*
X026970Y021320D01*
X026986Y021313D01*
X027000Y021303D01*
X027013Y021290D01*
X027023Y021276D01*
X027030Y021260D01*
X027034Y021243D01*
X027036Y021226D01*
X027036Y020426D01*
X027034Y020409D01*
X027030Y020392D01*
X027023Y020376D01*
X027013Y020362D01*
X027000Y020349D01*
X026986Y020339D01*
X026970Y020332D01*
X026953Y020328D01*
X026936Y020326D01*
X025236Y020326D01*
X025219Y020328D01*
X025202Y020332D01*
X025186Y020339D01*
X025172Y020349D01*
X025159Y020362D01*
X025149Y020376D01*
X025142Y020392D01*
X025138Y020409D01*
X025136Y020426D01*
X025136Y021226D01*
X025138Y021243D01*
X025142Y021260D01*
X025149Y021276D01*
X025159Y021290D01*
X025172Y021303D01*
X025186Y021313D01*
X025202Y021320D01*
X025219Y021324D01*
X025236Y021326D01*
X025936Y020826D02*
X025986Y020826D01*
X026186Y020826D02*
X026236Y020826D01*
D13*
X013859Y010078D02*
X010359Y010078D01*
X010359Y011928D01*
X010559Y012078D01*
X010559Y012278D01*
X010559Y012878D01*
X010559Y013078D01*
X010359Y013228D01*
X010359Y013278D01*
X010759Y013278D01*
X010859Y013278D01*
X010859Y012878D01*
X010859Y012278D01*
X010759Y012278D01*
X010559Y012278D01*
X010859Y012278D02*
X010859Y010578D01*
X013359Y010578D01*
X013359Y017578D01*
X010859Y017578D01*
X010859Y014878D01*
X010759Y014878D01*
X010359Y014878D01*
X010359Y015828D01*
X010409Y015828D01*
X010409Y016328D01*
X010359Y016328D01*
X010359Y018078D01*
X013859Y018078D01*
X013859Y017578D01*
X013959Y017578D01*
X013959Y017078D01*
X013859Y017078D01*
X013859Y014328D01*
X013959Y014328D01*
X013959Y013828D01*
X013859Y013828D01*
X013859Y011078D01*
X013959Y011078D01*
X013959Y010578D01*
X013859Y010578D01*
X013859Y010078D01*
X013952Y008546D02*
X013952Y008446D01*
X013452Y008446D01*
X013452Y004946D01*
X015202Y004946D01*
X015202Y004996D01*
X015702Y004996D01*
X015702Y004946D01*
X016652Y004946D01*
X016652Y005346D01*
X016652Y005446D01*
X013952Y005446D01*
X013952Y007946D01*
X020952Y007946D01*
X020952Y005446D01*
X019252Y005446D01*
X018652Y005446D01*
X018252Y005446D01*
X018252Y005346D01*
X018252Y004946D01*
X016652Y004946D01*
X017077Y005121D02*
X017377Y005121D01*
X017227Y005121D02*
X017227Y005571D01*
X017077Y005421D01*
X016652Y005446D02*
X016652Y005746D01*
X018252Y005746D01*
X018252Y005446D01*
X018452Y005146D02*
X018652Y005146D01*
X019252Y005146D01*
X019252Y005346D01*
X019252Y005446D01*
X019252Y005146D02*
X019452Y005146D01*
X019602Y004946D01*
X021452Y004946D01*
X021452Y008446D01*
X020952Y008446D01*
X020952Y008546D01*
X020452Y008546D01*
X020452Y008446D01*
X017702Y008446D01*
X017702Y008546D01*
X017202Y008546D01*
X017202Y008446D01*
X014452Y008446D01*
X014452Y008546D01*
X013952Y008546D01*
X014552Y007421D02*
X014477Y007346D01*
X014552Y007421D02*
X014702Y007421D01*
X014777Y007346D01*
X014777Y007271D01*
X014477Y006971D01*
X014777Y006971D01*
X014627Y006421D02*
X014627Y005971D01*
X014477Y005971D02*
X014777Y005971D01*
X014477Y006271D02*
X014627Y006421D01*
X017537Y005496D02*
X017612Y005571D01*
X017762Y005571D01*
X017837Y005496D01*
X017537Y005196D01*
X017612Y005121D01*
X017762Y005121D01*
X017837Y005196D01*
X017837Y005496D01*
X017537Y005496D02*
X017537Y005196D01*
X018252Y004946D02*
X018302Y004946D01*
X018452Y005146D01*
X018652Y005146D02*
X018652Y005346D01*
X018652Y005446D01*
X022317Y012330D02*
X022317Y012630D01*
X022392Y012630D01*
X022692Y012330D01*
X022767Y012330D01*
X022542Y012790D02*
X022542Y013091D01*
X022542Y013251D02*
X022542Y013551D01*
X022392Y013711D02*
X022692Y013711D01*
X022767Y013786D01*
X022767Y013936D01*
X022692Y014011D01*
X022692Y014171D02*
X022767Y014247D01*
X022767Y014397D01*
X022692Y014472D01*
X022542Y014472D01*
X022467Y014397D01*
X022467Y014322D01*
X022542Y014171D01*
X022317Y014171D01*
X022317Y014472D01*
X022392Y014632D02*
X022467Y014632D01*
X022542Y014707D01*
X022542Y014932D01*
X022392Y014932D02*
X022317Y014857D01*
X022317Y014707D01*
X022392Y014632D01*
X022392Y014932D02*
X022692Y014932D01*
X022767Y014857D01*
X022767Y014707D01*
X022692Y014632D01*
X022692Y015092D02*
X022767Y015167D01*
X022767Y015317D01*
X022692Y015392D01*
X022542Y015392D01*
X022467Y015317D01*
X022467Y015242D01*
X022542Y015092D01*
X022317Y015092D01*
X022317Y015392D01*
X022410Y016753D02*
X022410Y017203D01*
X022185Y016978D01*
X022485Y016978D01*
X022024Y017128D02*
X021949Y017203D01*
X021799Y017203D01*
X021724Y017128D01*
X021724Y016828D01*
X021799Y016753D01*
X021949Y016753D01*
X022024Y016828D01*
X021567Y016753D02*
X021417Y016753D01*
X021492Y016753D02*
X021492Y017203D01*
X021417Y017203D02*
X021567Y017203D01*
X022392Y014011D02*
X022317Y013936D01*
X022317Y013786D01*
X022392Y013711D01*
X022317Y013551D02*
X022767Y013551D01*
X022767Y013251D02*
X022317Y013251D01*
X022317Y013015D02*
X022542Y012790D01*
X022767Y013015D02*
X022317Y013015D01*
X022317Y023078D02*
X022317Y023378D01*
X022392Y023378D01*
X022692Y023078D01*
X022767Y023078D01*
X022542Y023538D02*
X022542Y023839D01*
X022542Y023999D02*
X022542Y024299D01*
X022392Y024459D02*
X022692Y024459D01*
X022767Y024534D01*
X022767Y024684D01*
X022692Y024759D01*
X022692Y024919D02*
X022767Y024995D01*
X022767Y025145D01*
X022692Y025220D01*
X022542Y025220D01*
X022467Y025145D01*
X022467Y025070D01*
X022542Y024919D01*
X022317Y024919D01*
X022317Y025220D01*
X022392Y025380D02*
X022467Y025380D01*
X022542Y025455D01*
X022542Y025680D01*
X022392Y025680D02*
X022317Y025605D01*
X022317Y025455D01*
X022392Y025380D01*
X022392Y025680D02*
X022692Y025680D01*
X022767Y025605D01*
X022767Y025455D01*
X022692Y025380D01*
X022692Y025840D02*
X022767Y025915D01*
X022767Y026065D01*
X022692Y026141D01*
X022542Y026141D01*
X022467Y026065D01*
X022467Y025990D01*
X022542Y025840D01*
X022317Y025840D01*
X022317Y026141D01*
X022260Y027501D02*
X022185Y027576D01*
X022260Y027501D02*
X022410Y027501D01*
X022485Y027576D01*
X022485Y027651D01*
X022410Y027726D01*
X022335Y027726D01*
X022410Y027726D02*
X022485Y027801D01*
X022485Y027876D01*
X022410Y027951D01*
X022260Y027951D01*
X022185Y027876D01*
X022024Y027876D02*
X021949Y027951D01*
X021799Y027951D01*
X021724Y027876D01*
X021724Y027576D01*
X021799Y027501D01*
X021949Y027501D01*
X022024Y027576D01*
X021567Y027501D02*
X021417Y027501D01*
X021492Y027501D02*
X021492Y027951D01*
X021417Y027951D02*
X021567Y027951D01*
X022392Y024759D02*
X022317Y024684D01*
X022317Y024534D01*
X022392Y024459D01*
X022317Y024299D02*
X022767Y024299D01*
X022767Y023999D02*
X022317Y023999D01*
X022317Y023764D02*
X022542Y023538D01*
X022767Y023764D02*
X022317Y023764D01*
X022317Y033708D02*
X022317Y034008D01*
X022392Y034008D01*
X022692Y033708D01*
X022767Y033708D01*
X022542Y034168D02*
X022542Y034468D01*
X022542Y034629D02*
X022542Y034929D01*
X022392Y035089D02*
X022692Y035089D01*
X022767Y035164D01*
X022767Y035314D01*
X022692Y035389D01*
X022692Y035549D02*
X022767Y035624D01*
X022767Y035775D01*
X022692Y035850D01*
X022542Y035850D01*
X022467Y035775D01*
X022467Y035700D01*
X022542Y035549D01*
X022317Y035549D01*
X022317Y035850D01*
X022392Y036010D02*
X022467Y036010D01*
X022542Y036085D01*
X022542Y036310D01*
X022392Y036310D02*
X022317Y036235D01*
X022317Y036085D01*
X022392Y036010D01*
X022392Y036310D02*
X022692Y036310D01*
X022767Y036235D01*
X022767Y036085D01*
X022692Y036010D01*
X022692Y036470D02*
X022767Y036545D01*
X022767Y036695D01*
X022692Y036770D01*
X022542Y036770D01*
X022467Y036695D01*
X022467Y036620D01*
X022542Y036470D01*
X022317Y036470D01*
X022317Y036770D01*
X022185Y038131D02*
X022485Y038431D01*
X022485Y038506D01*
X022410Y038581D01*
X022260Y038581D01*
X022185Y038506D01*
X022024Y038506D02*
X021949Y038581D01*
X021799Y038581D01*
X021724Y038506D01*
X021724Y038206D01*
X021799Y038131D01*
X021949Y038131D01*
X022024Y038206D01*
X022185Y038131D02*
X022485Y038131D01*
X021567Y038131D02*
X021417Y038131D01*
X021492Y038131D02*
X021492Y038581D01*
X021417Y038581D02*
X021567Y038581D01*
X022392Y035389D02*
X022317Y035314D01*
X022317Y035164D01*
X022392Y035089D01*
X022317Y034929D02*
X022767Y034929D01*
X022767Y034629D02*
X022317Y034629D01*
X022317Y034393D02*
X022542Y034168D01*
X022767Y034393D02*
X022317Y034393D01*
X022317Y044416D02*
X022317Y044717D01*
X022392Y044717D01*
X022692Y044416D01*
X022767Y044416D01*
X022542Y044877D02*
X022542Y045177D01*
X022542Y045337D02*
X022542Y045638D01*
X022392Y045798D02*
X022692Y045798D01*
X022767Y045873D01*
X022767Y046023D01*
X022692Y046098D01*
X022692Y046258D02*
X022767Y046333D01*
X022767Y046483D01*
X022692Y046558D01*
X022542Y046558D01*
X022467Y046483D01*
X022467Y046408D01*
X022542Y046258D01*
X022317Y046258D01*
X022317Y046558D01*
X022392Y046718D02*
X022467Y046718D01*
X022542Y046794D01*
X022542Y047019D01*
X022392Y047019D02*
X022317Y046944D01*
X022317Y046794D01*
X022392Y046718D01*
X022692Y046718D02*
X022767Y046794D01*
X022767Y046944D01*
X022692Y047019D01*
X022392Y047019D01*
X022317Y047179D02*
X022542Y047179D01*
X022467Y047329D01*
X022467Y047404D01*
X022542Y047479D01*
X022692Y047479D01*
X022767Y047404D01*
X022767Y047254D01*
X022692Y047179D01*
X022317Y047179D02*
X022317Y047479D01*
X021567Y048839D02*
X021417Y048839D01*
X021492Y048839D02*
X021492Y049290D01*
X021417Y049290D02*
X021567Y049290D01*
X020952Y051204D02*
X020452Y051204D01*
X020452Y051304D01*
X017702Y051304D01*
X017702Y051204D01*
X017202Y051204D01*
X017202Y051304D01*
X014452Y051304D01*
X014452Y051204D01*
X013952Y051204D01*
X013952Y051304D01*
X013452Y051304D01*
X013452Y054804D01*
X015302Y054804D01*
X015452Y054604D01*
X015652Y054604D01*
X016252Y054604D01*
X016452Y054604D01*
X016602Y054804D01*
X016652Y054804D01*
X016652Y054404D01*
X016652Y054304D01*
X016252Y054304D01*
X015652Y054304D01*
X015652Y054404D01*
X015652Y054604D01*
X015652Y054304D02*
X013952Y054304D01*
X013952Y051804D01*
X020952Y051804D01*
X020952Y054304D01*
X018252Y054304D01*
X018252Y054404D01*
X018252Y054804D01*
X019202Y054804D01*
X019202Y054754D01*
X019702Y054754D01*
X019702Y054804D01*
X021452Y054804D01*
X021452Y051304D01*
X020952Y051304D01*
X020952Y051204D01*
X020317Y052329D02*
X020016Y052329D01*
X020317Y052629D01*
X020317Y052704D01*
X020241Y052779D01*
X020091Y052779D01*
X020016Y052704D01*
X020016Y053329D02*
X020317Y053329D01*
X020166Y053329D02*
X020166Y053779D01*
X020016Y053629D01*
X020452Y054885D02*
X020452Y054985D01*
X017702Y054985D01*
X017702Y054885D01*
X017202Y054885D01*
X017202Y054985D01*
X014452Y054985D01*
X014452Y054885D01*
X013952Y054885D01*
X013952Y054985D01*
X013452Y054985D01*
X013452Y058485D01*
X015302Y058485D01*
X015452Y058285D01*
X015652Y058285D01*
X016252Y058285D01*
X016452Y058285D01*
X016602Y058485D01*
X016652Y058485D01*
X016652Y058085D01*
X016652Y057985D01*
X016252Y057985D01*
X015652Y057985D01*
X015652Y058085D01*
X015652Y058285D01*
X015652Y057985D02*
X013952Y057985D01*
X013952Y055485D01*
X020952Y055485D01*
X020952Y057985D01*
X018252Y057985D01*
X018252Y058085D01*
X018252Y058485D01*
X019202Y058485D01*
X019202Y058435D01*
X019702Y058435D01*
X019702Y058485D01*
X021452Y058485D01*
X021452Y054985D01*
X020952Y054985D01*
X020952Y054885D01*
X020452Y054885D01*
X020317Y056010D02*
X020016Y056010D01*
X020317Y056310D01*
X020317Y056385D01*
X020241Y056461D01*
X020091Y056461D01*
X020016Y056385D01*
X020016Y057010D02*
X020317Y057010D01*
X020166Y057010D02*
X020166Y057461D01*
X020016Y057310D01*
X018252Y057685D02*
X018252Y057985D01*
X018252Y057685D02*
X016652Y057685D01*
X016652Y057985D01*
X016956Y057860D02*
X017256Y057860D01*
X017106Y057860D02*
X017106Y058311D01*
X016956Y058160D01*
X016652Y058485D02*
X018252Y058485D01*
X017717Y058235D02*
X017416Y057935D01*
X017491Y057860D01*
X017641Y057860D01*
X017717Y057935D01*
X017717Y058235D01*
X017641Y058311D01*
X017491Y058311D01*
X017416Y058235D01*
X017416Y057935D01*
X016252Y057985D02*
X016252Y058085D01*
X016252Y058285D01*
X016652Y054804D02*
X018252Y054804D01*
X018252Y054304D02*
X018252Y054004D01*
X016652Y054004D01*
X016652Y054304D01*
X016956Y054179D02*
X017256Y054179D01*
X017106Y054179D02*
X017106Y054629D01*
X016956Y054479D01*
X017416Y054554D02*
X017416Y054254D01*
X017717Y054554D01*
X017717Y054254D01*
X017641Y054179D01*
X017491Y054179D01*
X017416Y054254D01*
X017416Y054554D02*
X017491Y054629D01*
X017641Y054629D01*
X017717Y054554D01*
X016252Y054604D02*
X016252Y054404D01*
X016252Y054304D01*
X013859Y050164D02*
X010359Y050164D01*
X010359Y048414D01*
X010409Y048414D01*
X010409Y047914D01*
X010359Y047914D01*
X010359Y046964D01*
X010759Y046964D01*
X010859Y046964D01*
X010859Y049664D01*
X013359Y049664D01*
X013359Y042664D01*
X010859Y042664D01*
X010859Y044364D01*
X010859Y044964D01*
X010859Y045364D01*
X010759Y045364D01*
X010359Y045364D01*
X010359Y046964D01*
X010859Y046964D02*
X011159Y046964D01*
X011159Y045364D01*
X010859Y045364D01*
X010984Y045668D02*
X010984Y045969D01*
X010984Y045819D02*
X010534Y045819D01*
X010684Y045668D01*
X010359Y045364D02*
X010359Y045314D01*
X010559Y045164D01*
X010559Y044964D01*
X010559Y044364D01*
X010759Y044364D01*
X010859Y044364D01*
X010559Y044364D02*
X010559Y044164D01*
X010359Y044014D01*
X010359Y042164D01*
X013859Y042164D01*
X013859Y042664D01*
X013959Y042664D01*
X013959Y043164D01*
X013859Y043164D01*
X013859Y045914D01*
X013959Y045914D01*
X013959Y046414D01*
X013859Y046414D01*
X013859Y049164D01*
X013959Y049164D01*
X013959Y049664D01*
X013859Y049664D01*
X013859Y050164D01*
X012834Y049029D02*
X012834Y048729D01*
X012534Y049029D01*
X012459Y049029D01*
X012384Y048954D01*
X012384Y048804D01*
X012459Y048729D01*
X011834Y048729D02*
X011834Y049029D01*
X011834Y048879D02*
X011384Y048879D01*
X011534Y048729D01*
X010909Y046429D02*
X010609Y046429D01*
X010909Y046129D01*
X010984Y046204D01*
X010984Y046354D01*
X010909Y046429D01*
X010909Y046129D02*
X010609Y046129D01*
X010534Y046204D01*
X010534Y046354D01*
X010609Y046429D01*
X010559Y044964D02*
X010759Y044964D01*
X010859Y044964D01*
X010359Y039456D02*
X010359Y037706D01*
X010409Y037706D01*
X010409Y037206D01*
X010359Y037206D01*
X010359Y036256D01*
X010759Y036256D01*
X010859Y036256D01*
X010859Y038956D01*
X013359Y038956D01*
X013359Y031956D01*
X010859Y031956D01*
X010859Y033656D01*
X010859Y034256D01*
X010859Y034656D01*
X010759Y034656D01*
X010359Y034656D01*
X010359Y036256D01*
X010859Y036256D02*
X011159Y036256D01*
X011159Y034656D01*
X010859Y034656D01*
X010984Y034960D02*
X010984Y035260D01*
X010984Y035110D02*
X010534Y035110D01*
X010684Y034960D01*
X010359Y034656D02*
X010359Y034606D01*
X010559Y034456D01*
X010559Y034256D01*
X010559Y033656D01*
X010759Y033656D01*
X010859Y033656D01*
X010559Y033656D02*
X010559Y033456D01*
X010359Y033306D01*
X010359Y031456D01*
X013859Y031456D01*
X013859Y031956D01*
X013959Y031956D01*
X013959Y032456D01*
X013859Y032456D01*
X013859Y035206D01*
X013959Y035206D01*
X013959Y035706D01*
X013859Y035706D01*
X013859Y038456D01*
X013959Y038456D01*
X013959Y038956D01*
X013859Y038956D01*
X013859Y039456D01*
X010359Y039456D01*
X011384Y038170D02*
X011834Y038170D01*
X011834Y038020D02*
X011834Y038320D01*
X011534Y038020D02*
X011384Y038170D01*
X012384Y038095D02*
X012459Y038020D01*
X012384Y038095D02*
X012384Y038245D01*
X012459Y038320D01*
X012534Y038320D01*
X012834Y038020D01*
X012834Y038320D01*
X010909Y035720D02*
X010984Y035645D01*
X010984Y035495D01*
X010909Y035420D01*
X010609Y035720D01*
X010909Y035720D01*
X010909Y035420D02*
X010609Y035420D01*
X010534Y035495D01*
X010534Y035645D01*
X010609Y035720D01*
X010559Y034256D02*
X010759Y034256D01*
X010859Y034256D01*
X010359Y028826D02*
X010359Y027076D01*
X010409Y027076D01*
X010409Y026576D01*
X010359Y026576D01*
X010359Y025626D01*
X010759Y025626D01*
X010859Y025626D01*
X010859Y028326D01*
X013359Y028326D01*
X013359Y021326D01*
X010859Y021326D01*
X010859Y023026D01*
X010859Y023626D01*
X010859Y024026D01*
X010759Y024026D01*
X010359Y024026D01*
X010359Y025626D01*
X010859Y025626D02*
X011159Y025626D01*
X011159Y024026D01*
X010859Y024026D01*
X010984Y024330D02*
X010984Y024630D01*
X010984Y024480D02*
X010534Y024480D01*
X010684Y024330D01*
X010359Y024026D02*
X010359Y023976D01*
X010559Y023826D01*
X010559Y023626D01*
X010559Y023026D01*
X010759Y023026D01*
X010859Y023026D01*
X010559Y023026D02*
X010559Y022826D01*
X010359Y022676D01*
X010359Y020826D01*
X013859Y020826D01*
X013859Y021326D01*
X013959Y021326D01*
X013959Y021826D01*
X013859Y021826D01*
X013859Y024576D01*
X013959Y024576D01*
X013959Y025076D01*
X013859Y025076D01*
X013859Y027826D01*
X013959Y027826D01*
X013959Y028326D01*
X013859Y028326D01*
X013859Y028826D01*
X010359Y028826D01*
X011384Y027540D02*
X011834Y027540D01*
X011834Y027390D02*
X011834Y027691D01*
X011534Y027390D02*
X011384Y027540D01*
X012384Y027465D02*
X012459Y027390D01*
X012384Y027465D02*
X012384Y027615D01*
X012459Y027691D01*
X012534Y027691D01*
X012834Y027390D01*
X012834Y027691D01*
X010909Y025091D02*
X010984Y025015D01*
X010984Y024865D01*
X010909Y024790D01*
X010609Y025091D01*
X010909Y025091D01*
X010609Y025091D02*
X010534Y025015D01*
X010534Y024865D01*
X010609Y024790D01*
X010909Y024790D01*
X010859Y023626D02*
X010759Y023626D01*
X010559Y023626D01*
X011834Y016943D02*
X011834Y016642D01*
X011834Y016792D02*
X011384Y016792D01*
X011534Y016642D01*
X012384Y016717D02*
X012459Y016642D01*
X012384Y016717D02*
X012384Y016867D01*
X012459Y016943D01*
X012534Y016943D01*
X012834Y016642D01*
X012834Y016943D01*
X011159Y014878D02*
X010859Y014878D01*
X011159Y014878D02*
X011159Y013278D01*
X010859Y013278D01*
X010984Y013582D02*
X010984Y013882D01*
X010984Y013732D02*
X010534Y013732D01*
X010684Y013582D01*
X010359Y013278D02*
X010359Y014878D01*
X010609Y014343D02*
X010909Y014042D01*
X010984Y014117D01*
X010984Y014267D01*
X010909Y014343D01*
X010609Y014343D01*
X010534Y014267D01*
X010534Y014117D01*
X010609Y014042D01*
X010909Y014042D01*
X010859Y012878D02*
X010759Y012878D01*
X010559Y012878D01*
X022542Y044877D02*
X022317Y045102D01*
X022767Y045102D01*
X022767Y045337D02*
X022317Y045337D01*
X022317Y045638D02*
X022767Y045638D01*
X022392Y045798D02*
X022317Y045873D01*
X022317Y046023D01*
X022392Y046098D01*
D14*
X021052Y051704D02*
X021052Y054404D01*
X018252Y054404D01*
X016652Y054404D02*
X016252Y054404D01*
X015652Y054404D02*
X013852Y054404D01*
X013852Y051704D01*
X021052Y051704D01*
X021052Y055385D02*
X021052Y058085D01*
X018252Y058085D01*
X016652Y058085D02*
X016252Y058085D01*
X015652Y058085D02*
X013852Y058085D01*
X013852Y055385D01*
X021052Y055385D01*
X013459Y049764D02*
X010759Y049764D01*
X010759Y046964D01*
X010759Y045364D02*
X010759Y044964D01*
X010759Y044364D02*
X010759Y042564D01*
X013459Y042564D01*
X013459Y049764D01*
X013459Y039056D02*
X010759Y039056D01*
X010759Y036256D01*
X010759Y034656D02*
X010759Y034256D01*
X010759Y033656D02*
X010759Y031856D01*
X013459Y031856D01*
X013459Y039056D01*
X013459Y028426D02*
X010759Y028426D01*
X010759Y025626D01*
X010759Y024026D02*
X010759Y023626D01*
X010759Y023026D02*
X010759Y021226D01*
X013459Y021226D01*
X013459Y028426D01*
X013459Y017678D02*
X010759Y017678D01*
X010759Y014878D01*
X010759Y013278D02*
X010759Y012878D01*
X010759Y012278D02*
X010759Y010478D01*
X013459Y010478D01*
X013459Y017678D01*
X013852Y008046D02*
X013852Y005346D01*
X016652Y005346D01*
X018252Y005346D02*
X018652Y005346D01*
X019252Y005346D02*
X021052Y005346D01*
X021052Y008046D01*
X013852Y008046D01*
D15*
X014429Y017361D02*
X014489Y017421D01*
X014489Y017481D01*
X014429Y017541D01*
X014129Y017541D01*
X014129Y017481D02*
X014129Y017601D01*
X014309Y017729D02*
X014309Y017909D01*
X014369Y017970D01*
X014429Y017970D01*
X014489Y017909D01*
X014489Y017789D01*
X014429Y017729D01*
X014309Y017729D01*
X014189Y017849D01*
X014129Y017970D01*
X014429Y028109D02*
X014489Y028169D01*
X014489Y028229D01*
X014429Y028289D01*
X014129Y028289D01*
X014129Y028229D02*
X014129Y028349D01*
X014129Y028477D02*
X014309Y028477D01*
X014249Y028597D01*
X014249Y028658D01*
X014309Y028718D01*
X014429Y028718D01*
X014489Y028658D01*
X014489Y028537D01*
X014429Y028477D01*
X014129Y028477D02*
X014129Y028718D01*
X014429Y038739D02*
X014489Y038799D01*
X014489Y038859D01*
X014429Y038919D01*
X014129Y038919D01*
X014129Y038859D02*
X014129Y038979D01*
X014309Y039107D02*
X014309Y039347D01*
X014489Y039287D02*
X014129Y039287D01*
X014309Y039107D01*
M02*
