G75*
%MOIN*%
%OFA0B0*%
%FSLAX24Y24*%
%IPPOS*%
%LPD*%
%AMOC8*
5,1,8,0,0,1.08239X$1,22.5*
%
%ADD10C,0.0520*%
%ADD11OC8,0.0560*%
%ADD12OC8,0.0520*%
%ADD13C,0.0050*%
%ADD14C,0.3150*%
%ADD15C,0.0160*%
%ADD16C,0.0240*%
%ADD17C,0.0290*%
%ADD18C,0.0400*%
D10*
X016318Y010078D03*
X016318Y011078D03*
X016318Y012078D03*
X016318Y013078D03*
X016318Y014078D03*
X016318Y015078D03*
X016318Y016078D03*
X016318Y017078D03*
X016318Y018078D03*
X016318Y020826D03*
X016318Y021826D03*
X016318Y022826D03*
X016318Y023826D03*
X016318Y024826D03*
X016318Y025826D03*
X016318Y026826D03*
X016318Y027826D03*
X016318Y028826D03*
X016318Y031456D03*
X016318Y032456D03*
X016318Y033456D03*
X016318Y034456D03*
X016318Y035456D03*
X016318Y036456D03*
X016318Y037456D03*
X016318Y038456D03*
X016318Y039456D03*
X016318Y042164D03*
X016318Y043164D03*
X016318Y044164D03*
X016318Y045164D03*
X016318Y046164D03*
X016318Y047164D03*
X016318Y048164D03*
X016318Y049164D03*
X016318Y050164D03*
X019318Y050164D03*
X019318Y049164D03*
X019318Y048164D03*
X019318Y047164D03*
X019318Y046164D03*
X019318Y045164D03*
X019318Y044164D03*
X019318Y043164D03*
X019318Y042164D03*
X019318Y039456D03*
X019318Y038456D03*
X019318Y037456D03*
X019318Y036456D03*
X019318Y035456D03*
X019318Y034456D03*
X019318Y033456D03*
X019318Y032456D03*
X019318Y031456D03*
X019318Y028826D03*
X019318Y027826D03*
X019318Y026826D03*
X019318Y025826D03*
X019318Y024826D03*
X019318Y023826D03*
X019318Y022826D03*
X019318Y021826D03*
X019318Y020826D03*
X019318Y018078D03*
X019318Y017078D03*
X019318Y016078D03*
X019318Y015078D03*
X019318Y014078D03*
X019318Y013078D03*
X019318Y012078D03*
X019318Y011078D03*
X019318Y010078D03*
X021042Y010078D03*
X021042Y009078D03*
X021042Y011078D03*
X021042Y012078D03*
X021042Y013078D03*
X021042Y014078D03*
X021042Y015078D03*
X021042Y016078D03*
X021042Y019826D03*
X021042Y020826D03*
X021042Y021826D03*
X021042Y022826D03*
X021042Y023826D03*
X021042Y024826D03*
X021042Y025826D03*
X021042Y026826D03*
X021042Y030456D03*
X021042Y031456D03*
X021042Y032456D03*
X021042Y033456D03*
X021042Y034456D03*
X021042Y035456D03*
X021042Y036456D03*
X021042Y037456D03*
X021042Y041164D03*
X021042Y042164D03*
X021042Y043164D03*
X021042Y044164D03*
X021042Y045164D03*
X021042Y046164D03*
X021042Y047164D03*
X021042Y048164D03*
X024042Y048164D03*
X024042Y047164D03*
X024042Y046164D03*
X024042Y045164D03*
X024042Y044164D03*
X024042Y043164D03*
X024042Y042164D03*
X024042Y041164D03*
X024042Y037456D03*
X024042Y036456D03*
X024042Y035456D03*
X024042Y034456D03*
X024042Y033456D03*
X024042Y032456D03*
X024042Y031456D03*
X024042Y030456D03*
X024042Y026826D03*
X024042Y025826D03*
X024042Y024826D03*
X024042Y023826D03*
X024042Y022826D03*
X024042Y021826D03*
X024042Y020826D03*
X024042Y019826D03*
X024042Y016078D03*
X024042Y015078D03*
X024042Y014078D03*
X024042Y013078D03*
X024042Y012078D03*
X024042Y011078D03*
X024042Y010078D03*
X024042Y009078D03*
D11*
X019452Y007196D03*
X019452Y006196D03*
X018452Y006196D03*
X018452Y007196D03*
X017452Y007196D03*
X017452Y006196D03*
X016452Y006196D03*
X016452Y007196D03*
X015452Y007196D03*
X015452Y006196D03*
X012609Y012078D03*
X012609Y013078D03*
X012609Y014078D03*
X012609Y015078D03*
X012609Y016078D03*
X011609Y016078D03*
X011609Y015078D03*
X011609Y014078D03*
X011609Y013078D03*
X011609Y012078D03*
X011609Y022826D03*
X011609Y023826D03*
X011609Y024826D03*
X011609Y025826D03*
X011609Y026826D03*
X012609Y026826D03*
X012609Y025826D03*
X012609Y024826D03*
X012609Y023826D03*
X012609Y022826D03*
X012609Y033456D03*
X012609Y034456D03*
X012609Y035456D03*
X012609Y036456D03*
X012609Y037456D03*
X011609Y037456D03*
X011609Y036456D03*
X011609Y035456D03*
X011609Y034456D03*
X011609Y033456D03*
X011609Y044164D03*
X011609Y045164D03*
X011609Y046164D03*
X011609Y047164D03*
X011609Y048164D03*
X012609Y048164D03*
X012609Y047164D03*
X012609Y046164D03*
X012609Y045164D03*
X012609Y044164D03*
X015452Y052554D03*
X015452Y053554D03*
X016452Y053554D03*
X016452Y052554D03*
X017452Y052554D03*
X017452Y053554D03*
X018452Y053554D03*
X018452Y052554D03*
X019452Y052554D03*
X019452Y053554D03*
X019452Y056235D03*
X019452Y057235D03*
X018452Y057235D03*
X018452Y056235D03*
X017452Y056235D03*
X017452Y057235D03*
X016452Y057235D03*
X016452Y056235D03*
X015452Y056235D03*
X015452Y057235D03*
D12*
X025586Y042164D03*
X026586Y042164D03*
X026586Y031456D03*
X025586Y031456D03*
X025586Y020826D03*
X026586Y020826D03*
X026586Y010062D03*
X025586Y010062D03*
D13*
X009550Y007843D02*
X009550Y005967D01*
X009550Y007843D02*
X009552Y007873D01*
X009557Y007903D01*
X009566Y007932D01*
X009579Y007959D01*
X009594Y007985D01*
X009613Y008009D01*
X009634Y008030D01*
X009658Y008049D01*
X009684Y008064D01*
X009711Y008077D01*
X009740Y008086D01*
X009770Y008091D01*
X009800Y008093D01*
X010087Y008093D01*
X010117Y008095D01*
X010147Y008100D01*
X010176Y008109D01*
X010203Y008122D01*
X010229Y008137D01*
X010253Y008156D01*
X010274Y008177D01*
X010293Y008201D01*
X010308Y008227D01*
X010321Y008254D01*
X010330Y008283D01*
X010335Y008313D01*
X010337Y008343D01*
X010337Y008290D02*
X010337Y055141D01*
X010337Y055087D02*
X010335Y055117D01*
X010330Y055147D01*
X010321Y055176D01*
X010308Y055203D01*
X010293Y055229D01*
X010274Y055253D01*
X010253Y055274D01*
X010229Y055293D01*
X010203Y055308D01*
X010176Y055321D01*
X010147Y055330D01*
X010117Y055335D01*
X010087Y055337D01*
X009800Y055337D01*
X009770Y055339D01*
X009740Y055344D01*
X009711Y055353D01*
X009684Y055366D01*
X009658Y055381D01*
X009634Y055400D01*
X009613Y055421D01*
X009594Y055445D01*
X009579Y055471D01*
X009566Y055498D01*
X009557Y055527D01*
X009552Y055557D01*
X009550Y055587D01*
X009550Y057463D01*
X009552Y057547D01*
X009558Y057630D01*
X009567Y057713D01*
X009581Y057796D01*
X009598Y057878D01*
X009619Y057959D01*
X009644Y058039D01*
X009672Y058117D01*
X009704Y058195D01*
X009740Y058270D01*
X009779Y058344D01*
X009821Y058416D01*
X009867Y058486D01*
X009916Y058554D01*
X009968Y058620D01*
X010023Y058683D01*
X010080Y058744D01*
X010141Y058801D01*
X010204Y058856D01*
X010270Y058908D01*
X010338Y058957D01*
X010408Y059003D01*
X010480Y059045D01*
X010554Y059084D01*
X010629Y059120D01*
X010707Y059152D01*
X010785Y059180D01*
X010865Y059205D01*
X010946Y059226D01*
X011028Y059243D01*
X011111Y059257D01*
X011194Y059266D01*
X011277Y059272D01*
X011361Y059274D01*
X013237Y059274D01*
X013267Y059272D01*
X013297Y059267D01*
X013326Y059258D01*
X013353Y059245D01*
X013379Y059230D01*
X013403Y059211D01*
X013424Y059190D01*
X013443Y059166D01*
X013458Y059140D01*
X013471Y059113D01*
X013480Y059084D01*
X013485Y059054D01*
X013487Y059024D01*
X013487Y058737D01*
X013489Y058707D01*
X013494Y058677D01*
X013503Y058648D01*
X013516Y058621D01*
X013531Y058595D01*
X013550Y058571D01*
X013571Y058550D01*
X013595Y058531D01*
X013621Y058516D01*
X013648Y058503D01*
X013677Y058494D01*
X013707Y058489D01*
X013737Y058487D01*
X013684Y058487D02*
X032843Y058487D01*
X032873Y058485D01*
X032903Y058480D01*
X032932Y058471D01*
X032959Y058458D01*
X032985Y058443D01*
X033009Y058424D01*
X033030Y058403D01*
X033049Y058379D01*
X033064Y058353D01*
X033077Y058326D01*
X033086Y058297D01*
X033091Y058267D01*
X033093Y058237D01*
X033093Y057371D01*
X033091Y057357D01*
X033087Y057343D01*
X033079Y057330D01*
X033069Y057320D01*
X033056Y057312D01*
X033042Y057308D01*
X033028Y057306D01*
X032998Y057304D01*
X032968Y057299D01*
X032939Y057290D01*
X032912Y057277D01*
X032886Y057262D01*
X032862Y057243D01*
X032841Y057222D01*
X032822Y057198D01*
X032807Y057172D01*
X032794Y057145D01*
X032785Y057116D01*
X032780Y057086D01*
X032778Y057056D01*
X032778Y006375D01*
X032780Y006345D01*
X032785Y006315D01*
X032794Y006286D01*
X032807Y006259D01*
X032822Y006233D01*
X032841Y006209D01*
X032862Y006188D01*
X032886Y006169D01*
X032912Y006154D01*
X032939Y006141D01*
X032968Y006132D01*
X032998Y006127D01*
X033028Y006125D01*
X033042Y006123D01*
X033056Y006119D01*
X033069Y006111D01*
X033079Y006101D01*
X033087Y006088D01*
X033091Y006074D01*
X033093Y006060D01*
X033093Y005194D01*
X033091Y005164D01*
X033086Y005134D01*
X033077Y005105D01*
X033064Y005078D01*
X033049Y005052D01*
X033030Y005028D01*
X033009Y005007D01*
X032985Y004988D01*
X032959Y004973D01*
X032932Y004960D01*
X032903Y004951D01*
X032873Y004946D01*
X032843Y004944D01*
X013684Y004944D01*
X013737Y004944D02*
X013707Y004942D01*
X013677Y004937D01*
X013648Y004928D01*
X013621Y004915D01*
X013595Y004900D01*
X013571Y004881D01*
X013550Y004860D01*
X013531Y004836D01*
X013516Y004810D01*
X013503Y004783D01*
X013494Y004754D01*
X013489Y004724D01*
X013487Y004694D01*
X013487Y004406D01*
X013485Y004376D01*
X013480Y004346D01*
X013471Y004317D01*
X013458Y004290D01*
X013443Y004264D01*
X013424Y004240D01*
X013403Y004219D01*
X013379Y004200D01*
X013353Y004185D01*
X013326Y004172D01*
X013297Y004163D01*
X013267Y004158D01*
X013237Y004156D01*
X011361Y004156D01*
X011277Y004158D01*
X011194Y004164D01*
X011111Y004173D01*
X011028Y004187D01*
X010946Y004204D01*
X010865Y004225D01*
X010785Y004250D01*
X010707Y004278D01*
X010629Y004310D01*
X010554Y004346D01*
X010480Y004385D01*
X010408Y004427D01*
X010338Y004473D01*
X010270Y004522D01*
X010204Y004574D01*
X010141Y004629D01*
X010080Y004686D01*
X010023Y004747D01*
X009968Y004810D01*
X009916Y004876D01*
X009867Y004944D01*
X009821Y005014D01*
X009779Y005086D01*
X009740Y005160D01*
X009704Y005235D01*
X009672Y005313D01*
X009644Y005391D01*
X009619Y005471D01*
X009598Y005552D01*
X009581Y005634D01*
X009567Y005717D01*
X009558Y005800D01*
X009552Y005883D01*
X009550Y005967D01*
D14*
X011519Y006125D03*
X029235Y045495D03*
X011519Y057306D03*
D15*
X011599Y057254D02*
X015012Y057254D01*
X015012Y057191D02*
X014691Y056871D01*
X014613Y056792D01*
X014570Y056689D01*
X014570Y054101D01*
X014613Y053998D01*
X015012Y053599D01*
X015012Y053512D01*
X014592Y053094D01*
X014591Y053094D01*
X014552Y053055D01*
X014513Y053016D01*
X014513Y053015D01*
X014513Y053015D01*
X014492Y052964D01*
X014470Y052913D01*
X014470Y052912D01*
X014470Y052857D01*
X014470Y052801D01*
X014470Y052474D01*
X014445Y052414D01*
X014445Y052293D01*
X014492Y052180D01*
X014577Y052095D01*
X014689Y052048D01*
X014811Y052048D01*
X014923Y052095D01*
X015009Y052180D01*
X015055Y052293D01*
X015055Y052328D01*
X015269Y052114D01*
X015496Y052114D01*
X017191Y050419D01*
X017294Y050376D01*
X019051Y050376D01*
X019016Y050325D01*
X018991Y050263D01*
X018978Y050198D01*
X018978Y050164D01*
X018978Y050131D01*
X018991Y050065D01*
X019016Y050003D01*
X019054Y049948D01*
X019101Y049900D01*
X019157Y049863D01*
X019219Y049837D01*
X019284Y049824D01*
X019318Y049824D01*
X019351Y049824D01*
X019417Y049837D01*
X019479Y049863D01*
X019535Y049900D01*
X019582Y049948D01*
X019619Y050003D01*
X019645Y050065D01*
X019658Y050131D01*
X019658Y050164D01*
X019318Y050164D01*
X019318Y050164D01*
X019318Y049824D01*
X019318Y050164D01*
X019318Y050164D01*
X019658Y050164D01*
X019658Y050198D01*
X019645Y050263D01*
X019643Y050267D01*
X021470Y048440D01*
X021470Y044277D01*
X021460Y044253D01*
X021398Y044402D01*
X021280Y044520D01*
X021126Y044584D01*
X020959Y044584D01*
X020804Y044520D01*
X020686Y044402D01*
X020622Y044248D01*
X020622Y044081D01*
X020686Y043926D01*
X020804Y043808D01*
X020959Y043744D01*
X021126Y043744D01*
X021280Y043808D01*
X021398Y043926D01*
X021457Y044068D01*
X021470Y044035D01*
X021470Y033577D01*
X021458Y033549D01*
X021398Y033694D01*
X021280Y033812D01*
X021126Y033876D01*
X020959Y033876D01*
X020804Y033812D01*
X020686Y033694D01*
X020622Y033539D01*
X020622Y033372D01*
X020686Y033218D01*
X020804Y033100D01*
X020959Y033036D01*
X021126Y033036D01*
X021280Y033100D01*
X021398Y033218D01*
X021459Y033363D01*
X021470Y033335D01*
X021470Y022977D01*
X021452Y022934D01*
X021398Y023064D01*
X021280Y023182D01*
X021126Y023246D01*
X020959Y023246D01*
X020804Y023182D01*
X020686Y023064D01*
X020622Y022909D01*
X020622Y022742D01*
X020686Y022588D01*
X020804Y022470D01*
X020959Y022406D01*
X021126Y022406D01*
X021280Y022470D01*
X021398Y022588D01*
X021462Y022742D01*
X021462Y022754D01*
X021470Y022735D01*
X021470Y012177D01*
X021462Y012158D01*
X021462Y012161D01*
X021398Y012316D01*
X021280Y012434D01*
X021126Y012498D01*
X020959Y012498D01*
X020804Y012434D01*
X020686Y012316D01*
X020622Y012161D01*
X020622Y011994D01*
X020686Y011840D01*
X020804Y011722D01*
X020959Y011658D01*
X021126Y011658D01*
X021280Y011722D01*
X021398Y011840D01*
X021454Y011974D01*
X021492Y011884D01*
X021577Y011798D01*
X021689Y011751D01*
X021811Y011751D01*
X021923Y011798D01*
X022009Y011884D01*
X022055Y011996D01*
X022055Y012117D01*
X022030Y012177D01*
X022030Y022735D01*
X022055Y022796D01*
X022055Y022917D01*
X022030Y022977D01*
X022030Y033335D01*
X022055Y033396D01*
X022055Y033517D01*
X022030Y033577D01*
X022030Y044035D01*
X022055Y044096D01*
X022055Y044217D01*
X022030Y044277D01*
X022030Y048612D01*
X021987Y048715D01*
X021909Y048794D01*
X019809Y050894D01*
X019706Y050936D01*
X017465Y050936D01*
X016288Y052114D01*
X016496Y052114D01*
X017512Y051098D01*
X017591Y051019D01*
X017694Y050976D01*
X020034Y050976D01*
X022270Y048740D01*
X022270Y043277D01*
X022245Y043217D01*
X022245Y043096D01*
X022270Y043035D01*
X022270Y032577D01*
X022245Y032517D01*
X022245Y032396D01*
X022270Y032335D01*
X022270Y021977D01*
X022245Y021917D01*
X022245Y021796D01*
X022270Y021735D01*
X022270Y011177D01*
X022245Y011117D01*
X022245Y010996D01*
X022270Y010935D01*
X022270Y008772D01*
X021634Y008136D01*
X019057Y008136D01*
X018954Y008094D01*
X018875Y008015D01*
X018496Y007636D01*
X018269Y007636D01*
X018012Y007378D01*
X018012Y007013D01*
X018172Y006853D01*
X018172Y006538D01*
X018012Y006378D01*
X018012Y006013D01*
X018109Y005916D01*
X017795Y005916D01*
X017892Y006013D01*
X017892Y006378D01*
X017634Y006636D01*
X017269Y006636D01*
X017012Y006378D01*
X017012Y006145D01*
X016892Y006265D01*
X016892Y006378D01*
X016634Y006636D01*
X016269Y006636D01*
X016012Y006378D01*
X016012Y006013D01*
X016269Y005756D01*
X016383Y005756D01*
X016887Y005251D01*
X017019Y005196D01*
X023222Y005196D01*
X023354Y005251D01*
X023455Y005352D01*
X025789Y007687D01*
X025891Y007788D01*
X025946Y007920D01*
X025946Y009828D01*
X026006Y009888D01*
X026006Y010236D01*
X025759Y010482D01*
X025412Y010482D01*
X025166Y010236D01*
X025166Y009888D01*
X025226Y009828D01*
X025226Y008141D01*
X023001Y005916D01*
X019795Y005916D01*
X019892Y006013D01*
X019892Y006378D01*
X019634Y006636D01*
X019269Y006636D01*
X019012Y006378D01*
X019012Y006013D01*
X019109Y005916D01*
X018795Y005916D01*
X018892Y006013D01*
X018892Y006378D01*
X018732Y006538D01*
X018732Y006853D01*
X018892Y007013D01*
X018892Y007240D01*
X019012Y007360D01*
X019012Y007013D01*
X019269Y006756D01*
X019634Y006756D01*
X019755Y006876D01*
X023606Y006876D01*
X023709Y006919D01*
X024909Y008119D01*
X024987Y008198D01*
X025030Y008301D01*
X025030Y011412D01*
X024987Y011515D01*
X024462Y012040D01*
X024462Y012161D01*
X024398Y012316D01*
X024280Y012434D01*
X024126Y012498D01*
X023959Y012498D01*
X023804Y012434D01*
X023686Y012316D01*
X023622Y012161D01*
X023622Y011994D01*
X023686Y011840D01*
X023804Y011722D01*
X023959Y011658D01*
X024053Y011658D01*
X024274Y011436D01*
X024126Y011498D01*
X023959Y011498D01*
X023804Y011434D01*
X023686Y011316D01*
X023622Y011161D01*
X023622Y010994D01*
X023686Y010840D01*
X023804Y010722D01*
X023959Y010658D01*
X024126Y010658D01*
X024280Y010722D01*
X024398Y010840D01*
X024462Y010994D01*
X024462Y011161D01*
X024401Y011310D01*
X024470Y011240D01*
X024470Y008472D01*
X023434Y007436D01*
X019833Y007436D01*
X019693Y007576D01*
X021806Y007576D01*
X021909Y007619D01*
X022787Y008498D01*
X022830Y008601D01*
X022830Y010935D01*
X022855Y010996D01*
X022855Y011117D01*
X022830Y011177D01*
X022830Y021735D01*
X022855Y021796D01*
X022855Y021917D01*
X022830Y021977D01*
X022830Y032335D01*
X022855Y032396D01*
X022855Y032517D01*
X022830Y032577D01*
X022830Y043035D01*
X022855Y043096D01*
X022855Y043217D01*
X022830Y043277D01*
X022830Y048912D01*
X022787Y049015D01*
X022709Y049094D01*
X020309Y051494D01*
X020206Y051536D01*
X017865Y051536D01*
X017288Y052114D01*
X017634Y052114D01*
X017892Y052372D01*
X017892Y052736D01*
X017634Y052994D01*
X017269Y052994D01*
X017012Y052736D01*
X017012Y052390D01*
X016892Y052510D01*
X016892Y052736D01*
X016732Y052896D01*
X016732Y053212D01*
X016892Y053372D01*
X016892Y053736D01*
X016732Y053896D01*
X016732Y055893D01*
X016892Y056053D01*
X016892Y056417D01*
X016732Y056577D01*
X016732Y056893D01*
X016892Y057053D01*
X016892Y057417D01*
X016634Y057675D01*
X016269Y057675D01*
X016012Y057417D01*
X016012Y057053D01*
X016172Y056893D01*
X016172Y056577D01*
X016012Y056417D01*
X016012Y056053D01*
X016172Y055893D01*
X016172Y053896D01*
X016012Y053736D01*
X016012Y053372D01*
X016172Y053212D01*
X016172Y052896D01*
X016012Y052736D01*
X016012Y052390D01*
X015892Y052510D01*
X015892Y052736D01*
X015634Y052994D01*
X015285Y052994D01*
X015406Y053114D01*
X015634Y053114D01*
X015892Y053372D01*
X015892Y053736D01*
X015634Y053994D01*
X015408Y053994D01*
X015130Y054272D01*
X015130Y055934D01*
X015269Y055795D01*
X015634Y055795D01*
X015892Y056053D01*
X015892Y056417D01*
X015634Y056675D01*
X015288Y056675D01*
X015408Y056795D01*
X015634Y056795D01*
X015892Y057053D01*
X015892Y057417D01*
X015634Y057675D01*
X015269Y057675D01*
X015012Y057417D01*
X015012Y057191D01*
X014916Y057095D02*
X013161Y057095D01*
X013161Y057090D02*
X013173Y057226D01*
X011599Y057226D01*
X011599Y057386D01*
X013173Y057386D01*
X013161Y057522D01*
X013136Y057664D01*
X013098Y057804D01*
X013049Y057940D01*
X012988Y058071D01*
X012916Y058196D01*
X012833Y058314D01*
X012740Y058425D01*
X012638Y058527D01*
X012527Y058620D01*
X012409Y058703D01*
X012283Y058775D01*
X012152Y058836D01*
X012017Y058886D01*
X011877Y058923D01*
X011735Y058948D01*
X011599Y058960D01*
X011599Y057386D01*
X011439Y057386D01*
X011439Y058960D01*
X011302Y058948D01*
X011160Y058923D01*
X011020Y058886D01*
X010885Y058836D01*
X010754Y058775D01*
X010629Y058703D01*
X010510Y058620D01*
X010400Y058527D01*
X010297Y058425D01*
X010204Y058314D01*
X010122Y058196D01*
X010049Y058071D01*
X009988Y057940D01*
X009939Y057804D01*
X009901Y057664D01*
X009876Y057522D01*
X009864Y057386D01*
X011439Y057386D01*
X011439Y057226D01*
X011599Y057226D01*
X011599Y055652D01*
X011735Y055664D01*
X011877Y055689D01*
X012017Y055726D01*
X012152Y055776D01*
X012283Y055837D01*
X012409Y055909D01*
X012527Y055992D01*
X012638Y056085D01*
X012740Y056187D01*
X012833Y056298D01*
X012916Y056416D01*
X012988Y056541D01*
X013049Y056672D01*
X013098Y056808D01*
X013136Y056947D01*
X013161Y057090D01*
X013133Y056937D02*
X014758Y056937D01*
X014607Y056778D02*
X013088Y056778D01*
X013025Y056620D02*
X014570Y056620D01*
X014570Y056461D02*
X012942Y056461D01*
X012836Y056303D02*
X014570Y056303D01*
X014570Y056144D02*
X012697Y056144D01*
X012518Y055986D02*
X014570Y055986D01*
X014570Y055827D02*
X012263Y055827D01*
X011764Y055669D02*
X014570Y055669D01*
X014570Y055510D02*
X010265Y055510D01*
X010209Y055542D02*
X009800Y055542D01*
X009788Y055544D01*
X009768Y055556D01*
X009757Y055576D01*
X009755Y055587D01*
X009755Y057463D01*
X009769Y057673D01*
X009877Y058078D01*
X010087Y058441D01*
X010383Y058738D01*
X010747Y058947D01*
X011151Y059056D01*
X011361Y059069D01*
X013237Y059069D01*
X013249Y059068D01*
X013269Y059056D01*
X013281Y059036D01*
X013282Y059024D01*
X013282Y058615D01*
X013404Y058404D01*
X013404Y058404D01*
X013404Y058404D01*
X013577Y058304D01*
X013599Y058282D01*
X032843Y058282D01*
X032855Y058281D01*
X032875Y058269D01*
X032887Y058249D01*
X032888Y058237D01*
X032888Y057501D01*
X032695Y057389D01*
X032573Y057178D01*
X032573Y006290D01*
X032573Y006253D01*
X032695Y006042D01*
X032888Y005930D01*
X032888Y005194D01*
X032887Y005182D01*
X032875Y005162D01*
X032855Y005150D01*
X032843Y005149D01*
X013599Y005149D01*
X013577Y005127D01*
X013404Y005027D01*
X013404Y005027D01*
X013282Y004816D01*
X013282Y004406D01*
X013281Y004395D01*
X013269Y004375D01*
X013249Y004363D01*
X013237Y004361D01*
X011361Y004361D01*
X011151Y004375D01*
X010747Y004484D01*
X010383Y004693D01*
X010087Y004990D01*
X009877Y005353D01*
X009769Y005758D01*
X009755Y005967D01*
X009755Y007843D01*
X009757Y007855D01*
X009768Y007875D01*
X009788Y007887D01*
X009800Y007888D01*
X010209Y007888D01*
X010421Y008010D01*
X010421Y008010D01*
X010421Y008010D01*
X010520Y008183D01*
X010542Y008205D01*
X010542Y055226D01*
X010520Y055248D01*
X010421Y055421D01*
X010421Y055421D01*
X010421Y055421D01*
X010209Y055542D01*
X010460Y055352D02*
X014570Y055352D01*
X014570Y055193D02*
X010542Y055193D01*
X010542Y055035D02*
X014570Y055035D01*
X014570Y054876D02*
X010542Y054876D01*
X010542Y054718D02*
X014570Y054718D01*
X014570Y054559D02*
X010542Y054559D01*
X010542Y054401D02*
X014570Y054401D01*
X014570Y054242D02*
X010542Y054242D01*
X010542Y054084D02*
X014577Y054084D01*
X014685Y053925D02*
X010542Y053925D01*
X010542Y053767D02*
X014844Y053767D01*
X015002Y053608D02*
X010542Y053608D01*
X010542Y053450D02*
X014949Y053450D01*
X014790Y053291D02*
X010542Y053291D01*
X010542Y053133D02*
X014631Y053133D01*
X014496Y052974D02*
X010542Y052974D01*
X010542Y052816D02*
X014470Y052816D01*
X014470Y052801D02*
X014470Y052801D01*
X014470Y052912D02*
X014470Y052912D01*
X014470Y052657D02*
X010542Y052657D01*
X010542Y052499D02*
X014470Y052499D01*
X014445Y052340D02*
X010542Y052340D01*
X010542Y052182D02*
X014491Y052182D01*
X015009Y052182D02*
X015201Y052182D01*
X015586Y052023D02*
X010542Y052023D01*
X010542Y051865D02*
X015745Y051865D01*
X015903Y051706D02*
X010542Y051706D01*
X010542Y051548D02*
X016062Y051548D01*
X016220Y051389D02*
X010542Y051389D01*
X010542Y051231D02*
X016379Y051231D01*
X016537Y051072D02*
X010542Y051072D01*
X010542Y050914D02*
X016696Y050914D01*
X016854Y050755D02*
X010542Y050755D01*
X010542Y050597D02*
X017013Y050597D01*
X017171Y050438D02*
X016638Y050438D01*
X016674Y050402D02*
X016556Y050520D01*
X016401Y050584D01*
X016234Y050584D01*
X016080Y050520D01*
X015962Y050402D01*
X015898Y050248D01*
X015898Y050081D01*
X015962Y049926D01*
X016080Y049808D01*
X016234Y049744D01*
X016401Y049744D01*
X016556Y049808D01*
X016674Y049926D01*
X016738Y050081D01*
X016738Y050248D01*
X016674Y050402D01*
X016724Y050280D02*
X018998Y050280D01*
X018978Y050164D02*
X019318Y050164D01*
X018978Y050164D01*
X018980Y050121D02*
X016738Y050121D01*
X016689Y049963D02*
X019043Y049963D01*
X019318Y049963D02*
X019318Y049963D01*
X019318Y050121D02*
X019318Y050121D01*
X019318Y050164D02*
X019318Y050164D01*
X019592Y049963D02*
X019948Y049963D01*
X020106Y049804D02*
X016547Y049804D01*
X016401Y049584D02*
X016234Y049584D01*
X016080Y049520D01*
X015964Y049404D01*
X012561Y049404D01*
X012473Y049368D01*
X011710Y048604D01*
X011427Y048604D01*
X011169Y048347D01*
X011169Y047982D01*
X011427Y047724D01*
X011791Y047724D01*
X012049Y047982D01*
X012049Y048265D01*
X012709Y048924D01*
X015964Y048924D01*
X016080Y048808D01*
X016234Y048744D01*
X016401Y048744D01*
X016556Y048808D01*
X016674Y048926D01*
X016738Y049081D01*
X016738Y049248D01*
X016674Y049402D01*
X016556Y049520D01*
X016401Y049584D01*
X016589Y049487D02*
X019047Y049487D01*
X019080Y049520D02*
X018962Y049402D01*
X018898Y049248D01*
X018898Y049081D01*
X018962Y048926D01*
X019080Y048808D01*
X019234Y048744D01*
X019401Y048744D01*
X019556Y048808D01*
X019674Y048926D01*
X019738Y049081D01*
X019738Y049248D01*
X019674Y049402D01*
X019556Y049520D01*
X019401Y049584D01*
X019234Y049584D01*
X019080Y049520D01*
X018931Y049329D02*
X016704Y049329D01*
X016738Y049170D02*
X018898Y049170D01*
X018926Y049012D02*
X016709Y049012D01*
X016601Y048853D02*
X019035Y048853D01*
X019119Y048536D02*
X016517Y048536D01*
X016556Y048520D02*
X016401Y048584D01*
X016234Y048584D01*
X016080Y048520D01*
X015964Y048404D01*
X012991Y048404D01*
X012791Y048604D01*
X012427Y048604D01*
X012169Y048347D01*
X012169Y047982D01*
X012255Y047896D01*
X012054Y047896D01*
X011965Y047860D01*
X011710Y047604D01*
X011427Y047604D01*
X011169Y047347D01*
X011169Y046982D01*
X011427Y046724D01*
X011791Y046724D01*
X012049Y046982D01*
X012049Y047265D01*
X012201Y047416D01*
X012239Y047416D01*
X012169Y047347D01*
X012169Y046982D01*
X012255Y046896D01*
X012054Y046896D01*
X011965Y046860D01*
X011710Y046604D01*
X011427Y046604D01*
X011169Y046347D01*
X011169Y045982D01*
X011427Y045724D01*
X011791Y045724D01*
X012049Y045982D01*
X012049Y046265D01*
X012201Y046416D01*
X012239Y046416D01*
X012169Y046347D01*
X012169Y045982D01*
X012255Y045896D01*
X012054Y045896D01*
X011965Y045860D01*
X011710Y045604D01*
X011427Y045604D01*
X011169Y045347D01*
X011169Y044982D01*
X011427Y044724D01*
X011791Y044724D01*
X012049Y044982D01*
X012049Y045265D01*
X012201Y045416D01*
X012239Y045416D01*
X012169Y045347D01*
X012169Y044982D01*
X012427Y044724D01*
X012710Y044724D01*
X015473Y041961D01*
X015561Y041924D01*
X015964Y041924D01*
X016080Y041808D01*
X016234Y041744D01*
X016401Y041744D01*
X016556Y041808D01*
X016674Y041926D01*
X016738Y042081D01*
X016738Y042248D01*
X016674Y042402D01*
X016556Y042520D01*
X016401Y042584D01*
X016234Y042584D01*
X016080Y042520D01*
X015964Y042404D01*
X015709Y042404D01*
X013049Y045064D01*
X013049Y045218D01*
X015306Y042961D01*
X015394Y042924D01*
X015964Y042924D01*
X016080Y042808D01*
X016234Y042744D01*
X016401Y042744D01*
X016556Y042808D01*
X016674Y042926D01*
X016738Y043081D01*
X016738Y043248D01*
X016674Y043402D01*
X016556Y043520D01*
X016401Y043584D01*
X016234Y043584D01*
X016080Y043520D01*
X015964Y043404D01*
X015542Y043404D01*
X013154Y045792D01*
X013086Y045860D01*
X012998Y045896D01*
X012964Y045896D01*
X012984Y045916D01*
X013351Y045916D01*
X015306Y043961D01*
X015394Y043924D01*
X015964Y043924D01*
X016080Y043808D01*
X016234Y043744D01*
X016401Y043744D01*
X016556Y043808D01*
X016674Y043926D01*
X016738Y044081D01*
X016738Y044248D01*
X016674Y044402D01*
X016556Y044520D01*
X016401Y044584D01*
X016234Y044584D01*
X016080Y044520D01*
X015964Y044404D01*
X015542Y044404D01*
X013654Y046292D01*
X013586Y046360D01*
X013498Y046396D01*
X012999Y046396D01*
X012979Y046416D01*
X013751Y046416D01*
X015206Y044961D01*
X015294Y044924D01*
X015964Y044924D01*
X016080Y044808D01*
X016234Y044744D01*
X016401Y044744D01*
X016556Y044808D01*
X016674Y044926D01*
X016738Y045081D01*
X016738Y045248D01*
X016674Y045402D01*
X016556Y045520D01*
X016401Y045584D01*
X016234Y045584D01*
X016080Y045520D01*
X015964Y045404D01*
X015442Y045404D01*
X014054Y046792D01*
X013986Y046860D01*
X013898Y046896D01*
X012964Y046896D01*
X012984Y046916D01*
X014151Y046916D01*
X015106Y045961D01*
X015194Y045924D01*
X015964Y045924D01*
X016080Y045808D01*
X016234Y045744D01*
X016401Y045744D01*
X016556Y045808D01*
X016674Y045926D01*
X016738Y046081D01*
X016738Y046248D01*
X016674Y046402D01*
X016556Y046520D01*
X016401Y046584D01*
X016234Y046584D01*
X016080Y046520D01*
X015964Y046404D01*
X015342Y046404D01*
X014454Y047292D01*
X014386Y047360D01*
X014298Y047396D01*
X012999Y047396D01*
X012979Y047416D01*
X014651Y047416D01*
X015039Y047028D01*
X015106Y046961D01*
X015194Y046924D01*
X015964Y046924D01*
X016080Y046808D01*
X016234Y046744D01*
X016401Y046744D01*
X016556Y046808D01*
X016674Y046926D01*
X016738Y047081D01*
X016738Y047248D01*
X016674Y047402D01*
X016556Y047520D01*
X016401Y047584D01*
X016234Y047584D01*
X016080Y047520D01*
X015964Y047404D01*
X015342Y047404D01*
X014954Y047792D01*
X014954Y047792D01*
X014886Y047860D01*
X014798Y047896D01*
X012964Y047896D01*
X012991Y047924D01*
X015964Y047924D01*
X016080Y047808D01*
X016234Y047744D01*
X016401Y047744D01*
X016556Y047808D01*
X016674Y047926D01*
X016738Y048081D01*
X016738Y048248D01*
X016674Y048402D01*
X016556Y048520D01*
X016684Y048378D02*
X018952Y048378D01*
X018962Y048402D02*
X018898Y048248D01*
X018898Y048081D01*
X018962Y047926D01*
X019080Y047808D01*
X019234Y047744D01*
X019401Y047744D01*
X019556Y047808D01*
X019674Y047926D01*
X019738Y048081D01*
X019738Y048248D01*
X019674Y048402D01*
X019556Y048520D01*
X019401Y048584D01*
X019234Y048584D01*
X019080Y048520D01*
X018962Y048402D01*
X018898Y048219D02*
X016738Y048219D01*
X016730Y048061D02*
X018906Y048061D01*
X018986Y047902D02*
X016650Y047902D01*
X016318Y048164D02*
X012609Y048164D01*
X012169Y048219D02*
X012049Y048219D01*
X012049Y048061D02*
X012169Y048061D01*
X012249Y047902D02*
X011970Y047902D01*
X011849Y047744D02*
X011811Y047744D01*
X012101Y047656D02*
X011609Y047164D01*
X011169Y047110D02*
X010542Y047110D01*
X010542Y047268D02*
X011169Y047268D01*
X011250Y047427D02*
X010542Y047427D01*
X010542Y047585D02*
X011408Y047585D01*
X011407Y047744D02*
X010542Y047744D01*
X010542Y047902D02*
X011249Y047902D01*
X011169Y048061D02*
X010542Y048061D01*
X010542Y048219D02*
X011169Y048219D01*
X011201Y048378D02*
X010542Y048378D01*
X010542Y048536D02*
X011359Y048536D01*
X011609Y048164D02*
X012609Y049164D01*
X016318Y049164D01*
X016035Y048853D02*
X012638Y048853D01*
X012479Y048695D02*
X021216Y048695D01*
X021126Y048584D02*
X020959Y048584D01*
X020804Y048520D01*
X020686Y048402D01*
X020622Y048248D01*
X020622Y048081D01*
X020686Y047926D01*
X020804Y047808D01*
X020959Y047744D01*
X021126Y047744D01*
X021280Y047808D01*
X021398Y047926D01*
X021462Y048081D01*
X021462Y048248D01*
X021398Y048402D01*
X021280Y048520D01*
X021126Y048584D01*
X021241Y048536D02*
X021374Y048536D01*
X021408Y048378D02*
X021470Y048378D01*
X021462Y048219D02*
X021470Y048219D01*
X021454Y048061D02*
X021470Y048061D01*
X021470Y047902D02*
X021374Y047902D01*
X021470Y047744D02*
X015002Y047744D01*
X015160Y047585D02*
X021470Y047585D01*
X021470Y047427D02*
X021373Y047427D01*
X021398Y047402D02*
X021280Y047520D01*
X021126Y047584D01*
X020959Y047584D01*
X020804Y047520D01*
X020686Y047402D01*
X020622Y047248D01*
X020622Y047081D01*
X020686Y046926D01*
X020804Y046808D01*
X020959Y046744D01*
X021126Y046744D01*
X021280Y046808D01*
X021398Y046926D01*
X021462Y047081D01*
X021462Y047248D01*
X021398Y047402D01*
X021454Y047268D02*
X021470Y047268D01*
X021462Y047110D02*
X021470Y047110D01*
X021470Y046951D02*
X021409Y046951D01*
X021470Y046793D02*
X021243Y046793D01*
X021126Y046584D02*
X020959Y046584D01*
X020804Y046520D01*
X020686Y046402D01*
X020622Y046248D01*
X020622Y046081D01*
X020686Y045926D01*
X020804Y045808D01*
X020959Y045744D01*
X021126Y045744D01*
X021280Y045808D01*
X021398Y045926D01*
X021462Y046081D01*
X021462Y046248D01*
X021398Y046402D01*
X021280Y046520D01*
X021126Y046584D01*
X021324Y046476D02*
X021470Y046476D01*
X021470Y046634D02*
X015111Y046634D01*
X015270Y046476D02*
X016036Y046476D01*
X016117Y046793D02*
X014953Y046793D01*
X014794Y046951D02*
X015129Y046951D01*
X015039Y047028D02*
X015039Y047028D01*
X014957Y047110D02*
X014636Y047110D01*
X014477Y047268D02*
X014799Y047268D01*
X014750Y047656D02*
X012101Y047656D01*
X012053Y047268D02*
X012169Y047268D01*
X012169Y047110D02*
X012049Y047110D01*
X012019Y046951D02*
X012200Y046951D01*
X012101Y046656D02*
X011609Y046164D01*
X011169Y046159D02*
X010542Y046159D01*
X010542Y046317D02*
X011169Y046317D01*
X011299Y046476D02*
X010542Y046476D01*
X010542Y046634D02*
X011740Y046634D01*
X011860Y046793D02*
X011898Y046793D01*
X012101Y046656D02*
X013850Y046656D01*
X015342Y045164D01*
X016318Y045164D01*
X016638Y044891D02*
X018997Y044891D01*
X018962Y044926D02*
X019080Y044808D01*
X019234Y044744D01*
X019401Y044744D01*
X019556Y044808D01*
X019674Y044926D01*
X019738Y045081D01*
X019738Y045248D01*
X019674Y045402D01*
X019556Y045520D01*
X019401Y045584D01*
X019234Y045584D01*
X019080Y045520D01*
X018962Y045402D01*
X018898Y045248D01*
X018898Y045081D01*
X018962Y044926D01*
X018911Y045049D02*
X016725Y045049D01*
X016738Y045208D02*
X018898Y045208D01*
X018947Y045366D02*
X016689Y045366D01*
X016545Y045525D02*
X019091Y045525D01*
X019234Y045744D02*
X019401Y045744D01*
X019556Y045808D01*
X019674Y045926D01*
X019738Y046081D01*
X019738Y046248D01*
X019674Y046402D01*
X019556Y046520D01*
X019401Y046584D01*
X019234Y046584D01*
X019080Y046520D01*
X018962Y046402D01*
X018898Y046248D01*
X018898Y046081D01*
X018962Y045926D01*
X019080Y045808D01*
X019234Y045744D01*
X019046Y045842D02*
X016589Y045842D01*
X016705Y046000D02*
X018931Y046000D01*
X018898Y046159D02*
X016738Y046159D01*
X016709Y046317D02*
X018927Y046317D01*
X019036Y046476D02*
X016600Y046476D01*
X016519Y046793D02*
X019117Y046793D01*
X019080Y046808D02*
X019234Y046744D01*
X019401Y046744D01*
X019556Y046808D01*
X019674Y046926D01*
X019738Y047081D01*
X019738Y047248D01*
X019674Y047402D01*
X019556Y047520D01*
X019401Y047584D01*
X019234Y047584D01*
X019080Y047520D01*
X018962Y047402D01*
X018898Y047248D01*
X018898Y047081D01*
X018962Y046926D01*
X019080Y046808D01*
X018951Y046951D02*
X016684Y046951D01*
X016738Y047110D02*
X018898Y047110D01*
X018906Y047268D02*
X016729Y047268D01*
X016649Y047427D02*
X018987Y047427D01*
X019649Y047427D02*
X020711Y047427D01*
X020631Y047268D02*
X019729Y047268D01*
X019738Y047110D02*
X020622Y047110D01*
X020676Y046951D02*
X019684Y046951D01*
X019519Y046793D02*
X020841Y046793D01*
X020760Y046476D02*
X019600Y046476D01*
X019709Y046317D02*
X020651Y046317D01*
X020622Y046159D02*
X019738Y046159D01*
X019705Y046000D02*
X020655Y046000D01*
X020771Y045842D02*
X019589Y045842D01*
X019545Y045525D02*
X020815Y045525D01*
X020804Y045520D02*
X020686Y045402D01*
X020622Y045248D01*
X020622Y045081D01*
X020686Y044926D01*
X020804Y044808D01*
X020959Y044744D01*
X021126Y044744D01*
X021280Y044808D01*
X021398Y044926D01*
X021462Y045081D01*
X021462Y045248D01*
X021398Y045402D01*
X021280Y045520D01*
X021126Y045584D01*
X020959Y045584D01*
X020804Y045520D01*
X020671Y045366D02*
X019689Y045366D01*
X019738Y045208D02*
X020622Y045208D01*
X020635Y045049D02*
X019725Y045049D01*
X019638Y044891D02*
X020722Y044891D01*
X020934Y044574D02*
X019426Y044574D01*
X019401Y044584D02*
X019234Y044584D01*
X019080Y044520D01*
X018962Y044402D01*
X018898Y044248D01*
X018898Y044081D01*
X018962Y043926D01*
X019080Y043808D01*
X019234Y043744D01*
X019401Y043744D01*
X019556Y043808D01*
X019674Y043926D01*
X019738Y044081D01*
X019738Y044248D01*
X019674Y044402D01*
X019556Y044520D01*
X019401Y044584D01*
X019209Y044574D02*
X016426Y044574D01*
X016209Y044574D02*
X015372Y044574D01*
X015530Y044415D02*
X015975Y044415D01*
X016318Y044164D02*
X015442Y044164D01*
X013450Y046156D01*
X012617Y046156D01*
X012609Y046164D01*
X012169Y046159D02*
X012049Y046159D01*
X012049Y046000D02*
X012169Y046000D01*
X011947Y045842D02*
X011909Y045842D01*
X011789Y045683D02*
X010542Y045683D01*
X010542Y045525D02*
X011348Y045525D01*
X011189Y045366D02*
X010542Y045366D01*
X010542Y045208D02*
X011169Y045208D01*
X011169Y045049D02*
X010542Y045049D01*
X010542Y044891D02*
X011260Y044891D01*
X011419Y044732D02*
X010542Y044732D01*
X010542Y044574D02*
X012860Y044574D01*
X012758Y044524D02*
X012619Y044524D01*
X012619Y044174D01*
X012969Y044174D01*
X012969Y044313D01*
X012758Y044524D01*
X012867Y044415D02*
X013019Y044415D01*
X012969Y044257D02*
X013177Y044257D01*
X013336Y044098D02*
X012969Y044098D01*
X012969Y044154D02*
X012619Y044154D01*
X012619Y043804D01*
X012758Y043804D01*
X012969Y044015D01*
X012969Y044154D01*
X012894Y043940D02*
X013494Y043940D01*
X013653Y043781D02*
X010542Y043781D01*
X010542Y043623D02*
X013811Y043623D01*
X013970Y043464D02*
X010542Y043464D01*
X010542Y043306D02*
X014128Y043306D01*
X014287Y043147D02*
X010542Y043147D01*
X010542Y042989D02*
X014445Y042989D01*
X014604Y042830D02*
X010542Y042830D01*
X010542Y042672D02*
X014762Y042672D01*
X014921Y042513D02*
X010542Y042513D01*
X010542Y042355D02*
X015079Y042355D01*
X015238Y042196D02*
X010542Y042196D01*
X010542Y042038D02*
X015396Y042038D01*
X015609Y042164D02*
X012609Y045164D01*
X012169Y045208D02*
X012049Y045208D01*
X012049Y045049D02*
X012169Y045049D01*
X012260Y044891D02*
X011958Y044891D01*
X011800Y044732D02*
X012419Y044732D01*
X012460Y044524D02*
X012249Y044313D01*
X012249Y044174D01*
X012599Y044174D01*
X012599Y044154D01*
X012619Y044154D01*
X012619Y044174D01*
X012599Y044174D01*
X012599Y044524D01*
X012460Y044524D01*
X012351Y044415D02*
X011867Y044415D01*
X011969Y044313D02*
X011758Y044524D01*
X011619Y044524D01*
X011619Y044174D01*
X011969Y044174D01*
X011969Y044313D01*
X011969Y044257D02*
X012249Y044257D01*
X012249Y044154D02*
X012249Y044015D01*
X012460Y043804D01*
X012599Y043804D01*
X012599Y044154D01*
X012249Y044154D01*
X012249Y044098D02*
X011969Y044098D01*
X011969Y044154D02*
X011619Y044154D01*
X011619Y043804D01*
X011758Y043804D01*
X011969Y044015D01*
X011969Y044154D01*
X011894Y043940D02*
X012324Y043940D01*
X012599Y043940D02*
X012619Y043940D01*
X012619Y044098D02*
X012599Y044098D01*
X012599Y044257D02*
X012619Y044257D01*
X012619Y044415D02*
X012599Y044415D01*
X013222Y044891D02*
X013376Y044891D01*
X013380Y044732D02*
X013535Y044732D01*
X013539Y044574D02*
X013693Y044574D01*
X013697Y044415D02*
X013852Y044415D01*
X013856Y044257D02*
X014010Y044257D01*
X014014Y044098D02*
X014169Y044098D01*
X014173Y043940D02*
X014327Y043940D01*
X014331Y043781D02*
X014486Y043781D01*
X014490Y043623D02*
X014644Y043623D01*
X014648Y043464D02*
X014803Y043464D01*
X014807Y043306D02*
X014961Y043306D01*
X014965Y043147D02*
X015120Y043147D01*
X015124Y042989D02*
X015278Y042989D01*
X015282Y042830D02*
X016058Y042830D01*
X016073Y042513D02*
X015599Y042513D01*
X015441Y042672D02*
X021470Y042672D01*
X021470Y042830D02*
X021302Y042830D01*
X021280Y042808D02*
X021398Y042926D01*
X021462Y043081D01*
X021462Y043248D01*
X021398Y043402D01*
X021280Y043520D01*
X021126Y043584D01*
X020959Y043584D01*
X020804Y043520D01*
X020686Y043402D01*
X020622Y043248D01*
X020622Y043081D01*
X020686Y042926D01*
X020804Y042808D01*
X020959Y042744D01*
X021126Y042744D01*
X021280Y042808D01*
X021424Y042989D02*
X021470Y042989D01*
X021462Y043147D02*
X021470Y043147D01*
X021470Y043306D02*
X021438Y043306D01*
X021470Y043464D02*
X021336Y043464D01*
X021470Y043623D02*
X015323Y043623D01*
X015481Y043464D02*
X016024Y043464D01*
X016144Y043781D02*
X015164Y043781D01*
X015006Y043940D02*
X015357Y043940D01*
X015169Y044098D02*
X014847Y044098D01*
X014689Y044257D02*
X015010Y044257D01*
X014852Y044415D02*
X014530Y044415D01*
X014372Y044574D02*
X014693Y044574D01*
X014535Y044732D02*
X014213Y044732D01*
X014055Y044891D02*
X014376Y044891D01*
X014218Y045049D02*
X013896Y045049D01*
X013738Y045208D02*
X014059Y045208D01*
X013901Y045366D02*
X013579Y045366D01*
X013421Y045525D02*
X013742Y045525D01*
X013584Y045683D02*
X013262Y045683D01*
X013104Y045842D02*
X013425Y045842D01*
X013787Y046159D02*
X014008Y046159D01*
X013945Y046000D02*
X014167Y046000D01*
X014104Y045842D02*
X014325Y045842D01*
X014262Y045683D02*
X014484Y045683D01*
X014421Y045525D02*
X014642Y045525D01*
X014579Y045366D02*
X014801Y045366D01*
X014738Y045208D02*
X014959Y045208D01*
X014896Y045049D02*
X015118Y045049D01*
X015055Y044891D02*
X015997Y044891D01*
X016091Y045525D02*
X015321Y045525D01*
X015162Y045683D02*
X021470Y045683D01*
X021470Y045525D02*
X021269Y045525D01*
X021413Y045366D02*
X021470Y045366D01*
X021462Y045208D02*
X021470Y045208D01*
X021470Y045049D02*
X021449Y045049D01*
X021470Y044891D02*
X021363Y044891D01*
X021470Y044732D02*
X015213Y044732D01*
X015004Y045842D02*
X016046Y045842D01*
X016318Y046164D02*
X015242Y046164D01*
X014250Y047156D01*
X012617Y047156D01*
X012609Y047164D01*
X012970Y047902D02*
X015986Y047902D01*
X015987Y047427D02*
X015319Y047427D01*
X015242Y047164D02*
X014750Y047656D01*
X015242Y047164D02*
X016318Y047164D01*
X016119Y048536D02*
X012859Y048536D01*
X012359Y048536D02*
X012321Y048536D01*
X012201Y048378D02*
X012162Y048378D01*
X011800Y048695D02*
X010542Y048695D01*
X010542Y048853D02*
X011959Y048853D01*
X012117Y049012D02*
X010542Y049012D01*
X010542Y049170D02*
X012276Y049170D01*
X012434Y049329D02*
X010542Y049329D01*
X010542Y049487D02*
X016047Y049487D01*
X016089Y049804D02*
X010542Y049804D01*
X010542Y049646D02*
X020265Y049646D01*
X020423Y049487D02*
X019589Y049487D01*
X019704Y049329D02*
X020582Y049329D01*
X020740Y049170D02*
X019738Y049170D01*
X019709Y049012D02*
X020899Y049012D01*
X021057Y048853D02*
X019601Y048853D01*
X019517Y048536D02*
X020843Y048536D01*
X020676Y048378D02*
X019684Y048378D01*
X019738Y048219D02*
X020622Y048219D01*
X020630Y048061D02*
X019730Y048061D01*
X019650Y047902D02*
X020710Y047902D01*
X021690Y049012D02*
X021999Y049012D01*
X021849Y048853D02*
X022157Y048853D01*
X022270Y048695D02*
X021996Y048695D01*
X022030Y048536D02*
X022270Y048536D01*
X022270Y048378D02*
X022030Y048378D01*
X022030Y048219D02*
X022270Y048219D01*
X022270Y048061D02*
X022030Y048061D01*
X022030Y047902D02*
X022270Y047902D01*
X022270Y047744D02*
X022030Y047744D01*
X022030Y047585D02*
X022270Y047585D01*
X022270Y047427D02*
X022030Y047427D01*
X022030Y047268D02*
X022270Y047268D01*
X022270Y047110D02*
X022030Y047110D01*
X022030Y046951D02*
X022270Y046951D01*
X022270Y046793D02*
X022030Y046793D01*
X022030Y046634D02*
X022270Y046634D01*
X022270Y046476D02*
X022030Y046476D01*
X022030Y046317D02*
X022270Y046317D01*
X022270Y046159D02*
X022030Y046159D01*
X022030Y046000D02*
X022270Y046000D01*
X022270Y045842D02*
X022030Y045842D01*
X022030Y045683D02*
X022270Y045683D01*
X022270Y045525D02*
X022030Y045525D01*
X022030Y045366D02*
X022270Y045366D01*
X022270Y045208D02*
X022030Y045208D01*
X022030Y045049D02*
X022270Y045049D01*
X022270Y044891D02*
X022030Y044891D01*
X022030Y044732D02*
X022270Y044732D01*
X022270Y044574D02*
X022030Y044574D01*
X022030Y044415D02*
X022270Y044415D01*
X022270Y044257D02*
X022039Y044257D01*
X022055Y044098D02*
X022270Y044098D01*
X022270Y043940D02*
X022030Y043940D01*
X022030Y043781D02*
X022270Y043781D01*
X022270Y043623D02*
X022030Y043623D01*
X022030Y043464D02*
X022270Y043464D01*
X022270Y043306D02*
X022030Y043306D01*
X022030Y043147D02*
X022245Y043147D01*
X022270Y042989D02*
X022030Y042989D01*
X022030Y042830D02*
X022270Y042830D01*
X022270Y042672D02*
X022030Y042672D01*
X022030Y042513D02*
X022270Y042513D01*
X022270Y042355D02*
X022030Y042355D01*
X022030Y042196D02*
X022270Y042196D01*
X022270Y042038D02*
X022030Y042038D01*
X022030Y041879D02*
X022270Y041879D01*
X022270Y041721D02*
X022030Y041721D01*
X022030Y041562D02*
X022270Y041562D01*
X022270Y041404D02*
X022030Y041404D01*
X022030Y041245D02*
X022270Y041245D01*
X022270Y041087D02*
X022030Y041087D01*
X022030Y040928D02*
X022270Y040928D01*
X022270Y040770D02*
X022030Y040770D01*
X022030Y040611D02*
X022270Y040611D01*
X022270Y040453D02*
X022030Y040453D01*
X022030Y040294D02*
X022270Y040294D01*
X022270Y040136D02*
X022030Y040136D01*
X022030Y039977D02*
X022270Y039977D01*
X022270Y039819D02*
X022030Y039819D01*
X022030Y039660D02*
X022270Y039660D01*
X022270Y039502D02*
X022030Y039502D01*
X022030Y039343D02*
X022270Y039343D01*
X022270Y039185D02*
X022030Y039185D01*
X022030Y039026D02*
X022270Y039026D01*
X022270Y038868D02*
X022030Y038868D01*
X022030Y038709D02*
X022270Y038709D01*
X022270Y038551D02*
X022030Y038551D01*
X022030Y038392D02*
X022270Y038392D01*
X022270Y038234D02*
X022030Y038234D01*
X022030Y038075D02*
X022270Y038075D01*
X022270Y037917D02*
X022030Y037917D01*
X022030Y037758D02*
X022270Y037758D01*
X022270Y037600D02*
X022030Y037600D01*
X022030Y037441D02*
X022270Y037441D01*
X022270Y037283D02*
X022030Y037283D01*
X022030Y037124D02*
X022270Y037124D01*
X022270Y036966D02*
X022030Y036966D01*
X022030Y036807D02*
X022270Y036807D01*
X022270Y036649D02*
X022030Y036649D01*
X022030Y036490D02*
X022270Y036490D01*
X022270Y036332D02*
X022030Y036332D01*
X022030Y036173D02*
X022270Y036173D01*
X022270Y036015D02*
X022030Y036015D01*
X022030Y035856D02*
X022270Y035856D01*
X022270Y035698D02*
X022030Y035698D01*
X022030Y035539D02*
X022270Y035539D01*
X022270Y035381D02*
X022030Y035381D01*
X022030Y035222D02*
X022270Y035222D01*
X022270Y035064D02*
X022030Y035064D01*
X022030Y034905D02*
X022270Y034905D01*
X022270Y034747D02*
X022030Y034747D01*
X022030Y034588D02*
X022270Y034588D01*
X022270Y034430D02*
X022030Y034430D01*
X022030Y034271D02*
X022270Y034271D01*
X022270Y034113D02*
X022030Y034113D01*
X022030Y033954D02*
X022270Y033954D01*
X022270Y033796D02*
X022030Y033796D01*
X022030Y033637D02*
X022270Y033637D01*
X022270Y033479D02*
X022055Y033479D01*
X022030Y033320D02*
X022270Y033320D01*
X022270Y033162D02*
X022030Y033162D01*
X022030Y033003D02*
X022270Y033003D01*
X022270Y032845D02*
X022030Y032845D01*
X022030Y032686D02*
X022270Y032686D01*
X022250Y032528D02*
X022030Y032528D01*
X022030Y032369D02*
X022256Y032369D01*
X022270Y032211D02*
X022030Y032211D01*
X022030Y032052D02*
X022270Y032052D01*
X022270Y031894D02*
X022030Y031894D01*
X022030Y031735D02*
X022270Y031735D01*
X022270Y031577D02*
X022030Y031577D01*
X022030Y031418D02*
X022270Y031418D01*
X022270Y031260D02*
X022030Y031260D01*
X022030Y031101D02*
X022270Y031101D01*
X022270Y030943D02*
X022030Y030943D01*
X022030Y030784D02*
X022270Y030784D01*
X022270Y030626D02*
X022030Y030626D01*
X022030Y030467D02*
X022270Y030467D01*
X022270Y030309D02*
X022030Y030309D01*
X022030Y030150D02*
X022270Y030150D01*
X022270Y029992D02*
X022030Y029992D01*
X022030Y029833D02*
X022270Y029833D01*
X022270Y029675D02*
X022030Y029675D01*
X022030Y029516D02*
X022270Y029516D01*
X022270Y029358D02*
X022030Y029358D01*
X022030Y029199D02*
X022270Y029199D01*
X022270Y029041D02*
X022030Y029041D01*
X022030Y028882D02*
X022270Y028882D01*
X022270Y028724D02*
X022030Y028724D01*
X022030Y028565D02*
X022270Y028565D01*
X022270Y028407D02*
X022030Y028407D01*
X022030Y028248D02*
X022270Y028248D01*
X022270Y028090D02*
X022030Y028090D01*
X022030Y027931D02*
X022270Y027931D01*
X022270Y027773D02*
X022030Y027773D01*
X022030Y027614D02*
X022270Y027614D01*
X022270Y027456D02*
X022030Y027456D01*
X022030Y027297D02*
X022270Y027297D01*
X022270Y027139D02*
X022030Y027139D01*
X022030Y026980D02*
X022270Y026980D01*
X022270Y026822D02*
X022030Y026822D01*
X022030Y026663D02*
X022270Y026663D01*
X022270Y026505D02*
X022030Y026505D01*
X022030Y026346D02*
X022270Y026346D01*
X022270Y026188D02*
X022030Y026188D01*
X022030Y026029D02*
X022270Y026029D01*
X022270Y025871D02*
X022030Y025871D01*
X022030Y025712D02*
X022270Y025712D01*
X022270Y025554D02*
X022030Y025554D01*
X022030Y025395D02*
X022270Y025395D01*
X022270Y025237D02*
X022030Y025237D01*
X022030Y025078D02*
X022270Y025078D01*
X022270Y024920D02*
X022030Y024920D01*
X022030Y024761D02*
X022270Y024761D01*
X022270Y024603D02*
X022030Y024603D01*
X022030Y024444D02*
X022270Y024444D01*
X022270Y024286D02*
X022030Y024286D01*
X022030Y024127D02*
X022270Y024127D01*
X022270Y023969D02*
X022030Y023969D01*
X022030Y023810D02*
X022270Y023810D01*
X022270Y023652D02*
X022030Y023652D01*
X022030Y023493D02*
X022270Y023493D01*
X022270Y023335D02*
X022030Y023335D01*
X022030Y023176D02*
X022270Y023176D01*
X022270Y023018D02*
X022030Y023018D01*
X022055Y022859D02*
X022270Y022859D01*
X022270Y022701D02*
X022030Y022701D01*
X022030Y022542D02*
X022270Y022542D01*
X022270Y022384D02*
X022030Y022384D01*
X022030Y022225D02*
X022270Y022225D01*
X022270Y022067D02*
X022030Y022067D01*
X022030Y021908D02*
X022245Y021908D01*
X022264Y021750D02*
X022030Y021750D01*
X022030Y021591D02*
X022270Y021591D01*
X022270Y021433D02*
X022030Y021433D01*
X022030Y021274D02*
X022270Y021274D01*
X022270Y021116D02*
X022030Y021116D01*
X022030Y020957D02*
X022270Y020957D01*
X022270Y020799D02*
X022030Y020799D01*
X022030Y020640D02*
X022270Y020640D01*
X022270Y020482D02*
X022030Y020482D01*
X022030Y020323D02*
X022270Y020323D01*
X022270Y020165D02*
X022030Y020165D01*
X022030Y020006D02*
X022270Y020006D01*
X022270Y019848D02*
X022030Y019848D01*
X022030Y019689D02*
X022270Y019689D01*
X022270Y019531D02*
X022030Y019531D01*
X022030Y019372D02*
X022270Y019372D01*
X022270Y019214D02*
X022030Y019214D01*
X022030Y019055D02*
X022270Y019055D01*
X022270Y018897D02*
X022030Y018897D01*
X022030Y018738D02*
X022270Y018738D01*
X022270Y018580D02*
X022030Y018580D01*
X022030Y018421D02*
X022270Y018421D01*
X022270Y018263D02*
X022030Y018263D01*
X022030Y018104D02*
X022270Y018104D01*
X022270Y017946D02*
X022030Y017946D01*
X022030Y017787D02*
X022270Y017787D01*
X022270Y017629D02*
X022030Y017629D01*
X022030Y017470D02*
X022270Y017470D01*
X022270Y017312D02*
X022030Y017312D01*
X022030Y017153D02*
X022270Y017153D01*
X022270Y016995D02*
X022030Y016995D01*
X022030Y016836D02*
X022270Y016836D01*
X022270Y016678D02*
X022030Y016678D01*
X022030Y016519D02*
X022270Y016519D01*
X022270Y016361D02*
X022030Y016361D01*
X022030Y016202D02*
X022270Y016202D01*
X022270Y016044D02*
X022030Y016044D01*
X022030Y015885D02*
X022270Y015885D01*
X022270Y015727D02*
X022030Y015727D01*
X022030Y015568D02*
X022270Y015568D01*
X022270Y015410D02*
X022030Y015410D01*
X022030Y015251D02*
X022270Y015251D01*
X022270Y015093D02*
X022030Y015093D01*
X022030Y014934D02*
X022270Y014934D01*
X022270Y014776D02*
X022030Y014776D01*
X022030Y014617D02*
X022270Y014617D01*
X022270Y014459D02*
X022030Y014459D01*
X022030Y014300D02*
X022270Y014300D01*
X022270Y014142D02*
X022030Y014142D01*
X022030Y013983D02*
X022270Y013983D01*
X022270Y013825D02*
X022030Y013825D01*
X022030Y013666D02*
X022270Y013666D01*
X022270Y013508D02*
X022030Y013508D01*
X022030Y013349D02*
X022270Y013349D01*
X022270Y013191D02*
X022030Y013191D01*
X022030Y013032D02*
X022270Y013032D01*
X022270Y012874D02*
X022030Y012874D01*
X022030Y012715D02*
X022270Y012715D01*
X022270Y012557D02*
X022030Y012557D01*
X022030Y012398D02*
X022270Y012398D01*
X022270Y012240D02*
X022030Y012240D01*
X022055Y012081D02*
X022270Y012081D01*
X022270Y011923D02*
X022025Y011923D01*
X021842Y011764D02*
X022270Y011764D01*
X022270Y011606D02*
X015540Y011606D01*
X015381Y011764D02*
X016037Y011764D01*
X016080Y011722D02*
X016234Y011658D01*
X016401Y011658D01*
X016556Y011722D01*
X016674Y011840D01*
X016738Y011994D01*
X016738Y012161D01*
X016674Y012316D01*
X016556Y012434D01*
X016401Y012498D01*
X016234Y012498D01*
X016080Y012434D01*
X015964Y012318D01*
X015728Y012318D01*
X014054Y013992D01*
X013954Y014092D01*
X013854Y014192D01*
X013786Y014260D01*
X013698Y014296D01*
X013013Y014296D01*
X012993Y014316D01*
X014151Y014316D01*
X015593Y012874D01*
X015681Y012838D01*
X015964Y012838D01*
X016080Y012722D01*
X016234Y012658D01*
X016401Y012658D01*
X016556Y012722D01*
X016674Y012840D01*
X016738Y012994D01*
X016738Y013161D01*
X016674Y013316D01*
X016556Y013434D01*
X016401Y013498D01*
X016234Y013498D01*
X016080Y013434D01*
X015964Y013318D01*
X015828Y013318D01*
X014454Y014692D01*
X014386Y014760D01*
X014298Y014796D01*
X012950Y014796D01*
X012970Y014816D01*
X014551Y014816D01*
X015493Y013874D01*
X015581Y013838D01*
X015964Y013838D01*
X016080Y013722D01*
X016234Y013658D01*
X016401Y013658D01*
X016556Y013722D01*
X016674Y013840D01*
X016738Y013994D01*
X016738Y014161D01*
X016674Y014316D01*
X016556Y014434D01*
X016401Y014498D01*
X016234Y014498D01*
X016080Y014434D01*
X015964Y014318D01*
X015728Y014318D01*
X014854Y015192D01*
X014786Y015260D01*
X014698Y015296D01*
X013013Y015296D01*
X012993Y015316D01*
X014951Y015316D01*
X015393Y014874D01*
X015481Y014838D01*
X015964Y014838D01*
X016080Y014722D01*
X016234Y014658D01*
X016401Y014658D01*
X016556Y014722D01*
X016674Y014840D01*
X016738Y014994D01*
X016738Y015161D01*
X016674Y015316D01*
X016556Y015434D01*
X016401Y015498D01*
X016234Y015498D01*
X016080Y015434D01*
X015964Y015318D01*
X015628Y015318D01*
X015254Y015692D01*
X015186Y015760D01*
X015098Y015796D01*
X012950Y015796D01*
X012991Y015838D01*
X015964Y015838D01*
X016080Y015722D01*
X016234Y015658D01*
X016401Y015658D01*
X016556Y015722D01*
X016674Y015840D01*
X016738Y015994D01*
X016738Y016161D01*
X016674Y016316D01*
X016556Y016434D01*
X016401Y016498D01*
X016234Y016498D01*
X016080Y016434D01*
X015964Y016318D01*
X012991Y016318D01*
X012791Y016518D01*
X012427Y016518D01*
X012169Y016260D01*
X012169Y015895D01*
X012268Y015796D01*
X012040Y015796D01*
X011952Y015760D01*
X011710Y015518D01*
X011427Y015518D01*
X011169Y015260D01*
X011169Y014895D01*
X011427Y014638D01*
X011791Y014638D01*
X012049Y014895D01*
X012049Y015178D01*
X012187Y015316D01*
X012226Y015316D01*
X012169Y015260D01*
X012169Y014895D01*
X012268Y014796D01*
X012040Y014796D01*
X011952Y014760D01*
X011710Y014518D01*
X011427Y014518D01*
X011169Y014260D01*
X011169Y013895D01*
X011427Y013638D01*
X011791Y013638D01*
X012049Y013895D01*
X012049Y014178D01*
X012187Y014316D01*
X012226Y014316D01*
X012169Y014260D01*
X012169Y013895D01*
X012268Y013796D01*
X012040Y013796D01*
X011952Y013760D01*
X011710Y013518D01*
X011427Y013518D01*
X011169Y013260D01*
X011169Y012895D01*
X011427Y012638D01*
X011791Y012638D01*
X012049Y012895D01*
X012049Y013178D01*
X012187Y013316D01*
X012226Y013316D01*
X012169Y013260D01*
X012169Y012895D01*
X012427Y012638D01*
X012710Y012638D01*
X015473Y009874D01*
X015561Y009838D01*
X015964Y009838D01*
X016080Y009722D01*
X016234Y009658D01*
X016401Y009658D01*
X016556Y009722D01*
X016674Y009840D01*
X016738Y009994D01*
X016738Y010161D01*
X016674Y010316D01*
X016556Y010434D01*
X016401Y010498D01*
X016234Y010498D01*
X016080Y010434D01*
X015964Y010318D01*
X015709Y010318D01*
X013049Y012977D01*
X013049Y013260D01*
X012993Y013316D01*
X013151Y013316D01*
X015593Y010874D01*
X015681Y010838D01*
X015964Y010838D01*
X016080Y010722D01*
X016234Y010658D01*
X016401Y010658D01*
X016556Y010722D01*
X016674Y010840D01*
X016738Y010994D01*
X016738Y011161D01*
X016674Y011316D01*
X016556Y011434D01*
X016401Y011498D01*
X016234Y011498D01*
X016080Y011434D01*
X015964Y011318D01*
X015828Y011318D01*
X013454Y013692D01*
X013386Y013760D01*
X013298Y013796D01*
X012950Y013796D01*
X012970Y013816D01*
X013551Y013816D01*
X013614Y013753D01*
X013714Y013653D01*
X015493Y011874D01*
X015581Y011838D01*
X015964Y011838D01*
X016080Y011722D01*
X016113Y011447D02*
X015698Y011447D01*
X015729Y011078D02*
X013250Y013556D01*
X012088Y013556D01*
X011609Y013078D01*
X011169Y013032D02*
X010542Y013032D01*
X010542Y012874D02*
X011191Y012874D01*
X011349Y012715D02*
X010542Y012715D01*
X010542Y012557D02*
X012790Y012557D01*
X012758Y012438D02*
X012619Y012438D01*
X012619Y012088D01*
X012599Y012088D01*
X012599Y012438D01*
X012460Y012438D01*
X012249Y012227D01*
X012249Y012088D01*
X012599Y012088D01*
X012599Y012068D01*
X012249Y012068D01*
X012249Y011929D01*
X012460Y011718D01*
X012599Y011718D01*
X012599Y012068D01*
X012619Y012068D01*
X012619Y012088D01*
X012969Y012088D01*
X012969Y012227D01*
X012758Y012438D01*
X012797Y012398D02*
X012949Y012398D01*
X012956Y012240D02*
X013107Y012240D01*
X012969Y012068D02*
X012619Y012068D01*
X012619Y011718D01*
X012758Y011718D01*
X012969Y011929D01*
X012969Y012068D01*
X012964Y011923D02*
X013424Y011923D01*
X013266Y012081D02*
X012619Y012081D01*
X012599Y012081D02*
X011619Y012081D01*
X011619Y012088D02*
X011969Y012088D01*
X011969Y012227D01*
X011758Y012438D01*
X011619Y012438D01*
X011619Y012088D01*
X011599Y012088D01*
X011599Y012438D01*
X011460Y012438D01*
X011249Y012227D01*
X011249Y012088D01*
X011599Y012088D01*
X011599Y012068D01*
X011249Y012068D01*
X011249Y011929D01*
X011460Y011718D01*
X011599Y011718D01*
X011599Y012068D01*
X011619Y012068D01*
X011619Y012088D01*
X011619Y012068D02*
X011969Y012068D01*
X011969Y011929D01*
X011758Y011718D01*
X011619Y011718D01*
X011619Y012068D01*
X011599Y012081D02*
X010542Y012081D01*
X010542Y011923D02*
X011255Y011923D01*
X011413Y011764D02*
X010542Y011764D01*
X010542Y011606D02*
X013741Y011606D01*
X013583Y011764D02*
X012805Y011764D01*
X012619Y011764D02*
X012599Y011764D01*
X012599Y011923D02*
X012619Y011923D01*
X012413Y011764D02*
X011805Y011764D01*
X011619Y011764D02*
X011599Y011764D01*
X011599Y011923D02*
X011619Y011923D01*
X011599Y012240D02*
X011619Y012240D01*
X011619Y012398D02*
X011599Y012398D01*
X011421Y012398D02*
X010542Y012398D01*
X010542Y012240D02*
X011262Y012240D01*
X011169Y013191D02*
X010542Y013191D01*
X010542Y013349D02*
X011259Y013349D01*
X011417Y013508D02*
X010542Y013508D01*
X010542Y013666D02*
X011398Y013666D01*
X011240Y013825D02*
X010542Y013825D01*
X010542Y013983D02*
X011169Y013983D01*
X011169Y014142D02*
X010542Y014142D01*
X010542Y014300D02*
X011210Y014300D01*
X011368Y014459D02*
X010542Y014459D01*
X010542Y014617D02*
X011809Y014617D01*
X011930Y014776D02*
X011991Y014776D01*
X012049Y014934D02*
X012169Y014934D01*
X012169Y015093D02*
X012049Y015093D01*
X012122Y015251D02*
X012169Y015251D01*
X012088Y015556D02*
X011609Y015078D01*
X011169Y015093D02*
X010542Y015093D01*
X010542Y015251D02*
X011169Y015251D01*
X011319Y015410D02*
X010542Y015410D01*
X010542Y015568D02*
X011760Y015568D01*
X011791Y015638D02*
X012049Y015895D01*
X012049Y016178D01*
X012709Y016838D01*
X015964Y016838D01*
X016080Y016722D01*
X016234Y016658D01*
X016401Y016658D01*
X016556Y016722D01*
X016674Y016840D01*
X016738Y016994D01*
X016738Y017161D01*
X016674Y017316D01*
X016556Y017434D01*
X016401Y017498D01*
X016234Y017498D01*
X016080Y017434D01*
X015964Y017318D01*
X012561Y017318D01*
X012473Y017281D01*
X011710Y016518D01*
X011427Y016518D01*
X011169Y016260D01*
X011169Y015895D01*
X011427Y015638D01*
X011791Y015638D01*
X011881Y015727D02*
X011919Y015727D01*
X012039Y015885D02*
X012179Y015885D01*
X012169Y016044D02*
X012049Y016044D01*
X012073Y016202D02*
X012169Y016202D01*
X012232Y016361D02*
X012270Y016361D01*
X012390Y016519D02*
X021470Y016519D01*
X021470Y016361D02*
X021353Y016361D01*
X021398Y016316D02*
X021280Y016434D01*
X021126Y016498D01*
X020959Y016498D01*
X020804Y016434D01*
X020686Y016316D01*
X020622Y016161D01*
X020622Y015994D01*
X020686Y015840D01*
X020804Y015722D01*
X020959Y015658D01*
X021126Y015658D01*
X021280Y015722D01*
X021398Y015840D01*
X021462Y015994D01*
X021462Y016161D01*
X021398Y016316D01*
X021445Y016202D02*
X021470Y016202D01*
X021462Y016044D02*
X021470Y016044D01*
X021470Y015885D02*
X021417Y015885D01*
X021470Y015727D02*
X021285Y015727D01*
X021470Y015568D02*
X015377Y015568D01*
X015219Y015727D02*
X016075Y015727D01*
X016056Y015410D02*
X015536Y015410D01*
X015529Y015078D02*
X015050Y015556D01*
X012088Y015556D01*
X011609Y016078D02*
X012609Y017078D01*
X016318Y017078D01*
X016467Y017470D02*
X019168Y017470D01*
X019234Y017498D02*
X019080Y017434D01*
X018962Y017316D01*
X018898Y017161D01*
X018898Y016994D01*
X018962Y016840D01*
X019080Y016722D01*
X019234Y016658D01*
X019401Y016658D01*
X019556Y016722D01*
X019674Y016840D01*
X019738Y016994D01*
X019738Y017161D01*
X019674Y017316D01*
X019556Y017434D01*
X019401Y017498D01*
X019234Y017498D01*
X019467Y017470D02*
X021470Y017470D01*
X021470Y017312D02*
X019675Y017312D01*
X019738Y017153D02*
X021470Y017153D01*
X021470Y016995D02*
X019738Y016995D01*
X019671Y016836D02*
X021470Y016836D01*
X021470Y016678D02*
X019450Y016678D01*
X019401Y016498D02*
X019234Y016498D01*
X019080Y016434D01*
X018962Y016316D01*
X018898Y016161D01*
X018898Y015994D01*
X018962Y015840D01*
X019080Y015722D01*
X019234Y015658D01*
X019401Y015658D01*
X019556Y015722D01*
X019674Y015840D01*
X019738Y015994D01*
X019738Y016161D01*
X019674Y016316D01*
X019556Y016434D01*
X019401Y016498D01*
X019629Y016361D02*
X020731Y016361D01*
X020639Y016202D02*
X019721Y016202D01*
X019738Y016044D02*
X020622Y016044D01*
X020667Y015885D02*
X019693Y015885D01*
X019561Y015727D02*
X020799Y015727D01*
X020959Y015498D02*
X020804Y015434D01*
X020686Y015316D01*
X020622Y015161D01*
X020622Y014994D01*
X020686Y014840D01*
X020804Y014722D01*
X020959Y014658D01*
X021126Y014658D01*
X021280Y014722D01*
X021398Y014840D01*
X021462Y014994D01*
X021462Y015161D01*
X021398Y015316D01*
X021280Y015434D01*
X021126Y015498D01*
X020959Y015498D01*
X020780Y015410D02*
X019580Y015410D01*
X019556Y015434D02*
X019401Y015498D01*
X019234Y015498D01*
X019080Y015434D01*
X018962Y015316D01*
X018898Y015161D01*
X018898Y014994D01*
X018962Y014840D01*
X019080Y014722D01*
X019234Y014658D01*
X019401Y014658D01*
X019556Y014722D01*
X019674Y014840D01*
X019738Y014994D01*
X019738Y015161D01*
X019674Y015316D01*
X019556Y015434D01*
X019700Y015251D02*
X020660Y015251D01*
X020622Y015093D02*
X019738Y015093D01*
X019713Y014934D02*
X020647Y014934D01*
X020750Y014776D02*
X019610Y014776D01*
X019495Y014459D02*
X020865Y014459D01*
X020804Y014434D02*
X020686Y014316D01*
X020622Y014161D01*
X020622Y013994D01*
X020686Y013840D01*
X020804Y013722D01*
X020959Y013658D01*
X021126Y013658D01*
X021280Y013722D01*
X021398Y013840D01*
X021462Y013994D01*
X021462Y014161D01*
X021398Y014316D01*
X021280Y014434D01*
X021126Y014498D01*
X020959Y014498D01*
X020804Y014434D01*
X020680Y014300D02*
X019680Y014300D01*
X019674Y014316D02*
X019556Y014434D01*
X019401Y014498D01*
X019234Y014498D01*
X019080Y014434D01*
X018962Y014316D01*
X018898Y014161D01*
X018898Y013994D01*
X018962Y013840D01*
X019080Y013722D01*
X019234Y013658D01*
X019401Y013658D01*
X019556Y013722D01*
X019674Y013840D01*
X019738Y013994D01*
X019738Y014161D01*
X019674Y014316D01*
X019738Y014142D02*
X020622Y014142D01*
X020627Y013983D02*
X019733Y013983D01*
X019659Y013825D02*
X020701Y013825D01*
X020938Y013666D02*
X019422Y013666D01*
X019401Y013498D02*
X019234Y013498D01*
X019080Y013434D01*
X018962Y013316D01*
X018898Y013161D01*
X018898Y012994D01*
X018962Y012840D01*
X019080Y012722D01*
X019234Y012658D01*
X019401Y012658D01*
X019556Y012722D01*
X019674Y012840D01*
X019738Y012994D01*
X019738Y013161D01*
X019674Y013316D01*
X019556Y013434D01*
X019401Y013498D01*
X019213Y013666D02*
X016422Y013666D01*
X016213Y013666D02*
X015479Y013666D01*
X015321Y013825D02*
X015977Y013825D01*
X016318Y014078D02*
X015629Y014078D01*
X014650Y015056D01*
X012630Y015056D01*
X012609Y015078D01*
X012210Y014300D02*
X012171Y014300D01*
X012169Y014142D02*
X012049Y014142D01*
X012049Y013983D02*
X012169Y013983D01*
X012240Y013825D02*
X011979Y013825D01*
X011858Y013666D02*
X011820Y013666D01*
X011609Y014078D02*
X012088Y014556D01*
X014250Y014556D01*
X015729Y013078D01*
X016318Y013078D01*
X016640Y013349D02*
X018996Y013349D01*
X018910Y013191D02*
X016725Y013191D01*
X016738Y013032D02*
X018898Y013032D01*
X018948Y012874D02*
X016688Y012874D01*
X016541Y012715D02*
X019095Y012715D01*
X019234Y012498D02*
X019080Y012434D01*
X018962Y012316D01*
X018898Y012161D01*
X018898Y011994D01*
X018962Y011840D01*
X019080Y011722D01*
X019234Y011658D01*
X019401Y011658D01*
X019556Y011722D01*
X019674Y011840D01*
X019738Y011994D01*
X019738Y012161D01*
X019674Y012316D01*
X019556Y012434D01*
X019401Y012498D01*
X019234Y012498D01*
X019045Y012398D02*
X016591Y012398D01*
X016705Y012240D02*
X018930Y012240D01*
X018898Y012081D02*
X016738Y012081D01*
X016708Y011923D02*
X018927Y011923D01*
X019037Y011764D02*
X016599Y011764D01*
X016523Y011447D02*
X019113Y011447D01*
X019080Y011434D02*
X018962Y011316D01*
X018898Y011161D01*
X018898Y010994D01*
X018962Y010840D01*
X019080Y010722D01*
X019234Y010658D01*
X019401Y010658D01*
X019556Y010722D01*
X019674Y010840D01*
X019738Y010994D01*
X019738Y011161D01*
X019674Y011316D01*
X019556Y011434D01*
X019401Y011498D01*
X019234Y011498D01*
X019080Y011434D01*
X018951Y011289D02*
X016685Y011289D01*
X016738Y011130D02*
X018898Y011130D01*
X018907Y010972D02*
X016729Y010972D01*
X016648Y010813D02*
X018988Y010813D01*
X019080Y010434D02*
X018962Y010316D01*
X018898Y010161D01*
X018898Y009994D01*
X018962Y009840D01*
X019080Y009722D01*
X019234Y009658D01*
X019401Y009658D01*
X019556Y009722D01*
X019674Y009840D01*
X019738Y009994D01*
X019738Y010161D01*
X019674Y010316D01*
X019556Y010434D01*
X019401Y010498D01*
X019234Y010498D01*
X019080Y010434D01*
X018984Y010338D02*
X016652Y010338D01*
X016730Y010179D02*
X018905Y010179D01*
X018898Y010021D02*
X016738Y010021D01*
X016683Y009862D02*
X018952Y009862D01*
X019123Y009704D02*
X016513Y009704D01*
X016123Y009704D02*
X010542Y009704D01*
X010542Y009862D02*
X015502Y009862D01*
X015326Y010021D02*
X010542Y010021D01*
X010542Y010179D02*
X015168Y010179D01*
X015009Y010338D02*
X010542Y010338D01*
X010542Y010496D02*
X014851Y010496D01*
X014692Y010655D02*
X010542Y010655D01*
X010542Y010813D02*
X014534Y010813D01*
X014375Y010972D02*
X010542Y010972D01*
X010542Y011130D02*
X014217Y011130D01*
X014058Y011289D02*
X010542Y011289D01*
X010542Y011447D02*
X013900Y011447D01*
X014262Y011764D02*
X014703Y011764D01*
X014861Y011606D02*
X014420Y011606D01*
X014579Y011447D02*
X015020Y011447D01*
X015178Y011289D02*
X014737Y011289D01*
X014896Y011130D02*
X015337Y011130D01*
X015495Y010972D02*
X015054Y010972D01*
X015213Y010813D02*
X015988Y010813D01*
X015729Y011078D02*
X016318Y011078D01*
X016404Y010496D02*
X019231Y010496D01*
X019404Y010496D02*
X020956Y010496D01*
X020959Y010498D02*
X020804Y010434D01*
X020686Y010316D01*
X020622Y010161D01*
X020622Y009994D01*
X020686Y009840D01*
X020804Y009722D01*
X020959Y009658D01*
X021126Y009658D01*
X021280Y009722D01*
X021398Y009840D01*
X021462Y009994D01*
X021462Y010161D01*
X021398Y010316D01*
X021280Y010434D01*
X021126Y010498D01*
X020959Y010498D01*
X020959Y010658D02*
X021126Y010658D01*
X021280Y010722D01*
X021398Y010840D01*
X021462Y010994D01*
X021462Y011161D01*
X021398Y011316D01*
X021280Y011434D01*
X021126Y011498D01*
X020959Y011498D01*
X020804Y011434D01*
X020686Y011316D01*
X020622Y011161D01*
X020622Y010994D01*
X020686Y010840D01*
X020804Y010722D01*
X020959Y010658D01*
X021129Y010496D02*
X022270Y010496D01*
X022270Y010338D02*
X021376Y010338D01*
X021455Y010179D02*
X022270Y010179D01*
X022270Y010021D02*
X021462Y010021D01*
X021408Y009862D02*
X022270Y009862D01*
X022270Y009704D02*
X021237Y009704D01*
X021141Y009405D02*
X021076Y009418D01*
X021042Y009418D01*
X021009Y009418D01*
X020943Y009405D01*
X020881Y009379D01*
X020825Y009342D01*
X020778Y009294D01*
X020741Y009239D01*
X020715Y009177D01*
X020702Y009111D01*
X020702Y009078D01*
X021042Y009078D01*
X021042Y009418D01*
X021042Y009078D01*
X021042Y009078D01*
X021042Y009078D01*
X020702Y009078D01*
X020702Y009044D01*
X020715Y008978D01*
X020741Y008917D01*
X020778Y008861D01*
X020825Y008814D01*
X020881Y008776D01*
X020943Y008751D01*
X021009Y008738D01*
X021042Y008738D01*
X021042Y009078D01*
X021382Y009078D01*
X021382Y009111D01*
X021369Y009177D01*
X021344Y009239D01*
X021306Y009294D01*
X021259Y009342D01*
X021203Y009379D01*
X021141Y009405D01*
X021184Y009387D02*
X022270Y009387D01*
X022270Y009545D02*
X010542Y009545D01*
X010542Y009387D02*
X020900Y009387D01*
X021042Y009387D02*
X021042Y009387D01*
X021042Y009228D02*
X021042Y009228D01*
X021042Y009078D02*
X021042Y009078D01*
X021042Y009078D01*
X021382Y009078D01*
X021382Y009044D01*
X021369Y008978D01*
X021344Y008917D01*
X021306Y008861D01*
X021259Y008814D01*
X021203Y008776D01*
X021141Y008751D01*
X021076Y008738D01*
X021042Y008738D01*
X021042Y009078D01*
X021042Y009070D02*
X021042Y009070D01*
X021042Y008911D02*
X021042Y008911D01*
X021042Y008753D02*
X021042Y008753D01*
X020938Y008753D02*
X010542Y008753D01*
X010542Y008911D02*
X020744Y008911D01*
X020702Y009070D02*
X010542Y009070D01*
X010542Y009228D02*
X020737Y009228D01*
X020847Y009704D02*
X019513Y009704D01*
X019683Y009862D02*
X020677Y009862D01*
X020622Y010021D02*
X019738Y010021D01*
X019730Y010179D02*
X020630Y010179D01*
X020708Y010338D02*
X019652Y010338D01*
X019648Y010813D02*
X020712Y010813D01*
X020631Y010972D02*
X019729Y010972D01*
X019738Y011130D02*
X020622Y011130D01*
X020675Y011289D02*
X019685Y011289D01*
X019523Y011447D02*
X020837Y011447D01*
X020761Y011764D02*
X019599Y011764D01*
X019708Y011923D02*
X020652Y011923D01*
X020622Y012081D02*
X019738Y012081D01*
X019705Y012240D02*
X020655Y012240D01*
X020769Y012398D02*
X019591Y012398D01*
X019541Y012715D02*
X020819Y012715D01*
X020804Y012722D02*
X020959Y012658D01*
X021126Y012658D01*
X021280Y012722D01*
X021398Y012840D01*
X021462Y012994D01*
X021462Y013161D01*
X021398Y013316D01*
X021280Y013434D01*
X021126Y013498D01*
X020959Y013498D01*
X020804Y013434D01*
X020686Y013316D01*
X020622Y013161D01*
X020622Y012994D01*
X020686Y012840D01*
X020804Y012722D01*
X020672Y012874D02*
X019688Y012874D01*
X019738Y013032D02*
X020622Y013032D01*
X020635Y013191D02*
X019725Y013191D01*
X019640Y013349D02*
X020720Y013349D01*
X021147Y013666D02*
X021470Y013666D01*
X021470Y013508D02*
X015638Y013508D01*
X015796Y013349D02*
X015996Y013349D01*
X015594Y012874D02*
X015172Y012874D01*
X015013Y013032D02*
X015435Y013032D01*
X015276Y013191D02*
X014855Y013191D01*
X014696Y013349D02*
X015118Y013349D01*
X014959Y013508D02*
X014538Y013508D01*
X014379Y013666D02*
X014801Y013666D01*
X014642Y013825D02*
X014221Y013825D01*
X014062Y013983D02*
X014484Y013983D01*
X014325Y014142D02*
X013904Y014142D01*
X013750Y013956D02*
X013650Y014056D01*
X012630Y014056D01*
X012609Y014078D01*
X013009Y014300D02*
X014167Y014300D01*
X014528Y014617D02*
X014750Y014617D01*
X014687Y014459D02*
X014908Y014459D01*
X014845Y014300D02*
X015067Y014300D01*
X015004Y014142D02*
X015225Y014142D01*
X015162Y013983D02*
X015384Y013983D01*
X015587Y014459D02*
X016141Y014459D01*
X016026Y014776D02*
X015270Y014776D01*
X015333Y014934D02*
X015111Y014934D01*
X015174Y015093D02*
X014953Y015093D01*
X015016Y015251D02*
X014794Y015251D01*
X014591Y014776D02*
X014347Y014776D01*
X013750Y013956D02*
X013850Y013856D01*
X015629Y012078D01*
X016318Y012078D01*
X016045Y012398D02*
X015647Y012398D01*
X015489Y012557D02*
X021470Y012557D01*
X021470Y012715D02*
X021265Y012715D01*
X021412Y012874D02*
X021470Y012874D01*
X021462Y013032D02*
X021470Y013032D01*
X021470Y013191D02*
X021450Y013191D01*
X021470Y013349D02*
X021364Y013349D01*
X021383Y013825D02*
X021470Y013825D01*
X021458Y013983D02*
X021470Y013983D01*
X021462Y014142D02*
X021470Y014142D01*
X021470Y014300D02*
X021405Y014300D01*
X021470Y014459D02*
X021219Y014459D01*
X021470Y014617D02*
X015428Y014617D01*
X015529Y015078D02*
X016318Y015078D01*
X016700Y015251D02*
X018935Y015251D01*
X018898Y015093D02*
X016738Y015093D01*
X016713Y014934D02*
X018923Y014934D01*
X019026Y014776D02*
X016610Y014776D01*
X016495Y014459D02*
X019141Y014459D01*
X018955Y014300D02*
X016680Y014300D01*
X016738Y014142D02*
X018898Y014142D01*
X018902Y013983D02*
X016733Y013983D01*
X016659Y013825D02*
X018977Y013825D01*
X019056Y015410D02*
X016580Y015410D01*
X016561Y015727D02*
X019075Y015727D01*
X018943Y015885D02*
X016693Y015885D01*
X016738Y016044D02*
X018898Y016044D01*
X018915Y016202D02*
X016721Y016202D01*
X016629Y016361D02*
X019007Y016361D01*
X019185Y016678D02*
X016450Y016678D01*
X016185Y016678D02*
X012549Y016678D01*
X012707Y016836D02*
X015965Y016836D01*
X016007Y016361D02*
X012948Y016361D01*
X012609Y016078D02*
X016318Y016078D01*
X016671Y016836D02*
X018965Y016836D01*
X018898Y016995D02*
X016738Y016995D01*
X016738Y017153D02*
X018898Y017153D01*
X018960Y017312D02*
X016675Y017312D01*
X016556Y017722D02*
X016674Y017840D01*
X016738Y017994D01*
X016738Y018161D01*
X016674Y018316D01*
X016556Y018434D01*
X016401Y018498D01*
X016234Y018498D01*
X016080Y018434D01*
X015962Y018316D01*
X015898Y018161D01*
X015898Y017994D01*
X015962Y017840D01*
X016080Y017722D01*
X016234Y017658D01*
X016401Y017658D01*
X016556Y017722D01*
X016622Y017787D02*
X019140Y017787D01*
X019157Y017776D02*
X019219Y017751D01*
X019284Y017738D01*
X019318Y017738D01*
X019351Y017738D01*
X019417Y017751D01*
X019479Y017776D01*
X019535Y017814D01*
X019582Y017861D01*
X019619Y017917D01*
X019645Y017978D01*
X019658Y018044D01*
X019658Y018078D01*
X019658Y018111D01*
X019645Y018177D01*
X019619Y018239D01*
X019582Y018294D01*
X019535Y018342D01*
X019479Y018379D01*
X019417Y018405D01*
X019351Y018418D01*
X019318Y018418D01*
X019318Y018078D01*
X019318Y018078D01*
X019658Y018078D01*
X019318Y018078D01*
X019318Y018078D01*
X019318Y018418D01*
X019284Y018418D01*
X019219Y018405D01*
X019157Y018379D01*
X019101Y018342D01*
X019054Y018294D01*
X019016Y018239D01*
X018991Y018177D01*
X018978Y018111D01*
X018978Y018078D01*
X019318Y018078D01*
X019318Y018078D01*
X019318Y017738D01*
X019318Y018078D01*
X019318Y018078D01*
X018978Y018078D01*
X018978Y018044D01*
X018991Y017978D01*
X019016Y017917D01*
X019054Y017861D01*
X019101Y017814D01*
X019157Y017776D01*
X019318Y017787D02*
X019318Y017787D01*
X019318Y017946D02*
X019318Y017946D01*
X019318Y018104D02*
X019318Y018104D01*
X019318Y018263D02*
X019318Y018263D01*
X019603Y018263D02*
X021470Y018263D01*
X021470Y018421D02*
X016568Y018421D01*
X016696Y018263D02*
X019033Y018263D01*
X018978Y018104D02*
X016738Y018104D01*
X016718Y017946D02*
X019004Y017946D01*
X019495Y017787D02*
X021470Y017787D01*
X021470Y017629D02*
X010542Y017629D01*
X010542Y017787D02*
X016014Y017787D01*
X015918Y017946D02*
X010542Y017946D01*
X010542Y018104D02*
X015898Y018104D01*
X015940Y018263D02*
X010542Y018263D01*
X010542Y018421D02*
X016068Y018421D01*
X016168Y017470D02*
X010542Y017470D01*
X010542Y017312D02*
X012548Y017312D01*
X012345Y017153D02*
X010542Y017153D01*
X010542Y016995D02*
X012187Y016995D01*
X012028Y016836D02*
X010542Y016836D01*
X010542Y016678D02*
X011870Y016678D01*
X011711Y016519D02*
X010542Y016519D01*
X010542Y016361D02*
X011270Y016361D01*
X011169Y016202D02*
X010542Y016202D01*
X010542Y016044D02*
X011169Y016044D01*
X011179Y015885D02*
X010542Y015885D01*
X010542Y015727D02*
X011338Y015727D01*
X011169Y014934D02*
X010542Y014934D01*
X010542Y014776D02*
X011289Y014776D01*
X012062Y013191D02*
X012169Y013191D01*
X012169Y013032D02*
X012049Y013032D01*
X012028Y012874D02*
X012191Y012874D01*
X012349Y012715D02*
X011869Y012715D01*
X011797Y012398D02*
X012421Y012398D01*
X012599Y012398D02*
X012619Y012398D01*
X012619Y012240D02*
X012599Y012240D01*
X012262Y012240D02*
X011956Y012240D01*
X011964Y011923D02*
X012255Y011923D01*
X012609Y013078D02*
X015609Y010078D01*
X016318Y010078D01*
X015984Y010338D02*
X015688Y010338D01*
X015530Y010496D02*
X016231Y010496D01*
X015371Y010655D02*
X022270Y010655D01*
X022270Y010813D02*
X021372Y010813D01*
X021453Y010972D02*
X022255Y010972D01*
X022251Y011130D02*
X021462Y011130D01*
X021409Y011289D02*
X022270Y011289D01*
X022270Y011447D02*
X021247Y011447D01*
X021323Y011764D02*
X021658Y011764D01*
X021475Y011923D02*
X021433Y011923D01*
X021430Y012240D02*
X021470Y012240D01*
X021470Y012398D02*
X021315Y012398D01*
X022830Y012398D02*
X023769Y012398D01*
X023655Y012240D02*
X022830Y012240D01*
X022830Y012081D02*
X023622Y012081D01*
X023652Y011923D02*
X022830Y011923D01*
X022830Y011764D02*
X023761Y011764D01*
X023837Y011447D02*
X022830Y011447D01*
X022830Y011289D02*
X023675Y011289D01*
X023622Y011130D02*
X022850Y011130D01*
X022845Y010972D02*
X023631Y010972D01*
X023712Y010813D02*
X022830Y010813D01*
X022830Y010655D02*
X024470Y010655D01*
X024470Y010813D02*
X024372Y010813D01*
X024453Y010972D02*
X024470Y010972D01*
X024462Y011130D02*
X024470Y011130D01*
X024422Y011289D02*
X024409Y011289D01*
X024263Y011447D02*
X024247Y011447D01*
X024105Y011606D02*
X022830Y011606D01*
X022830Y012557D02*
X032573Y012557D01*
X032573Y012715D02*
X022830Y012715D01*
X022830Y012874D02*
X023769Y012874D01*
X023778Y012861D02*
X023825Y012814D01*
X023881Y012776D01*
X023943Y012751D01*
X024009Y012738D01*
X024042Y012738D01*
X024042Y013078D01*
X024042Y013418D01*
X024009Y013418D01*
X023943Y013405D01*
X023881Y013379D01*
X023825Y013342D01*
X023778Y013294D01*
X023741Y013239D01*
X023715Y013177D01*
X023702Y013111D01*
X023702Y013078D01*
X024042Y013078D01*
X024042Y013078D01*
X024042Y013078D01*
X024042Y013418D01*
X024076Y013418D01*
X024141Y013405D01*
X024203Y013379D01*
X024259Y013342D01*
X024306Y013294D01*
X024344Y013239D01*
X024369Y013177D01*
X024382Y013111D01*
X024382Y013078D01*
X024042Y013078D01*
X023702Y013078D01*
X023702Y013044D01*
X023715Y012978D01*
X023741Y012917D01*
X023778Y012861D01*
X023705Y013032D02*
X022830Y013032D01*
X022830Y013191D02*
X023721Y013191D01*
X023837Y013349D02*
X022830Y013349D01*
X022830Y013508D02*
X032573Y013508D01*
X032573Y013666D02*
X024147Y013666D01*
X024126Y013658D02*
X024280Y013722D01*
X024398Y013840D01*
X024462Y013994D01*
X024462Y014161D01*
X024398Y014316D01*
X024280Y014434D01*
X024126Y014498D01*
X024005Y014498D01*
X023530Y014972D01*
X023530Y018918D01*
X024018Y019406D01*
X024126Y019406D01*
X024280Y019470D01*
X024398Y019588D01*
X024462Y019742D01*
X024462Y019909D01*
X024398Y020064D01*
X024280Y020182D01*
X024126Y020246D01*
X023959Y020246D01*
X023804Y020182D01*
X023686Y020064D01*
X023622Y019909D01*
X023622Y019802D01*
X023091Y019271D01*
X023013Y019192D01*
X022970Y019089D01*
X022970Y014801D01*
X023013Y014698D01*
X023622Y014088D01*
X023622Y013994D01*
X023686Y013840D01*
X023804Y013722D01*
X023959Y013658D01*
X024126Y013658D01*
X023938Y013666D02*
X022830Y013666D01*
X022830Y013825D02*
X023701Y013825D01*
X023627Y013983D02*
X022830Y013983D01*
X022830Y014142D02*
X023569Y014142D01*
X023410Y014300D02*
X022830Y014300D01*
X022830Y014459D02*
X023252Y014459D01*
X023093Y014617D02*
X022830Y014617D01*
X022830Y014776D02*
X022980Y014776D01*
X022970Y014934D02*
X022830Y014934D01*
X022830Y015093D02*
X022970Y015093D01*
X022970Y015251D02*
X022830Y015251D01*
X022830Y015410D02*
X022970Y015410D01*
X022970Y015568D02*
X022830Y015568D01*
X022830Y015727D02*
X022970Y015727D01*
X022970Y015885D02*
X022830Y015885D01*
X022830Y016044D02*
X022970Y016044D01*
X022970Y016202D02*
X022830Y016202D01*
X022830Y016361D02*
X022970Y016361D01*
X022970Y016519D02*
X022830Y016519D01*
X022830Y016678D02*
X022970Y016678D01*
X022970Y016836D02*
X022830Y016836D01*
X022830Y016995D02*
X022970Y016995D01*
X022970Y017153D02*
X022830Y017153D01*
X022830Y017312D02*
X022970Y017312D01*
X022970Y017470D02*
X022830Y017470D01*
X022830Y017629D02*
X022970Y017629D01*
X022970Y017787D02*
X022830Y017787D01*
X022830Y017946D02*
X022970Y017946D01*
X022970Y018104D02*
X022830Y018104D01*
X022830Y018263D02*
X022970Y018263D01*
X022970Y018421D02*
X022830Y018421D01*
X022830Y018580D02*
X022970Y018580D01*
X022970Y018738D02*
X022830Y018738D01*
X022830Y018897D02*
X022970Y018897D01*
X022970Y019055D02*
X022830Y019055D01*
X022830Y019214D02*
X023034Y019214D01*
X023193Y019372D02*
X022830Y019372D01*
X022830Y019531D02*
X023351Y019531D01*
X023510Y019689D02*
X022830Y019689D01*
X022830Y019848D02*
X023622Y019848D01*
X023662Y020006D02*
X022830Y020006D01*
X022830Y020165D02*
X023787Y020165D01*
X023959Y020406D02*
X023804Y020470D01*
X023686Y020588D01*
X023622Y020742D01*
X023622Y020909D01*
X023686Y021064D01*
X023804Y021182D01*
X023959Y021246D01*
X024126Y021246D01*
X024280Y021182D01*
X024398Y021064D01*
X024462Y020909D01*
X024462Y020742D01*
X024398Y020588D01*
X024280Y020470D01*
X024126Y020406D01*
X023959Y020406D01*
X023792Y020482D02*
X022830Y020482D01*
X022830Y020640D02*
X023664Y020640D01*
X023622Y020799D02*
X022830Y020799D01*
X022830Y020957D02*
X023642Y020957D01*
X023738Y021116D02*
X022830Y021116D01*
X022830Y021274D02*
X032573Y021274D01*
X032573Y021116D02*
X026776Y021116D01*
X026726Y021166D02*
X026586Y021166D01*
X026586Y020826D01*
X026926Y020826D01*
X026926Y020967D01*
X026726Y021166D01*
X026586Y021166D02*
X026586Y020826D01*
X026586Y020826D01*
X026586Y020826D01*
X026926Y020826D01*
X026926Y020685D01*
X026726Y020486D01*
X026586Y020486D01*
X026586Y020826D01*
X026586Y020826D01*
X026585Y020826D02*
X026585Y020826D01*
X026246Y020826D01*
X026246Y020967D01*
X026445Y021166D01*
X026586Y021166D01*
X026586Y021116D02*
X026586Y021116D01*
X026586Y020957D02*
X026586Y020957D01*
X026585Y020826D02*
X026246Y020826D01*
X026246Y020685D01*
X026445Y020486D01*
X026586Y020486D01*
X026586Y020826D01*
X026586Y020799D02*
X026586Y020799D01*
X026586Y020640D02*
X026586Y020640D01*
X026881Y020640D02*
X032573Y020640D01*
X032573Y020482D02*
X025836Y020482D01*
X025759Y020406D02*
X026006Y020652D01*
X026006Y021000D01*
X025759Y021246D01*
X025412Y021246D01*
X025166Y021000D01*
X025166Y020652D01*
X025412Y020406D01*
X025759Y020406D01*
X025994Y020640D02*
X026290Y020640D01*
X026246Y020799D02*
X026006Y020799D01*
X026006Y020957D02*
X026246Y020957D01*
X026395Y021116D02*
X025889Y021116D01*
X025282Y021116D02*
X024346Y021116D01*
X024442Y020957D02*
X025166Y020957D01*
X025166Y020799D02*
X024462Y020799D01*
X024420Y020640D02*
X025177Y020640D01*
X025335Y020482D02*
X024292Y020482D01*
X024297Y020165D02*
X032573Y020165D01*
X032573Y020323D02*
X022830Y020323D01*
X022830Y021433D02*
X023893Y021433D01*
X023959Y021406D02*
X024126Y021406D01*
X024280Y021470D01*
X024398Y021588D01*
X024462Y021742D01*
X024462Y021909D01*
X024398Y022064D01*
X024280Y022182D01*
X024126Y022246D01*
X023959Y022246D01*
X023804Y022182D01*
X023686Y022064D01*
X023622Y021909D01*
X023622Y021742D01*
X023686Y021588D01*
X023804Y021470D01*
X023959Y021406D01*
X024191Y021433D02*
X032573Y021433D01*
X032573Y021591D02*
X024400Y021591D01*
X024462Y021750D02*
X032573Y021750D01*
X032573Y021908D02*
X024462Y021908D01*
X024395Y022067D02*
X032573Y022067D01*
X032573Y022225D02*
X024175Y022225D01*
X024126Y022406D02*
X024280Y022470D01*
X024398Y022588D01*
X024462Y022742D01*
X024462Y022909D01*
X024398Y023064D01*
X024280Y023182D01*
X024126Y023246D01*
X023959Y023246D01*
X023804Y023182D01*
X023686Y023064D01*
X023622Y022909D01*
X023622Y022742D01*
X023686Y022588D01*
X023804Y022470D01*
X023959Y022406D01*
X024126Y022406D01*
X024353Y022542D02*
X032573Y022542D01*
X032573Y022384D02*
X022830Y022384D01*
X022830Y022542D02*
X023731Y022542D01*
X023639Y022701D02*
X022830Y022701D01*
X022830Y022859D02*
X023622Y022859D01*
X023667Y023018D02*
X022830Y023018D01*
X022830Y023176D02*
X023799Y023176D01*
X023943Y023499D02*
X024009Y023486D01*
X024042Y023486D01*
X024042Y023826D01*
X024042Y024166D01*
X024009Y024166D01*
X023943Y024153D01*
X023881Y024127D01*
X023825Y024090D01*
X023778Y024042D01*
X023741Y023987D01*
X023715Y023925D01*
X023702Y023859D01*
X023702Y023826D01*
X024042Y023826D01*
X024042Y023826D01*
X024042Y023826D01*
X024042Y024166D01*
X024076Y024166D01*
X024141Y024153D01*
X024203Y024127D01*
X024259Y024090D01*
X024306Y024042D01*
X024344Y023987D01*
X024369Y023925D01*
X024382Y023859D01*
X024382Y023826D01*
X024042Y023826D01*
X023702Y023826D01*
X023702Y023792D01*
X023715Y023726D01*
X023741Y023665D01*
X023778Y023609D01*
X023825Y023562D01*
X023881Y023524D01*
X023943Y023499D01*
X023970Y023493D02*
X022830Y023493D01*
X022830Y023335D02*
X032573Y023335D01*
X032573Y023493D02*
X024115Y023493D01*
X024141Y023499D02*
X024203Y023524D01*
X024259Y023562D01*
X024306Y023609D01*
X024344Y023665D01*
X024369Y023726D01*
X024382Y023792D01*
X024382Y023826D01*
X024042Y023826D01*
X024042Y023826D01*
X024042Y023826D01*
X024042Y023486D01*
X024076Y023486D01*
X024141Y023499D01*
X024042Y023493D02*
X024042Y023493D01*
X024042Y023652D02*
X024042Y023652D01*
X024042Y023810D02*
X024042Y023810D01*
X024042Y023969D02*
X024042Y023969D01*
X024042Y024127D02*
X024042Y024127D01*
X023882Y024127D02*
X022830Y024127D01*
X022830Y023969D02*
X023734Y023969D01*
X023702Y023810D02*
X022830Y023810D01*
X022830Y023652D02*
X023749Y023652D01*
X024202Y024127D02*
X032573Y024127D01*
X032573Y023969D02*
X024351Y023969D01*
X024382Y023810D02*
X032573Y023810D01*
X032573Y023652D02*
X024335Y023652D01*
X024285Y023176D02*
X032573Y023176D01*
X032573Y023018D02*
X024417Y023018D01*
X024462Y022859D02*
X032573Y022859D01*
X032573Y022701D02*
X024445Y022701D01*
X023910Y022225D02*
X022830Y022225D01*
X022830Y022067D02*
X023689Y022067D01*
X023622Y021908D02*
X022855Y021908D01*
X022836Y021750D02*
X023622Y021750D01*
X023685Y021591D02*
X022830Y021591D01*
X021470Y021591D02*
X021400Y021591D01*
X021398Y021588D02*
X021462Y021742D01*
X021462Y021909D01*
X021398Y022064D01*
X021280Y022182D01*
X021126Y022246D01*
X020959Y022246D01*
X020804Y022182D01*
X020686Y022064D01*
X020622Y021909D01*
X020622Y021742D01*
X020686Y021588D01*
X020804Y021470D01*
X020959Y021406D01*
X021126Y021406D01*
X021280Y021470D01*
X021398Y021588D01*
X021470Y021433D02*
X021191Y021433D01*
X021126Y021246D02*
X020959Y021246D01*
X020804Y021182D01*
X020686Y021064D01*
X020622Y020909D01*
X020622Y020742D01*
X020686Y020588D01*
X020804Y020470D01*
X020959Y020406D01*
X021126Y020406D01*
X021280Y020470D01*
X021398Y020588D01*
X021462Y020742D01*
X021462Y020909D01*
X021398Y021064D01*
X021280Y021182D01*
X021126Y021246D01*
X021346Y021116D02*
X021470Y021116D01*
X021470Y021274D02*
X015500Y021274D01*
X015658Y021116D02*
X016014Y021116D01*
X015964Y021066D02*
X015709Y021066D01*
X013049Y023725D01*
X013049Y024008D01*
X012941Y024116D01*
X013551Y024116D01*
X015898Y021769D01*
X015898Y021742D01*
X015962Y021588D01*
X016080Y021470D01*
X016234Y021406D01*
X016401Y021406D01*
X016556Y021470D01*
X016674Y021588D01*
X016738Y021742D01*
X016738Y021909D01*
X016674Y022064D01*
X016556Y022182D01*
X016401Y022246D01*
X016234Y022246D01*
X016139Y022206D01*
X013854Y024492D01*
X013786Y024560D01*
X013698Y024596D01*
X013002Y024596D01*
X013022Y024616D01*
X013951Y024616D01*
X015945Y022622D01*
X015948Y022621D01*
X015962Y022588D01*
X016080Y022470D01*
X016234Y022406D01*
X016401Y022406D01*
X016556Y022470D01*
X016674Y022588D01*
X016738Y022742D01*
X016738Y022909D01*
X016674Y023064D01*
X016556Y023182D01*
X016401Y023246D01*
X016234Y023246D01*
X016080Y023182D01*
X016072Y023174D01*
X014254Y024992D01*
X014186Y025060D01*
X014098Y025096D01*
X012961Y025096D01*
X012941Y025116D01*
X014251Y025116D01*
X015745Y023622D01*
X015833Y023586D01*
X015964Y023586D01*
X016080Y023470D01*
X016234Y023406D01*
X016401Y023406D01*
X016556Y023470D01*
X016674Y023588D01*
X016738Y023742D01*
X016738Y023909D01*
X016674Y024064D01*
X016556Y024182D01*
X016401Y024246D01*
X016234Y024246D01*
X016080Y024182D01*
X015972Y024074D01*
X014554Y025492D01*
X014486Y025560D01*
X014398Y025596D01*
X013002Y025596D01*
X013022Y025616D01*
X014651Y025616D01*
X015645Y024622D01*
X015733Y024586D01*
X015964Y024586D01*
X016080Y024470D01*
X016234Y024406D01*
X016401Y024406D01*
X016556Y024470D01*
X016674Y024588D01*
X016738Y024742D01*
X016738Y024909D01*
X016674Y025064D01*
X016556Y025182D01*
X016401Y025246D01*
X016234Y025246D01*
X016080Y025182D01*
X015964Y025066D01*
X015880Y025066D01*
X014954Y025992D01*
X014886Y026060D01*
X014798Y026096D01*
X012961Y026096D01*
X012941Y026116D01*
X015051Y026116D01*
X015114Y026053D01*
X015545Y025622D01*
X015633Y025586D01*
X015964Y025586D01*
X016080Y025470D01*
X016234Y025406D01*
X016401Y025406D01*
X016556Y025470D01*
X016674Y025588D01*
X016738Y025742D01*
X016738Y025909D01*
X016674Y026064D01*
X016556Y026182D01*
X016401Y026246D01*
X016234Y026246D01*
X016080Y026182D01*
X015964Y026066D01*
X015780Y026066D01*
X015454Y026392D01*
X015354Y026492D01*
X015286Y026560D01*
X015224Y026586D01*
X015964Y026586D01*
X016080Y026470D01*
X016234Y026406D01*
X016401Y026406D01*
X016556Y026470D01*
X016674Y026588D01*
X016738Y026742D01*
X016738Y026909D01*
X016674Y027064D01*
X016556Y027182D01*
X016401Y027246D01*
X016234Y027246D01*
X016080Y027182D01*
X015964Y027066D01*
X012991Y027066D01*
X012791Y027266D01*
X012427Y027266D01*
X012169Y027008D01*
X012169Y026643D01*
X012216Y026596D01*
X012092Y026596D01*
X012004Y026560D01*
X011710Y026266D01*
X011427Y026266D01*
X011169Y026008D01*
X011169Y025643D01*
X011427Y025386D01*
X011791Y025386D01*
X012049Y025643D01*
X012049Y025926D01*
X012239Y026116D01*
X012278Y026116D01*
X012169Y026008D01*
X012169Y025643D01*
X012216Y025596D01*
X012092Y025596D01*
X012004Y025560D01*
X011710Y025266D01*
X011427Y025266D01*
X011169Y025008D01*
X011169Y024643D01*
X011427Y024386D01*
X011791Y024386D01*
X012049Y024643D01*
X012049Y024926D01*
X012239Y025116D01*
X012278Y025116D01*
X012169Y025008D01*
X012169Y024643D01*
X012216Y024596D01*
X012092Y024596D01*
X012004Y024560D01*
X011710Y024266D01*
X011427Y024266D01*
X011169Y024008D01*
X011169Y023643D01*
X011427Y023386D01*
X011791Y023386D01*
X012049Y023643D01*
X012049Y023926D01*
X012239Y024116D01*
X012278Y024116D01*
X012169Y024008D01*
X012169Y023643D01*
X012427Y023386D01*
X012710Y023386D01*
X015406Y020690D01*
X015406Y020690D01*
X015473Y020622D01*
X015561Y020586D01*
X015964Y020586D01*
X016080Y020470D01*
X016234Y020406D01*
X016401Y020406D01*
X016556Y020470D01*
X016674Y020588D01*
X016738Y020742D01*
X016738Y020909D01*
X016674Y021064D01*
X016556Y021182D01*
X016401Y021246D01*
X016234Y021246D01*
X016080Y021182D01*
X015964Y021066D01*
X016168Y021433D02*
X015341Y021433D01*
X015183Y021591D02*
X015960Y021591D01*
X015898Y021750D02*
X015024Y021750D01*
X014866Y021908D02*
X015759Y021908D01*
X015600Y022067D02*
X014707Y022067D01*
X014549Y022225D02*
X015442Y022225D01*
X015283Y022384D02*
X014390Y022384D01*
X014232Y022542D02*
X015125Y022542D01*
X014966Y022701D02*
X014073Y022701D01*
X013915Y022859D02*
X014808Y022859D01*
X014649Y023018D02*
X013756Y023018D01*
X013598Y023176D02*
X014491Y023176D01*
X014332Y023335D02*
X013439Y023335D01*
X013281Y023493D02*
X014174Y023493D01*
X014015Y023652D02*
X013122Y023652D01*
X013049Y023810D02*
X013857Y023810D01*
X013698Y023969D02*
X013049Y023969D01*
X012609Y023826D02*
X015609Y020826D01*
X016318Y020826D01*
X016622Y021116D02*
X019014Y021116D01*
X018962Y021064D02*
X019080Y021182D01*
X019234Y021246D01*
X019401Y021246D01*
X019556Y021182D01*
X019674Y021064D01*
X019738Y020909D01*
X019738Y020742D01*
X019674Y020588D01*
X019556Y020470D01*
X019401Y020406D01*
X019234Y020406D01*
X019080Y020470D01*
X018962Y020588D01*
X018898Y020742D01*
X018898Y020909D01*
X018962Y021064D01*
X018918Y020957D02*
X016718Y020957D01*
X016738Y020799D02*
X018898Y020799D01*
X018940Y020640D02*
X016696Y020640D01*
X016568Y020482D02*
X019068Y020482D01*
X019568Y020482D02*
X020792Y020482D01*
X020664Y020640D02*
X019696Y020640D01*
X019738Y020799D02*
X020622Y020799D01*
X020642Y020957D02*
X019718Y020957D01*
X019622Y021116D02*
X020738Y021116D01*
X020893Y021433D02*
X019467Y021433D01*
X019401Y021406D02*
X019556Y021470D01*
X019674Y021588D01*
X019738Y021742D01*
X019738Y021909D01*
X019674Y022064D01*
X019556Y022182D01*
X019401Y022246D01*
X019234Y022246D01*
X019080Y022182D01*
X018962Y022064D01*
X018898Y021909D01*
X018898Y021742D01*
X018962Y021588D01*
X019080Y021470D01*
X019234Y021406D01*
X019401Y021406D01*
X019168Y021433D02*
X016467Y021433D01*
X016675Y021591D02*
X018960Y021591D01*
X018898Y021750D02*
X016738Y021750D01*
X016738Y021908D02*
X018898Y021908D01*
X018965Y022067D02*
X016671Y022067D01*
X016450Y022225D02*
X019185Y022225D01*
X019234Y022406D02*
X019401Y022406D01*
X019556Y022470D01*
X019674Y022588D01*
X019738Y022742D01*
X019738Y022909D01*
X019674Y023064D01*
X019556Y023182D01*
X019401Y023246D01*
X019234Y023246D01*
X019080Y023182D01*
X018962Y023064D01*
X018898Y022909D01*
X018898Y022742D01*
X018962Y022588D01*
X019080Y022470D01*
X019234Y022406D01*
X019007Y022542D02*
X016629Y022542D01*
X016721Y022701D02*
X018915Y022701D01*
X018898Y022859D02*
X016738Y022859D01*
X016693Y023018D02*
X018943Y023018D01*
X019075Y023176D02*
X016561Y023176D01*
X016580Y023493D02*
X019056Y023493D01*
X019080Y023470D02*
X019234Y023406D01*
X019401Y023406D01*
X019556Y023470D01*
X019674Y023588D01*
X019738Y023742D01*
X019738Y023909D01*
X019674Y024064D01*
X019556Y024182D01*
X019401Y024246D01*
X019234Y024246D01*
X019080Y024182D01*
X018962Y024064D01*
X018898Y023909D01*
X018898Y023742D01*
X018962Y023588D01*
X019080Y023470D01*
X018935Y023652D02*
X016700Y023652D01*
X016738Y023810D02*
X018898Y023810D01*
X018923Y023969D02*
X016713Y023969D01*
X016610Y024127D02*
X019026Y024127D01*
X019141Y024444D02*
X016495Y024444D01*
X016680Y024603D02*
X018955Y024603D01*
X018962Y024588D02*
X019080Y024470D01*
X019234Y024406D01*
X019401Y024406D01*
X019556Y024470D01*
X019674Y024588D01*
X019738Y024742D01*
X019738Y024909D01*
X019674Y025064D01*
X019556Y025182D01*
X019401Y025246D01*
X019234Y025246D01*
X019080Y025182D01*
X018962Y025064D01*
X018898Y024909D01*
X018898Y024742D01*
X018962Y024588D01*
X018898Y024761D02*
X016738Y024761D01*
X016733Y024920D02*
X018902Y024920D01*
X018977Y025078D02*
X016659Y025078D01*
X016422Y025237D02*
X019213Y025237D01*
X019234Y025406D02*
X019401Y025406D01*
X019556Y025470D01*
X019674Y025588D01*
X019738Y025742D01*
X019738Y025909D01*
X019674Y026064D01*
X019556Y026182D01*
X019401Y026246D01*
X019234Y026246D01*
X019080Y026182D01*
X018962Y026064D01*
X018898Y025909D01*
X018898Y025742D01*
X018962Y025588D01*
X019080Y025470D01*
X019234Y025406D01*
X019422Y025237D02*
X020938Y025237D01*
X020959Y025246D02*
X020804Y025182D01*
X020686Y025064D01*
X020622Y024909D01*
X020622Y024742D01*
X020686Y024588D01*
X020804Y024470D01*
X020959Y024406D01*
X021126Y024406D01*
X021280Y024470D01*
X021398Y024588D01*
X021462Y024742D01*
X021462Y024909D01*
X021398Y025064D01*
X021280Y025182D01*
X021126Y025246D01*
X020959Y025246D01*
X020959Y025406D02*
X021126Y025406D01*
X021280Y025470D01*
X021398Y025588D01*
X021462Y025742D01*
X021462Y025909D01*
X021398Y026064D01*
X021280Y026182D01*
X021126Y026246D01*
X020959Y026246D01*
X020804Y026182D01*
X020686Y026064D01*
X020622Y025909D01*
X020622Y025742D01*
X020686Y025588D01*
X020804Y025470D01*
X020959Y025406D01*
X021147Y025237D02*
X021470Y025237D01*
X021470Y025395D02*
X015550Y025395D01*
X015392Y025554D02*
X015996Y025554D01*
X016213Y025237D02*
X015709Y025237D01*
X015867Y025078D02*
X015977Y025078D01*
X015781Y024826D02*
X014750Y025856D01*
X012640Y025856D01*
X012609Y025826D01*
X012169Y025871D02*
X012049Y025871D01*
X012049Y025712D02*
X012169Y025712D01*
X011998Y025554D02*
X011960Y025554D01*
X011839Y025395D02*
X011801Y025395D01*
X012140Y025356D02*
X011609Y024826D01*
X011169Y024761D02*
X010542Y024761D01*
X010542Y024603D02*
X011210Y024603D01*
X011368Y024444D02*
X010542Y024444D01*
X010542Y024286D02*
X011730Y024286D01*
X011850Y024444D02*
X011888Y024444D01*
X012009Y024603D02*
X012210Y024603D01*
X012169Y024761D02*
X012049Y024761D01*
X012049Y024920D02*
X012169Y024920D01*
X012201Y025078D02*
X012240Y025078D01*
X012140Y025356D02*
X014350Y025356D01*
X015881Y023826D01*
X016318Y023826D01*
X016026Y024127D02*
X015918Y024127D01*
X015760Y024286D02*
X021470Y024286D01*
X021470Y024444D02*
X021219Y024444D01*
X021126Y024246D02*
X020959Y024246D01*
X020804Y024182D01*
X020686Y024064D01*
X020622Y023909D01*
X020622Y023742D01*
X020686Y023588D01*
X020804Y023470D01*
X020959Y023406D01*
X021126Y023406D01*
X021280Y023470D01*
X021398Y023588D01*
X021462Y023742D01*
X021462Y023909D01*
X021398Y024064D01*
X021280Y024182D01*
X021126Y024246D01*
X021334Y024127D02*
X021470Y024127D01*
X021470Y023969D02*
X021437Y023969D01*
X021462Y023810D02*
X021470Y023810D01*
X021470Y023652D02*
X021425Y023652D01*
X021470Y023493D02*
X021304Y023493D01*
X021470Y023335D02*
X015911Y023335D01*
X016056Y023493D02*
X015752Y023493D01*
X015715Y023652D02*
X015594Y023652D01*
X015557Y023810D02*
X015435Y023810D01*
X015398Y023969D02*
X015277Y023969D01*
X015240Y024127D02*
X015118Y024127D01*
X015081Y024286D02*
X014960Y024286D01*
X014923Y024444D02*
X014801Y024444D01*
X014764Y024603D02*
X014643Y024603D01*
X014606Y024761D02*
X014484Y024761D01*
X014447Y024920D02*
X014326Y024920D01*
X014289Y025078D02*
X014141Y025078D01*
X014050Y024856D02*
X012640Y024856D01*
X012609Y024826D01*
X013009Y024603D02*
X013964Y024603D01*
X013901Y024444D02*
X014123Y024444D01*
X014060Y024286D02*
X014281Y024286D01*
X014218Y024127D02*
X014440Y024127D01*
X014377Y023969D02*
X014598Y023969D01*
X014535Y023810D02*
X014757Y023810D01*
X014694Y023652D02*
X014915Y023652D01*
X014852Y023493D02*
X015074Y023493D01*
X015011Y023335D02*
X015232Y023335D01*
X015169Y023176D02*
X015391Y023176D01*
X015328Y023018D02*
X015549Y023018D01*
X015486Y022859D02*
X015708Y022859D01*
X015645Y022701D02*
X015866Y022701D01*
X015803Y022542D02*
X016007Y022542D01*
X015962Y022384D02*
X021470Y022384D01*
X021470Y022542D02*
X021353Y022542D01*
X021445Y022701D02*
X021470Y022701D01*
X021470Y023018D02*
X021417Y023018D01*
X021470Y023176D02*
X021285Y023176D01*
X020799Y023176D02*
X019561Y023176D01*
X019693Y023018D02*
X020667Y023018D01*
X020622Y022859D02*
X019738Y022859D01*
X019721Y022701D02*
X020639Y022701D01*
X020731Y022542D02*
X019629Y022542D01*
X019450Y022225D02*
X020910Y022225D01*
X021175Y022225D02*
X021470Y022225D01*
X021470Y022067D02*
X021395Y022067D01*
X021462Y021908D02*
X021470Y021908D01*
X021462Y021750D02*
X021470Y021750D01*
X021442Y020957D02*
X021470Y020957D01*
X021462Y020799D02*
X021470Y020799D01*
X021470Y020640D02*
X021420Y020640D01*
X021470Y020482D02*
X021292Y020482D01*
X021470Y020323D02*
X010542Y020323D01*
X010542Y020165D02*
X021005Y020165D01*
X021009Y020166D02*
X020943Y020153D01*
X020881Y020127D01*
X020825Y020090D01*
X020778Y020042D01*
X020741Y019987D01*
X020715Y019925D01*
X020702Y019859D01*
X020702Y019826D01*
X021042Y019826D01*
X021042Y020166D01*
X021009Y020166D01*
X021042Y020166D02*
X021076Y020166D01*
X021141Y020153D01*
X021203Y020127D01*
X021259Y020090D01*
X021306Y020042D01*
X021344Y019987D01*
X021369Y019925D01*
X021382Y019859D01*
X021382Y019826D01*
X021042Y019826D01*
X021042Y019826D01*
X021042Y019826D01*
X021042Y020166D01*
X021042Y020165D02*
X021042Y020165D01*
X021080Y020165D02*
X021470Y020165D01*
X021470Y020006D02*
X021330Y020006D01*
X021382Y019848D02*
X021470Y019848D01*
X021382Y019826D02*
X021042Y019826D01*
X020702Y019826D01*
X020702Y019792D01*
X020715Y019726D01*
X020741Y019665D01*
X020778Y019609D01*
X020825Y019562D01*
X020881Y019524D01*
X020943Y019499D01*
X021009Y019486D01*
X021042Y019486D01*
X021042Y019826D01*
X021042Y019826D01*
X021042Y019826D01*
X021042Y019486D01*
X021076Y019486D01*
X021141Y019499D01*
X021203Y019524D01*
X021259Y019562D01*
X021306Y019609D01*
X021344Y019665D01*
X021369Y019726D01*
X021382Y019792D01*
X021382Y019826D01*
X021354Y019689D02*
X021470Y019689D01*
X021470Y019531D02*
X021213Y019531D01*
X021042Y019531D02*
X021042Y019531D01*
X021042Y019689D02*
X021042Y019689D01*
X021042Y019848D02*
X021042Y019848D01*
X021042Y020006D02*
X021042Y020006D01*
X020754Y020006D02*
X010542Y020006D01*
X010542Y019848D02*
X020702Y019848D01*
X020731Y019689D02*
X010542Y019689D01*
X010542Y019531D02*
X020871Y019531D01*
X021470Y019372D02*
X010542Y019372D01*
X010542Y019214D02*
X021470Y019214D01*
X021470Y019055D02*
X010542Y019055D01*
X010542Y018897D02*
X021470Y018897D01*
X021470Y018738D02*
X010542Y018738D01*
X010542Y018580D02*
X021470Y018580D01*
X021470Y018104D02*
X019658Y018104D01*
X019631Y017946D02*
X021470Y017946D01*
X021470Y015410D02*
X021304Y015410D01*
X021425Y015251D02*
X021470Y015251D01*
X021462Y015093D02*
X021470Y015093D01*
X021470Y014934D02*
X021437Y014934D01*
X021470Y014776D02*
X021334Y014776D01*
X023530Y015093D02*
X023622Y015093D01*
X023622Y015161D02*
X023622Y014994D01*
X023686Y014840D01*
X023804Y014722D01*
X023959Y014658D01*
X024126Y014658D01*
X024280Y014722D01*
X024398Y014840D01*
X024462Y014994D01*
X024462Y015161D01*
X024398Y015316D01*
X024280Y015434D01*
X024126Y015498D01*
X023959Y015498D01*
X023804Y015434D01*
X023686Y015316D01*
X023622Y015161D01*
X023660Y015251D02*
X023530Y015251D01*
X023530Y015410D02*
X023780Y015410D01*
X023530Y015568D02*
X032573Y015568D01*
X032573Y015410D02*
X024304Y015410D01*
X024425Y015251D02*
X032573Y015251D01*
X032573Y015093D02*
X024462Y015093D01*
X024437Y014934D02*
X032573Y014934D01*
X032573Y014776D02*
X024334Y014776D01*
X024219Y014459D02*
X032573Y014459D01*
X032573Y014617D02*
X023885Y014617D01*
X023750Y014776D02*
X023727Y014776D01*
X023647Y014934D02*
X023568Y014934D01*
X023530Y015727D02*
X023799Y015727D01*
X023804Y015722D02*
X023959Y015658D01*
X024126Y015658D01*
X024280Y015722D01*
X024398Y015840D01*
X024462Y015994D01*
X024462Y016161D01*
X024398Y016316D01*
X024280Y016434D01*
X024126Y016498D01*
X023959Y016498D01*
X023804Y016434D01*
X023686Y016316D01*
X023622Y016161D01*
X023622Y015994D01*
X023686Y015840D01*
X023804Y015722D01*
X023667Y015885D02*
X023530Y015885D01*
X023530Y016044D02*
X023622Y016044D01*
X023639Y016202D02*
X023530Y016202D01*
X023530Y016361D02*
X023731Y016361D01*
X023530Y016519D02*
X032573Y016519D01*
X032573Y016361D02*
X024353Y016361D01*
X024445Y016202D02*
X032573Y016202D01*
X032573Y016044D02*
X024462Y016044D01*
X024417Y015885D02*
X032573Y015885D01*
X032573Y015727D02*
X024285Y015727D01*
X023530Y016678D02*
X032573Y016678D01*
X032573Y016836D02*
X023530Y016836D01*
X023530Y016995D02*
X032573Y016995D01*
X032573Y017153D02*
X023530Y017153D01*
X023530Y017312D02*
X032573Y017312D01*
X032573Y017470D02*
X023530Y017470D01*
X023530Y017629D02*
X032573Y017629D01*
X032573Y017787D02*
X023530Y017787D01*
X023530Y017946D02*
X032573Y017946D01*
X032573Y018104D02*
X023530Y018104D01*
X023530Y018263D02*
X032573Y018263D01*
X032573Y018421D02*
X023530Y018421D01*
X023530Y018580D02*
X032573Y018580D01*
X032573Y018738D02*
X023530Y018738D01*
X023530Y018897D02*
X032573Y018897D01*
X032573Y019055D02*
X023668Y019055D01*
X023826Y019214D02*
X032573Y019214D01*
X032573Y019372D02*
X023985Y019372D01*
X024341Y019531D02*
X032573Y019531D01*
X032573Y019689D02*
X024440Y019689D01*
X024462Y019848D02*
X032573Y019848D01*
X032573Y020006D02*
X024422Y020006D01*
X026926Y020799D02*
X032573Y020799D01*
X032573Y020957D02*
X026926Y020957D01*
X024280Y024470D02*
X024398Y024588D01*
X024462Y024742D01*
X024462Y024909D01*
X024398Y025064D01*
X024280Y025182D01*
X024126Y025246D01*
X024057Y025246D01*
X023853Y025449D01*
X023959Y025406D01*
X024126Y025406D01*
X024280Y025470D01*
X024398Y025588D01*
X024462Y025742D01*
X024462Y025909D01*
X024398Y026064D01*
X024280Y026182D01*
X024126Y026246D01*
X023959Y026246D01*
X023804Y026182D01*
X023686Y026064D01*
X023630Y025928D01*
X023630Y026723D01*
X023686Y026588D01*
X023804Y026470D01*
X023959Y026406D01*
X024126Y026406D01*
X024280Y026470D01*
X024398Y026588D01*
X024462Y026742D01*
X024462Y026909D01*
X024398Y027064D01*
X024280Y027182D01*
X024126Y027246D01*
X023959Y027246D01*
X023804Y027182D01*
X023686Y027064D01*
X023630Y026928D01*
X023630Y029647D01*
X024018Y030036D01*
X024126Y030036D01*
X024280Y030100D01*
X024398Y030218D01*
X024462Y030372D01*
X024462Y030539D01*
X024398Y030694D01*
X024280Y030812D01*
X024126Y030876D01*
X023959Y030876D01*
X023804Y030812D01*
X023686Y030694D01*
X023622Y030539D01*
X023622Y030432D01*
X023191Y030001D01*
X023113Y029922D01*
X023070Y029819D01*
X023070Y025501D01*
X023113Y025398D01*
X023622Y024888D01*
X023622Y024742D01*
X023686Y024588D01*
X023804Y024470D01*
X023959Y024406D01*
X024126Y024406D01*
X024280Y024470D01*
X024219Y024444D02*
X032573Y024444D01*
X032573Y024286D02*
X022830Y024286D01*
X022830Y024444D02*
X023865Y024444D01*
X023680Y024603D02*
X022830Y024603D01*
X022830Y024761D02*
X023622Y024761D01*
X023591Y024920D02*
X022830Y024920D01*
X022830Y025078D02*
X023432Y025078D01*
X023274Y025237D02*
X022830Y025237D01*
X022830Y025395D02*
X023115Y025395D01*
X023070Y025554D02*
X022830Y025554D01*
X022830Y025712D02*
X023070Y025712D01*
X023070Y025871D02*
X022830Y025871D01*
X022830Y026029D02*
X023070Y026029D01*
X023070Y026188D02*
X022830Y026188D01*
X022830Y026346D02*
X023070Y026346D01*
X023070Y026505D02*
X022830Y026505D01*
X022830Y026663D02*
X023070Y026663D01*
X023070Y026822D02*
X022830Y026822D01*
X022830Y026980D02*
X023070Y026980D01*
X023070Y027139D02*
X022830Y027139D01*
X022830Y027297D02*
X023070Y027297D01*
X023070Y027456D02*
X022830Y027456D01*
X022830Y027614D02*
X023070Y027614D01*
X023070Y027773D02*
X022830Y027773D01*
X022830Y027931D02*
X023070Y027931D01*
X023070Y028090D02*
X022830Y028090D01*
X022830Y028248D02*
X023070Y028248D01*
X023070Y028407D02*
X022830Y028407D01*
X022830Y028565D02*
X023070Y028565D01*
X023070Y028724D02*
X022830Y028724D01*
X022830Y028882D02*
X023070Y028882D01*
X023070Y029041D02*
X022830Y029041D01*
X022830Y029199D02*
X023070Y029199D01*
X023070Y029358D02*
X022830Y029358D01*
X022830Y029516D02*
X023070Y029516D01*
X023070Y029675D02*
X022830Y029675D01*
X022830Y029833D02*
X023076Y029833D01*
X023183Y029992D02*
X022830Y029992D01*
X022830Y030150D02*
X023341Y030150D01*
X023191Y030001D02*
X023191Y030001D01*
X023500Y030309D02*
X022830Y030309D01*
X022830Y030467D02*
X023622Y030467D01*
X023658Y030626D02*
X022830Y030626D01*
X022830Y030784D02*
X023777Y030784D01*
X023959Y031036D02*
X023804Y031100D01*
X023686Y031218D01*
X023622Y031372D01*
X023622Y031539D01*
X023686Y031694D01*
X023804Y031812D01*
X023959Y031876D01*
X024126Y031876D01*
X024280Y031812D01*
X024398Y031694D01*
X024462Y031539D01*
X024462Y031372D01*
X024398Y031218D01*
X024280Y031100D01*
X024126Y031036D01*
X023959Y031036D01*
X023802Y031101D02*
X022830Y031101D01*
X022830Y030943D02*
X032573Y030943D01*
X032573Y031101D02*
X025825Y031101D01*
X025759Y031036D02*
X026006Y031282D01*
X026006Y031630D01*
X025759Y031876D01*
X025412Y031876D01*
X025166Y031630D01*
X025166Y031282D01*
X025412Y031036D01*
X025759Y031036D01*
X025984Y031260D02*
X026300Y031260D01*
X026246Y031315D02*
X026445Y031116D01*
X026586Y031116D01*
X026726Y031116D01*
X026926Y031315D01*
X026926Y031456D01*
X026926Y031596D01*
X026726Y031796D01*
X026586Y031796D01*
X026586Y031456D01*
X026926Y031456D01*
X026586Y031456D01*
X026586Y031456D01*
X026586Y031456D01*
X026586Y031796D01*
X026445Y031796D01*
X026246Y031596D01*
X026246Y031456D01*
X026585Y031456D01*
X026585Y031456D01*
X026246Y031456D01*
X026246Y031315D01*
X026246Y031418D02*
X026006Y031418D01*
X026006Y031577D02*
X026246Y031577D01*
X026385Y031735D02*
X025900Y031735D01*
X026586Y031735D02*
X026586Y031735D01*
X026586Y031577D02*
X026586Y031577D01*
X026586Y031456D02*
X026586Y031116D01*
X026586Y031456D01*
X026586Y031456D01*
X026586Y031418D02*
X026586Y031418D01*
X026586Y031260D02*
X026586Y031260D01*
X026871Y031260D02*
X032573Y031260D01*
X032573Y031418D02*
X026926Y031418D01*
X026926Y031577D02*
X032573Y031577D01*
X032573Y031735D02*
X026787Y031735D01*
X025271Y031735D02*
X024356Y031735D01*
X024447Y031577D02*
X025166Y031577D01*
X025166Y031418D02*
X024462Y031418D01*
X024416Y031260D02*
X025187Y031260D01*
X025346Y031101D02*
X024282Y031101D01*
X024307Y030784D02*
X032573Y030784D01*
X032573Y030626D02*
X024426Y030626D01*
X024462Y030467D02*
X032573Y030467D01*
X032573Y030309D02*
X024436Y030309D01*
X024331Y030150D02*
X032573Y030150D01*
X032573Y029992D02*
X023975Y029992D01*
X023816Y029833D02*
X032573Y029833D01*
X032573Y029675D02*
X023658Y029675D01*
X023630Y029516D02*
X032573Y029516D01*
X032573Y029358D02*
X023630Y029358D01*
X023630Y029199D02*
X032573Y029199D01*
X032573Y029041D02*
X023630Y029041D01*
X023630Y028882D02*
X032573Y028882D01*
X032573Y028724D02*
X023630Y028724D01*
X023630Y028565D02*
X032573Y028565D01*
X032573Y028407D02*
X023630Y028407D01*
X023630Y028248D02*
X032573Y028248D01*
X032573Y028090D02*
X023630Y028090D01*
X023630Y027931D02*
X032573Y027931D01*
X032573Y027773D02*
X023630Y027773D01*
X023630Y027614D02*
X032573Y027614D01*
X032573Y027456D02*
X023630Y027456D01*
X023630Y027297D02*
X032573Y027297D01*
X032573Y027139D02*
X024323Y027139D01*
X024433Y026980D02*
X032573Y026980D01*
X032573Y026822D02*
X024462Y026822D01*
X024430Y026663D02*
X032573Y026663D01*
X032573Y026505D02*
X024315Y026505D01*
X024265Y026188D02*
X032573Y026188D01*
X032573Y026346D02*
X023630Y026346D01*
X023630Y026188D02*
X023819Y026188D01*
X023672Y026029D02*
X023630Y026029D01*
X023630Y026505D02*
X023769Y026505D01*
X023655Y026663D02*
X023630Y026663D01*
X023630Y026980D02*
X023652Y026980D01*
X023630Y027139D02*
X023761Y027139D01*
X024412Y026029D02*
X032573Y026029D01*
X032573Y025871D02*
X024462Y025871D01*
X024450Y025712D02*
X032573Y025712D01*
X032573Y025554D02*
X024364Y025554D01*
X024147Y025237D02*
X032573Y025237D01*
X032573Y025395D02*
X023907Y025395D01*
X024383Y025078D02*
X032573Y025078D01*
X032573Y024920D02*
X024458Y024920D01*
X024462Y024761D02*
X032573Y024761D01*
X032573Y024603D02*
X024405Y024603D01*
X021470Y024603D02*
X021405Y024603D01*
X021462Y024761D02*
X021470Y024761D01*
X021458Y024920D02*
X021470Y024920D01*
X021470Y025078D02*
X021383Y025078D01*
X021364Y025554D02*
X021470Y025554D01*
X021470Y025712D02*
X021450Y025712D01*
X021462Y025871D02*
X021470Y025871D01*
X021470Y026029D02*
X021412Y026029D01*
X021470Y026188D02*
X021265Y026188D01*
X021126Y026406D02*
X021280Y026470D01*
X021398Y026588D01*
X021462Y026742D01*
X021462Y026909D01*
X021398Y027064D01*
X021280Y027182D01*
X021126Y027246D01*
X020959Y027246D01*
X020804Y027182D01*
X020686Y027064D01*
X020622Y026909D01*
X020622Y026742D01*
X020686Y026588D01*
X020804Y026470D01*
X020959Y026406D01*
X021126Y026406D01*
X021315Y026505D02*
X021470Y026505D01*
X021470Y026663D02*
X021430Y026663D01*
X021462Y026822D02*
X021470Y026822D01*
X021470Y026980D02*
X021433Y026980D01*
X021470Y027139D02*
X021323Y027139D01*
X021470Y027297D02*
X012420Y027297D01*
X012300Y027139D02*
X012262Y027139D01*
X012169Y026980D02*
X012103Y026980D01*
X012049Y026926D02*
X012709Y027586D01*
X015964Y027586D01*
X016080Y027470D01*
X016234Y027406D01*
X016401Y027406D01*
X016556Y027470D01*
X016674Y027588D01*
X016738Y027742D01*
X016738Y027909D01*
X016674Y028064D01*
X016556Y028182D01*
X016401Y028246D01*
X016234Y028246D01*
X016080Y028182D01*
X015964Y028066D01*
X012561Y028066D01*
X012473Y028029D01*
X011710Y027266D01*
X011427Y027266D01*
X011169Y027008D01*
X011169Y026643D01*
X011427Y026386D01*
X011791Y026386D01*
X012049Y026643D01*
X012049Y026926D01*
X012049Y026822D02*
X012169Y026822D01*
X012169Y026663D02*
X012049Y026663D01*
X011949Y026505D02*
X011911Y026505D01*
X011790Y026346D02*
X010542Y026346D01*
X010542Y026188D02*
X011349Y026188D01*
X011191Y026029D02*
X010542Y026029D01*
X010542Y025871D02*
X011169Y025871D01*
X011169Y025712D02*
X010542Y025712D01*
X010542Y025554D02*
X011259Y025554D01*
X011417Y025395D02*
X010542Y025395D01*
X010542Y025237D02*
X011398Y025237D01*
X011240Y025078D02*
X010542Y025078D01*
X010542Y024920D02*
X011169Y024920D01*
X011289Y024127D02*
X010542Y024127D01*
X010542Y023969D02*
X011169Y023969D01*
X011169Y023810D02*
X010542Y023810D01*
X010542Y023652D02*
X011169Y023652D01*
X011319Y023493D02*
X010542Y023493D01*
X010542Y023335D02*
X012760Y023335D01*
X012758Y023186D02*
X012619Y023186D01*
X012619Y022836D01*
X012599Y022836D01*
X012599Y023186D01*
X012460Y023186D01*
X012249Y022975D01*
X012249Y022836D01*
X012599Y022836D01*
X012599Y022816D01*
X012249Y022816D01*
X012249Y022677D01*
X012460Y022466D01*
X012599Y022466D01*
X012599Y022816D01*
X012619Y022816D01*
X012619Y022836D01*
X012969Y022836D01*
X012969Y022975D01*
X012758Y023186D01*
X012768Y023176D02*
X012919Y023176D01*
X012926Y023018D02*
X013077Y023018D01*
X012969Y022859D02*
X013236Y022859D01*
X013394Y022701D02*
X012969Y022701D01*
X012969Y022677D02*
X012969Y022816D01*
X012619Y022816D01*
X012619Y022466D01*
X012758Y022466D01*
X012969Y022677D01*
X012835Y022542D02*
X013553Y022542D01*
X013711Y022384D02*
X010542Y022384D01*
X010542Y022542D02*
X011383Y022542D01*
X011460Y022466D02*
X011249Y022677D01*
X011249Y022816D01*
X011599Y022816D01*
X011599Y022836D01*
X011599Y023186D01*
X011460Y023186D01*
X011249Y022975D01*
X011249Y022836D01*
X011599Y022836D01*
X011619Y022836D01*
X011619Y023186D01*
X011758Y023186D01*
X011969Y022975D01*
X011969Y022836D01*
X011619Y022836D01*
X011619Y022816D01*
X011969Y022816D01*
X011969Y022677D01*
X011758Y022466D01*
X011619Y022466D01*
X011619Y022816D01*
X011599Y022816D01*
X011599Y022466D01*
X011460Y022466D01*
X011599Y022542D02*
X011619Y022542D01*
X011619Y022701D02*
X011599Y022701D01*
X011599Y022859D02*
X011619Y022859D01*
X011619Y023018D02*
X011599Y023018D01*
X011599Y023176D02*
X011619Y023176D01*
X011768Y023176D02*
X012451Y023176D01*
X012599Y023176D02*
X012619Y023176D01*
X012619Y023018D02*
X012599Y023018D01*
X012599Y022859D02*
X012619Y022859D01*
X012619Y022701D02*
X012599Y022701D01*
X012599Y022542D02*
X012619Y022542D01*
X012383Y022542D02*
X011835Y022542D01*
X011969Y022701D02*
X012249Y022701D01*
X012249Y022859D02*
X011969Y022859D01*
X011926Y023018D02*
X012292Y023018D01*
X012319Y023493D02*
X011899Y023493D01*
X012049Y023652D02*
X012169Y023652D01*
X012169Y023810D02*
X012049Y023810D01*
X012092Y023969D02*
X012169Y023969D01*
X012140Y024356D02*
X011609Y023826D01*
X011451Y023176D02*
X010542Y023176D01*
X010542Y023018D02*
X011292Y023018D01*
X011249Y022859D02*
X010542Y022859D01*
X010542Y022701D02*
X011249Y022701D01*
X010542Y022225D02*
X013870Y022225D01*
X014028Y022067D02*
X010542Y022067D01*
X010542Y021908D02*
X014187Y021908D01*
X014345Y021750D02*
X010542Y021750D01*
X010542Y021591D02*
X014504Y021591D01*
X014662Y021433D02*
X010542Y021433D01*
X010542Y021274D02*
X014821Y021274D01*
X014979Y021116D02*
X010542Y021116D01*
X010542Y020957D02*
X015138Y020957D01*
X015296Y020799D02*
X010542Y020799D01*
X010542Y020640D02*
X015455Y020640D01*
X016068Y020482D02*
X010542Y020482D01*
X012140Y024356D02*
X013650Y024356D01*
X016181Y021826D01*
X016318Y021826D01*
X016185Y022225D02*
X016120Y022225D01*
X016081Y022826D02*
X014050Y024856D01*
X014492Y025554D02*
X014713Y025554D01*
X014650Y025395D02*
X014872Y025395D01*
X014809Y025237D02*
X015030Y025237D01*
X014967Y025078D02*
X015189Y025078D01*
X015126Y024920D02*
X015347Y024920D01*
X015284Y024761D02*
X015506Y024761D01*
X015443Y024603D02*
X015691Y024603D01*
X015601Y024444D02*
X016141Y024444D01*
X016318Y024826D02*
X015781Y024826D01*
X015455Y025712D02*
X015233Y025712D01*
X015296Y025871D02*
X015075Y025871D01*
X015138Y026029D02*
X014916Y026029D01*
X015150Y026356D02*
X012140Y026356D01*
X011609Y025826D01*
X011308Y026505D02*
X010542Y026505D01*
X010542Y026663D02*
X011169Y026663D01*
X011169Y026822D02*
X010542Y026822D01*
X010542Y026980D02*
X011169Y026980D01*
X011300Y027139D02*
X010542Y027139D01*
X010542Y027297D02*
X011741Y027297D01*
X011900Y027456D02*
X010542Y027456D01*
X010542Y027614D02*
X012058Y027614D01*
X012217Y027773D02*
X010542Y027773D01*
X010542Y027931D02*
X012375Y027931D01*
X012609Y027826D02*
X011609Y026826D01*
X012152Y026029D02*
X012191Y026029D01*
X012609Y026826D02*
X016318Y026826D01*
X016708Y026980D02*
X018927Y026980D01*
X018898Y026909D02*
X018898Y026742D01*
X018962Y026588D01*
X019080Y026470D01*
X019234Y026406D01*
X019401Y026406D01*
X019556Y026470D01*
X019674Y026588D01*
X019738Y026742D01*
X019738Y026909D01*
X019674Y027064D01*
X019556Y027182D01*
X019401Y027246D01*
X019234Y027246D01*
X019080Y027182D01*
X018962Y027064D01*
X018898Y026909D01*
X018898Y026822D02*
X016738Y026822D01*
X016705Y026663D02*
X018930Y026663D01*
X019045Y026505D02*
X016591Y026505D01*
X016541Y026188D02*
X019095Y026188D01*
X018948Y026029D02*
X016688Y026029D01*
X016738Y025871D02*
X018898Y025871D01*
X018910Y025712D02*
X016725Y025712D01*
X016640Y025554D02*
X018996Y025554D01*
X019640Y025554D02*
X020720Y025554D01*
X020635Y025712D02*
X019725Y025712D01*
X019738Y025871D02*
X020622Y025871D01*
X020672Y026029D02*
X019688Y026029D01*
X019541Y026188D02*
X020819Y026188D01*
X020769Y026505D02*
X019591Y026505D01*
X019705Y026663D02*
X020655Y026663D01*
X020622Y026822D02*
X019738Y026822D01*
X019708Y026980D02*
X020652Y026980D01*
X020761Y027139D02*
X019599Y027139D01*
X019523Y027456D02*
X021470Y027456D01*
X021470Y027614D02*
X019685Y027614D01*
X019674Y027588D02*
X019738Y027742D01*
X019738Y027909D01*
X019674Y028064D01*
X019556Y028182D01*
X019401Y028246D01*
X019234Y028246D01*
X019080Y028182D01*
X018962Y028064D01*
X018898Y027909D01*
X018898Y027742D01*
X018962Y027588D01*
X019080Y027470D01*
X019234Y027406D01*
X019401Y027406D01*
X019556Y027470D01*
X019674Y027588D01*
X019738Y027773D02*
X021470Y027773D01*
X021470Y027931D02*
X019729Y027931D01*
X019648Y028090D02*
X021470Y028090D01*
X021470Y028248D02*
X010542Y028248D01*
X010542Y028090D02*
X015988Y028090D01*
X016080Y028470D02*
X016234Y028406D01*
X016401Y028406D01*
X016556Y028470D01*
X016674Y028588D01*
X016738Y028742D01*
X016738Y028909D01*
X016674Y029064D01*
X016556Y029182D01*
X016401Y029246D01*
X016234Y029246D01*
X016080Y029182D01*
X015962Y029064D01*
X015898Y028909D01*
X015898Y028742D01*
X015962Y028588D01*
X016080Y028470D01*
X015984Y028565D02*
X010542Y028565D01*
X010542Y028407D02*
X016231Y028407D01*
X016404Y028407D02*
X021470Y028407D01*
X021470Y028565D02*
X019538Y028565D01*
X019535Y028562D02*
X019582Y028609D01*
X019619Y028665D01*
X019645Y028726D01*
X019658Y028792D01*
X019658Y028826D01*
X019658Y028859D01*
X019645Y028925D01*
X019619Y028987D01*
X019582Y029042D01*
X019535Y029090D01*
X019479Y029127D01*
X019417Y029153D01*
X019351Y029166D01*
X019318Y029166D01*
X019318Y028826D01*
X019318Y028826D01*
X019658Y028826D01*
X019318Y028826D01*
X019318Y028826D01*
X019318Y029166D01*
X019284Y029166D01*
X019219Y029153D01*
X019157Y029127D01*
X019101Y029090D01*
X019054Y029042D01*
X019016Y028987D01*
X018991Y028925D01*
X018978Y028859D01*
X018978Y028826D01*
X019318Y028826D01*
X019318Y028826D01*
X019318Y028486D01*
X019351Y028486D01*
X019417Y028499D01*
X019479Y028524D01*
X019535Y028562D01*
X019644Y028724D02*
X021470Y028724D01*
X021470Y028882D02*
X019653Y028882D01*
X019583Y029041D02*
X021470Y029041D01*
X021470Y029199D02*
X016513Y029199D01*
X016683Y029041D02*
X019053Y029041D01*
X018982Y028882D02*
X016738Y028882D01*
X016730Y028724D02*
X018992Y028724D01*
X018991Y028726D02*
X019016Y028665D01*
X019054Y028609D01*
X019101Y028562D01*
X019157Y028524D01*
X019219Y028499D01*
X019284Y028486D01*
X019318Y028486D01*
X019318Y028826D01*
X019318Y028826D01*
X018978Y028826D01*
X018978Y028792D01*
X018991Y028726D01*
X019097Y028565D02*
X016652Y028565D01*
X016648Y028090D02*
X018988Y028090D01*
X018907Y027931D02*
X016729Y027931D01*
X016738Y027773D02*
X018898Y027773D01*
X018951Y027614D02*
X016685Y027614D01*
X016523Y027456D02*
X019113Y027456D01*
X019037Y027139D02*
X016599Y027139D01*
X016318Y027826D02*
X012609Y027826D01*
X012579Y027456D02*
X016113Y027456D01*
X016037Y027139D02*
X012918Y027139D01*
X015150Y026356D02*
X015250Y026256D01*
X015681Y025826D01*
X016318Y025826D01*
X016095Y026188D02*
X015658Y026188D01*
X015499Y026346D02*
X021470Y026346D01*
X020701Y025078D02*
X019659Y025078D01*
X019733Y024920D02*
X020627Y024920D01*
X020622Y024761D02*
X019738Y024761D01*
X019680Y024603D02*
X020680Y024603D01*
X020865Y024444D02*
X019495Y024444D01*
X019610Y024127D02*
X020750Y024127D01*
X020647Y023969D02*
X019713Y023969D01*
X019738Y023810D02*
X020622Y023810D01*
X020660Y023652D02*
X019700Y023652D01*
X019580Y023493D02*
X020780Y023493D01*
X020689Y022067D02*
X019671Y022067D01*
X019738Y021908D02*
X020622Y021908D01*
X020622Y021750D02*
X019738Y021750D01*
X019675Y021591D02*
X020685Y021591D01*
X016318Y022826D02*
X016081Y022826D01*
X016069Y023176D02*
X016075Y023176D01*
X016045Y026505D02*
X015341Y026505D01*
X015905Y028724D02*
X010542Y028724D01*
X010542Y028882D02*
X015898Y028882D01*
X015952Y029041D02*
X010542Y029041D01*
X010542Y029199D02*
X016123Y029199D01*
X016234Y031036D02*
X016080Y031100D01*
X015964Y031216D01*
X015561Y031216D01*
X015473Y031252D01*
X012710Y034016D01*
X012427Y034016D01*
X012169Y034273D01*
X012169Y034638D01*
X012248Y034716D01*
X012209Y034716D01*
X012049Y034556D01*
X012049Y034273D01*
X011791Y034016D01*
X011427Y034016D01*
X011169Y034273D01*
X011169Y034638D01*
X011427Y034896D01*
X011710Y034896D01*
X011974Y035160D01*
X012062Y035196D01*
X012246Y035196D01*
X012169Y035273D01*
X012169Y035638D01*
X012248Y035716D01*
X012209Y035716D01*
X012049Y035556D01*
X012049Y035273D01*
X011791Y035016D01*
X011427Y035016D01*
X011169Y035273D01*
X011169Y035638D01*
X011427Y035896D01*
X011710Y035896D01*
X011974Y036160D01*
X012062Y036196D01*
X012246Y036196D01*
X012169Y036273D01*
X012169Y036638D01*
X012248Y036716D01*
X012209Y036716D01*
X012049Y036556D01*
X012049Y036273D01*
X011791Y036016D01*
X011427Y036016D01*
X011169Y036273D01*
X011169Y036638D01*
X011427Y036896D01*
X011710Y036896D01*
X011974Y037160D01*
X012062Y037196D01*
X012246Y037196D01*
X012169Y037273D01*
X012169Y037638D01*
X012427Y037896D01*
X012791Y037896D01*
X012991Y037696D01*
X015964Y037696D01*
X016080Y037812D01*
X016234Y037876D01*
X016401Y037876D01*
X016556Y037812D01*
X016674Y037694D01*
X016738Y037539D01*
X016738Y037372D01*
X016674Y037218D01*
X016556Y037100D01*
X016401Y037036D01*
X016234Y037036D01*
X016080Y037100D01*
X015964Y037216D01*
X012991Y037216D01*
X012972Y037196D01*
X015098Y037196D01*
X015186Y037160D01*
X015254Y037092D01*
X015650Y036696D01*
X015964Y036696D01*
X016080Y036812D01*
X016234Y036876D01*
X016401Y036876D01*
X016556Y036812D01*
X016674Y036694D01*
X016738Y036539D01*
X016738Y036372D01*
X016674Y036218D01*
X016556Y036100D01*
X016401Y036036D01*
X016234Y036036D01*
X016080Y036100D01*
X015964Y036216D01*
X015503Y036216D01*
X015415Y036252D01*
X014951Y036716D01*
X012971Y036716D01*
X012991Y036696D01*
X014698Y036696D01*
X014786Y036660D01*
X014854Y036592D01*
X015750Y035696D01*
X015964Y035696D01*
X016080Y035812D01*
X016234Y035876D01*
X016401Y035876D01*
X016556Y035812D01*
X016674Y035694D01*
X016738Y035539D01*
X016738Y035372D01*
X016674Y035218D01*
X016556Y035100D01*
X016401Y035036D01*
X016234Y035036D01*
X016080Y035100D01*
X015964Y035216D01*
X015603Y035216D01*
X015515Y035252D01*
X014551Y036216D01*
X012992Y036216D01*
X012972Y036196D01*
X014298Y036196D01*
X014386Y036160D01*
X014454Y036092D01*
X015850Y034696D01*
X015964Y034696D01*
X016080Y034812D01*
X016234Y034876D01*
X016401Y034876D01*
X016556Y034812D01*
X016674Y034694D01*
X016738Y034539D01*
X016738Y034372D01*
X016674Y034218D01*
X016556Y034100D01*
X016401Y034036D01*
X016234Y034036D01*
X016080Y034100D01*
X015964Y034216D01*
X015703Y034216D01*
X015615Y034252D01*
X014151Y035716D01*
X012971Y035716D01*
X012991Y035696D01*
X013898Y035696D01*
X013986Y035660D01*
X014054Y035592D01*
X014054Y035592D01*
X015950Y033696D01*
X015964Y033696D01*
X016080Y033812D01*
X016234Y033876D01*
X016401Y033876D01*
X016556Y033812D01*
X016674Y033694D01*
X016738Y033539D01*
X016738Y033372D01*
X016674Y033218D01*
X016556Y033100D01*
X016401Y033036D01*
X016234Y033036D01*
X016080Y033100D01*
X015964Y033216D01*
X015803Y033216D01*
X015715Y033252D01*
X013751Y035216D01*
X012992Y035216D01*
X012972Y035196D01*
X013498Y035196D01*
X013586Y035160D01*
X013654Y035092D01*
X013754Y034992D01*
X016007Y032739D01*
X016080Y032812D01*
X016234Y032876D01*
X016401Y032876D01*
X016556Y032812D01*
X016674Y032694D01*
X016738Y032539D01*
X016738Y032372D01*
X016674Y032218D01*
X016556Y032100D01*
X016401Y032036D01*
X016234Y032036D01*
X016080Y032100D01*
X015964Y032216D01*
X015903Y032216D01*
X015815Y032252D01*
X013414Y034653D01*
X013351Y034716D01*
X012971Y034716D01*
X013049Y034638D01*
X013049Y034355D01*
X015709Y031696D01*
X015964Y031696D01*
X016080Y031812D01*
X016234Y031876D01*
X016401Y031876D01*
X016556Y031812D01*
X016674Y031694D01*
X016738Y031539D01*
X016738Y031372D01*
X016674Y031218D01*
X016556Y031100D01*
X016401Y031036D01*
X016234Y031036D01*
X016078Y031101D02*
X010542Y031101D01*
X010542Y030943D02*
X021470Y030943D01*
X021470Y031101D02*
X021282Y031101D01*
X021280Y031100D02*
X021398Y031218D01*
X021462Y031372D01*
X021462Y031539D01*
X021398Y031694D01*
X021280Y031812D01*
X021126Y031876D01*
X020959Y031876D01*
X020804Y031812D01*
X020686Y031694D01*
X020622Y031539D01*
X020622Y031372D01*
X020686Y031218D01*
X020804Y031100D01*
X020959Y031036D01*
X021126Y031036D01*
X021280Y031100D01*
X021416Y031260D02*
X021470Y031260D01*
X021462Y031418D02*
X021470Y031418D01*
X021470Y031577D02*
X021447Y031577D01*
X021470Y031735D02*
X021356Y031735D01*
X021470Y031894D02*
X015510Y031894D01*
X015352Y032052D02*
X016194Y032052D01*
X016442Y032052D02*
X019194Y032052D01*
X019234Y032036D02*
X019401Y032036D01*
X019556Y032100D01*
X019674Y032218D01*
X019738Y032372D01*
X019738Y032539D01*
X019674Y032694D01*
X019556Y032812D01*
X019401Y032876D01*
X019234Y032876D01*
X019080Y032812D01*
X018962Y032694D01*
X018898Y032539D01*
X018898Y032372D01*
X018962Y032218D01*
X019080Y032100D01*
X019234Y032036D01*
X019234Y031876D02*
X019080Y031812D01*
X018962Y031694D01*
X018898Y031539D01*
X018898Y031372D01*
X018962Y031218D01*
X019080Y031100D01*
X019234Y031036D01*
X019401Y031036D01*
X019556Y031100D01*
X019674Y031218D01*
X019738Y031372D01*
X019738Y031539D01*
X019674Y031694D01*
X019556Y031812D01*
X019401Y031876D01*
X019234Y031876D01*
X019004Y031735D02*
X016632Y031735D01*
X016722Y031577D02*
X018913Y031577D01*
X018898Y031418D02*
X016738Y031418D01*
X016691Y031260D02*
X018944Y031260D01*
X019078Y031101D02*
X016558Y031101D01*
X016318Y031456D02*
X015609Y031456D01*
X012609Y034456D01*
X012169Y034430D02*
X012049Y034430D01*
X012047Y034271D02*
X012171Y034271D01*
X012330Y034113D02*
X011889Y034113D01*
X011758Y033816D02*
X011619Y033816D01*
X011619Y033466D01*
X011599Y033466D01*
X011599Y033816D01*
X011460Y033816D01*
X011249Y033605D01*
X011249Y033466D01*
X011599Y033466D01*
X011599Y033446D01*
X011249Y033446D01*
X011249Y033306D01*
X011460Y033096D01*
X011599Y033096D01*
X011599Y033446D01*
X011619Y033446D01*
X011619Y033466D01*
X011969Y033466D01*
X011969Y033605D01*
X011758Y033816D01*
X011778Y033796D02*
X012440Y033796D01*
X012460Y033816D02*
X012249Y033605D01*
X012249Y033466D01*
X012599Y033466D01*
X012599Y033816D01*
X012460Y033816D01*
X012599Y033796D02*
X012619Y033796D01*
X012619Y033816D02*
X012619Y033466D01*
X012599Y033466D01*
X012599Y033446D01*
X012249Y033446D01*
X012249Y033306D01*
X012460Y033096D01*
X012599Y033096D01*
X012599Y033446D01*
X012619Y033446D01*
X012619Y033466D01*
X012969Y033466D01*
X012969Y033605D01*
X012758Y033816D01*
X012619Y033816D01*
X012778Y033796D02*
X012929Y033796D01*
X012936Y033637D02*
X013088Y033637D01*
X012969Y033479D02*
X013246Y033479D01*
X013405Y033320D02*
X012969Y033320D01*
X012969Y033306D02*
X012969Y033446D01*
X012619Y033446D01*
X012619Y033096D01*
X012758Y033096D01*
X012969Y033306D01*
X012825Y033162D02*
X013563Y033162D01*
X013722Y033003D02*
X010542Y033003D01*
X010542Y032845D02*
X013880Y032845D01*
X014039Y032686D02*
X010542Y032686D01*
X010542Y032528D02*
X014197Y032528D01*
X014356Y032369D02*
X010542Y032369D01*
X010542Y032211D02*
X014514Y032211D01*
X014673Y032052D02*
X010542Y032052D01*
X010542Y031894D02*
X014831Y031894D01*
X014990Y031735D02*
X010542Y031735D01*
X010542Y031577D02*
X015148Y031577D01*
X015307Y031418D02*
X010542Y031418D01*
X010542Y031260D02*
X015465Y031260D01*
X015669Y031735D02*
X016004Y031735D01*
X015968Y032211D02*
X015193Y032211D01*
X015035Y032369D02*
X015698Y032369D01*
X015539Y032528D02*
X014876Y032528D01*
X014718Y032686D02*
X015381Y032686D01*
X015222Y032845D02*
X014559Y032845D01*
X014401Y033003D02*
X015064Y033003D01*
X014905Y033162D02*
X014242Y033162D01*
X014084Y033320D02*
X014747Y033320D01*
X014588Y033479D02*
X013925Y033479D01*
X013767Y033637D02*
X014430Y033637D01*
X014271Y033796D02*
X013608Y033796D01*
X013450Y033954D02*
X014113Y033954D01*
X013954Y034113D02*
X013291Y034113D01*
X013133Y034271D02*
X013796Y034271D01*
X013637Y034430D02*
X013049Y034430D01*
X013049Y034588D02*
X013479Y034588D01*
X013550Y034856D02*
X013450Y034956D01*
X012110Y034956D01*
X011609Y034456D01*
X011278Y034747D02*
X010542Y034747D01*
X010542Y034905D02*
X011720Y034905D01*
X011840Y035064D02*
X011878Y035064D01*
X011998Y035222D02*
X012220Y035222D01*
X012169Y035381D02*
X012049Y035381D01*
X012049Y035539D02*
X012169Y035539D01*
X012191Y035698D02*
X012229Y035698D01*
X012110Y035956D02*
X011609Y035456D01*
X011169Y035381D02*
X010542Y035381D01*
X010542Y035539D02*
X011169Y035539D01*
X011229Y035698D02*
X010542Y035698D01*
X010542Y035856D02*
X011388Y035856D01*
X011269Y036173D02*
X010542Y036173D01*
X010542Y036015D02*
X011829Y036015D01*
X011949Y036173D02*
X012007Y036173D01*
X012049Y036332D02*
X012169Y036332D01*
X012169Y036490D02*
X012049Y036490D01*
X012142Y036649D02*
X012180Y036649D01*
X012110Y036956D02*
X011609Y036456D01*
X011169Y036490D02*
X010542Y036490D01*
X010542Y036332D02*
X011169Y036332D01*
X011180Y036649D02*
X010542Y036649D01*
X010542Y036807D02*
X011339Y036807D01*
X011427Y037016D02*
X011791Y037016D01*
X012049Y037273D01*
X012049Y037556D01*
X012709Y038216D01*
X015964Y038216D01*
X016080Y038100D01*
X016234Y038036D01*
X016401Y038036D01*
X016556Y038100D01*
X016674Y038218D01*
X016738Y038372D01*
X016738Y038539D01*
X016674Y038694D01*
X016556Y038812D01*
X016401Y038876D01*
X016234Y038876D01*
X016080Y038812D01*
X015964Y038696D01*
X012561Y038696D01*
X012473Y038659D01*
X011710Y037896D01*
X011427Y037896D01*
X011169Y037638D01*
X011169Y037273D01*
X011427Y037016D01*
X011318Y037124D02*
X010542Y037124D01*
X010542Y036966D02*
X011780Y036966D01*
X011900Y037124D02*
X011939Y037124D01*
X012049Y037283D02*
X012169Y037283D01*
X012169Y037441D02*
X012049Y037441D01*
X012093Y037600D02*
X012169Y037600D01*
X012251Y037758D02*
X012290Y037758D01*
X012410Y037917D02*
X021470Y037917D01*
X021470Y038075D02*
X019498Y038075D01*
X019556Y038100D02*
X019674Y038218D01*
X019738Y038372D01*
X019738Y038539D01*
X019674Y038694D01*
X019556Y038812D01*
X019401Y038876D01*
X019234Y038876D01*
X019080Y038812D01*
X018962Y038694D01*
X018898Y038539D01*
X018898Y038372D01*
X018962Y038218D01*
X019080Y038100D01*
X019234Y038036D01*
X019401Y038036D01*
X019556Y038100D01*
X019681Y038234D02*
X021470Y038234D01*
X021470Y038392D02*
X019738Y038392D01*
X019733Y038551D02*
X021470Y038551D01*
X021470Y038709D02*
X019658Y038709D01*
X019420Y038868D02*
X021470Y038868D01*
X021470Y039026D02*
X010542Y039026D01*
X010542Y038868D02*
X016216Y038868D01*
X016234Y039036D02*
X016401Y039036D01*
X016556Y039100D01*
X016674Y039218D01*
X016738Y039372D01*
X016738Y039539D01*
X016674Y039694D01*
X016556Y039812D01*
X016401Y039876D01*
X016234Y039876D01*
X016080Y039812D01*
X015962Y039694D01*
X015898Y039539D01*
X015898Y039372D01*
X015962Y039218D01*
X016080Y039100D01*
X016234Y039036D01*
X016420Y038868D02*
X019216Y038868D01*
X019284Y039116D02*
X019318Y039116D01*
X019351Y039116D01*
X019417Y039129D01*
X019479Y039154D01*
X019535Y039191D01*
X019582Y039239D01*
X019619Y039295D01*
X019645Y039356D01*
X019658Y039422D01*
X019658Y039456D01*
X019658Y039489D01*
X019645Y039555D01*
X019619Y039617D01*
X019582Y039672D01*
X019535Y039720D01*
X019479Y039757D01*
X019417Y039783D01*
X019351Y039796D01*
X019318Y039796D01*
X019318Y039456D01*
X019318Y039456D01*
X019658Y039456D01*
X019318Y039456D01*
X019318Y039456D01*
X019318Y039796D01*
X019284Y039796D01*
X019219Y039783D01*
X019157Y039757D01*
X019101Y039720D01*
X019054Y039672D01*
X019016Y039617D01*
X018991Y039555D01*
X018978Y039489D01*
X018978Y039456D01*
X019318Y039456D01*
X019318Y039456D01*
X019318Y039116D01*
X019318Y039456D01*
X019318Y039456D01*
X018978Y039456D01*
X018978Y039422D01*
X018991Y039356D01*
X019016Y039295D01*
X019054Y039239D01*
X019101Y039191D01*
X019157Y039154D01*
X019219Y039129D01*
X019284Y039116D01*
X019318Y039185D02*
X019318Y039185D01*
X019318Y039343D02*
X019318Y039343D01*
X019318Y039502D02*
X019318Y039502D01*
X019318Y039660D02*
X019318Y039660D01*
X019590Y039660D02*
X021470Y039660D01*
X021470Y039502D02*
X019655Y039502D01*
X019639Y039343D02*
X021470Y039343D01*
X021470Y039185D02*
X019525Y039185D01*
X019111Y039185D02*
X016641Y039185D01*
X016726Y039343D02*
X018996Y039343D01*
X018980Y039502D02*
X016738Y039502D01*
X016688Y039660D02*
X019046Y039660D01*
X018978Y038709D02*
X016658Y038709D01*
X016733Y038551D02*
X018903Y038551D01*
X018898Y038392D02*
X016738Y038392D01*
X016681Y038234D02*
X018955Y038234D01*
X019138Y038075D02*
X016498Y038075D01*
X016609Y037758D02*
X019027Y037758D01*
X019080Y037812D02*
X018962Y037694D01*
X018898Y037539D01*
X018898Y037372D01*
X018962Y037218D01*
X019080Y037100D01*
X019234Y037036D01*
X019401Y037036D01*
X019556Y037100D01*
X019674Y037218D01*
X019738Y037372D01*
X019738Y037539D01*
X019674Y037694D01*
X019556Y037812D01*
X019401Y037876D01*
X019234Y037876D01*
X019080Y037812D01*
X018923Y037600D02*
X016713Y037600D01*
X016738Y037441D02*
X018898Y037441D01*
X018935Y037283D02*
X016701Y037283D01*
X016581Y037124D02*
X019055Y037124D01*
X019234Y036876D02*
X019080Y036812D01*
X018962Y036694D01*
X018898Y036539D01*
X018898Y036372D01*
X018962Y036218D01*
X019080Y036100D01*
X019234Y036036D01*
X019401Y036036D01*
X019556Y036100D01*
X019674Y036218D01*
X019738Y036372D01*
X019738Y036539D01*
X019674Y036694D01*
X019556Y036812D01*
X019401Y036876D01*
X019234Y036876D01*
X019076Y036807D02*
X016560Y036807D01*
X016692Y036649D02*
X018943Y036649D01*
X018898Y036490D02*
X016738Y036490D01*
X016721Y036332D02*
X018914Y036332D01*
X019006Y036173D02*
X016630Y036173D01*
X016448Y035856D02*
X019188Y035856D01*
X019234Y035876D02*
X019080Y035812D01*
X018962Y035694D01*
X018898Y035539D01*
X018898Y035372D01*
X018962Y035218D01*
X019080Y035100D01*
X019234Y035036D01*
X019401Y035036D01*
X019556Y035100D01*
X019674Y035218D01*
X019738Y035372D01*
X019738Y035539D01*
X019674Y035694D01*
X019556Y035812D01*
X019401Y035876D01*
X019234Y035876D01*
X019448Y035856D02*
X020912Y035856D01*
X020959Y035876D02*
X020804Y035812D01*
X020686Y035694D01*
X020622Y035539D01*
X020622Y035372D01*
X020686Y035218D01*
X020804Y035100D01*
X020959Y035036D01*
X021126Y035036D01*
X021280Y035100D01*
X021398Y035218D01*
X021462Y035372D01*
X021462Y035539D01*
X021398Y035694D01*
X021280Y035812D01*
X021126Y035876D01*
X020959Y035876D01*
X020959Y036036D02*
X021126Y036036D01*
X021280Y036100D01*
X021398Y036218D01*
X021462Y036372D01*
X021462Y036539D01*
X021398Y036694D01*
X021280Y036812D01*
X021126Y036876D01*
X020959Y036876D01*
X020804Y036812D01*
X020686Y036694D01*
X020622Y036539D01*
X020622Y036372D01*
X020686Y036218D01*
X020804Y036100D01*
X020959Y036036D01*
X020730Y036173D02*
X019630Y036173D01*
X019721Y036332D02*
X020639Y036332D01*
X020622Y036490D02*
X019738Y036490D01*
X019692Y036649D02*
X020668Y036649D01*
X020800Y036807D02*
X019560Y036807D01*
X019581Y037124D02*
X020779Y037124D01*
X020804Y037100D02*
X020959Y037036D01*
X021126Y037036D01*
X021280Y037100D01*
X021398Y037218D01*
X021462Y037372D01*
X021462Y037539D01*
X021398Y037694D01*
X021280Y037812D01*
X021126Y037876D01*
X020959Y037876D01*
X020804Y037812D01*
X020686Y037694D01*
X020622Y037539D01*
X020622Y037372D01*
X020686Y037218D01*
X020804Y037100D01*
X020659Y037283D02*
X019701Y037283D01*
X019738Y037441D02*
X020622Y037441D01*
X020647Y037600D02*
X019713Y037600D01*
X019609Y037758D02*
X020751Y037758D01*
X021333Y037758D02*
X021470Y037758D01*
X021470Y037600D02*
X021437Y037600D01*
X021462Y037441D02*
X021470Y037441D01*
X021470Y037283D02*
X021425Y037283D01*
X021470Y037124D02*
X021305Y037124D01*
X021470Y036966D02*
X015380Y036966D01*
X015221Y037124D02*
X016055Y037124D01*
X016076Y036807D02*
X015538Y036807D01*
X015551Y036456D02*
X015050Y036956D01*
X012110Y036956D01*
X012609Y037456D02*
X016318Y037456D01*
X016027Y037758D02*
X012929Y037758D01*
X012568Y038075D02*
X016138Y038075D01*
X016318Y038456D02*
X012609Y038456D01*
X011609Y037456D01*
X011290Y037758D02*
X010542Y037758D01*
X010542Y037600D02*
X011169Y037600D01*
X011169Y037441D02*
X010542Y037441D01*
X010542Y037283D02*
X011169Y037283D01*
X011731Y037917D02*
X010542Y037917D01*
X010542Y038075D02*
X011890Y038075D01*
X012048Y038234D02*
X010542Y038234D01*
X010542Y038392D02*
X012207Y038392D01*
X012365Y038551D02*
X010542Y038551D01*
X010542Y038709D02*
X015978Y038709D01*
X015994Y039185D02*
X010542Y039185D01*
X010542Y039343D02*
X015910Y039343D01*
X015898Y039502D02*
X010542Y039502D01*
X010542Y039660D02*
X015948Y039660D01*
X016097Y039819D02*
X010542Y039819D01*
X010542Y039977D02*
X021470Y039977D01*
X021470Y039819D02*
X016538Y039819D01*
X016627Y041879D02*
X019009Y041879D01*
X018962Y041926D02*
X019080Y041808D01*
X019234Y041744D01*
X019401Y041744D01*
X019556Y041808D01*
X019674Y041926D01*
X019738Y042081D01*
X019738Y042248D01*
X019674Y042402D01*
X019556Y042520D01*
X019401Y042584D01*
X019234Y042584D01*
X019080Y042520D01*
X018962Y042402D01*
X018898Y042248D01*
X018898Y042081D01*
X018962Y041926D01*
X018916Y042038D02*
X016720Y042038D01*
X016738Y042196D02*
X018898Y042196D01*
X018942Y042355D02*
X016693Y042355D01*
X016563Y042513D02*
X019073Y042513D01*
X019234Y042744D02*
X019401Y042744D01*
X019556Y042808D01*
X019674Y042926D01*
X019738Y043081D01*
X019738Y043248D01*
X019674Y043402D01*
X019556Y043520D01*
X019401Y043584D01*
X019234Y043584D01*
X019080Y043520D01*
X018962Y043402D01*
X018898Y043248D01*
X018898Y043081D01*
X018962Y042926D01*
X019080Y042808D01*
X019234Y042744D01*
X019058Y042830D02*
X016578Y042830D01*
X016700Y042989D02*
X018936Y042989D01*
X018898Y043147D02*
X016738Y043147D01*
X016714Y043306D02*
X018922Y043306D01*
X019024Y043464D02*
X016612Y043464D01*
X016491Y043781D02*
X019144Y043781D01*
X018956Y043940D02*
X016679Y043940D01*
X016738Y044098D02*
X018898Y044098D01*
X018902Y044257D02*
X016734Y044257D01*
X016661Y044415D02*
X018975Y044415D01*
X019661Y044415D02*
X020699Y044415D01*
X020626Y044257D02*
X019734Y044257D01*
X019738Y044098D02*
X020622Y044098D01*
X020681Y043940D02*
X019679Y043940D01*
X019491Y043781D02*
X020869Y043781D01*
X020748Y043464D02*
X019612Y043464D01*
X019714Y043306D02*
X020646Y043306D01*
X020622Y043147D02*
X019738Y043147D01*
X019700Y042989D02*
X020660Y042989D01*
X020782Y042830D02*
X019578Y042830D01*
X019563Y042513D02*
X020797Y042513D01*
X020804Y042520D02*
X020686Y042402D01*
X020622Y042248D01*
X020622Y042081D01*
X020686Y041926D01*
X020804Y041808D01*
X020959Y041744D01*
X021126Y041744D01*
X021280Y041808D01*
X021398Y041926D01*
X021462Y042081D01*
X021462Y042248D01*
X021398Y042402D01*
X021280Y042520D01*
X021126Y042584D01*
X020959Y042584D01*
X020804Y042520D01*
X020667Y042355D02*
X019693Y042355D01*
X019738Y042196D02*
X020622Y042196D01*
X020640Y042038D02*
X019720Y042038D01*
X019627Y041879D02*
X020733Y041879D01*
X020881Y041466D02*
X020825Y041428D01*
X020778Y041381D01*
X020741Y041325D01*
X020715Y041263D01*
X020702Y041198D01*
X020702Y041164D01*
X020702Y041131D01*
X020715Y041065D01*
X020741Y041003D01*
X020778Y040948D01*
X020825Y040900D01*
X020881Y040863D01*
X020943Y040837D01*
X021009Y040824D01*
X021042Y040824D01*
X021042Y041164D01*
X021042Y041164D01*
X020702Y041164D01*
X021042Y041164D01*
X021042Y041164D01*
X021042Y040824D01*
X021076Y040824D01*
X021141Y040837D01*
X021203Y040863D01*
X021259Y040900D01*
X021306Y040948D01*
X021344Y041003D01*
X021369Y041065D01*
X021382Y041131D01*
X021382Y041164D01*
X021042Y041164D01*
X021042Y041164D01*
X021042Y041504D01*
X021009Y041504D01*
X020943Y041491D01*
X020881Y041466D01*
X020801Y041404D02*
X010542Y041404D01*
X010542Y041562D02*
X021470Y041562D01*
X021470Y041404D02*
X021283Y041404D01*
X021306Y041381D02*
X021259Y041428D01*
X021203Y041466D01*
X021141Y041491D01*
X021076Y041504D01*
X021042Y041504D01*
X021042Y041164D01*
X021042Y041164D01*
X021382Y041164D01*
X021382Y041198D01*
X021369Y041263D01*
X021344Y041325D01*
X021306Y041381D01*
X021373Y041245D02*
X021470Y041245D01*
X021470Y041087D02*
X021373Y041087D01*
X021287Y040928D02*
X021470Y040928D01*
X021470Y040770D02*
X010542Y040770D01*
X010542Y040928D02*
X020797Y040928D01*
X020711Y041087D02*
X010542Y041087D01*
X010542Y041245D02*
X020712Y041245D01*
X021042Y041245D02*
X021042Y041245D01*
X021042Y041087D02*
X021042Y041087D01*
X021042Y040928D02*
X021042Y040928D01*
X021042Y041404D02*
X021042Y041404D01*
X021470Y041721D02*
X010542Y041721D01*
X010542Y041879D02*
X016009Y041879D01*
X016318Y042164D02*
X015609Y042164D01*
X015442Y043164D02*
X012950Y045656D01*
X012101Y045656D01*
X011609Y045164D01*
X011599Y044524D02*
X011460Y044524D01*
X011249Y044313D01*
X011249Y044174D01*
X011599Y044174D01*
X011599Y044154D01*
X011619Y044154D01*
X011619Y044174D01*
X011599Y044174D01*
X011599Y044524D01*
X011599Y044415D02*
X011619Y044415D01*
X011619Y044257D02*
X011599Y044257D01*
X011599Y044154D02*
X011249Y044154D01*
X011249Y044015D01*
X011460Y043804D01*
X011599Y043804D01*
X011599Y044154D01*
X011599Y044098D02*
X011619Y044098D01*
X011619Y043940D02*
X011599Y043940D01*
X011324Y043940D02*
X010542Y043940D01*
X010542Y044098D02*
X011249Y044098D01*
X011249Y044257D02*
X010542Y044257D01*
X010542Y044415D02*
X011351Y044415D01*
X012151Y045366D02*
X012189Y045366D01*
X013049Y045208D02*
X013059Y045208D01*
X013063Y045049D02*
X013218Y045049D01*
X013628Y046317D02*
X013850Y046317D01*
X014211Y046634D02*
X014433Y046634D01*
X014370Y046476D02*
X014591Y046476D01*
X014528Y046317D02*
X014750Y046317D01*
X014687Y046159D02*
X014908Y046159D01*
X014845Y046000D02*
X015067Y046000D01*
X014274Y046793D02*
X014053Y046793D01*
X012169Y046317D02*
X012102Y046317D01*
X011358Y046793D02*
X010542Y046793D01*
X010542Y046951D02*
X011200Y046951D01*
X011169Y046000D02*
X010542Y046000D01*
X010542Y045842D02*
X011309Y045842D01*
X010542Y049963D02*
X015947Y049963D01*
X015898Y050121D02*
X010542Y050121D01*
X010542Y050280D02*
X015911Y050280D01*
X015998Y050438D02*
X010542Y050438D01*
X011302Y055664D02*
X011439Y055652D01*
X011439Y057226D01*
X009864Y057226D01*
X009876Y057090D01*
X009901Y056947D01*
X009939Y056808D01*
X009988Y056672D01*
X010049Y056541D01*
X010122Y056416D01*
X010204Y056298D01*
X010297Y056187D01*
X010400Y056085D01*
X010510Y055992D01*
X010629Y055909D01*
X010754Y055837D01*
X010885Y055776D01*
X011020Y055726D01*
X011160Y055689D01*
X011302Y055664D01*
X011273Y055669D02*
X009755Y055669D01*
X009755Y055827D02*
X010774Y055827D01*
X010519Y055986D02*
X009755Y055986D01*
X009755Y056144D02*
X010340Y056144D01*
X010201Y056303D02*
X009755Y056303D01*
X009755Y056461D02*
X010095Y056461D01*
X010013Y056620D02*
X009755Y056620D01*
X009755Y056778D02*
X009950Y056778D01*
X009904Y056937D02*
X009755Y056937D01*
X009755Y057095D02*
X009876Y057095D01*
X009755Y057254D02*
X011439Y057254D01*
X011439Y057412D02*
X011599Y057412D01*
X011599Y057571D02*
X011439Y057571D01*
X011439Y057729D02*
X011599Y057729D01*
X011599Y057888D02*
X011439Y057888D01*
X011439Y058046D02*
X011599Y058046D01*
X011599Y058205D02*
X011439Y058205D01*
X011439Y058363D02*
X011599Y058363D01*
X011599Y058522D02*
X011439Y058522D01*
X011439Y058680D02*
X011599Y058680D01*
X011599Y058839D02*
X011439Y058839D01*
X010934Y058997D02*
X013282Y058997D01*
X013282Y058839D02*
X012145Y058839D01*
X012441Y058680D02*
X013282Y058680D01*
X013336Y058522D02*
X012643Y058522D01*
X012791Y058363D02*
X013474Y058363D01*
X012999Y058046D02*
X032888Y058046D01*
X032888Y057888D02*
X013068Y057888D01*
X013118Y057729D02*
X032888Y057729D01*
X032888Y057571D02*
X019625Y057571D01*
X019601Y057595D02*
X019462Y057595D01*
X019462Y057245D01*
X019812Y057245D01*
X019812Y057384D01*
X019601Y057595D01*
X019462Y057571D02*
X019442Y057571D01*
X019442Y057595D02*
X019442Y057245D01*
X019462Y057245D01*
X019462Y057225D01*
X019812Y057225D01*
X019812Y057086D01*
X019601Y056875D01*
X019462Y056875D01*
X019462Y057225D01*
X019442Y057225D01*
X019442Y056875D01*
X019303Y056875D01*
X019092Y057086D01*
X019092Y057225D01*
X019442Y057225D01*
X019442Y057245D01*
X019092Y057245D01*
X019092Y057384D01*
X019303Y057595D01*
X019442Y057595D01*
X019278Y057571D02*
X018738Y057571D01*
X018634Y057675D02*
X018892Y057417D01*
X018892Y057053D01*
X018634Y056795D01*
X018269Y056795D01*
X018012Y057053D01*
X018012Y057417D01*
X018269Y057675D01*
X018634Y057675D01*
X018892Y057412D02*
X019120Y057412D01*
X019092Y057254D02*
X018892Y057254D01*
X018892Y057095D02*
X019092Y057095D01*
X019241Y056937D02*
X018776Y056937D01*
X018634Y056675D02*
X018269Y056675D01*
X018012Y056417D01*
X018012Y056071D01*
X017892Y056191D01*
X017892Y056417D01*
X017634Y056675D01*
X017269Y056675D01*
X017012Y056417D01*
X017012Y056053D01*
X017269Y055795D01*
X017496Y055795D01*
X018893Y054398D01*
X018972Y054319D01*
X019075Y054276D01*
X019834Y054276D01*
X024370Y049740D01*
X024370Y048430D01*
X024280Y048520D01*
X024126Y048584D01*
X023959Y048584D01*
X023804Y048520D01*
X023686Y048402D01*
X023622Y048248D01*
X023622Y048081D01*
X023686Y047926D01*
X023804Y047808D01*
X023959Y047744D01*
X024126Y047744D01*
X024280Y047808D01*
X024370Y047898D01*
X024370Y047430D01*
X024280Y047520D01*
X024126Y047584D01*
X023959Y047584D01*
X023804Y047520D01*
X023686Y047402D01*
X023622Y047248D01*
X023622Y047081D01*
X023686Y046926D01*
X023804Y046808D01*
X023959Y046744D01*
X024126Y046744D01*
X024280Y046808D01*
X024370Y046898D01*
X024370Y046872D01*
X024082Y046584D01*
X023959Y046584D01*
X023804Y046520D01*
X023686Y046402D01*
X023622Y046248D01*
X023622Y046081D01*
X023686Y045926D01*
X023804Y045808D01*
X023959Y045744D01*
X024126Y045744D01*
X024280Y045808D01*
X024398Y045926D01*
X024462Y046081D01*
X024462Y046173D01*
X024887Y046598D01*
X024930Y046701D01*
X024930Y049912D01*
X024887Y050015D01*
X024809Y050094D01*
X020109Y054794D01*
X020006Y054836D01*
X019246Y054836D01*
X018288Y055795D01*
X018634Y055795D01*
X018892Y056053D01*
X018892Y056417D01*
X018634Y056675D01*
X018689Y056620D02*
X032573Y056620D01*
X032573Y056778D02*
X016732Y056778D01*
X016732Y056620D02*
X017214Y056620D01*
X017269Y056795D02*
X017634Y056795D01*
X017892Y057053D01*
X017892Y057417D01*
X017634Y057675D01*
X017269Y057675D01*
X017012Y057417D01*
X017012Y057053D01*
X017269Y056795D01*
X017128Y056937D02*
X016776Y056937D01*
X016892Y057095D02*
X017012Y057095D01*
X017012Y057254D02*
X016892Y057254D01*
X016892Y057412D02*
X017012Y057412D01*
X017165Y057571D02*
X016738Y057571D01*
X016165Y057571D02*
X015738Y057571D01*
X015892Y057412D02*
X016012Y057412D01*
X016012Y057254D02*
X015892Y057254D01*
X015892Y057095D02*
X016012Y057095D01*
X016128Y056937D02*
X015776Y056937D01*
X015689Y056620D02*
X016172Y056620D01*
X016172Y056778D02*
X015391Y056778D01*
X015848Y056461D02*
X016056Y056461D01*
X016012Y056303D02*
X015892Y056303D01*
X015892Y056144D02*
X016012Y056144D01*
X016079Y055986D02*
X015825Y055986D01*
X015666Y055827D02*
X016172Y055827D01*
X016172Y055669D02*
X015130Y055669D01*
X015130Y055827D02*
X015237Y055827D01*
X015130Y055510D02*
X016172Y055510D01*
X016172Y055352D02*
X015130Y055352D01*
X015130Y055193D02*
X016172Y055193D01*
X016172Y055035D02*
X015130Y055035D01*
X015130Y054876D02*
X016172Y054876D01*
X016172Y054718D02*
X015130Y054718D01*
X015130Y054559D02*
X016172Y054559D01*
X016172Y054401D02*
X015130Y054401D01*
X015160Y054242D02*
X016172Y054242D01*
X016172Y054084D02*
X015318Y054084D01*
X015702Y053925D02*
X016172Y053925D01*
X016042Y053767D02*
X015861Y053767D01*
X015892Y053608D02*
X016012Y053608D01*
X016012Y053450D02*
X015892Y053450D01*
X015811Y053291D02*
X016092Y053291D01*
X016172Y053133D02*
X015653Y053133D01*
X015653Y052974D02*
X016172Y052974D01*
X016091Y052816D02*
X015812Y052816D01*
X015892Y052657D02*
X016012Y052657D01*
X016012Y052499D02*
X015903Y052499D01*
X016378Y052023D02*
X016586Y052023D01*
X016537Y051865D02*
X016745Y051865D01*
X016695Y051706D02*
X016903Y051706D01*
X016854Y051548D02*
X017062Y051548D01*
X017012Y051389D02*
X017220Y051389D01*
X017171Y051231D02*
X017379Y051231D01*
X017329Y051072D02*
X017537Y051072D01*
X017854Y051548D02*
X022563Y051548D01*
X022721Y051389D02*
X020413Y051389D01*
X020571Y051231D02*
X022880Y051231D01*
X023038Y051072D02*
X020730Y051072D01*
X020888Y050914D02*
X023197Y050914D01*
X023355Y050755D02*
X021047Y050755D01*
X021205Y050597D02*
X023514Y050597D01*
X023672Y050438D02*
X021364Y050438D01*
X021522Y050280D02*
X023831Y050280D01*
X023989Y050121D02*
X021681Y050121D01*
X021839Y049963D02*
X024148Y049963D01*
X024306Y049804D02*
X021998Y049804D01*
X022156Y049646D02*
X024370Y049646D01*
X024370Y049487D02*
X022315Y049487D01*
X022473Y049329D02*
X024370Y049329D01*
X024370Y049170D02*
X022632Y049170D01*
X022789Y049012D02*
X024370Y049012D01*
X024370Y048853D02*
X022830Y048853D01*
X022830Y048695D02*
X024370Y048695D01*
X024370Y048536D02*
X024241Y048536D01*
X023843Y048536D02*
X022830Y048536D01*
X022830Y048378D02*
X023676Y048378D01*
X023622Y048219D02*
X022830Y048219D01*
X022830Y048061D02*
X023630Y048061D01*
X023710Y047902D02*
X022830Y047902D01*
X022830Y047744D02*
X024370Y047744D01*
X024370Y047585D02*
X022830Y047585D01*
X022830Y047427D02*
X023711Y047427D01*
X023631Y047268D02*
X022830Y047268D01*
X022830Y047110D02*
X023622Y047110D01*
X023676Y046951D02*
X022830Y046951D01*
X022830Y046793D02*
X023841Y046793D01*
X023760Y046476D02*
X022830Y046476D01*
X022830Y046634D02*
X024132Y046634D01*
X024243Y046793D02*
X024291Y046793D01*
X024766Y046476D02*
X027902Y046476D01*
X027921Y046503D02*
X027838Y046385D01*
X027766Y046260D01*
X027705Y046129D01*
X027655Y045993D01*
X027618Y045853D01*
X027593Y045711D01*
X027581Y045575D01*
X029155Y045575D01*
X029155Y045415D01*
X027581Y045415D01*
X027593Y045279D01*
X027618Y045136D01*
X027655Y044997D01*
X027705Y044861D01*
X027766Y044730D01*
X027838Y044605D01*
X027921Y044487D01*
X028014Y044376D01*
X028116Y044274D01*
X028227Y044181D01*
X028345Y044098D01*
X028470Y044026D01*
X028601Y043965D01*
X028737Y043915D01*
X028877Y043878D01*
X029019Y043853D01*
X029155Y043841D01*
X029155Y045415D01*
X029315Y045415D01*
X029315Y043841D01*
X029451Y043853D01*
X029594Y043878D01*
X029733Y043915D01*
X029869Y043965D01*
X030000Y044026D01*
X030125Y044098D01*
X030243Y044181D01*
X030354Y044274D01*
X030456Y044376D01*
X030549Y044487D01*
X030632Y044605D01*
X030704Y044730D01*
X030765Y044861D01*
X030815Y044997D01*
X030852Y045136D01*
X030877Y045279D01*
X030889Y045415D01*
X029315Y045415D01*
X029315Y045575D01*
X029155Y045575D01*
X029155Y047149D01*
X029019Y047137D01*
X028877Y047112D01*
X028737Y047075D01*
X028601Y047025D01*
X028470Y046964D01*
X028345Y046892D01*
X028227Y046809D01*
X028116Y046716D01*
X028014Y046614D01*
X027921Y046503D01*
X028034Y046634D02*
X024903Y046634D01*
X024930Y046793D02*
X028208Y046793D01*
X028448Y046951D02*
X024930Y046951D01*
X024930Y047110D02*
X028869Y047110D01*
X029155Y047110D02*
X029315Y047110D01*
X029315Y047149D02*
X029451Y047137D01*
X029594Y047112D01*
X029733Y047075D01*
X029869Y047025D01*
X030000Y046964D01*
X030125Y046892D01*
X030243Y046809D01*
X030354Y046716D01*
X030456Y046614D01*
X030549Y046503D01*
X030632Y046385D01*
X030704Y046260D01*
X030765Y046129D01*
X030815Y045993D01*
X030852Y045853D01*
X030877Y045711D01*
X030889Y045575D01*
X029315Y045575D01*
X029315Y047149D01*
X029315Y046951D02*
X029155Y046951D01*
X029155Y046793D02*
X029315Y046793D01*
X029315Y046634D02*
X029155Y046634D01*
X029155Y046476D02*
X029315Y046476D01*
X029315Y046317D02*
X029155Y046317D01*
X029155Y046159D02*
X029315Y046159D01*
X029315Y046000D02*
X029155Y046000D01*
X029155Y045842D02*
X029315Y045842D01*
X029315Y045683D02*
X029155Y045683D01*
X029155Y045525D02*
X022830Y045525D01*
X022830Y045683D02*
X027590Y045683D01*
X027616Y045842D02*
X024314Y045842D01*
X024429Y046000D02*
X027658Y046000D01*
X027719Y046159D02*
X024462Y046159D01*
X024607Y046317D02*
X027799Y046317D01*
X027585Y045366D02*
X024316Y045366D01*
X024306Y045381D02*
X024259Y045428D01*
X024203Y045466D01*
X024141Y045491D01*
X024076Y045504D01*
X024042Y045504D01*
X024009Y045504D01*
X023943Y045491D01*
X023881Y045466D01*
X023825Y045428D01*
X023778Y045381D01*
X023741Y045325D01*
X023715Y045263D01*
X023702Y045198D01*
X023702Y045164D01*
X023702Y045131D01*
X023715Y045065D01*
X023741Y045003D01*
X023778Y044948D01*
X023825Y044900D01*
X023881Y044863D01*
X023943Y044837D01*
X024009Y044824D01*
X024042Y044824D01*
X024042Y045164D01*
X024042Y045164D01*
X023702Y045164D01*
X024042Y045164D01*
X024042Y045164D01*
X024042Y044824D01*
X024076Y044824D01*
X024141Y044837D01*
X024203Y044863D01*
X024259Y044900D01*
X024306Y044948D01*
X024344Y045003D01*
X024369Y045065D01*
X024382Y045131D01*
X024382Y045164D01*
X024042Y045164D01*
X024042Y045164D01*
X024042Y045504D01*
X024042Y045164D01*
X024042Y045164D01*
X024382Y045164D01*
X024382Y045198D01*
X024369Y045263D01*
X024344Y045325D01*
X024306Y045381D01*
X024380Y045208D02*
X027605Y045208D01*
X027641Y045049D02*
X024363Y045049D01*
X024245Y044891D02*
X027694Y044891D01*
X027765Y044732D02*
X022830Y044732D01*
X022830Y044574D02*
X023934Y044574D01*
X023959Y044584D02*
X023804Y044520D01*
X023686Y044402D01*
X023622Y044248D01*
X023622Y044081D01*
X023686Y043926D01*
X023804Y043808D01*
X023959Y043744D01*
X024126Y043744D01*
X024280Y043808D01*
X024398Y043926D01*
X024462Y044081D01*
X024462Y044248D01*
X024398Y044402D01*
X024280Y044520D01*
X024126Y044584D01*
X023959Y044584D01*
X024151Y044574D02*
X027860Y044574D01*
X027981Y044415D02*
X024385Y044415D01*
X024458Y044257D02*
X028136Y044257D01*
X028344Y044098D02*
X024462Y044098D01*
X024404Y043940D02*
X028669Y043940D01*
X029155Y043940D02*
X029315Y043940D01*
X029315Y044098D02*
X029155Y044098D01*
X029155Y044257D02*
X029315Y044257D01*
X029315Y044415D02*
X029155Y044415D01*
X029155Y044574D02*
X029315Y044574D01*
X029315Y044732D02*
X029155Y044732D01*
X029155Y044891D02*
X029315Y044891D01*
X029315Y045049D02*
X029155Y045049D01*
X029155Y045208D02*
X029315Y045208D01*
X029315Y045366D02*
X029155Y045366D01*
X029315Y045525D02*
X032573Y045525D01*
X032573Y045683D02*
X030880Y045683D01*
X030854Y045842D02*
X032573Y045842D01*
X032573Y046000D02*
X030812Y046000D01*
X030751Y046159D02*
X032573Y046159D01*
X032573Y046317D02*
X030671Y046317D01*
X030568Y046476D02*
X032573Y046476D01*
X032573Y046634D02*
X030436Y046634D01*
X030263Y046793D02*
X032573Y046793D01*
X032573Y046951D02*
X030022Y046951D01*
X029602Y047110D02*
X032573Y047110D01*
X032573Y047268D02*
X024930Y047268D01*
X024930Y047427D02*
X032573Y047427D01*
X032573Y047585D02*
X024930Y047585D01*
X024930Y047744D02*
X032573Y047744D01*
X032573Y047902D02*
X024930Y047902D01*
X024930Y048061D02*
X032573Y048061D01*
X032573Y048219D02*
X024930Y048219D01*
X024930Y048378D02*
X032573Y048378D01*
X032573Y048536D02*
X024930Y048536D01*
X024930Y048695D02*
X032573Y048695D01*
X032573Y048853D02*
X024930Y048853D01*
X024930Y049012D02*
X032573Y049012D01*
X032573Y049170D02*
X024930Y049170D01*
X024930Y049329D02*
X032573Y049329D01*
X032573Y049487D02*
X024930Y049487D01*
X024930Y049646D02*
X032573Y049646D01*
X032573Y049804D02*
X024930Y049804D01*
X024909Y049963D02*
X032573Y049963D01*
X032573Y050121D02*
X024781Y050121D01*
X024622Y050280D02*
X032573Y050280D01*
X032573Y050438D02*
X024464Y050438D01*
X024305Y050597D02*
X032573Y050597D01*
X032573Y050755D02*
X024147Y050755D01*
X023988Y050914D02*
X032573Y050914D01*
X032573Y051072D02*
X023830Y051072D01*
X023671Y051231D02*
X032573Y051231D01*
X032573Y051389D02*
X023513Y051389D01*
X023354Y051548D02*
X032573Y051548D01*
X032573Y051706D02*
X023196Y051706D01*
X023037Y051865D02*
X032573Y051865D01*
X032573Y052023D02*
X022879Y052023D01*
X022720Y052182D02*
X032573Y052182D01*
X032573Y052340D02*
X022562Y052340D01*
X022403Y052499D02*
X032573Y052499D01*
X032573Y052657D02*
X022245Y052657D01*
X022086Y052816D02*
X032573Y052816D01*
X032573Y052974D02*
X021928Y052974D01*
X021769Y053133D02*
X032573Y053133D01*
X032573Y053291D02*
X021611Y053291D01*
X021452Y053450D02*
X032573Y053450D01*
X032573Y053608D02*
X021294Y053608D01*
X021135Y053767D02*
X032573Y053767D01*
X032573Y053925D02*
X020977Y053925D01*
X020818Y054084D02*
X032573Y054084D01*
X032573Y054242D02*
X020660Y054242D01*
X020501Y054401D02*
X032573Y054401D01*
X032573Y054559D02*
X020343Y054559D01*
X020184Y054718D02*
X032573Y054718D01*
X032573Y054876D02*
X019206Y054876D01*
X019048Y055035D02*
X032573Y055035D01*
X032573Y055193D02*
X018889Y055193D01*
X018731Y055352D02*
X032573Y055352D01*
X032573Y055510D02*
X018572Y055510D01*
X018414Y055669D02*
X032573Y055669D01*
X032573Y055827D02*
X018666Y055827D01*
X018825Y055986D02*
X019192Y055986D01*
X019092Y056086D02*
X019303Y055875D01*
X019442Y055875D01*
X019442Y056225D01*
X019462Y056225D01*
X019462Y056245D01*
X019812Y056245D01*
X019812Y056384D01*
X019601Y056595D01*
X019462Y056595D01*
X019462Y056245D01*
X019442Y056245D01*
X019442Y056595D01*
X019303Y056595D01*
X019092Y056384D01*
X019092Y056245D01*
X019442Y056245D01*
X019442Y056225D01*
X019092Y056225D01*
X019092Y056086D01*
X019092Y056144D02*
X018892Y056144D01*
X018892Y056303D02*
X019092Y056303D01*
X019169Y056461D02*
X018848Y056461D01*
X018214Y056620D02*
X017689Y056620D01*
X017848Y056461D02*
X018056Y056461D01*
X018012Y056303D02*
X017892Y056303D01*
X017938Y056144D02*
X018012Y056144D01*
X017622Y055669D02*
X016732Y055669D01*
X016732Y055827D02*
X017237Y055827D01*
X017079Y055986D02*
X016825Y055986D01*
X016892Y056144D02*
X017012Y056144D01*
X017012Y056303D02*
X016892Y056303D01*
X016848Y056461D02*
X017056Y056461D01*
X017738Y057571D02*
X018165Y057571D01*
X018012Y057412D02*
X017892Y057412D01*
X017892Y057254D02*
X018012Y057254D01*
X018012Y057095D02*
X017892Y057095D01*
X017776Y056937D02*
X018128Y056937D01*
X017780Y055510D02*
X016732Y055510D01*
X016732Y055352D02*
X017939Y055352D01*
X018097Y055193D02*
X016732Y055193D01*
X016732Y055035D02*
X018256Y055035D01*
X018414Y054876D02*
X016732Y054876D01*
X016732Y054718D02*
X018573Y054718D01*
X018731Y054559D02*
X016732Y054559D01*
X016732Y054401D02*
X018890Y054401D01*
X018634Y053994D02*
X018269Y053994D01*
X018012Y053736D01*
X018012Y053372D01*
X018269Y053114D01*
X018634Y053114D01*
X018892Y053372D01*
X018892Y053736D01*
X018634Y053994D01*
X018702Y053925D02*
X020185Y053925D01*
X020344Y053767D02*
X019748Y053767D01*
X019812Y053703D02*
X019601Y053914D01*
X019462Y053914D01*
X019462Y053564D01*
X019812Y053564D01*
X019812Y053703D01*
X019812Y053608D02*
X020502Y053608D01*
X020661Y053450D02*
X019812Y053450D01*
X019812Y053405D02*
X019812Y053544D01*
X019462Y053544D01*
X019462Y053564D01*
X019442Y053564D01*
X019442Y053914D01*
X019303Y053914D01*
X019092Y053703D01*
X019092Y053564D01*
X019442Y053564D01*
X019442Y053544D01*
X019462Y053544D01*
X019462Y053194D01*
X019601Y053194D01*
X019812Y053405D01*
X019698Y053291D02*
X020819Y053291D01*
X020978Y053133D02*
X018653Y053133D01*
X018634Y052994D02*
X018269Y052994D01*
X018012Y052736D01*
X018012Y052372D01*
X018269Y052114D01*
X018634Y052114D01*
X018892Y052372D01*
X018892Y052736D01*
X018634Y052994D01*
X018653Y052974D02*
X021136Y052974D01*
X021295Y052816D02*
X019699Y052816D01*
X019601Y052914D02*
X019462Y052914D01*
X019462Y052564D01*
X019812Y052564D01*
X019812Y052703D01*
X019601Y052914D01*
X019442Y052914D02*
X019303Y052914D01*
X019092Y052703D01*
X019092Y052564D01*
X019442Y052564D01*
X019442Y052914D01*
X019442Y052816D02*
X019462Y052816D01*
X019462Y052657D02*
X019442Y052657D01*
X019442Y052564D02*
X019462Y052564D01*
X019462Y052544D01*
X019812Y052544D01*
X019812Y052405D01*
X019601Y052194D01*
X019462Y052194D01*
X019462Y052544D01*
X019442Y052544D01*
X019442Y052194D01*
X019303Y052194D01*
X019092Y052405D01*
X019092Y052544D01*
X019442Y052544D01*
X019442Y052564D01*
X019442Y052499D02*
X019462Y052499D01*
X019462Y052340D02*
X019442Y052340D01*
X019156Y052340D02*
X018860Y052340D01*
X018892Y052499D02*
X019092Y052499D01*
X019092Y052657D02*
X018892Y052657D01*
X018812Y052816D02*
X019204Y052816D01*
X019303Y053194D02*
X019442Y053194D01*
X019442Y053544D01*
X019092Y053544D01*
X019092Y053405D01*
X019303Y053194D01*
X019205Y053291D02*
X018811Y053291D01*
X018892Y053450D02*
X019092Y053450D01*
X019092Y053608D02*
X018892Y053608D01*
X018861Y053767D02*
X019155Y053767D01*
X019442Y053767D02*
X019462Y053767D01*
X019462Y053608D02*
X019442Y053608D01*
X019442Y053450D02*
X019462Y053450D01*
X019462Y053291D02*
X019442Y053291D01*
X019812Y052657D02*
X021453Y052657D01*
X021612Y052499D02*
X019812Y052499D01*
X019747Y052340D02*
X021770Y052340D01*
X021929Y052182D02*
X018702Y052182D01*
X018201Y052182D02*
X017702Y052182D01*
X017860Y052340D02*
X018043Y052340D01*
X018012Y052499D02*
X017892Y052499D01*
X017892Y052657D02*
X018012Y052657D01*
X018091Y052816D02*
X017812Y052816D01*
X017653Y052974D02*
X018250Y052974D01*
X018250Y053133D02*
X017653Y053133D01*
X017634Y053114D02*
X017892Y053372D01*
X017892Y053736D01*
X017634Y053994D01*
X017269Y053994D01*
X017012Y053736D01*
X017012Y053372D01*
X017269Y053114D01*
X017634Y053114D01*
X017811Y053291D02*
X018092Y053291D01*
X018012Y053450D02*
X017892Y053450D01*
X017892Y053608D02*
X018012Y053608D01*
X018042Y053767D02*
X017861Y053767D01*
X017702Y053925D02*
X018201Y053925D01*
X017201Y053925D02*
X016732Y053925D01*
X016732Y054084D02*
X020027Y054084D01*
X019868Y054242D02*
X016732Y054242D01*
X016861Y053767D02*
X017042Y053767D01*
X017012Y053608D02*
X016892Y053608D01*
X016892Y053450D02*
X017012Y053450D01*
X017092Y053291D02*
X016811Y053291D01*
X016732Y053133D02*
X017250Y053133D01*
X017250Y052974D02*
X016732Y052974D01*
X016812Y052816D02*
X017091Y052816D01*
X017012Y052657D02*
X016892Y052657D01*
X016903Y052499D02*
X017012Y052499D01*
X017378Y052023D02*
X022087Y052023D01*
X022246Y051865D02*
X017537Y051865D01*
X017695Y051706D02*
X022404Y051706D01*
X021048Y049963D02*
X020739Y049963D01*
X020889Y050121D02*
X020581Y050121D01*
X020731Y050280D02*
X020422Y050280D01*
X020572Y050438D02*
X020264Y050438D01*
X020414Y050597D02*
X020105Y050597D01*
X020255Y050755D02*
X019947Y050755D01*
X020097Y050914D02*
X019760Y050914D01*
X019789Y050121D02*
X019656Y050121D01*
X020898Y049804D02*
X021206Y049804D01*
X021056Y049646D02*
X021365Y049646D01*
X021215Y049487D02*
X021523Y049487D01*
X021373Y049329D02*
X021682Y049329D01*
X021532Y049170D02*
X021840Y049170D01*
X021470Y046317D02*
X021433Y046317D01*
X021462Y046159D02*
X021470Y046159D01*
X021470Y046000D02*
X021429Y046000D01*
X021470Y045842D02*
X021314Y045842D01*
X021470Y044574D02*
X021151Y044574D01*
X021385Y044415D02*
X021470Y044415D01*
X021458Y044257D02*
X021462Y044257D01*
X021470Y043940D02*
X021404Y043940D01*
X021470Y043781D02*
X021216Y043781D01*
X021287Y042513D02*
X021470Y042513D01*
X021470Y042355D02*
X021418Y042355D01*
X021462Y042196D02*
X021470Y042196D01*
X021470Y042038D02*
X021444Y042038D01*
X021470Y041879D02*
X021351Y041879D01*
X021470Y040611D02*
X010542Y040611D01*
X010542Y040453D02*
X021470Y040453D01*
X021470Y040294D02*
X010542Y040294D01*
X010542Y040136D02*
X021470Y040136D01*
X022830Y040136D02*
X022970Y040136D01*
X022970Y040294D02*
X022830Y040294D01*
X022830Y040453D02*
X022980Y040453D01*
X022970Y040428D02*
X022970Y036201D01*
X023013Y036098D01*
X023091Y036019D01*
X023091Y036019D01*
X023622Y035488D01*
X023622Y035372D01*
X023686Y035218D01*
X023804Y035100D01*
X023959Y035036D01*
X024126Y035036D01*
X024280Y035100D01*
X024398Y035218D01*
X024462Y035372D01*
X024462Y035539D01*
X024398Y035694D01*
X024280Y035812D01*
X024126Y035876D01*
X024027Y035876D01*
X023530Y036372D01*
X023530Y040256D01*
X024018Y040744D01*
X024126Y040744D01*
X024280Y040808D01*
X024398Y040926D01*
X024462Y041081D01*
X024462Y041248D01*
X024398Y041402D01*
X024280Y041520D01*
X024126Y041584D01*
X023959Y041584D01*
X023804Y041520D01*
X023686Y041402D01*
X023622Y041248D01*
X023622Y041140D01*
X023091Y040609D01*
X023013Y040531D01*
X022970Y040428D01*
X023093Y040611D02*
X022830Y040611D01*
X022830Y040770D02*
X023252Y040770D01*
X023410Y040928D02*
X022830Y040928D01*
X022830Y041087D02*
X023569Y041087D01*
X023622Y041245D02*
X022830Y041245D01*
X022830Y041404D02*
X023688Y041404D01*
X023906Y041562D02*
X022830Y041562D01*
X022830Y041721D02*
X032573Y041721D01*
X032573Y041879D02*
X026782Y041879D01*
X026726Y041824D02*
X026926Y042023D01*
X026926Y042164D01*
X026586Y042164D01*
X026586Y042164D01*
X026586Y041824D01*
X026726Y041824D01*
X026586Y041824D02*
X026586Y042164D01*
X026586Y042164D01*
X026926Y042164D01*
X026926Y042305D01*
X026726Y042504D01*
X026586Y042504D01*
X026586Y042164D01*
X026586Y042164D01*
X026585Y042164D02*
X026246Y042164D01*
X026246Y042023D01*
X026445Y041824D01*
X026586Y041824D01*
X026586Y041879D02*
X026586Y041879D01*
X026586Y042038D02*
X026586Y042038D01*
X026585Y042164D02*
X026585Y042164D01*
X026246Y042164D01*
X026246Y042305D01*
X026445Y042504D01*
X026586Y042504D01*
X026586Y042164D01*
X026586Y042196D02*
X026586Y042196D01*
X026586Y042355D02*
X026586Y042355D01*
X026876Y042355D02*
X032573Y042355D01*
X032573Y042513D02*
X025830Y042513D01*
X025759Y042584D02*
X025412Y042584D01*
X025166Y042338D01*
X025166Y041990D01*
X025412Y041744D01*
X025759Y041744D01*
X026006Y041990D01*
X026006Y042338D01*
X025759Y042584D01*
X025989Y042355D02*
X026295Y042355D01*
X026246Y042196D02*
X026006Y042196D01*
X026006Y042038D02*
X026246Y042038D01*
X026389Y041879D02*
X025895Y041879D01*
X025276Y041879D02*
X024351Y041879D01*
X024398Y041926D02*
X024462Y042081D01*
X024462Y042248D01*
X024398Y042402D01*
X024280Y042520D01*
X024126Y042584D01*
X023959Y042584D01*
X023804Y042520D01*
X023686Y042402D01*
X023622Y042248D01*
X023622Y042081D01*
X023686Y041926D01*
X023804Y041808D01*
X023959Y041744D01*
X024126Y041744D01*
X024280Y041808D01*
X024398Y041926D01*
X024444Y042038D02*
X025166Y042038D01*
X025166Y042196D02*
X024462Y042196D01*
X024418Y042355D02*
X025182Y042355D01*
X025341Y042513D02*
X024287Y042513D01*
X024126Y042744D02*
X024280Y042808D01*
X024398Y042926D01*
X024462Y043081D01*
X024462Y043248D01*
X024398Y043402D01*
X024280Y043520D01*
X024126Y043584D01*
X023959Y043584D01*
X023804Y043520D01*
X023686Y043402D01*
X023622Y043248D01*
X023622Y043081D01*
X023686Y042926D01*
X023804Y042808D01*
X023959Y042744D01*
X024126Y042744D01*
X024302Y042830D02*
X032573Y042830D01*
X032573Y042672D02*
X022830Y042672D01*
X022830Y042830D02*
X023782Y042830D01*
X023660Y042989D02*
X022830Y042989D01*
X022855Y043147D02*
X023622Y043147D01*
X023646Y043306D02*
X022830Y043306D01*
X022830Y043464D02*
X023748Y043464D01*
X023869Y043781D02*
X022830Y043781D01*
X022830Y043623D02*
X032573Y043623D01*
X032573Y043781D02*
X024216Y043781D01*
X024336Y043464D02*
X032573Y043464D01*
X032573Y043306D02*
X024438Y043306D01*
X024462Y043147D02*
X032573Y043147D01*
X032573Y042989D02*
X024424Y042989D01*
X023797Y042513D02*
X022830Y042513D01*
X022830Y042355D02*
X023667Y042355D01*
X023622Y042196D02*
X022830Y042196D01*
X022830Y042038D02*
X023640Y042038D01*
X023733Y041879D02*
X022830Y041879D01*
X024178Y041562D02*
X032573Y041562D01*
X032573Y041404D02*
X024396Y041404D01*
X024462Y041245D02*
X032573Y041245D01*
X032573Y041087D02*
X024462Y041087D01*
X024399Y040928D02*
X032573Y040928D01*
X032573Y040770D02*
X024188Y040770D01*
X023885Y040611D02*
X032573Y040611D01*
X032573Y040453D02*
X023727Y040453D01*
X023568Y040294D02*
X032573Y040294D01*
X032573Y040136D02*
X023530Y040136D01*
X023530Y039977D02*
X032573Y039977D01*
X032573Y039819D02*
X023530Y039819D01*
X023530Y039660D02*
X032573Y039660D01*
X032573Y039502D02*
X023530Y039502D01*
X023530Y039343D02*
X032573Y039343D01*
X032573Y039185D02*
X023530Y039185D01*
X023530Y039026D02*
X032573Y039026D01*
X032573Y038868D02*
X023530Y038868D01*
X023530Y038709D02*
X032573Y038709D01*
X032573Y038551D02*
X023530Y038551D01*
X023530Y038392D02*
X032573Y038392D01*
X032573Y038234D02*
X023530Y038234D01*
X023530Y038075D02*
X032573Y038075D01*
X032573Y037917D02*
X023530Y037917D01*
X023530Y037758D02*
X023751Y037758D01*
X023804Y037812D02*
X023686Y037694D01*
X023622Y037539D01*
X023622Y037372D01*
X023686Y037218D01*
X023804Y037100D01*
X023959Y037036D01*
X024126Y037036D01*
X024280Y037100D01*
X024398Y037218D01*
X024462Y037372D01*
X024462Y037539D01*
X024398Y037694D01*
X024280Y037812D01*
X024126Y037876D01*
X023959Y037876D01*
X023804Y037812D01*
X023647Y037600D02*
X023530Y037600D01*
X023530Y037441D02*
X023622Y037441D01*
X023659Y037283D02*
X023530Y037283D01*
X023530Y037124D02*
X023779Y037124D01*
X023530Y036966D02*
X032573Y036966D01*
X032573Y037124D02*
X024305Y037124D01*
X024425Y037283D02*
X032573Y037283D01*
X032573Y037441D02*
X024462Y037441D01*
X024437Y037600D02*
X032573Y037600D01*
X032573Y037758D02*
X024333Y037758D01*
X024126Y036876D02*
X023959Y036876D01*
X023804Y036812D01*
X023686Y036694D01*
X023622Y036539D01*
X023622Y036372D01*
X023686Y036218D01*
X023804Y036100D01*
X023959Y036036D01*
X024126Y036036D01*
X024280Y036100D01*
X024398Y036218D01*
X024462Y036372D01*
X024462Y036539D01*
X024398Y036694D01*
X024280Y036812D01*
X024126Y036876D01*
X024284Y036807D02*
X032573Y036807D01*
X032573Y036649D02*
X024417Y036649D01*
X024462Y036490D02*
X032573Y036490D01*
X032573Y036332D02*
X024446Y036332D01*
X024354Y036173D02*
X032573Y036173D01*
X032573Y036015D02*
X023888Y036015D01*
X023730Y036173D02*
X023729Y036173D01*
X023639Y036332D02*
X023571Y036332D01*
X023530Y036490D02*
X023622Y036490D01*
X023668Y036649D02*
X023530Y036649D01*
X023530Y036807D02*
X023800Y036807D01*
X022970Y036807D02*
X022830Y036807D01*
X022830Y036649D02*
X022970Y036649D01*
X022970Y036490D02*
X022830Y036490D01*
X022830Y036332D02*
X022970Y036332D01*
X022981Y036173D02*
X022830Y036173D01*
X022830Y036015D02*
X023096Y036015D01*
X023254Y035856D02*
X022830Y035856D01*
X022830Y035698D02*
X023413Y035698D01*
X023571Y035539D02*
X022830Y035539D01*
X022830Y035381D02*
X023622Y035381D01*
X023684Y035222D02*
X022830Y035222D01*
X022830Y035064D02*
X023890Y035064D01*
X023943Y034783D02*
X023881Y034757D01*
X023825Y034720D01*
X023778Y034672D01*
X023741Y034617D01*
X023715Y034555D01*
X023702Y034489D01*
X023702Y034456D01*
X024042Y034456D01*
X024042Y034796D01*
X024009Y034796D01*
X023943Y034783D01*
X023866Y034747D02*
X022830Y034747D01*
X022830Y034905D02*
X032573Y034905D01*
X032573Y034747D02*
X024218Y034747D01*
X024203Y034757D02*
X024259Y034720D01*
X024306Y034672D01*
X024344Y034617D01*
X024369Y034555D01*
X024382Y034489D01*
X024382Y034456D01*
X024042Y034456D01*
X024042Y034456D01*
X024042Y034456D01*
X024042Y034796D01*
X024076Y034796D01*
X024141Y034783D01*
X024203Y034757D01*
X024042Y034747D02*
X024042Y034747D01*
X024042Y034588D02*
X024042Y034588D01*
X024042Y034456D02*
X024042Y034456D01*
X023702Y034456D01*
X023702Y034422D01*
X023715Y034356D01*
X023741Y034295D01*
X023778Y034239D01*
X023825Y034191D01*
X023881Y034154D01*
X023943Y034129D01*
X024009Y034116D01*
X024042Y034116D01*
X024042Y034456D01*
X024042Y034456D01*
X024382Y034456D01*
X024382Y034422D01*
X024369Y034356D01*
X024344Y034295D01*
X024306Y034239D01*
X024259Y034191D01*
X024203Y034154D01*
X024141Y034129D01*
X024076Y034116D01*
X024042Y034116D01*
X024042Y034456D01*
X024042Y034430D02*
X024042Y034430D01*
X024042Y034271D02*
X024042Y034271D01*
X023756Y034271D02*
X022830Y034271D01*
X022830Y034113D02*
X032573Y034113D01*
X032573Y034271D02*
X024328Y034271D01*
X024382Y034430D02*
X032573Y034430D01*
X032573Y034588D02*
X024355Y034588D01*
X024194Y035064D02*
X032573Y035064D01*
X032573Y035222D02*
X024400Y035222D01*
X024462Y035381D02*
X032573Y035381D01*
X032573Y035539D02*
X024462Y035539D01*
X024394Y035698D02*
X032573Y035698D01*
X032573Y035856D02*
X024172Y035856D01*
X023729Y034588D02*
X022830Y034588D01*
X022830Y034430D02*
X023702Y034430D01*
X023959Y033876D02*
X023804Y033812D01*
X023686Y033694D01*
X023622Y033539D01*
X023622Y033372D01*
X023686Y033218D01*
X023804Y033100D01*
X023959Y033036D01*
X024126Y033036D01*
X024280Y033100D01*
X024398Y033218D01*
X024462Y033372D01*
X024462Y033539D01*
X024398Y033694D01*
X024280Y033812D01*
X024126Y033876D01*
X023959Y033876D01*
X023789Y033796D02*
X022830Y033796D01*
X022830Y033954D02*
X032573Y033954D01*
X032573Y033796D02*
X024296Y033796D01*
X024421Y033637D02*
X032573Y033637D01*
X032573Y033479D02*
X024462Y033479D01*
X024441Y033320D02*
X032573Y033320D01*
X032573Y033162D02*
X024343Y033162D01*
X024200Y032845D02*
X032573Y032845D01*
X032573Y033003D02*
X022830Y033003D01*
X022830Y032845D02*
X023885Y032845D01*
X023959Y032876D02*
X023804Y032812D01*
X023686Y032694D01*
X023622Y032539D01*
X023622Y032372D01*
X023686Y032218D01*
X023804Y032100D01*
X023959Y032036D01*
X024126Y032036D01*
X024280Y032100D01*
X024398Y032218D01*
X024462Y032372D01*
X024462Y032539D01*
X024398Y032694D01*
X024280Y032812D01*
X024126Y032876D01*
X023959Y032876D01*
X023683Y032686D02*
X022830Y032686D01*
X022851Y032528D02*
X023622Y032528D01*
X023623Y032369D02*
X022844Y032369D01*
X022830Y032211D02*
X023693Y032211D01*
X023918Y032052D02*
X022830Y032052D01*
X022830Y031894D02*
X032573Y031894D01*
X032573Y032052D02*
X024166Y032052D01*
X024392Y032211D02*
X032573Y032211D01*
X032573Y032369D02*
X024461Y032369D01*
X024462Y032528D02*
X032573Y032528D01*
X032573Y032686D02*
X024401Y032686D01*
X023742Y033162D02*
X022830Y033162D01*
X022830Y033320D02*
X023644Y033320D01*
X023622Y033479D02*
X022830Y033479D01*
X022830Y033637D02*
X023663Y033637D01*
X023728Y031735D02*
X022830Y031735D01*
X022830Y031577D02*
X023638Y031577D01*
X023622Y031418D02*
X022830Y031418D01*
X022830Y031260D02*
X023669Y031260D01*
X021470Y030784D02*
X021132Y030784D01*
X021141Y030783D02*
X021076Y030796D01*
X021042Y030796D01*
X021009Y030796D01*
X020943Y030783D01*
X020881Y030757D01*
X020825Y030720D01*
X020778Y030672D01*
X020741Y030617D01*
X020715Y030555D01*
X020702Y030489D01*
X020702Y030456D01*
X021042Y030456D01*
X021042Y030796D01*
X021042Y030456D01*
X021042Y030456D01*
X021042Y030456D01*
X020702Y030456D01*
X020702Y030422D01*
X020715Y030356D01*
X020741Y030295D01*
X020778Y030239D01*
X020825Y030191D01*
X020881Y030154D01*
X020943Y030129D01*
X021009Y030116D01*
X021042Y030116D01*
X021042Y030456D01*
X021382Y030456D01*
X021382Y030489D01*
X021369Y030555D01*
X021344Y030617D01*
X021306Y030672D01*
X021259Y030720D01*
X021203Y030757D01*
X021141Y030783D01*
X021042Y030784D02*
X021042Y030784D01*
X020953Y030784D02*
X010542Y030784D01*
X010542Y030626D02*
X020747Y030626D01*
X020702Y030467D02*
X010542Y030467D01*
X010542Y030309D02*
X020735Y030309D01*
X020890Y030150D02*
X010542Y030150D01*
X010542Y029992D02*
X021470Y029992D01*
X021470Y030150D02*
X021194Y030150D01*
X021203Y030154D02*
X021259Y030191D01*
X021306Y030239D01*
X021344Y030295D01*
X021369Y030356D01*
X021382Y030422D01*
X021382Y030456D01*
X021042Y030456D01*
X021042Y030456D01*
X021042Y030456D01*
X021042Y030116D01*
X021076Y030116D01*
X021141Y030129D01*
X021203Y030154D01*
X021042Y030150D02*
X021042Y030150D01*
X021042Y030309D02*
X021042Y030309D01*
X021042Y030467D02*
X021042Y030467D01*
X021042Y030626D02*
X021042Y030626D01*
X021337Y030626D02*
X021470Y030626D01*
X021470Y030467D02*
X021382Y030467D01*
X021349Y030309D02*
X021470Y030309D01*
X021470Y029833D02*
X010542Y029833D01*
X010542Y029675D02*
X021470Y029675D01*
X021470Y029516D02*
X010542Y029516D01*
X010542Y029358D02*
X021470Y029358D01*
X020802Y031101D02*
X019558Y031101D01*
X019691Y031260D02*
X020669Y031260D01*
X020622Y031418D02*
X019738Y031418D01*
X019722Y031577D02*
X020638Y031577D01*
X020728Y031735D02*
X019632Y031735D01*
X019442Y032052D02*
X020918Y032052D01*
X020959Y032036D02*
X021126Y032036D01*
X021280Y032100D01*
X021398Y032218D01*
X021462Y032372D01*
X021462Y032539D01*
X021398Y032694D01*
X021280Y032812D01*
X021126Y032876D01*
X020959Y032876D01*
X020804Y032812D01*
X020686Y032694D01*
X020622Y032539D01*
X020622Y032372D01*
X020686Y032218D01*
X020804Y032100D01*
X020959Y032036D01*
X021166Y032052D02*
X021470Y032052D01*
X021470Y032211D02*
X021392Y032211D01*
X021461Y032369D02*
X021470Y032369D01*
X021462Y032528D02*
X021470Y032528D01*
X021470Y032686D02*
X021401Y032686D01*
X021470Y032845D02*
X021200Y032845D01*
X021470Y033003D02*
X015742Y033003D01*
X015584Y033162D02*
X016017Y033162D01*
X015851Y033456D02*
X013850Y035456D01*
X012610Y035456D01*
X012609Y035456D01*
X012989Y035698D02*
X014169Y035698D01*
X014106Y035539D02*
X014328Y035539D01*
X014265Y035381D02*
X014486Y035381D01*
X014423Y035222D02*
X014645Y035222D01*
X014582Y035064D02*
X014803Y035064D01*
X014740Y034905D02*
X014962Y034905D01*
X014899Y034747D02*
X015120Y034747D01*
X015057Y034588D02*
X015279Y034588D01*
X015216Y034430D02*
X015437Y034430D01*
X015374Y034271D02*
X015596Y034271D01*
X015533Y034113D02*
X016066Y034113D01*
X016064Y033796D02*
X015850Y033796D01*
X015691Y033954D02*
X021470Y033954D01*
X021470Y033796D02*
X021296Y033796D01*
X021421Y033637D02*
X021470Y033637D01*
X021470Y033320D02*
X021441Y033320D01*
X021470Y033162D02*
X021343Y033162D01*
X020885Y032845D02*
X019475Y032845D01*
X019401Y033036D02*
X019234Y033036D01*
X019080Y033100D01*
X018962Y033218D01*
X018898Y033372D01*
X018898Y033539D01*
X018962Y033694D01*
X019080Y033812D01*
X019234Y033876D01*
X019401Y033876D01*
X019556Y033812D01*
X019674Y033694D01*
X019738Y033539D01*
X019738Y033372D01*
X019674Y033218D01*
X019556Y033100D01*
X019401Y033036D01*
X019618Y033162D02*
X020742Y033162D01*
X020644Y033320D02*
X019716Y033320D01*
X019738Y033479D02*
X020622Y033479D01*
X020663Y033637D02*
X019697Y033637D01*
X019571Y033796D02*
X020789Y033796D01*
X020959Y034036D02*
X021126Y034036D01*
X021280Y034100D01*
X021398Y034218D01*
X021462Y034372D01*
X021462Y034539D01*
X021398Y034694D01*
X021280Y034812D01*
X021126Y034876D01*
X020959Y034876D01*
X020804Y034812D01*
X020686Y034694D01*
X020622Y034539D01*
X020622Y034372D01*
X020686Y034218D01*
X020804Y034100D01*
X020959Y034036D01*
X020791Y034113D02*
X019569Y034113D01*
X019556Y034100D02*
X019674Y034218D01*
X019738Y034372D01*
X019738Y034539D01*
X019674Y034694D01*
X019556Y034812D01*
X019401Y034876D01*
X019234Y034876D01*
X019080Y034812D01*
X018962Y034694D01*
X018898Y034539D01*
X018898Y034372D01*
X018962Y034218D01*
X019080Y034100D01*
X019234Y034036D01*
X019401Y034036D01*
X019556Y034100D01*
X019696Y034271D02*
X020664Y034271D01*
X020622Y034430D02*
X019738Y034430D01*
X019717Y034588D02*
X020643Y034588D01*
X020740Y034747D02*
X019620Y034747D01*
X019470Y035064D02*
X020890Y035064D01*
X020684Y035222D02*
X019676Y035222D01*
X019738Y035381D02*
X020622Y035381D01*
X020622Y035539D02*
X019738Y035539D01*
X019669Y035698D02*
X020691Y035698D01*
X021172Y035856D02*
X021470Y035856D01*
X021470Y035698D02*
X021394Y035698D01*
X021462Y035539D02*
X021470Y035539D01*
X021462Y035381D02*
X021470Y035381D01*
X021470Y035222D02*
X021400Y035222D01*
X021470Y035064D02*
X021194Y035064D01*
X021470Y034905D02*
X015640Y034905D01*
X015482Y035064D02*
X016166Y035064D01*
X016470Y035064D02*
X019166Y035064D01*
X018960Y035222D02*
X016676Y035222D01*
X016738Y035381D02*
X018898Y035381D01*
X018898Y035539D02*
X016738Y035539D01*
X016669Y035698D02*
X018966Y035698D01*
X019015Y034747D02*
X016620Y034747D01*
X016717Y034588D02*
X018918Y034588D01*
X018898Y034430D02*
X016738Y034430D01*
X016696Y034271D02*
X018939Y034271D01*
X019066Y034113D02*
X016569Y034113D01*
X016571Y033796D02*
X019064Y033796D01*
X018939Y033637D02*
X016697Y033637D01*
X016738Y033479D02*
X018898Y033479D01*
X018919Y033320D02*
X016716Y033320D01*
X016618Y033162D02*
X019017Y033162D01*
X019160Y032845D02*
X016475Y032845D01*
X016677Y032686D02*
X018959Y032686D01*
X018898Y032528D02*
X016738Y032528D01*
X016737Y032369D02*
X018899Y032369D01*
X018968Y032211D02*
X016667Y032211D01*
X016318Y032456D02*
X015951Y032456D01*
X013550Y034856D01*
X013682Y035064D02*
X013903Y035064D01*
X013840Y034905D02*
X014062Y034905D01*
X013999Y034747D02*
X014220Y034747D01*
X014157Y034588D02*
X014379Y034588D01*
X014316Y034430D02*
X014537Y034430D01*
X014474Y034271D02*
X014696Y034271D01*
X014633Y034113D02*
X014854Y034113D01*
X014791Y033954D02*
X015013Y033954D01*
X014950Y033796D02*
X015171Y033796D01*
X015108Y033637D02*
X015330Y033637D01*
X015267Y033479D02*
X015488Y033479D01*
X015425Y033320D02*
X015647Y033320D01*
X015851Y033456D02*
X016318Y033456D01*
X016160Y032845D02*
X015901Y032845D01*
X015751Y034456D02*
X014250Y035956D01*
X012110Y035956D01*
X012609Y036456D02*
X012610Y036456D01*
X014650Y036456D01*
X015651Y035456D01*
X016318Y035456D01*
X016188Y035856D02*
X015589Y035856D01*
X015431Y036015D02*
X021470Y036015D01*
X021470Y036173D02*
X021354Y036173D01*
X021446Y036332D02*
X021470Y036332D01*
X021462Y036490D02*
X021470Y036490D01*
X021470Y036649D02*
X021417Y036649D01*
X021470Y036807D02*
X021284Y036807D01*
X022830Y036966D02*
X022970Y036966D01*
X022970Y037124D02*
X022830Y037124D01*
X022830Y037283D02*
X022970Y037283D01*
X022970Y037441D02*
X022830Y037441D01*
X022830Y037600D02*
X022970Y037600D01*
X022970Y037758D02*
X022830Y037758D01*
X022830Y037917D02*
X022970Y037917D01*
X022970Y038075D02*
X022830Y038075D01*
X022830Y038234D02*
X022970Y038234D01*
X022970Y038392D02*
X022830Y038392D01*
X022830Y038551D02*
X022970Y038551D01*
X022970Y038709D02*
X022830Y038709D01*
X022830Y038868D02*
X022970Y038868D01*
X022970Y039026D02*
X022830Y039026D01*
X022830Y039185D02*
X022970Y039185D01*
X022970Y039343D02*
X022830Y039343D01*
X022830Y039502D02*
X022970Y039502D01*
X022970Y039660D02*
X022830Y039660D01*
X022830Y039819D02*
X022970Y039819D01*
X022970Y039977D02*
X022830Y039977D01*
X022830Y043940D02*
X023681Y043940D01*
X023622Y044098D02*
X022830Y044098D01*
X022830Y044257D02*
X023626Y044257D01*
X023699Y044415D02*
X022830Y044415D01*
X022830Y044891D02*
X023839Y044891D01*
X023722Y045049D02*
X022830Y045049D01*
X022830Y045208D02*
X023704Y045208D01*
X023768Y045366D02*
X022830Y045366D01*
X022830Y045842D02*
X023771Y045842D01*
X023655Y046000D02*
X022830Y046000D01*
X022830Y046159D02*
X023622Y046159D01*
X023651Y046317D02*
X022830Y046317D01*
X024042Y045366D02*
X024042Y045366D01*
X024042Y045208D02*
X024042Y045208D01*
X024042Y045049D02*
X024042Y045049D01*
X024042Y044891D02*
X024042Y044891D01*
X026926Y042196D02*
X032573Y042196D01*
X032573Y042038D02*
X026926Y042038D01*
X029801Y043940D02*
X032573Y043940D01*
X032573Y044098D02*
X030126Y044098D01*
X030334Y044257D02*
X032573Y044257D01*
X032573Y044415D02*
X030489Y044415D01*
X030610Y044574D02*
X032573Y044574D01*
X032573Y044732D02*
X030705Y044732D01*
X030776Y044891D02*
X032573Y044891D01*
X032573Y045049D02*
X030829Y045049D01*
X030865Y045208D02*
X032573Y045208D01*
X032573Y045366D02*
X030885Y045366D01*
X032573Y055986D02*
X019712Y055986D01*
X019812Y056086D02*
X019601Y055875D01*
X019462Y055875D01*
X019462Y056225D01*
X019812Y056225D01*
X019812Y056086D01*
X019812Y056144D02*
X032573Y056144D01*
X032573Y056303D02*
X019812Y056303D01*
X019734Y056461D02*
X032573Y056461D01*
X032573Y056937D02*
X019663Y056937D01*
X019462Y056937D02*
X019442Y056937D01*
X019442Y057095D02*
X019462Y057095D01*
X019462Y057254D02*
X019442Y057254D01*
X019442Y057412D02*
X019462Y057412D01*
X019783Y057412D02*
X032736Y057412D01*
X032695Y057389D02*
X032695Y057389D01*
X032695Y057389D01*
X032617Y057254D02*
X019812Y057254D01*
X019812Y057095D02*
X032573Y057095D01*
X032888Y058205D02*
X012909Y058205D01*
X013152Y057571D02*
X015165Y057571D01*
X015012Y057412D02*
X013170Y057412D01*
X011599Y057095D02*
X011439Y057095D01*
X011439Y056937D02*
X011599Y056937D01*
X011599Y056778D02*
X011439Y056778D01*
X011439Y056620D02*
X011599Y056620D01*
X011599Y056461D02*
X011439Y056461D01*
X011439Y056303D02*
X011599Y056303D01*
X011599Y056144D02*
X011439Y056144D01*
X011439Y055986D02*
X011599Y055986D01*
X011599Y055827D02*
X011439Y055827D01*
X011439Y055669D02*
X011599Y055669D01*
X009867Y057412D02*
X009755Y057412D01*
X009762Y057571D02*
X009885Y057571D01*
X009919Y057729D02*
X009784Y057729D01*
X009826Y057888D02*
X009969Y057888D01*
X010038Y058046D02*
X009869Y058046D01*
X009951Y058205D02*
X010128Y058205D01*
X010042Y058363D02*
X010246Y058363D01*
X010168Y058522D02*
X010394Y058522D01*
X010326Y058680D02*
X010596Y058680D01*
X010559Y058839D02*
X010892Y058839D01*
X019442Y056461D02*
X019462Y056461D01*
X019462Y056303D02*
X019442Y056303D01*
X019442Y056144D02*
X019462Y056144D01*
X019462Y055986D02*
X019442Y055986D01*
X016318Y043164D02*
X015442Y043164D01*
X015018Y036649D02*
X014797Y036649D01*
X014955Y036490D02*
X015177Y036490D01*
X015114Y036332D02*
X015335Y036332D01*
X015272Y036173D02*
X016006Y036173D01*
X016318Y036456D02*
X015551Y036456D01*
X015748Y035698D02*
X015966Y035698D01*
X015587Y035222D02*
X015323Y035222D01*
X015386Y035381D02*
X015165Y035381D01*
X015228Y035539D02*
X015006Y035539D01*
X015069Y035698D02*
X014848Y035698D01*
X014911Y035856D02*
X014689Y035856D01*
X014752Y036015D02*
X014531Y036015D01*
X014594Y036173D02*
X014353Y036173D01*
X015799Y034747D02*
X016015Y034747D01*
X015751Y034456D02*
X016318Y034456D01*
X019677Y032686D02*
X020683Y032686D01*
X020622Y032528D02*
X019738Y032528D01*
X019737Y032369D02*
X020623Y032369D01*
X020693Y032211D02*
X019667Y032211D01*
X021294Y034113D02*
X021470Y034113D01*
X021470Y034271D02*
X021421Y034271D01*
X021462Y034430D02*
X021470Y034430D01*
X021470Y034588D02*
X021442Y034588D01*
X021470Y034747D02*
X021345Y034747D01*
X019318Y029041D02*
X019318Y029041D01*
X019318Y028882D02*
X019318Y028882D01*
X019318Y028724D02*
X019318Y028724D01*
X019318Y028565D02*
X019318Y028565D01*
X012619Y033162D02*
X012599Y033162D01*
X012599Y033320D02*
X012619Y033320D01*
X012619Y033479D02*
X012599Y033479D01*
X012599Y033637D02*
X012619Y033637D01*
X012282Y033637D02*
X011936Y033637D01*
X011969Y033479D02*
X012249Y033479D01*
X012249Y033320D02*
X011969Y033320D01*
X011969Y033306D02*
X011969Y033446D01*
X011619Y033446D01*
X011619Y033096D01*
X011758Y033096D01*
X011969Y033306D01*
X011825Y033162D02*
X012394Y033162D01*
X012771Y033954D02*
X010542Y033954D01*
X010542Y033796D02*
X011440Y033796D01*
X011599Y033796D02*
X011619Y033796D01*
X011619Y033637D02*
X011599Y033637D01*
X011599Y033479D02*
X011619Y033479D01*
X011619Y033320D02*
X011599Y033320D01*
X011599Y033162D02*
X011619Y033162D01*
X011394Y033162D02*
X010542Y033162D01*
X010542Y033320D02*
X011249Y033320D01*
X011249Y033479D02*
X010542Y033479D01*
X010542Y033637D02*
X011282Y033637D01*
X011330Y034113D02*
X010542Y034113D01*
X010542Y034271D02*
X011171Y034271D01*
X011169Y034430D02*
X010542Y034430D01*
X010542Y034588D02*
X011169Y034588D01*
X011379Y035064D02*
X010542Y035064D01*
X010542Y035222D02*
X011220Y035222D01*
X012081Y034588D02*
X012169Y034588D01*
X024405Y014300D02*
X032573Y014300D01*
X032573Y014142D02*
X024462Y014142D01*
X024458Y013983D02*
X032573Y013983D01*
X032573Y013825D02*
X024383Y013825D01*
X024247Y013349D02*
X032573Y013349D01*
X032573Y013191D02*
X024363Y013191D01*
X024382Y013078D02*
X024042Y013078D01*
X024042Y013078D01*
X024042Y013078D01*
X024042Y012738D01*
X024076Y012738D01*
X024141Y012751D01*
X024203Y012776D01*
X024259Y012814D01*
X024306Y012861D01*
X024344Y012917D01*
X024369Y012978D01*
X024382Y013044D01*
X024382Y013078D01*
X024380Y013032D02*
X032573Y013032D01*
X032573Y012874D02*
X024315Y012874D01*
X024042Y012874D02*
X024042Y012874D01*
X024042Y013032D02*
X024042Y013032D01*
X024042Y013191D02*
X024042Y013191D01*
X024042Y013349D02*
X024042Y013349D01*
X024315Y012398D02*
X032573Y012398D01*
X032573Y012240D02*
X024430Y012240D01*
X024462Y012081D02*
X032573Y012081D01*
X032573Y011923D02*
X024580Y011923D01*
X024738Y011764D02*
X032573Y011764D01*
X032573Y011606D02*
X024897Y011606D01*
X025015Y011447D02*
X032573Y011447D01*
X032573Y011289D02*
X025030Y011289D01*
X025030Y011130D02*
X032573Y011130D01*
X032573Y010972D02*
X025030Y010972D01*
X025030Y010813D02*
X032573Y010813D01*
X032573Y010655D02*
X025030Y010655D01*
X025030Y010496D02*
X032573Y010496D01*
X032573Y010338D02*
X026790Y010338D01*
X026726Y010402D02*
X026586Y010402D01*
X026586Y010062D01*
X026926Y010062D01*
X026926Y010203D01*
X026726Y010402D01*
X026586Y010402D02*
X026586Y010062D01*
X026586Y010062D01*
X026926Y010062D01*
X026926Y009921D01*
X026726Y009722D01*
X026586Y009722D01*
X026586Y010062D01*
X026586Y010062D01*
X026586Y010062D01*
X026586Y009722D01*
X026445Y009722D01*
X026246Y009921D01*
X026246Y010062D01*
X026585Y010062D01*
X026585Y010062D01*
X026246Y010062D01*
X026246Y010203D01*
X026445Y010402D01*
X026586Y010402D01*
X026586Y010338D02*
X026586Y010338D01*
X026586Y010179D02*
X026586Y010179D01*
X026586Y010021D02*
X026586Y010021D01*
X026586Y009862D02*
X026586Y009862D01*
X026867Y009862D02*
X032573Y009862D01*
X032573Y009704D02*
X025946Y009704D01*
X025946Y009545D02*
X032573Y009545D01*
X032573Y009387D02*
X025946Y009387D01*
X025946Y009228D02*
X032573Y009228D01*
X032573Y009070D02*
X025946Y009070D01*
X025946Y008911D02*
X032573Y008911D01*
X032573Y008753D02*
X025946Y008753D01*
X025946Y008594D02*
X032573Y008594D01*
X032573Y008436D02*
X025946Y008436D01*
X025946Y008277D02*
X032573Y008277D01*
X032573Y008119D02*
X025946Y008119D01*
X025946Y007960D02*
X032573Y007960D01*
X032573Y007802D02*
X025897Y007802D01*
X025746Y007643D02*
X032573Y007643D01*
X032573Y007485D02*
X025588Y007485D01*
X025429Y007326D02*
X032573Y007326D01*
X032573Y007168D02*
X025271Y007168D01*
X025112Y007009D02*
X032573Y007009D01*
X032573Y006851D02*
X024954Y006851D01*
X024795Y006692D02*
X032573Y006692D01*
X032573Y006534D02*
X024637Y006534D01*
X024478Y006375D02*
X032573Y006375D01*
X032573Y006253D02*
X032573Y006253D01*
X032594Y006217D02*
X024320Y006217D01*
X024161Y006058D02*
X032686Y006058D01*
X032695Y006042D02*
X032695Y006042D01*
X032888Y005900D02*
X024003Y005900D01*
X023844Y005741D02*
X032888Y005741D01*
X032888Y005583D02*
X023686Y005583D01*
X023527Y005424D02*
X032888Y005424D01*
X032888Y005266D02*
X023369Y005266D01*
X023143Y006058D02*
X019892Y006058D01*
X019892Y006217D02*
X023301Y006217D01*
X023460Y006375D02*
X019892Y006375D01*
X019736Y006534D02*
X023618Y006534D01*
X023777Y006692D02*
X018732Y006692D01*
X018736Y006534D02*
X019168Y006534D01*
X019012Y006375D02*
X018892Y006375D01*
X018892Y006217D02*
X019012Y006217D01*
X019012Y006058D02*
X018892Y006058D01*
X018732Y006851D02*
X019174Y006851D01*
X019016Y007009D02*
X018888Y007009D01*
X018892Y007168D02*
X019012Y007168D01*
X019012Y007326D02*
X018978Y007326D01*
X018662Y007802D02*
X009755Y007802D01*
X009755Y007643D02*
X010859Y007643D01*
X010885Y007655D02*
X010754Y007594D01*
X010629Y007522D01*
X010510Y007439D01*
X010400Y007346D01*
X010297Y007244D01*
X010204Y007133D01*
X010122Y007015D01*
X010049Y006890D01*
X009988Y006759D01*
X009939Y006623D01*
X009901Y006483D01*
X009876Y006341D01*
X009864Y006205D01*
X011439Y006205D01*
X011439Y007779D01*
X011302Y007767D01*
X011160Y007742D01*
X011020Y007705D01*
X010885Y007655D01*
X010576Y007485D02*
X009755Y007485D01*
X009755Y007326D02*
X010380Y007326D01*
X010234Y007168D02*
X009755Y007168D01*
X009755Y007009D02*
X010118Y007009D01*
X010031Y006851D02*
X009755Y006851D01*
X009755Y006692D02*
X009964Y006692D01*
X009915Y006534D02*
X009755Y006534D01*
X009755Y006375D02*
X009882Y006375D01*
X009866Y006217D02*
X009755Y006217D01*
X009755Y006058D02*
X011439Y006058D01*
X011439Y006045D02*
X009864Y006045D01*
X009876Y005909D01*
X009901Y005766D01*
X009939Y005627D01*
X009988Y005491D01*
X010049Y005360D01*
X010122Y005235D01*
X010204Y005117D01*
X010297Y005006D01*
X010400Y004904D01*
X010510Y004811D01*
X010629Y004728D01*
X010754Y004656D01*
X010885Y004595D01*
X011020Y004545D01*
X011160Y004508D01*
X011302Y004483D01*
X011439Y004471D01*
X011439Y006045D01*
X011599Y006045D01*
X011599Y006205D01*
X013173Y006205D01*
X013161Y006341D01*
X013136Y006483D01*
X013098Y006623D01*
X013049Y006759D01*
X012988Y006890D01*
X012916Y007015D01*
X012833Y007133D01*
X012740Y007244D01*
X012638Y007346D01*
X012527Y007439D01*
X012409Y007522D01*
X012283Y007594D01*
X012152Y007655D01*
X012017Y007705D01*
X011877Y007742D01*
X011735Y007767D01*
X011599Y007779D01*
X011599Y006205D01*
X011439Y006205D01*
X011439Y006045D01*
X011439Y005900D02*
X011599Y005900D01*
X011599Y006045D02*
X011599Y004471D01*
X011735Y004483D01*
X011877Y004508D01*
X012017Y004545D01*
X012152Y004595D01*
X012283Y004656D01*
X012409Y004728D01*
X012527Y004811D01*
X012638Y004904D01*
X012740Y005006D01*
X012833Y005117D01*
X012916Y005235D01*
X012988Y005360D01*
X013049Y005491D01*
X013098Y005627D01*
X013136Y005766D01*
X013161Y005909D01*
X013173Y006045D01*
X011599Y006045D01*
X011599Y006058D02*
X015092Y006058D01*
X015092Y006047D02*
X015303Y005836D01*
X015442Y005836D01*
X015442Y006186D01*
X015462Y006186D01*
X015462Y006206D01*
X015812Y006206D01*
X015812Y006345D01*
X015601Y006556D01*
X015462Y006556D01*
X015462Y006206D01*
X015442Y006206D01*
X015442Y006556D01*
X015303Y006556D01*
X015092Y006345D01*
X015092Y006206D01*
X015442Y006206D01*
X015442Y006186D01*
X015092Y006186D01*
X015092Y006047D01*
X015092Y006217D02*
X013172Y006217D01*
X013155Y006375D02*
X015122Y006375D01*
X015281Y006534D02*
X013122Y006534D01*
X013073Y006692D02*
X018172Y006692D01*
X018168Y006534D02*
X017736Y006534D01*
X017892Y006375D02*
X018012Y006375D01*
X018012Y006217D02*
X017892Y006217D01*
X017892Y006058D02*
X018012Y006058D01*
X017634Y006756D02*
X017892Y007013D01*
X017892Y007378D01*
X017634Y007636D01*
X017269Y007636D01*
X017012Y007378D01*
X017012Y007013D01*
X017269Y006756D01*
X017634Y006756D01*
X017729Y006851D02*
X018172Y006851D01*
X018016Y007009D02*
X017888Y007009D01*
X017892Y007168D02*
X018012Y007168D01*
X018012Y007326D02*
X017892Y007326D01*
X017785Y007485D02*
X018119Y007485D01*
X018503Y007643D02*
X012178Y007643D01*
X012461Y007485D02*
X015232Y007485D01*
X015303Y007556D02*
X015092Y007345D01*
X015092Y007206D01*
X015442Y007206D01*
X015442Y007556D01*
X015303Y007556D01*
X015442Y007485D02*
X015462Y007485D01*
X015462Y007556D02*
X015601Y007556D01*
X015812Y007345D01*
X015812Y007206D01*
X015462Y007206D01*
X015462Y007186D01*
X015812Y007186D01*
X015812Y007047D01*
X015601Y006836D01*
X015462Y006836D01*
X015462Y007186D01*
X015442Y007186D01*
X015442Y006836D01*
X015303Y006836D01*
X015092Y007047D01*
X015092Y007186D01*
X015442Y007186D01*
X015442Y007206D01*
X015462Y007206D01*
X015462Y007556D01*
X015672Y007485D02*
X016119Y007485D01*
X016012Y007378D02*
X016012Y007013D01*
X016269Y006756D01*
X016634Y006756D01*
X016892Y007013D01*
X016892Y007378D01*
X016634Y007636D01*
X016269Y007636D01*
X016012Y007378D01*
X016012Y007326D02*
X015812Y007326D01*
X015812Y007168D02*
X016012Y007168D01*
X016016Y007009D02*
X015774Y007009D01*
X015616Y006851D02*
X016174Y006851D01*
X016168Y006534D02*
X015623Y006534D01*
X015462Y006534D02*
X015442Y006534D01*
X015442Y006375D02*
X015462Y006375D01*
X015462Y006217D02*
X015442Y006217D01*
X015462Y006186D02*
X015812Y006186D01*
X015812Y006047D01*
X015601Y005836D01*
X015462Y005836D01*
X015462Y006186D01*
X015462Y006058D02*
X015442Y006058D01*
X015442Y005900D02*
X015462Y005900D01*
X015665Y005900D02*
X016125Y005900D01*
X016012Y006058D02*
X015812Y006058D01*
X015812Y006217D02*
X016012Y006217D01*
X016012Y006375D02*
X015781Y006375D01*
X015462Y006851D02*
X015442Y006851D01*
X015287Y006851D02*
X013006Y006851D01*
X012919Y007009D02*
X015129Y007009D01*
X015092Y007168D02*
X012804Y007168D01*
X012657Y007326D02*
X015092Y007326D01*
X015442Y007326D02*
X015462Y007326D01*
X015462Y007168D02*
X015442Y007168D01*
X015442Y007009D02*
X015462Y007009D01*
X015238Y005900D02*
X013159Y005900D01*
X013129Y005741D02*
X016397Y005741D01*
X016555Y005583D02*
X013082Y005583D01*
X013018Y005424D02*
X016714Y005424D01*
X016872Y005266D02*
X012933Y005266D01*
X012825Y005107D02*
X013543Y005107D01*
X013359Y004949D02*
X012683Y004949D01*
X012498Y004790D02*
X013282Y004790D01*
X013282Y004816D02*
X013282Y004816D01*
X013282Y004632D02*
X012232Y004632D01*
X011629Y004473D02*
X013282Y004473D01*
X011599Y004473D02*
X011439Y004473D01*
X011409Y004473D02*
X010785Y004473D01*
X010805Y004632D02*
X010490Y004632D01*
X010539Y004790D02*
X010286Y004790D01*
X010354Y004949D02*
X010128Y004949D01*
X010212Y005107D02*
X010019Y005107D01*
X010104Y005266D02*
X009928Y005266D01*
X009858Y005424D02*
X010019Y005424D01*
X009955Y005583D02*
X009816Y005583D01*
X009773Y005741D02*
X009908Y005741D01*
X009878Y005900D02*
X009760Y005900D01*
X010334Y007960D02*
X018820Y007960D01*
X019014Y008119D02*
X010483Y008119D01*
X010542Y008277D02*
X021775Y008277D01*
X021934Y008436D02*
X010542Y008436D01*
X010542Y008594D02*
X022092Y008594D01*
X022251Y008753D02*
X021147Y008753D01*
X021340Y008911D02*
X022270Y008911D01*
X022270Y009070D02*
X021382Y009070D01*
X021348Y009228D02*
X022270Y009228D01*
X022830Y009228D02*
X023650Y009228D01*
X023622Y009161D02*
X023622Y008994D01*
X023686Y008840D01*
X023804Y008722D01*
X023959Y008658D01*
X024126Y008658D01*
X024280Y008722D01*
X024398Y008840D01*
X024462Y008994D01*
X024462Y009161D01*
X024398Y009316D01*
X024280Y009434D01*
X024126Y009498D01*
X023959Y009498D01*
X023804Y009434D01*
X023686Y009316D01*
X023622Y009161D01*
X023622Y009070D02*
X022830Y009070D01*
X022830Y008911D02*
X023656Y008911D01*
X023773Y008753D02*
X022830Y008753D01*
X022827Y008594D02*
X024470Y008594D01*
X024470Y008753D02*
X024311Y008753D01*
X024428Y008911D02*
X024470Y008911D01*
X024462Y009070D02*
X024470Y009070D01*
X024470Y009228D02*
X024434Y009228D01*
X024470Y009387D02*
X024327Y009387D01*
X024470Y009545D02*
X022830Y009545D01*
X022830Y009387D02*
X023757Y009387D01*
X023847Y009704D02*
X022830Y009704D01*
X022830Y009862D02*
X023677Y009862D01*
X023686Y009840D02*
X023804Y009722D01*
X023959Y009658D01*
X024126Y009658D01*
X024280Y009722D01*
X024398Y009840D01*
X024462Y009994D01*
X024462Y010161D01*
X024398Y010316D01*
X024280Y010434D01*
X024126Y010498D01*
X023959Y010498D01*
X023804Y010434D01*
X023686Y010316D01*
X023622Y010161D01*
X023622Y009994D01*
X023686Y009840D01*
X023622Y010021D02*
X022830Y010021D01*
X022830Y010179D02*
X023630Y010179D01*
X023708Y010338D02*
X022830Y010338D01*
X022830Y010496D02*
X023956Y010496D01*
X024129Y010496D02*
X024470Y010496D01*
X024470Y010338D02*
X024376Y010338D01*
X024455Y010179D02*
X024470Y010179D01*
X024462Y010021D02*
X024470Y010021D01*
X024470Y009862D02*
X024408Y009862D01*
X024470Y009704D02*
X024237Y009704D01*
X025030Y009704D02*
X025226Y009704D01*
X025226Y009545D02*
X025030Y009545D01*
X025030Y009387D02*
X025226Y009387D01*
X025226Y009228D02*
X025030Y009228D01*
X025030Y009070D02*
X025226Y009070D01*
X025226Y008911D02*
X025030Y008911D01*
X025030Y008753D02*
X025226Y008753D01*
X025226Y008594D02*
X025030Y008594D01*
X025030Y008436D02*
X025226Y008436D01*
X025226Y008277D02*
X025020Y008277D01*
X024909Y008119D02*
X025203Y008119D01*
X025045Y007960D02*
X024750Y007960D01*
X024886Y007802D02*
X024592Y007802D01*
X024728Y007643D02*
X024433Y007643D01*
X024569Y007485D02*
X024275Y007485D01*
X024411Y007326D02*
X024116Y007326D01*
X024252Y007168D02*
X023958Y007168D01*
X024094Y007009D02*
X023799Y007009D01*
X023935Y006851D02*
X019729Y006851D01*
X019785Y007485D02*
X023483Y007485D01*
X023641Y007643D02*
X021933Y007643D01*
X022092Y007802D02*
X023800Y007802D01*
X023958Y007960D02*
X022250Y007960D01*
X022409Y008119D02*
X024117Y008119D01*
X024275Y008277D02*
X022567Y008277D01*
X022726Y008436D02*
X024434Y008436D01*
X025030Y009862D02*
X025191Y009862D01*
X025166Y010021D02*
X025030Y010021D01*
X025030Y010179D02*
X025166Y010179D01*
X025268Y010338D02*
X025030Y010338D01*
X025903Y010338D02*
X026381Y010338D01*
X026246Y010179D02*
X026006Y010179D01*
X026006Y010021D02*
X026246Y010021D01*
X026304Y009862D02*
X025980Y009862D01*
X026926Y010021D02*
X032573Y010021D01*
X032573Y010179D02*
X026926Y010179D01*
X017119Y007485D02*
X016785Y007485D01*
X016892Y007326D02*
X017012Y007326D01*
X017012Y007168D02*
X016892Y007168D01*
X016888Y007009D02*
X017016Y007009D01*
X017174Y006851D02*
X016729Y006851D01*
X016736Y006534D02*
X017168Y006534D01*
X017012Y006375D02*
X016892Y006375D01*
X016940Y006217D02*
X017012Y006217D01*
X015444Y011923D02*
X015223Y011923D01*
X015286Y012081D02*
X015064Y012081D01*
X015127Y012240D02*
X014906Y012240D01*
X014969Y012398D02*
X014747Y012398D01*
X014810Y012557D02*
X014589Y012557D01*
X014652Y012715D02*
X014430Y012715D01*
X014493Y012874D02*
X014272Y012874D01*
X014335Y013032D02*
X014113Y013032D01*
X014176Y013191D02*
X013955Y013191D01*
X014018Y013349D02*
X013796Y013349D01*
X013859Y013508D02*
X013638Y013508D01*
X013701Y013666D02*
X013479Y013666D01*
X013276Y013191D02*
X013049Y013191D01*
X013049Y013032D02*
X013435Y013032D01*
X013593Y012874D02*
X013152Y012874D01*
X013311Y012715D02*
X013752Y012715D01*
X013910Y012557D02*
X013469Y012557D01*
X013628Y012398D02*
X014069Y012398D01*
X014227Y012240D02*
X013786Y012240D01*
X013945Y012081D02*
X014386Y012081D01*
X014544Y011923D02*
X014103Y011923D01*
X015330Y012715D02*
X016095Y012715D01*
X011599Y007643D02*
X011439Y007643D01*
X011439Y007485D02*
X011599Y007485D01*
X011599Y007326D02*
X011439Y007326D01*
X011439Y007168D02*
X011599Y007168D01*
X011599Y007009D02*
X011439Y007009D01*
X011439Y006851D02*
X011599Y006851D01*
X011599Y006692D02*
X011439Y006692D01*
X011439Y006534D02*
X011599Y006534D01*
X011599Y006375D02*
X011439Y006375D01*
X011439Y006217D02*
X011599Y006217D01*
X011599Y005741D02*
X011439Y005741D01*
X011439Y005583D02*
X011599Y005583D01*
X011599Y005424D02*
X011439Y005424D01*
X011439Y005266D02*
X011599Y005266D01*
X011599Y005107D02*
X011439Y005107D01*
X011439Y004949D02*
X011599Y004949D01*
X011599Y004790D02*
X011439Y004790D01*
X011439Y004632D02*
X011599Y004632D01*
D16*
X018452Y006196D02*
X018452Y007196D01*
X019112Y007856D01*
X021750Y007856D01*
X022550Y008656D01*
X022550Y011056D01*
X022550Y021856D01*
X022550Y032456D01*
X022550Y043156D01*
X022550Y048856D01*
X020150Y051256D01*
X017749Y051256D01*
X016452Y052554D01*
X016452Y053554D01*
X016452Y056235D01*
X016452Y057235D01*
X015452Y057235D02*
X014850Y056634D01*
X014850Y054156D01*
X015452Y053555D01*
X015452Y053554D01*
X015452Y053555D02*
X014750Y052856D01*
X014750Y052353D01*
X015452Y052554D02*
X017349Y050656D01*
X017350Y050656D01*
X019650Y050656D01*
X021750Y048556D01*
X021750Y044156D01*
X021750Y033456D01*
X021750Y022856D01*
X021750Y012056D01*
X024029Y014078D02*
X023250Y014856D01*
X023250Y019034D01*
X024042Y019826D01*
X024042Y024826D02*
X024042Y024864D01*
X023350Y025556D01*
X023350Y029763D01*
X024042Y030456D01*
X024042Y035456D02*
X024042Y035464D01*
X023250Y036256D01*
X023250Y040372D01*
X024042Y041164D01*
X024058Y046164D02*
X024042Y046164D01*
X024058Y046164D02*
X024650Y046756D01*
X024650Y049856D01*
X019950Y054556D01*
X019130Y054556D01*
X017452Y056235D01*
X024029Y014078D02*
X024042Y014078D01*
X024042Y012078D02*
X024042Y012064D01*
X024750Y011356D01*
X024750Y008356D01*
X023550Y007156D01*
X019491Y007156D01*
X019452Y007196D01*
D17*
X022550Y011056D03*
X021750Y012056D03*
X022550Y021856D03*
X021750Y022856D03*
X022550Y032456D03*
X021750Y033456D03*
X022550Y043156D03*
X021750Y044156D03*
X014750Y052353D03*
D18*
X025586Y010062D02*
X025586Y007992D01*
X023150Y005556D01*
X017091Y005556D01*
X016452Y006196D01*
M02*
