%
M48
M72
T01C0.0130
T02C0.0320
T03C0.0360
T04C0.1220
%
T01
X21750Y12056
X22550Y11056
X22550Y21856
X21750Y22856
X22550Y32456
X21750Y33456
X22550Y43156
X21750Y44156
X14750Y52353
T02
X16318Y50164
X16318Y49164
X16318Y48164
X16318Y47164
X16318Y46164
X16318Y45164
X16318Y44164
X16318Y43164
X16318Y42164
X16318Y39456
X16318Y38456
X16318Y37456
X16318Y36456
X16318Y35456
X16318Y34456
X16318Y33456
X16318Y32456
X16318Y31456
X16318Y28826
X16318Y27826
X16318Y26826
X16318Y25826
X16318Y24826
X16318Y23826
X16318Y22826
X16318Y21826
X16318Y20826
X16318Y18078
X16318Y17078
X16318Y16078
X16318Y15078
X16318Y14078
X16318Y13078
X16318Y12078
X16318Y11078
X16318Y10078
X19318Y10078
X19318Y11078
X19318Y12078
X19318Y13078
X19318Y14078
X19318Y15078
X19318Y16078
X19318Y17078
X19318Y18078
X19318Y20826
X19318Y21826
X19318Y22826
X19318Y23826
X19318Y24826
X19318Y25826
X19318Y26826
X19318Y27826
X19318Y28826
X19318Y31456
X19318Y32456
X19318Y33456
X19318Y34456
X19318Y35456
X19318Y36456
X19318Y37456
X19318Y38456
X19318Y39456
X19318Y42164
X19318Y43164
X19318Y44164
X19318Y45164
X19318Y46164
X19318Y47164
X19318Y48164
X19318Y49164
X19318Y50164
X21042Y48164
X21042Y47164
X21042Y46164
X21042Y45164
X21042Y44164
X21042Y43164
X21042Y42164
X21042Y41164
X21042Y37456
X21042Y36456
X21042Y35456
X21042Y34456
X21042Y33456
X21042Y32456
X21042Y31456
X21042Y30456
X21042Y26826
X21042Y25826
X21042Y24826
X21042Y23826
X21042Y22826
X21042Y21826
X21042Y20826
X21042Y19826
X21042Y16078
X21042Y15078
X21042Y14078
X21042Y13078
X21042Y12078
X21042Y11078
X21042Y10078
X21042Y9078
X24042Y9078
X24042Y10078
X24042Y11078
X24042Y12078
X24042Y13078
X24042Y14078
X24042Y15078
X24042Y16078
X24042Y19826
X24042Y20826
X24042Y21826
X24042Y22826
X24042Y23826
X24042Y24826
X24042Y25826
X24042Y26826
X24042Y30456
X24042Y31456
X24042Y32456
X24042Y33456
X24042Y34456
X24042Y35456
X24042Y36456
X24042Y37456
X24042Y41164
X24042Y42164
X24042Y43164
X24042Y44164
X24042Y45164
X24042Y46164
X24042Y47164
X24042Y48164
X25586Y42164
X26586Y42164
X26586Y31456
X25586Y31456
X25586Y20826
X26586Y20826
X26586Y10062
X25586Y10062
T03
X19452Y7196
X19452Y6196
X18452Y6196
X18452Y7196
X17452Y7196
X17452Y6196
X16452Y6196
X16452Y7196
X15452Y7196
X15452Y6196
X12609Y12078
X12609Y13078
X12609Y14078
X12609Y15078
X12609Y16078
X11609Y16078
X11609Y15078
X11609Y14078
X11609Y13078
X11609Y12078
X11609Y22826
X11609Y23826
X11609Y24826
X11609Y25826
X11609Y26826
X12609Y26826
X12609Y25826
X12609Y24826
X12609Y23826
X12609Y22826
X12609Y33456
X12609Y34456
X12609Y35456
X12609Y36456
X12609Y37456
X11609Y37456
X11609Y36456
X11609Y35456
X11609Y34456
X11609Y33456
X11609Y44164
X11609Y45164
X11609Y46164
X11609Y47164
X11609Y48164
X12609Y48164
X12609Y47164
X12609Y46164
X12609Y45164
X12609Y44164
X15452Y52554
X15452Y53554
X16452Y53554
X16452Y52554
X17452Y52554
X17452Y53554
X18452Y53554
X18452Y52554
X19452Y52554
X19452Y53554
X19452Y56235
X19452Y57235
X18452Y57235
X18452Y56235
X17452Y56235
X17452Y57235
X16452Y57235
X16452Y56235
X15452Y56235
X15452Y57235
T04
X11519Y6125
X29235Y45495
X11519Y57306
M30
